<?xml version="1.0" encoding="utf-8"?>
<svg xmlns="http://www.w3.org/2000/svg" xmlns:xlink="http://www.w3.org/1999/xlink" width="600" height="400" viewBox="0 0 2400 1600">
<defs>
  <clipPath id="clip110">
    <rect x="0" y="0" width="2400" height="1600"/>
  </clipPath>
</defs>
<path clip-path="url(#clip110)" d="M0 1600 L2400 1600 L2400 0 L0 0  Z" fill="#000000" fill-rule="evenodd" fill-opacity="0"/>
<defs>
  <clipPath id="clip111">
    <rect x="480" y="0" width="1681" height="1600"/>
  </clipPath>
</defs>
<path clip-path="url(#clip110)" d="M175.445 1423.18 L2352.76 1423.18 L2352.76 123.472 L175.445 123.472  Z" fill="#000000" fill-rule="evenodd" fill-opacity="0"/>
<defs>
  <clipPath id="clip112">
    <rect x="175" y="123" width="2178" height="1301"/>
  </clipPath>
</defs>
<polyline clip-path="url(#clip112)" style="stroke:#ffffff; stroke-linecap:round; stroke-linejoin:round; stroke-width:2; stroke-opacity:0.1; fill:none" points="237.067,1423.18 237.067,123.472 "/>
<polyline clip-path="url(#clip112)" style="stroke:#ffffff; stroke-linecap:round; stroke-linejoin:round; stroke-width:2; stroke-opacity:0.1; fill:none" points="755.771,1423.18 755.771,123.472 "/>
<polyline clip-path="url(#clip112)" style="stroke:#ffffff; stroke-linecap:round; stroke-linejoin:round; stroke-width:2; stroke-opacity:0.1; fill:none" points="1274.47,1423.18 1274.47,123.472 "/>
<polyline clip-path="url(#clip112)" style="stroke:#ffffff; stroke-linecap:round; stroke-linejoin:round; stroke-width:2; stroke-opacity:0.1; fill:none" points="1793.18,1423.18 1793.18,123.472 "/>
<polyline clip-path="url(#clip112)" style="stroke:#ffffff; stroke-linecap:round; stroke-linejoin:round; stroke-width:2; stroke-opacity:0.1; fill:none" points="2311.88,1423.18 2311.88,123.472 "/>
<polyline clip-path="url(#clip110)" style="stroke:#ffffff; stroke-linecap:round; stroke-linejoin:round; stroke-width:4; stroke-opacity:1; fill:none" points="175.445,1423.18 2352.76,1423.18 "/>
<polyline clip-path="url(#clip110)" style="stroke:#ffffff; stroke-linecap:round; stroke-linejoin:round; stroke-width:4; stroke-opacity:1; fill:none" points="237.067,1423.18 237.067,1404.28 "/>
<polyline clip-path="url(#clip110)" style="stroke:#ffffff; stroke-linecap:round; stroke-linejoin:round; stroke-width:4; stroke-opacity:1; fill:none" points="755.771,1423.18 755.771,1404.28 "/>
<polyline clip-path="url(#clip110)" style="stroke:#ffffff; stroke-linecap:round; stroke-linejoin:round; stroke-width:4; stroke-opacity:1; fill:none" points="1274.47,1423.18 1274.47,1404.28 "/>
<polyline clip-path="url(#clip110)" style="stroke:#ffffff; stroke-linecap:round; stroke-linejoin:round; stroke-width:4; stroke-opacity:1; fill:none" points="1793.18,1423.18 1793.18,1404.28 "/>
<polyline clip-path="url(#clip110)" style="stroke:#ffffff; stroke-linecap:round; stroke-linejoin:round; stroke-width:4; stroke-opacity:1; fill:none" points="2311.88,1423.18 2311.88,1404.28 "/>
<path clip-path="url(#clip110)" d="M199.371 1454.1 Q195.76 1454.1 193.931 1457.66 Q192.125 1461.2 192.125 1468.33 Q192.125 1475.44 193.931 1479.01 Q195.76 1482.55 199.371 1482.55 Q203.005 1482.55 204.81 1479.01 Q206.639 1475.44 206.639 1468.33 Q206.639 1461.2 204.81 1457.66 Q203.005 1454.1 199.371 1454.1 M199.371 1450.39 Q205.181 1450.39 208.236 1455 Q211.315 1459.58 211.315 1468.33 Q211.315 1477.06 208.236 1481.67 Q205.181 1486.25 199.371 1486.25 Q193.56 1486.25 190.482 1481.67 Q187.426 1477.06 187.426 1468.33 Q187.426 1459.58 190.482 1455 Q193.56 1450.39 199.371 1450.39 Z" fill="#ffffff" fill-rule="evenodd" fill-opacity="1" /><path clip-path="url(#clip110)" d="M219.533 1479.7 L224.417 1479.7 L224.417 1485.58 L219.533 1485.58 L219.533 1479.7 Z" fill="#ffffff" fill-rule="evenodd" fill-opacity="1" /><path clip-path="url(#clip110)" d="M244.602 1454.1 Q240.991 1454.1 239.162 1457.66 Q237.357 1461.2 237.357 1468.33 Q237.357 1475.44 239.162 1479.01 Q240.991 1482.55 244.602 1482.55 Q248.236 1482.55 250.042 1479.01 Q251.87 1475.44 251.87 1468.33 Q251.87 1461.2 250.042 1457.66 Q248.236 1454.1 244.602 1454.1 M244.602 1450.39 Q250.412 1450.39 253.468 1455 Q256.546 1459.58 256.546 1468.33 Q256.546 1477.06 253.468 1481.67 Q250.412 1486.25 244.602 1486.25 Q238.792 1486.25 235.713 1481.67 Q232.658 1477.06 232.658 1468.33 Q232.658 1459.58 235.713 1455 Q238.792 1450.39 244.602 1450.39 Z" fill="#ffffff" fill-rule="evenodd" fill-opacity="1" /><path clip-path="url(#clip110)" d="M274.764 1454.1 Q271.153 1454.1 269.324 1457.66 Q267.518 1461.2 267.518 1468.33 Q267.518 1475.44 269.324 1479.01 Q271.153 1482.55 274.764 1482.55 Q278.398 1482.55 280.204 1479.01 Q282.032 1475.44 282.032 1468.33 Q282.032 1461.2 280.204 1457.66 Q278.398 1454.1 274.764 1454.1 M274.764 1450.39 Q280.574 1450.39 283.629 1455 Q286.708 1459.58 286.708 1468.33 Q286.708 1477.06 283.629 1481.67 Q280.574 1486.25 274.764 1486.25 Q268.954 1486.25 265.875 1481.67 Q262.819 1477.06 262.819 1468.33 Q262.819 1459.58 265.875 1455 Q268.954 1450.39 274.764 1450.39 Z" fill="#ffffff" fill-rule="evenodd" fill-opacity="1" /><path clip-path="url(#clip110)" d="M718.572 1454.1 Q714.961 1454.1 713.132 1457.66 Q711.327 1461.2 711.327 1468.33 Q711.327 1475.44 713.132 1479.01 Q714.961 1482.55 718.572 1482.55 Q722.206 1482.55 724.012 1479.01 Q725.841 1475.44 725.841 1468.33 Q725.841 1461.2 724.012 1457.66 Q722.206 1454.1 718.572 1454.1 M718.572 1450.39 Q724.382 1450.39 727.438 1455 Q730.516 1459.58 730.516 1468.33 Q730.516 1477.06 727.438 1481.67 Q724.382 1486.25 718.572 1486.25 Q712.762 1486.25 709.683 1481.67 Q706.628 1477.06 706.628 1468.33 Q706.628 1459.58 709.683 1455 Q712.762 1450.39 718.572 1450.39 Z" fill="#ffffff" fill-rule="evenodd" fill-opacity="1" /><path clip-path="url(#clip110)" d="M738.734 1479.7 L743.618 1479.7 L743.618 1485.58 L738.734 1485.58 L738.734 1479.7 Z" fill="#ffffff" fill-rule="evenodd" fill-opacity="1" /><path clip-path="url(#clip110)" d="M757.831 1481.64 L774.15 1481.64 L774.15 1485.58 L752.206 1485.58 L752.206 1481.64 Q754.868 1478.89 759.451 1474.26 Q764.058 1469.61 765.238 1468.27 Q767.484 1465.74 768.363 1464.01 Q769.266 1462.25 769.266 1460.56 Q769.266 1457.8 767.322 1456.07 Q765.4 1454.33 762.299 1454.33 Q760.1 1454.33 757.646 1455.09 Q755.215 1455.86 752.438 1457.41 L752.438 1452.69 Q755.262 1451.55 757.715 1450.97 Q760.169 1450.39 762.206 1450.39 Q767.576 1450.39 770.771 1453.08 Q773.965 1455.77 773.965 1460.26 Q773.965 1462.39 773.155 1464.31 Q772.368 1466.2 770.262 1468.8 Q769.683 1469.47 766.581 1472.69 Q763.479 1475.88 757.831 1481.64 Z" fill="#ffffff" fill-rule="evenodd" fill-opacity="1" /><path clip-path="url(#clip110)" d="M784.012 1451.02 L802.368 1451.02 L802.368 1454.96 L788.294 1454.96 L788.294 1463.43 Q789.312 1463.08 790.331 1462.92 Q791.349 1462.73 792.368 1462.73 Q798.155 1462.73 801.535 1465.9 Q804.914 1469.08 804.914 1474.49 Q804.914 1480.07 801.442 1483.17 Q797.97 1486.25 791.65 1486.25 Q789.474 1486.25 787.206 1485.88 Q784.961 1485.51 782.553 1484.77 L782.553 1480.07 Q784.637 1481.2 786.859 1481.76 Q789.081 1482.32 791.558 1482.32 Q795.562 1482.32 797.9 1480.21 Q800.238 1478.1 800.238 1474.49 Q800.238 1470.88 797.9 1468.77 Q795.562 1466.67 791.558 1466.67 Q789.683 1466.67 787.808 1467.08 Q785.956 1467.5 784.012 1468.38 L784.012 1451.02 Z" fill="#ffffff" fill-rule="evenodd" fill-opacity="1" /><path clip-path="url(#clip110)" d="M1236.78 1454.1 Q1233.17 1454.1 1231.34 1457.66 Q1229.53 1461.2 1229.53 1468.33 Q1229.53 1475.44 1231.34 1479.01 Q1233.17 1482.55 1236.78 1482.55 Q1240.41 1482.55 1242.22 1479.01 Q1244.05 1475.44 1244.05 1468.33 Q1244.05 1461.2 1242.22 1457.66 Q1240.41 1454.1 1236.78 1454.1 M1236.78 1450.39 Q1242.59 1450.39 1245.64 1455 Q1248.72 1459.58 1248.72 1468.33 Q1248.72 1477.06 1245.64 1481.67 Q1242.59 1486.25 1236.78 1486.25 Q1230.97 1486.25 1227.89 1481.67 Q1224.83 1477.06 1224.83 1468.33 Q1224.83 1459.58 1227.89 1455 Q1230.97 1450.39 1236.78 1450.39 Z" fill="#ffffff" fill-rule="evenodd" fill-opacity="1" /><path clip-path="url(#clip110)" d="M1256.94 1479.7 L1261.82 1479.7 L1261.82 1485.58 L1256.94 1485.58 L1256.94 1479.7 Z" fill="#ffffff" fill-rule="evenodd" fill-opacity="1" /><path clip-path="url(#clip110)" d="M1272.06 1451.02 L1290.41 1451.02 L1290.41 1454.96 L1276.34 1454.96 L1276.34 1463.43 Q1277.36 1463.08 1278.38 1462.92 Q1279.39 1462.73 1280.41 1462.73 Q1286.2 1462.73 1289.58 1465.9 Q1292.96 1469.08 1292.96 1474.49 Q1292.96 1480.07 1289.49 1483.17 Q1286.01 1486.25 1279.69 1486.25 Q1277.52 1486.25 1275.25 1485.88 Q1273 1485.51 1270.6 1484.77 L1270.6 1480.07 Q1272.68 1481.2 1274.9 1481.76 Q1277.13 1482.32 1279.6 1482.32 Q1283.61 1482.32 1285.94 1480.21 Q1288.28 1478.1 1288.28 1474.49 Q1288.28 1470.88 1285.94 1468.77 Q1283.61 1466.67 1279.6 1466.67 Q1277.73 1466.67 1275.85 1467.08 Q1274 1467.5 1272.06 1468.38 L1272.06 1451.02 Z" fill="#ffffff" fill-rule="evenodd" fill-opacity="1" /><path clip-path="url(#clip110)" d="M1312.17 1454.1 Q1308.56 1454.1 1306.73 1457.66 Q1304.93 1461.2 1304.93 1468.33 Q1304.93 1475.44 1306.73 1479.01 Q1308.56 1482.55 1312.17 1482.55 Q1315.81 1482.55 1317.61 1479.01 Q1319.44 1475.44 1319.44 1468.33 Q1319.44 1461.2 1317.61 1457.66 Q1315.81 1454.1 1312.17 1454.1 M1312.17 1450.39 Q1317.98 1450.39 1321.04 1455 Q1324.12 1459.58 1324.12 1468.33 Q1324.12 1477.06 1321.04 1481.67 Q1317.98 1486.25 1312.17 1486.25 Q1306.36 1486.25 1303.28 1481.67 Q1300.23 1477.06 1300.23 1468.33 Q1300.23 1459.58 1303.28 1455 Q1306.36 1450.39 1312.17 1450.39 Z" fill="#ffffff" fill-rule="evenodd" fill-opacity="1" /><path clip-path="url(#clip110)" d="M1755.98 1454.1 Q1752.37 1454.1 1750.54 1457.66 Q1748.73 1461.2 1748.73 1468.33 Q1748.73 1475.44 1750.54 1479.01 Q1752.37 1482.55 1755.98 1482.55 Q1759.61 1482.55 1761.42 1479.01 Q1763.25 1475.44 1763.25 1468.33 Q1763.25 1461.2 1761.42 1457.66 Q1759.61 1454.1 1755.98 1454.1 M1755.98 1450.39 Q1761.79 1450.39 1764.85 1455 Q1767.92 1459.58 1767.92 1468.33 Q1767.92 1477.06 1764.85 1481.67 Q1761.79 1486.25 1755.98 1486.25 Q1750.17 1486.25 1747.09 1481.67 Q1744.04 1477.06 1744.04 1468.33 Q1744.04 1459.58 1747.09 1455 Q1750.17 1450.39 1755.98 1450.39 Z" fill="#ffffff" fill-rule="evenodd" fill-opacity="1" /><path clip-path="url(#clip110)" d="M1776.14 1479.7 L1781.03 1479.7 L1781.03 1485.58 L1776.14 1485.58 L1776.14 1479.7 Z" fill="#ffffff" fill-rule="evenodd" fill-opacity="1" /><path clip-path="url(#clip110)" d="M1790.03 1451.02 L1812.25 1451.02 L1812.25 1453.01 L1799.71 1485.58 L1794.82 1485.58 L1806.63 1454.96 L1790.03 1454.96 L1790.03 1451.02 Z" fill="#ffffff" fill-rule="evenodd" fill-opacity="1" /><path clip-path="url(#clip110)" d="M1821.42 1451.02 L1839.78 1451.02 L1839.78 1454.96 L1825.7 1454.96 L1825.7 1463.43 Q1826.72 1463.08 1827.74 1462.92 Q1828.76 1462.73 1829.78 1462.73 Q1835.56 1462.73 1838.94 1465.9 Q1842.32 1469.08 1842.32 1474.49 Q1842.32 1480.07 1838.85 1483.17 Q1835.38 1486.25 1829.06 1486.25 Q1826.88 1486.25 1824.61 1485.88 Q1822.37 1485.51 1819.96 1484.77 L1819.96 1480.07 Q1822.04 1481.2 1824.27 1481.76 Q1826.49 1482.32 1828.97 1482.32 Q1832.97 1482.32 1835.31 1480.21 Q1837.65 1478.1 1837.65 1474.49 Q1837.65 1470.88 1835.31 1468.77 Q1832.97 1466.67 1828.97 1466.67 Q1827.09 1466.67 1825.22 1467.08 Q1823.36 1467.5 1821.42 1468.38 L1821.42 1451.02 Z" fill="#ffffff" fill-rule="evenodd" fill-opacity="1" /><path clip-path="url(#clip110)" d="M2263.95 1481.64 L2271.59 1481.64 L2271.59 1455.28 L2263.28 1456.95 L2263.28 1452.69 L2271.55 1451.02 L2276.22 1451.02 L2276.22 1481.64 L2283.86 1481.64 L2283.86 1485.58 L2263.95 1485.58 L2263.95 1481.64 Z" fill="#ffffff" fill-rule="evenodd" fill-opacity="1" /><path clip-path="url(#clip110)" d="M2293.31 1479.7 L2298.19 1479.7 L2298.19 1485.58 L2293.31 1485.58 L2293.31 1479.7 Z" fill="#ffffff" fill-rule="evenodd" fill-opacity="1" /><path clip-path="url(#clip110)" d="M2318.38 1454.1 Q2314.76 1454.1 2312.94 1457.66 Q2311.13 1461.2 2311.13 1468.33 Q2311.13 1475.44 2312.94 1479.01 Q2314.76 1482.55 2318.38 1482.55 Q2322.01 1482.55 2323.81 1479.01 Q2325.64 1475.44 2325.64 1468.33 Q2325.64 1461.2 2323.81 1457.66 Q2322.01 1454.1 2318.38 1454.1 M2318.38 1450.39 Q2324.19 1450.39 2327.24 1455 Q2330.32 1459.58 2330.32 1468.33 Q2330.32 1477.06 2327.24 1481.67 Q2324.19 1486.25 2318.38 1486.25 Q2312.56 1486.25 2309.49 1481.67 Q2306.43 1477.06 2306.43 1468.33 Q2306.43 1459.58 2309.49 1455 Q2312.56 1450.39 2318.38 1450.39 Z" fill="#ffffff" fill-rule="evenodd" fill-opacity="1" /><path clip-path="url(#clip110)" d="M2348.54 1454.1 Q2344.93 1454.1 2343.1 1457.66 Q2341.29 1461.2 2341.29 1468.33 Q2341.29 1475.44 2343.1 1479.01 Q2344.93 1482.55 2348.54 1482.55 Q2352.17 1482.55 2353.98 1479.01 Q2355.81 1475.44 2355.81 1468.33 Q2355.81 1461.2 2353.98 1457.66 Q2352.17 1454.1 2348.54 1454.1 M2348.54 1450.39 Q2354.35 1450.39 2357.4 1455 Q2360.48 1459.58 2360.48 1468.33 Q2360.48 1477.06 2357.4 1481.67 Q2354.35 1486.25 2348.54 1486.25 Q2342.73 1486.25 2339.65 1481.67 Q2336.59 1477.06 2336.59 1468.33 Q2336.59 1459.58 2339.65 1455 Q2342.73 1450.39 2348.54 1450.39 Z" fill="#ffffff" fill-rule="evenodd" fill-opacity="1" /><path clip-path="url(#clip110)" d="M1194.73 1568.04 L1176.59 1520.52 L1183.3 1520.52 L1198.36 1560.53 L1213.45 1520.52 L1220.13 1520.52 L1202.02 1568.04 L1194.73 1568.04 Z" fill="#ffffff" fill-rule="evenodd" fill-opacity="1" /><path clip-path="url(#clip110)" d="M1237.95 1550.12 Q1230.86 1550.12 1228.12 1551.75 Q1225.38 1553.37 1225.38 1557.29 Q1225.38 1560.4 1227.42 1562.25 Q1229.49 1564.07 1233.02 1564.07 Q1237.89 1564.07 1240.82 1560.63 Q1243.78 1557.16 1243.78 1551.43 L1243.78 1550.12 L1237.95 1550.12 M1249.63 1547.71 L1249.63 1568.04 L1243.78 1568.04 L1243.78 1562.63 Q1241.77 1565.88 1238.78 1567.44 Q1235.79 1568.97 1231.46 1568.97 Q1225.99 1568.97 1222.74 1565.91 Q1219.52 1562.82 1219.52 1557.67 Q1219.52 1551.65 1223.54 1548.6 Q1227.58 1545.54 1235.57 1545.54 L1243.78 1545.54 L1243.78 1544.97 Q1243.78 1540.93 1241.1 1538.73 Q1238.46 1536.5 1233.66 1536.5 Q1230.6 1536.5 1227.7 1537.23 Q1224.81 1537.97 1222.13 1539.43 L1222.13 1534.02 Q1225.35 1532.78 1228.37 1532.17 Q1231.4 1531.54 1234.26 1531.54 Q1242 1531.54 1245.82 1535.55 Q1249.63 1539.56 1249.63 1547.71 Z" fill="#ffffff" fill-rule="evenodd" fill-opacity="1" /><path clip-path="url(#clip110)" d="M1261.7 1518.52 L1267.55 1518.52 L1267.55 1568.04 L1261.7 1568.04 L1261.7 1518.52 Z" fill="#ffffff" fill-rule="evenodd" fill-opacity="1" /><path clip-path="url(#clip110)" d="M1279.2 1553.98 L1279.2 1532.4 L1285.06 1532.4 L1285.06 1553.75 Q1285.06 1558.81 1287.03 1561.36 Q1289.01 1563.87 1292.95 1563.87 Q1297.7 1563.87 1300.43 1560.85 Q1303.2 1557.83 1303.2 1552.61 L1303.2 1532.4 L1309.06 1532.4 L1309.06 1568.04 L1303.2 1568.04 L1303.2 1562.57 Q1301.07 1565.82 1298.24 1567.41 Q1295.44 1568.97 1291.71 1568.97 Q1285.57 1568.97 1282.39 1565.15 Q1279.2 1561.33 1279.2 1553.98 M1293.94 1531.54 L1293.94 1531.54 Z" fill="#ffffff" fill-rule="evenodd" fill-opacity="1" /><path clip-path="url(#clip110)" d="M1351.61 1548.76 L1351.61 1551.62 L1324.69 1551.62 Q1325.07 1557.67 1328.31 1560.85 Q1331.59 1564 1337.42 1564 Q1340.79 1564 1343.94 1563.17 Q1347.13 1562.35 1350.24 1560.69 L1350.24 1566.23 Q1347.09 1567.57 1343.78 1568.27 Q1340.47 1568.97 1337.07 1568.97 Q1328.54 1568.97 1323.54 1564 Q1318.58 1559.04 1318.58 1550.57 Q1318.58 1541.82 1323.29 1536.69 Q1328.03 1531.54 1336.05 1531.54 Q1343.24 1531.54 1347.41 1536.18 Q1351.61 1540.8 1351.61 1548.76 M1345.76 1547.04 Q1345.69 1542.23 1343.05 1539.37 Q1340.44 1536.5 1336.11 1536.5 Q1331.21 1536.5 1328.25 1539.27 Q1325.32 1542.04 1324.88 1547.07 L1345.76 1547.04 Z" fill="#ffffff" fill-rule="evenodd" fill-opacity="1" /><polyline clip-path="url(#clip112)" style="stroke:#ffffff; stroke-linecap:round; stroke-linejoin:round; stroke-width:2; stroke-opacity:0.1; fill:none" points="175.445,1386.4 2352.76,1386.4 "/>
<polyline clip-path="url(#clip112)" style="stroke:#ffffff; stroke-linecap:round; stroke-linejoin:round; stroke-width:2; stroke-opacity:0.1; fill:none" points="175.445,1139.69 2352.76,1139.69 "/>
<polyline clip-path="url(#clip112)" style="stroke:#ffffff; stroke-linecap:round; stroke-linejoin:round; stroke-width:2; stroke-opacity:0.1; fill:none" points="175.445,892.979 2352.76,892.979 "/>
<polyline clip-path="url(#clip112)" style="stroke:#ffffff; stroke-linecap:round; stroke-linejoin:round; stroke-width:2; stroke-opacity:0.1; fill:none" points="175.445,646.271 2352.76,646.271 "/>
<polyline clip-path="url(#clip112)" style="stroke:#ffffff; stroke-linecap:round; stroke-linejoin:round; stroke-width:2; stroke-opacity:0.1; fill:none" points="175.445,399.563 2352.76,399.563 "/>
<polyline clip-path="url(#clip112)" style="stroke:#ffffff; stroke-linecap:round; stroke-linejoin:round; stroke-width:2; stroke-opacity:0.1; fill:none" points="175.445,152.855 2352.76,152.855 "/>
<polyline clip-path="url(#clip110)" style="stroke:#ffffff; stroke-linecap:round; stroke-linejoin:round; stroke-width:4; stroke-opacity:1; fill:none" points="175.445,1423.18 175.445,123.472 "/>
<polyline clip-path="url(#clip110)" style="stroke:#ffffff; stroke-linecap:round; stroke-linejoin:round; stroke-width:4; stroke-opacity:1; fill:none" points="175.445,1386.4 194.343,1386.4 "/>
<polyline clip-path="url(#clip110)" style="stroke:#ffffff; stroke-linecap:round; stroke-linejoin:round; stroke-width:4; stroke-opacity:1; fill:none" points="175.445,1139.69 194.343,1139.69 "/>
<polyline clip-path="url(#clip110)" style="stroke:#ffffff; stroke-linecap:round; stroke-linejoin:round; stroke-width:4; stroke-opacity:1; fill:none" points="175.445,892.979 194.343,892.979 "/>
<polyline clip-path="url(#clip110)" style="stroke:#ffffff; stroke-linecap:round; stroke-linejoin:round; stroke-width:4; stroke-opacity:1; fill:none" points="175.445,646.271 194.343,646.271 "/>
<polyline clip-path="url(#clip110)" style="stroke:#ffffff; stroke-linecap:round; stroke-linejoin:round; stroke-width:4; stroke-opacity:1; fill:none" points="175.445,399.563 194.343,399.563 "/>
<polyline clip-path="url(#clip110)" style="stroke:#ffffff; stroke-linecap:round; stroke-linejoin:round; stroke-width:4; stroke-opacity:1; fill:none" points="175.445,152.855 194.343,152.855 "/>
<path clip-path="url(#clip110)" d="M127.501 1372.19 Q123.89 1372.19 122.061 1375.76 Q120.255 1379.3 120.255 1386.43 Q120.255 1393.54 122.061 1397.1 Q123.89 1400.64 127.501 1400.64 Q131.135 1400.64 132.941 1397.1 Q134.769 1393.54 134.769 1386.43 Q134.769 1379.3 132.941 1375.76 Q131.135 1372.19 127.501 1372.19 M127.501 1368.49 Q133.311 1368.49 136.367 1373.1 Q139.445 1377.68 139.445 1386.43 Q139.445 1395.16 136.367 1399.76 Q133.311 1404.35 127.501 1404.35 Q121.691 1404.35 118.612 1399.76 Q115.556 1395.16 115.556 1386.43 Q115.556 1377.68 118.612 1373.1 Q121.691 1368.49 127.501 1368.49 Z" fill="#ffffff" fill-rule="evenodd" fill-opacity="1" /><path clip-path="url(#clip110)" d="M119.538 1153.03 L127.177 1153.03 L127.177 1126.67 L118.867 1128.33 L118.867 1124.07 L127.13 1122.41 L131.806 1122.41 L131.806 1153.03 L139.445 1153.03 L139.445 1156.97 L119.538 1156.97 L119.538 1153.03 Z" fill="#ffffff" fill-rule="evenodd" fill-opacity="1" /><path clip-path="url(#clip110)" d="M123.126 906.324 L139.445 906.324 L139.445 910.259 L117.501 910.259 L117.501 906.324 Q120.163 903.57 124.746 898.94 Q129.353 894.287 130.533 892.945 Q132.779 890.422 133.658 888.685 Q134.561 886.926 134.561 885.236 Q134.561 882.482 132.617 880.746 Q130.695 879.01 127.593 879.01 Q125.394 879.01 122.941 879.773 Q120.51 880.537 117.732 882.088 L117.732 877.366 Q120.556 876.232 123.01 875.653 Q125.464 875.074 127.501 875.074 Q132.871 875.074 136.066 877.76 Q139.26 880.445 139.26 884.935 Q139.26 887.065 138.45 888.986 Q137.663 890.885 135.556 893.477 Q134.978 894.148 131.876 897.366 Q128.774 900.56 123.126 906.324 Z" fill="#ffffff" fill-rule="evenodd" fill-opacity="1" /><path clip-path="url(#clip110)" d="M132.316 644.917 Q135.672 645.635 137.547 647.903 Q139.445 650.172 139.445 653.505 Q139.445 658.621 135.927 661.422 Q132.408 664.223 125.927 664.223 Q123.751 664.223 121.436 663.783 Q119.144 663.366 116.691 662.51 L116.691 657.996 Q118.635 659.13 120.95 659.709 Q123.265 660.287 125.788 660.287 Q130.186 660.287 132.478 658.551 Q134.792 656.815 134.792 653.505 Q134.792 650.45 132.64 648.737 Q130.51 647 126.691 647 L122.663 647 L122.663 643.158 L126.876 643.158 Q130.325 643.158 132.154 641.792 Q133.982 640.403 133.982 637.811 Q133.982 635.149 132.084 633.737 Q130.209 632.301 126.691 632.301 Q124.769 632.301 122.57 632.718 Q120.371 633.135 117.732 634.014 L117.732 629.848 Q120.394 629.107 122.709 628.737 Q125.047 628.366 127.107 628.366 Q132.431 628.366 135.533 630.797 Q138.635 633.204 138.635 637.325 Q138.635 640.195 136.992 642.186 Q135.348 644.153 132.316 644.917 Z" fill="#ffffff" fill-rule="evenodd" fill-opacity="1" /><path clip-path="url(#clip110)" d="M129.862 386.357 L118.056 404.806 L129.862 404.806 L129.862 386.357 M128.635 382.283 L134.515 382.283 L134.515 404.806 L139.445 404.806 L139.445 408.695 L134.515 408.695 L134.515 416.843 L129.862 416.843 L129.862 408.695 L114.26 408.695 L114.26 404.181 L128.635 382.283 Z" fill="#ffffff" fill-rule="evenodd" fill-opacity="1" /><path clip-path="url(#clip110)" d="M118.543 135.575 L136.899 135.575 L136.899 139.51 L122.825 139.51 L122.825 147.982 Q123.843 147.635 124.862 147.473 Q125.88 147.288 126.899 147.288 Q132.686 147.288 136.066 150.459 Q139.445 153.631 139.445 159.047 Q139.445 164.626 135.973 167.728 Q132.501 170.806 126.181 170.806 Q124.005 170.806 121.737 170.436 Q119.492 170.066 117.084 169.325 L117.084 164.626 Q119.168 165.76 121.39 166.316 Q123.612 166.871 126.089 166.871 Q130.093 166.871 132.431 164.765 Q134.769 162.658 134.769 159.047 Q134.769 155.436 132.431 153.33 Q130.093 151.223 126.089 151.223 Q124.214 151.223 122.339 151.64 Q120.487 152.056 118.543 152.936 L118.543 135.575 Z" fill="#ffffff" fill-rule="evenodd" fill-opacity="1" /><path clip-path="url(#clip110)" d="M21.7677 935.015 L39.6235 935.015 L39.6235 926.93 Q39.6235 922.443 37.3 919.992 Q34.9765 917.541 30.6797 917.541 Q26.4147 917.541 24.0912 919.992 Q21.7677 922.443 21.7677 926.93 L21.7677 935.015 M16.4842 941.444 L16.4842 926.93 Q16.4842 918.942 20.1126 914.867 Q23.7092 910.762 30.6797 910.762 Q37.7138 910.762 41.3104 914.867 Q44.907 918.942 44.907 926.93 L44.907 935.015 L64.0042 935.015 L64.0042 941.444 L16.4842 941.444 Z" fill="#ffffff" fill-rule="evenodd" fill-opacity="1" /><path clip-path="url(#clip110)" d="M33.8307 882.88 Q33.2578 883.866 33.0032 885.044 Q32.7167 886.19 32.7167 887.59 Q32.7167 892.556 35.9632 895.229 Q39.1779 897.871 45.2253 897.871 L64.0042 897.871 L64.0042 903.759 L28.3562 903.759 L28.3562 897.871 L33.8944 897.871 Q30.6479 896.025 29.0883 893.065 Q27.4968 890.105 27.4968 885.872 Q27.4968 885.267 27.5923 884.535 Q27.656 883.803 27.8151 882.912 L33.8307 882.88 Z" fill="#ffffff" fill-rule="evenodd" fill-opacity="1" /><path clip-path="url(#clip110)" d="M32.4621 864.356 Q32.4621 869.066 36.1542 871.803 Q39.8145 874.541 46.212 874.541 Q52.6095 874.541 56.3017 871.835 Q59.9619 869.098 59.9619 864.356 Q59.9619 859.677 56.2698 856.94 Q52.5777 854.202 46.212 854.202 Q39.8781 854.202 36.186 856.94 Q32.4621 859.677 32.4621 864.356 M27.4968 864.356 Q27.4968 856.717 32.4621 852.356 Q37.4273 847.996 46.212 847.996 Q54.9649 847.996 59.9619 852.356 Q64.9272 856.717 64.9272 864.356 Q64.9272 872.026 59.9619 876.387 Q54.9649 880.715 46.212 880.715 Q37.4273 880.715 32.4621 876.387 Q27.4968 872.026 27.4968 864.356 Z" fill="#ffffff" fill-rule="evenodd" fill-opacity="1" /><path clip-path="url(#clip110)" d="M58.657 832.623 L77.5631 832.623 L77.5631 838.511 L28.3562 838.511 L28.3562 832.623 L33.7671 832.623 Q30.5842 830.776 29.0564 827.976 Q27.4968 825.143 27.4968 821.228 Q27.4968 814.735 32.6531 810.693 Q37.8093 806.619 46.212 806.619 Q54.6147 806.619 59.771 810.693 Q64.9272 814.735 64.9272 821.228 Q64.9272 825.143 63.3994 827.976 Q61.8398 830.776 58.657 832.623 M46.212 812.698 Q39.7508 812.698 36.0905 815.371 Q32.3984 818.013 32.3984 822.66 Q32.3984 827.307 36.0905 829.981 Q39.7508 832.623 46.212 832.623 Q52.6732 832.623 56.3653 829.981 Q60.0256 827.307 60.0256 822.66 Q60.0256 818.013 56.3653 815.371 Q52.6732 812.698 46.212 812.698 Z" fill="#ffffff" fill-rule="evenodd" fill-opacity="1" /><path clip-path="url(#clip110)" d="M46.0847 780.71 Q46.0847 787.808 47.7079 790.545 Q49.3312 793.282 53.2461 793.282 Q56.3653 793.282 58.2114 791.245 Q60.0256 789.177 60.0256 785.644 Q60.0256 780.774 56.5881 777.846 Q53.1188 774.886 47.3897 774.886 L46.0847 774.886 L46.0847 780.71 M43.6657 769.029 L64.0042 769.029 L64.0042 774.886 L58.5933 774.886 Q61.8398 776.891 63.3994 779.883 Q64.9272 782.875 64.9272 787.203 Q64.9272 792.678 61.8716 795.924 Q58.7843 799.139 53.6281 799.139 Q47.6125 799.139 44.5569 795.129 Q41.5014 791.086 41.5014 783.097 L41.5014 774.886 L40.9285 774.886 Q36.8862 774.886 34.6901 777.559 Q32.4621 780.201 32.4621 785.007 Q32.4621 788.063 33.1941 790.959 Q33.9262 793.855 35.3903 796.529 L29.9795 796.529 Q28.7381 793.314 28.1334 790.291 Q27.4968 787.267 27.4968 784.402 Q27.4968 776.668 31.5072 772.849 Q35.5176 769.029 43.6657 769.029 Z" fill="#ffffff" fill-rule="evenodd" fill-opacity="1" /><path clip-path="url(#clip110)" d="M46.212 731.376 Q39.7508 731.376 36.0905 734.05 Q32.3984 736.691 32.3984 741.338 Q32.3984 745.985 36.0905 748.659 Q39.7508 751.301 46.212 751.301 Q52.6732 751.301 56.3653 748.659 Q60.0256 745.985 60.0256 741.338 Q60.0256 736.691 56.3653 734.05 Q52.6732 731.376 46.212 731.376 M33.7671 751.301 Q30.5842 749.455 29.0564 746.654 Q27.4968 743.821 27.4968 739.906 Q27.4968 733.413 32.6531 729.371 Q37.8093 725.297 46.212 725.297 Q54.6147 725.297 59.771 729.371 Q64.9272 733.413 64.9272 739.906 Q64.9272 743.821 63.3994 746.654 Q61.8398 749.455 58.657 751.301 L64.0042 751.301 L64.0042 757.189 L14.479 757.189 L14.479 751.301 L33.7671 751.301 Z" fill="#ffffff" fill-rule="evenodd" fill-opacity="1" /><path clip-path="url(#clip110)" d="M28.3562 715.589 L28.3562 709.733 L64.0042 709.733 L64.0042 715.589 L28.3562 715.589 M14.479 715.589 L14.479 709.733 L21.895 709.733 L21.895 715.589 L14.479 715.589 Z" fill="#ffffff" fill-rule="evenodd" fill-opacity="1" /><path clip-path="url(#clip110)" d="M14.479 697.479 L14.479 691.622 L64.0042 691.622 L64.0042 697.479 L14.479 697.479 Z" fill="#ffffff" fill-rule="evenodd" fill-opacity="1" /><path clip-path="url(#clip110)" d="M28.3562 679.368 L28.3562 673.512 L64.0042 673.512 L64.0042 679.368 L28.3562 679.368 M14.479 679.368 L14.479 673.512 L21.895 673.512 L21.895 679.368 L14.479 679.368 Z" fill="#ffffff" fill-rule="evenodd" fill-opacity="1" /><path clip-path="url(#clip110)" d="M18.2347 655.465 L28.3562 655.465 L28.3562 643.402 L32.9077 643.402 L32.9077 655.465 L52.2594 655.465 Q56.6199 655.465 57.8613 654.287 Q59.1026 653.078 59.1026 649.418 L59.1026 643.402 L64.0042 643.402 L64.0042 649.418 Q64.0042 656.197 61.4897 658.775 Q58.9434 661.353 52.2594 661.353 L32.9077 661.353 L32.9077 665.65 L28.3562 665.65 L28.3562 661.353 L18.2347 661.353 L18.2347 655.465 Z" fill="#ffffff" fill-rule="evenodd" fill-opacity="1" /><path clip-path="url(#clip110)" d="M67.3143 620.867 Q73.68 623.35 75.6216 625.705 Q77.5631 628.061 77.5631 632.007 L77.5631 636.686 L72.6615 636.686 L72.6615 633.249 Q72.6615 630.83 71.5157 629.493 Q70.3699 628.156 66.1048 626.533 L63.4312 625.482 L28.3562 639.901 L28.3562 633.694 L56.238 622.554 L28.3562 611.414 L28.3562 605.208 L67.3143 620.867 Z" fill="#ffffff" fill-rule="evenodd" fill-opacity="1" /><path clip-path="url(#clip110)" d="M377.418 18.8205 L377.418 41.5461 L387.708 41.5461 Q393.419 41.5461 396.539 38.5889 Q399.658 35.6318 399.658 30.163 Q399.658 24.7348 396.539 21.7777 Q393.419 18.8205 387.708 18.8205 L377.418 18.8205 M369.236 12.096 L387.708 12.096 Q397.875 12.096 403.061 16.714 Q408.286 21.2916 408.286 30.163 Q408.286 39.1155 403.061 43.6931 Q397.875 48.2706 387.708 48.2706 L377.418 48.2706 L377.418 72.576 L369.236 72.576 L369.236 12.096 Z" fill="#ffffff" fill-rule="evenodd" fill-opacity="1" /><path clip-path="url(#clip110)" d="M427.447 18.8205 L427.447 65.8515 L437.331 65.8515 Q449.849 65.8515 455.641 60.1802 Q461.475 54.509 461.475 42.2752 Q461.475 30.1225 455.641 24.4918 Q449.849 18.8205 437.331 18.8205 L427.447 18.8205 M419.264 12.096 L436.075 12.096 Q453.656 12.096 461.88 19.4281 Q470.103 26.7198 470.103 42.2752 Q470.103 57.9117 461.839 65.2439 Q453.575 72.576 436.075 72.576 L419.264 72.576 L419.264 12.096 Z" fill="#ffffff" fill-rule="evenodd" fill-opacity="1" /><path clip-path="url(#clip110)" d="M483.147 12.096 L517.904 12.096 L517.904 18.9825 L491.33 18.9825 L491.33 36.8065 L515.311 36.8065 L515.311 43.6931 L491.33 43.6931 L491.33 72.576 L483.147 72.576 L483.147 12.096 Z" fill="#ffffff" fill-rule="evenodd" fill-opacity="1" /><path clip-path="url(#clip110)" d="M574.495 32.4315 Q568.5 32.4315 565.016 37.1306 Q561.532 41.7891 561.532 49.9314 Q561.532 58.0738 564.975 62.7728 Q568.459 67.4314 574.495 67.4314 Q580.45 67.4314 583.933 62.7323 Q587.417 58.0333 587.417 49.9314 Q587.417 41.8701 583.933 37.1711 Q580.45 32.4315 574.495 32.4315 M574.495 26.1121 Q584.217 26.1121 589.767 32.4315 Q595.317 38.7509 595.317 49.9314 Q595.317 61.0714 589.767 67.4314 Q584.217 73.7508 574.495 73.7508 Q564.732 73.7508 559.182 67.4314 Q553.673 61.0714 553.673 49.9314 Q553.673 38.7509 559.182 32.4315 Q564.732 26.1121 574.495 26.1121 Z" fill="#ffffff" fill-rule="evenodd" fill-opacity="1" /><path clip-path="url(#clip110)" d="M630.64 9.54393 L630.64 15.7418 L623.511 15.7418 Q619.5 15.7418 617.921 17.3622 Q616.381 18.9825 616.381 23.1955 L616.381 27.2059 L628.655 27.2059 L628.655 32.9987 L616.381 32.9987 L616.381 72.576 L608.887 72.576 L608.887 32.9987 L601.757 32.9987 L601.757 27.2059 L608.887 27.2059 L608.887 24.0462 Q608.887 16.471 612.411 13.0277 Q615.936 9.54393 623.592 9.54393 L630.64 9.54393 Z" fill="#ffffff" fill-rule="evenodd" fill-opacity="1" /><path clip-path="url(#clip110)" d="M708.863 16.7545 L708.863 25.383 Q704.731 21.5346 700.032 19.6307 Q695.374 17.7268 690.108 17.7268 Q679.737 17.7268 674.228 24.0867 Q668.719 30.4061 668.719 42.3968 Q668.719 54.3469 674.228 60.7069 Q679.737 67.0263 690.108 67.0263 Q695.374 67.0263 700.032 65.1223 Q704.731 63.2184 708.863 59.3701 L708.863 67.9175 Q704.569 70.8341 699.749 72.2924 Q694.969 73.7508 689.622 73.7508 Q675.889 73.7508 667.99 65.3654 Q660.09 56.9395 660.09 42.3968 Q660.09 27.8135 667.99 19.4281 Q675.889 11.0023 689.622 11.0023 Q695.05 11.0023 699.83 12.4606 Q704.65 13.8784 708.863 16.7545 Z" fill="#ffffff" fill-rule="evenodd" fill-opacity="1" /><path clip-path="url(#clip110)" d="M721.502 12.096 L729.685 12.096 L729.685 65.6895 L759.135 65.6895 L759.135 72.576 L721.502 72.576 L721.502 12.096 Z" fill="#ffffff" fill-rule="evenodd" fill-opacity="1" /><path clip-path="url(#clip110)" d="M747.914 12.096 L799.077 12.096 L799.077 18.9825 L777.607 18.9825 L777.607 72.576 L769.384 72.576 L769.384 18.9825 L747.914 18.9825 L747.914 12.096 Z" fill="#ffffff" fill-rule="evenodd" fill-opacity="1" /><path clip-path="url(#clip110)" d="M871.831 48.0275 L871.831 51.6733 L837.561 51.6733 Q838.047 59.3701 842.179 63.421 Q846.351 67.4314 853.764 67.4314 Q858.058 67.4314 862.069 66.3781 Q866.119 65.3249 870.089 63.2184 L870.089 70.267 Q866.079 71.9684 861.866 72.8596 Q857.653 73.7508 853.319 73.7508 Q842.462 73.7508 836.102 67.4314 Q829.783 61.1119 829.783 50.3365 Q829.783 39.1965 835.778 32.6746 Q841.814 26.1121 852.022 26.1121 Q861.177 26.1121 866.484 32.0264 Q871.831 37.9003 871.831 48.0275 M864.378 45.84 Q864.297 39.7232 860.934 36.0774 Q857.613 32.4315 852.103 32.4315 Q845.865 32.4315 842.098 35.9558 Q838.371 39.4801 837.804 45.8805 L864.378 45.84 Z" fill="#ffffff" fill-rule="evenodd" fill-opacity="1" /><path clip-path="url(#clip110)" d="M920.321 27.2059 L903.914 49.2833 L921.171 72.576 L912.381 72.576 L899.175 54.752 L885.969 72.576 L877.178 72.576 L894.8 48.8377 L878.677 27.2059 L887.468 27.2059 L899.499 43.369 L911.53 27.2059 L920.321 27.2059 Z" fill="#ffffff" fill-rule="evenodd" fill-opacity="1" /><path clip-path="url(#clip110)" d="M938.914 65.7705 L938.914 89.8329 L931.42 89.8329 L931.42 27.2059 L938.914 27.2059 L938.914 34.0924 Q941.264 30.0415 944.829 28.0971 Q948.434 26.1121 953.416 26.1121 Q961.68 26.1121 966.825 32.6746 Q972.01 39.2371 972.01 49.9314 Q972.01 60.6258 966.825 67.1883 Q961.68 73.7508 953.416 73.7508 Q948.434 73.7508 944.829 71.8063 Q941.264 69.8214 938.914 65.7705 M964.273 49.9314 Q964.273 41.7081 960.87 37.0496 Q957.508 32.3505 951.594 32.3505 Q945.679 32.3505 942.276 37.0496 Q938.914 41.7081 938.914 49.9314 Q938.914 58.1548 942.276 62.8538 Q945.679 67.5124 951.594 67.5124 Q957.508 67.5124 960.87 62.8538 Q964.273 58.1548 964.273 49.9314 Z" fill="#ffffff" fill-rule="evenodd" fill-opacity="1" /><path clip-path="url(#clip110)" d="M1023.17 48.0275 L1023.17 51.6733 L988.902 51.6733 Q989.388 59.3701 993.52 63.421 Q997.693 67.4314 1005.11 67.4314 Q1009.4 67.4314 1013.41 66.3781 Q1017.46 65.3249 1021.43 63.2184 L1021.43 70.267 Q1017.42 71.9684 1013.21 72.8596 Q1008.99 73.7508 1004.66 73.7508 Q993.804 73.7508 987.444 67.4314 Q981.125 61.1119 981.125 50.3365 Q981.125 39.1965 987.12 32.6746 Q993.156 26.1121 1003.36 26.1121 Q1012.52 26.1121 1017.83 32.0264 Q1023.17 37.9003 1023.17 48.0275 M1015.72 45.84 Q1015.64 39.7232 1012.28 36.0774 Q1008.95 32.4315 1003.45 32.4315 Q997.207 32.4315 993.439 35.9558 Q989.713 39.4801 989.145 45.8805 L1015.72 45.84 Z" fill="#ffffff" fill-rule="evenodd" fill-opacity="1" /><path clip-path="url(#clip110)" d="M1061.7 34.1734 Q1060.44 33.4443 1058.94 33.1202 Q1057.48 32.7556 1055.7 32.7556 Q1049.38 32.7556 1045.98 36.8875 Q1042.62 40.9789 1042.62 48.6757 L1042.62 72.576 L1035.12 72.576 L1035.12 27.2059 L1042.62 27.2059 L1042.62 34.2544 Q1044.97 30.1225 1048.73 28.1376 Q1052.5 26.1121 1057.89 26.1121 Q1058.66 26.1121 1059.59 26.2337 Q1060.52 26.3147 1061.66 26.5172 L1061.7 34.1734 Z" fill="#ffffff" fill-rule="evenodd" fill-opacity="1" /><path clip-path="url(#clip110)" d="M1069.52 27.2059 L1076.97 27.2059 L1076.97 72.576 L1069.52 72.576 L1069.52 27.2059 M1069.52 9.54393 L1076.97 9.54393 L1076.97 18.9825 L1069.52 18.9825 L1069.52 9.54393 Z" fill="#ffffff" fill-rule="evenodd" fill-opacity="1" /><path clip-path="url(#clip110)" d="M1127.89 35.9153 Q1130.68 30.8922 1134.57 28.5022 Q1138.46 26.1121 1143.73 26.1121 Q1150.82 26.1121 1154.67 31.0947 Q1158.51 36.0368 1158.51 45.1919 L1158.51 72.576 L1151.02 72.576 L1151.02 45.4349 Q1151.02 38.913 1148.71 35.7533 Q1146.4 32.5936 1141.66 32.5936 Q1135.87 32.5936 1132.51 36.4419 Q1129.14 40.2903 1129.14 46.9338 L1129.14 72.576 L1121.65 72.576 L1121.65 45.4349 Q1121.65 38.8725 1119.34 35.7533 Q1117.03 32.5936 1112.21 32.5936 Q1106.5 32.5936 1103.14 36.4824 Q1099.78 40.3308 1099.78 46.9338 L1099.78 72.576 L1092.28 72.576 L1092.28 27.2059 L1099.78 27.2059 L1099.78 34.2544 Q1102.33 30.082 1105.89 28.0971 Q1109.46 26.1121 1114.36 26.1121 Q1119.3 26.1121 1122.74 28.6237 Q1126.23 31.1352 1127.89 35.9153 Z" fill="#ffffff" fill-rule="evenodd" fill-opacity="1" /><path clip-path="url(#clip110)" d="M1212.19 48.0275 L1212.19 51.6733 L1177.92 51.6733 Q1178.4 59.3701 1182.54 63.421 Q1186.71 67.4314 1194.12 67.4314 Q1198.42 67.4314 1202.43 66.3781 Q1206.48 65.3249 1210.45 63.2184 L1210.45 70.267 Q1206.44 71.9684 1202.22 72.8596 Q1198.01 73.7508 1193.68 73.7508 Q1182.82 73.7508 1176.46 67.4314 Q1170.14 61.1119 1170.14 50.3365 Q1170.14 39.1965 1176.14 32.6746 Q1182.17 26.1121 1192.38 26.1121 Q1201.53 26.1121 1206.84 32.0264 Q1212.19 37.9003 1212.19 48.0275 M1204.73 45.84 Q1204.65 39.7232 1201.29 36.0774 Q1197.97 32.4315 1192.46 32.4315 Q1186.22 32.4315 1182.45 35.9558 Q1178.73 39.4801 1178.16 45.8805 L1204.73 45.84 Z" fill="#ffffff" fill-rule="evenodd" fill-opacity="1" /><path clip-path="url(#clip110)" d="M1262.14 45.1919 L1262.14 72.576 L1254.68 72.576 L1254.68 45.4349 Q1254.68 38.994 1252.17 35.7938 Q1249.66 32.5936 1244.64 32.5936 Q1238.6 32.5936 1235.12 36.4419 Q1231.63 40.2903 1231.63 46.9338 L1231.63 72.576 L1224.14 72.576 L1224.14 27.2059 L1231.63 27.2059 L1231.63 34.2544 Q1234.31 30.163 1237.91 28.1376 Q1241.56 26.1121 1246.3 26.1121 Q1254.12 26.1121 1258.13 30.9732 Q1262.14 35.7938 1262.14 45.1919 Z" fill="#ffffff" fill-rule="evenodd" fill-opacity="1" /><path clip-path="url(#clip110)" d="M1284.38 14.324 L1284.38 27.2059 L1299.73 27.2059 L1299.73 32.9987 L1284.38 32.9987 L1284.38 57.6282 Q1284.38 63.1779 1285.87 64.7578 Q1287.41 66.3376 1292.07 66.3376 L1299.73 66.3376 L1299.73 72.576 L1292.07 72.576 Q1283.44 72.576 1280.16 69.3758 Q1276.88 66.1351 1276.88 57.6282 L1276.88 32.9987 L1271.41 32.9987 L1271.41 27.2059 L1276.88 27.2059 L1276.88 14.324 L1284.38 14.324 Z" fill="#ffffff" fill-rule="evenodd" fill-opacity="1" /><path clip-path="url(#clip110)" d="M1331.57 27.2059 L1339.02 27.2059 L1348.34 62.6108 L1357.62 27.2059 L1366.41 27.2059 L1375.72 62.6108 L1385 27.2059 L1392.45 27.2059 L1380.58 72.576 L1371.79 72.576 L1362.03 35.3887 L1352.23 72.576 L1343.44 72.576 L1331.57 27.2059 Z" fill="#ffffff" fill-rule="evenodd" fill-opacity="1" /><path clip-path="url(#clip110)" d="M1403.76 27.2059 L1411.21 27.2059 L1411.21 72.576 L1403.76 72.576 L1403.76 27.2059 M1403.76 9.54393 L1411.21 9.54393 L1411.21 18.9825 L1403.76 18.9825 L1403.76 9.54393 Z" fill="#ffffff" fill-rule="evenodd" fill-opacity="1" /><path clip-path="url(#clip110)" d="M1434.18 14.324 L1434.18 27.2059 L1449.53 27.2059 L1449.53 32.9987 L1434.18 32.9987 L1434.18 57.6282 Q1434.18 63.1779 1435.68 64.7578 Q1437.22 66.3376 1441.87 66.3376 L1449.53 66.3376 L1449.53 72.576 L1441.87 72.576 Q1433.25 72.576 1429.96 69.3758 Q1426.68 66.1351 1426.68 57.6282 L1426.68 32.9987 L1421.21 32.9987 L1421.21 27.2059 L1426.68 27.2059 L1426.68 14.324 L1434.18 14.324 Z" fill="#ffffff" fill-rule="evenodd" fill-opacity="1" /><path clip-path="url(#clip110)" d="M1497.05 45.1919 L1497.05 72.576 L1489.59 72.576 L1489.59 45.4349 Q1489.59 38.994 1487.08 35.7938 Q1484.57 32.5936 1479.55 32.5936 Q1473.51 32.5936 1470.03 36.4419 Q1466.54 40.2903 1466.54 46.9338 L1466.54 72.576 L1459.05 72.576 L1459.05 9.54393 L1466.54 9.54393 L1466.54 34.2544 Q1469.22 30.163 1472.82 28.1376 Q1476.47 26.1121 1481.21 26.1121 Q1489.03 26.1121 1493.04 30.9732 Q1497.05 35.7938 1497.05 45.1919 Z" fill="#ffffff" fill-rule="evenodd" fill-opacity="1" /><path clip-path="url(#clip110)" d="M1545.66 14.324 L1545.66 27.2059 L1561.01 27.2059 L1561.01 32.9987 L1545.66 32.9987 L1545.66 57.6282 Q1545.66 63.1779 1547.16 64.7578 Q1548.7 66.3376 1553.36 66.3376 L1561.01 66.3376 L1561.01 72.576 L1553.36 72.576 Q1544.73 72.576 1541.45 69.3758 Q1538.16 66.1351 1538.16 57.6282 L1538.16 32.9987 L1532.7 32.9987 L1532.7 27.2059 L1538.16 27.2059 L1538.16 14.324 L1545.66 14.324 Z" fill="#ffffff" fill-rule="evenodd" fill-opacity="1" /><path clip-path="url(#clip110)" d="M1608.53 45.1919 L1608.53 72.576 L1601.08 72.576 L1601.08 45.4349 Q1601.08 38.994 1598.56 35.7938 Q1596.05 32.5936 1591.03 32.5936 Q1584.99 32.5936 1581.51 36.4419 Q1578.03 40.2903 1578.03 46.9338 L1578.03 72.576 L1570.53 72.576 L1570.53 9.54393 L1578.03 9.54393 L1578.03 34.2544 Q1580.7 30.163 1584.3 28.1376 Q1587.95 26.1121 1592.69 26.1121 Q1600.51 26.1121 1604.52 30.9732 Q1608.53 35.7938 1608.53 45.1919 Z" fill="#ffffff" fill-rule="evenodd" fill-opacity="1" /><path clip-path="url(#clip110)" d="M1662.2 48.0275 L1662.2 51.6733 L1627.93 51.6733 Q1628.42 59.3701 1632.55 63.421 Q1636.72 67.4314 1644.14 67.4314 Q1648.43 67.4314 1652.44 66.3781 Q1656.49 65.3249 1660.46 63.2184 L1660.46 70.267 Q1656.45 71.9684 1652.24 72.8596 Q1648.03 73.7508 1643.69 73.7508 Q1632.83 73.7508 1626.47 67.4314 Q1620.15 61.1119 1620.15 50.3365 Q1620.15 39.1965 1626.15 32.6746 Q1632.19 26.1121 1642.39 26.1121 Q1651.55 26.1121 1656.86 32.0264 Q1662.2 37.9003 1662.2 48.0275 M1654.75 45.84 Q1654.67 39.7232 1651.31 36.0774 Q1647.98 32.4315 1642.48 32.4315 Q1636.24 32.4315 1632.47 35.9558 Q1628.74 39.4801 1628.18 45.8805 L1654.75 45.84 Z" fill="#ffffff" fill-rule="evenodd" fill-opacity="1" /><path clip-path="url(#clip110)" d="M1692.02 32.4315 Q1686.02 32.4315 1682.54 37.1306 Q1679.05 41.7891 1679.05 49.9314 Q1679.05 58.0738 1682.5 62.7728 Q1685.98 67.4314 1692.02 67.4314 Q1697.97 67.4314 1701.46 62.7323 Q1704.94 58.0333 1704.94 49.9314 Q1704.94 41.8701 1701.46 37.1711 Q1697.97 32.4315 1692.02 32.4315 M1692.02 26.1121 Q1701.74 26.1121 1707.29 32.4315 Q1712.84 38.7509 1712.84 49.9314 Q1712.84 61.0714 1707.29 67.4314 Q1701.74 73.7508 1692.02 73.7508 Q1682.26 73.7508 1676.71 67.4314 Q1671.2 61.0714 1671.2 49.9314 Q1671.2 38.7509 1676.71 32.4315 Q1682.26 26.1121 1692.02 26.1121 Z" fill="#ffffff" fill-rule="evenodd" fill-opacity="1" /><path clip-path="url(#clip110)" d="M1751.49 34.1734 Q1750.23 33.4443 1748.73 33.1202 Q1747.27 32.7556 1745.49 32.7556 Q1739.17 32.7556 1735.77 36.8875 Q1732.41 40.9789 1732.41 48.6757 L1732.41 72.576 L1724.91 72.576 L1724.91 27.2059 L1732.41 27.2059 L1732.41 34.2544 Q1734.75 30.1225 1738.52 28.1376 Q1742.29 26.1121 1747.68 26.1121 Q1748.45 26.1121 1749.38 26.2337 Q1750.31 26.3147 1751.44 26.5172 L1751.49 34.1734 Z" fill="#ffffff" fill-rule="evenodd" fill-opacity="1" /><path clip-path="url(#clip110)" d="M1796.29 48.0275 L1796.29 51.6733 L1762.02 51.6733 Q1762.5 59.3701 1766.64 63.421 Q1770.81 67.4314 1778.22 67.4314 Q1782.52 67.4314 1786.53 66.3781 Q1790.58 65.3249 1794.55 63.2184 L1794.55 70.267 Q1790.54 71.9684 1786.32 72.8596 Q1782.11 73.7508 1777.78 73.7508 Q1766.92 73.7508 1760.56 67.4314 Q1754.24 61.1119 1754.24 50.3365 Q1754.24 39.1965 1760.24 32.6746 Q1766.27 26.1121 1776.48 26.1121 Q1785.63 26.1121 1790.94 32.0264 Q1796.29 37.9003 1796.29 48.0275 M1788.83 45.84 Q1788.75 39.7232 1785.39 36.0774 Q1782.07 32.4315 1776.56 32.4315 Q1770.32 32.4315 1766.55 35.9558 Q1762.83 39.4801 1762.26 45.8805 L1788.83 45.84 Z" fill="#ffffff" fill-rule="evenodd" fill-opacity="1" /><path clip-path="url(#clip110)" d="M1815.89 14.324 L1815.89 27.2059 L1831.25 27.2059 L1831.25 32.9987 L1815.89 32.9987 L1815.89 57.6282 Q1815.89 63.1779 1817.39 64.7578 Q1818.93 66.3376 1823.59 66.3376 L1831.25 66.3376 L1831.25 72.576 L1823.59 72.576 Q1814.96 72.576 1811.68 69.3758 Q1808.4 66.1351 1808.4 57.6282 L1808.4 32.9987 L1802.93 32.9987 L1802.93 27.2059 L1808.4 27.2059 L1808.4 14.324 L1815.89 14.324 Z" fill="#ffffff" fill-rule="evenodd" fill-opacity="1" /><path clip-path="url(#clip110)" d="M1841.05 27.2059 L1848.5 27.2059 L1848.5 72.576 L1841.05 72.576 L1841.05 27.2059 M1841.05 9.54393 L1848.5 9.54393 L1848.5 18.9825 L1841.05 18.9825 L1841.05 9.54393 Z" fill="#ffffff" fill-rule="evenodd" fill-opacity="1" /><path clip-path="url(#clip110)" d="M1896.75 28.9478 L1896.75 35.9153 Q1893.59 34.1734 1890.39 33.3227 Q1887.23 32.4315 1883.99 32.4315 Q1876.74 32.4315 1872.73 37.0496 Q1868.72 41.6271 1868.72 49.9314 Q1868.72 58.2358 1872.73 62.8538 Q1876.74 67.4314 1883.99 67.4314 Q1887.23 67.4314 1890.39 66.5807 Q1893.59 65.6895 1896.75 63.9476 L1896.75 70.8341 Q1893.63 72.2924 1890.27 73.0216 Q1886.95 73.7508 1883.18 73.7508 Q1872.93 73.7508 1866.9 67.3098 Q1860.86 60.8689 1860.86 49.9314 Q1860.86 38.832 1866.94 32.472 Q1873.05 26.1121 1883.67 26.1121 Q1887.11 26.1121 1890.39 26.8413 Q1893.67 27.5299 1896.75 28.9478 Z" fill="#ffffff" fill-rule="evenodd" fill-opacity="1" /><path clip-path="url(#clip110)" d="M1930.33 49.7694 Q1921.3 49.7694 1917.82 51.8354 Q1914.33 53.9013 1914.33 58.8839 Q1914.33 62.8538 1916.92 65.2034 Q1919.56 67.5124 1924.05 67.5124 Q1930.25 67.5124 1933.98 63.1374 Q1937.75 58.7219 1937.75 51.4303 L1937.75 49.7694 L1930.33 49.7694 M1945.2 46.6907 L1945.2 72.576 L1937.75 72.576 L1937.75 65.6895 Q1935.19 69.8214 1931.39 71.8063 Q1927.58 73.7508 1922.07 73.7508 Q1915.1 73.7508 1910.97 69.8619 Q1906.88 65.9325 1906.88 59.3701 Q1906.88 51.7138 1911.98 47.825 Q1917.13 43.9361 1927.29 43.9361 L1937.75 43.9361 L1937.75 43.2069 Q1937.75 38.0623 1934.34 35.2672 Q1930.98 32.4315 1924.86 32.4315 Q1920.97 32.4315 1917.29 33.3632 Q1913.6 34.295 1910.2 36.1584 L1910.2 29.2718 Q1914.29 27.692 1918.14 26.9223 Q1921.99 26.1121 1925.63 26.1121 Q1935.48 26.1121 1940.34 31.2163 Q1945.2 36.3204 1945.2 46.6907 Z" fill="#ffffff" fill-rule="evenodd" fill-opacity="1" /><path clip-path="url(#clip110)" d="M1960.55 9.54393 L1968.01 9.54393 L1968.01 72.576 L1960.55 72.576 L1960.55 9.54393 Z" fill="#ffffff" fill-rule="evenodd" fill-opacity="1" /><path clip-path="url(#clip110)" d="M2018.48 18.8205 L2018.48 41.5461 L2028.77 41.5461 Q2034.48 41.5461 2037.6 38.5889 Q2040.72 35.6318 2040.72 30.163 Q2040.72 24.7348 2037.6 21.7777 Q2034.48 18.8205 2028.77 18.8205 L2018.48 18.8205 M2010.3 12.096 L2028.77 12.096 Q2038.94 12.096 2044.12 16.714 Q2049.35 21.2916 2049.35 30.163 Q2049.35 39.1155 2044.12 43.6931 Q2038.94 48.2706 2028.77 48.2706 L2018.48 48.2706 L2018.48 72.576 L2010.3 72.576 L2010.3 12.096 Z" fill="#ffffff" fill-rule="evenodd" fill-opacity="1" /><path clip-path="url(#clip110)" d="M2068.51 18.8205 L2068.51 65.8515 L2078.39 65.8515 Q2090.91 65.8515 2096.7 60.1802 Q2102.54 54.509 2102.54 42.2752 Q2102.54 30.1225 2096.7 24.4918 Q2090.91 18.8205 2078.39 18.8205 L2068.51 18.8205 M2060.33 12.096 L2077.14 12.096 Q2094.72 12.096 2102.94 19.4281 Q2111.16 26.7198 2111.16 42.2752 Q2111.16 57.9117 2102.9 65.2439 Q2094.64 72.576 2077.14 72.576 L2060.33 72.576 L2060.33 12.096 Z" fill="#ffffff" fill-rule="evenodd" fill-opacity="1" /><path clip-path="url(#clip110)" d="M2124.21 12.096 L2158.97 12.096 L2158.97 18.9825 L2132.39 18.9825 L2132.39 36.8065 L2156.37 36.8065 L2156.37 43.6931 L2132.39 43.6931 L2132.39 72.576 L2124.21 72.576 L2124.21 12.096 Z" fill="#ffffff" fill-rule="evenodd" fill-opacity="1" /><polyline clip-path="url(#clip112)" style="stroke:#009af9; stroke-linecap:round; stroke-linejoin:round; stroke-width:4; stroke-opacity:1; fill:none" points="237.067,1386.4 257.815,1386.4 278.564,1386.4 299.312,1386.4 320.06,1386.4 340.808,1386.4 361.556,1386.4 382.304,1386.4 403.052,1386.4 423.801,1386.4 444.549,1386.4 465.297,1386.4 486.045,1386.4 506.793,1386.4 527.541,1386.4 548.289,1386.4 569.038,1386.4 589.786,1386.4 610.534,1386.4 631.282,1386.4 652.03,1386.4 652.03,1383.93 672.778,1383.93 672.778,1386.4 693.526,1386.4 693.526,1383.93 714.275,1383.93 714.275,1376.53 735.023,1376.53 755.771,1376.53 755.771,1369.13 776.519,1369.13 776.519,1371.59 797.267,1371.59 797.267,1366.66 818.015,1366.66 818.015,1337.05 838.764,1337.05 838.764,1346.92 859.512,1346.92 859.512,1329.65 880.26,1329.65 880.26,1304.98 901.008,1304.98 901.008,1245.77 921.756,1245.77 921.756,1206.3 942.504,1206.3 942.504,1174.23 963.252,1174.23 963.252,1107.62 984.001,1107.62 984.001,1092.81 1004.75,1092.81 1004.75,905.315 1025.5,905.315 1025.5,934.92 1046.24,934.92 1046.24,858.44 1066.99,858.44 1066.99,779.494 1087.74,779.494 1087.74,680.81 1108.49,680.81 1108.49,503.181 1129.24,503.181 1129.24,480.977 1149.99,480.977 1149.99,374.892 1170.73,374.892 1170.73,387.228 1191.48,387.228 1191.48,308.281 1212.23,308.281 1212.23,268.808 1232.98,268.808 1232.98,254.005 1253.73,254.005 1253.73,288.545 1274.47,288.545 1274.47,160.256 1295.22,160.256 1315.97,160.256 1315.97,295.946 1336.72,295.946 1336.72,384.761 1357.47,384.761 1357.47,389.695 1378.22,389.695 1378.22,458.773 1398.96,458.773 1398.96,532.786 1419.71,532.786 1419.71,616.666 1440.46,616.666 1440.46,732.619 1461.21,732.619 1461.21,722.751 1481.96,722.751 1481.96,880.644 1502.7,880.644 1502.7,912.716 1523.45,912.716 1523.45,969.459 1544.2,969.459 1544.2,1080.48 1564.95,1080.48 1564.95,1129.82 1585.7,1129.82 1585.7,1169.29 1606.45,1169.29 1606.45,1201.36 1627.19,1201.36 1627.19,1253.17 1647.94,1253.17 1647.94,1287.71 1668.69,1287.71 1668.69,1304.98 1689.44,1304.98 1689.44,1341.99 1710.19,1341.99 1710.19,1329.65 1730.93,1329.65 1730.93,1361.72 1751.68,1361.72 1772.43,1361.72 1772.43,1376.53 1793.18,1376.53 1793.18,1383.93 1813.93,1383.93 1813.93,1381.46 1834.67,1381.46 1834.67,1386.4 1855.42,1386.4 1855.42,1376.53 1876.17,1376.53 1876.17,1383.93 1896.92,1383.93 1896.92,1386.4 1917.67,1386.4 1938.42,1386.4 1959.16,1386.4 1979.91,1386.4 2000.66,1386.4 2021.41,1386.4 2042.16,1386.4 2062.9,1386.4 2083.65,1386.4 2104.4,1386.4 2125.15,1386.4 2145.9,1386.4 2166.65,1386.4 2187.39,1386.4 2208.14,1386.4 2228.89,1386.4 2249.64,1386.4 2270.39,1386.4 2291.13,1386.4 "/>
<polyline clip-path="url(#clip112)" style="stroke:#e26f46; stroke-linecap:round; stroke-linejoin:round; stroke-width:4; stroke-opacity:1; fill:none" points="237.067,1386.4 257.815,1386.4 278.564,1386.4 299.312,1386.4 320.06,1386.4 340.808,1386.4 361.556,1386.39 382.304,1386.39 403.052,1386.39 423.801,1386.39 444.549,1386.38 465.297,1386.38 486.045,1386.36 506.793,1386.34 527.541,1386.29 548.289,1386.23 569.038,1386.12 589.786,1385.94 610.534,1385.67 631.282,1385.26 652.03,1384.62 672.778,1383.68 693.526,1382.29 714.275,1380.28 735.023,1377.42 755.771,1373.4 776.519,1367.87 797.267,1360.37 818.015,1350.35 838.764,1337.19 859.512,1320.19 880.26,1298.61 901.008,1271.68 921.756,1238.63 942.504,1198.82 963.252,1151.7 984.001,1096.98 1004.75,1034.64 1025.5,965.033 1046.24,888.927 1066.99,807.538 1087.74,722.538 1108.49,636.026 1129.24,550.461 1149.99,468.557 1170.73,393.149 1191.48,327.032 1212.23,272.794 1232.98,232.645 1253.73,208.273 1274.47,200.719 1295.22,210.311 1315.97,236.633 1336.72,278.562 1357.47,334.342 1378.22,401.708 1398.96,478.041 1419.71,560.529 1440.46,646.346 1461.21,732.8 1481.96,817.472 1502.7,898.31 1523.45,973.696 1544.2,1042.47 1564.95,1103.91 1585.7,1157.71 1606.45,1203.94 1627.19,1242.92 1647.94,1275.2 1668.69,1301.45 1689.44,1322.45 1710.19,1338.94 1730.93,1351.69 1751.68,1361.38 1772.43,1368.63 1793.18,1373.95 1813.93,1377.81 1834.67,1380.56 1855.42,1382.48 1876.17,1383.81 1896.92,1384.71 1917.67,1385.32 1938.42,1385.71 1959.16,1385.97 1979.91,1386.13 2000.66,1386.24 2021.41,1386.3 2042.16,1386.34 2062.9,1386.36 2083.65,1386.38 2104.4,1386.39 2125.15,1386.39 2145.9,1386.39 2166.65,1386.39 2187.39,1386.39 2208.14,1386.4 2228.89,1386.4 2249.64,1386.4 2270.39,1386.4 2291.13,1386.4 "/>
<path clip-path="url(#clip110)" d="M1801.92 322.316 L2280.18 322.316 L2280.18 166.796 L1801.92 166.796  Z" fill="#000000" fill-rule="evenodd" fill-opacity="0"/>
<polyline clip-path="url(#clip110)" style="stroke:#ffffff; stroke-linecap:round; stroke-linejoin:round; stroke-width:4; stroke-opacity:1; fill:none" points="1801.92,322.316 2280.18,322.316 2280.18,166.796 1801.92,166.796 1801.92,322.316 "/>
<polyline clip-path="url(#clip110)" style="stroke:#009af9; stroke-linecap:round; stroke-linejoin:round; stroke-width:4; stroke-opacity:1; fill:none" points="1826.11,218.636 1971.26,218.636 "/>
<path clip-path="url(#clip110)" d="M1995.46 201.356 L2017.31 201.356 L2017.31 205.291 L2000.13 205.291 L2000.13 215.522 L2016.59 215.522 L2016.59 219.457 L2000.13 219.457 L2000.13 231.981 L2017.72 231.981 L2017.72 235.916 L1995.46 235.916 L1995.46 201.356 Z" fill="#ffffff" fill-rule="evenodd" fill-opacity="1" /><path clip-path="url(#clip110)" d="M2041.75 210.754 L2041.75 214.782 Q2039.95 213.856 2038 213.393 Q2036.06 212.93 2033.97 212.93 Q2030.8 212.93 2029.21 213.902 Q2027.63 214.874 2027.63 216.819 Q2027.63 218.3 2028.77 219.157 Q2029.9 219.99 2033.33 220.754 L2034.78 221.078 Q2039.32 222.05 2041.22 223.832 Q2043.14 225.592 2043.14 228.763 Q2043.14 232.374 2040.27 234.481 Q2037.42 236.587 2032.42 236.587 Q2030.34 236.587 2028.07 236.17 Q2025.83 235.777 2023.33 234.967 L2023.33 230.569 Q2025.69 231.795 2027.98 232.42 Q2030.27 233.022 2032.52 233.022 Q2035.52 233.022 2037.15 232.004 Q2038.77 230.962 2038.77 229.087 Q2038.77 227.351 2037.58 226.425 Q2036.43 225.499 2032.47 224.643 L2030.99 224.295 Q2027.03 223.462 2025.27 221.749 Q2023.51 220.013 2023.51 217.004 Q2023.51 213.346 2026.1 211.356 Q2028.7 209.365 2033.46 209.365 Q2035.83 209.365 2037.91 209.712 Q2039.99 210.059 2041.75 210.754 Z" fill="#ffffff" fill-rule="evenodd" fill-opacity="1" /><path clip-path="url(#clip110)" d="M2054.14 202.629 L2054.14 209.99 L2062.91 209.99 L2062.91 213.3 L2054.14 213.3 L2054.14 227.374 Q2054.14 230.545 2054.99 231.448 Q2055.87 232.351 2058.53 232.351 L2062.91 232.351 L2062.91 235.916 L2058.53 235.916 Q2053.6 235.916 2051.73 234.087 Q2049.85 232.235 2049.85 227.374 L2049.85 213.3 L2046.73 213.3 L2046.73 209.99 L2049.85 209.99 L2049.85 202.629 L2054.14 202.629 Z" fill="#ffffff" fill-rule="evenodd" fill-opacity="1" /><path clip-path="url(#clip110)" d="M2068.51 209.99 L2072.77 209.99 L2072.77 235.916 L2068.51 235.916 L2068.51 209.99 M2068.51 199.897 L2072.77 199.897 L2072.77 205.291 L2068.51 205.291 L2068.51 199.897 Z" fill="#ffffff" fill-rule="evenodd" fill-opacity="1" /><path clip-path="url(#clip110)" d="M2101.87 214.967 Q2103.46 212.096 2105.69 210.731 Q2107.91 209.365 2110.92 209.365 Q2114.97 209.365 2117.17 212.212 Q2119.37 215.036 2119.37 220.268 L2119.37 235.916 L2115.08 235.916 L2115.08 220.407 Q2115.08 216.68 2113.77 214.874 Q2112.45 213.069 2109.74 213.069 Q2106.43 213.069 2104.51 215.268 Q2102.58 217.467 2102.58 221.263 L2102.58 235.916 L2098.3 235.916 L2098.3 220.407 Q2098.3 216.657 2096.98 214.874 Q2095.66 213.069 2092.91 213.069 Q2089.64 213.069 2087.72 215.291 Q2085.8 217.49 2085.8 221.263 L2085.8 235.916 L2081.52 235.916 L2081.52 209.99 L2085.8 209.99 L2085.8 214.018 Q2087.26 211.633 2089.3 210.499 Q2091.33 209.365 2094.14 209.365 Q2096.96 209.365 2098.93 210.8 Q2100.92 212.235 2101.87 214.967 Z" fill="#ffffff" fill-rule="evenodd" fill-opacity="1" /><path clip-path="url(#clip110)" d="M2139.64 222.883 Q2134.48 222.883 2132.49 224.064 Q2130.5 225.244 2130.5 228.092 Q2130.5 230.36 2131.98 231.703 Q2133.49 233.022 2136.06 233.022 Q2139.6 233.022 2141.73 230.522 Q2143.88 227.999 2143.88 223.832 L2143.88 222.883 L2139.64 222.883 M2148.14 221.124 L2148.14 235.916 L2143.88 235.916 L2143.88 231.981 Q2142.42 234.342 2140.25 235.476 Q2138.07 236.587 2134.92 236.587 Q2130.94 236.587 2128.58 234.365 Q2126.24 232.119 2126.24 228.369 Q2126.24 223.994 2129.16 221.772 Q2132.1 219.55 2137.91 219.55 L2143.88 219.55 L2143.88 219.133 Q2143.88 216.194 2141.94 214.596 Q2140.01 212.976 2136.52 212.976 Q2134.3 212.976 2132.19 213.508 Q2130.08 214.041 2128.14 215.106 L2128.14 211.17 Q2130.48 210.268 2132.68 209.828 Q2134.88 209.365 2136.96 209.365 Q2142.58 209.365 2145.36 212.282 Q2148.14 215.198 2148.14 221.124 Z" fill="#ffffff" fill-rule="evenodd" fill-opacity="1" /><path clip-path="url(#clip110)" d="M2161.13 202.629 L2161.13 209.99 L2169.9 209.99 L2169.9 213.3 L2161.13 213.3 L2161.13 227.374 Q2161.13 230.545 2161.98 231.448 Q2162.86 232.351 2165.52 232.351 L2169.9 232.351 L2169.9 235.916 L2165.52 235.916 Q2160.59 235.916 2158.72 234.087 Q2156.84 232.235 2156.84 227.374 L2156.84 213.3 L2153.72 213.3 L2153.72 209.99 L2156.84 209.99 L2156.84 202.629 L2161.13 202.629 Z" fill="#ffffff" fill-rule="evenodd" fill-opacity="1" /><path clip-path="url(#clip110)" d="M2197.68 221.888 L2197.68 223.971 L2178.09 223.971 Q2178.37 228.369 2180.73 230.684 Q2183.12 232.976 2187.35 232.976 Q2189.81 232.976 2192.1 232.374 Q2194.41 231.772 2196.68 230.569 L2196.68 234.596 Q2194.39 235.568 2191.98 236.078 Q2189.57 236.587 2187.1 236.587 Q2180.89 236.587 2177.26 232.976 Q2173.65 229.365 2173.65 223.207 Q2173.65 216.842 2177.07 213.115 Q2180.52 209.365 2186.36 209.365 Q2191.59 209.365 2194.62 212.745 Q2197.68 216.101 2197.68 221.888 M2193.42 220.638 Q2193.37 217.143 2191.45 215.059 Q2189.55 212.976 2186.4 212.976 Q2182.84 212.976 2180.69 214.99 Q2178.56 217.004 2178.23 220.661 L2193.42 220.638 Z" fill="#ffffff" fill-rule="evenodd" fill-opacity="1" /><polyline clip-path="url(#clip110)" style="stroke:#e26f46; stroke-linecap:round; stroke-linejoin:round; stroke-width:4; stroke-opacity:1; fill:none" points="1826.11,270.476 1971.26,270.476 "/>
<path clip-path="url(#clip110)" d="M1995.46 253.196 L2024.69 253.196 L2024.69 257.131 L2012.42 257.131 L2012.42 287.756 L2007.72 287.756 L2007.72 257.131 L1995.46 257.131 L1995.46 253.196 Z" fill="#ffffff" fill-rule="evenodd" fill-opacity="1" /><path clip-path="url(#clip110)" d="M2050.57 272.108 L2050.57 287.756 L2046.31 287.756 L2046.31 272.247 Q2046.31 268.566 2044.88 266.737 Q2043.44 264.909 2040.57 264.909 Q2037.12 264.909 2035.13 267.108 Q2033.14 269.307 2033.14 273.103 L2033.14 287.756 L2028.86 287.756 L2028.86 251.737 L2033.14 251.737 L2033.14 265.858 Q2034.67 263.52 2036.73 262.362 Q2038.81 261.205 2041.52 261.205 Q2045.99 261.205 2048.28 263.983 Q2050.57 266.737 2050.57 272.108 Z" fill="#ffffff" fill-rule="evenodd" fill-opacity="1" /><path clip-path="url(#clip110)" d="M2081.24 273.728 L2081.24 275.811 L2061.66 275.811 Q2061.94 280.209 2064.3 282.524 Q2066.68 284.816 2070.92 284.816 Q2073.37 284.816 2075.66 284.214 Q2077.98 283.612 2080.25 282.409 L2080.25 286.436 Q2077.96 287.408 2075.55 287.918 Q2073.14 288.427 2070.66 288.427 Q2064.46 288.427 2060.83 284.816 Q2057.21 281.205 2057.21 275.047 Q2057.21 268.682 2060.64 264.955 Q2064.09 261.205 2069.92 261.205 Q2075.15 261.205 2078.19 264.585 Q2081.24 267.941 2081.24 273.728 M2076.98 272.478 Q2076.94 268.983 2075.02 266.899 Q2073.12 264.816 2069.97 264.816 Q2066.4 264.816 2064.25 266.83 Q2062.12 268.844 2061.8 272.501 L2076.98 272.478 Z" fill="#ffffff" fill-rule="evenodd" fill-opacity="1" /><path clip-path="url(#clip110)" d="M2098.28 264.816 Q2094.85 264.816 2092.86 267.501 Q2090.87 270.163 2090.87 274.816 Q2090.87 279.469 2092.84 282.154 Q2094.83 284.816 2098.28 284.816 Q2101.68 284.816 2103.67 282.131 Q2105.66 279.446 2105.66 274.816 Q2105.66 270.21 2103.67 267.524 Q2101.68 264.816 2098.28 264.816 M2098.28 261.205 Q2103.83 261.205 2107.01 264.816 Q2110.18 268.427 2110.18 274.816 Q2110.18 281.182 2107.01 284.816 Q2103.83 288.427 2098.28 288.427 Q2092.7 288.427 2089.53 284.816 Q2086.38 281.182 2086.38 274.816 Q2086.38 268.427 2089.53 264.816 Q2092.7 261.205 2098.28 261.205 Z" fill="#ffffff" fill-rule="evenodd" fill-opacity="1" /><path clip-path="url(#clip110)" d="M2132.26 265.811 Q2131.54 265.395 2130.69 265.21 Q2129.85 265.001 2128.83 265.001 Q2125.22 265.001 2123.28 267.362 Q2121.36 269.7 2121.36 274.098 L2121.36 287.756 L2117.08 287.756 L2117.08 261.83 L2121.36 261.83 L2121.36 265.858 Q2122.7 263.497 2124.85 262.362 Q2127.01 261.205 2130.08 261.205 Q2130.52 261.205 2131.06 261.274 Q2131.59 261.321 2132.24 261.436 L2132.26 265.811 Z" fill="#ffffff" fill-rule="evenodd" fill-opacity="1" /><path clip-path="url(#clip110)" d="M2157.86 273.728 L2157.86 275.811 L2138.28 275.811 Q2138.56 280.209 2140.92 282.524 Q2143.3 284.816 2147.54 284.816 Q2149.99 284.816 2152.28 284.214 Q2154.6 283.612 2156.87 282.409 L2156.87 286.436 Q2154.58 287.408 2152.17 287.918 Q2149.76 288.427 2147.28 288.427 Q2141.08 288.427 2137.45 284.816 Q2133.83 281.205 2133.83 275.047 Q2133.83 268.682 2137.26 264.955 Q2140.71 261.205 2146.54 261.205 Q2151.77 261.205 2154.81 264.585 Q2157.86 267.941 2157.86 273.728 M2153.6 272.478 Q2153.56 268.983 2151.64 266.899 Q2149.74 264.816 2146.59 264.816 Q2143.02 264.816 2140.87 266.83 Q2138.74 268.844 2138.42 272.501 L2153.6 272.478 Z" fill="#ffffff" fill-rule="evenodd" fill-opacity="1" /><path clip-path="url(#clip110)" d="M2169.07 254.469 L2169.07 261.83 L2177.84 261.83 L2177.84 265.14 L2169.07 265.14 L2169.07 279.214 Q2169.07 282.385 2169.92 283.288 Q2170.8 284.191 2173.46 284.191 L2177.84 284.191 L2177.84 287.756 L2173.46 287.756 Q2168.53 287.756 2166.66 285.927 Q2164.78 284.075 2164.78 279.214 L2164.78 265.14 L2161.66 265.14 L2161.66 261.83 L2164.78 261.83 L2164.78 254.469 L2169.07 254.469 Z" fill="#ffffff" fill-rule="evenodd" fill-opacity="1" /><path clip-path="url(#clip110)" d="M2183.44 261.83 L2187.7 261.83 L2187.7 287.756 L2183.44 287.756 L2183.44 261.83 M2183.44 251.737 L2187.7 251.737 L2187.7 257.131 L2183.44 257.131 L2183.44 251.737 Z" fill="#ffffff" fill-rule="evenodd" fill-opacity="1" /><path clip-path="url(#clip110)" d="M2215.27 262.825 L2215.27 266.807 Q2213.46 265.811 2211.63 265.325 Q2209.83 264.816 2207.98 264.816 Q2203.83 264.816 2201.54 267.455 Q2199.25 270.071 2199.25 274.816 Q2199.25 279.561 2201.54 282.2 Q2203.83 284.816 2207.98 284.816 Q2209.83 284.816 2211.63 284.33 Q2213.46 283.821 2215.27 282.825 L2215.27 286.76 Q2213.49 287.594 2211.57 288.01 Q2209.67 288.427 2207.51 288.427 Q2201.66 288.427 2198.21 284.746 Q2194.76 281.066 2194.76 274.816 Q2194.76 268.473 2198.23 264.839 Q2201.73 261.205 2207.79 261.205 Q2209.76 261.205 2211.63 261.622 Q2213.51 262.015 2215.27 262.825 Z" fill="#ffffff" fill-rule="evenodd" fill-opacity="1" /><path clip-path="url(#clip110)" d="M2234.46 274.723 Q2229.3 274.723 2227.31 275.904 Q2225.32 277.084 2225.32 279.932 Q2225.32 282.2 2226.8 283.543 Q2228.3 284.862 2230.87 284.862 Q2234.41 284.862 2236.54 282.362 Q2238.69 279.839 2238.69 275.672 L2238.69 274.723 L2234.46 274.723 M2242.95 272.964 L2242.95 287.756 L2238.69 287.756 L2238.69 283.821 Q2237.24 286.182 2235.06 287.316 Q2232.88 288.427 2229.74 288.427 Q2225.76 288.427 2223.39 286.205 Q2221.06 283.959 2221.06 280.209 Q2221.06 275.834 2223.97 273.612 Q2226.91 271.39 2232.72 271.39 L2238.69 271.39 L2238.69 270.973 Q2238.69 268.034 2236.75 266.436 Q2234.83 264.816 2231.33 264.816 Q2229.11 264.816 2227.01 265.348 Q2224.9 265.881 2222.95 266.946 L2222.95 263.01 Q2225.29 262.108 2227.49 261.668 Q2229.69 261.205 2231.77 261.205 Q2237.4 261.205 2240.18 264.122 Q2242.95 267.038 2242.95 272.964 Z" fill="#ffffff" fill-rule="evenodd" fill-opacity="1" /><path clip-path="url(#clip110)" d="M2251.73 251.737 L2255.99 251.737 L2255.99 287.756 L2251.73 287.756 L2251.73 251.737 Z" fill="#ffffff" fill-rule="evenodd" fill-opacity="1" /></svg>
