<?xml version="1.0" encoding="utf-8"?>
<svg xmlns="http://www.w3.org/2000/svg" xmlns:xlink="http://www.w3.org/1999/xlink" width="600" height="400" viewBox="0 0 2400 1600">
<defs>
  <clipPath id="clip070">
    <rect x="0" y="0" width="2400" height="1600"/>
  </clipPath>
</defs>
<path clip-path="url(#clip070)" d="M0 1600 L2400 1600 L2400 0 L0 0  Z" fill="#000000" fill-rule="evenodd" fill-opacity="0"/>
<defs>
  <clipPath id="clip071">
    <rect x="480" y="0" width="1681" height="1600"/>
  </clipPath>
</defs>
<path clip-path="url(#clip070)" d="M175.445 1423.18 L2352.76 1423.18 L2352.76 123.472 L175.445 123.472  Z" fill="#000000" fill-rule="evenodd" fill-opacity="0"/>
<defs>
  <clipPath id="clip072">
    <rect x="175" y="123" width="2178" height="1301"/>
  </clipPath>
</defs>
<polyline clip-path="url(#clip072)" style="stroke:#ffffff; stroke-linecap:round; stroke-linejoin:round; stroke-width:2; stroke-opacity:0.1; fill:none" points="237.067,1423.18 237.067,123.472 "/>
<polyline clip-path="url(#clip072)" style="stroke:#ffffff; stroke-linecap:round; stroke-linejoin:round; stroke-width:2; stroke-opacity:0.1; fill:none" points="755.771,1423.18 755.771,123.472 "/>
<polyline clip-path="url(#clip072)" style="stroke:#ffffff; stroke-linecap:round; stroke-linejoin:round; stroke-width:2; stroke-opacity:0.1; fill:none" points="1274.47,1423.18 1274.47,123.472 "/>
<polyline clip-path="url(#clip072)" style="stroke:#ffffff; stroke-linecap:round; stroke-linejoin:round; stroke-width:2; stroke-opacity:0.1; fill:none" points="1793.18,1423.18 1793.18,123.472 "/>
<polyline clip-path="url(#clip072)" style="stroke:#ffffff; stroke-linecap:round; stroke-linejoin:round; stroke-width:2; stroke-opacity:0.1; fill:none" points="2311.88,1423.18 2311.88,123.472 "/>
<polyline clip-path="url(#clip070)" style="stroke:#ffffff; stroke-linecap:round; stroke-linejoin:round; stroke-width:4; stroke-opacity:1; fill:none" points="175.445,1423.18 2352.76,1423.18 "/>
<polyline clip-path="url(#clip070)" style="stroke:#ffffff; stroke-linecap:round; stroke-linejoin:round; stroke-width:4; stroke-opacity:1; fill:none" points="237.067,1423.18 237.067,1404.28 "/>
<polyline clip-path="url(#clip070)" style="stroke:#ffffff; stroke-linecap:round; stroke-linejoin:round; stroke-width:4; stroke-opacity:1; fill:none" points="755.771,1423.18 755.771,1404.28 "/>
<polyline clip-path="url(#clip070)" style="stroke:#ffffff; stroke-linecap:round; stroke-linejoin:round; stroke-width:4; stroke-opacity:1; fill:none" points="1274.47,1423.18 1274.47,1404.28 "/>
<polyline clip-path="url(#clip070)" style="stroke:#ffffff; stroke-linecap:round; stroke-linejoin:round; stroke-width:4; stroke-opacity:1; fill:none" points="1793.18,1423.18 1793.18,1404.28 "/>
<polyline clip-path="url(#clip070)" style="stroke:#ffffff; stroke-linecap:round; stroke-linejoin:round; stroke-width:4; stroke-opacity:1; fill:none" points="2311.88,1423.18 2311.88,1404.28 "/>
<path clip-path="url(#clip070)" d="M199.371 1454.1 Q195.76 1454.1 193.931 1457.66 Q192.125 1461.2 192.125 1468.33 Q192.125 1475.44 193.931 1479.01 Q195.76 1482.55 199.371 1482.55 Q203.005 1482.55 204.81 1479.01 Q206.639 1475.44 206.639 1468.33 Q206.639 1461.2 204.81 1457.66 Q203.005 1454.1 199.371 1454.1 M199.371 1450.39 Q205.181 1450.39 208.236 1455 Q211.315 1459.58 211.315 1468.33 Q211.315 1477.06 208.236 1481.67 Q205.181 1486.25 199.371 1486.25 Q193.56 1486.25 190.482 1481.67 Q187.426 1477.06 187.426 1468.33 Q187.426 1459.58 190.482 1455 Q193.56 1450.39 199.371 1450.39 Z" fill="#ffffff" fill-rule="evenodd" fill-opacity="1" /><path clip-path="url(#clip070)" d="M219.533 1479.7 L224.417 1479.7 L224.417 1485.58 L219.533 1485.58 L219.533 1479.7 Z" fill="#ffffff" fill-rule="evenodd" fill-opacity="1" /><path clip-path="url(#clip070)" d="M244.602 1454.1 Q240.991 1454.1 239.162 1457.66 Q237.357 1461.2 237.357 1468.33 Q237.357 1475.44 239.162 1479.01 Q240.991 1482.55 244.602 1482.55 Q248.236 1482.55 250.042 1479.01 Q251.87 1475.44 251.87 1468.33 Q251.87 1461.2 250.042 1457.66 Q248.236 1454.1 244.602 1454.1 M244.602 1450.39 Q250.412 1450.39 253.468 1455 Q256.546 1459.58 256.546 1468.33 Q256.546 1477.06 253.468 1481.67 Q250.412 1486.25 244.602 1486.25 Q238.792 1486.25 235.713 1481.67 Q232.658 1477.06 232.658 1468.33 Q232.658 1459.58 235.713 1455 Q238.792 1450.39 244.602 1450.39 Z" fill="#ffffff" fill-rule="evenodd" fill-opacity="1" /><path clip-path="url(#clip070)" d="M274.764 1454.1 Q271.153 1454.1 269.324 1457.66 Q267.518 1461.2 267.518 1468.33 Q267.518 1475.44 269.324 1479.01 Q271.153 1482.55 274.764 1482.55 Q278.398 1482.55 280.204 1479.01 Q282.032 1475.44 282.032 1468.33 Q282.032 1461.2 280.204 1457.66 Q278.398 1454.1 274.764 1454.1 M274.764 1450.39 Q280.574 1450.39 283.629 1455 Q286.708 1459.58 286.708 1468.33 Q286.708 1477.06 283.629 1481.67 Q280.574 1486.25 274.764 1486.25 Q268.954 1486.25 265.875 1481.67 Q262.819 1477.06 262.819 1468.33 Q262.819 1459.58 265.875 1455 Q268.954 1450.39 274.764 1450.39 Z" fill="#ffffff" fill-rule="evenodd" fill-opacity="1" /><path clip-path="url(#clip070)" d="M718.572 1454.1 Q714.961 1454.1 713.132 1457.66 Q711.327 1461.2 711.327 1468.33 Q711.327 1475.44 713.132 1479.01 Q714.961 1482.55 718.572 1482.55 Q722.206 1482.55 724.012 1479.01 Q725.841 1475.44 725.841 1468.33 Q725.841 1461.2 724.012 1457.66 Q722.206 1454.1 718.572 1454.1 M718.572 1450.39 Q724.382 1450.39 727.438 1455 Q730.516 1459.58 730.516 1468.33 Q730.516 1477.06 727.438 1481.67 Q724.382 1486.25 718.572 1486.25 Q712.762 1486.25 709.683 1481.67 Q706.628 1477.06 706.628 1468.33 Q706.628 1459.58 709.683 1455 Q712.762 1450.39 718.572 1450.39 Z" fill="#ffffff" fill-rule="evenodd" fill-opacity="1" /><path clip-path="url(#clip070)" d="M738.734 1479.7 L743.618 1479.7 L743.618 1485.58 L738.734 1485.58 L738.734 1479.7 Z" fill="#ffffff" fill-rule="evenodd" fill-opacity="1" /><path clip-path="url(#clip070)" d="M757.831 1481.64 L774.15 1481.64 L774.15 1485.58 L752.206 1485.58 L752.206 1481.64 Q754.868 1478.89 759.451 1474.26 Q764.058 1469.61 765.238 1468.27 Q767.484 1465.74 768.363 1464.01 Q769.266 1462.25 769.266 1460.56 Q769.266 1457.8 767.322 1456.07 Q765.4 1454.33 762.299 1454.33 Q760.1 1454.33 757.646 1455.09 Q755.215 1455.86 752.438 1457.41 L752.438 1452.69 Q755.262 1451.55 757.715 1450.97 Q760.169 1450.39 762.206 1450.39 Q767.576 1450.39 770.771 1453.08 Q773.965 1455.77 773.965 1460.26 Q773.965 1462.39 773.155 1464.31 Q772.368 1466.2 770.262 1468.8 Q769.683 1469.47 766.581 1472.69 Q763.479 1475.88 757.831 1481.64 Z" fill="#ffffff" fill-rule="evenodd" fill-opacity="1" /><path clip-path="url(#clip070)" d="M784.012 1451.02 L802.368 1451.02 L802.368 1454.96 L788.294 1454.96 L788.294 1463.43 Q789.312 1463.08 790.331 1462.92 Q791.349 1462.73 792.368 1462.73 Q798.155 1462.73 801.535 1465.9 Q804.914 1469.08 804.914 1474.49 Q804.914 1480.07 801.442 1483.17 Q797.97 1486.25 791.65 1486.25 Q789.474 1486.25 787.206 1485.88 Q784.961 1485.51 782.553 1484.77 L782.553 1480.07 Q784.637 1481.2 786.859 1481.76 Q789.081 1482.32 791.558 1482.32 Q795.562 1482.32 797.9 1480.21 Q800.238 1478.1 800.238 1474.49 Q800.238 1470.88 797.9 1468.77 Q795.562 1466.67 791.558 1466.67 Q789.683 1466.67 787.808 1467.08 Q785.956 1467.5 784.012 1468.38 L784.012 1451.02 Z" fill="#ffffff" fill-rule="evenodd" fill-opacity="1" /><path clip-path="url(#clip070)" d="M1236.78 1454.1 Q1233.17 1454.1 1231.34 1457.66 Q1229.53 1461.2 1229.53 1468.33 Q1229.53 1475.44 1231.34 1479.01 Q1233.17 1482.55 1236.78 1482.55 Q1240.41 1482.55 1242.22 1479.01 Q1244.05 1475.44 1244.05 1468.33 Q1244.05 1461.2 1242.22 1457.66 Q1240.41 1454.1 1236.78 1454.1 M1236.78 1450.39 Q1242.59 1450.39 1245.64 1455 Q1248.72 1459.58 1248.72 1468.33 Q1248.72 1477.06 1245.64 1481.67 Q1242.59 1486.25 1236.78 1486.25 Q1230.97 1486.25 1227.89 1481.67 Q1224.83 1477.06 1224.83 1468.33 Q1224.83 1459.58 1227.89 1455 Q1230.97 1450.39 1236.78 1450.39 Z" fill="#ffffff" fill-rule="evenodd" fill-opacity="1" /><path clip-path="url(#clip070)" d="M1256.94 1479.7 L1261.82 1479.7 L1261.82 1485.58 L1256.94 1485.58 L1256.94 1479.7 Z" fill="#ffffff" fill-rule="evenodd" fill-opacity="1" /><path clip-path="url(#clip070)" d="M1272.06 1451.02 L1290.41 1451.02 L1290.41 1454.96 L1276.34 1454.96 L1276.34 1463.43 Q1277.36 1463.08 1278.38 1462.92 Q1279.39 1462.73 1280.41 1462.73 Q1286.2 1462.73 1289.58 1465.9 Q1292.96 1469.08 1292.96 1474.49 Q1292.96 1480.07 1289.49 1483.17 Q1286.01 1486.25 1279.69 1486.25 Q1277.52 1486.25 1275.25 1485.88 Q1273 1485.51 1270.6 1484.77 L1270.6 1480.07 Q1272.68 1481.2 1274.9 1481.76 Q1277.13 1482.32 1279.6 1482.32 Q1283.61 1482.32 1285.94 1480.21 Q1288.28 1478.1 1288.28 1474.49 Q1288.28 1470.88 1285.94 1468.77 Q1283.61 1466.67 1279.6 1466.67 Q1277.73 1466.67 1275.85 1467.08 Q1274 1467.5 1272.06 1468.38 L1272.06 1451.02 Z" fill="#ffffff" fill-rule="evenodd" fill-opacity="1" /><path clip-path="url(#clip070)" d="M1312.17 1454.1 Q1308.56 1454.1 1306.73 1457.66 Q1304.93 1461.2 1304.93 1468.33 Q1304.93 1475.44 1306.73 1479.01 Q1308.56 1482.55 1312.17 1482.55 Q1315.81 1482.55 1317.61 1479.01 Q1319.44 1475.44 1319.44 1468.33 Q1319.44 1461.2 1317.61 1457.66 Q1315.81 1454.1 1312.17 1454.1 M1312.17 1450.39 Q1317.98 1450.39 1321.04 1455 Q1324.12 1459.58 1324.12 1468.33 Q1324.12 1477.06 1321.04 1481.67 Q1317.98 1486.25 1312.17 1486.25 Q1306.36 1486.25 1303.28 1481.67 Q1300.23 1477.06 1300.23 1468.33 Q1300.23 1459.58 1303.28 1455 Q1306.36 1450.39 1312.17 1450.39 Z" fill="#ffffff" fill-rule="evenodd" fill-opacity="1" /><path clip-path="url(#clip070)" d="M1755.98 1454.1 Q1752.37 1454.1 1750.54 1457.66 Q1748.73 1461.2 1748.73 1468.33 Q1748.73 1475.44 1750.54 1479.01 Q1752.37 1482.55 1755.98 1482.55 Q1759.61 1482.55 1761.42 1479.01 Q1763.25 1475.44 1763.25 1468.33 Q1763.25 1461.2 1761.42 1457.66 Q1759.61 1454.1 1755.98 1454.1 M1755.98 1450.39 Q1761.79 1450.39 1764.85 1455 Q1767.92 1459.58 1767.92 1468.33 Q1767.92 1477.06 1764.85 1481.67 Q1761.79 1486.25 1755.98 1486.25 Q1750.17 1486.25 1747.09 1481.67 Q1744.04 1477.06 1744.04 1468.33 Q1744.04 1459.58 1747.09 1455 Q1750.17 1450.39 1755.98 1450.39 Z" fill="#ffffff" fill-rule="evenodd" fill-opacity="1" /><path clip-path="url(#clip070)" d="M1776.14 1479.7 L1781.03 1479.7 L1781.03 1485.58 L1776.14 1485.58 L1776.14 1479.7 Z" fill="#ffffff" fill-rule="evenodd" fill-opacity="1" /><path clip-path="url(#clip070)" d="M1790.03 1451.02 L1812.25 1451.02 L1812.25 1453.01 L1799.71 1485.58 L1794.82 1485.58 L1806.63 1454.96 L1790.03 1454.96 L1790.03 1451.02 Z" fill="#ffffff" fill-rule="evenodd" fill-opacity="1" /><path clip-path="url(#clip070)" d="M1821.42 1451.02 L1839.78 1451.02 L1839.78 1454.96 L1825.7 1454.96 L1825.7 1463.43 Q1826.72 1463.08 1827.74 1462.92 Q1828.76 1462.73 1829.78 1462.73 Q1835.56 1462.73 1838.94 1465.9 Q1842.32 1469.08 1842.32 1474.49 Q1842.32 1480.07 1838.85 1483.17 Q1835.38 1486.25 1829.06 1486.25 Q1826.88 1486.25 1824.61 1485.88 Q1822.37 1485.51 1819.96 1484.77 L1819.96 1480.07 Q1822.04 1481.2 1824.27 1481.76 Q1826.49 1482.32 1828.97 1482.32 Q1832.97 1482.32 1835.31 1480.21 Q1837.65 1478.1 1837.65 1474.49 Q1837.65 1470.88 1835.31 1468.77 Q1832.97 1466.67 1828.97 1466.67 Q1827.09 1466.67 1825.22 1467.08 Q1823.36 1467.5 1821.42 1468.38 L1821.42 1451.02 Z" fill="#ffffff" fill-rule="evenodd" fill-opacity="1" /><path clip-path="url(#clip070)" d="M2263.95 1481.64 L2271.59 1481.64 L2271.59 1455.28 L2263.28 1456.95 L2263.28 1452.69 L2271.55 1451.02 L2276.22 1451.02 L2276.22 1481.64 L2283.86 1481.64 L2283.86 1485.58 L2263.95 1485.58 L2263.95 1481.64 Z" fill="#ffffff" fill-rule="evenodd" fill-opacity="1" /><path clip-path="url(#clip070)" d="M2293.31 1479.7 L2298.19 1479.7 L2298.19 1485.58 L2293.31 1485.58 L2293.31 1479.7 Z" fill="#ffffff" fill-rule="evenodd" fill-opacity="1" /><path clip-path="url(#clip070)" d="M2318.38 1454.1 Q2314.76 1454.1 2312.94 1457.66 Q2311.13 1461.2 2311.13 1468.33 Q2311.13 1475.44 2312.94 1479.01 Q2314.76 1482.55 2318.38 1482.55 Q2322.01 1482.55 2323.81 1479.01 Q2325.64 1475.44 2325.64 1468.33 Q2325.64 1461.2 2323.81 1457.66 Q2322.01 1454.1 2318.38 1454.1 M2318.38 1450.39 Q2324.19 1450.39 2327.24 1455 Q2330.32 1459.58 2330.32 1468.33 Q2330.32 1477.06 2327.24 1481.67 Q2324.19 1486.25 2318.38 1486.25 Q2312.56 1486.25 2309.49 1481.67 Q2306.43 1477.06 2306.43 1468.33 Q2306.43 1459.58 2309.49 1455 Q2312.56 1450.39 2318.38 1450.39 Z" fill="#ffffff" fill-rule="evenodd" fill-opacity="1" /><path clip-path="url(#clip070)" d="M2348.54 1454.1 Q2344.93 1454.1 2343.1 1457.66 Q2341.29 1461.2 2341.29 1468.33 Q2341.29 1475.44 2343.1 1479.01 Q2344.93 1482.55 2348.54 1482.55 Q2352.17 1482.55 2353.98 1479.01 Q2355.81 1475.44 2355.81 1468.33 Q2355.81 1461.2 2353.98 1457.66 Q2352.17 1454.1 2348.54 1454.1 M2348.54 1450.39 Q2354.35 1450.39 2357.4 1455 Q2360.48 1459.58 2360.48 1468.33 Q2360.48 1477.06 2357.4 1481.67 Q2354.35 1486.25 2348.54 1486.25 Q2342.73 1486.25 2339.65 1481.67 Q2336.59 1477.06 2336.59 1468.33 Q2336.59 1459.58 2339.65 1455 Q2342.73 1450.39 2348.54 1450.39 Z" fill="#ffffff" fill-rule="evenodd" fill-opacity="1" /><path clip-path="url(#clip070)" d="M1194.73 1568.04 L1176.59 1520.52 L1183.3 1520.52 L1198.36 1560.53 L1213.45 1520.52 L1220.13 1520.52 L1202.02 1568.04 L1194.73 1568.04 Z" fill="#ffffff" fill-rule="evenodd" fill-opacity="1" /><path clip-path="url(#clip070)" d="M1237.95 1550.12 Q1230.86 1550.12 1228.12 1551.75 Q1225.38 1553.37 1225.38 1557.29 Q1225.38 1560.4 1227.42 1562.25 Q1229.49 1564.07 1233.02 1564.07 Q1237.89 1564.07 1240.82 1560.63 Q1243.78 1557.16 1243.78 1551.43 L1243.78 1550.12 L1237.95 1550.12 M1249.63 1547.71 L1249.63 1568.04 L1243.78 1568.04 L1243.78 1562.63 Q1241.77 1565.88 1238.78 1567.44 Q1235.79 1568.97 1231.46 1568.97 Q1225.99 1568.97 1222.74 1565.91 Q1219.52 1562.82 1219.52 1557.67 Q1219.52 1551.65 1223.54 1548.6 Q1227.58 1545.54 1235.57 1545.54 L1243.78 1545.54 L1243.78 1544.97 Q1243.78 1540.93 1241.1 1538.73 Q1238.46 1536.5 1233.66 1536.5 Q1230.6 1536.5 1227.7 1537.23 Q1224.81 1537.97 1222.13 1539.43 L1222.13 1534.02 Q1225.35 1532.78 1228.37 1532.17 Q1231.4 1531.54 1234.26 1531.54 Q1242 1531.54 1245.82 1535.55 Q1249.63 1539.56 1249.63 1547.71 Z" fill="#ffffff" fill-rule="evenodd" fill-opacity="1" /><path clip-path="url(#clip070)" d="M1261.7 1518.52 L1267.55 1518.52 L1267.55 1568.04 L1261.7 1568.04 L1261.7 1518.52 Z" fill="#ffffff" fill-rule="evenodd" fill-opacity="1" /><path clip-path="url(#clip070)" d="M1279.2 1553.98 L1279.2 1532.4 L1285.06 1532.4 L1285.06 1553.75 Q1285.06 1558.81 1287.03 1561.36 Q1289.01 1563.87 1292.95 1563.87 Q1297.7 1563.87 1300.43 1560.85 Q1303.2 1557.83 1303.2 1552.61 L1303.2 1532.4 L1309.06 1532.4 L1309.06 1568.04 L1303.2 1568.04 L1303.2 1562.57 Q1301.07 1565.82 1298.24 1567.41 Q1295.44 1568.97 1291.71 1568.97 Q1285.57 1568.97 1282.39 1565.15 Q1279.2 1561.33 1279.2 1553.98 M1293.94 1531.54 L1293.94 1531.54 Z" fill="#ffffff" fill-rule="evenodd" fill-opacity="1" /><path clip-path="url(#clip070)" d="M1351.61 1548.76 L1351.61 1551.62 L1324.69 1551.62 Q1325.07 1557.67 1328.31 1560.85 Q1331.59 1564 1337.42 1564 Q1340.79 1564 1343.94 1563.17 Q1347.13 1562.35 1350.24 1560.69 L1350.24 1566.23 Q1347.09 1567.57 1343.78 1568.27 Q1340.47 1568.97 1337.07 1568.97 Q1328.54 1568.97 1323.54 1564 Q1318.58 1559.04 1318.58 1550.57 Q1318.58 1541.82 1323.29 1536.69 Q1328.03 1531.54 1336.05 1531.54 Q1343.24 1531.54 1347.41 1536.18 Q1351.61 1540.8 1351.61 1548.76 M1345.76 1547.04 Q1345.69 1542.23 1343.05 1539.37 Q1340.44 1536.5 1336.11 1536.5 Q1331.21 1536.5 1328.25 1539.27 Q1325.32 1542.04 1324.88 1547.07 L1345.76 1547.04 Z" fill="#ffffff" fill-rule="evenodd" fill-opacity="1" /><polyline clip-path="url(#clip072)" style="stroke:#ffffff; stroke-linecap:round; stroke-linejoin:round; stroke-width:2; stroke-opacity:0.1; fill:none" points="175.445,1386.4 2352.76,1386.4 "/>
<polyline clip-path="url(#clip072)" style="stroke:#ffffff; stroke-linecap:round; stroke-linejoin:round; stroke-width:2; stroke-opacity:0.1; fill:none" points="175.445,1139.69 2352.76,1139.69 "/>
<polyline clip-path="url(#clip072)" style="stroke:#ffffff; stroke-linecap:round; stroke-linejoin:round; stroke-width:2; stroke-opacity:0.1; fill:none" points="175.445,892.979 2352.76,892.979 "/>
<polyline clip-path="url(#clip072)" style="stroke:#ffffff; stroke-linecap:round; stroke-linejoin:round; stroke-width:2; stroke-opacity:0.1; fill:none" points="175.445,646.271 2352.76,646.271 "/>
<polyline clip-path="url(#clip072)" style="stroke:#ffffff; stroke-linecap:round; stroke-linejoin:round; stroke-width:2; stroke-opacity:0.1; fill:none" points="175.445,399.563 2352.76,399.563 "/>
<polyline clip-path="url(#clip072)" style="stroke:#ffffff; stroke-linecap:round; stroke-linejoin:round; stroke-width:2; stroke-opacity:0.1; fill:none" points="175.445,152.855 2352.76,152.855 "/>
<polyline clip-path="url(#clip070)" style="stroke:#ffffff; stroke-linecap:round; stroke-linejoin:round; stroke-width:4; stroke-opacity:1; fill:none" points="175.445,1423.18 175.445,123.472 "/>
<polyline clip-path="url(#clip070)" style="stroke:#ffffff; stroke-linecap:round; stroke-linejoin:round; stroke-width:4; stroke-opacity:1; fill:none" points="175.445,1386.4 194.343,1386.4 "/>
<polyline clip-path="url(#clip070)" style="stroke:#ffffff; stroke-linecap:round; stroke-linejoin:round; stroke-width:4; stroke-opacity:1; fill:none" points="175.445,1139.69 194.343,1139.69 "/>
<polyline clip-path="url(#clip070)" style="stroke:#ffffff; stroke-linecap:round; stroke-linejoin:round; stroke-width:4; stroke-opacity:1; fill:none" points="175.445,892.979 194.343,892.979 "/>
<polyline clip-path="url(#clip070)" style="stroke:#ffffff; stroke-linecap:round; stroke-linejoin:round; stroke-width:4; stroke-opacity:1; fill:none" points="175.445,646.271 194.343,646.271 "/>
<polyline clip-path="url(#clip070)" style="stroke:#ffffff; stroke-linecap:round; stroke-linejoin:round; stroke-width:4; stroke-opacity:1; fill:none" points="175.445,399.563 194.343,399.563 "/>
<polyline clip-path="url(#clip070)" style="stroke:#ffffff; stroke-linecap:round; stroke-linejoin:round; stroke-width:4; stroke-opacity:1; fill:none" points="175.445,152.855 194.343,152.855 "/>
<path clip-path="url(#clip070)" d="M127.501 1372.19 Q123.89 1372.19 122.061 1375.76 Q120.255 1379.3 120.255 1386.43 Q120.255 1393.54 122.061 1397.1 Q123.89 1400.64 127.501 1400.64 Q131.135 1400.64 132.941 1397.1 Q134.769 1393.54 134.769 1386.43 Q134.769 1379.3 132.941 1375.76 Q131.135 1372.19 127.501 1372.19 M127.501 1368.49 Q133.311 1368.49 136.367 1373.1 Q139.445 1377.68 139.445 1386.43 Q139.445 1395.16 136.367 1399.76 Q133.311 1404.35 127.501 1404.35 Q121.691 1404.35 118.612 1399.76 Q115.556 1395.16 115.556 1386.43 Q115.556 1377.68 118.612 1373.1 Q121.691 1368.49 127.501 1368.49 Z" fill="#ffffff" fill-rule="evenodd" fill-opacity="1" /><path clip-path="url(#clip070)" d="M119.538 1153.03 L127.177 1153.03 L127.177 1126.67 L118.867 1128.33 L118.867 1124.07 L127.13 1122.41 L131.806 1122.41 L131.806 1153.03 L139.445 1153.03 L139.445 1156.97 L119.538 1156.97 L119.538 1153.03 Z" fill="#ffffff" fill-rule="evenodd" fill-opacity="1" /><path clip-path="url(#clip070)" d="M123.126 906.324 L139.445 906.324 L139.445 910.259 L117.501 910.259 L117.501 906.324 Q120.163 903.57 124.746 898.94 Q129.353 894.287 130.533 892.945 Q132.779 890.422 133.658 888.685 Q134.561 886.926 134.561 885.236 Q134.561 882.482 132.617 880.746 Q130.695 879.01 127.593 879.01 Q125.394 879.01 122.941 879.773 Q120.51 880.537 117.732 882.088 L117.732 877.366 Q120.556 876.232 123.01 875.653 Q125.464 875.074 127.501 875.074 Q132.871 875.074 136.066 877.76 Q139.26 880.445 139.26 884.935 Q139.26 887.065 138.45 888.986 Q137.663 890.885 135.556 893.477 Q134.978 894.148 131.876 897.366 Q128.774 900.56 123.126 906.324 Z" fill="#ffffff" fill-rule="evenodd" fill-opacity="1" /><path clip-path="url(#clip070)" d="M132.316 644.917 Q135.672 645.635 137.547 647.903 Q139.445 650.172 139.445 653.505 Q139.445 658.621 135.927 661.422 Q132.408 664.223 125.927 664.223 Q123.751 664.223 121.436 663.783 Q119.144 663.366 116.691 662.51 L116.691 657.996 Q118.635 659.13 120.95 659.709 Q123.265 660.287 125.788 660.287 Q130.186 660.287 132.478 658.551 Q134.792 656.815 134.792 653.505 Q134.792 650.45 132.64 648.737 Q130.51 647 126.691 647 L122.663 647 L122.663 643.158 L126.876 643.158 Q130.325 643.158 132.154 641.792 Q133.982 640.403 133.982 637.811 Q133.982 635.149 132.084 633.737 Q130.209 632.301 126.691 632.301 Q124.769 632.301 122.57 632.718 Q120.371 633.135 117.732 634.014 L117.732 629.848 Q120.394 629.107 122.709 628.737 Q125.047 628.366 127.107 628.366 Q132.431 628.366 135.533 630.797 Q138.635 633.204 138.635 637.325 Q138.635 640.195 136.992 642.186 Q135.348 644.153 132.316 644.917 Z" fill="#ffffff" fill-rule="evenodd" fill-opacity="1" /><path clip-path="url(#clip070)" d="M129.862 386.357 L118.056 404.806 L129.862 404.806 L129.862 386.357 M128.635 382.283 L134.515 382.283 L134.515 404.806 L139.445 404.806 L139.445 408.695 L134.515 408.695 L134.515 416.843 L129.862 416.843 L129.862 408.695 L114.26 408.695 L114.26 404.181 L128.635 382.283 Z" fill="#ffffff" fill-rule="evenodd" fill-opacity="1" /><path clip-path="url(#clip070)" d="M118.543 135.575 L136.899 135.575 L136.899 139.51 L122.825 139.51 L122.825 147.982 Q123.843 147.635 124.862 147.473 Q125.88 147.288 126.899 147.288 Q132.686 147.288 136.066 150.459 Q139.445 153.631 139.445 159.047 Q139.445 164.626 135.973 167.728 Q132.501 170.806 126.181 170.806 Q124.005 170.806 121.737 170.436 Q119.492 170.066 117.084 169.325 L117.084 164.626 Q119.168 165.76 121.39 166.316 Q123.612 166.871 126.089 166.871 Q130.093 166.871 132.431 164.765 Q134.769 162.658 134.769 159.047 Q134.769 155.436 132.431 153.33 Q130.093 151.223 126.089 151.223 Q124.214 151.223 122.339 151.64 Q120.487 152.056 118.543 152.936 L118.543 135.575 Z" fill="#ffffff" fill-rule="evenodd" fill-opacity="1" /><path clip-path="url(#clip070)" d="M21.7677 935.015 L39.6235 935.015 L39.6235 926.93 Q39.6235 922.443 37.3 919.992 Q34.9765 917.541 30.6797 917.541 Q26.4147 917.541 24.0912 919.992 Q21.7677 922.443 21.7677 926.93 L21.7677 935.015 M16.4842 941.444 L16.4842 926.93 Q16.4842 918.942 20.1126 914.867 Q23.7092 910.762 30.6797 910.762 Q37.7138 910.762 41.3104 914.867 Q44.907 918.942 44.907 926.93 L44.907 935.015 L64.0042 935.015 L64.0042 941.444 L16.4842 941.444 Z" fill="#ffffff" fill-rule="evenodd" fill-opacity="1" /><path clip-path="url(#clip070)" d="M33.8307 882.88 Q33.2578 883.866 33.0032 885.044 Q32.7167 886.19 32.7167 887.59 Q32.7167 892.556 35.9632 895.229 Q39.1779 897.871 45.2253 897.871 L64.0042 897.871 L64.0042 903.759 L28.3562 903.759 L28.3562 897.871 L33.8944 897.871 Q30.6479 896.025 29.0883 893.065 Q27.4968 890.105 27.4968 885.872 Q27.4968 885.267 27.5923 884.535 Q27.656 883.803 27.8151 882.912 L33.8307 882.88 Z" fill="#ffffff" fill-rule="evenodd" fill-opacity="1" /><path clip-path="url(#clip070)" d="M32.4621 864.356 Q32.4621 869.066 36.1542 871.803 Q39.8145 874.541 46.212 874.541 Q52.6095 874.541 56.3017 871.835 Q59.9619 869.098 59.9619 864.356 Q59.9619 859.677 56.2698 856.94 Q52.5777 854.202 46.212 854.202 Q39.8781 854.202 36.186 856.94 Q32.4621 859.677 32.4621 864.356 M27.4968 864.356 Q27.4968 856.717 32.4621 852.356 Q37.4273 847.996 46.212 847.996 Q54.9649 847.996 59.9619 852.356 Q64.9272 856.717 64.9272 864.356 Q64.9272 872.026 59.9619 876.387 Q54.9649 880.715 46.212 880.715 Q37.4273 880.715 32.4621 876.387 Q27.4968 872.026 27.4968 864.356 Z" fill="#ffffff" fill-rule="evenodd" fill-opacity="1" /><path clip-path="url(#clip070)" d="M58.657 832.623 L77.5631 832.623 L77.5631 838.511 L28.3562 838.511 L28.3562 832.623 L33.7671 832.623 Q30.5842 830.776 29.0564 827.976 Q27.4968 825.143 27.4968 821.228 Q27.4968 814.735 32.6531 810.693 Q37.8093 806.619 46.212 806.619 Q54.6147 806.619 59.771 810.693 Q64.9272 814.735 64.9272 821.228 Q64.9272 825.143 63.3994 827.976 Q61.8398 830.776 58.657 832.623 M46.212 812.698 Q39.7508 812.698 36.0905 815.371 Q32.3984 818.013 32.3984 822.66 Q32.3984 827.307 36.0905 829.981 Q39.7508 832.623 46.212 832.623 Q52.6732 832.623 56.3653 829.981 Q60.0256 827.307 60.0256 822.66 Q60.0256 818.013 56.3653 815.371 Q52.6732 812.698 46.212 812.698 Z" fill="#ffffff" fill-rule="evenodd" fill-opacity="1" /><path clip-path="url(#clip070)" d="M46.0847 780.71 Q46.0847 787.808 47.7079 790.545 Q49.3312 793.282 53.2461 793.282 Q56.3653 793.282 58.2114 791.245 Q60.0256 789.177 60.0256 785.644 Q60.0256 780.774 56.5881 777.846 Q53.1188 774.886 47.3897 774.886 L46.0847 774.886 L46.0847 780.71 M43.6657 769.029 L64.0042 769.029 L64.0042 774.886 L58.5933 774.886 Q61.8398 776.891 63.3994 779.883 Q64.9272 782.875 64.9272 787.203 Q64.9272 792.678 61.8716 795.924 Q58.7843 799.139 53.6281 799.139 Q47.6125 799.139 44.5569 795.129 Q41.5014 791.086 41.5014 783.097 L41.5014 774.886 L40.9285 774.886 Q36.8862 774.886 34.6901 777.559 Q32.4621 780.201 32.4621 785.007 Q32.4621 788.063 33.1941 790.959 Q33.9262 793.855 35.3903 796.529 L29.9795 796.529 Q28.7381 793.314 28.1334 790.291 Q27.4968 787.267 27.4968 784.402 Q27.4968 776.668 31.5072 772.849 Q35.5176 769.029 43.6657 769.029 Z" fill="#ffffff" fill-rule="evenodd" fill-opacity="1" /><path clip-path="url(#clip070)" d="M46.212 731.376 Q39.7508 731.376 36.0905 734.05 Q32.3984 736.691 32.3984 741.338 Q32.3984 745.985 36.0905 748.659 Q39.7508 751.301 46.212 751.301 Q52.6732 751.301 56.3653 748.659 Q60.0256 745.985 60.0256 741.338 Q60.0256 736.691 56.3653 734.05 Q52.6732 731.376 46.212 731.376 M33.7671 751.301 Q30.5842 749.455 29.0564 746.654 Q27.4968 743.821 27.4968 739.906 Q27.4968 733.413 32.6531 729.371 Q37.8093 725.297 46.212 725.297 Q54.6147 725.297 59.771 729.371 Q64.9272 733.413 64.9272 739.906 Q64.9272 743.821 63.3994 746.654 Q61.8398 749.455 58.657 751.301 L64.0042 751.301 L64.0042 757.189 L14.479 757.189 L14.479 751.301 L33.7671 751.301 Z" fill="#ffffff" fill-rule="evenodd" fill-opacity="1" /><path clip-path="url(#clip070)" d="M28.3562 715.589 L28.3562 709.733 L64.0042 709.733 L64.0042 715.589 L28.3562 715.589 M14.479 715.589 L14.479 709.733 L21.895 709.733 L21.895 715.589 L14.479 715.589 Z" fill="#ffffff" fill-rule="evenodd" fill-opacity="1" /><path clip-path="url(#clip070)" d="M14.479 697.479 L14.479 691.622 L64.0042 691.622 L64.0042 697.479 L14.479 697.479 Z" fill="#ffffff" fill-rule="evenodd" fill-opacity="1" /><path clip-path="url(#clip070)" d="M28.3562 679.368 L28.3562 673.512 L64.0042 673.512 L64.0042 679.368 L28.3562 679.368 M14.479 679.368 L14.479 673.512 L21.895 673.512 L21.895 679.368 L14.479 679.368 Z" fill="#ffffff" fill-rule="evenodd" fill-opacity="1" /><path clip-path="url(#clip070)" d="M18.2347 655.465 L28.3562 655.465 L28.3562 643.402 L32.9077 643.402 L32.9077 655.465 L52.2594 655.465 Q56.6199 655.465 57.8613 654.287 Q59.1026 653.078 59.1026 649.418 L59.1026 643.402 L64.0042 643.402 L64.0042 649.418 Q64.0042 656.197 61.4897 658.775 Q58.9434 661.353 52.2594 661.353 L32.9077 661.353 L32.9077 665.65 L28.3562 665.65 L28.3562 661.353 L18.2347 661.353 L18.2347 655.465 Z" fill="#ffffff" fill-rule="evenodd" fill-opacity="1" /><path clip-path="url(#clip070)" d="M67.3143 620.867 Q73.68 623.35 75.6216 625.705 Q77.5631 628.061 77.5631 632.007 L77.5631 636.686 L72.6615 636.686 L72.6615 633.249 Q72.6615 630.83 71.5157 629.493 Q70.3699 628.156 66.1048 626.533 L63.4312 625.482 L28.3562 639.901 L28.3562 633.694 L56.238 622.554 L28.3562 611.414 L28.3562 605.208 L67.3143 620.867 Z" fill="#ffffff" fill-rule="evenodd" fill-opacity="1" /><path clip-path="url(#clip070)" d="M807.037 18.8205 L807.037 41.5461 L817.326 41.5461 Q823.038 41.5461 826.157 38.5889 Q829.276 35.6318 829.276 30.163 Q829.276 24.7348 826.157 21.7777 Q823.038 18.8205 817.326 18.8205 L807.037 18.8205 M798.854 12.096 L817.326 12.096 Q827.494 12.096 832.679 16.714 Q837.905 21.2916 837.905 30.163 Q837.905 39.1155 832.679 43.6931 Q827.494 48.2706 817.326 48.2706 L807.037 48.2706 L807.037 72.576 L798.854 72.576 L798.854 12.096 Z" fill="#ffffff" fill-rule="evenodd" fill-opacity="1" /><path clip-path="url(#clip070)" d="M857.066 18.8205 L857.066 65.8515 L866.95 65.8515 Q879.467 65.8515 885.26 60.1802 Q891.093 54.509 891.093 42.2752 Q891.093 30.1225 885.26 24.4918 Q879.467 18.8205 866.95 18.8205 L857.066 18.8205 M848.883 12.096 L865.694 12.096 Q883.275 12.096 891.498 19.4281 Q899.722 26.7198 899.722 42.2752 Q899.722 57.9117 891.458 65.2439 Q883.194 72.576 865.694 72.576 L848.883 72.576 L848.883 12.096 Z" fill="#ffffff" fill-rule="evenodd" fill-opacity="1" /><path clip-path="url(#clip070)" d="M912.766 12.096 L947.522 12.096 L947.522 18.9825 L920.948 18.9825 L920.948 36.8065 L944.93 36.8065 L944.93 43.6931 L920.948 43.6931 L920.948 72.576 L912.766 72.576 L912.766 12.096 Z" fill="#ffffff" fill-rule="evenodd" fill-opacity="1" /><path clip-path="url(#clip070)" d="M1004.11 32.4315 Q998.118 32.4315 994.634 37.1306 Q991.151 41.7891 991.151 49.9314 Q991.151 58.0738 994.594 62.7728 Q998.078 67.4314 1004.11 67.4314 Q1010.07 67.4314 1013.55 62.7323 Q1017.04 58.0333 1017.04 49.9314 Q1017.04 41.8701 1013.55 37.1711 Q1010.07 32.4315 1004.11 32.4315 M1004.11 26.1121 Q1013.84 26.1121 1019.39 32.4315 Q1024.94 38.7509 1024.94 49.9314 Q1024.94 61.0714 1019.39 67.4314 Q1013.84 73.7508 1004.11 73.7508 Q994.351 73.7508 988.801 67.4314 Q983.292 61.0714 983.292 49.9314 Q983.292 38.7509 988.801 32.4315 Q994.351 26.1121 1004.11 26.1121 Z" fill="#ffffff" fill-rule="evenodd" fill-opacity="1" /><path clip-path="url(#clip070)" d="M1060.26 9.54393 L1060.26 15.7418 L1053.13 15.7418 Q1049.12 15.7418 1047.54 17.3622 Q1046 18.9825 1046 23.1955 L1046 27.2059 L1058.27 27.2059 L1058.27 32.9987 L1046 32.9987 L1046 72.576 L1038.51 72.576 L1038.51 32.9987 L1031.38 32.9987 L1031.38 27.2059 L1038.51 27.2059 L1038.51 24.0462 Q1038.51 16.471 1042.03 13.0277 Q1045.55 9.54393 1053.21 9.54393 L1060.26 9.54393 Z" fill="#ffffff" fill-rule="evenodd" fill-opacity="1" /><path clip-path="url(#clip070)" d="M1138.48 16.7545 L1138.48 25.383 Q1134.35 21.5346 1129.65 19.6307 Q1124.99 17.7268 1119.73 17.7268 Q1109.36 17.7268 1103.85 24.0867 Q1098.34 30.4061 1098.34 42.3968 Q1098.34 54.3469 1103.85 60.7069 Q1109.36 67.0263 1119.73 67.0263 Q1124.99 67.0263 1129.65 65.1223 Q1134.35 63.2184 1138.48 59.3701 L1138.48 67.9175 Q1134.19 70.8341 1129.37 72.2924 Q1124.59 73.7508 1119.24 73.7508 Q1105.51 73.7508 1097.61 65.3654 Q1089.71 56.9395 1089.71 42.3968 Q1089.71 27.8135 1097.61 19.4281 Q1105.51 11.0023 1119.24 11.0023 Q1124.67 11.0023 1129.45 12.4606 Q1134.27 13.8784 1138.48 16.7545 Z" fill="#ffffff" fill-rule="evenodd" fill-opacity="1" /><path clip-path="url(#clip070)" d="M1151.12 12.096 L1159.3 12.096 L1159.3 65.6895 L1188.75 65.6895 L1188.75 72.576 L1151.12 72.576 L1151.12 12.096 Z" fill="#ffffff" fill-rule="evenodd" fill-opacity="1" /><path clip-path="url(#clip070)" d="M1177.53 12.096 L1228.7 12.096 L1228.7 18.9825 L1207.23 18.9825 L1207.23 72.576 L1199 72.576 L1199 18.9825 L1177.53 18.9825 L1177.53 12.096 Z" fill="#ffffff" fill-rule="evenodd" fill-opacity="1" /><path clip-path="url(#clip070)" d="M1301.45 48.0275 L1301.45 51.6733 L1267.18 51.6733 Q1267.67 59.3701 1271.8 63.421 Q1275.97 67.4314 1283.38 67.4314 Q1287.68 67.4314 1291.69 66.3781 Q1295.74 65.3249 1299.71 63.2184 L1299.71 70.267 Q1295.7 71.9684 1291.48 72.8596 Q1287.27 73.7508 1282.94 73.7508 Q1272.08 73.7508 1265.72 67.4314 Q1259.4 61.1119 1259.4 50.3365 Q1259.4 39.1965 1265.4 32.6746 Q1271.43 26.1121 1281.64 26.1121 Q1290.8 26.1121 1296.1 32.0264 Q1301.45 37.9003 1301.45 48.0275 M1294 45.84 Q1293.92 39.7232 1290.55 36.0774 Q1287.23 32.4315 1281.72 32.4315 Q1275.48 32.4315 1271.72 35.9558 Q1267.99 39.4801 1267.42 45.8805 L1294 45.84 Z" fill="#ffffff" fill-rule="evenodd" fill-opacity="1" /><path clip-path="url(#clip070)" d="M1349.94 27.2059 L1333.53 49.2833 L1350.79 72.576 L1342 72.576 L1328.79 54.752 L1315.59 72.576 L1306.8 72.576 L1324.42 48.8377 L1308.3 27.2059 L1317.09 27.2059 L1329.12 43.369 L1341.15 27.2059 L1349.94 27.2059 Z" fill="#ffffff" fill-rule="evenodd" fill-opacity="1" /><path clip-path="url(#clip070)" d="M1368.53 65.7705 L1368.53 89.8329 L1361.04 89.8329 L1361.04 27.2059 L1368.53 27.2059 L1368.53 34.0924 Q1370.88 30.0415 1374.45 28.0971 Q1378.05 26.1121 1383.04 26.1121 Q1391.3 26.1121 1396.44 32.6746 Q1401.63 39.2371 1401.63 49.9314 Q1401.63 60.6258 1396.44 67.1883 Q1391.3 73.7508 1383.04 73.7508 Q1378.05 73.7508 1374.45 71.8063 Q1370.88 69.8214 1368.53 65.7705 M1393.89 49.9314 Q1393.89 41.7081 1390.49 37.0496 Q1387.13 32.3505 1381.21 32.3505 Q1375.3 32.3505 1371.9 37.0496 Q1368.53 41.7081 1368.53 49.9314 Q1368.53 58.1548 1371.9 62.8538 Q1375.3 67.5124 1381.21 67.5124 Q1387.13 67.5124 1390.49 62.8538 Q1393.89 58.1548 1393.89 49.9314 Z" fill="#ffffff" fill-rule="evenodd" fill-opacity="1" /><path clip-path="url(#clip070)" d="M1452.79 48.0275 L1452.79 51.6733 L1418.52 51.6733 Q1419.01 59.3701 1423.14 63.421 Q1427.31 67.4314 1434.72 67.4314 Q1439.02 67.4314 1443.03 66.3781 Q1447.08 65.3249 1451.05 63.2184 L1451.05 70.267 Q1447.04 71.9684 1442.83 72.8596 Q1438.61 73.7508 1434.28 73.7508 Q1423.42 73.7508 1417.06 67.4314 Q1410.74 61.1119 1410.74 50.3365 Q1410.74 39.1965 1416.74 32.6746 Q1422.77 26.1121 1432.98 26.1121 Q1442.14 26.1121 1447.44 32.0264 Q1452.79 37.9003 1452.79 48.0275 M1445.34 45.84 Q1445.26 39.7232 1441.89 36.0774 Q1438.57 32.4315 1433.06 32.4315 Q1426.83 32.4315 1423.06 35.9558 Q1419.33 39.4801 1418.76 45.8805 L1445.34 45.84 Z" fill="#ffffff" fill-rule="evenodd" fill-opacity="1" /><path clip-path="url(#clip070)" d="M1491.32 34.1734 Q1490.06 33.4443 1488.56 33.1202 Q1487.1 32.7556 1485.32 32.7556 Q1479 32.7556 1475.6 36.8875 Q1472.24 40.9789 1472.24 48.6757 L1472.24 72.576 L1464.74 72.576 L1464.74 27.2059 L1472.24 27.2059 L1472.24 34.2544 Q1474.59 30.1225 1478.35 28.1376 Q1482.12 26.1121 1487.51 26.1121 Q1488.28 26.1121 1489.21 26.2337 Q1490.14 26.3147 1491.28 26.5172 L1491.32 34.1734 Z" fill="#ffffff" fill-rule="evenodd" fill-opacity="1" /><path clip-path="url(#clip070)" d="M1499.13 27.2059 L1506.59 27.2059 L1506.59 72.576 L1499.13 72.576 L1499.13 27.2059 M1499.13 9.54393 L1506.59 9.54393 L1506.59 18.9825 L1499.13 18.9825 L1499.13 9.54393 Z" fill="#ffffff" fill-rule="evenodd" fill-opacity="1" /><path clip-path="url(#clip070)" d="M1557.51 35.9153 Q1560.3 30.8922 1564.19 28.5022 Q1568.08 26.1121 1573.35 26.1121 Q1580.44 26.1121 1584.28 31.0947 Q1588.13 36.0368 1588.13 45.1919 L1588.13 72.576 L1580.64 72.576 L1580.64 45.4349 Q1580.64 38.913 1578.33 35.7533 Q1576.02 32.5936 1571.28 32.5936 Q1565.49 32.5936 1562.13 36.4419 Q1558.76 40.2903 1558.76 46.9338 L1558.76 72.576 L1551.27 72.576 L1551.27 45.4349 Q1551.27 38.8725 1548.96 35.7533 Q1546.65 32.5936 1541.83 32.5936 Q1536.12 32.5936 1532.76 36.4824 Q1529.39 40.3308 1529.39 46.9338 L1529.39 72.576 L1521.9 72.576 L1521.9 27.2059 L1529.39 27.2059 L1529.39 34.2544 Q1531.95 30.082 1535.51 28.0971 Q1539.08 26.1121 1543.98 26.1121 Q1548.92 26.1121 1552.36 28.6237 Q1555.85 31.1352 1557.51 35.9153 Z" fill="#ffffff" fill-rule="evenodd" fill-opacity="1" /><path clip-path="url(#clip070)" d="M1641.81 48.0275 L1641.81 51.6733 L1607.54 51.6733 Q1608.02 59.3701 1612.15 63.421 Q1616.33 67.4314 1623.74 67.4314 Q1628.03 67.4314 1632.04 66.3781 Q1636.1 65.3249 1640.06 63.2184 L1640.06 70.267 Q1636.05 71.9684 1631.84 72.8596 Q1627.63 73.7508 1623.29 73.7508 Q1612.44 73.7508 1606.08 67.4314 Q1599.76 61.1119 1599.76 50.3365 Q1599.76 39.1965 1605.75 32.6746 Q1611.79 26.1121 1622 26.1121 Q1631.15 26.1121 1636.46 32.0264 Q1641.81 37.9003 1641.81 48.0275 M1634.35 45.84 Q1634.27 39.7232 1630.91 36.0774 Q1627.59 32.4315 1622.08 32.4315 Q1615.84 32.4315 1612.07 35.9558 Q1608.35 39.4801 1607.78 45.8805 L1634.35 45.84 Z" fill="#ffffff" fill-rule="evenodd" fill-opacity="1" /><path clip-path="url(#clip070)" d="M1691.75 45.1919 L1691.75 72.576 L1684.3 72.576 L1684.3 45.4349 Q1684.3 38.994 1681.79 35.7938 Q1679.28 32.5936 1674.25 32.5936 Q1668.22 32.5936 1664.73 36.4419 Q1661.25 40.2903 1661.25 46.9338 L1661.25 72.576 L1653.76 72.576 L1653.76 27.2059 L1661.25 27.2059 L1661.25 34.2544 Q1663.92 30.163 1667.53 28.1376 Q1671.18 26.1121 1675.92 26.1121 Q1683.73 26.1121 1687.74 30.9732 Q1691.75 35.7938 1691.75 45.1919 Z" fill="#ffffff" fill-rule="evenodd" fill-opacity="1" /><path clip-path="url(#clip070)" d="M1713.99 14.324 L1713.99 27.2059 L1729.35 27.2059 L1729.35 32.9987 L1713.99 32.9987 L1713.99 57.6282 Q1713.99 63.1779 1715.49 64.7578 Q1717.03 66.3376 1721.69 66.3376 L1729.35 66.3376 L1729.35 72.576 L1721.69 72.576 Q1713.06 72.576 1709.78 69.3758 Q1706.5 66.1351 1706.5 57.6282 L1706.5 32.9987 L1701.03 32.9987 L1701.03 27.2059 L1706.5 27.2059 L1706.5 14.324 L1713.99 14.324 Z" fill="#ffffff" fill-rule="evenodd" fill-opacity="1" /><polyline clip-path="url(#clip072)" style="stroke:#009af9; stroke-linecap:round; stroke-linejoin:round; stroke-width:4; stroke-opacity:1; fill:none" points="237.067,1386.4 237.067,1386.4 257.815,1386.4 278.564,1386.4 299.312,1386.4 320.06,1386.4 340.808,1386.4 361.556,1386.4 382.304,1386.4 403.052,1386.4 423.801,1386.4 444.549,1386.4 465.297,1386.4 486.045,1386.4 506.793,1386.4 527.541,1386.4 548.289,1386.4 569.038,1386.4 589.786,1386.4 610.534,1386.4 631.282,1386.4 631.282,1383.93 652.03,1383.93 652.03,1386.4 672.778,1386.4 672.778,1383.93 693.526,1383.93 693.526,1376.53 714.275,1376.53 735.023,1376.53 735.023,1369.13 755.771,1369.13 755.771,1371.59 776.519,1371.59 776.519,1366.66 797.267,1366.66 797.267,1337.05 818.015,1337.05 818.015,1346.92 838.764,1346.92 838.764,1329.65 859.512,1329.65 859.512,1304.98 880.26,1304.98 880.26,1245.77 901.008,1245.77 901.008,1206.3 921.756,1206.3 921.756,1174.23 942.504,1174.23 942.504,1107.62 963.252,1107.62 963.252,1092.81 984.001,1092.81 984.001,905.315 1004.75,905.315 1004.75,934.92 1025.5,934.92 1025.5,858.44 1046.24,858.44 1046.24,779.494 1066.99,779.494 1066.99,680.81 1087.74,680.81 1087.74,503.181 1108.49,503.181 1108.49,480.977 1129.24,480.977 1129.24,374.892 1149.99,374.892 1149.99,387.228 1170.73,387.228 1170.73,308.281 1191.48,308.281 1191.48,268.808 1212.23,268.808 1212.23,254.005 1232.98,254.005 1232.98,288.545 1253.73,288.545 1253.73,160.256 1274.47,160.256 1295.22,160.256 1295.22,295.946 1315.97,295.946 1315.97,384.761 1336.72,384.761 1336.72,389.695 1357.47,389.695 1357.47,458.773 1378.22,458.773 1378.22,532.786 1398.96,532.786 1398.96,616.666 1419.71,616.666 1419.71,732.619 1440.46,732.619 1440.46,722.751 1461.21,722.751 1461.21,880.644 1481.96,880.644 1481.96,912.716 1502.7,912.716 1502.7,969.459 1523.45,969.459 1523.45,1080.48 1544.2,1080.48 1544.2,1129.82 1564.95,1129.82 1564.95,1169.29 1585.7,1169.29 1585.7,1201.36 1606.45,1201.36 1606.45,1253.17 1627.19,1253.17 1627.19,1287.71 1647.94,1287.71 1647.94,1304.98 1668.69,1304.98 1668.69,1341.99 1689.44,1341.99 1689.44,1329.65 1710.19,1329.65 1710.19,1361.72 1730.93,1361.72 1751.68,1361.72 1751.68,1376.53 1772.43,1376.53 1772.43,1383.93 1793.18,1383.93 1793.18,1381.46 1813.93,1381.46 1813.93,1386.4 1834.67,1386.4 1834.67,1376.53 1855.42,1376.53 1855.42,1383.93 1876.17,1383.93 1876.17,1386.4 1896.92,1386.4 1917.67,1386.4 1938.42,1386.4 1959.16,1386.4 1979.91,1386.4 2000.66,1386.4 2021.41,1386.4 2042.16,1386.4 2062.9,1386.4 2083.65,1386.4 2104.4,1386.4 2125.15,1386.4 2145.9,1386.4 2166.65,1386.4 2187.39,1386.4 2208.14,1386.4 2228.89,1386.4 2249.64,1386.4 2270.39,1386.4 2291.13,1386.4 "/>
<path clip-path="url(#clip070)" d="M2010.02 270.476 L2280.18 270.476 L2280.18 166.796 L2010.02 166.796  Z" fill="#000000" fill-rule="evenodd" fill-opacity="0"/>
<polyline clip-path="url(#clip070)" style="stroke:#ffffff; stroke-linecap:round; stroke-linejoin:round; stroke-width:4; stroke-opacity:1; fill:none" points="2010.02,270.476 2280.18,270.476 2280.18,166.796 2010.02,166.796 2010.02,270.476 "/>
<polyline clip-path="url(#clip070)" style="stroke:#009af9; stroke-linecap:round; stroke-linejoin:round; stroke-width:4; stroke-opacity:1; fill:none" points="2034.21,218.636 2179.36,218.636 "/>
<path clip-path="url(#clip070)" d="M2217.4 238.323 Q2215.59 242.953 2213.88 244.365 Q2212.17 245.777 2209.3 245.777 L2205.89 245.777 L2205.89 242.212 L2208.39 242.212 Q2210.15 242.212 2211.13 241.379 Q2212.1 240.545 2213.28 237.443 L2214.04 235.499 L2203.56 209.99 L2208.07 209.99 L2216.17 230.268 L2224.27 209.99 L2228.79 209.99 L2217.4 238.323 Z" fill="#ffffff" fill-rule="evenodd" fill-opacity="1" /><path clip-path="url(#clip070)" d="M2236.08 231.981 L2243.72 231.981 L2243.72 205.615 L2235.41 207.282 L2235.41 203.022 L2243.67 201.356 L2248.35 201.356 L2248.35 231.981 L2255.99 231.981 L2255.99 235.916 L2236.08 235.916 L2236.08 231.981 Z" fill="#ffffff" fill-rule="evenodd" fill-opacity="1" /></svg>
