<?xml version="1.0" encoding="utf-8"?>
<svg xmlns="http://www.w3.org/2000/svg" xmlns:xlink="http://www.w3.org/1999/xlink" width="600" height="400" viewBox="0 0 2400 1600">
<defs>
  <clipPath id="clip540">
    <rect x="0" y="0" width="2400" height="1600"/>
  </clipPath>
</defs>
<path clip-path="url(#clip540)" d="M0 1600 L2400 1600 L2400 0 L0 0  Z" fill="#000000" fill-rule="evenodd" fill-opacity="0"/>
<defs>
  <clipPath id="clip541">
    <rect x="480" y="0" width="1681" height="1600"/>
  </clipPath>
</defs>
<path clip-path="url(#clip540)" d="M156.112 686.448 L2352.76 686.448 L2352.76 123.472 L156.112 123.472  Z" fill="#000000" fill-rule="evenodd" fill-opacity="0"/>
<defs>
  <clipPath id="clip542">
    <rect x="156" y="123" width="2198" height="564"/>
  </clipPath>
</defs>
<polyline clip-path="url(#clip542)" style="stroke:#ffffff; stroke-linecap:round; stroke-linejoin:round; stroke-width:2; stroke-opacity:0.1; fill:none" points="197.349,686.448 197.349,123.472 "/>
<polyline clip-path="url(#clip542)" style="stroke:#ffffff; stroke-linecap:round; stroke-linejoin:round; stroke-width:2; stroke-opacity:0.1; fill:none" points="720.658,686.448 720.658,123.472 "/>
<polyline clip-path="url(#clip542)" style="stroke:#ffffff; stroke-linecap:round; stroke-linejoin:round; stroke-width:2; stroke-opacity:0.1; fill:none" points="1243.97,686.448 1243.97,123.472 "/>
<polyline clip-path="url(#clip542)" style="stroke:#ffffff; stroke-linecap:round; stroke-linejoin:round; stroke-width:2; stroke-opacity:0.1; fill:none" points="1767.28,686.448 1767.28,123.472 "/>
<polyline clip-path="url(#clip542)" style="stroke:#ffffff; stroke-linecap:round; stroke-linejoin:round; stroke-width:2; stroke-opacity:0.1; fill:none" points="2290.59,686.448 2290.59,123.472 "/>
<polyline clip-path="url(#clip540)" style="stroke:#ffffff; stroke-linecap:round; stroke-linejoin:round; stroke-width:4; stroke-opacity:1; fill:none" points="156.112,686.448 2352.76,686.448 "/>
<polyline clip-path="url(#clip540)" style="stroke:#ffffff; stroke-linecap:round; stroke-linejoin:round; stroke-width:4; stroke-opacity:1; fill:none" points="197.349,686.448 197.349,667.55 "/>
<polyline clip-path="url(#clip540)" style="stroke:#ffffff; stroke-linecap:round; stroke-linejoin:round; stroke-width:4; stroke-opacity:1; fill:none" points="720.658,686.448 720.658,667.55 "/>
<polyline clip-path="url(#clip540)" style="stroke:#ffffff; stroke-linecap:round; stroke-linejoin:round; stroke-width:4; stroke-opacity:1; fill:none" points="1243.97,686.448 1243.97,667.55 "/>
<polyline clip-path="url(#clip540)" style="stroke:#ffffff; stroke-linecap:round; stroke-linejoin:round; stroke-width:4; stroke-opacity:1; fill:none" points="1767.28,686.448 1767.28,667.55 "/>
<polyline clip-path="url(#clip540)" style="stroke:#ffffff; stroke-linecap:round; stroke-linejoin:round; stroke-width:4; stroke-opacity:1; fill:none" points="2290.59,686.448 2290.59,667.55 "/>
<path clip-path="url(#clip540)" d="M197.349 717.367 Q193.738 717.367 191.909 720.931 Q190.104 724.473 190.104 731.603 Q190.104 738.709 191.909 742.274 Q193.738 745.815 197.349 745.815 Q200.983 745.815 202.789 742.274 Q204.617 738.709 204.617 731.603 Q204.617 724.473 202.789 720.931 Q200.983 717.367 197.349 717.367 M197.349 713.663 Q203.159 713.663 206.215 718.269 Q209.293 722.853 209.293 731.603 Q209.293 740.329 206.215 744.936 Q203.159 749.519 197.349 749.519 Q191.539 749.519 188.46 744.936 Q185.405 740.329 185.405 731.603 Q185.405 722.853 188.46 718.269 Q191.539 713.663 197.349 713.663 Z" fill="#ffffff" fill-rule="evenodd" fill-opacity="1" /><path clip-path="url(#clip540)" d="M699.929 744.913 L716.249 744.913 L716.249 748.848 L694.304 748.848 L694.304 744.913 Q696.966 742.158 701.55 737.528 Q706.156 732.876 707.337 731.533 Q709.582 729.01 710.462 727.274 Q711.364 725.515 711.364 723.825 Q711.364 721.07 709.42 719.334 Q707.499 717.598 704.397 717.598 Q702.198 717.598 699.744 718.362 Q697.314 719.126 694.536 720.677 L694.536 715.955 Q697.36 714.82 699.814 714.242 Q702.267 713.663 704.304 713.663 Q709.675 713.663 712.869 716.348 Q716.063 719.033 716.063 723.524 Q716.063 725.654 715.253 727.575 Q714.466 729.473 712.36 732.066 Q711.781 732.737 708.679 735.954 Q705.577 739.149 699.929 744.913 Z" fill="#ffffff" fill-rule="evenodd" fill-opacity="1" /><path clip-path="url(#clip540)" d="M726.11 714.288 L744.466 714.288 L744.466 718.223 L730.392 718.223 L730.392 726.695 Q731.411 726.348 732.429 726.186 Q733.448 726.001 734.466 726.001 Q740.253 726.001 743.633 729.172 Q747.012 732.343 747.012 737.76 Q747.012 743.339 743.54 746.44 Q740.068 749.519 733.749 749.519 Q731.573 749.519 729.304 749.149 Q727.059 748.778 724.651 748.038 L724.651 743.339 Q726.735 744.473 728.957 745.028 Q731.179 745.584 733.656 745.584 Q737.661 745.584 739.999 743.478 Q742.336 741.371 742.336 737.76 Q742.336 734.149 739.999 732.042 Q737.661 729.936 733.656 729.936 Q731.781 729.936 729.906 730.353 Q728.054 730.769 726.11 731.649 L726.11 714.288 Z" fill="#ffffff" fill-rule="evenodd" fill-opacity="1" /><path clip-path="url(#clip540)" d="M1218.67 714.288 L1237.02 714.288 L1237.02 718.223 L1222.95 718.223 L1222.95 726.695 Q1223.97 726.348 1224.99 726.186 Q1226 726.001 1227.02 726.001 Q1232.81 726.001 1236.19 729.172 Q1239.57 732.343 1239.57 737.76 Q1239.57 743.339 1236.1 746.44 Q1232.63 749.519 1226.31 749.519 Q1224.13 749.519 1221.86 749.149 Q1219.62 748.778 1217.21 748.038 L1217.21 743.339 Q1219.29 744.473 1221.51 745.028 Q1223.74 745.584 1226.21 745.584 Q1230.22 745.584 1232.56 743.478 Q1234.89 741.371 1234.89 737.76 Q1234.89 734.149 1232.56 732.042 Q1230.22 729.936 1226.21 729.936 Q1224.34 729.936 1222.46 730.353 Q1220.61 730.769 1218.67 731.649 L1218.67 714.288 Z" fill="#ffffff" fill-rule="evenodd" fill-opacity="1" /><path clip-path="url(#clip540)" d="M1258.78 717.367 Q1255.17 717.367 1253.34 720.931 Q1251.54 724.473 1251.54 731.603 Q1251.54 738.709 1253.34 742.274 Q1255.17 745.815 1258.78 745.815 Q1262.42 745.815 1264.22 742.274 Q1266.05 738.709 1266.05 731.603 Q1266.05 724.473 1264.22 720.931 Q1262.42 717.367 1258.78 717.367 M1258.78 713.663 Q1264.59 713.663 1267.65 718.269 Q1270.73 722.853 1270.73 731.603 Q1270.73 740.329 1267.65 744.936 Q1264.59 749.519 1258.78 749.519 Q1252.97 749.519 1249.89 744.936 Q1246.84 740.329 1246.84 731.603 Q1246.84 722.853 1249.89 718.269 Q1252.97 713.663 1258.78 713.663 Z" fill="#ffffff" fill-rule="evenodd" fill-opacity="1" /><path clip-path="url(#clip540)" d="M1741.13 714.288 L1763.35 714.288 L1763.35 716.279 L1750.81 748.848 L1745.92 748.848 L1757.73 718.223 L1741.13 718.223 L1741.13 714.288 Z" fill="#ffffff" fill-rule="evenodd" fill-opacity="1" /><path clip-path="url(#clip540)" d="M1772.52 714.288 L1790.88 714.288 L1790.88 718.223 L1776.8 718.223 L1776.8 726.695 Q1777.82 726.348 1778.84 726.186 Q1779.86 726.001 1780.88 726.001 Q1786.66 726.001 1790.04 729.172 Q1793.42 732.343 1793.42 737.76 Q1793.42 743.339 1789.95 746.44 Q1786.48 749.519 1780.16 749.519 Q1777.98 749.519 1775.71 749.149 Q1773.47 748.778 1771.06 748.038 L1771.06 743.339 Q1773.15 744.473 1775.37 745.028 Q1777.59 745.584 1780.07 745.584 Q1784.07 745.584 1786.41 743.478 Q1788.75 741.371 1788.75 737.76 Q1788.75 734.149 1786.41 732.042 Q1784.07 729.936 1780.07 729.936 Q1778.19 729.936 1776.32 730.353 Q1774.46 730.769 1772.52 731.649 L1772.52 714.288 Z" fill="#ffffff" fill-rule="evenodd" fill-opacity="1" /><path clip-path="url(#clip540)" d="M2250.19 744.913 L2257.83 744.913 L2257.83 718.547 L2249.52 720.214 L2249.52 715.955 L2257.79 714.288 L2262.46 714.288 L2262.46 744.913 L2270.1 744.913 L2270.1 748.848 L2250.19 748.848 L2250.19 744.913 Z" fill="#ffffff" fill-rule="evenodd" fill-opacity="1" /><path clip-path="url(#clip540)" d="M2289.55 717.367 Q2285.93 717.367 2284.11 720.931 Q2282.3 724.473 2282.3 731.603 Q2282.3 738.709 2284.11 742.274 Q2285.93 745.815 2289.55 745.815 Q2293.18 745.815 2294.98 742.274 Q2296.81 738.709 2296.81 731.603 Q2296.81 724.473 2294.98 720.931 Q2293.18 717.367 2289.55 717.367 M2289.55 713.663 Q2295.36 713.663 2298.41 718.269 Q2301.49 722.853 2301.49 731.603 Q2301.49 740.329 2298.41 744.936 Q2295.36 749.519 2289.55 749.519 Q2283.73 749.519 2280.66 744.936 Q2277.6 740.329 2277.6 731.603 Q2277.6 722.853 2280.66 718.269 Q2283.73 713.663 2289.55 713.663 Z" fill="#ffffff" fill-rule="evenodd" fill-opacity="1" /><path clip-path="url(#clip540)" d="M2319.71 717.367 Q2316.1 717.367 2314.27 720.931 Q2312.46 724.473 2312.46 731.603 Q2312.46 738.709 2314.27 742.274 Q2316.1 745.815 2319.71 745.815 Q2323.34 745.815 2325.15 742.274 Q2326.98 738.709 2326.98 731.603 Q2326.98 724.473 2325.15 720.931 Q2323.34 717.367 2319.71 717.367 M2319.71 713.663 Q2325.52 713.663 2328.57 718.269 Q2331.65 722.853 2331.65 731.603 Q2331.65 740.329 2328.57 744.936 Q2325.52 749.519 2319.71 749.519 Q2313.9 749.519 2310.82 744.936 Q2307.76 740.329 2307.76 731.603 Q2307.76 722.853 2310.82 718.269 Q2313.9 713.663 2319.71 713.663 Z" fill="#ffffff" fill-rule="evenodd" fill-opacity="1" /><polyline clip-path="url(#clip542)" style="stroke:#ffffff; stroke-linecap:round; stroke-linejoin:round; stroke-width:2; stroke-opacity:0.1; fill:none" points="156.112,676.301 2352.76,676.301 "/>
<polyline clip-path="url(#clip542)" style="stroke:#ffffff; stroke-linecap:round; stroke-linejoin:round; stroke-width:2; stroke-opacity:0.1; fill:none" points="156.112,542.077 2352.76,542.077 "/>
<polyline clip-path="url(#clip542)" style="stroke:#ffffff; stroke-linecap:round; stroke-linejoin:round; stroke-width:2; stroke-opacity:0.1; fill:none" points="156.112,407.853 2352.76,407.853 "/>
<polyline clip-path="url(#clip542)" style="stroke:#ffffff; stroke-linecap:round; stroke-linejoin:round; stroke-width:2; stroke-opacity:0.1; fill:none" points="156.112,273.629 2352.76,273.629 "/>
<polyline clip-path="url(#clip542)" style="stroke:#ffffff; stroke-linecap:round; stroke-linejoin:round; stroke-width:2; stroke-opacity:0.1; fill:none" points="156.112,139.405 2352.76,139.405 "/>
<polyline clip-path="url(#clip540)" style="stroke:#ffffff; stroke-linecap:round; stroke-linejoin:round; stroke-width:4; stroke-opacity:1; fill:none" points="156.112,686.448 156.112,123.472 "/>
<polyline clip-path="url(#clip540)" style="stroke:#ffffff; stroke-linecap:round; stroke-linejoin:round; stroke-width:4; stroke-opacity:1; fill:none" points="156.112,676.301 175.01,676.301 "/>
<polyline clip-path="url(#clip540)" style="stroke:#ffffff; stroke-linecap:round; stroke-linejoin:round; stroke-width:4; stroke-opacity:1; fill:none" points="156.112,542.077 175.01,542.077 "/>
<polyline clip-path="url(#clip540)" style="stroke:#ffffff; stroke-linecap:round; stroke-linejoin:round; stroke-width:4; stroke-opacity:1; fill:none" points="156.112,407.853 175.01,407.853 "/>
<polyline clip-path="url(#clip540)" style="stroke:#ffffff; stroke-linecap:round; stroke-linejoin:round; stroke-width:4; stroke-opacity:1; fill:none" points="156.112,273.629 175.01,273.629 "/>
<polyline clip-path="url(#clip540)" style="stroke:#ffffff; stroke-linecap:round; stroke-linejoin:round; stroke-width:4; stroke-opacity:1; fill:none" points="156.112,139.405 175.01,139.405 "/>
<path clip-path="url(#clip540)" d="M62.9365 662.1 Q59.3254 662.1 57.4967 665.665 Q55.6912 669.207 55.6912 676.336 Q55.6912 683.443 57.4967 687.007 Q59.3254 690.549 62.9365 690.549 Q66.5707 690.549 68.3763 687.007 Q70.205 683.443 70.205 676.336 Q70.205 669.207 68.3763 665.665 Q66.5707 662.1 62.9365 662.1 M62.9365 658.396 Q68.7467 658.396 71.8022 663.003 Q74.8809 667.586 74.8809 676.336 Q74.8809 685.063 71.8022 689.669 Q68.7467 694.253 62.9365 694.253 Q57.1264 694.253 54.0477 689.669 Q50.9921 685.063 50.9921 676.336 Q50.9921 667.586 54.0477 663.003 Q57.1264 658.396 62.9365 658.396 Z" fill="#ffffff" fill-rule="evenodd" fill-opacity="1" /><path clip-path="url(#clip540)" d="M83.0984 687.702 L87.9827 687.702 L87.9827 693.581 L83.0984 693.581 L83.0984 687.702 Z" fill="#ffffff" fill-rule="evenodd" fill-opacity="1" /><path clip-path="url(#clip540)" d="M108.168 662.1 Q104.557 662.1 102.728 665.665 Q100.922 669.207 100.922 676.336 Q100.922 683.443 102.728 687.007 Q104.557 690.549 108.168 690.549 Q111.802 690.549 113.608 687.007 Q115.436 683.443 115.436 676.336 Q115.436 669.207 113.608 665.665 Q111.802 662.1 108.168 662.1 M108.168 658.396 Q113.978 658.396 117.033 663.003 Q120.112 667.586 120.112 676.336 Q120.112 685.063 117.033 689.669 Q113.978 694.253 108.168 694.253 Q102.358 694.253 99.2789 689.669 Q96.2234 685.063 96.2234 676.336 Q96.2234 667.586 99.2789 663.003 Q102.358 658.396 108.168 658.396 Z" fill="#ffffff" fill-rule="evenodd" fill-opacity="1" /><path clip-path="url(#clip540)" d="M63.9319 527.876 Q60.3208 527.876 58.4921 531.441 Q56.6865 534.983 56.6865 542.112 Q56.6865 549.219 58.4921 552.783 Q60.3208 556.325 63.9319 556.325 Q67.5661 556.325 69.3717 552.783 Q71.2004 549.219 71.2004 542.112 Q71.2004 534.983 69.3717 531.441 Q67.5661 527.876 63.9319 527.876 M63.9319 524.172 Q69.742 524.172 72.7976 528.779 Q75.8763 533.362 75.8763 542.112 Q75.8763 550.839 72.7976 555.445 Q69.742 560.029 63.9319 560.029 Q58.1217 560.029 55.043 555.445 Q51.9875 550.839 51.9875 542.112 Q51.9875 533.362 55.043 528.779 Q58.1217 524.172 63.9319 524.172 Z" fill="#ffffff" fill-rule="evenodd" fill-opacity="1" /><path clip-path="url(#clip540)" d="M84.0938 553.478 L88.978 553.478 L88.978 559.357 L84.0938 559.357 L84.0938 553.478 Z" fill="#ffffff" fill-rule="evenodd" fill-opacity="1" /><path clip-path="url(#clip540)" d="M99.2095 524.797 L117.566 524.797 L117.566 528.733 L103.492 528.733 L103.492 537.205 Q104.51 536.858 105.529 536.696 Q106.547 536.51 107.566 536.51 Q113.353 536.51 116.733 539.682 Q120.112 542.853 120.112 548.27 Q120.112 553.848 116.64 556.95 Q113.168 560.029 106.848 560.029 Q104.672 560.029 102.404 559.658 Q100.159 559.288 97.7511 558.547 L97.7511 553.848 Q99.8345 554.982 102.057 555.538 Q104.279 556.094 106.756 556.094 Q110.76 556.094 113.098 553.987 Q115.436 551.881 115.436 548.27 Q115.436 544.658 113.098 542.552 Q110.76 540.446 106.756 540.446 Q104.881 540.446 103.006 540.862 Q101.154 541.279 99.2095 542.158 L99.2095 524.797 Z" fill="#ffffff" fill-rule="evenodd" fill-opacity="1" /><path clip-path="url(#clip540)" d="M53.7467 421.198 L61.3856 421.198 L61.3856 394.833 L53.0754 396.499 L53.0754 392.24 L61.3393 390.573 L66.0152 390.573 L66.0152 421.198 L73.654 421.198 L73.654 425.133 L53.7467 425.133 L53.7467 421.198 Z" fill="#ffffff" fill-rule="evenodd" fill-opacity="1" /><path clip-path="url(#clip540)" d="M83.0984 419.254 L87.9827 419.254 L87.9827 425.133 L83.0984 425.133 L83.0984 419.254 Z" fill="#ffffff" fill-rule="evenodd" fill-opacity="1" /><path clip-path="url(#clip540)" d="M108.168 393.652 Q104.557 393.652 102.728 397.217 Q100.922 400.759 100.922 407.888 Q100.922 414.995 102.728 418.559 Q104.557 422.101 108.168 422.101 Q111.802 422.101 113.608 418.559 Q115.436 414.995 115.436 407.888 Q115.436 400.759 113.608 397.217 Q111.802 393.652 108.168 393.652 M108.168 389.948 Q113.978 389.948 117.033 394.555 Q120.112 399.138 120.112 407.888 Q120.112 416.615 117.033 421.221 Q113.978 425.805 108.168 425.805 Q102.358 425.805 99.2789 421.221 Q96.2234 416.615 96.2234 407.888 Q96.2234 399.138 99.2789 394.555 Q102.358 389.948 108.168 389.948 Z" fill="#ffffff" fill-rule="evenodd" fill-opacity="1" /><path clip-path="url(#clip540)" d="M54.7421 286.974 L62.381 286.974 L62.381 260.609 L54.0708 262.275 L54.0708 258.016 L62.3347 256.349 L67.0106 256.349 L67.0106 286.974 L74.6494 286.974 L74.6494 290.909 L54.7421 290.909 L54.7421 286.974 Z" fill="#ffffff" fill-rule="evenodd" fill-opacity="1" /><path clip-path="url(#clip540)" d="M84.0938 285.03 L88.978 285.03 L88.978 290.909 L84.0938 290.909 L84.0938 285.03 Z" fill="#ffffff" fill-rule="evenodd" fill-opacity="1" /><path clip-path="url(#clip540)" d="M99.2095 256.349 L117.566 256.349 L117.566 260.285 L103.492 260.285 L103.492 268.757 Q104.51 268.41 105.529 268.248 Q106.547 268.062 107.566 268.062 Q113.353 268.062 116.733 271.234 Q120.112 274.405 120.112 279.822 Q120.112 285.4 116.64 288.502 Q113.168 291.581 106.848 291.581 Q104.672 291.581 102.404 291.21 Q100.159 290.84 97.7511 290.099 L97.7511 285.4 Q99.8345 286.534 102.057 287.09 Q104.279 287.646 106.756 287.646 Q110.76 287.646 113.098 285.539 Q115.436 283.433 115.436 279.822 Q115.436 276.21 113.098 274.104 Q110.76 271.997 106.756 271.997 Q104.881 271.997 103.006 272.414 Q101.154 272.831 99.2095 273.71 L99.2095 256.349 Z" fill="#ffffff" fill-rule="evenodd" fill-opacity="1" /><path clip-path="url(#clip540)" d="M56.9643 152.75 L73.2837 152.75 L73.2837 156.685 L51.3393 156.685 L51.3393 152.75 Q54.0014 149.996 58.5847 145.366 Q63.1911 140.713 64.3717 139.371 Q66.617 136.848 67.4967 135.111 Q68.3994 133.352 68.3994 131.662 Q68.3994 128.908 66.455 127.172 Q64.5337 125.436 61.4319 125.436 Q59.2328 125.436 56.7791 126.199 Q54.3486 126.963 51.5708 128.514 L51.5708 123.792 Q54.3949 122.658 56.8486 122.079 Q59.3023 121.5 61.3393 121.5 Q66.7096 121.5 69.9041 124.186 Q73.0985 126.871 73.0985 131.361 Q73.0985 133.491 72.2883 135.412 Q71.5013 137.311 69.3948 139.903 Q68.8161 140.574 65.7143 143.792 Q62.6124 146.986 56.9643 152.75 Z" fill="#ffffff" fill-rule="evenodd" fill-opacity="1" /><path clip-path="url(#clip540)" d="M83.0984 150.806 L87.9827 150.806 L87.9827 156.685 L83.0984 156.685 L83.0984 150.806 Z" fill="#ffffff" fill-rule="evenodd" fill-opacity="1" /><path clip-path="url(#clip540)" d="M108.168 125.204 Q104.557 125.204 102.728 128.769 Q100.922 132.311 100.922 139.44 Q100.922 146.547 102.728 150.111 Q104.557 153.653 108.168 153.653 Q111.802 153.653 113.608 150.111 Q115.436 146.547 115.436 139.44 Q115.436 132.311 113.608 128.769 Q111.802 125.204 108.168 125.204 M108.168 121.5 Q113.978 121.5 117.033 126.107 Q120.112 130.69 120.112 139.44 Q120.112 148.167 117.033 152.773 Q113.978 157.357 108.168 157.357 Q102.358 157.357 99.2789 152.773 Q96.2234 148.167 96.2234 139.44 Q96.2234 130.69 99.2789 126.107 Q102.358 121.5 108.168 121.5 Z" fill="#ffffff" fill-rule="evenodd" fill-opacity="1" /><path clip-path="url(#clip540)" d="M1125.9 12.096 L1138.09 12.096 L1153.53 53.2532 L1169.04 12.096 L1181.23 12.096 L1181.23 72.576 L1173.25 72.576 L1173.25 19.4686 L1157.66 60.9499 L1149.43 60.9499 L1133.84 19.4686 L1133.84 72.576 L1125.9 72.576 L1125.9 12.096 Z" fill="#ffffff" fill-rule="evenodd" fill-opacity="1" /><path clip-path="url(#clip540)" d="M1235.96 48.0275 L1235.96 51.6733 L1201.69 51.6733 Q1202.18 59.3701 1206.31 63.421 Q1210.48 67.4314 1217.89 67.4314 Q1222.19 67.4314 1226.2 66.3781 Q1230.25 65.3249 1234.22 63.2184 L1234.22 70.267 Q1230.21 71.9684 1226 72.8596 Q1221.78 73.7508 1217.45 73.7508 Q1206.59 73.7508 1200.23 67.4314 Q1193.91 61.1119 1193.91 50.3365 Q1193.91 39.1965 1199.91 32.6746 Q1205.94 26.1121 1216.15 26.1121 Q1225.31 26.1121 1230.61 32.0264 Q1235.96 37.9003 1235.96 48.0275 M1228.51 45.84 Q1228.43 39.7232 1225.06 36.0774 Q1221.74 32.4315 1216.23 32.4315 Q1210 32.4315 1206.23 35.9558 Q1202.5 39.4801 1201.93 45.8805 L1228.51 45.84 Z" fill="#ffffff" fill-rule="evenodd" fill-opacity="1" /><path clip-path="url(#clip540)" d="M1268.81 49.7694 Q1259.78 49.7694 1256.3 51.8354 Q1252.81 53.9013 1252.81 58.8839 Q1252.81 62.8538 1255.41 65.2034 Q1258.04 67.5124 1262.54 67.5124 Q1268.73 67.5124 1272.46 63.1374 Q1276.23 58.7219 1276.23 51.4303 L1276.23 49.7694 L1268.81 49.7694 M1283.68 46.6907 L1283.68 72.576 L1276.23 72.576 L1276.23 65.6895 Q1273.68 69.8214 1269.87 71.8063 Q1266.06 73.7508 1260.55 73.7508 Q1253.58 73.7508 1249.45 69.8619 Q1245.36 65.9325 1245.36 59.3701 Q1245.36 51.7138 1250.46 47.825 Q1255.61 43.9361 1265.78 43.9361 L1276.23 43.9361 L1276.23 43.2069 Q1276.23 38.0623 1272.83 35.2672 Q1269.46 32.4315 1263.35 32.4315 Q1259.46 32.4315 1255.77 33.3632 Q1252.08 34.295 1248.68 36.1584 L1248.68 29.2718 Q1252.77 27.692 1256.62 26.9223 Q1260.47 26.1121 1264.12 26.1121 Q1273.96 26.1121 1278.82 31.2163 Q1283.68 36.3204 1283.68 46.6907 Z" fill="#ffffff" fill-rule="evenodd" fill-opacity="1" /><path clip-path="url(#clip540)" d="M1336.75 45.1919 L1336.75 72.576 L1329.29 72.576 L1329.29 45.4349 Q1329.29 38.994 1326.78 35.7938 Q1324.27 32.5936 1319.25 32.5936 Q1313.21 32.5936 1309.73 36.4419 Q1306.25 40.2903 1306.25 46.9338 L1306.25 72.576 L1298.75 72.576 L1298.75 27.2059 L1306.25 27.2059 L1306.25 34.2544 Q1308.92 30.163 1312.52 28.1376 Q1316.17 26.1121 1320.91 26.1121 Q1328.73 26.1121 1332.74 30.9732 Q1336.75 35.7938 1336.75 45.1919 Z" fill="#ffffff" fill-rule="evenodd" fill-opacity="1" /><path clip-path="url(#clip540)" d="M1380.54 28.5427 L1380.54 35.5912 Q1377.38 33.9709 1373.98 33.1607 Q1370.57 32.3505 1366.93 32.3505 Q1361.38 32.3505 1358.58 34.0519 Q1355.83 35.7533 1355.83 39.156 Q1355.83 41.7486 1357.81 43.2475 Q1359.8 44.7058 1365.79 46.0426 L1368.35 46.6097 Q1376.29 48.3111 1379.61 51.4303 Q1382.97 54.509 1382.97 60.0587 Q1382.97 66.3781 1377.95 70.0644 Q1372.96 73.7508 1364.21 73.7508 Q1360.57 73.7508 1356.6 73.0216 Q1352.67 72.3329 1348.29 70.9151 L1348.29 63.2184 Q1352.43 65.3654 1356.44 66.4591 Q1360.45 67.5124 1364.38 67.5124 Q1369.64 67.5124 1372.48 65.73 Q1375.31 63.9071 1375.31 60.6258 Q1375.31 57.5877 1373.25 55.9673 Q1371.22 54.3469 1364.29 52.8481 L1361.7 52.2405 Q1354.77 50.7821 1351.7 47.7845 Q1348.62 44.7463 1348.62 39.4801 Q1348.62 33.0797 1353.15 29.5959 Q1357.69 26.1121 1366.04 26.1121 Q1370.17 26.1121 1373.81 26.7198 Q1377.46 27.3274 1380.54 28.5427 Z" fill="#ffffff" fill-rule="evenodd" fill-opacity="1" /><polyline clip-path="url(#clip542)" style="stroke:#009af9; stroke-linecap:round; stroke-linejoin:round; stroke-width:4; stroke-opacity:1; fill:none" points="218.281,670.515 239.214,664.679 260.146,659.205 281.078,661.25 302.011,652.701 322.943,647.86 343.876,642.598 364.808,634.009 385.74,619.342 406.673,624.457 427.605,628.438 448.537,612.366 469.47,583.579 490.402,575.287 511.335,586.969 532.267,617.573 553.199,589.079 574.132,572.136 595.064,581.359 615.996,564.819 636.929,568.773 657.861,555.823 678.794,572.726 699.726,532.111 720.658,561.564 741.591,494.522 762.523,576.592 783.456,530.677 804.388,537.631 825.32,536.743 846.253,494.309 867.185,481.842 888.117,490.096 909.05,465.877 929.982,440.247 950.915,496.383 971.847,487.293 992.779,458.962 1013.71,432.335 1034.64,407.327 1055.58,493.488 1076.51,493.797 1097.44,495.05 1118.37,421.748 1139.31,491.457 1160.24,443.55 1181.17,462.599 1202.1,493.984 1223.04,419.934 1243.97,469.663 1264.9,403.239 1285.83,492.533 1306.76,442.949 1327.7,384.588 1348.63,389.722 1369.56,339.538 1390.49,367.844 1411.43,385.017 1432.36,262.359 1453.29,377.687 1474.22,347.472 1495.16,276.417 1516.09,352.862 1537.02,273.068 1557.95,291.71 1578.89,278.507 1599.82,358.402 1620.75,262.048 1641.68,308.306 1662.62,323.129 1683.55,304.092 1704.48,235.566 1725.41,302.24 1746.34,252.705 1767.28,248.124 1788.21,212.409 1809.14,256.472 1830.07,252.077 1851.01,273.506 1871.94,213.243 1892.87,245.881 1913.8,209.327 1934.74,259.167 1955.67,230.846 1976.6,196.698 1997.53,221.081 2018.47,192.305 2039.4,235.502 2060.33,189.012 2081.26,193.405 2102.2,179.848 2123.13,176.157 2144.06,188.073 2164.99,168.652 2185.92,170.064 2206.86,161.002 2227.79,154.581 2248.72,149.309 2269.65,142.494 2290.59,139.405 "/>
<polyline clip-path="url(#clip542)" style="stroke:#e26f46; stroke-linecap:round; stroke-linejoin:round; stroke-width:4; stroke-opacity:1; fill:none" points="218.281,514.341 239.214,540.919 260.146,478.487 281.078,560.074 302.011,539.332 322.943,550.891 343.876,502.617 364.808,480.802 385.74,554.274 406.673,520.331 427.605,542.647 448.537,564.254 469.47,529.616 490.402,571.515 511.335,552.691 532.267,498.033 553.199,554.13 574.132,526.846 595.064,553.985 615.996,543.005 636.929,558.187 657.861,555.288 678.794,563.185 699.726,556.033 720.658,534.312 741.591,526.761 762.523,586.276 783.456,514.215 804.388,540.852 825.32,589.635 846.253,537.53 867.185,569.356 888.117,526.639 909.05,548.592 929.982,561.865 950.915,584.236 971.847,456.125 992.779,498.025 1013.71,474.473 1034.64,527.335 1055.58,524.42 1076.51,527.684 1097.44,496.613 1118.37,536.447 1139.31,466.587 1160.24,537.152 1181.17,524.792 1202.1,558.674 1223.04,495.754 1243.97,564.187 1264.9,558.096 1285.83,564.085 1306.76,523.865 1327.7,522.092 1348.63,540.084 1369.56,553.835 1390.49,520.39 1411.43,499.834 1432.36,566.982 1453.29,541.073 1474.22,545.521 1495.16,537.572 1516.09,570.849 1537.02,572.595 1557.95,597.291 1578.89,497.635 1599.82,523.201 1620.75,500.959 1641.68,538.905 1662.62,549.231 1683.55,526.874 1704.48,531.67 1725.41,521.819 1746.34,522.491 1767.28,544.204 1788.21,507.133 1809.14,530.754 1830.07,549.679 1851.01,510.003 1871.94,549.841 1892.87,510.447 1913.8,570.123 1934.74,552.324 1955.67,542.904 1976.6,555.395 1997.53,548.27 2018.47,580.135 2039.4,499.947 2060.33,522.282 2081.26,531.898 2102.2,538.189 2123.13,565.028 2144.06,588.087 2164.99,555.447 2185.92,509.608 2206.86,536.933 2227.79,510.502 2248.72,535.461 2269.65,545.278 2290.59,531.04 "/>
<polyline clip-path="url(#clip542)" style="stroke:#3da44d; stroke-linecap:round; stroke-linejoin:round; stroke-width:4; stroke-opacity:1; fill:none" points="218.281,583.05 239.214,578.346 260.146,583.204 281.078,579.072 302.011,587.355 322.943,579.587 343.876,583.533 364.808,584.425 385.74,571.688 406.673,585.363 427.605,585.236 448.537,587.254 469.47,583.016 490.402,591.371 511.335,586.288 532.267,578.887 553.199,581.45 574.132,575.411 595.064,575.683 615.996,585.08 636.929,577.296 657.861,577.547 678.794,576.908 699.726,589.926 720.658,577.52 741.591,586.146 762.523,578.633 783.456,590.254 804.388,578.425 825.32,582.881 846.253,579.906 867.185,580.27 888.117,571.919 909.05,587.497 929.982,580.99 950.915,579.759 971.847,577.175 992.779,582.093 1013.71,573.297 1034.64,584.837 1055.58,583.63 1076.51,581.973 1097.44,582.463 1118.37,577.995 1139.31,582.538 1160.24,581.395 1181.17,590.786 1202.1,580.344 1223.04,578.227 1243.97,583.47 1264.9,584.026 1285.83,590.474 1306.76,581.927 1327.7,585.188 1348.63,579.347 1369.56,590.18 1390.49,586.042 1411.43,585.699 1432.36,576.685 1453.29,580.038 1474.22,585.455 1495.16,576.759 1516.09,577.359 1537.02,576.251 1557.95,578.573 1578.89,581.471 1599.82,576.184 1620.75,583.77 1641.68,589.08 1662.62,582.618 1683.55,588.129 1704.48,583.581 1725.41,578.864 1746.34,571.403 1767.28,580.428 1788.21,578.288 1809.14,586.299 1830.07,580.595 1851.01,573.395 1871.94,593.032 1892.87,581.504 1913.8,586.553 1934.74,583.148 1955.67,587.106 1976.6,582.289 1997.53,590.08 2018.47,582.685 2039.4,579.89 2060.33,587.577 2081.26,577.523 2102.2,577.237 2123.13,590.222 2144.06,582.468 2164.99,581.56 2185.92,587.377 2206.86,590.14 2227.79,579.888 2248.72,574.446 2269.65,584.262 2290.59,579.562 "/>
<path clip-path="url(#clip540)" d="M229.334 349.598 L520.641 349.598 L520.641 142.238 L229.334 142.238  Z" fill="#000000" fill-rule="evenodd" fill-opacity="0"/>
<polyline clip-path="url(#clip540)" style="stroke:#ffffff; stroke-linecap:round; stroke-linejoin:round; stroke-width:4; stroke-opacity:1; fill:none" points="229.334,349.598 520.641,349.598 520.641,142.238 229.334,142.238 229.334,349.598 "/>
<polyline clip-path="url(#clip540)" style="stroke:#009af9; stroke-linecap:round; stroke-linejoin:round; stroke-width:4; stroke-opacity:1; fill:none" points="253.741,194.078 400.184,194.078 "/>
<path clip-path="url(#clip540)" d="M439.776 189.414 Q439.058 188.997 438.202 188.812 Q437.369 188.603 436.35 188.603 Q432.739 188.603 430.794 190.965 Q428.873 193.303 428.873 197.701 L428.873 211.358 L424.591 211.358 L424.591 185.432 L428.873 185.432 L428.873 189.46 Q430.216 187.099 432.369 185.965 Q434.521 184.807 437.6 184.807 Q438.04 184.807 438.572 184.877 Q439.105 184.923 439.753 185.039 L439.776 189.414 Z" fill="#ffffff" fill-rule="evenodd" fill-opacity="1" /><path clip-path="url(#clip540)" d="M448.364 207.469 L448.364 221.219 L444.081 221.219 L444.081 185.432 L448.364 185.432 L448.364 189.367 Q449.706 187.053 451.743 185.941 Q453.804 184.807 456.651 184.807 Q461.373 184.807 464.313 188.557 Q467.276 192.307 467.276 198.418 Q467.276 204.529 464.313 208.279 Q461.373 212.029 456.651 212.029 Q453.804 212.029 451.743 210.918 Q449.706 209.784 448.364 207.469 M462.854 198.418 Q462.854 193.719 460.91 191.057 Q458.989 188.372 455.609 188.372 Q452.23 188.372 450.285 191.057 Q448.364 193.719 448.364 198.418 Q448.364 203.117 450.285 205.802 Q452.23 208.464 455.609 208.464 Q458.989 208.464 460.91 205.802 Q462.854 203.117 462.854 198.418 Z" fill="#ffffff" fill-rule="evenodd" fill-opacity="1" /><path clip-path="url(#clip540)" d="M475.748 207.423 L483.387 207.423 L483.387 181.057 L475.077 182.724 L475.077 178.465 L483.34 176.798 L488.016 176.798 L488.016 207.423 L495.655 207.423 L495.655 211.358 L475.748 211.358 L475.748 207.423 Z" fill="#ffffff" fill-rule="evenodd" fill-opacity="1" /><polyline clip-path="url(#clip540)" style="stroke:#e26f46; stroke-linecap:round; stroke-linejoin:round; stroke-width:4; stroke-opacity:1; fill:none" points="253.741,245.918 400.184,245.918 "/>
<path clip-path="url(#clip540)" d="M439.776 241.254 Q439.058 240.837 438.202 240.652 Q437.369 240.443 436.35 240.443 Q432.739 240.443 430.794 242.805 Q428.873 245.143 428.873 249.541 L428.873 263.198 L424.591 263.198 L424.591 237.272 L428.873 237.272 L428.873 241.3 Q430.216 238.939 432.369 237.805 Q434.521 236.647 437.6 236.647 Q438.04 236.647 438.572 236.717 Q439.105 236.763 439.753 236.879 L439.776 241.254 Z" fill="#ffffff" fill-rule="evenodd" fill-opacity="1" /><path clip-path="url(#clip540)" d="M448.364 259.309 L448.364 273.059 L444.081 273.059 L444.081 237.272 L448.364 237.272 L448.364 241.207 Q449.706 238.893 451.743 237.781 Q453.804 236.647 456.651 236.647 Q461.373 236.647 464.313 240.397 Q467.276 244.147 467.276 250.258 Q467.276 256.369 464.313 260.119 Q461.373 263.869 456.651 263.869 Q453.804 263.869 451.743 262.758 Q449.706 261.624 448.364 259.309 M462.854 250.258 Q462.854 245.559 460.91 242.897 Q458.989 240.212 455.609 240.212 Q452.23 240.212 450.285 242.897 Q448.364 245.559 448.364 250.258 Q448.364 254.957 450.285 257.642 Q452.23 260.304 455.609 260.304 Q458.989 260.304 460.91 257.642 Q462.854 254.957 462.854 250.258 Z" fill="#ffffff" fill-rule="evenodd" fill-opacity="1" /><path clip-path="url(#clip540)" d="M478.966 259.263 L495.285 259.263 L495.285 263.198 L473.341 263.198 L473.341 259.263 Q476.003 256.508 480.586 251.879 Q485.192 247.226 486.373 245.883 Q488.618 243.36 489.498 241.624 Q490.401 239.865 490.401 238.175 Q490.401 235.42 488.456 233.684 Q486.535 231.948 483.433 231.948 Q481.234 231.948 478.78 232.712 Q476.35 233.476 473.572 235.027 L473.572 230.305 Q476.396 229.17 478.85 228.592 Q481.303 228.013 483.34 228.013 Q488.711 228.013 491.905 230.698 Q495.1 233.383 495.1 237.874 Q495.1 240.004 494.29 241.925 Q493.502 243.823 491.396 246.416 Q490.817 247.087 487.715 250.305 Q484.614 253.499 478.966 259.263 Z" fill="#ffffff" fill-rule="evenodd" fill-opacity="1" /><polyline clip-path="url(#clip540)" style="stroke:#3da44d; stroke-linecap:round; stroke-linejoin:round; stroke-width:4; stroke-opacity:1; fill:none" points="253.741,297.758 400.184,297.758 "/>
<path clip-path="url(#clip540)" d="M439.776 293.094 Q439.058 292.677 438.202 292.492 Q437.369 292.283 436.35 292.283 Q432.739 292.283 430.794 294.645 Q428.873 296.983 428.873 301.381 L428.873 315.038 L424.591 315.038 L424.591 289.112 L428.873 289.112 L428.873 293.14 Q430.216 290.779 432.369 289.645 Q434.521 288.487 437.6 288.487 Q438.04 288.487 438.572 288.557 Q439.105 288.603 439.753 288.719 L439.776 293.094 Z" fill="#ffffff" fill-rule="evenodd" fill-opacity="1" /><path clip-path="url(#clip540)" d="M448.364 311.149 L448.364 324.899 L444.081 324.899 L444.081 289.112 L448.364 289.112 L448.364 293.047 Q449.706 290.733 451.743 289.621 Q453.804 288.487 456.651 288.487 Q461.373 288.487 464.313 292.237 Q467.276 295.987 467.276 302.098 Q467.276 308.209 464.313 311.959 Q461.373 315.709 456.651 315.709 Q453.804 315.709 451.743 314.598 Q449.706 313.464 448.364 311.149 M462.854 302.098 Q462.854 297.399 460.91 294.737 Q458.989 292.052 455.609 292.052 Q452.23 292.052 450.285 294.737 Q448.364 297.399 448.364 302.098 Q448.364 306.797 450.285 309.482 Q452.23 312.144 455.609 312.144 Q458.989 312.144 460.91 309.482 Q462.854 306.797 462.854 302.098 Z" fill="#ffffff" fill-rule="evenodd" fill-opacity="1" /><path clip-path="url(#clip540)" d="M489.104 296.404 Q492.461 297.121 494.336 299.39 Q496.234 301.658 496.234 304.992 Q496.234 310.107 492.715 312.908 Q489.197 315.709 482.715 315.709 Q480.54 315.709 478.225 315.269 Q475.933 314.853 473.479 313.996 L473.479 309.482 Q475.424 310.617 477.739 311.195 Q480.053 311.774 482.577 311.774 Q486.975 311.774 489.266 310.038 Q491.581 308.302 491.581 304.992 Q491.581 301.936 489.428 300.223 Q487.299 298.487 483.479 298.487 L479.452 298.487 L479.452 294.645 L483.665 294.645 Q487.114 294.645 488.942 293.279 Q490.771 291.89 490.771 289.297 Q490.771 286.635 488.873 285.223 Q486.998 283.788 483.479 283.788 Q481.558 283.788 479.359 284.205 Q477.16 284.621 474.521 285.501 L474.521 281.334 Q477.183 280.594 479.498 280.223 Q481.836 279.853 483.896 279.853 Q489.22 279.853 492.322 282.284 Q495.424 284.691 495.424 288.811 Q495.424 291.682 493.78 293.672 Q492.137 295.64 489.104 296.404 Z" fill="#ffffff" fill-rule="evenodd" fill-opacity="1" /><path clip-path="url(#clip540)" d="M156.112 1486.45 L2352.76 1486.45 L2352.76 923.472 L156.112 923.472  Z" fill="#000000" fill-rule="evenodd" fill-opacity="0"/>
<defs>
  <clipPath id="clip543">
    <rect x="156" y="923" width="2198" height="564"/>
  </clipPath>
</defs>
<polyline clip-path="url(#clip543)" style="stroke:#ffffff; stroke-linecap:round; stroke-linejoin:round; stroke-width:2; stroke-opacity:0.1; fill:none" points="197.349,1486.45 197.349,923.472 "/>
<polyline clip-path="url(#clip543)" style="stroke:#ffffff; stroke-linecap:round; stroke-linejoin:round; stroke-width:2; stroke-opacity:0.1; fill:none" points="720.658,1486.45 720.658,923.472 "/>
<polyline clip-path="url(#clip543)" style="stroke:#ffffff; stroke-linecap:round; stroke-linejoin:round; stroke-width:2; stroke-opacity:0.1; fill:none" points="1243.97,1486.45 1243.97,923.472 "/>
<polyline clip-path="url(#clip543)" style="stroke:#ffffff; stroke-linecap:round; stroke-linejoin:round; stroke-width:2; stroke-opacity:0.1; fill:none" points="1767.28,1486.45 1767.28,923.472 "/>
<polyline clip-path="url(#clip543)" style="stroke:#ffffff; stroke-linecap:round; stroke-linejoin:round; stroke-width:2; stroke-opacity:0.1; fill:none" points="2290.59,1486.45 2290.59,923.472 "/>
<polyline clip-path="url(#clip540)" style="stroke:#ffffff; stroke-linecap:round; stroke-linejoin:round; stroke-width:4; stroke-opacity:1; fill:none" points="156.112,1486.45 2352.76,1486.45 "/>
<polyline clip-path="url(#clip540)" style="stroke:#ffffff; stroke-linecap:round; stroke-linejoin:round; stroke-width:4; stroke-opacity:1; fill:none" points="197.349,1486.45 197.349,1467.55 "/>
<polyline clip-path="url(#clip540)" style="stroke:#ffffff; stroke-linecap:round; stroke-linejoin:round; stroke-width:4; stroke-opacity:1; fill:none" points="720.658,1486.45 720.658,1467.55 "/>
<polyline clip-path="url(#clip540)" style="stroke:#ffffff; stroke-linecap:round; stroke-linejoin:round; stroke-width:4; stroke-opacity:1; fill:none" points="1243.97,1486.45 1243.97,1467.55 "/>
<polyline clip-path="url(#clip540)" style="stroke:#ffffff; stroke-linecap:round; stroke-linejoin:round; stroke-width:4; stroke-opacity:1; fill:none" points="1767.28,1486.45 1767.28,1467.55 "/>
<polyline clip-path="url(#clip540)" style="stroke:#ffffff; stroke-linecap:round; stroke-linejoin:round; stroke-width:4; stroke-opacity:1; fill:none" points="2290.59,1486.45 2290.59,1467.55 "/>
<path clip-path="url(#clip540)" d="M197.349 1517.37 Q193.738 1517.37 191.909 1520.93 Q190.104 1524.47 190.104 1531.6 Q190.104 1538.71 191.909 1542.27 Q193.738 1545.82 197.349 1545.82 Q200.983 1545.82 202.789 1542.27 Q204.617 1538.71 204.617 1531.6 Q204.617 1524.47 202.789 1520.93 Q200.983 1517.37 197.349 1517.37 M197.349 1513.66 Q203.159 1513.66 206.215 1518.27 Q209.293 1522.85 209.293 1531.6 Q209.293 1540.33 206.215 1544.94 Q203.159 1549.52 197.349 1549.52 Q191.539 1549.52 188.46 1544.94 Q185.405 1540.33 185.405 1531.6 Q185.405 1522.85 188.46 1518.27 Q191.539 1513.66 197.349 1513.66 Z" fill="#ffffff" fill-rule="evenodd" fill-opacity="1" /><path clip-path="url(#clip540)" d="M699.929 1544.91 L716.249 1544.91 L716.249 1548.85 L694.304 1548.85 L694.304 1544.91 Q696.966 1542.16 701.55 1537.53 Q706.156 1532.88 707.337 1531.53 Q709.582 1529.01 710.462 1527.27 Q711.364 1525.51 711.364 1523.82 Q711.364 1521.07 709.42 1519.33 Q707.499 1517.6 704.397 1517.6 Q702.198 1517.6 699.744 1518.36 Q697.314 1519.13 694.536 1520.68 L694.536 1515.95 Q697.36 1514.82 699.814 1514.24 Q702.267 1513.66 704.304 1513.66 Q709.675 1513.66 712.869 1516.35 Q716.063 1519.03 716.063 1523.52 Q716.063 1525.65 715.253 1527.57 Q714.466 1529.47 712.36 1532.07 Q711.781 1532.74 708.679 1535.95 Q705.577 1539.15 699.929 1544.91 Z" fill="#ffffff" fill-rule="evenodd" fill-opacity="1" /><path clip-path="url(#clip540)" d="M726.11 1514.29 L744.466 1514.29 L744.466 1518.22 L730.392 1518.22 L730.392 1526.7 Q731.411 1526.35 732.429 1526.19 Q733.448 1526 734.466 1526 Q740.253 1526 743.633 1529.17 Q747.012 1532.34 747.012 1537.76 Q747.012 1543.34 743.54 1546.44 Q740.068 1549.52 733.749 1549.52 Q731.573 1549.52 729.304 1549.15 Q727.059 1548.78 724.651 1548.04 L724.651 1543.34 Q726.735 1544.47 728.957 1545.03 Q731.179 1545.58 733.656 1545.58 Q737.661 1545.58 739.999 1543.48 Q742.336 1541.37 742.336 1537.76 Q742.336 1534.15 739.999 1532.04 Q737.661 1529.94 733.656 1529.94 Q731.781 1529.94 729.906 1530.35 Q728.054 1530.77 726.11 1531.65 L726.11 1514.29 Z" fill="#ffffff" fill-rule="evenodd" fill-opacity="1" /><path clip-path="url(#clip540)" d="M1218.67 1514.29 L1237.02 1514.29 L1237.02 1518.22 L1222.95 1518.22 L1222.95 1526.7 Q1223.97 1526.35 1224.99 1526.19 Q1226 1526 1227.02 1526 Q1232.81 1526 1236.19 1529.17 Q1239.57 1532.34 1239.57 1537.76 Q1239.57 1543.34 1236.1 1546.44 Q1232.63 1549.52 1226.31 1549.52 Q1224.13 1549.52 1221.86 1549.15 Q1219.62 1548.78 1217.21 1548.04 L1217.21 1543.34 Q1219.29 1544.47 1221.51 1545.03 Q1223.74 1545.58 1226.21 1545.58 Q1230.22 1545.58 1232.56 1543.48 Q1234.89 1541.37 1234.89 1537.76 Q1234.89 1534.15 1232.56 1532.04 Q1230.22 1529.94 1226.21 1529.94 Q1224.34 1529.94 1222.46 1530.35 Q1220.61 1530.77 1218.67 1531.65 L1218.67 1514.29 Z" fill="#ffffff" fill-rule="evenodd" fill-opacity="1" /><path clip-path="url(#clip540)" d="M1258.78 1517.37 Q1255.17 1517.37 1253.34 1520.93 Q1251.54 1524.47 1251.54 1531.6 Q1251.54 1538.71 1253.34 1542.27 Q1255.17 1545.82 1258.78 1545.82 Q1262.42 1545.82 1264.22 1542.27 Q1266.05 1538.71 1266.05 1531.6 Q1266.05 1524.47 1264.22 1520.93 Q1262.42 1517.37 1258.78 1517.37 M1258.78 1513.66 Q1264.59 1513.66 1267.65 1518.27 Q1270.73 1522.85 1270.73 1531.6 Q1270.73 1540.33 1267.65 1544.94 Q1264.59 1549.52 1258.78 1549.52 Q1252.97 1549.52 1249.89 1544.94 Q1246.84 1540.33 1246.84 1531.6 Q1246.84 1522.85 1249.89 1518.27 Q1252.97 1513.66 1258.78 1513.66 Z" fill="#ffffff" fill-rule="evenodd" fill-opacity="1" /><path clip-path="url(#clip540)" d="M1741.13 1514.29 L1763.35 1514.29 L1763.35 1516.28 L1750.81 1548.85 L1745.92 1548.85 L1757.73 1518.22 L1741.13 1518.22 L1741.13 1514.29 Z" fill="#ffffff" fill-rule="evenodd" fill-opacity="1" /><path clip-path="url(#clip540)" d="M1772.52 1514.29 L1790.88 1514.29 L1790.88 1518.22 L1776.8 1518.22 L1776.8 1526.7 Q1777.82 1526.35 1778.84 1526.19 Q1779.86 1526 1780.88 1526 Q1786.66 1526 1790.04 1529.17 Q1793.42 1532.34 1793.42 1537.76 Q1793.42 1543.34 1789.95 1546.44 Q1786.48 1549.52 1780.16 1549.52 Q1777.98 1549.52 1775.71 1549.15 Q1773.47 1548.78 1771.06 1548.04 L1771.06 1543.34 Q1773.15 1544.47 1775.37 1545.03 Q1777.59 1545.58 1780.07 1545.58 Q1784.07 1545.58 1786.41 1543.48 Q1788.75 1541.37 1788.75 1537.76 Q1788.75 1534.15 1786.41 1532.04 Q1784.07 1529.94 1780.07 1529.94 Q1778.19 1529.94 1776.32 1530.35 Q1774.46 1530.77 1772.52 1531.65 L1772.52 1514.29 Z" fill="#ffffff" fill-rule="evenodd" fill-opacity="1" /><path clip-path="url(#clip540)" d="M2250.19 1544.91 L2257.83 1544.91 L2257.83 1518.55 L2249.52 1520.21 L2249.52 1515.95 L2257.79 1514.29 L2262.46 1514.29 L2262.46 1544.91 L2270.1 1544.91 L2270.1 1548.85 L2250.19 1548.85 L2250.19 1544.91 Z" fill="#ffffff" fill-rule="evenodd" fill-opacity="1" /><path clip-path="url(#clip540)" d="M2289.55 1517.37 Q2285.93 1517.37 2284.11 1520.93 Q2282.3 1524.47 2282.3 1531.6 Q2282.3 1538.71 2284.11 1542.27 Q2285.93 1545.82 2289.55 1545.82 Q2293.18 1545.82 2294.98 1542.27 Q2296.81 1538.71 2296.81 1531.6 Q2296.81 1524.47 2294.98 1520.93 Q2293.18 1517.37 2289.55 1517.37 M2289.55 1513.66 Q2295.36 1513.66 2298.41 1518.27 Q2301.49 1522.85 2301.49 1531.6 Q2301.49 1540.33 2298.41 1544.94 Q2295.36 1549.52 2289.55 1549.52 Q2283.73 1549.52 2280.66 1544.94 Q2277.6 1540.33 2277.6 1531.6 Q2277.6 1522.85 2280.66 1518.27 Q2283.73 1513.66 2289.55 1513.66 Z" fill="#ffffff" fill-rule="evenodd" fill-opacity="1" /><path clip-path="url(#clip540)" d="M2319.71 1517.37 Q2316.1 1517.37 2314.27 1520.93 Q2312.46 1524.47 2312.46 1531.6 Q2312.46 1538.71 2314.27 1542.27 Q2316.1 1545.82 2319.71 1545.82 Q2323.34 1545.82 2325.15 1542.27 Q2326.98 1538.71 2326.98 1531.6 Q2326.98 1524.47 2325.15 1520.93 Q2323.34 1517.37 2319.71 1517.37 M2319.71 1513.66 Q2325.52 1513.66 2328.57 1518.27 Q2331.65 1522.85 2331.65 1531.6 Q2331.65 1540.33 2328.57 1544.94 Q2325.52 1549.52 2319.71 1549.52 Q2313.9 1549.52 2310.82 1544.94 Q2307.76 1540.33 2307.76 1531.6 Q2307.76 1522.85 2310.82 1518.27 Q2313.9 1513.66 2319.71 1513.66 Z" fill="#ffffff" fill-rule="evenodd" fill-opacity="1" /><polyline clip-path="url(#clip543)" style="stroke:#ffffff; stroke-linecap:round; stroke-linejoin:round; stroke-width:2; stroke-opacity:0.1; fill:none" points="156.112,1470.51 2352.76,1470.51 "/>
<polyline clip-path="url(#clip543)" style="stroke:#ffffff; stroke-linecap:round; stroke-linejoin:round; stroke-width:2; stroke-opacity:0.1; fill:none" points="156.112,1293.7 2352.76,1293.7 "/>
<polyline clip-path="url(#clip543)" style="stroke:#ffffff; stroke-linecap:round; stroke-linejoin:round; stroke-width:2; stroke-opacity:0.1; fill:none" points="156.112,1116.89 2352.76,1116.89 "/>
<polyline clip-path="url(#clip543)" style="stroke:#ffffff; stroke-linecap:round; stroke-linejoin:round; stroke-width:2; stroke-opacity:0.1; fill:none" points="156.112,940.082 2352.76,940.082 "/>
<polyline clip-path="url(#clip540)" style="stroke:#ffffff; stroke-linecap:round; stroke-linejoin:round; stroke-width:4; stroke-opacity:1; fill:none" points="156.112,1486.45 156.112,923.472 "/>
<polyline clip-path="url(#clip540)" style="stroke:#ffffff; stroke-linecap:round; stroke-linejoin:round; stroke-width:4; stroke-opacity:1; fill:none" points="156.112,1470.51 175.01,1470.51 "/>
<polyline clip-path="url(#clip540)" style="stroke:#ffffff; stroke-linecap:round; stroke-linejoin:round; stroke-width:4; stroke-opacity:1; fill:none" points="156.112,1293.7 175.01,1293.7 "/>
<polyline clip-path="url(#clip540)" style="stroke:#ffffff; stroke-linecap:round; stroke-linejoin:round; stroke-width:4; stroke-opacity:1; fill:none" points="156.112,1116.89 175.01,1116.89 "/>
<polyline clip-path="url(#clip540)" style="stroke:#ffffff; stroke-linecap:round; stroke-linejoin:round; stroke-width:4; stroke-opacity:1; fill:none" points="156.112,940.082 175.01,940.082 "/>
<path clip-path="url(#clip540)" d="M62.9365 1456.31 Q59.3254 1456.31 57.4967 1459.88 Q55.6912 1463.42 55.6912 1470.55 Q55.6912 1477.66 57.4967 1481.22 Q59.3254 1484.76 62.9365 1484.76 Q66.5707 1484.76 68.3763 1481.22 Q70.205 1477.66 70.205 1470.55 Q70.205 1463.42 68.3763 1459.88 Q66.5707 1456.31 62.9365 1456.31 M62.9365 1452.61 Q68.7467 1452.61 71.8022 1457.22 Q74.8809 1461.8 74.8809 1470.55 Q74.8809 1479.28 71.8022 1483.88 Q68.7467 1488.47 62.9365 1488.47 Q57.1264 1488.47 54.0477 1483.88 Q50.9921 1479.28 50.9921 1470.55 Q50.9921 1461.8 54.0477 1457.22 Q57.1264 1452.61 62.9365 1452.61 Z" fill="#ffffff" fill-rule="evenodd" fill-opacity="1" /><path clip-path="url(#clip540)" d="M83.0984 1481.92 L87.9827 1481.92 L87.9827 1487.79 L83.0984 1487.79 L83.0984 1481.92 Z" fill="#ffffff" fill-rule="evenodd" fill-opacity="1" /><path clip-path="url(#clip540)" d="M108.168 1456.31 Q104.557 1456.31 102.728 1459.88 Q100.922 1463.42 100.922 1470.55 Q100.922 1477.66 102.728 1481.22 Q104.557 1484.76 108.168 1484.76 Q111.802 1484.76 113.608 1481.22 Q115.436 1477.66 115.436 1470.55 Q115.436 1463.42 113.608 1459.88 Q111.802 1456.31 108.168 1456.31 M108.168 1452.61 Q113.978 1452.61 117.033 1457.22 Q120.112 1461.8 120.112 1470.55 Q120.112 1479.28 117.033 1483.88 Q113.978 1488.47 108.168 1488.47 Q102.358 1488.47 99.2789 1483.88 Q96.2234 1479.28 96.2234 1470.55 Q96.2234 1461.8 99.2789 1457.22 Q102.358 1452.61 108.168 1452.61 Z" fill="#ffffff" fill-rule="evenodd" fill-opacity="1" /><path clip-path="url(#clip540)" d="M63.9319 1279.5 Q60.3208 1279.5 58.4921 1283.07 Q56.6865 1286.61 56.6865 1293.74 Q56.6865 1300.85 58.4921 1304.41 Q60.3208 1307.95 63.9319 1307.95 Q67.5661 1307.95 69.3717 1304.41 Q71.2004 1300.85 71.2004 1293.74 Q71.2004 1286.61 69.3717 1283.07 Q67.5661 1279.5 63.9319 1279.5 M63.9319 1275.8 Q69.742 1275.8 72.7976 1280.41 Q75.8763 1284.99 75.8763 1293.74 Q75.8763 1302.47 72.7976 1307.07 Q69.742 1311.66 63.9319 1311.66 Q58.1217 1311.66 55.043 1307.07 Q51.9875 1302.47 51.9875 1293.74 Q51.9875 1284.99 55.043 1280.41 Q58.1217 1275.8 63.9319 1275.8 Z" fill="#ffffff" fill-rule="evenodd" fill-opacity="1" /><path clip-path="url(#clip540)" d="M84.0938 1305.1 L88.978 1305.1 L88.978 1310.98 L84.0938 1310.98 L84.0938 1305.1 Z" fill="#ffffff" fill-rule="evenodd" fill-opacity="1" /><path clip-path="url(#clip540)" d="M99.2095 1276.42 L117.566 1276.42 L117.566 1280.36 L103.492 1280.36 L103.492 1288.83 Q104.51 1288.48 105.529 1288.32 Q106.547 1288.14 107.566 1288.14 Q113.353 1288.14 116.733 1291.31 Q120.112 1294.48 120.112 1299.9 Q120.112 1305.47 116.64 1308.58 Q113.168 1311.66 106.848 1311.66 Q104.672 1311.66 102.404 1311.28 Q100.159 1310.91 97.7511 1310.17 L97.7511 1305.47 Q99.8345 1306.61 102.057 1307.16 Q104.279 1307.72 106.756 1307.72 Q110.76 1307.72 113.098 1305.61 Q115.436 1303.51 115.436 1299.9 Q115.436 1296.28 113.098 1294.18 Q110.76 1292.07 106.756 1292.07 Q104.881 1292.07 103.006 1292.49 Q101.154 1292.91 99.2095 1293.78 L99.2095 1276.42 Z" fill="#ffffff" fill-rule="evenodd" fill-opacity="1" /><path clip-path="url(#clip540)" d="M53.7467 1130.24 L61.3856 1130.24 L61.3856 1103.87 L53.0754 1105.54 L53.0754 1101.28 L61.3393 1099.61 L66.0152 1099.61 L66.0152 1130.24 L73.654 1130.24 L73.654 1134.17 L53.7467 1134.17 L53.7467 1130.24 Z" fill="#ffffff" fill-rule="evenodd" fill-opacity="1" /><path clip-path="url(#clip540)" d="M83.0984 1128.29 L87.9827 1128.29 L87.9827 1134.17 L83.0984 1134.17 L83.0984 1128.29 Z" fill="#ffffff" fill-rule="evenodd" fill-opacity="1" /><path clip-path="url(#clip540)" d="M108.168 1102.69 Q104.557 1102.69 102.728 1106.26 Q100.922 1109.8 100.922 1116.93 Q100.922 1124.03 102.728 1127.6 Q104.557 1131.14 108.168 1131.14 Q111.802 1131.14 113.608 1127.6 Q115.436 1124.03 115.436 1116.93 Q115.436 1109.8 113.608 1106.26 Q111.802 1102.69 108.168 1102.69 M108.168 1098.99 Q113.978 1098.99 117.033 1103.59 Q120.112 1108.18 120.112 1116.93 Q120.112 1125.65 117.033 1130.26 Q113.978 1134.84 108.168 1134.84 Q102.358 1134.84 99.2789 1130.26 Q96.2234 1125.65 96.2234 1116.93 Q96.2234 1108.18 99.2789 1103.59 Q102.358 1098.99 108.168 1098.99 Z" fill="#ffffff" fill-rule="evenodd" fill-opacity="1" /><path clip-path="url(#clip540)" d="M54.7421 953.427 L62.381 953.427 L62.381 927.062 L54.0708 928.728 L54.0708 924.469 L62.3347 922.802 L67.0106 922.802 L67.0106 953.427 L74.6494 953.427 L74.6494 957.362 L54.7421 957.362 L54.7421 953.427 Z" fill="#ffffff" fill-rule="evenodd" fill-opacity="1" /><path clip-path="url(#clip540)" d="M84.0938 951.483 L88.978 951.483 L88.978 957.362 L84.0938 957.362 L84.0938 951.483 Z" fill="#ffffff" fill-rule="evenodd" fill-opacity="1" /><path clip-path="url(#clip540)" d="M99.2095 922.802 L117.566 922.802 L117.566 926.738 L103.492 926.738 L103.492 935.21 Q104.51 934.863 105.529 934.701 Q106.547 934.515 107.566 934.515 Q113.353 934.515 116.733 937.687 Q120.112 940.858 120.112 946.275 Q120.112 951.853 116.64 954.955 Q113.168 958.034 106.848 958.034 Q104.672 958.034 102.404 957.663 Q100.159 957.293 97.7511 956.552 L97.7511 951.853 Q99.8345 952.987 102.057 953.543 Q104.279 954.099 106.756 954.099 Q110.76 954.099 113.098 951.992 Q115.436 949.886 115.436 946.275 Q115.436 942.663 113.098 940.557 Q110.76 938.451 106.756 938.451 Q104.881 938.451 103.006 938.867 Q101.154 939.284 99.2095 940.163 L99.2095 922.802 Z" fill="#ffffff" fill-rule="evenodd" fill-opacity="1" /><path clip-path="url(#clip540)" d="M1192.9 814.081 L1192.9 822.061 Q1188.24 819.833 1184.11 818.739 Q1179.98 817.646 1176.13 817.646 Q1169.45 817.646 1165.8 820.238 Q1162.19 822.831 1162.19 827.611 Q1162.19 831.621 1164.58 833.687 Q1167.02 835.713 1173.74 836.969 L1178.68 837.981 Q1187.84 839.723 1192.17 844.139 Q1196.55 848.514 1196.55 855.886 Q1196.55 864.677 1190.63 869.214 Q1184.76 873.751 1173.38 873.751 Q1169.08 873.751 1164.22 872.779 Q1159.4 871.806 1154.21 869.902 L1154.21 861.477 Q1159.2 864.272 1163.98 865.689 Q1168.76 867.107 1173.38 867.107 Q1180.38 867.107 1184.19 864.353 Q1188 861.598 1188 856.494 Q1188 852.038 1185.24 849.526 Q1182.53 847.015 1176.29 845.759 L1171.31 844.787 Q1162.15 842.964 1158.06 839.075 Q1153.97 835.186 1153.97 828.259 Q1153.97 820.238 1159.6 815.62 Q1165.27 811.002 1175.2 811.002 Q1179.45 811.002 1183.87 811.772 Q1188.28 812.542 1192.9 814.081 Z" fill="#ffffff" fill-rule="evenodd" fill-opacity="1" /><path clip-path="url(#clip540)" d="M1200.92 812.096 L1252.08 812.096 L1252.08 818.983 L1230.61 818.983 L1230.61 872.576 L1222.39 872.576 L1222.39 818.983 L1200.92 818.983 L1200.92 812.096 Z" fill="#ffffff" fill-rule="evenodd" fill-opacity="1" /><path clip-path="url(#clip540)" d="M1268.17 818.821 L1268.17 865.851 L1278.05 865.851 Q1290.57 865.851 1296.36 860.18 Q1302.19 854.509 1302.19 842.275 Q1302.19 830.123 1296.36 824.492 Q1290.57 818.821 1278.05 818.821 L1268.17 818.821 M1259.98 812.096 L1276.8 812.096 Q1294.38 812.096 1302.6 819.428 Q1310.82 826.72 1310.82 842.275 Q1310.82 857.912 1302.56 865.244 Q1294.29 872.576 1276.8 872.576 L1259.98 872.576 L1259.98 812.096 Z" fill="#ffffff" fill-rule="evenodd" fill-opacity="1" /><path clip-path="url(#clip540)" d="M1352.47 828.543 L1352.47 835.591 Q1349.31 833.971 1345.9 833.161 Q1342.5 832.351 1338.85 832.351 Q1333.31 832.351 1330.51 834.052 Q1327.76 835.753 1327.76 839.156 Q1327.76 841.749 1329.74 843.247 Q1331.73 844.706 1337.72 846.043 L1340.27 846.61 Q1348.21 848.311 1351.53 851.43 Q1354.9 854.509 1354.9 860.059 Q1354.9 866.378 1349.87 870.064 Q1344.89 873.751 1336.14 873.751 Q1332.49 873.751 1328.53 873.022 Q1324.6 872.333 1320.22 870.915 L1320.22 863.218 Q1324.35 865.365 1328.36 866.459 Q1332.37 867.512 1336.3 867.512 Q1341.57 867.512 1344.4 865.73 Q1347.24 863.907 1347.24 860.626 Q1347.24 857.588 1345.17 855.967 Q1343.15 854.347 1336.22 852.848 L1333.63 852.24 Q1326.7 850.782 1323.62 847.784 Q1320.54 844.746 1320.54 839.48 Q1320.54 833.08 1325.08 829.596 Q1329.62 826.112 1337.96 826.112 Q1342.1 826.112 1345.74 826.72 Q1349.39 827.327 1352.47 828.543 Z" fill="#ffffff" fill-rule="evenodd" fill-opacity="1" /><polyline clip-path="url(#clip543)" style="stroke:#009af9; stroke-linecap:round; stroke-linejoin:round; stroke-width:4; stroke-opacity:1; fill:none" points="218.281,1311.08 239.214,1297.4 260.146,1292.52 281.078,1291.6 302.011,1293.74 322.943,1294.25 343.876,1298.9 364.808,1298.31 385.74,1294.82 406.673,1288.15 427.605,1291.46 448.537,1307.28 469.47,1305.54 490.402,1303.62 511.335,1296.32 532.267,1297.42 553.199,1294.52 574.132,1291.03 595.064,1310.13 615.996,1289.56 636.929,1284.31 657.861,1290.22 678.794,1295.44 699.726,1298.24 720.658,1299.8 741.591,1289.3 762.523,1307.43 783.456,1303.66 804.388,1304 825.32,1288.04 846.253,1296.06 867.185,1297.67 888.117,1293.37 909.05,1295.12 929.982,1292.57 950.915,1301 971.847,1288.78 992.779,1290.8 1013.71,1302.85 1034.64,1290.03 1055.58,1303.06 1076.51,1287.65 1097.44,1299.97 1118.37,1302.74 1139.31,1304.38 1160.24,1291.69 1181.17,1295.13 1202.1,1296.46 1223.04,1293.74 1243.97,1303.13 1264.9,1300.89 1285.83,1276.89 1306.76,1298.64 1327.7,1289.05 1348.63,1308.41 1369.56,1298.49 1390.49,1289.35 1411.43,1303.07 1432.36,1305.01 1453.29,1299.49 1474.22,1302.44 1495.16,1296.11 1516.09,1301.78 1537.02,1296.16 1557.95,1286.2 1578.89,1291.62 1599.82,1302.43 1620.75,1306.71 1641.68,1295.7 1662.62,1299.23 1683.55,1293.09 1704.48,1305.05 1725.41,1292.39 1746.34,1301.26 1767.28,1295.98 1788.21,1291.75 1809.14,1301.86 1830.07,1292.98 1851.01,1300.5 1871.94,1303.72 1892.87,1297.98 1913.8,1292.37 1934.74,1293.88 1955.67,1308.69 1976.6,1294.85 1997.53,1304.14 2018.47,1301.82 2039.4,1293.84 2060.33,1289.77 2081.26,1306.88 2102.2,1301.89 2123.13,1291.27 2144.06,1290.09 2164.99,1288.25 2185.92,1304.91 2206.86,1294.79 2227.79,1302 2248.72,1287.02 2269.65,1284.99 2290.59,1294.7 "/>
<polyline clip-path="url(#clip543)" style="stroke:#e26f46; stroke-linecap:round; stroke-linejoin:round; stroke-width:4; stroke-opacity:1; fill:none" points="218.281,1452.69 239.214,1436.28 260.146,1421.16 281.078,1405.94 302.011,1390.73 322.943,1386 343.876,1360.92 364.808,1344.12 385.74,1324.25 406.673,1302.56 427.605,1302.88 448.537,1280.55 469.47,1287.55 490.402,1280.95 511.335,1247.33 532.267,1227.45 553.199,1208.02 574.132,1163.32 595.064,1190.43 615.996,1151.43 636.929,1169.53 657.861,1147.77 678.794,1146.3 699.726,1119.97 720.658,1085.33 741.591,1075.93 762.523,1079.32 783.456,1042.82 804.388,1055.43 825.32,1081.23 846.253,1011.14 867.185,1068.69 888.117,1066.53 909.05,1089.14 929.982,1034.7 950.915,979.997 971.847,997.05 992.779,1017.32 1013.71,990.45 1034.64,1028.81 1055.58,1008.37 1076.51,957.161 1097.44,966.205 1118.37,978.858 1139.31,995.176 1160.24,977.019 1181.17,946.917 1202.1,949.251 1223.04,982.529 1243.97,956.288 1264.9,939.405 1285.83,976.332 1306.76,970.01 1327.7,977.105 1348.63,946.997 1369.56,977.42 1390.49,945.221 1411.43,953.499 1432.36,1001.66 1453.29,1017.18 1474.22,1028.77 1495.16,985.532 1516.09,993.185 1537.02,1036.42 1557.95,1063.29 1578.89,1026.69 1599.82,1020.51 1620.75,1014.39 1641.68,1071.87 1662.62,1054.06 1683.55,1036.15 1704.48,1094.35 1725.41,1052.5 1746.34,1108.01 1767.28,1113.29 1788.21,1100.84 1809.14,1146.2 1830.07,1151.07 1851.01,1147.6 1871.94,1193.53 1892.87,1186.14 1913.8,1199.51 1934.74,1220.72 1955.67,1233.92 1976.6,1238.7 1997.53,1260.31 2018.47,1284.71 2039.4,1265.92 2060.33,1294.7 2081.26,1311.66 2102.2,1327.7 2123.13,1342.04 2144.06,1362.35 2164.99,1375.07 2185.92,1389.69 2206.86,1407.11 2227.79,1420.12 2248.72,1437.47 2269.65,1455.58 2290.59,1470.51 "/>
<polyline clip-path="url(#clip543)" style="stroke:#3da44d; stroke-linecap:round; stroke-linejoin:round; stroke-width:4; stroke-opacity:1; fill:none" points="218.281,1168.02 239.214,1166.12 260.146,1159.1 281.078,1169.66 302.011,1135.35 322.943,1149.02 343.876,1153.19 364.808,1185.46 385.74,1140.02 406.673,1136.19 427.605,1161.65 448.537,1174.29 469.47,1151.67 490.402,1182.5 511.335,1158.16 532.267,1152.77 553.199,1155.47 574.132,1167.31 595.064,1171.54 615.996,1169.29 636.929,1162.92 657.861,1152.46 678.794,1140.47 699.726,1142.95 720.658,1141.43 741.591,1194.47 762.523,1167.34 783.456,1161.22 804.388,1184.1 825.32,1187.4 846.253,1156.82 867.185,1133.3 888.117,1164.19 909.05,1139.99 929.982,1156.27 950.915,1184.52 971.847,1163.65 992.779,1157.88 1013.71,1156.3 1034.64,1146.86 1055.58,1160.46 1076.51,1148.07 1097.44,1143.74 1118.37,1171.13 1139.31,1185.81 1160.24,1149.24 1181.17,1177.36 1202.1,1122.05 1223.04,1187.11 1243.97,1155.26 1264.9,1161.58 1285.83,1170.96 1306.76,1160.6 1327.7,1194.43 1348.63,1164.98 1369.56,1158.81 1390.49,1167.07 1411.43,1185.65 1432.36,1156.65 1453.29,1178.11 1474.22,1160.45 1495.16,1187.16 1516.09,1187.46 1537.02,1189.78 1557.95,1163.88 1578.89,1165.91 1599.82,1164.22 1620.75,1162.12 1641.68,1177.25 1662.62,1187.43 1683.55,1157.08 1704.48,1134.78 1725.41,1158.93 1746.34,1171.12 1767.28,1149.69 1788.21,1163.26 1809.14,1162.36 1830.07,1180.49 1851.01,1177.06 1871.94,1152.2 1892.87,1172.54 1913.8,1167.28 1934.74,1165.49 1955.67,1171.78 1976.6,1158.99 1997.53,1167.31 2018.47,1183.64 2039.4,1185.43 2060.33,1159.91 2081.26,1164.49 2102.2,1157.62 2123.13,1162.05 2144.06,1162.83 2164.99,1170.37 2185.92,1176.82 2206.86,1162.69 2227.79,1184.99 2248.72,1182.13 2269.65,1164.77 2290.59,1184.62 "/>
<path clip-path="url(#clip540)" d="M1988.23 1149.6 L2279.53 1149.6 L2279.53 942.238 L1988.23 942.238  Z" fill="#000000" fill-rule="evenodd" fill-opacity="0"/>
<polyline clip-path="url(#clip540)" style="stroke:#ffffff; stroke-linecap:round; stroke-linejoin:round; stroke-width:4; stroke-opacity:1; fill:none" points="1988.23,1149.6 2279.53,1149.6 2279.53,942.238 1988.23,942.238 1988.23,1149.6 "/>
<polyline clip-path="url(#clip540)" style="stroke:#009af9; stroke-linecap:round; stroke-linejoin:round; stroke-width:4; stroke-opacity:1; fill:none" points="2012.63,994.078 2159.08,994.078 "/>
<path clip-path="url(#clip540)" d="M2198.67 989.414 Q2197.95 988.997 2197.1 988.812 Q2196.26 988.603 2195.24 988.603 Q2191.63 988.603 2189.69 990.965 Q2187.77 993.303 2187.77 997.701 L2187.77 1011.36 L2183.48 1011.36 L2183.48 985.432 L2187.77 985.432 L2187.77 989.46 Q2189.11 987.099 2191.26 985.965 Q2193.41 984.807 2196.49 984.807 Q2196.93 984.807 2197.47 984.877 Q2198 984.923 2198.65 985.039 L2198.67 989.414 Z" fill="#ffffff" fill-rule="evenodd" fill-opacity="1" /><path clip-path="url(#clip540)" d="M2207.26 1007.47 L2207.26 1021.22 L2202.97 1021.22 L2202.97 985.432 L2207.26 985.432 L2207.26 989.367 Q2208.6 987.053 2210.64 985.941 Q2212.7 984.807 2215.54 984.807 Q2220.27 984.807 2223.21 988.557 Q2226.17 992.307 2226.17 998.418 Q2226.17 1004.53 2223.21 1008.28 Q2220.27 1012.03 2215.54 1012.03 Q2212.7 1012.03 2210.64 1010.92 Q2208.6 1009.78 2207.26 1007.47 M2221.75 998.418 Q2221.75 993.719 2219.8 991.057 Q2217.88 988.372 2214.5 988.372 Q2211.12 988.372 2209.18 991.057 Q2207.26 993.719 2207.26 998.418 Q2207.26 1003.12 2209.18 1005.8 Q2211.12 1008.46 2214.5 1008.46 Q2217.88 1008.46 2219.8 1005.8 Q2221.75 1003.12 2221.75 998.418 Z" fill="#ffffff" fill-rule="evenodd" fill-opacity="1" /><path clip-path="url(#clip540)" d="M2234.64 1007.42 L2242.28 1007.42 L2242.28 981.057 L2233.97 982.724 L2233.97 978.465 L2242.23 976.798 L2246.91 976.798 L2246.91 1007.42 L2254.55 1007.42 L2254.55 1011.36 L2234.64 1011.36 L2234.64 1007.42 Z" fill="#ffffff" fill-rule="evenodd" fill-opacity="1" /><polyline clip-path="url(#clip540)" style="stroke:#e26f46; stroke-linecap:round; stroke-linejoin:round; stroke-width:4; stroke-opacity:1; fill:none" points="2012.63,1045.92 2159.08,1045.92 "/>
<path clip-path="url(#clip540)" d="M2198.67 1041.25 Q2197.95 1040.84 2197.1 1040.65 Q2196.26 1040.44 2195.24 1040.44 Q2191.63 1040.44 2189.69 1042.8 Q2187.77 1045.14 2187.77 1049.54 L2187.77 1063.2 L2183.48 1063.2 L2183.48 1037.27 L2187.77 1037.27 L2187.77 1041.3 Q2189.11 1038.94 2191.26 1037.8 Q2193.41 1036.65 2196.49 1036.65 Q2196.93 1036.65 2197.47 1036.72 Q2198 1036.76 2198.65 1036.88 L2198.67 1041.25 Z" fill="#ffffff" fill-rule="evenodd" fill-opacity="1" /><path clip-path="url(#clip540)" d="M2207.26 1059.31 L2207.26 1073.06 L2202.97 1073.06 L2202.97 1037.27 L2207.26 1037.27 L2207.26 1041.21 Q2208.6 1038.89 2210.64 1037.78 Q2212.7 1036.65 2215.54 1036.65 Q2220.27 1036.65 2223.21 1040.4 Q2226.17 1044.15 2226.17 1050.26 Q2226.17 1056.37 2223.21 1060.12 Q2220.27 1063.87 2215.54 1063.87 Q2212.7 1063.87 2210.64 1062.76 Q2208.6 1061.62 2207.26 1059.31 M2221.75 1050.26 Q2221.75 1045.56 2219.8 1042.9 Q2217.88 1040.21 2214.5 1040.21 Q2211.12 1040.21 2209.18 1042.9 Q2207.26 1045.56 2207.26 1050.26 Q2207.26 1054.96 2209.18 1057.64 Q2211.12 1060.3 2214.5 1060.3 Q2217.88 1060.3 2219.8 1057.64 Q2221.75 1054.96 2221.75 1050.26 Z" fill="#ffffff" fill-rule="evenodd" fill-opacity="1" /><path clip-path="url(#clip540)" d="M2237.86 1059.26 L2254.18 1059.26 L2254.18 1063.2 L2232.23 1063.2 L2232.23 1059.26 Q2234.9 1056.51 2239.48 1051.88 Q2244.09 1047.23 2245.27 1045.88 Q2247.51 1043.36 2248.39 1041.62 Q2249.29 1039.86 2249.29 1038.17 Q2249.29 1035.42 2247.35 1033.68 Q2245.43 1031.95 2242.33 1031.95 Q2240.13 1031.95 2237.67 1032.71 Q2235.24 1033.48 2232.47 1035.03 L2232.47 1030.3 Q2235.29 1029.17 2237.74 1028.59 Q2240.2 1028.01 2242.23 1028.01 Q2247.6 1028.01 2250.8 1030.7 Q2253.99 1033.38 2253.99 1037.87 Q2253.99 1040 2253.18 1041.92 Q2252.4 1043.82 2250.29 1046.42 Q2249.71 1047.09 2246.61 1050.3 Q2243.51 1053.5 2237.86 1059.26 Z" fill="#ffffff" fill-rule="evenodd" fill-opacity="1" /><polyline clip-path="url(#clip540)" style="stroke:#3da44d; stroke-linecap:round; stroke-linejoin:round; stroke-width:4; stroke-opacity:1; fill:none" points="2012.63,1097.76 2159.08,1097.76 "/>
<path clip-path="url(#clip540)" d="M2198.67 1093.09 Q2197.95 1092.68 2197.1 1092.49 Q2196.26 1092.28 2195.24 1092.28 Q2191.63 1092.28 2189.69 1094.64 Q2187.77 1096.98 2187.77 1101.38 L2187.77 1115.04 L2183.48 1115.04 L2183.48 1089.11 L2187.77 1089.11 L2187.77 1093.14 Q2189.11 1090.78 2191.26 1089.64 Q2193.41 1088.49 2196.49 1088.49 Q2196.93 1088.49 2197.47 1088.56 Q2198 1088.6 2198.65 1088.72 L2198.67 1093.09 Z" fill="#ffffff" fill-rule="evenodd" fill-opacity="1" /><path clip-path="url(#clip540)" d="M2207.26 1111.15 L2207.26 1124.9 L2202.97 1124.9 L2202.97 1089.11 L2207.26 1089.11 L2207.26 1093.05 Q2208.6 1090.73 2210.64 1089.62 Q2212.7 1088.49 2215.54 1088.49 Q2220.27 1088.49 2223.21 1092.24 Q2226.17 1095.99 2226.17 1102.1 Q2226.17 1108.21 2223.21 1111.96 Q2220.27 1115.71 2215.54 1115.71 Q2212.7 1115.71 2210.64 1114.6 Q2208.6 1113.46 2207.26 1111.15 M2221.75 1102.1 Q2221.75 1097.4 2219.8 1094.74 Q2217.88 1092.05 2214.5 1092.05 Q2211.12 1092.05 2209.18 1094.74 Q2207.26 1097.4 2207.26 1102.1 Q2207.26 1106.8 2209.18 1109.48 Q2211.12 1112.14 2214.5 1112.14 Q2217.88 1112.14 2219.8 1109.48 Q2221.75 1106.8 2221.75 1102.1 Z" fill="#ffffff" fill-rule="evenodd" fill-opacity="1" /><path clip-path="url(#clip540)" d="M2248 1096.4 Q2251.35 1097.12 2253.23 1099.39 Q2255.13 1101.66 2255.13 1104.99 Q2255.13 1110.11 2251.61 1112.91 Q2248.09 1115.71 2241.61 1115.71 Q2239.43 1115.71 2237.12 1115.27 Q2234.83 1114.85 2232.37 1114 L2232.37 1109.48 Q2234.32 1110.62 2236.63 1111.2 Q2238.95 1111.77 2241.47 1111.77 Q2245.87 1111.77 2248.16 1110.04 Q2250.47 1108.3 2250.47 1104.99 Q2250.47 1101.94 2248.32 1100.22 Q2246.19 1098.49 2242.37 1098.49 L2238.34 1098.49 L2238.34 1094.64 L2242.56 1094.64 Q2246.01 1094.64 2247.84 1093.28 Q2249.66 1091.89 2249.66 1089.3 Q2249.66 1086.64 2247.77 1085.22 Q2245.89 1083.79 2242.37 1083.79 Q2240.45 1083.79 2238.25 1084.2 Q2236.05 1084.62 2233.41 1085.5 L2233.41 1081.33 Q2236.08 1080.59 2238.39 1080.22 Q2240.73 1079.85 2242.79 1079.85 Q2248.11 1079.85 2251.22 1082.28 Q2254.32 1084.69 2254.32 1088.81 Q2254.32 1091.68 2252.67 1093.67 Q2251.03 1095.64 2248 1096.4 Z" fill="#ffffff" fill-rule="evenodd" fill-opacity="1" /></svg>
