<?xml version="1.0" encoding="utf-8"?>
<svg xmlns="http://www.w3.org/2000/svg" xmlns:xlink="http://www.w3.org/1999/xlink" width="600" height="400" viewBox="0 0 2400 1600">
<defs>
  <clipPath id="clip100">
    <rect x="0" y="0" width="2400" height="1600"/>
  </clipPath>
</defs>
<path clip-path="url(#clip100)" d="M0 1600 L2400 1600 L2400 0 L0 0  Z" fill="#000000" fill-rule="evenodd" fill-opacity="0"/>
<defs>
  <clipPath id="clip101">
    <rect x="480" y="0" width="1681" height="1600"/>
  </clipPath>
</defs>
<path clip-path="url(#clip100)" d="M156.112 686.448 L2352.76 686.448 L2352.76 123.472 L156.112 123.472  Z" fill="#000000" fill-rule="evenodd" fill-opacity="0"/>
<defs>
  <clipPath id="clip102">
    <rect x="156" y="123" width="2198" height="564"/>
  </clipPath>
</defs>
<polyline clip-path="url(#clip102)" style="stroke:#ffffff; stroke-linecap:round; stroke-linejoin:round; stroke-width:2; stroke-opacity:0.1; fill:none" points="197.349,686.448 197.349,123.472 "/>
<polyline clip-path="url(#clip102)" style="stroke:#ffffff; stroke-linecap:round; stroke-linejoin:round; stroke-width:2; stroke-opacity:0.1; fill:none" points="720.658,686.448 720.658,123.472 "/>
<polyline clip-path="url(#clip102)" style="stroke:#ffffff; stroke-linecap:round; stroke-linejoin:round; stroke-width:2; stroke-opacity:0.1; fill:none" points="1243.97,686.448 1243.97,123.472 "/>
<polyline clip-path="url(#clip102)" style="stroke:#ffffff; stroke-linecap:round; stroke-linejoin:round; stroke-width:2; stroke-opacity:0.1; fill:none" points="1767.28,686.448 1767.28,123.472 "/>
<polyline clip-path="url(#clip102)" style="stroke:#ffffff; stroke-linecap:round; stroke-linejoin:round; stroke-width:2; stroke-opacity:0.1; fill:none" points="2290.59,686.448 2290.59,123.472 "/>
<polyline clip-path="url(#clip100)" style="stroke:#ffffff; stroke-linecap:round; stroke-linejoin:round; stroke-width:4; stroke-opacity:1; fill:none" points="156.112,686.448 2352.76,686.448 "/>
<polyline clip-path="url(#clip100)" style="stroke:#ffffff; stroke-linecap:round; stroke-linejoin:round; stroke-width:4; stroke-opacity:1; fill:none" points="197.349,686.448 197.349,667.55 "/>
<polyline clip-path="url(#clip100)" style="stroke:#ffffff; stroke-linecap:round; stroke-linejoin:round; stroke-width:4; stroke-opacity:1; fill:none" points="720.658,686.448 720.658,667.55 "/>
<polyline clip-path="url(#clip100)" style="stroke:#ffffff; stroke-linecap:round; stroke-linejoin:round; stroke-width:4; stroke-opacity:1; fill:none" points="1243.97,686.448 1243.97,667.55 "/>
<polyline clip-path="url(#clip100)" style="stroke:#ffffff; stroke-linecap:round; stroke-linejoin:round; stroke-width:4; stroke-opacity:1; fill:none" points="1767.28,686.448 1767.28,667.55 "/>
<polyline clip-path="url(#clip100)" style="stroke:#ffffff; stroke-linecap:round; stroke-linejoin:round; stroke-width:4; stroke-opacity:1; fill:none" points="2290.59,686.448 2290.59,667.55 "/>
<path clip-path="url(#clip100)" d="M197.349 717.367 Q193.738 717.367 191.909 720.931 Q190.104 724.473 190.104 731.603 Q190.104 738.709 191.909 742.274 Q193.738 745.815 197.349 745.815 Q200.983 745.815 202.789 742.274 Q204.617 738.709 204.617 731.603 Q204.617 724.473 202.789 720.931 Q200.983 717.367 197.349 717.367 M197.349 713.663 Q203.159 713.663 206.215 718.269 Q209.293 722.853 209.293 731.603 Q209.293 740.329 206.215 744.936 Q203.159 749.519 197.349 749.519 Q191.539 749.519 188.46 744.936 Q185.405 740.329 185.405 731.603 Q185.405 722.853 188.46 718.269 Q191.539 713.663 197.349 713.663 Z" fill="#ffffff" fill-rule="evenodd" fill-opacity="1" /><path clip-path="url(#clip100)" d="M699.929 744.913 L716.249 744.913 L716.249 748.848 L694.304 748.848 L694.304 744.913 Q696.966 742.158 701.55 737.528 Q706.156 732.876 707.337 731.533 Q709.582 729.01 710.462 727.274 Q711.364 725.515 711.364 723.825 Q711.364 721.07 709.42 719.334 Q707.499 717.598 704.397 717.598 Q702.198 717.598 699.744 718.362 Q697.314 719.126 694.536 720.677 L694.536 715.955 Q697.36 714.82 699.814 714.242 Q702.267 713.663 704.304 713.663 Q709.675 713.663 712.869 716.348 Q716.063 719.033 716.063 723.524 Q716.063 725.654 715.253 727.575 Q714.466 729.473 712.36 732.066 Q711.781 732.737 708.679 735.954 Q705.577 739.149 699.929 744.913 Z" fill="#ffffff" fill-rule="evenodd" fill-opacity="1" /><path clip-path="url(#clip100)" d="M726.11 714.288 L744.466 714.288 L744.466 718.223 L730.392 718.223 L730.392 726.695 Q731.411 726.348 732.429 726.186 Q733.448 726.001 734.466 726.001 Q740.253 726.001 743.633 729.172 Q747.012 732.343 747.012 737.76 Q747.012 743.339 743.54 746.44 Q740.068 749.519 733.749 749.519 Q731.573 749.519 729.304 749.149 Q727.059 748.778 724.651 748.038 L724.651 743.339 Q726.735 744.473 728.957 745.028 Q731.179 745.584 733.656 745.584 Q737.661 745.584 739.999 743.478 Q742.336 741.371 742.336 737.76 Q742.336 734.149 739.999 732.042 Q737.661 729.936 733.656 729.936 Q731.781 729.936 729.906 730.353 Q728.054 730.769 726.11 731.649 L726.11 714.288 Z" fill="#ffffff" fill-rule="evenodd" fill-opacity="1" /><path clip-path="url(#clip100)" d="M1218.67 714.288 L1237.02 714.288 L1237.02 718.223 L1222.95 718.223 L1222.95 726.695 Q1223.97 726.348 1224.99 726.186 Q1226 726.001 1227.02 726.001 Q1232.81 726.001 1236.19 729.172 Q1239.57 732.343 1239.57 737.76 Q1239.57 743.339 1236.1 746.44 Q1232.63 749.519 1226.31 749.519 Q1224.13 749.519 1221.86 749.149 Q1219.62 748.778 1217.21 748.038 L1217.21 743.339 Q1219.29 744.473 1221.51 745.028 Q1223.74 745.584 1226.21 745.584 Q1230.22 745.584 1232.56 743.478 Q1234.89 741.371 1234.89 737.76 Q1234.89 734.149 1232.56 732.042 Q1230.22 729.936 1226.21 729.936 Q1224.34 729.936 1222.46 730.353 Q1220.61 730.769 1218.67 731.649 L1218.67 714.288 Z" fill="#ffffff" fill-rule="evenodd" fill-opacity="1" /><path clip-path="url(#clip100)" d="M1258.78 717.367 Q1255.17 717.367 1253.34 720.931 Q1251.54 724.473 1251.54 731.603 Q1251.54 738.709 1253.34 742.274 Q1255.17 745.815 1258.78 745.815 Q1262.42 745.815 1264.22 742.274 Q1266.05 738.709 1266.05 731.603 Q1266.05 724.473 1264.22 720.931 Q1262.42 717.367 1258.78 717.367 M1258.78 713.663 Q1264.59 713.663 1267.65 718.269 Q1270.73 722.853 1270.73 731.603 Q1270.73 740.329 1267.65 744.936 Q1264.59 749.519 1258.78 749.519 Q1252.97 749.519 1249.89 744.936 Q1246.84 740.329 1246.84 731.603 Q1246.84 722.853 1249.89 718.269 Q1252.97 713.663 1258.78 713.663 Z" fill="#ffffff" fill-rule="evenodd" fill-opacity="1" /><path clip-path="url(#clip100)" d="M1741.13 714.288 L1763.35 714.288 L1763.35 716.279 L1750.81 748.848 L1745.92 748.848 L1757.73 718.223 L1741.13 718.223 L1741.13 714.288 Z" fill="#ffffff" fill-rule="evenodd" fill-opacity="1" /><path clip-path="url(#clip100)" d="M1772.52 714.288 L1790.88 714.288 L1790.88 718.223 L1776.8 718.223 L1776.8 726.695 Q1777.82 726.348 1778.84 726.186 Q1779.86 726.001 1780.88 726.001 Q1786.66 726.001 1790.04 729.172 Q1793.42 732.343 1793.42 737.76 Q1793.42 743.339 1789.95 746.44 Q1786.48 749.519 1780.16 749.519 Q1777.98 749.519 1775.71 749.149 Q1773.47 748.778 1771.06 748.038 L1771.06 743.339 Q1773.15 744.473 1775.37 745.028 Q1777.59 745.584 1780.07 745.584 Q1784.07 745.584 1786.41 743.478 Q1788.75 741.371 1788.75 737.76 Q1788.75 734.149 1786.41 732.042 Q1784.07 729.936 1780.07 729.936 Q1778.19 729.936 1776.32 730.353 Q1774.46 730.769 1772.52 731.649 L1772.52 714.288 Z" fill="#ffffff" fill-rule="evenodd" fill-opacity="1" /><path clip-path="url(#clip100)" d="M2250.19 744.913 L2257.83 744.913 L2257.83 718.547 L2249.52 720.214 L2249.52 715.955 L2257.79 714.288 L2262.46 714.288 L2262.46 744.913 L2270.1 744.913 L2270.1 748.848 L2250.19 748.848 L2250.19 744.913 Z" fill="#ffffff" fill-rule="evenodd" fill-opacity="1" /><path clip-path="url(#clip100)" d="M2289.55 717.367 Q2285.93 717.367 2284.11 720.931 Q2282.3 724.473 2282.3 731.603 Q2282.3 738.709 2284.11 742.274 Q2285.93 745.815 2289.55 745.815 Q2293.18 745.815 2294.98 742.274 Q2296.81 738.709 2296.81 731.603 Q2296.81 724.473 2294.98 720.931 Q2293.18 717.367 2289.55 717.367 M2289.55 713.663 Q2295.36 713.663 2298.41 718.269 Q2301.49 722.853 2301.49 731.603 Q2301.49 740.329 2298.41 744.936 Q2295.36 749.519 2289.55 749.519 Q2283.73 749.519 2280.66 744.936 Q2277.6 740.329 2277.6 731.603 Q2277.6 722.853 2280.66 718.269 Q2283.73 713.663 2289.55 713.663 Z" fill="#ffffff" fill-rule="evenodd" fill-opacity="1" /><path clip-path="url(#clip100)" d="M2319.71 717.367 Q2316.1 717.367 2314.27 720.931 Q2312.46 724.473 2312.46 731.603 Q2312.46 738.709 2314.27 742.274 Q2316.1 745.815 2319.71 745.815 Q2323.34 745.815 2325.15 742.274 Q2326.98 738.709 2326.98 731.603 Q2326.98 724.473 2325.15 720.931 Q2323.34 717.367 2319.71 717.367 M2319.71 713.663 Q2325.52 713.663 2328.57 718.269 Q2331.65 722.853 2331.65 731.603 Q2331.65 740.329 2328.57 744.936 Q2325.52 749.519 2319.71 749.519 Q2313.9 749.519 2310.82 744.936 Q2307.76 740.329 2307.76 731.603 Q2307.76 722.853 2310.82 718.269 Q2313.9 713.663 2319.71 713.663 Z" fill="#ffffff" fill-rule="evenodd" fill-opacity="1" /><polyline clip-path="url(#clip102)" style="stroke:#ffffff; stroke-linecap:round; stroke-linejoin:round; stroke-width:2; stroke-opacity:0.1; fill:none" points="156.112,674.713 2352.76,674.713 "/>
<polyline clip-path="url(#clip102)" style="stroke:#ffffff; stroke-linecap:round; stroke-linejoin:round; stroke-width:2; stroke-opacity:0.1; fill:none" points="156.112,540.886 2352.76,540.886 "/>
<polyline clip-path="url(#clip102)" style="stroke:#ffffff; stroke-linecap:round; stroke-linejoin:round; stroke-width:2; stroke-opacity:0.1; fill:none" points="156.112,407.059 2352.76,407.059 "/>
<polyline clip-path="url(#clip102)" style="stroke:#ffffff; stroke-linecap:round; stroke-linejoin:round; stroke-width:2; stroke-opacity:0.1; fill:none" points="156.112,273.232 2352.76,273.232 "/>
<polyline clip-path="url(#clip102)" style="stroke:#ffffff; stroke-linecap:round; stroke-linejoin:round; stroke-width:2; stroke-opacity:0.1; fill:none" points="156.112,139.405 2352.76,139.405 "/>
<polyline clip-path="url(#clip100)" style="stroke:#ffffff; stroke-linecap:round; stroke-linejoin:round; stroke-width:4; stroke-opacity:1; fill:none" points="156.112,686.448 156.112,123.472 "/>
<polyline clip-path="url(#clip100)" style="stroke:#ffffff; stroke-linecap:round; stroke-linejoin:round; stroke-width:4; stroke-opacity:1; fill:none" points="156.112,674.713 175.01,674.713 "/>
<polyline clip-path="url(#clip100)" style="stroke:#ffffff; stroke-linecap:round; stroke-linejoin:round; stroke-width:4; stroke-opacity:1; fill:none" points="156.112,540.886 175.01,540.886 "/>
<polyline clip-path="url(#clip100)" style="stroke:#ffffff; stroke-linecap:round; stroke-linejoin:round; stroke-width:4; stroke-opacity:1; fill:none" points="156.112,407.059 175.01,407.059 "/>
<polyline clip-path="url(#clip100)" style="stroke:#ffffff; stroke-linecap:round; stroke-linejoin:round; stroke-width:4; stroke-opacity:1; fill:none" points="156.112,273.232 175.01,273.232 "/>
<polyline clip-path="url(#clip100)" style="stroke:#ffffff; stroke-linecap:round; stroke-linejoin:round; stroke-width:4; stroke-opacity:1; fill:none" points="156.112,139.405 175.01,139.405 "/>
<path clip-path="url(#clip100)" d="M62.9365 660.512 Q59.3254 660.512 57.4967 664.076 Q55.6912 667.618 55.6912 674.748 Q55.6912 681.854 57.4967 685.419 Q59.3254 688.961 62.9365 688.961 Q66.5707 688.961 68.3763 685.419 Q70.205 681.854 70.205 674.748 Q70.205 667.618 68.3763 664.076 Q66.5707 660.512 62.9365 660.512 M62.9365 656.808 Q68.7467 656.808 71.8022 661.414 Q74.8809 665.998 74.8809 674.748 Q74.8809 683.474 71.8022 688.081 Q68.7467 692.664 62.9365 692.664 Q57.1264 692.664 54.0477 688.081 Q50.9921 683.474 50.9921 674.748 Q50.9921 665.998 54.0477 661.414 Q57.1264 656.808 62.9365 656.808 Z" fill="#ffffff" fill-rule="evenodd" fill-opacity="1" /><path clip-path="url(#clip100)" d="M83.0984 686.113 L87.9827 686.113 L87.9827 691.993 L83.0984 691.993 L83.0984 686.113 Z" fill="#ffffff" fill-rule="evenodd" fill-opacity="1" /><path clip-path="url(#clip100)" d="M108.168 660.512 Q104.557 660.512 102.728 664.076 Q100.922 667.618 100.922 674.748 Q100.922 681.854 102.728 685.419 Q104.557 688.961 108.168 688.961 Q111.802 688.961 113.608 685.419 Q115.436 681.854 115.436 674.748 Q115.436 667.618 113.608 664.076 Q111.802 660.512 108.168 660.512 M108.168 656.808 Q113.978 656.808 117.033 661.414 Q120.112 665.998 120.112 674.748 Q120.112 683.474 117.033 688.081 Q113.978 692.664 108.168 692.664 Q102.358 692.664 99.2789 688.081 Q96.2234 683.474 96.2234 674.748 Q96.2234 665.998 99.2789 661.414 Q102.358 656.808 108.168 656.808 Z" fill="#ffffff" fill-rule="evenodd" fill-opacity="1" /><path clip-path="url(#clip100)" d="M63.9319 526.685 Q60.3208 526.685 58.4921 530.25 Q56.6865 533.791 56.6865 540.921 Q56.6865 548.027 58.4921 551.592 Q60.3208 555.134 63.9319 555.134 Q67.5661 555.134 69.3717 551.592 Q71.2004 548.027 71.2004 540.921 Q71.2004 533.791 69.3717 530.25 Q67.5661 526.685 63.9319 526.685 M63.9319 522.981 Q69.742 522.981 72.7976 527.588 Q75.8763 532.171 75.8763 540.921 Q75.8763 549.648 72.7976 554.254 Q69.742 558.837 63.9319 558.837 Q58.1217 558.837 55.043 554.254 Q51.9875 549.648 51.9875 540.921 Q51.9875 532.171 55.043 527.588 Q58.1217 522.981 63.9319 522.981 Z" fill="#ffffff" fill-rule="evenodd" fill-opacity="1" /><path clip-path="url(#clip100)" d="M84.0938 552.286 L88.978 552.286 L88.978 558.166 L84.0938 558.166 L84.0938 552.286 Z" fill="#ffffff" fill-rule="evenodd" fill-opacity="1" /><path clip-path="url(#clip100)" d="M99.2095 523.606 L117.566 523.606 L117.566 527.541 L103.492 527.541 L103.492 536.013 Q104.51 535.666 105.529 535.504 Q106.547 535.319 107.566 535.319 Q113.353 535.319 116.733 538.49 Q120.112 541.662 120.112 547.078 Q120.112 552.657 116.64 555.759 Q113.168 558.837 106.848 558.837 Q104.672 558.837 102.404 558.467 Q100.159 558.097 97.7511 557.356 L97.7511 552.657 Q99.8345 553.791 102.057 554.347 Q104.279 554.902 106.756 554.902 Q110.76 554.902 113.098 552.796 Q115.436 550.689 115.436 547.078 Q115.436 543.467 113.098 541.361 Q110.76 539.254 106.756 539.254 Q104.881 539.254 103.006 539.671 Q101.154 540.087 99.2095 540.967 L99.2095 523.606 Z" fill="#ffffff" fill-rule="evenodd" fill-opacity="1" /><path clip-path="url(#clip100)" d="M53.7467 420.404 L61.3856 420.404 L61.3856 394.038 L53.0754 395.705 L53.0754 391.446 L61.3393 389.779 L66.0152 389.779 L66.0152 420.404 L73.654 420.404 L73.654 424.339 L53.7467 424.339 L53.7467 420.404 Z" fill="#ffffff" fill-rule="evenodd" fill-opacity="1" /><path clip-path="url(#clip100)" d="M83.0984 418.46 L87.9827 418.46 L87.9827 424.339 L83.0984 424.339 L83.0984 418.46 Z" fill="#ffffff" fill-rule="evenodd" fill-opacity="1" /><path clip-path="url(#clip100)" d="M108.168 392.858 Q104.557 392.858 102.728 396.423 Q100.922 399.964 100.922 407.094 Q100.922 414.2 102.728 417.765 Q104.557 421.307 108.168 421.307 Q111.802 421.307 113.608 417.765 Q115.436 414.2 115.436 407.094 Q115.436 399.964 113.608 396.423 Q111.802 392.858 108.168 392.858 M108.168 389.154 Q113.978 389.154 117.033 393.761 Q120.112 398.344 120.112 407.094 Q120.112 415.821 117.033 420.427 Q113.978 425.01 108.168 425.01 Q102.358 425.01 99.2789 420.427 Q96.2234 415.821 96.2234 407.094 Q96.2234 398.344 99.2789 393.761 Q102.358 389.154 108.168 389.154 Z" fill="#ffffff" fill-rule="evenodd" fill-opacity="1" /><path clip-path="url(#clip100)" d="M54.7421 286.577 L62.381 286.577 L62.381 260.212 L54.0708 261.878 L54.0708 257.619 L62.3347 255.952 L67.0106 255.952 L67.0106 286.577 L74.6494 286.577 L74.6494 290.512 L54.7421 290.512 L54.7421 286.577 Z" fill="#ffffff" fill-rule="evenodd" fill-opacity="1" /><path clip-path="url(#clip100)" d="M84.0938 284.633 L88.978 284.633 L88.978 290.512 L84.0938 290.512 L84.0938 284.633 Z" fill="#ffffff" fill-rule="evenodd" fill-opacity="1" /><path clip-path="url(#clip100)" d="M99.2095 255.952 L117.566 255.952 L117.566 259.887 L103.492 259.887 L103.492 268.36 Q104.51 268.012 105.529 267.85 Q106.547 267.665 107.566 267.665 Q113.353 267.665 116.733 270.836 Q120.112 274.008 120.112 279.424 Q120.112 285.003 116.64 288.105 Q113.168 291.184 106.848 291.184 Q104.672 291.184 102.404 290.813 Q100.159 290.443 97.7511 289.702 L97.7511 285.003 Q99.8345 286.137 102.057 286.693 Q104.279 287.248 106.756 287.248 Q110.76 287.248 113.098 285.142 Q115.436 283.035 115.436 279.424 Q115.436 275.813 113.098 273.707 Q110.76 271.6 106.756 271.6 Q104.881 271.6 103.006 272.017 Q101.154 272.434 99.2095 273.313 L99.2095 255.952 Z" fill="#ffffff" fill-rule="evenodd" fill-opacity="1" /><path clip-path="url(#clip100)" d="M56.9643 152.75 L73.2837 152.75 L73.2837 156.685 L51.3393 156.685 L51.3393 152.75 Q54.0014 149.996 58.5847 145.366 Q63.1911 140.713 64.3717 139.371 Q66.617 136.848 67.4967 135.111 Q68.3994 133.352 68.3994 131.662 Q68.3994 128.908 66.455 127.172 Q64.5337 125.436 61.4319 125.436 Q59.2328 125.436 56.7791 126.199 Q54.3486 126.963 51.5708 128.514 L51.5708 123.792 Q54.3949 122.658 56.8486 122.079 Q59.3023 121.5 61.3393 121.5 Q66.7096 121.5 69.9041 124.186 Q73.0985 126.871 73.0985 131.361 Q73.0985 133.491 72.2883 135.412 Q71.5013 137.311 69.3948 139.903 Q68.8161 140.574 65.7143 143.792 Q62.6124 146.986 56.9643 152.75 Z" fill="#ffffff" fill-rule="evenodd" fill-opacity="1" /><path clip-path="url(#clip100)" d="M83.0984 150.806 L87.9827 150.806 L87.9827 156.685 L83.0984 156.685 L83.0984 150.806 Z" fill="#ffffff" fill-rule="evenodd" fill-opacity="1" /><path clip-path="url(#clip100)" d="M108.168 125.204 Q104.557 125.204 102.728 128.769 Q100.922 132.311 100.922 139.44 Q100.922 146.547 102.728 150.111 Q104.557 153.653 108.168 153.653 Q111.802 153.653 113.608 150.111 Q115.436 146.547 115.436 139.44 Q115.436 132.311 113.608 128.769 Q111.802 125.204 108.168 125.204 M108.168 121.5 Q113.978 121.5 117.033 126.107 Q120.112 130.69 120.112 139.44 Q120.112 148.167 117.033 152.773 Q113.978 157.357 108.168 157.357 Q102.358 157.357 99.2789 152.773 Q96.2234 148.167 96.2234 139.44 Q96.2234 130.69 99.2789 126.107 Q102.358 121.5 108.168 121.5 Z" fill="#ffffff" fill-rule="evenodd" fill-opacity="1" /><path clip-path="url(#clip100)" d="M1125.9 12.096 L1138.09 12.096 L1153.53 53.2532 L1169.04 12.096 L1181.23 12.096 L1181.23 72.576 L1173.25 72.576 L1173.25 19.4686 L1157.66 60.9499 L1149.43 60.9499 L1133.84 19.4686 L1133.84 72.576 L1125.9 72.576 L1125.9 12.096 Z" fill="#ffffff" fill-rule="evenodd" fill-opacity="1" /><path clip-path="url(#clip100)" d="M1235.96 48.0275 L1235.96 51.6733 L1201.69 51.6733 Q1202.18 59.3701 1206.31 63.421 Q1210.48 67.4314 1217.89 67.4314 Q1222.19 67.4314 1226.2 66.3781 Q1230.25 65.3249 1234.22 63.2184 L1234.22 70.267 Q1230.21 71.9684 1226 72.8596 Q1221.78 73.7508 1217.45 73.7508 Q1206.59 73.7508 1200.23 67.4314 Q1193.91 61.1119 1193.91 50.3365 Q1193.91 39.1965 1199.91 32.6746 Q1205.94 26.1121 1216.15 26.1121 Q1225.31 26.1121 1230.61 32.0264 Q1235.96 37.9003 1235.96 48.0275 M1228.51 45.84 Q1228.43 39.7232 1225.06 36.0774 Q1221.74 32.4315 1216.23 32.4315 Q1210 32.4315 1206.23 35.9558 Q1202.5 39.4801 1201.93 45.8805 L1228.51 45.84 Z" fill="#ffffff" fill-rule="evenodd" fill-opacity="1" /><path clip-path="url(#clip100)" d="M1268.81 49.7694 Q1259.78 49.7694 1256.3 51.8354 Q1252.81 53.9013 1252.81 58.8839 Q1252.81 62.8538 1255.41 65.2034 Q1258.04 67.5124 1262.54 67.5124 Q1268.73 67.5124 1272.46 63.1374 Q1276.23 58.7219 1276.23 51.4303 L1276.23 49.7694 L1268.81 49.7694 M1283.68 46.6907 L1283.68 72.576 L1276.23 72.576 L1276.23 65.6895 Q1273.68 69.8214 1269.87 71.8063 Q1266.06 73.7508 1260.55 73.7508 Q1253.58 73.7508 1249.45 69.8619 Q1245.36 65.9325 1245.36 59.3701 Q1245.36 51.7138 1250.46 47.825 Q1255.61 43.9361 1265.78 43.9361 L1276.23 43.9361 L1276.23 43.2069 Q1276.23 38.0623 1272.83 35.2672 Q1269.46 32.4315 1263.35 32.4315 Q1259.46 32.4315 1255.77 33.3632 Q1252.08 34.295 1248.68 36.1584 L1248.68 29.2718 Q1252.77 27.692 1256.62 26.9223 Q1260.47 26.1121 1264.12 26.1121 Q1273.96 26.1121 1278.82 31.2163 Q1283.68 36.3204 1283.68 46.6907 Z" fill="#ffffff" fill-rule="evenodd" fill-opacity="1" /><path clip-path="url(#clip100)" d="M1336.75 45.1919 L1336.75 72.576 L1329.29 72.576 L1329.29 45.4349 Q1329.29 38.994 1326.78 35.7938 Q1324.27 32.5936 1319.25 32.5936 Q1313.21 32.5936 1309.73 36.4419 Q1306.25 40.2903 1306.25 46.9338 L1306.25 72.576 L1298.75 72.576 L1298.75 27.2059 L1306.25 27.2059 L1306.25 34.2544 Q1308.92 30.163 1312.52 28.1376 Q1316.17 26.1121 1320.91 26.1121 Q1328.73 26.1121 1332.74 30.9732 Q1336.75 35.7938 1336.75 45.1919 Z" fill="#ffffff" fill-rule="evenodd" fill-opacity="1" /><path clip-path="url(#clip100)" d="M1380.54 28.5427 L1380.54 35.5912 Q1377.38 33.9709 1373.98 33.1607 Q1370.57 32.3505 1366.93 32.3505 Q1361.38 32.3505 1358.58 34.0519 Q1355.83 35.7533 1355.83 39.156 Q1355.83 41.7486 1357.81 43.2475 Q1359.8 44.7058 1365.79 46.0426 L1368.35 46.6097 Q1376.29 48.3111 1379.61 51.4303 Q1382.97 54.509 1382.97 60.0587 Q1382.97 66.3781 1377.95 70.0644 Q1372.96 73.7508 1364.21 73.7508 Q1360.57 73.7508 1356.6 73.0216 Q1352.67 72.3329 1348.29 70.9151 L1348.29 63.2184 Q1352.43 65.3654 1356.44 66.4591 Q1360.45 67.5124 1364.38 67.5124 Q1369.64 67.5124 1372.48 65.73 Q1375.31 63.9071 1375.31 60.6258 Q1375.31 57.5877 1373.25 55.9673 Q1371.22 54.3469 1364.29 52.8481 L1361.7 52.2405 Q1354.77 50.7821 1351.7 47.7845 Q1348.62 44.7463 1348.62 39.4801 Q1348.62 33.0797 1353.15 29.5959 Q1357.69 26.1121 1366.04 26.1121 Q1370.17 26.1121 1373.81 26.7198 Q1377.46 27.3274 1380.54 28.5427 Z" fill="#ffffff" fill-rule="evenodd" fill-opacity="1" /><polyline clip-path="url(#clip102)" style="stroke:#009af9; stroke-linecap:round; stroke-linejoin:round; stroke-width:4; stroke-opacity:1; fill:none" points="218.281,670.515 239.214,669.831 260.146,663.043 281.078,661.057 302.011,647.964 322.943,633.352 343.876,643.024 364.808,638.079 385.74,635.006 406.673,615.687 427.605,634.116 448.537,612.329 469.47,597.644 490.402,610.444 511.335,635.385 532.267,584.98 553.199,614.622 574.132,574.719 595.064,571.187 615.996,549.19 636.929,557.071 657.861,563.594 678.794,520.419 699.726,629.592 720.658,529.998 741.591,558.55 762.523,540.95 783.456,493.47 804.388,532.164 825.32,460.873 846.253,488.72 867.185,481.878 888.117,554.045 909.05,579.957 929.982,500.185 950.915,484.498 971.847,475.414 992.779,436.495 1013.71,496.102 1034.64,437.053 1055.58,487.126 1076.51,512.216 1097.44,426.585 1118.37,437.352 1139.31,466.633 1160.24,419.723 1181.17,384.051 1202.1,439.931 1223.04,401.277 1243.97,380.563 1264.9,354.319 1285.83,362.789 1306.76,446.414 1327.7,345.154 1348.63,398.058 1369.56,372.627 1390.49,335.551 1411.43,378.212 1432.36,355.441 1453.29,366.472 1474.22,330.454 1495.16,389.402 1516.09,355.641 1537.02,283.354 1557.95,377.006 1578.89,363.947 1599.82,317.516 1620.75,374.692 1641.68,260.602 1662.62,266.788 1683.55,261.187 1704.48,249.616 1725.41,292.005 1746.34,235.388 1767.28,308.722 1788.21,266.77 1809.14,263.613 1830.07,301.608 1851.01,264.966 1871.94,247.934 1892.87,226.321 1913.8,229.379 1934.74,262.126 1955.67,211.132 1976.6,235.999 1997.53,239.576 2018.47,217.214 2039.4,205.185 2060.33,197.161 2081.26,199.176 2102.2,184.022 2123.13,185.818 2144.06,172.187 2164.99,160.184 2185.92,154.383 2206.86,165.676 2227.79,157.198 2248.72,146.65 2269.65,143.718 2290.59,139.405 "/>
<polyline clip-path="url(#clip102)" style="stroke:#e26f46; stroke-linecap:round; stroke-linejoin:round; stroke-width:4; stroke-opacity:1; fill:none" points="218.281,534.278 239.214,531.775 260.146,538.202 281.078,536.852 302.011,533.95 322.943,534.756 343.876,531.901 364.808,535.645 385.74,530.529 406.673,534.751 427.605,533.057 448.537,536.21 469.47,537.034 490.402,527.103 511.335,536.647 532.267,532.604 553.199,535.36 574.132,533.571 595.064,534.289 615.996,530.01 636.929,518.363 657.861,529.506 678.794,536.622 699.726,535.421 720.658,529.302 741.591,544.077 762.523,533.827 783.456,538.689 804.388,536.891 825.32,535.566 846.253,536.216 867.185,539.262 888.117,529.101 909.05,538.654 929.982,532.417 950.915,534.833 971.847,536.068 992.779,532.06 1013.71,531.898 1034.64,541.631 1055.58,540.614 1076.51,536.56 1097.44,542.802 1118.37,537.278 1139.31,531.638 1160.24,530.31 1181.17,537.577 1202.1,532.677 1223.04,534.081 1243.97,537.127 1264.9,525.843 1285.83,533.14 1306.76,537.261 1327.7,529.364 1348.63,534.647 1369.56,537.109 1390.49,539.738 1411.43,530.939 1432.36,529.614 1453.29,531.95 1474.22,532.676 1495.16,534.959 1516.09,525.067 1537.02,534.841 1557.95,536.441 1578.89,531.432 1599.82,536.066 1620.75,534.282 1641.68,535.609 1662.62,531.016 1683.55,534.079 1704.48,536.721 1725.41,535.283 1746.34,529.886 1767.28,541.782 1788.21,529.294 1809.14,533.202 1830.07,537.459 1851.01,535.35 1871.94,538.422 1892.87,527.468 1913.8,536.264 1934.74,535.855 1955.67,534.005 1976.6,538.238 1997.53,540.733 2018.47,536.721 2039.4,539.55 2060.33,534.613 2081.26,540.93 2102.2,541.337 2123.13,533.715 2144.06,536.218 2164.99,530.607 2185.92,531.749 2206.86,532.502 2227.79,536.053 2248.72,528.356 2269.65,524.58 2290.59,533.326 "/>
<polyline clip-path="url(#clip102)" style="stroke:#3da44d; stroke-linecap:round; stroke-linejoin:round; stroke-width:4; stroke-opacity:1; fill:none" points="218.281,533.273 239.214,528.073 260.146,551.789 281.078,528.014 302.011,493.381 322.943,479.979 343.876,558.773 364.808,523.509 385.74,534.822 406.673,531.665 427.605,574.042 448.537,532.548 469.47,549.341 490.402,473.022 511.335,552.227 532.267,559.421 553.199,543.962 574.132,554.901 595.064,532.664 615.996,586.005 636.929,533.978 657.861,590.116 678.794,494.788 699.726,519.804 720.658,529.197 741.591,536.553 762.523,553.329 783.456,522.883 804.388,572.637 825.32,536.393 846.253,488.311 867.185,523.546 888.117,542.943 909.05,518.44 929.982,515.793 950.915,546.558 971.847,525.084 992.779,530.024 1013.71,532.769 1034.64,546.4 1055.58,592.542 1076.51,583.678 1097.44,520.102 1118.37,563.42 1139.31,524.252 1160.24,522.951 1181.17,554.96 1202.1,542.584 1223.04,516.223 1243.97,526.886 1264.9,549.705 1285.83,524.493 1306.76,488.407 1327.7,546.526 1348.63,579.509 1369.56,511.175 1390.49,510.764 1411.43,532.677 1432.36,506.226 1453.29,554.045 1474.22,584.444 1495.16,528.521 1516.09,553.07 1537.02,564.633 1557.95,556.409 1578.89,585.22 1599.82,503.674 1620.75,621.321 1641.68,536.875 1662.62,556.734 1683.55,512.676 1704.48,515.919 1725.41,553.917 1746.34,512.799 1767.28,549.532 1788.21,526.512 1809.14,567.003 1830.07,495.145 1851.01,534.514 1871.94,555.652 1892.87,541.899 1913.8,532.435 1934.74,517.841 1955.67,562.58 1976.6,568.292 1997.53,561.019 2018.47,578.378 2039.4,563.596 2060.33,520.154 2081.26,499.015 2102.2,518.694 2123.13,526.184 2144.06,565.195 2164.99,573.329 2185.92,545.969 2206.86,537.483 2227.79,526.977 2248.72,557.011 2269.65,585.626 2290.59,557.317 "/>
<path clip-path="url(#clip100)" d="M229.334 349.598 L520.641 349.598 L520.641 142.238 L229.334 142.238  Z" fill="#000000" fill-rule="evenodd" fill-opacity="0"/>
<polyline clip-path="url(#clip100)" style="stroke:#ffffff; stroke-linecap:round; stroke-linejoin:round; stroke-width:4; stroke-opacity:1; fill:none" points="229.334,349.598 520.641,349.598 520.641,142.238 229.334,142.238 229.334,349.598 "/>
<polyline clip-path="url(#clip100)" style="stroke:#009af9; stroke-linecap:round; stroke-linejoin:round; stroke-width:4; stroke-opacity:1; fill:none" points="253.741,194.078 400.184,194.078 "/>
<path clip-path="url(#clip100)" d="M439.776 189.414 Q439.058 188.997 438.202 188.812 Q437.369 188.603 436.35 188.603 Q432.739 188.603 430.794 190.965 Q428.873 193.303 428.873 197.701 L428.873 211.358 L424.591 211.358 L424.591 185.432 L428.873 185.432 L428.873 189.46 Q430.216 187.099 432.369 185.965 Q434.521 184.807 437.6 184.807 Q438.04 184.807 438.572 184.877 Q439.105 184.923 439.753 185.039 L439.776 189.414 Z" fill="#ffffff" fill-rule="evenodd" fill-opacity="1" /><path clip-path="url(#clip100)" d="M448.364 207.469 L448.364 221.219 L444.081 221.219 L444.081 185.432 L448.364 185.432 L448.364 189.367 Q449.706 187.053 451.743 185.941 Q453.804 184.807 456.651 184.807 Q461.373 184.807 464.313 188.557 Q467.276 192.307 467.276 198.418 Q467.276 204.529 464.313 208.279 Q461.373 212.029 456.651 212.029 Q453.804 212.029 451.743 210.918 Q449.706 209.784 448.364 207.469 M462.854 198.418 Q462.854 193.719 460.91 191.057 Q458.989 188.372 455.609 188.372 Q452.23 188.372 450.285 191.057 Q448.364 193.719 448.364 198.418 Q448.364 203.117 450.285 205.802 Q452.23 208.464 455.609 208.464 Q458.989 208.464 460.91 205.802 Q462.854 203.117 462.854 198.418 Z" fill="#ffffff" fill-rule="evenodd" fill-opacity="1" /><path clip-path="url(#clip100)" d="M475.748 207.423 L483.387 207.423 L483.387 181.057 L475.077 182.724 L475.077 178.465 L483.34 176.798 L488.016 176.798 L488.016 207.423 L495.655 207.423 L495.655 211.358 L475.748 211.358 L475.748 207.423 Z" fill="#ffffff" fill-rule="evenodd" fill-opacity="1" /><polyline clip-path="url(#clip100)" style="stroke:#e26f46; stroke-linecap:round; stroke-linejoin:round; stroke-width:4; stroke-opacity:1; fill:none" points="253.741,245.918 400.184,245.918 "/>
<path clip-path="url(#clip100)" d="M439.776 241.254 Q439.058 240.837 438.202 240.652 Q437.369 240.443 436.35 240.443 Q432.739 240.443 430.794 242.805 Q428.873 245.143 428.873 249.541 L428.873 263.198 L424.591 263.198 L424.591 237.272 L428.873 237.272 L428.873 241.3 Q430.216 238.939 432.369 237.805 Q434.521 236.647 437.6 236.647 Q438.04 236.647 438.572 236.717 Q439.105 236.763 439.753 236.879 L439.776 241.254 Z" fill="#ffffff" fill-rule="evenodd" fill-opacity="1" /><path clip-path="url(#clip100)" d="M448.364 259.309 L448.364 273.059 L444.081 273.059 L444.081 237.272 L448.364 237.272 L448.364 241.207 Q449.706 238.893 451.743 237.781 Q453.804 236.647 456.651 236.647 Q461.373 236.647 464.313 240.397 Q467.276 244.147 467.276 250.258 Q467.276 256.369 464.313 260.119 Q461.373 263.869 456.651 263.869 Q453.804 263.869 451.743 262.758 Q449.706 261.624 448.364 259.309 M462.854 250.258 Q462.854 245.559 460.91 242.897 Q458.989 240.212 455.609 240.212 Q452.23 240.212 450.285 242.897 Q448.364 245.559 448.364 250.258 Q448.364 254.957 450.285 257.642 Q452.23 260.304 455.609 260.304 Q458.989 260.304 460.91 257.642 Q462.854 254.957 462.854 250.258 Z" fill="#ffffff" fill-rule="evenodd" fill-opacity="1" /><path clip-path="url(#clip100)" d="M478.966 259.263 L495.285 259.263 L495.285 263.198 L473.341 263.198 L473.341 259.263 Q476.003 256.508 480.586 251.879 Q485.192 247.226 486.373 245.883 Q488.618 243.36 489.498 241.624 Q490.401 239.865 490.401 238.175 Q490.401 235.42 488.456 233.684 Q486.535 231.948 483.433 231.948 Q481.234 231.948 478.78 232.712 Q476.35 233.476 473.572 235.027 L473.572 230.305 Q476.396 229.17 478.85 228.592 Q481.303 228.013 483.34 228.013 Q488.711 228.013 491.905 230.698 Q495.1 233.383 495.1 237.874 Q495.1 240.004 494.29 241.925 Q493.502 243.823 491.396 246.416 Q490.817 247.087 487.715 250.305 Q484.614 253.499 478.966 259.263 Z" fill="#ffffff" fill-rule="evenodd" fill-opacity="1" /><polyline clip-path="url(#clip100)" style="stroke:#3da44d; stroke-linecap:round; stroke-linejoin:round; stroke-width:4; stroke-opacity:1; fill:none" points="253.741,297.758 400.184,297.758 "/>
<path clip-path="url(#clip100)" d="M439.776 293.094 Q439.058 292.677 438.202 292.492 Q437.369 292.283 436.35 292.283 Q432.739 292.283 430.794 294.645 Q428.873 296.983 428.873 301.381 L428.873 315.038 L424.591 315.038 L424.591 289.112 L428.873 289.112 L428.873 293.14 Q430.216 290.779 432.369 289.645 Q434.521 288.487 437.6 288.487 Q438.04 288.487 438.572 288.557 Q439.105 288.603 439.753 288.719 L439.776 293.094 Z" fill="#ffffff" fill-rule="evenodd" fill-opacity="1" /><path clip-path="url(#clip100)" d="M448.364 311.149 L448.364 324.899 L444.081 324.899 L444.081 289.112 L448.364 289.112 L448.364 293.047 Q449.706 290.733 451.743 289.621 Q453.804 288.487 456.651 288.487 Q461.373 288.487 464.313 292.237 Q467.276 295.987 467.276 302.098 Q467.276 308.209 464.313 311.959 Q461.373 315.709 456.651 315.709 Q453.804 315.709 451.743 314.598 Q449.706 313.464 448.364 311.149 M462.854 302.098 Q462.854 297.399 460.91 294.737 Q458.989 292.052 455.609 292.052 Q452.23 292.052 450.285 294.737 Q448.364 297.399 448.364 302.098 Q448.364 306.797 450.285 309.482 Q452.23 312.144 455.609 312.144 Q458.989 312.144 460.91 309.482 Q462.854 306.797 462.854 302.098 Z" fill="#ffffff" fill-rule="evenodd" fill-opacity="1" /><path clip-path="url(#clip100)" d="M489.104 296.404 Q492.461 297.121 494.336 299.39 Q496.234 301.658 496.234 304.992 Q496.234 310.107 492.715 312.908 Q489.197 315.709 482.715 315.709 Q480.54 315.709 478.225 315.269 Q475.933 314.853 473.479 313.996 L473.479 309.482 Q475.424 310.617 477.739 311.195 Q480.053 311.774 482.577 311.774 Q486.975 311.774 489.266 310.038 Q491.581 308.302 491.581 304.992 Q491.581 301.936 489.428 300.223 Q487.299 298.487 483.479 298.487 L479.452 298.487 L479.452 294.645 L483.665 294.645 Q487.114 294.645 488.942 293.279 Q490.771 291.89 490.771 289.297 Q490.771 286.635 488.873 285.223 Q486.998 283.788 483.479 283.788 Q481.558 283.788 479.359 284.205 Q477.16 284.621 474.521 285.501 L474.521 281.334 Q477.183 280.594 479.498 280.223 Q481.836 279.853 483.896 279.853 Q489.22 279.853 492.322 282.284 Q495.424 284.691 495.424 288.811 Q495.424 291.682 493.78 293.672 Q492.137 295.64 489.104 296.404 Z" fill="#ffffff" fill-rule="evenodd" fill-opacity="1" /><path clip-path="url(#clip100)" d="M156.112 1486.45 L2352.76 1486.45 L2352.76 923.472 L156.112 923.472  Z" fill="#000000" fill-rule="evenodd" fill-opacity="0"/>
<defs>
  <clipPath id="clip103">
    <rect x="156" y="923" width="2198" height="564"/>
  </clipPath>
</defs>
<polyline clip-path="url(#clip103)" style="stroke:#ffffff; stroke-linecap:round; stroke-linejoin:round; stroke-width:2; stroke-opacity:0.1; fill:none" points="197.349,1486.45 197.349,923.472 "/>
<polyline clip-path="url(#clip103)" style="stroke:#ffffff; stroke-linecap:round; stroke-linejoin:round; stroke-width:2; stroke-opacity:0.1; fill:none" points="720.658,1486.45 720.658,923.472 "/>
<polyline clip-path="url(#clip103)" style="stroke:#ffffff; stroke-linecap:round; stroke-linejoin:round; stroke-width:2; stroke-opacity:0.1; fill:none" points="1243.97,1486.45 1243.97,923.472 "/>
<polyline clip-path="url(#clip103)" style="stroke:#ffffff; stroke-linecap:round; stroke-linejoin:round; stroke-width:2; stroke-opacity:0.1; fill:none" points="1767.28,1486.45 1767.28,923.472 "/>
<polyline clip-path="url(#clip103)" style="stroke:#ffffff; stroke-linecap:round; stroke-linejoin:round; stroke-width:2; stroke-opacity:0.1; fill:none" points="2290.59,1486.45 2290.59,923.472 "/>
<polyline clip-path="url(#clip100)" style="stroke:#ffffff; stroke-linecap:round; stroke-linejoin:round; stroke-width:4; stroke-opacity:1; fill:none" points="156.112,1486.45 2352.76,1486.45 "/>
<polyline clip-path="url(#clip100)" style="stroke:#ffffff; stroke-linecap:round; stroke-linejoin:round; stroke-width:4; stroke-opacity:1; fill:none" points="197.349,1486.45 197.349,1467.55 "/>
<polyline clip-path="url(#clip100)" style="stroke:#ffffff; stroke-linecap:round; stroke-linejoin:round; stroke-width:4; stroke-opacity:1; fill:none" points="720.658,1486.45 720.658,1467.55 "/>
<polyline clip-path="url(#clip100)" style="stroke:#ffffff; stroke-linecap:round; stroke-linejoin:round; stroke-width:4; stroke-opacity:1; fill:none" points="1243.97,1486.45 1243.97,1467.55 "/>
<polyline clip-path="url(#clip100)" style="stroke:#ffffff; stroke-linecap:round; stroke-linejoin:round; stroke-width:4; stroke-opacity:1; fill:none" points="1767.28,1486.45 1767.28,1467.55 "/>
<polyline clip-path="url(#clip100)" style="stroke:#ffffff; stroke-linecap:round; stroke-linejoin:round; stroke-width:4; stroke-opacity:1; fill:none" points="2290.59,1486.45 2290.59,1467.55 "/>
<path clip-path="url(#clip100)" d="M197.349 1517.37 Q193.738 1517.37 191.909 1520.93 Q190.104 1524.47 190.104 1531.6 Q190.104 1538.71 191.909 1542.27 Q193.738 1545.82 197.349 1545.82 Q200.983 1545.82 202.789 1542.27 Q204.617 1538.71 204.617 1531.6 Q204.617 1524.47 202.789 1520.93 Q200.983 1517.37 197.349 1517.37 M197.349 1513.66 Q203.159 1513.66 206.215 1518.27 Q209.293 1522.85 209.293 1531.6 Q209.293 1540.33 206.215 1544.94 Q203.159 1549.52 197.349 1549.52 Q191.539 1549.52 188.46 1544.94 Q185.405 1540.33 185.405 1531.6 Q185.405 1522.85 188.46 1518.27 Q191.539 1513.66 197.349 1513.66 Z" fill="#ffffff" fill-rule="evenodd" fill-opacity="1" /><path clip-path="url(#clip100)" d="M699.929 1544.91 L716.249 1544.91 L716.249 1548.85 L694.304 1548.85 L694.304 1544.91 Q696.966 1542.16 701.55 1537.53 Q706.156 1532.88 707.337 1531.53 Q709.582 1529.01 710.462 1527.27 Q711.364 1525.51 711.364 1523.82 Q711.364 1521.07 709.42 1519.33 Q707.499 1517.6 704.397 1517.6 Q702.198 1517.6 699.744 1518.36 Q697.314 1519.13 694.536 1520.68 L694.536 1515.95 Q697.36 1514.82 699.814 1514.24 Q702.267 1513.66 704.304 1513.66 Q709.675 1513.66 712.869 1516.35 Q716.063 1519.03 716.063 1523.52 Q716.063 1525.65 715.253 1527.57 Q714.466 1529.47 712.36 1532.07 Q711.781 1532.74 708.679 1535.95 Q705.577 1539.15 699.929 1544.91 Z" fill="#ffffff" fill-rule="evenodd" fill-opacity="1" /><path clip-path="url(#clip100)" d="M726.11 1514.29 L744.466 1514.29 L744.466 1518.22 L730.392 1518.22 L730.392 1526.7 Q731.411 1526.35 732.429 1526.19 Q733.448 1526 734.466 1526 Q740.253 1526 743.633 1529.17 Q747.012 1532.34 747.012 1537.76 Q747.012 1543.34 743.54 1546.44 Q740.068 1549.52 733.749 1549.52 Q731.573 1549.52 729.304 1549.15 Q727.059 1548.78 724.651 1548.04 L724.651 1543.34 Q726.735 1544.47 728.957 1545.03 Q731.179 1545.58 733.656 1545.58 Q737.661 1545.58 739.999 1543.48 Q742.336 1541.37 742.336 1537.76 Q742.336 1534.15 739.999 1532.04 Q737.661 1529.94 733.656 1529.94 Q731.781 1529.94 729.906 1530.35 Q728.054 1530.77 726.11 1531.65 L726.11 1514.29 Z" fill="#ffffff" fill-rule="evenodd" fill-opacity="1" /><path clip-path="url(#clip100)" d="M1218.67 1514.29 L1237.02 1514.29 L1237.02 1518.22 L1222.95 1518.22 L1222.95 1526.7 Q1223.97 1526.35 1224.99 1526.19 Q1226 1526 1227.02 1526 Q1232.81 1526 1236.19 1529.17 Q1239.57 1532.34 1239.57 1537.76 Q1239.57 1543.34 1236.1 1546.44 Q1232.63 1549.52 1226.31 1549.52 Q1224.13 1549.52 1221.86 1549.15 Q1219.62 1548.78 1217.21 1548.04 L1217.21 1543.34 Q1219.29 1544.47 1221.51 1545.03 Q1223.74 1545.58 1226.21 1545.58 Q1230.22 1545.58 1232.56 1543.48 Q1234.89 1541.37 1234.89 1537.76 Q1234.89 1534.15 1232.56 1532.04 Q1230.22 1529.94 1226.21 1529.94 Q1224.34 1529.94 1222.46 1530.35 Q1220.61 1530.77 1218.67 1531.65 L1218.67 1514.29 Z" fill="#ffffff" fill-rule="evenodd" fill-opacity="1" /><path clip-path="url(#clip100)" d="M1258.78 1517.37 Q1255.17 1517.37 1253.34 1520.93 Q1251.54 1524.47 1251.54 1531.6 Q1251.54 1538.71 1253.34 1542.27 Q1255.17 1545.82 1258.78 1545.82 Q1262.42 1545.82 1264.22 1542.27 Q1266.05 1538.71 1266.05 1531.6 Q1266.05 1524.47 1264.22 1520.93 Q1262.42 1517.37 1258.78 1517.37 M1258.78 1513.66 Q1264.59 1513.66 1267.65 1518.27 Q1270.73 1522.85 1270.73 1531.6 Q1270.73 1540.33 1267.65 1544.94 Q1264.59 1549.52 1258.78 1549.52 Q1252.97 1549.52 1249.89 1544.94 Q1246.84 1540.33 1246.84 1531.6 Q1246.84 1522.85 1249.89 1518.27 Q1252.97 1513.66 1258.78 1513.66 Z" fill="#ffffff" fill-rule="evenodd" fill-opacity="1" /><path clip-path="url(#clip100)" d="M1741.13 1514.29 L1763.35 1514.29 L1763.35 1516.28 L1750.81 1548.85 L1745.92 1548.85 L1757.73 1518.22 L1741.13 1518.22 L1741.13 1514.29 Z" fill="#ffffff" fill-rule="evenodd" fill-opacity="1" /><path clip-path="url(#clip100)" d="M1772.52 1514.29 L1790.88 1514.29 L1790.88 1518.22 L1776.8 1518.22 L1776.8 1526.7 Q1777.82 1526.35 1778.84 1526.19 Q1779.86 1526 1780.88 1526 Q1786.66 1526 1790.04 1529.17 Q1793.42 1532.34 1793.42 1537.76 Q1793.42 1543.34 1789.95 1546.44 Q1786.48 1549.52 1780.16 1549.52 Q1777.98 1549.52 1775.71 1549.15 Q1773.47 1548.78 1771.06 1548.04 L1771.06 1543.34 Q1773.15 1544.47 1775.37 1545.03 Q1777.59 1545.58 1780.07 1545.58 Q1784.07 1545.58 1786.41 1543.48 Q1788.75 1541.37 1788.75 1537.76 Q1788.75 1534.15 1786.41 1532.04 Q1784.07 1529.94 1780.07 1529.94 Q1778.19 1529.94 1776.32 1530.35 Q1774.46 1530.77 1772.52 1531.65 L1772.52 1514.29 Z" fill="#ffffff" fill-rule="evenodd" fill-opacity="1" /><path clip-path="url(#clip100)" d="M2250.19 1544.91 L2257.83 1544.91 L2257.83 1518.55 L2249.52 1520.21 L2249.52 1515.95 L2257.79 1514.29 L2262.46 1514.29 L2262.46 1544.91 L2270.1 1544.91 L2270.1 1548.85 L2250.19 1548.85 L2250.19 1544.91 Z" fill="#ffffff" fill-rule="evenodd" fill-opacity="1" /><path clip-path="url(#clip100)" d="M2289.55 1517.37 Q2285.93 1517.37 2284.11 1520.93 Q2282.3 1524.47 2282.3 1531.6 Q2282.3 1538.71 2284.11 1542.27 Q2285.93 1545.82 2289.55 1545.82 Q2293.18 1545.82 2294.98 1542.27 Q2296.81 1538.71 2296.81 1531.6 Q2296.81 1524.47 2294.98 1520.93 Q2293.18 1517.37 2289.55 1517.37 M2289.55 1513.66 Q2295.36 1513.66 2298.41 1518.27 Q2301.49 1522.85 2301.49 1531.6 Q2301.49 1540.33 2298.41 1544.94 Q2295.36 1549.52 2289.55 1549.52 Q2283.73 1549.52 2280.66 1544.94 Q2277.6 1540.33 2277.6 1531.6 Q2277.6 1522.85 2280.66 1518.27 Q2283.73 1513.66 2289.55 1513.66 Z" fill="#ffffff" fill-rule="evenodd" fill-opacity="1" /><path clip-path="url(#clip100)" d="M2319.71 1517.37 Q2316.1 1517.37 2314.27 1520.93 Q2312.46 1524.47 2312.46 1531.6 Q2312.46 1538.71 2314.27 1542.27 Q2316.1 1545.82 2319.71 1545.82 Q2323.34 1545.82 2325.15 1542.27 Q2326.98 1538.71 2326.98 1531.6 Q2326.98 1524.47 2325.15 1520.93 Q2323.34 1517.37 2319.71 1517.37 M2319.71 1513.66 Q2325.52 1513.66 2328.57 1518.27 Q2331.65 1522.85 2331.65 1531.6 Q2331.65 1540.33 2328.57 1544.94 Q2325.52 1549.52 2319.71 1549.52 Q2313.9 1549.52 2310.82 1544.94 Q2307.76 1540.33 2307.76 1531.6 Q2307.76 1522.85 2310.82 1518.27 Q2313.9 1513.66 2319.71 1513.66 Z" fill="#ffffff" fill-rule="evenodd" fill-opacity="1" /><polyline clip-path="url(#clip103)" style="stroke:#ffffff; stroke-linecap:round; stroke-linejoin:round; stroke-width:2; stroke-opacity:0.1; fill:none" points="156.112,1470.51 2352.76,1470.51 "/>
<polyline clip-path="url(#clip103)" style="stroke:#ffffff; stroke-linecap:round; stroke-linejoin:round; stroke-width:2; stroke-opacity:0.1; fill:none" points="156.112,1306.1 2352.76,1306.1 "/>
<polyline clip-path="url(#clip103)" style="stroke:#ffffff; stroke-linecap:round; stroke-linejoin:round; stroke-width:2; stroke-opacity:0.1; fill:none" points="156.112,1141.68 2352.76,1141.68 "/>
<polyline clip-path="url(#clip103)" style="stroke:#ffffff; stroke-linecap:round; stroke-linejoin:round; stroke-width:2; stroke-opacity:0.1; fill:none" points="156.112,977.257 2352.76,977.257 "/>
<polyline clip-path="url(#clip100)" style="stroke:#ffffff; stroke-linecap:round; stroke-linejoin:round; stroke-width:4; stroke-opacity:1; fill:none" points="156.112,1486.45 156.112,923.472 "/>
<polyline clip-path="url(#clip100)" style="stroke:#ffffff; stroke-linecap:round; stroke-linejoin:round; stroke-width:4; stroke-opacity:1; fill:none" points="156.112,1470.51 175.01,1470.51 "/>
<polyline clip-path="url(#clip100)" style="stroke:#ffffff; stroke-linecap:round; stroke-linejoin:round; stroke-width:4; stroke-opacity:1; fill:none" points="156.112,1306.1 175.01,1306.1 "/>
<polyline clip-path="url(#clip100)" style="stroke:#ffffff; stroke-linecap:round; stroke-linejoin:round; stroke-width:4; stroke-opacity:1; fill:none" points="156.112,1141.68 175.01,1141.68 "/>
<polyline clip-path="url(#clip100)" style="stroke:#ffffff; stroke-linecap:round; stroke-linejoin:round; stroke-width:4; stroke-opacity:1; fill:none" points="156.112,977.257 175.01,977.257 "/>
<path clip-path="url(#clip100)" d="M62.9365 1456.31 Q59.3254 1456.31 57.4967 1459.88 Q55.6912 1463.42 55.6912 1470.55 Q55.6912 1477.66 57.4967 1481.22 Q59.3254 1484.76 62.9365 1484.76 Q66.5707 1484.76 68.3763 1481.22 Q70.205 1477.66 70.205 1470.55 Q70.205 1463.42 68.3763 1459.88 Q66.5707 1456.31 62.9365 1456.31 M62.9365 1452.61 Q68.7467 1452.61 71.8022 1457.22 Q74.8809 1461.8 74.8809 1470.55 Q74.8809 1479.28 71.8022 1483.88 Q68.7467 1488.47 62.9365 1488.47 Q57.1264 1488.47 54.0477 1483.88 Q50.9921 1479.28 50.9921 1470.55 Q50.9921 1461.8 54.0477 1457.22 Q57.1264 1452.61 62.9365 1452.61 Z" fill="#ffffff" fill-rule="evenodd" fill-opacity="1" /><path clip-path="url(#clip100)" d="M83.0984 1481.92 L87.9827 1481.92 L87.9827 1487.79 L83.0984 1487.79 L83.0984 1481.92 Z" fill="#ffffff" fill-rule="evenodd" fill-opacity="1" /><path clip-path="url(#clip100)" d="M108.168 1456.31 Q104.557 1456.31 102.728 1459.88 Q100.922 1463.42 100.922 1470.55 Q100.922 1477.66 102.728 1481.22 Q104.557 1484.76 108.168 1484.76 Q111.802 1484.76 113.608 1481.22 Q115.436 1477.66 115.436 1470.55 Q115.436 1463.42 113.608 1459.88 Q111.802 1456.31 108.168 1456.31 M108.168 1452.61 Q113.978 1452.61 117.033 1457.22 Q120.112 1461.8 120.112 1470.55 Q120.112 1479.28 117.033 1483.88 Q113.978 1488.47 108.168 1488.47 Q102.358 1488.47 99.2789 1483.88 Q96.2234 1479.28 96.2234 1470.55 Q96.2234 1461.8 99.2789 1457.22 Q102.358 1452.61 108.168 1452.61 Z" fill="#ffffff" fill-rule="evenodd" fill-opacity="1" /><path clip-path="url(#clip100)" d="M63.9319 1291.89 Q60.3208 1291.89 58.4921 1295.46 Q56.6865 1299 56.6865 1306.13 Q56.6865 1313.24 58.4921 1316.8 Q60.3208 1320.34 63.9319 1320.34 Q67.5661 1320.34 69.3717 1316.8 Q71.2004 1313.24 71.2004 1306.13 Q71.2004 1299 69.3717 1295.46 Q67.5661 1291.89 63.9319 1291.89 M63.9319 1288.19 Q69.742 1288.19 72.7976 1292.8 Q75.8763 1297.38 75.8763 1306.13 Q75.8763 1314.86 72.7976 1319.46 Q69.742 1324.05 63.9319 1324.05 Q58.1217 1324.05 55.043 1319.46 Q51.9875 1314.86 51.9875 1306.13 Q51.9875 1297.38 55.043 1292.8 Q58.1217 1288.19 63.9319 1288.19 Z" fill="#ffffff" fill-rule="evenodd" fill-opacity="1" /><path clip-path="url(#clip100)" d="M84.0938 1317.5 L88.978 1317.5 L88.978 1323.38 L84.0938 1323.38 L84.0938 1317.5 Z" fill="#ffffff" fill-rule="evenodd" fill-opacity="1" /><path clip-path="url(#clip100)" d="M99.2095 1288.82 L117.566 1288.82 L117.566 1292.75 L103.492 1292.75 L103.492 1301.22 Q104.51 1300.88 105.529 1300.71 Q106.547 1300.53 107.566 1300.53 Q113.353 1300.53 116.733 1303.7 Q120.112 1306.87 120.112 1312.29 Q120.112 1317.87 116.64 1320.97 Q113.168 1324.05 106.848 1324.05 Q104.672 1324.05 102.404 1323.68 Q100.159 1323.31 97.7511 1322.57 L97.7511 1317.87 Q99.8345 1319 102.057 1319.56 Q104.279 1320.11 106.756 1320.11 Q110.76 1320.11 113.098 1318.01 Q115.436 1315.9 115.436 1312.29 Q115.436 1308.68 113.098 1306.57 Q110.76 1304.46 106.756 1304.46 Q104.881 1304.46 103.006 1304.88 Q101.154 1305.3 99.2095 1306.18 L99.2095 1288.82 Z" fill="#ffffff" fill-rule="evenodd" fill-opacity="1" /><path clip-path="url(#clip100)" d="M53.7467 1155.02 L61.3856 1155.02 L61.3856 1128.66 L53.0754 1130.32 L53.0754 1126.06 L61.3393 1124.4 L66.0152 1124.4 L66.0152 1155.02 L73.654 1155.02 L73.654 1158.96 L53.7467 1158.96 L53.7467 1155.02 Z" fill="#ffffff" fill-rule="evenodd" fill-opacity="1" /><path clip-path="url(#clip100)" d="M83.0984 1153.08 L87.9827 1153.08 L87.9827 1158.96 L83.0984 1158.96 L83.0984 1153.08 Z" fill="#ffffff" fill-rule="evenodd" fill-opacity="1" /><path clip-path="url(#clip100)" d="M108.168 1127.47 Q104.557 1127.47 102.728 1131.04 Q100.922 1134.58 100.922 1141.71 Q100.922 1148.82 102.728 1152.38 Q104.557 1155.92 108.168 1155.92 Q111.802 1155.92 113.608 1152.38 Q115.436 1148.82 115.436 1141.71 Q115.436 1134.58 113.608 1131.04 Q111.802 1127.47 108.168 1127.47 M108.168 1123.77 Q113.978 1123.77 117.033 1128.38 Q120.112 1132.96 120.112 1141.71 Q120.112 1150.44 117.033 1155.04 Q113.978 1159.63 108.168 1159.63 Q102.358 1159.63 99.2789 1155.04 Q96.2234 1150.44 96.2234 1141.71 Q96.2234 1132.96 99.2789 1128.38 Q102.358 1123.77 108.168 1123.77 Z" fill="#ffffff" fill-rule="evenodd" fill-opacity="1" /><path clip-path="url(#clip100)" d="M54.7421 990.602 L62.381 990.602 L62.381 964.236 L54.0708 965.903 L54.0708 961.644 L62.3347 959.977 L67.0106 959.977 L67.0106 990.602 L74.6494 990.602 L74.6494 994.537 L54.7421 994.537 L54.7421 990.602 Z" fill="#ffffff" fill-rule="evenodd" fill-opacity="1" /><path clip-path="url(#clip100)" d="M84.0938 988.657 L88.978 988.657 L88.978 994.537 L84.0938 994.537 L84.0938 988.657 Z" fill="#ffffff" fill-rule="evenodd" fill-opacity="1" /><path clip-path="url(#clip100)" d="M99.2095 959.977 L117.566 959.977 L117.566 963.912 L103.492 963.912 L103.492 972.384 Q104.51 972.037 105.529 971.875 Q106.547 971.69 107.566 971.69 Q113.353 971.69 116.733 974.861 Q120.112 978.032 120.112 983.449 Q120.112 989.028 116.64 992.13 Q113.168 995.208 106.848 995.208 Q104.672 995.208 102.404 994.838 Q100.159 994.467 97.7511 993.727 L97.7511 989.028 Q99.8345 990.162 102.057 990.718 Q104.279 991.273 106.756 991.273 Q110.76 991.273 113.098 989.167 Q115.436 987.06 115.436 983.449 Q115.436 979.838 113.098 977.731 Q110.76 975.625 106.756 975.625 Q104.881 975.625 103.006 976.042 Q101.154 976.458 99.2095 977.338 L99.2095 959.977 Z" fill="#ffffff" fill-rule="evenodd" fill-opacity="1" /><path clip-path="url(#clip100)" d="M1192.9 814.081 L1192.9 822.061 Q1188.24 819.833 1184.11 818.739 Q1179.98 817.646 1176.13 817.646 Q1169.45 817.646 1165.8 820.238 Q1162.19 822.831 1162.19 827.611 Q1162.19 831.621 1164.58 833.687 Q1167.02 835.713 1173.74 836.969 L1178.68 837.981 Q1187.84 839.723 1192.17 844.139 Q1196.55 848.514 1196.55 855.886 Q1196.55 864.677 1190.63 869.214 Q1184.76 873.751 1173.38 873.751 Q1169.08 873.751 1164.22 872.779 Q1159.4 871.806 1154.21 869.902 L1154.21 861.477 Q1159.2 864.272 1163.98 865.689 Q1168.76 867.107 1173.38 867.107 Q1180.38 867.107 1184.19 864.353 Q1188 861.598 1188 856.494 Q1188 852.038 1185.24 849.526 Q1182.53 847.015 1176.29 845.759 L1171.31 844.787 Q1162.15 842.964 1158.06 839.075 Q1153.97 835.186 1153.97 828.259 Q1153.97 820.238 1159.6 815.62 Q1165.27 811.002 1175.2 811.002 Q1179.45 811.002 1183.87 811.772 Q1188.28 812.542 1192.9 814.081 Z" fill="#ffffff" fill-rule="evenodd" fill-opacity="1" /><path clip-path="url(#clip100)" d="M1200.92 812.096 L1252.08 812.096 L1252.08 818.983 L1230.61 818.983 L1230.61 872.576 L1222.39 872.576 L1222.39 818.983 L1200.92 818.983 L1200.92 812.096 Z" fill="#ffffff" fill-rule="evenodd" fill-opacity="1" /><path clip-path="url(#clip100)" d="M1268.17 818.821 L1268.17 865.851 L1278.05 865.851 Q1290.57 865.851 1296.36 860.18 Q1302.19 854.509 1302.19 842.275 Q1302.19 830.123 1296.36 824.492 Q1290.57 818.821 1278.05 818.821 L1268.17 818.821 M1259.98 812.096 L1276.8 812.096 Q1294.38 812.096 1302.6 819.428 Q1310.82 826.72 1310.82 842.275 Q1310.82 857.912 1302.56 865.244 Q1294.29 872.576 1276.8 872.576 L1259.98 872.576 L1259.98 812.096 Z" fill="#ffffff" fill-rule="evenodd" fill-opacity="1" /><path clip-path="url(#clip100)" d="M1352.47 828.543 L1352.47 835.591 Q1349.31 833.971 1345.9 833.161 Q1342.5 832.351 1338.85 832.351 Q1333.31 832.351 1330.51 834.052 Q1327.76 835.753 1327.76 839.156 Q1327.76 841.749 1329.74 843.247 Q1331.73 844.706 1337.72 846.043 L1340.27 846.61 Q1348.21 848.311 1351.53 851.43 Q1354.9 854.509 1354.9 860.059 Q1354.9 866.378 1349.87 870.064 Q1344.89 873.751 1336.14 873.751 Q1332.49 873.751 1328.53 873.022 Q1324.6 872.333 1320.22 870.915 L1320.22 863.218 Q1324.35 865.365 1328.36 866.459 Q1332.37 867.512 1336.3 867.512 Q1341.57 867.512 1344.4 865.73 Q1347.24 863.907 1347.24 860.626 Q1347.24 857.588 1345.17 855.967 Q1343.15 854.347 1336.22 852.848 L1333.63 852.24 Q1326.7 850.782 1323.62 847.784 Q1320.54 844.746 1320.54 839.48 Q1320.54 833.08 1325.08 829.596 Q1329.62 826.112 1337.96 826.112 Q1342.1 826.112 1345.74 826.72 Q1349.39 827.327 1352.47 828.543 Z" fill="#ffffff" fill-rule="evenodd" fill-opacity="1" /><polyline clip-path="url(#clip103)" style="stroke:#009af9; stroke-linecap:round; stroke-linejoin:round; stroke-width:4; stroke-opacity:1; fill:none" points="218.281,1455.43 239.214,1442.61 260.146,1424.55 281.078,1409.76 302.011,1404.89 322.943,1384.05 343.876,1370.56 364.808,1354.2 385.74,1325.68 406.673,1315.82 427.605,1303.55 448.537,1276.91 469.47,1265.07 490.402,1275.42 511.335,1253.6 532.267,1221.6 553.199,1235.25 574.132,1221.18 595.064,1206.29 615.996,1195.16 636.929,1168.13 657.861,1169.33 678.794,1144.91 699.726,1179.9 720.658,1105.37 741.591,1129.94 762.523,1102.34 783.456,1106.99 804.388,1119.89 825.32,1051.17 846.253,1077.65 867.185,1062 888.117,1067.65 909.05,1044.44 929.982,1071.25 950.915,1021.76 971.847,1049.96 992.779,1054.99 1013.71,1017.08 1034.64,1020.64 1055.58,1023.46 1076.51,1036.62 1097.44,991.733 1118.37,1001.33 1139.31,999.68 1160.24,939.405 1181.17,970.833 1202.1,1046.66 1223.04,993.868 1243.97,986.934 1264.9,1034.69 1285.83,967.539 1306.76,988.092 1327.7,975.06 1348.63,1011.77 1369.56,988.06 1390.49,1039.43 1411.43,995.477 1432.36,1064.52 1453.29,1004.17 1474.22,1030.13 1495.16,1001.15 1516.09,1023.52 1537.02,1010.97 1557.95,1047.42 1578.89,1047.94 1599.82,1077.19 1620.75,1121.9 1641.68,1106.23 1662.62,1099.13 1683.55,1129.17 1704.48,1140.1 1725.41,1136.63 1746.34,1140.45 1767.28,1136.21 1788.21,1137.88 1809.14,1112.11 1830.07,1151.02 1851.01,1184.28 1871.94,1186.06 1892.87,1212.07 1913.8,1218.87 1934.74,1216.73 1955.67,1238.7 1976.6,1246.58 1997.53,1263.59 2018.47,1297.07 2039.4,1298.63 2060.33,1313.68 2081.26,1325.51 2102.2,1326.37 2123.13,1361.05 2144.06,1369.36 2164.99,1380.49 2185.92,1397.57 2206.86,1413.34 2227.79,1424.76 2248.72,1441.96 2269.65,1456.49 2290.59,1470.51 "/>
<polyline clip-path="url(#clip103)" style="stroke:#e26f46; stroke-linecap:round; stroke-linejoin:round; stroke-width:4; stroke-opacity:1; fill:none" points="218.281,1353.98 239.214,1354 260.146,1356.74 281.078,1354.44 302.011,1359.08 322.943,1361.63 343.876,1362.83 364.808,1355.3 385.74,1363.01 406.673,1365.84 427.605,1358.98 448.537,1349 469.47,1361.74 490.402,1359.89 511.335,1361.25 532.267,1366.42 553.199,1356.47 574.132,1349.54 595.064,1362.82 615.996,1349.95 636.929,1369.77 657.861,1359.67 678.794,1355.35 699.726,1364.33 720.658,1372.24 741.591,1356.82 762.523,1358.55 783.456,1361.76 804.388,1364.55 825.32,1354.69 846.253,1365.58 867.185,1365.33 888.117,1362.89 909.05,1361.4 929.982,1352.4 950.915,1365.11 971.847,1364.22 992.779,1363.27 1013.71,1352.23 1034.64,1363.61 1055.58,1362.63 1076.51,1363.26 1097.44,1361.25 1118.37,1353.75 1139.31,1359.39 1160.24,1356.5 1181.17,1360.42 1202.1,1352.85 1223.04,1356.03 1243.97,1370.86 1264.9,1361.37 1285.83,1352.76 1306.76,1361.67 1327.7,1360.92 1348.63,1371.39 1369.56,1364.73 1390.49,1369.49 1411.43,1358.8 1432.36,1367.32 1453.29,1361.81 1474.22,1355.66 1495.16,1364.55 1516.09,1357.84 1537.02,1360.65 1557.95,1360.22 1578.89,1352.69 1599.82,1357.2 1620.75,1357.54 1641.68,1364.89 1662.62,1360.09 1683.55,1368.42 1704.48,1366.56 1725.41,1356.49 1746.34,1353.89 1767.28,1366.67 1788.21,1361.87 1809.14,1355.71 1830.07,1351.52 1851.01,1356.87 1871.94,1365.56 1892.87,1351.37 1913.8,1379.72 1934.74,1356.58 1955.67,1347.12 1976.6,1350.26 1997.53,1356.86 2018.47,1367.82 2039.4,1358.04 2060.33,1354.14 2081.26,1359.81 2102.2,1347.17 2123.13,1356.34 2144.06,1353.76 2164.99,1349.1 2185.92,1366.03 2206.86,1359.69 2227.79,1360.43 2248.72,1365.38 2269.65,1365.69 2290.59,1360.3 "/>
<polyline clip-path="url(#clip103)" style="stroke:#3da44d; stroke-linecap:round; stroke-linejoin:round; stroke-width:4; stroke-opacity:1; fill:none" points="218.281,1159.91 239.214,1210.65 260.146,1172.19 281.078,1158.53 302.011,1187.03 322.943,1219.54 343.876,1200.84 364.808,1189.12 385.74,1177.71 406.673,1197.67 427.605,1212.68 448.537,1178.45 469.47,1196.02 490.402,1213.38 511.335,1177.61 532.267,1221.59 553.199,1216.5 574.132,1199.21 595.064,1189.79 615.996,1201.84 636.929,1174.75 657.861,1204.91 678.794,1186.44 699.726,1197.92 720.658,1173.89 741.591,1172.54 762.523,1178.5 783.456,1200.74 804.388,1193.92 825.32,1173.82 846.253,1195.8 867.185,1207.35 888.117,1185.17 909.05,1178.63 929.982,1174.04 950.915,1192.63 971.847,1216.45 992.779,1192.52 1013.71,1196.19 1034.64,1209.08 1055.58,1192.87 1076.51,1187.16 1097.44,1173.38 1118.37,1164.09 1139.31,1198.53 1160.24,1187.8 1181.17,1180.97 1202.1,1188.71 1223.04,1185.85 1243.97,1180.97 1264.9,1192.33 1285.83,1180.02 1306.76,1194.71 1327.7,1182.7 1348.63,1215.74 1369.56,1196.01 1390.49,1192.47 1411.43,1172.77 1432.36,1186.12 1453.29,1194.78 1474.22,1176.04 1495.16,1168.06 1516.09,1178.81 1537.02,1167.65 1557.95,1195.54 1578.89,1213.1 1599.82,1201.7 1620.75,1203.93 1641.68,1181.35 1662.62,1193.23 1683.55,1174.53 1704.48,1175.6 1725.41,1182 1746.34,1184.53 1767.28,1182.93 1788.21,1176.64 1809.14,1194.92 1830.07,1192.82 1851.01,1185.2 1871.94,1183.5 1892.87,1184.75 1913.8,1198.68 1934.74,1188.7 1955.67,1178.23 1976.6,1221.46 1997.53,1181.75 2018.47,1178.59 2039.4,1192.74 2060.33,1194.46 2081.26,1173.3 2102.2,1191.28 2123.13,1192.41 2144.06,1188.42 2164.99,1191.13 2185.92,1168.42 2206.86,1200.45 2227.79,1159.69 2248.72,1196.75 2269.65,1203.12 2290.59,1172.42 "/>
<path clip-path="url(#clip100)" d="M1988.23 1149.6 L2279.53 1149.6 L2279.53 942.238 L1988.23 942.238  Z" fill="#000000" fill-rule="evenodd" fill-opacity="0"/>
<polyline clip-path="url(#clip100)" style="stroke:#ffffff; stroke-linecap:round; stroke-linejoin:round; stroke-width:4; stroke-opacity:1; fill:none" points="1988.23,1149.6 2279.53,1149.6 2279.53,942.238 1988.23,942.238 1988.23,1149.6 "/>
<polyline clip-path="url(#clip100)" style="stroke:#009af9; stroke-linecap:round; stroke-linejoin:round; stroke-width:4; stroke-opacity:1; fill:none" points="2012.63,994.078 2159.08,994.078 "/>
<path clip-path="url(#clip100)" d="M2198.67 989.414 Q2197.95 988.997 2197.1 988.812 Q2196.26 988.603 2195.24 988.603 Q2191.63 988.603 2189.69 990.965 Q2187.77 993.303 2187.77 997.701 L2187.77 1011.36 L2183.48 1011.36 L2183.48 985.432 L2187.77 985.432 L2187.77 989.46 Q2189.11 987.099 2191.26 985.965 Q2193.41 984.807 2196.49 984.807 Q2196.93 984.807 2197.47 984.877 Q2198 984.923 2198.65 985.039 L2198.67 989.414 Z" fill="#ffffff" fill-rule="evenodd" fill-opacity="1" /><path clip-path="url(#clip100)" d="M2207.26 1007.47 L2207.26 1021.22 L2202.97 1021.22 L2202.97 985.432 L2207.26 985.432 L2207.26 989.367 Q2208.6 987.053 2210.64 985.941 Q2212.7 984.807 2215.54 984.807 Q2220.27 984.807 2223.21 988.557 Q2226.17 992.307 2226.17 998.418 Q2226.17 1004.53 2223.21 1008.28 Q2220.27 1012.03 2215.54 1012.03 Q2212.7 1012.03 2210.64 1010.92 Q2208.6 1009.78 2207.26 1007.47 M2221.75 998.418 Q2221.75 993.719 2219.8 991.057 Q2217.88 988.372 2214.5 988.372 Q2211.12 988.372 2209.18 991.057 Q2207.26 993.719 2207.26 998.418 Q2207.26 1003.12 2209.18 1005.8 Q2211.12 1008.46 2214.5 1008.46 Q2217.88 1008.46 2219.8 1005.8 Q2221.75 1003.12 2221.75 998.418 Z" fill="#ffffff" fill-rule="evenodd" fill-opacity="1" /><path clip-path="url(#clip100)" d="M2234.64 1007.42 L2242.28 1007.42 L2242.28 981.057 L2233.97 982.724 L2233.97 978.465 L2242.23 976.798 L2246.91 976.798 L2246.91 1007.42 L2254.55 1007.42 L2254.55 1011.36 L2234.64 1011.36 L2234.64 1007.42 Z" fill="#ffffff" fill-rule="evenodd" fill-opacity="1" /><polyline clip-path="url(#clip100)" style="stroke:#e26f46; stroke-linecap:round; stroke-linejoin:round; stroke-width:4; stroke-opacity:1; fill:none" points="2012.63,1045.92 2159.08,1045.92 "/>
<path clip-path="url(#clip100)" d="M2198.67 1041.25 Q2197.95 1040.84 2197.1 1040.65 Q2196.26 1040.44 2195.24 1040.44 Q2191.63 1040.44 2189.69 1042.8 Q2187.77 1045.14 2187.77 1049.54 L2187.77 1063.2 L2183.48 1063.2 L2183.48 1037.27 L2187.77 1037.27 L2187.77 1041.3 Q2189.11 1038.94 2191.26 1037.8 Q2193.41 1036.65 2196.49 1036.65 Q2196.93 1036.65 2197.47 1036.72 Q2198 1036.76 2198.65 1036.88 L2198.67 1041.25 Z" fill="#ffffff" fill-rule="evenodd" fill-opacity="1" /><path clip-path="url(#clip100)" d="M2207.26 1059.31 L2207.26 1073.06 L2202.97 1073.06 L2202.97 1037.27 L2207.26 1037.27 L2207.26 1041.21 Q2208.6 1038.89 2210.64 1037.78 Q2212.7 1036.65 2215.54 1036.65 Q2220.27 1036.65 2223.21 1040.4 Q2226.17 1044.15 2226.17 1050.26 Q2226.17 1056.37 2223.21 1060.12 Q2220.27 1063.87 2215.54 1063.87 Q2212.7 1063.87 2210.64 1062.76 Q2208.6 1061.62 2207.26 1059.31 M2221.75 1050.26 Q2221.75 1045.56 2219.8 1042.9 Q2217.88 1040.21 2214.5 1040.21 Q2211.12 1040.21 2209.18 1042.9 Q2207.26 1045.56 2207.26 1050.26 Q2207.26 1054.96 2209.18 1057.64 Q2211.12 1060.3 2214.5 1060.3 Q2217.88 1060.3 2219.8 1057.64 Q2221.75 1054.96 2221.75 1050.26 Z" fill="#ffffff" fill-rule="evenodd" fill-opacity="1" /><path clip-path="url(#clip100)" d="M2237.86 1059.26 L2254.18 1059.26 L2254.18 1063.2 L2232.23 1063.2 L2232.23 1059.26 Q2234.9 1056.51 2239.48 1051.88 Q2244.09 1047.23 2245.27 1045.88 Q2247.51 1043.36 2248.39 1041.62 Q2249.29 1039.86 2249.29 1038.17 Q2249.29 1035.42 2247.35 1033.68 Q2245.43 1031.95 2242.33 1031.95 Q2240.13 1031.95 2237.67 1032.71 Q2235.24 1033.48 2232.47 1035.03 L2232.47 1030.3 Q2235.29 1029.17 2237.74 1028.59 Q2240.2 1028.01 2242.23 1028.01 Q2247.6 1028.01 2250.8 1030.7 Q2253.99 1033.38 2253.99 1037.87 Q2253.99 1040 2253.18 1041.92 Q2252.4 1043.82 2250.29 1046.42 Q2249.71 1047.09 2246.61 1050.3 Q2243.51 1053.5 2237.86 1059.26 Z" fill="#ffffff" fill-rule="evenodd" fill-opacity="1" /><polyline clip-path="url(#clip100)" style="stroke:#3da44d; stroke-linecap:round; stroke-linejoin:round; stroke-width:4; stroke-opacity:1; fill:none" points="2012.63,1097.76 2159.08,1097.76 "/>
<path clip-path="url(#clip100)" d="M2198.67 1093.09 Q2197.95 1092.68 2197.1 1092.49 Q2196.26 1092.28 2195.24 1092.28 Q2191.63 1092.28 2189.69 1094.64 Q2187.77 1096.98 2187.77 1101.38 L2187.77 1115.04 L2183.48 1115.04 L2183.48 1089.11 L2187.77 1089.11 L2187.77 1093.14 Q2189.11 1090.78 2191.26 1089.64 Q2193.41 1088.49 2196.49 1088.49 Q2196.93 1088.49 2197.47 1088.56 Q2198 1088.6 2198.65 1088.72 L2198.67 1093.09 Z" fill="#ffffff" fill-rule="evenodd" fill-opacity="1" /><path clip-path="url(#clip100)" d="M2207.26 1111.15 L2207.26 1124.9 L2202.97 1124.9 L2202.97 1089.11 L2207.26 1089.11 L2207.26 1093.05 Q2208.6 1090.73 2210.64 1089.62 Q2212.7 1088.49 2215.54 1088.49 Q2220.27 1088.49 2223.21 1092.24 Q2226.17 1095.99 2226.17 1102.1 Q2226.17 1108.21 2223.21 1111.96 Q2220.27 1115.71 2215.54 1115.71 Q2212.7 1115.71 2210.64 1114.6 Q2208.6 1113.46 2207.26 1111.15 M2221.75 1102.1 Q2221.75 1097.4 2219.8 1094.74 Q2217.88 1092.05 2214.5 1092.05 Q2211.12 1092.05 2209.18 1094.74 Q2207.26 1097.4 2207.26 1102.1 Q2207.26 1106.8 2209.18 1109.48 Q2211.12 1112.14 2214.5 1112.14 Q2217.88 1112.14 2219.8 1109.48 Q2221.75 1106.8 2221.75 1102.1 Z" fill="#ffffff" fill-rule="evenodd" fill-opacity="1" /><path clip-path="url(#clip100)" d="M2248 1096.4 Q2251.35 1097.12 2253.23 1099.39 Q2255.13 1101.66 2255.13 1104.99 Q2255.13 1110.11 2251.61 1112.91 Q2248.09 1115.71 2241.61 1115.71 Q2239.43 1115.71 2237.12 1115.27 Q2234.83 1114.85 2232.37 1114 L2232.37 1109.48 Q2234.32 1110.62 2236.63 1111.2 Q2238.95 1111.77 2241.47 1111.77 Q2245.87 1111.77 2248.16 1110.04 Q2250.47 1108.3 2250.47 1104.99 Q2250.47 1101.94 2248.32 1100.22 Q2246.19 1098.49 2242.37 1098.49 L2238.34 1098.49 L2238.34 1094.64 L2242.56 1094.64 Q2246.01 1094.64 2247.84 1093.28 Q2249.66 1091.89 2249.66 1089.3 Q2249.66 1086.64 2247.77 1085.22 Q2245.89 1083.79 2242.37 1083.79 Q2240.45 1083.79 2238.25 1084.2 Q2236.05 1084.62 2233.41 1085.5 L2233.41 1081.33 Q2236.08 1080.59 2238.39 1080.22 Q2240.73 1079.85 2242.79 1079.85 Q2248.11 1079.85 2251.22 1082.28 Q2254.32 1084.69 2254.32 1088.81 Q2254.32 1091.68 2252.67 1093.67 Q2251.03 1095.64 2248 1096.4 Z" fill="#ffffff" fill-rule="evenodd" fill-opacity="1" /></svg>
