<?xml version="1.0" encoding="utf-8"?>
<svg xmlns="http://www.w3.org/2000/svg" xmlns:xlink="http://www.w3.org/1999/xlink" width="600" height="400" viewBox="0 0 2400 1600">
<defs>
  <clipPath id="clip650">
    <rect x="0" y="0" width="2400" height="1600"/>
  </clipPath>
</defs>
<path clip-path="url(#clip650)" d="M0 1600 L2400 1600 L2400 0 L0 0  Z" fill="#000000" fill-rule="evenodd" fill-opacity="0"/>
<defs>
  <clipPath id="clip651">
    <rect x="480" y="0" width="1681" height="1600"/>
  </clipPath>
</defs>
<path clip-path="url(#clip650)" d="M219.866 1423.18 L2352.76 1423.18 L2352.76 123.472 L219.866 123.472  Z" fill="#000000" fill-rule="evenodd" fill-opacity="0"/>
<defs>
  <clipPath id="clip652">
    <rect x="219" y="123" width="2134" height="1301"/>
  </clipPath>
</defs>
<polyline clip-path="url(#clip652)" style="stroke:#ffffff; stroke-linecap:round; stroke-linejoin:round; stroke-width:2; stroke-opacity:0.1; fill:none" points="483.48,1423.18 483.48,123.472 "/>
<polyline clip-path="url(#clip652)" style="stroke:#ffffff; stroke-linecap:round; stroke-linejoin:round; stroke-width:2; stroke-opacity:0.1; fill:none" points="889.977,1423.18 889.977,123.472 "/>
<polyline clip-path="url(#clip652)" style="stroke:#ffffff; stroke-linecap:round; stroke-linejoin:round; stroke-width:2; stroke-opacity:0.1; fill:none" points="1296.47,1423.18 1296.47,123.472 "/>
<polyline clip-path="url(#clip652)" style="stroke:#ffffff; stroke-linecap:round; stroke-linejoin:round; stroke-width:2; stroke-opacity:0.1; fill:none" points="1702.97,1423.18 1702.97,123.472 "/>
<polyline clip-path="url(#clip652)" style="stroke:#ffffff; stroke-linecap:round; stroke-linejoin:round; stroke-width:2; stroke-opacity:0.1; fill:none" points="2109.47,1423.18 2109.47,123.472 "/>
<polyline clip-path="url(#clip650)" style="stroke:#ffffff; stroke-linecap:round; stroke-linejoin:round; stroke-width:4; stroke-opacity:1; fill:none" points="219.866,1423.18 2352.76,1423.18 "/>
<polyline clip-path="url(#clip650)" style="stroke:#ffffff; stroke-linecap:round; stroke-linejoin:round; stroke-width:4; stroke-opacity:1; fill:none" points="483.48,1423.18 483.48,1404.28 "/>
<polyline clip-path="url(#clip650)" style="stroke:#ffffff; stroke-linecap:round; stroke-linejoin:round; stroke-width:4; stroke-opacity:1; fill:none" points="889.977,1423.18 889.977,1404.28 "/>
<polyline clip-path="url(#clip650)" style="stroke:#ffffff; stroke-linecap:round; stroke-linejoin:round; stroke-width:4; stroke-opacity:1; fill:none" points="1296.47,1423.18 1296.47,1404.28 "/>
<polyline clip-path="url(#clip650)" style="stroke:#ffffff; stroke-linecap:round; stroke-linejoin:round; stroke-width:4; stroke-opacity:1; fill:none" points="1702.97,1423.18 1702.97,1404.28 "/>
<polyline clip-path="url(#clip650)" style="stroke:#ffffff; stroke-linecap:round; stroke-linejoin:round; stroke-width:4; stroke-opacity:1; fill:none" points="2109.47,1423.18 2109.47,1404.28 "/>
<path clip-path="url(#clip650)" d="M452.38 1468.75 L482.056 1468.75 L482.056 1472.69 L452.38 1472.69 L452.38 1468.75 Z" fill="#ffffff" fill-rule="evenodd" fill-opacity="1" /><path clip-path="url(#clip650)" d="M504.996 1455.09 L493.19 1473.54 L504.996 1473.54 L504.996 1455.09 M503.769 1451.02 L509.648 1451.02 L509.648 1473.54 L514.579 1473.54 L514.579 1477.43 L509.648 1477.43 L509.648 1485.58 L504.996 1485.58 L504.996 1477.43 L489.394 1477.43 L489.394 1472.92 L503.769 1451.02 Z" fill="#ffffff" fill-rule="evenodd" fill-opacity="1" /><path clip-path="url(#clip650)" d="M859.919 1468.75 L889.595 1468.75 L889.595 1472.69 L859.919 1472.69 L859.919 1468.75 Z" fill="#ffffff" fill-rule="evenodd" fill-opacity="1" /><path clip-path="url(#clip650)" d="M903.715 1481.64 L920.034 1481.64 L920.034 1485.58 L898.09 1485.58 L898.09 1481.64 Q900.752 1478.89 905.335 1474.26 Q909.942 1469.61 911.122 1468.27 Q913.368 1465.74 914.247 1464.01 Q915.15 1462.25 915.15 1460.56 Q915.15 1457.8 913.206 1456.07 Q911.284 1454.33 908.182 1454.33 Q905.983 1454.33 903.53 1455.09 Q901.099 1455.86 898.321 1457.41 L898.321 1452.69 Q901.145 1451.55 903.599 1450.97 Q906.053 1450.39 908.09 1450.39 Q913.46 1450.39 916.655 1453.08 Q919.849 1455.77 919.849 1460.26 Q919.849 1462.39 919.039 1464.31 Q918.252 1466.2 916.145 1468.8 Q915.567 1469.47 912.465 1472.69 Q909.363 1475.88 903.715 1481.64 Z" fill="#ffffff" fill-rule="evenodd" fill-opacity="1" /><path clip-path="url(#clip650)" d="M1296.47 1454.1 Q1292.86 1454.1 1291.03 1457.66 Q1289.23 1461.2 1289.23 1468.33 Q1289.23 1475.44 1291.03 1479.01 Q1292.86 1482.55 1296.47 1482.55 Q1300.11 1482.55 1301.91 1479.01 Q1303.74 1475.44 1303.74 1468.33 Q1303.74 1461.2 1301.91 1457.66 Q1300.11 1454.1 1296.47 1454.1 M1296.47 1450.39 Q1302.28 1450.39 1305.34 1455 Q1308.42 1459.58 1308.42 1468.33 Q1308.42 1477.06 1305.34 1481.67 Q1302.28 1486.25 1296.47 1486.25 Q1290.66 1486.25 1287.58 1481.67 Q1284.53 1477.06 1284.53 1468.33 Q1284.53 1459.58 1287.58 1455 Q1290.66 1450.39 1296.47 1450.39 Z" fill="#ffffff" fill-rule="evenodd" fill-opacity="1" /><path clip-path="url(#clip650)" d="M1697.62 1481.64 L1713.94 1481.64 L1713.94 1485.58 L1692 1485.58 L1692 1481.64 Q1694.66 1478.89 1699.24 1474.26 Q1703.85 1469.61 1705.03 1468.27 Q1707.28 1465.74 1708.16 1464.01 Q1709.06 1462.25 1709.06 1460.56 Q1709.06 1457.8 1707.11 1456.07 Q1705.19 1454.33 1702.09 1454.33 Q1699.89 1454.33 1697.44 1455.09 Q1695.01 1455.86 1692.23 1457.41 L1692.23 1452.69 Q1695.05 1451.55 1697.51 1450.97 Q1699.96 1450.39 1702 1450.39 Q1707.37 1450.39 1710.56 1453.08 Q1713.76 1455.77 1713.76 1460.26 Q1713.76 1462.39 1712.95 1464.31 Q1712.16 1466.2 1710.05 1468.8 Q1709.48 1469.47 1706.37 1472.69 Q1703.27 1475.88 1697.62 1481.64 Z" fill="#ffffff" fill-rule="evenodd" fill-opacity="1" /><path clip-path="url(#clip650)" d="M2112.48 1455.09 L2100.67 1473.54 L2112.48 1473.54 L2112.48 1455.09 M2111.25 1451.02 L2117.13 1451.02 L2117.13 1473.54 L2122.06 1473.54 L2122.06 1477.43 L2117.13 1477.43 L2117.13 1485.58 L2112.48 1485.58 L2112.48 1477.43 L2096.87 1477.43 L2096.87 1472.92 L2111.25 1451.02 Z" fill="#ffffff" fill-rule="evenodd" fill-opacity="1" /><path clip-path="url(#clip650)" d="M1216.94 1568.04 L1198.8 1520.52 L1205.51 1520.52 L1220.57 1560.53 L1235.66 1520.52 L1242.34 1520.52 L1224.23 1568.04 L1216.94 1568.04 Z" fill="#ffffff" fill-rule="evenodd" fill-opacity="1" /><path clip-path="url(#clip650)" d="M1260.16 1550.12 Q1253.07 1550.12 1250.33 1551.75 Q1247.59 1553.37 1247.59 1557.29 Q1247.59 1560.4 1249.63 1562.25 Q1251.7 1564.07 1255.23 1564.07 Q1260.1 1564.07 1263.03 1560.63 Q1265.99 1557.16 1265.99 1551.43 L1265.99 1550.12 L1260.16 1550.12 M1271.85 1547.71 L1271.85 1568.04 L1265.99 1568.04 L1265.99 1562.63 Q1263.98 1565.88 1260.99 1567.44 Q1258 1568.97 1253.67 1568.97 Q1248.2 1568.97 1244.95 1565.91 Q1241.74 1562.82 1241.74 1557.67 Q1241.74 1551.65 1245.75 1548.6 Q1249.79 1545.54 1257.78 1545.54 L1265.99 1545.54 L1265.99 1544.97 Q1265.99 1540.93 1263.31 1538.73 Q1260.67 1536.5 1255.87 1536.5 Q1252.81 1536.5 1249.92 1537.23 Q1247.02 1537.97 1244.35 1539.43 L1244.35 1534.02 Q1247.56 1532.78 1250.58 1532.17 Q1253.61 1531.54 1256.47 1531.54 Q1264.21 1531.54 1268.03 1535.55 Q1271.85 1539.56 1271.85 1547.71 Z" fill="#ffffff" fill-rule="evenodd" fill-opacity="1" /><path clip-path="url(#clip650)" d="M1283.91 1518.52 L1289.76 1518.52 L1289.76 1568.04 L1283.91 1568.04 L1283.91 1518.52 Z" fill="#ffffff" fill-rule="evenodd" fill-opacity="1" /><path clip-path="url(#clip650)" d="M1301.41 1553.98 L1301.41 1532.4 L1307.27 1532.4 L1307.27 1553.75 Q1307.27 1558.81 1309.24 1561.36 Q1311.22 1563.87 1315.16 1563.87 Q1319.91 1563.87 1322.64 1560.85 Q1325.41 1557.83 1325.41 1552.61 L1325.41 1532.4 L1331.27 1532.4 L1331.27 1568.04 L1325.41 1568.04 L1325.41 1562.57 Q1323.28 1565.82 1320.45 1567.41 Q1317.65 1568.97 1313.92 1568.97 Q1307.78 1568.97 1304.6 1565.15 Q1301.41 1561.33 1301.41 1553.98 M1316.15 1531.54 L1316.15 1531.54 Z" fill="#ffffff" fill-rule="evenodd" fill-opacity="1" /><path clip-path="url(#clip650)" d="M1373.82 1548.76 L1373.82 1551.62 L1346.9 1551.62 Q1347.28 1557.67 1350.53 1560.85 Q1353.8 1564 1359.63 1564 Q1363 1564 1366.15 1563.17 Q1369.34 1562.35 1372.46 1560.69 L1372.46 1566.23 Q1369.3 1567.57 1365.99 1568.27 Q1362.68 1568.97 1359.28 1568.97 Q1350.75 1568.97 1345.75 1564 Q1340.79 1559.04 1340.79 1550.57 Q1340.79 1541.82 1345.5 1536.69 Q1350.24 1531.54 1358.26 1531.54 Q1365.45 1531.54 1369.62 1536.18 Q1373.82 1540.8 1373.82 1548.76 M1367.97 1547.04 Q1367.9 1542.23 1365.26 1539.37 Q1362.65 1536.5 1358.32 1536.5 Q1353.42 1536.5 1350.46 1539.27 Q1347.53 1542.04 1347.09 1547.07 L1367.97 1547.04 Z" fill="#ffffff" fill-rule="evenodd" fill-opacity="1" /><polyline clip-path="url(#clip652)" style="stroke:#ffffff; stroke-linecap:round; stroke-linejoin:round; stroke-width:2; stroke-opacity:0.1; fill:none" points="219.866,1386.4 2352.76,1386.4 "/>
<polyline clip-path="url(#clip652)" style="stroke:#ffffff; stroke-linecap:round; stroke-linejoin:round; stroke-width:2; stroke-opacity:0.1; fill:none" points="219.866,1092.36 2352.76,1092.36 "/>
<polyline clip-path="url(#clip652)" style="stroke:#ffffff; stroke-linecap:round; stroke-linejoin:round; stroke-width:2; stroke-opacity:0.1; fill:none" points="219.866,798.319 2352.76,798.319 "/>
<polyline clip-path="url(#clip652)" style="stroke:#ffffff; stroke-linecap:round; stroke-linejoin:round; stroke-width:2; stroke-opacity:0.1; fill:none" points="219.866,504.281 2352.76,504.281 "/>
<polyline clip-path="url(#clip652)" style="stroke:#ffffff; stroke-linecap:round; stroke-linejoin:round; stroke-width:2; stroke-opacity:0.1; fill:none" points="219.866,210.243 2352.76,210.243 "/>
<polyline clip-path="url(#clip650)" style="stroke:#ffffff; stroke-linecap:round; stroke-linejoin:round; stroke-width:4; stroke-opacity:1; fill:none" points="219.866,1423.18 219.866,123.472 "/>
<polyline clip-path="url(#clip650)" style="stroke:#ffffff; stroke-linecap:round; stroke-linejoin:round; stroke-width:4; stroke-opacity:1; fill:none" points="219.866,1386.4 238.764,1386.4 "/>
<polyline clip-path="url(#clip650)" style="stroke:#ffffff; stroke-linecap:round; stroke-linejoin:round; stroke-width:4; stroke-opacity:1; fill:none" points="219.866,1092.36 238.764,1092.36 "/>
<polyline clip-path="url(#clip650)" style="stroke:#ffffff; stroke-linecap:round; stroke-linejoin:round; stroke-width:4; stroke-opacity:1; fill:none" points="219.866,798.319 238.764,798.319 "/>
<polyline clip-path="url(#clip650)" style="stroke:#ffffff; stroke-linecap:round; stroke-linejoin:round; stroke-width:4; stroke-opacity:1; fill:none" points="219.866,504.281 238.764,504.281 "/>
<polyline clip-path="url(#clip650)" style="stroke:#ffffff; stroke-linecap:round; stroke-linejoin:round; stroke-width:4; stroke-opacity:1; fill:none" points="219.866,210.243 238.764,210.243 "/>
<path clip-path="url(#clip650)" d="M126.691 1372.19 Q123.08 1372.19 121.251 1375.76 Q119.445 1379.3 119.445 1386.43 Q119.445 1393.54 121.251 1397.1 Q123.08 1400.64 126.691 1400.64 Q130.325 1400.64 132.13 1397.1 Q133.959 1393.54 133.959 1386.43 Q133.959 1379.3 132.13 1375.76 Q130.325 1372.19 126.691 1372.19 M126.691 1368.49 Q132.501 1368.49 135.556 1373.1 Q138.635 1377.68 138.635 1386.43 Q138.635 1395.16 135.556 1399.76 Q132.501 1404.35 126.691 1404.35 Q120.88 1404.35 117.802 1399.76 Q114.746 1395.16 114.746 1386.43 Q114.746 1377.68 117.802 1373.1 Q120.88 1368.49 126.691 1368.49 Z" fill="#ffffff" fill-rule="evenodd" fill-opacity="1" /><path clip-path="url(#clip650)" d="M146.853 1397.8 L151.737 1397.8 L151.737 1403.68 L146.853 1403.68 L146.853 1397.8 Z" fill="#ffffff" fill-rule="evenodd" fill-opacity="1" /><path clip-path="url(#clip650)" d="M171.922 1372.19 Q168.311 1372.19 166.482 1375.76 Q164.677 1379.3 164.677 1386.43 Q164.677 1393.54 166.482 1397.1 Q168.311 1400.64 171.922 1400.64 Q175.556 1400.64 177.362 1397.1 Q179.19 1393.54 179.19 1386.43 Q179.19 1379.3 177.362 1375.76 Q175.556 1372.19 171.922 1372.19 M171.922 1368.49 Q177.732 1368.49 180.788 1373.1 Q183.866 1377.68 183.866 1386.43 Q183.866 1395.16 180.788 1399.76 Q177.732 1404.35 171.922 1404.35 Q166.112 1404.35 163.033 1399.76 Q159.978 1395.16 159.978 1386.43 Q159.978 1377.68 163.033 1373.1 Q166.112 1368.49 171.922 1368.49 Z" fill="#ffffff" fill-rule="evenodd" fill-opacity="1" /><path clip-path="url(#clip650)" d="M127.917 1078.16 Q124.306 1078.16 122.478 1081.72 Q120.672 1085.26 120.672 1092.39 Q120.672 1099.5 122.478 1103.06 Q124.306 1106.61 127.917 1106.61 Q131.552 1106.61 133.357 1103.06 Q135.186 1099.5 135.186 1092.39 Q135.186 1085.26 133.357 1081.72 Q131.552 1078.16 127.917 1078.16 M127.917 1074.45 Q133.728 1074.45 136.783 1079.06 Q139.862 1083.64 139.862 1092.39 Q139.862 1101.12 136.783 1105.73 Q133.728 1110.31 127.917 1110.31 Q122.107 1110.31 119.029 1105.73 Q115.973 1101.12 115.973 1092.39 Q115.973 1083.64 119.029 1079.06 Q122.107 1074.45 127.917 1074.45 Z" fill="#ffffff" fill-rule="evenodd" fill-opacity="1" /><path clip-path="url(#clip650)" d="M148.079 1103.76 L152.964 1103.76 L152.964 1109.64 L148.079 1109.64 L148.079 1103.76 Z" fill="#ffffff" fill-rule="evenodd" fill-opacity="1" /><path clip-path="url(#clip650)" d="M163.959 1105.7 L171.598 1105.7 L171.598 1079.34 L163.288 1081 L163.288 1076.74 L171.552 1075.08 L176.227 1075.08 L176.227 1105.7 L183.866 1105.7 L183.866 1109.64 L163.959 1109.64 L163.959 1105.7 Z" fill="#ffffff" fill-rule="evenodd" fill-opacity="1" /><path clip-path="url(#clip650)" d="M128.288 784.118 Q124.677 784.118 122.848 787.683 Q121.043 791.224 121.043 798.354 Q121.043 805.46 122.848 809.025 Q124.677 812.567 128.288 812.567 Q131.922 812.567 133.728 809.025 Q135.556 805.46 135.556 798.354 Q135.556 791.224 133.728 787.683 Q131.922 784.118 128.288 784.118 M128.288 780.414 Q134.098 780.414 137.154 785.021 Q140.232 789.604 140.232 798.354 Q140.232 807.081 137.154 811.687 Q134.098 816.271 128.288 816.271 Q122.478 816.271 119.399 811.687 Q116.343 807.081 116.343 798.354 Q116.343 789.604 119.399 785.021 Q122.478 780.414 128.288 780.414 Z" fill="#ffffff" fill-rule="evenodd" fill-opacity="1" /><path clip-path="url(#clip650)" d="M148.45 809.72 L153.334 809.72 L153.334 815.599 L148.45 815.599 L148.45 809.72 Z" fill="#ffffff" fill-rule="evenodd" fill-opacity="1" /><path clip-path="url(#clip650)" d="M167.547 811.664 L183.866 811.664 L183.866 815.599 L161.922 815.599 L161.922 811.664 Q164.584 808.909 169.167 804.28 Q173.774 799.627 174.954 798.285 Q177.2 795.761 178.079 794.025 Q178.982 792.266 178.982 790.576 Q178.982 787.822 177.038 786.086 Q175.116 784.349 172.014 784.349 Q169.815 784.349 167.362 785.113 Q164.931 785.877 162.153 787.428 L162.153 782.706 Q164.977 781.572 167.431 780.993 Q169.885 780.414 171.922 780.414 Q177.292 780.414 180.487 783.099 Q183.681 785.785 183.681 790.275 Q183.681 792.405 182.871 794.326 Q182.084 796.224 179.977 798.817 Q179.399 799.488 176.297 802.706 Q173.195 805.9 167.547 811.664 Z" fill="#ffffff" fill-rule="evenodd" fill-opacity="1" /><path clip-path="url(#clip650)" d="M127.339 490.08 Q123.728 490.08 121.899 493.645 Q120.093 497.186 120.093 504.316 Q120.093 511.422 121.899 514.987 Q123.728 518.529 127.339 518.529 Q130.973 518.529 132.779 514.987 Q134.607 511.422 134.607 504.316 Q134.607 497.186 132.779 493.645 Q130.973 490.08 127.339 490.08 M127.339 486.376 Q133.149 486.376 136.204 490.982 Q139.283 495.566 139.283 504.316 Q139.283 513.043 136.204 517.649 Q133.149 522.232 127.339 522.232 Q121.529 522.232 118.45 517.649 Q115.394 513.043 115.394 504.316 Q115.394 495.566 118.45 490.982 Q121.529 486.376 127.339 486.376 Z" fill="#ffffff" fill-rule="evenodd" fill-opacity="1" /><path clip-path="url(#clip650)" d="M147.501 515.681 L152.385 515.681 L152.385 521.561 L147.501 521.561 L147.501 515.681 Z" fill="#ffffff" fill-rule="evenodd" fill-opacity="1" /><path clip-path="url(#clip650)" d="M176.737 502.927 Q180.093 503.644 181.968 505.913 Q183.866 508.181 183.866 511.515 Q183.866 516.63 180.348 519.431 Q176.829 522.232 170.348 522.232 Q168.172 522.232 165.857 521.792 Q163.565 521.376 161.112 520.519 L161.112 516.005 Q163.056 517.14 165.371 517.718 Q167.686 518.297 170.209 518.297 Q174.607 518.297 176.899 516.561 Q179.214 514.825 179.214 511.515 Q179.214 508.459 177.061 506.746 Q174.931 505.01 171.112 505.01 L167.084 505.01 L167.084 501.168 L171.297 501.168 Q174.746 501.168 176.575 499.802 Q178.403 498.413 178.403 495.82 Q178.403 493.158 176.505 491.746 Q174.63 490.311 171.112 490.311 Q169.19 490.311 166.991 490.728 Q164.792 491.145 162.153 492.024 L162.153 487.857 Q164.815 487.117 167.13 486.746 Q169.468 486.376 171.528 486.376 Q176.852 486.376 179.954 488.807 Q183.056 491.214 183.056 495.334 Q183.056 498.205 181.413 500.195 Q179.769 502.163 176.737 502.927 Z" fill="#ffffff" fill-rule="evenodd" fill-opacity="1" /><path clip-path="url(#clip650)" d="M126.205 196.041 Q122.593 196.041 120.765 199.606 Q118.959 203.148 118.959 210.278 Q118.959 217.384 120.765 220.949 Q122.593 224.49 126.205 224.49 Q129.839 224.49 131.644 220.949 Q133.473 217.384 133.473 210.278 Q133.473 203.148 131.644 199.606 Q129.839 196.041 126.205 196.041 M126.205 192.338 Q132.015 192.338 135.07 196.944 Q138.149 201.528 138.149 210.278 Q138.149 219.004 135.07 223.611 Q132.015 228.194 126.205 228.194 Q120.394 228.194 117.316 223.611 Q114.26 219.004 114.26 210.278 Q114.26 201.528 117.316 196.944 Q120.394 192.338 126.205 192.338 Z" fill="#ffffff" fill-rule="evenodd" fill-opacity="1" /><path clip-path="url(#clip650)" d="M146.366 221.643 L151.251 221.643 L151.251 227.523 L146.366 227.523 L146.366 221.643 Z" fill="#ffffff" fill-rule="evenodd" fill-opacity="1" /><path clip-path="url(#clip650)" d="M174.283 197.037 L162.477 215.486 L174.283 215.486 L174.283 197.037 M173.056 192.963 L178.936 192.963 L178.936 215.486 L183.866 215.486 L183.866 219.375 L178.936 219.375 L178.936 227.523 L174.283 227.523 L174.283 219.375 L158.681 219.375 L158.681 214.861 L173.056 192.963 Z" fill="#ffffff" fill-rule="evenodd" fill-opacity="1" /><path clip-path="url(#clip650)" d="M21.7677 935.015 L39.6235 935.015 L39.6235 926.93 Q39.6235 922.443 37.3 919.992 Q34.9765 917.541 30.6797 917.541 Q26.4147 917.541 24.0912 919.992 Q21.7677 922.443 21.7677 926.93 L21.7677 935.015 M16.4842 941.444 L16.4842 926.93 Q16.4842 918.942 20.1126 914.867 Q23.7092 910.762 30.6797 910.762 Q37.7138 910.762 41.3104 914.867 Q44.907 918.942 44.907 926.93 L44.907 935.015 L64.0042 935.015 L64.0042 941.444 L16.4842 941.444 Z" fill="#ffffff" fill-rule="evenodd" fill-opacity="1" /><path clip-path="url(#clip650)" d="M33.8307 882.88 Q33.2578 883.866 33.0032 885.044 Q32.7167 886.19 32.7167 887.59 Q32.7167 892.556 35.9632 895.229 Q39.1779 897.871 45.2253 897.871 L64.0042 897.871 L64.0042 903.759 L28.3562 903.759 L28.3562 897.871 L33.8944 897.871 Q30.6479 896.025 29.0883 893.065 Q27.4968 890.105 27.4968 885.872 Q27.4968 885.267 27.5923 884.535 Q27.656 883.803 27.8151 882.912 L33.8307 882.88 Z" fill="#ffffff" fill-rule="evenodd" fill-opacity="1" /><path clip-path="url(#clip650)" d="M32.4621 864.356 Q32.4621 869.066 36.1542 871.803 Q39.8145 874.541 46.212 874.541 Q52.6095 874.541 56.3017 871.835 Q59.9619 869.098 59.9619 864.356 Q59.9619 859.677 56.2698 856.94 Q52.5777 854.202 46.212 854.202 Q39.8781 854.202 36.186 856.94 Q32.4621 859.677 32.4621 864.356 M27.4968 864.356 Q27.4968 856.717 32.4621 852.356 Q37.4273 847.996 46.212 847.996 Q54.9649 847.996 59.9619 852.356 Q64.9272 856.717 64.9272 864.356 Q64.9272 872.026 59.9619 876.387 Q54.9649 880.715 46.212 880.715 Q37.4273 880.715 32.4621 876.387 Q27.4968 872.026 27.4968 864.356 Z" fill="#ffffff" fill-rule="evenodd" fill-opacity="1" /><path clip-path="url(#clip650)" d="M46.212 812.698 Q39.7508 812.698 36.0905 815.371 Q32.3984 818.013 32.3984 822.66 Q32.3984 827.307 36.0905 829.981 Q39.7508 832.623 46.212 832.623 Q52.6732 832.623 56.3653 829.981 Q60.0256 827.307 60.0256 822.66 Q60.0256 818.013 56.3653 815.371 Q52.6732 812.698 46.212 812.698 M33.7671 832.623 Q30.5842 830.776 29.0564 827.976 Q27.4968 825.143 27.4968 821.228 Q27.4968 814.735 32.6531 810.693 Q37.8093 806.619 46.212 806.619 Q54.6147 806.619 59.771 810.693 Q64.9272 814.735 64.9272 821.228 Q64.9272 825.143 63.3994 827.976 Q61.8398 830.776 58.657 832.623 L64.0042 832.623 L64.0042 838.511 L14.479 838.511 L14.479 832.623 L33.7671 832.623 Z" fill="#ffffff" fill-rule="evenodd" fill-opacity="1" /><path clip-path="url(#clip650)" d="M46.0847 780.71 Q46.0847 787.808 47.7079 790.545 Q49.3312 793.282 53.2461 793.282 Q56.3653 793.282 58.2114 791.245 Q60.0256 789.177 60.0256 785.644 Q60.0256 780.774 56.5881 777.846 Q53.1188 774.886 47.3897 774.886 L46.0847 774.886 L46.0847 780.71 M43.6657 769.029 L64.0042 769.029 L64.0042 774.886 L58.5933 774.886 Q61.8398 776.891 63.3994 779.883 Q64.9272 782.875 64.9272 787.203 Q64.9272 792.678 61.8716 795.924 Q58.7843 799.139 53.6281 799.139 Q47.6125 799.139 44.5569 795.129 Q41.5014 791.086 41.5014 783.097 L41.5014 774.886 L40.9285 774.886 Q36.8862 774.886 34.6901 777.559 Q32.4621 780.201 32.4621 785.007 Q32.4621 788.063 33.1941 790.959 Q33.9262 793.855 35.3903 796.529 L29.9795 796.529 Q28.7381 793.314 28.1334 790.291 Q27.4968 787.267 27.4968 784.402 Q27.4968 776.668 31.5072 772.849 Q35.5176 769.029 43.6657 769.029 Z" fill="#ffffff" fill-rule="evenodd" fill-opacity="1" /><path clip-path="url(#clip650)" d="M46.212 731.376 Q39.7508 731.376 36.0905 734.05 Q32.3984 736.691 32.3984 741.338 Q32.3984 745.985 36.0905 748.659 Q39.7508 751.301 46.212 751.301 Q52.6732 751.301 56.3653 748.659 Q60.0256 745.985 60.0256 741.338 Q60.0256 736.691 56.3653 734.05 Q52.6732 731.376 46.212 731.376 M33.7671 751.301 Q30.5842 749.455 29.0564 746.654 Q27.4968 743.821 27.4968 739.906 Q27.4968 733.413 32.6531 729.371 Q37.8093 725.297 46.212 725.297 Q54.6147 725.297 59.771 729.371 Q64.9272 733.413 64.9272 739.906 Q64.9272 743.821 63.3994 746.654 Q61.8398 749.455 58.657 751.301 L64.0042 751.301 L64.0042 757.189 L14.479 757.189 L14.479 751.301 L33.7671 751.301 Z" fill="#ffffff" fill-rule="evenodd" fill-opacity="1" /><path clip-path="url(#clip650)" d="M28.3562 715.589 L28.3562 709.733 L64.0042 709.733 L64.0042 715.589 L28.3562 715.589 M14.479 715.589 L14.479 709.733 L21.895 709.733 L21.895 715.589 L14.479 715.589 Z" fill="#ffffff" fill-rule="evenodd" fill-opacity="1" /><path clip-path="url(#clip650)" d="M14.479 697.479 L14.479 691.622 L64.0042 691.622 L64.0042 697.479 L14.479 697.479 Z" fill="#ffffff" fill-rule="evenodd" fill-opacity="1" /><path clip-path="url(#clip650)" d="M28.3562 679.368 L28.3562 673.512 L64.0042 673.512 L64.0042 679.368 L28.3562 679.368 M14.479 679.368 L14.479 673.512 L21.895 673.512 L21.895 679.368 L14.479 679.368 Z" fill="#ffffff" fill-rule="evenodd" fill-opacity="1" /><path clip-path="url(#clip650)" d="M18.2347 655.465 L28.3562 655.465 L28.3562 643.402 L32.9077 643.402 L32.9077 655.465 L52.2594 655.465 Q56.6199 655.465 57.8613 654.287 Q59.1026 653.078 59.1026 649.418 L59.1026 643.402 L64.0042 643.402 L64.0042 649.418 Q64.0042 656.197 61.4897 658.775 Q58.9434 661.353 52.2594 661.353 L32.9077 661.353 L32.9077 665.65 L28.3562 665.65 L28.3562 661.353 L18.2347 661.353 L18.2347 655.465 Z" fill="#ffffff" fill-rule="evenodd" fill-opacity="1" /><path clip-path="url(#clip650)" d="M67.3143 620.867 Q73.68 623.35 75.6216 625.705 Q77.5631 628.061 77.5631 632.007 L77.5631 636.686 L72.6615 636.686 L72.6615 633.249 Q72.6615 630.83 71.5157 629.493 Q70.3699 628.156 66.1048 626.533 L63.4312 625.482 L28.3562 639.901 L28.3562 633.694 L56.238 622.554 L28.3562 611.414 L28.3562 605.208 L67.3143 620.867 Z" fill="#ffffff" fill-rule="evenodd" fill-opacity="1" /><path clip-path="url(#clip650)" d="M1128.2 18.8205 L1128.2 41.5461 L1138.49 41.5461 Q1144.21 41.5461 1147.32 38.5889 Q1150.44 35.6318 1150.44 30.163 Q1150.44 24.7348 1147.32 21.7777 Q1144.21 18.8205 1138.49 18.8205 L1128.2 18.8205 M1120.02 12.096 L1138.49 12.096 Q1148.66 12.096 1153.85 16.714 Q1159.07 21.2916 1159.07 30.163 Q1159.07 39.1155 1153.85 43.6931 Q1148.66 48.2706 1138.49 48.2706 L1128.2 48.2706 L1128.2 72.576 L1120.02 72.576 L1120.02 12.096 Z" fill="#ffffff" fill-rule="evenodd" fill-opacity="1" /><path clip-path="url(#clip650)" d="M1178.23 18.8205 L1178.23 65.8515 L1188.12 65.8515 Q1200.63 65.8515 1206.43 60.1802 Q1212.26 54.509 1212.26 42.2752 Q1212.26 30.1225 1206.43 24.4918 Q1200.63 18.8205 1188.12 18.8205 L1178.23 18.8205 M1170.05 12.096 L1186.86 12.096 Q1204.44 12.096 1212.67 19.4281 Q1220.89 26.7198 1220.89 42.2752 Q1220.89 57.9117 1212.63 65.2439 Q1204.36 72.576 1186.86 72.576 L1170.05 72.576 L1170.05 12.096 Z" fill="#ffffff" fill-rule="evenodd" fill-opacity="1" /><path clip-path="url(#clip650)" d="M1233.93 12.096 L1268.69 12.096 L1268.69 18.9825 L1242.12 18.9825 L1242.12 36.8065 L1266.1 36.8065 L1266.1 43.6931 L1242.12 43.6931 L1242.12 72.576 L1233.93 72.576 L1233.93 12.096 Z" fill="#ffffff" fill-rule="evenodd" fill-opacity="1" /><path clip-path="url(#clip650)" d="M1325.28 32.4315 Q1319.29 32.4315 1315.8 37.1306 Q1312.32 41.7891 1312.32 49.9314 Q1312.32 58.0738 1315.76 62.7728 Q1319.24 67.4314 1325.28 67.4314 Q1331.24 67.4314 1334.72 62.7323 Q1338.2 58.0333 1338.2 49.9314 Q1338.2 41.8701 1334.72 37.1711 Q1331.24 32.4315 1325.28 32.4315 M1325.28 26.1121 Q1335 26.1121 1340.55 32.4315 Q1346.1 38.7509 1346.1 49.9314 Q1346.1 61.0714 1340.55 67.4314 Q1335 73.7508 1325.28 73.7508 Q1315.52 73.7508 1309.97 67.4314 Q1304.46 61.0714 1304.46 49.9314 Q1304.46 38.7509 1309.97 32.4315 Q1315.52 26.1121 1325.28 26.1121 Z" fill="#ffffff" fill-rule="evenodd" fill-opacity="1" /><path clip-path="url(#clip650)" d="M1381.43 9.54393 L1381.43 15.7418 L1374.3 15.7418 Q1370.29 15.7418 1368.71 17.3622 Q1367.17 18.9825 1367.17 23.1955 L1367.17 27.2059 L1379.44 27.2059 L1379.44 32.9987 L1367.17 32.9987 L1367.17 72.576 L1359.67 72.576 L1359.67 32.9987 L1352.54 32.9987 L1352.54 27.2059 L1359.67 27.2059 L1359.67 24.0462 Q1359.67 16.471 1363.2 13.0277 Q1366.72 9.54393 1374.38 9.54393 L1381.43 9.54393 Z" fill="#ffffff" fill-rule="evenodd" fill-opacity="1" /><path clip-path="url(#clip650)" d="M1451.75 27.2059 L1435.34 49.2833 L1452.6 72.576 L1443.81 72.576 L1430.6 54.752 L1417.4 72.576 L1408.61 72.576 L1426.23 48.8377 L1410.11 27.2059 L1418.9 27.2059 L1430.93 43.369 L1442.96 27.2059 L1451.75 27.2059 Z" fill="#ffffff" fill-rule="evenodd" fill-opacity="1" /><polyline clip-path="url(#clip652)" style="stroke:#009af9; stroke-linecap:round; stroke-linejoin:round; stroke-width:8; stroke-opacity:1; fill:none" points="280.231,1386.4 300.556,1386.4 320.881,1386.4 341.206,1386.4 361.53,1386.4 381.855,1386.4 402.18,1386.4 422.505,1386.4 442.83,1386.4 463.155,1386.4 483.48,1386.4 483.48,1383.46 503.804,1383.46 503.804,1386.4 524.129,1386.4 544.454,1386.4 564.779,1386.4 564.779,1380.51 585.104,1380.51 585.104,1383.46 605.429,1383.46 605.429,1380.51 625.753,1380.51 646.078,1380.51 646.078,1368.75 666.403,1368.75 686.728,1368.75 686.728,1374.63 707.053,1374.63 707.053,1371.69 727.378,1371.69 727.378,1359.93 747.703,1359.93 747.703,1345.23 768.027,1345.23 768.027,1351.11 788.352,1351.11 788.352,1336.41 808.677,1336.41 808.677,1339.35 829.002,1339.35 829.002,1283.48 849.327,1283.48 849.327,1236.44 869.652,1236.44 869.652,1218.79 889.977,1218.79 889.977,1204.09 910.301,1204.09 910.301,1165.87 930.626,1165.87 930.626,1145.28 950.951,1145.28 950.951,1086.48 971.276,1086.48 971.276,1057.07 991.601,1057.07 991.601,971.802 1011.93,971.802 1011.93,915.935 1032.25,915.935 1032.25,889.471 1052.58,889.471 1052.58,792.438 1072.9,792.438 1072.9,704.227 1093.23,704.227 1093.23,589.552 1113.55,589.552 1113.55,624.837 1133.87,624.837 1133.87,427.831 1154.2,427.831 1154.2,430.771 1174.52,430.771 1174.52,483.698 1194.85,483.698 1194.85,301.395 1215.17,301.395 1215.17,251.408 1235.5,251.408 1235.5,330.798 1255.82,330.798 1255.82,333.739 1276.15,333.739 1276.15,160.256 1296.47,160.256 1296.47,210.243 1316.8,210.243 1316.8,216.124 1337.12,216.124 1337.12,263.17 1357.45,263.17 1357.45,219.064 1377.77,219.064 1377.77,321.977 1398.1,321.977 1398.1,386.666 1418.42,386.666 1418.42,342.56 1438.75,342.56 1438.75,542.506 1459.07,542.506 1459.07,513.102 1479.4,513.102 1479.4,604.254 1499.72,604.254 1499.72,698.346 1520.05,698.346 1520.05,813.021 1540.37,813.021 1540.37,821.842 1560.7,821.842 1560.7,954.159 1581.02,954.159 1581.02,951.219 1601.35,951.219 1601.35,1036.49 1621.67,1036.49 1621.67,1092.36 1642,1092.36 1642,1142.34 1662.32,1142.34 1662.32,1139.4 1682.65,1139.4 1682.65,1221.73 1702.97,1221.73 1702.97,1242.32 1723.3,1242.32 1723.3,1280.54 1743.62,1280.54 1743.62,1309.95 1763.95,1309.95 1763.95,1315.83 1784.27,1315.83 1784.27,1318.77 1804.59,1318.77 1804.59,1362.87 1824.92,1362.87 1824.92,1351.11 1845.24,1351.11 1845.24,1368.75 1865.57,1368.75 1865.57,1377.57 1885.89,1377.57 1885.89,1374.63 1906.22,1374.63 1906.22,1386.4 1926.54,1386.4 1926.54,1371.69 1946.87,1371.69 1967.19,1371.69 1967.19,1380.51 1987.52,1380.51 1987.52,1383.46 2007.84,1383.46 2007.84,1386.4 2028.17,1386.4 2048.49,1386.4 2068.82,1386.4 2089.14,1386.4 2109.47,1386.4 2129.79,1386.4 2150.12,1386.4 2170.44,1386.4 2190.77,1386.4 2211.09,1386.4 2231.42,1386.4 2251.74,1386.4 2272.07,1386.4 2292.39,1386.4 "/>
<polyline clip-path="url(#clip652)" style="stroke:#e26f46; stroke-linecap:round; stroke-linejoin:round; stroke-width:8; stroke-opacity:1; fill:none" points="280.231,1386.39 300.556,1386.39 320.881,1386.38 341.206,1386.38 361.53,1386.37 381.855,1386.35 402.18,1386.32 422.505,1386.28 442.83,1386.22 463.155,1386.13 483.48,1386 503.804,1385.81 524.129,1385.54 544.454,1385.15 564.779,1384.6 585.104,1383.83 605.429,1382.77 625.753,1381.33 646.078,1379.39 666.403,1376.79 686.728,1373.36 707.053,1368.89 727.378,1363.12 747.703,1355.75 768.027,1346.46 788.352,1334.86 808.677,1320.55 829.002,1303.1 849.327,1282.09 869.652,1257.07 889.977,1227.64 910.301,1193.46 930.626,1154.25 950.951,1109.86 971.276,1060.25 991.601,1005.56 1011.93,946.14 1032.25,882.507 1052.58,815.414 1072.9,745.827 1093.23,674.909 1113.55,604.003 1133.87,534.592 1154.2,468.25 1174.52,406.588 1194.85,351.189 1215.17,303.541 1235.5,264.97 1255.82,236.581 1276.15,219.203 1296.47,213.353 1316.8,219.203 1337.12,236.581 1357.45,264.97 1377.77,303.541 1398.1,351.189 1418.42,406.588 1438.75,468.25 1459.07,534.592 1479.4,604.003 1499.72,674.909 1520.05,745.827 1540.37,815.414 1560.7,882.507 1581.02,946.14 1601.35,1005.56 1621.67,1060.25 1642,1109.86 1662.32,1154.25 1682.65,1193.46 1702.97,1227.64 1723.3,1257.07 1743.62,1282.09 1763.95,1303.1 1784.27,1320.55 1804.59,1334.86 1824.92,1346.46 1845.24,1355.75 1865.57,1363.12 1885.89,1368.89 1906.22,1373.36 1926.54,1376.79 1946.87,1379.39 1967.19,1381.33 1987.52,1382.77 2007.84,1383.83 2028.17,1384.6 2048.49,1385.15 2068.82,1385.54 2089.14,1385.81 2109.47,1386 2129.79,1386.13 2150.12,1386.22 2170.44,1386.28 2190.77,1386.32 2211.09,1386.35 2231.42,1386.37 2251.74,1386.38 2272.07,1386.38 2292.39,1386.39 "/>
<path clip-path="url(#clip650)" d="M994.841 1379.86 L1577.78 1379.86 L1577.78 1224.34 L994.841 1224.34  Z" fill="#000000" fill-rule="evenodd" fill-opacity="0"/>
<polyline clip-path="url(#clip650)" style="stroke:#ffffff; stroke-linecap:round; stroke-linejoin:round; stroke-width:4; stroke-opacity:1; fill:none" points="994.841,1379.86 1577.78,1379.86 1577.78,1224.34 994.841,1224.34 994.841,1379.86 "/>
<polyline clip-path="url(#clip650)" style="stroke:#009af9; stroke-linecap:round; stroke-linejoin:round; stroke-width:8; stroke-opacity:1; fill:none" points="1018.54,1276.18 1160.73,1276.18 "/>
<path clip-path="url(#clip650)" d="M1184.43 1258.9 L1206.28 1258.9 L1206.28 1262.83 L1189.11 1262.83 L1189.11 1273.06 L1205.57 1273.06 L1205.57 1277 L1189.11 1277 L1189.11 1289.52 L1206.7 1289.52 L1206.7 1293.46 L1184.43 1293.46 L1184.43 1258.9 Z" fill="#ffffff" fill-rule="evenodd" fill-opacity="1" /><path clip-path="url(#clip650)" d="M1230.73 1268.29 L1230.73 1272.32 Q1228.92 1271.4 1226.98 1270.93 Q1225.03 1270.47 1222.95 1270.47 Q1219.78 1270.47 1218.18 1271.44 Q1216.61 1272.41 1216.61 1274.36 Q1216.61 1275.84 1217.74 1276.7 Q1218.88 1277.53 1222.3 1278.29 L1223.76 1278.62 Q1228.3 1279.59 1230.2 1281.37 Q1232.12 1283.13 1232.12 1286.3 Q1232.12 1289.91 1229.25 1292.02 Q1226.4 1294.13 1221.4 1294.13 Q1219.32 1294.13 1217.05 1293.71 Q1214.8 1293.32 1212.3 1292.51 L1212.3 1288.11 Q1214.66 1289.34 1216.95 1289.96 Q1219.25 1290.56 1221.49 1290.56 Q1224.5 1290.56 1226.12 1289.54 Q1227.74 1288.5 1227.74 1286.63 Q1227.74 1284.89 1226.56 1283.97 Q1225.4 1283.04 1221.45 1282.18 L1219.96 1281.84 Q1216.01 1281 1214.25 1279.29 Q1212.49 1277.55 1212.49 1274.54 Q1212.49 1270.89 1215.08 1268.9 Q1217.67 1266.91 1222.44 1266.91 Q1224.8 1266.91 1226.88 1267.25 Q1228.97 1267.6 1230.73 1268.29 Z" fill="#ffffff" fill-rule="evenodd" fill-opacity="1" /><path clip-path="url(#clip650)" d="M1243.11 1260.17 L1243.11 1267.53 L1251.88 1267.53 L1251.88 1270.84 L1243.11 1270.84 L1243.11 1284.91 Q1243.11 1288.09 1243.97 1288.99 Q1244.85 1289.89 1247.51 1289.89 L1251.88 1289.89 L1251.88 1293.46 L1247.51 1293.46 Q1242.58 1293.46 1240.7 1291.63 Q1238.83 1289.78 1238.83 1284.91 L1238.83 1270.84 L1235.7 1270.84 L1235.7 1267.53 L1238.83 1267.53 L1238.83 1260.17 L1243.11 1260.17 Z" fill="#ffffff" fill-rule="evenodd" fill-opacity="1" /><path clip-path="url(#clip650)" d="M1257.49 1267.53 L1261.75 1267.53 L1261.75 1293.46 L1257.49 1293.46 L1257.49 1267.53 M1257.49 1257.44 L1261.75 1257.44 L1261.75 1262.83 L1257.49 1262.83 L1257.49 1257.44 Z" fill="#ffffff" fill-rule="evenodd" fill-opacity="1" /><path clip-path="url(#clip650)" d="M1290.84 1272.51 Q1292.44 1269.64 1294.66 1268.27 Q1296.88 1266.91 1299.89 1266.91 Q1303.94 1266.91 1306.14 1269.75 Q1308.34 1272.58 1308.34 1277.81 L1308.34 1293.46 L1304.06 1293.46 L1304.06 1277.95 Q1304.06 1274.22 1302.74 1272.41 Q1301.42 1270.61 1298.71 1270.61 Q1295.4 1270.61 1293.48 1272.81 Q1291.56 1275.01 1291.56 1278.8 L1291.56 1293.46 L1287.28 1293.46 L1287.28 1277.95 Q1287.28 1274.2 1285.96 1272.41 Q1284.64 1270.61 1281.88 1270.61 Q1278.62 1270.61 1276.7 1272.83 Q1274.78 1275.03 1274.78 1278.8 L1274.78 1293.46 L1270.5 1293.46 L1270.5 1267.53 L1274.78 1267.53 L1274.78 1271.56 Q1276.24 1269.17 1278.27 1268.04 Q1280.31 1266.91 1283.11 1266.91 Q1285.94 1266.91 1287.9 1268.34 Q1289.89 1269.78 1290.84 1272.51 Z" fill="#ffffff" fill-rule="evenodd" fill-opacity="1" /><path clip-path="url(#clip650)" d="M1328.62 1280.42 Q1323.46 1280.42 1321.47 1281.6 Q1319.48 1282.79 1319.48 1285.63 Q1319.48 1287.9 1320.96 1289.24 Q1322.46 1290.56 1325.03 1290.56 Q1328.57 1290.56 1330.7 1288.06 Q1332.86 1285.54 1332.86 1281.37 L1332.86 1280.42 L1328.62 1280.42 M1337.12 1278.66 L1337.12 1293.46 L1332.86 1293.46 L1332.86 1289.52 Q1331.4 1291.88 1329.22 1293.02 Q1327.05 1294.13 1323.9 1294.13 Q1319.92 1294.13 1317.56 1291.91 Q1315.22 1289.66 1315.22 1285.91 Q1315.22 1281.54 1318.13 1279.31 Q1321.07 1277.09 1326.88 1277.09 L1332.86 1277.09 L1332.86 1276.67 Q1332.86 1273.73 1330.91 1272.14 Q1328.99 1270.52 1325.5 1270.52 Q1323.27 1270.52 1321.17 1271.05 Q1319.06 1271.58 1317.12 1272.65 L1317.12 1268.71 Q1319.45 1267.81 1321.65 1267.37 Q1323.85 1266.91 1325.94 1266.91 Q1331.56 1266.91 1334.34 1269.82 Q1337.12 1272.74 1337.12 1278.66 Z" fill="#ffffff" fill-rule="evenodd" fill-opacity="1" /><path clip-path="url(#clip650)" d="M1350.1 1260.17 L1350.1 1267.53 L1358.87 1267.53 L1358.87 1270.84 L1350.1 1270.84 L1350.1 1284.91 Q1350.1 1288.09 1350.96 1288.99 Q1351.84 1289.89 1354.5 1289.89 L1358.87 1289.89 L1358.87 1293.46 L1354.5 1293.46 Q1349.57 1293.46 1347.69 1291.63 Q1345.82 1289.78 1345.82 1284.91 L1345.82 1270.84 L1342.69 1270.84 L1342.69 1267.53 L1345.82 1267.53 L1345.82 1260.17 L1350.1 1260.17 Z" fill="#ffffff" fill-rule="evenodd" fill-opacity="1" /><path clip-path="url(#clip650)" d="M1386.65 1279.43 L1386.65 1281.51 L1367.07 1281.51 Q1367.35 1285.91 1369.71 1288.22 Q1372.09 1290.52 1376.33 1290.52 Q1378.78 1290.52 1381.07 1289.91 Q1383.39 1289.31 1385.66 1288.11 L1385.66 1292.14 Q1383.37 1293.11 1380.96 1293.62 Q1378.55 1294.13 1376.07 1294.13 Q1369.87 1294.13 1366.24 1290.52 Q1362.62 1286.91 1362.62 1280.75 Q1362.62 1274.38 1366.05 1270.66 Q1369.5 1266.91 1375.33 1266.91 Q1380.56 1266.91 1383.6 1270.29 Q1386.65 1273.64 1386.65 1279.43 M1382.39 1278.18 Q1382.35 1274.68 1380.43 1272.6 Q1378.53 1270.52 1375.38 1270.52 Q1371.81 1270.52 1369.66 1272.53 Q1367.53 1274.54 1367.21 1278.2 L1382.39 1278.18 Z" fill="#ffffff" fill-rule="evenodd" fill-opacity="1" /><path clip-path="url(#clip650)" d="M1410.7 1271.47 L1410.7 1257.44 L1414.96 1257.44 L1414.96 1293.46 L1410.7 1293.46 L1410.7 1289.57 Q1409.36 1291.88 1407.3 1293.02 Q1405.26 1294.13 1402.39 1294.13 Q1397.69 1294.13 1394.73 1290.38 Q1391.79 1286.63 1391.79 1280.52 Q1391.79 1274.41 1394.73 1270.66 Q1397.69 1266.91 1402.39 1266.91 Q1405.26 1266.91 1407.3 1268.04 Q1409.36 1269.15 1410.7 1271.47 M1396.19 1280.52 Q1396.19 1285.22 1398.11 1287.9 Q1400.06 1290.56 1403.43 1290.56 Q1406.81 1290.56 1408.76 1287.9 Q1410.7 1285.22 1410.7 1280.52 Q1410.7 1275.82 1408.76 1273.16 Q1406.81 1270.47 1403.43 1270.47 Q1400.06 1270.47 1398.11 1273.16 Q1396.19 1275.82 1396.19 1280.52 Z" fill="#ffffff" fill-rule="evenodd" fill-opacity="1" /><path clip-path="url(#clip650)" d="M1443.67 1262.74 L1443.67 1275.72 L1449.55 1275.72 Q1452.81 1275.72 1454.59 1274.04 Q1456.37 1272.35 1456.37 1269.22 Q1456.37 1266.12 1454.59 1264.43 Q1452.81 1262.74 1449.55 1262.74 L1443.67 1262.74 M1438.99 1258.9 L1449.55 1258.9 Q1455.36 1258.9 1458.32 1261.54 Q1461.3 1264.15 1461.3 1269.22 Q1461.3 1274.34 1458.32 1276.95 Q1455.36 1279.57 1449.55 1279.57 L1443.67 1279.57 L1443.67 1293.46 L1438.99 1293.46 L1438.99 1258.9 Z" fill="#ffffff" fill-rule="evenodd" fill-opacity="1" /><path clip-path="url(#clip650)" d="M1472.25 1262.74 L1472.25 1289.61 L1477.9 1289.61 Q1485.05 1289.61 1488.36 1286.37 Q1491.7 1283.13 1491.7 1276.14 Q1491.7 1269.2 1488.36 1265.98 Q1485.05 1262.74 1477.9 1262.74 L1472.25 1262.74 M1467.58 1258.9 L1477.18 1258.9 Q1487.23 1258.9 1491.93 1263.09 Q1496.63 1267.25 1496.63 1276.14 Q1496.63 1285.08 1491.91 1289.27 Q1487.18 1293.46 1477.18 1293.46 L1467.58 1293.46 L1467.58 1258.9 Z" fill="#ffffff" fill-rule="evenodd" fill-opacity="1" /><path clip-path="url(#clip650)" d="M1504.08 1258.9 L1523.94 1258.9 L1523.94 1262.83 L1508.76 1262.83 L1508.76 1273.02 L1522.46 1273.02 L1522.46 1276.95 L1508.76 1276.95 L1508.76 1293.46 L1504.08 1293.46 L1504.08 1258.9 Z" fill="#ffffff" fill-rule="evenodd" fill-opacity="1" /><polyline clip-path="url(#clip650)" style="stroke:#e26f46; stroke-linecap:round; stroke-linejoin:round; stroke-width:8; stroke-opacity:1; fill:none" points="1018.54,1328.02 1160.73,1328.02 "/>
<path clip-path="url(#clip650)" d="M1184.43 1310.74 L1213.67 1310.74 L1213.67 1314.67 L1201.4 1314.67 L1201.4 1345.3 L1196.7 1345.3 L1196.7 1314.67 L1184.43 1314.67 L1184.43 1310.74 Z" fill="#ffffff" fill-rule="evenodd" fill-opacity="1" /><path clip-path="url(#clip650)" d="M1239.55 1329.65 L1239.55 1345.3 L1235.29 1345.3 L1235.29 1329.79 Q1235.29 1326.11 1233.85 1324.28 Q1232.42 1322.45 1229.55 1322.45 Q1226.1 1322.45 1224.11 1324.65 Q1222.12 1326.85 1222.12 1330.64 L1222.12 1345.3 L1217.83 1345.3 L1217.83 1309.28 L1222.12 1309.28 L1222.12 1323.4 Q1223.64 1321.06 1225.7 1319.9 Q1227.79 1318.75 1230.5 1318.75 Q1234.96 1318.75 1237.26 1321.52 Q1239.55 1324.28 1239.55 1329.65 Z" fill="#ffffff" fill-rule="evenodd" fill-opacity="1" /><path clip-path="url(#clip650)" d="M1270.22 1331.27 L1270.22 1333.35 L1250.63 1333.35 Q1250.91 1337.75 1253.27 1340.06 Q1255.66 1342.36 1259.89 1342.36 Q1262.35 1342.36 1264.64 1341.75 Q1266.95 1341.15 1269.22 1339.95 L1269.22 1343.98 Q1266.93 1344.95 1264.52 1345.46 Q1262.12 1345.97 1259.64 1345.97 Q1253.44 1345.97 1249.8 1342.36 Q1246.19 1338.75 1246.19 1332.59 Q1246.19 1326.22 1249.62 1322.5 Q1253.07 1318.75 1258.9 1318.75 Q1264.13 1318.75 1267.16 1322.13 Q1270.22 1325.48 1270.22 1331.27 M1265.96 1330.02 Q1265.91 1326.52 1263.99 1324.44 Q1262.09 1322.36 1258.94 1322.36 Q1255.38 1322.36 1253.23 1324.37 Q1251.1 1326.38 1250.77 1330.04 L1265.96 1330.02 Z" fill="#ffffff" fill-rule="evenodd" fill-opacity="1" /><path clip-path="url(#clip650)" d="M1287.25 1322.36 Q1283.83 1322.36 1281.84 1325.04 Q1279.85 1327.7 1279.85 1332.36 Q1279.85 1337.01 1281.82 1339.69 Q1283.81 1342.36 1287.25 1342.36 Q1290.66 1342.36 1292.65 1339.67 Q1294.64 1336.99 1294.64 1332.36 Q1294.64 1327.75 1292.65 1325.06 Q1290.66 1322.36 1287.25 1322.36 M1287.25 1318.75 Q1292.81 1318.75 1295.98 1322.36 Q1299.15 1325.97 1299.15 1332.36 Q1299.15 1338.72 1295.98 1342.36 Q1292.81 1345.97 1287.25 1345.97 Q1281.68 1345.97 1278.5 1342.36 Q1275.36 1338.72 1275.36 1332.36 Q1275.36 1325.97 1278.5 1322.36 Q1281.68 1318.75 1287.25 1318.75 Z" fill="#ffffff" fill-rule="evenodd" fill-opacity="1" /><path clip-path="url(#clip650)" d="M1321.24 1323.35 Q1320.52 1322.94 1319.66 1322.75 Q1318.83 1322.54 1317.81 1322.54 Q1314.2 1322.54 1312.25 1324.9 Q1310.33 1327.24 1310.33 1331.64 L1310.33 1345.3 L1306.05 1345.3 L1306.05 1319.37 L1310.33 1319.37 L1310.33 1323.4 Q1311.68 1321.04 1313.83 1319.9 Q1315.98 1318.75 1319.06 1318.75 Q1319.5 1318.75 1320.03 1318.81 Q1320.56 1318.86 1321.21 1318.98 L1321.24 1323.35 Z" fill="#ffffff" fill-rule="evenodd" fill-opacity="1" /><path clip-path="url(#clip650)" d="M1346.84 1331.27 L1346.84 1333.35 L1327.25 1333.35 Q1327.53 1337.75 1329.89 1340.06 Q1332.28 1342.36 1336.51 1342.36 Q1338.97 1342.36 1341.26 1341.75 Q1343.57 1341.15 1345.84 1339.95 L1345.84 1343.98 Q1343.55 1344.95 1341.14 1345.46 Q1338.74 1345.97 1336.26 1345.97 Q1330.06 1345.97 1326.42 1342.36 Q1322.81 1338.75 1322.81 1332.59 Q1322.81 1326.22 1326.24 1322.5 Q1329.69 1318.75 1335.52 1318.75 Q1340.75 1318.75 1343.78 1322.13 Q1346.84 1325.48 1346.84 1331.27 M1342.58 1330.02 Q1342.53 1326.52 1340.61 1324.44 Q1338.71 1322.36 1335.56 1322.36 Q1332 1322.36 1329.85 1324.37 Q1327.72 1326.38 1327.39 1330.04 L1342.58 1330.02 Z" fill="#ffffff" fill-rule="evenodd" fill-opacity="1" /><path clip-path="url(#clip650)" d="M1358.04 1312.01 L1358.04 1319.37 L1366.81 1319.37 L1366.81 1322.68 L1358.04 1322.68 L1358.04 1336.75 Q1358.04 1339.93 1358.9 1340.83 Q1359.78 1341.73 1362.44 1341.73 L1366.81 1341.73 L1366.81 1345.3 L1362.44 1345.3 Q1357.51 1345.3 1355.63 1343.47 Q1353.76 1341.62 1353.76 1336.75 L1353.76 1322.68 L1350.63 1322.68 L1350.63 1319.37 L1353.76 1319.37 L1353.76 1312.01 L1358.04 1312.01 Z" fill="#ffffff" fill-rule="evenodd" fill-opacity="1" /><path clip-path="url(#clip650)" d="M1372.42 1319.37 L1376.68 1319.37 L1376.68 1345.3 L1372.42 1345.3 L1372.42 1319.37 M1372.42 1309.28 L1376.68 1309.28 L1376.68 1314.67 L1372.42 1314.67 L1372.42 1309.28 Z" fill="#ffffff" fill-rule="evenodd" fill-opacity="1" /><path clip-path="url(#clip650)" d="M1404.25 1320.37 L1404.25 1324.35 Q1402.44 1323.35 1400.61 1322.87 Q1398.81 1322.36 1396.95 1322.36 Q1392.81 1322.36 1390.52 1325 Q1388.23 1327.61 1388.23 1332.36 Q1388.23 1337.1 1390.52 1339.74 Q1392.81 1342.36 1396.95 1342.36 Q1398.81 1342.36 1400.61 1341.87 Q1402.44 1341.36 1404.25 1340.37 L1404.25 1344.3 Q1402.46 1345.13 1400.54 1345.55 Q1398.64 1345.97 1396.49 1345.97 Q1390.63 1345.97 1387.18 1342.29 Q1383.74 1338.61 1383.74 1332.36 Q1383.74 1326.01 1387.21 1322.38 Q1390.7 1318.75 1396.77 1318.75 Q1398.74 1318.75 1400.61 1319.16 Q1402.49 1319.56 1404.25 1320.37 Z" fill="#ffffff" fill-rule="evenodd" fill-opacity="1" /><path clip-path="url(#clip650)" d="M1423.43 1332.26 Q1418.27 1332.26 1416.28 1333.44 Q1414.29 1334.63 1414.29 1337.47 Q1414.29 1339.74 1415.77 1341.08 Q1417.28 1342.4 1419.85 1342.4 Q1423.39 1342.4 1425.52 1339.9 Q1427.67 1337.38 1427.67 1333.21 L1427.67 1332.26 L1423.43 1332.26 M1431.93 1330.5 L1431.93 1345.3 L1427.67 1345.3 L1427.67 1341.36 Q1426.21 1343.72 1424.04 1344.86 Q1421.86 1345.97 1418.71 1345.97 Q1414.73 1345.97 1412.37 1343.75 Q1410.03 1341.5 1410.03 1337.75 Q1410.03 1333.38 1412.95 1331.15 Q1415.89 1328.93 1421.7 1328.93 L1427.67 1328.93 L1427.67 1328.51 Q1427.67 1325.57 1425.73 1323.98 Q1423.81 1322.36 1420.31 1322.36 Q1418.09 1322.36 1415.98 1322.89 Q1413.87 1323.42 1411.93 1324.49 L1411.93 1320.55 Q1414.27 1319.65 1416.47 1319.21 Q1418.67 1318.75 1420.75 1318.75 Q1426.37 1318.75 1429.15 1321.66 Q1431.93 1324.58 1431.93 1330.5 Z" fill="#ffffff" fill-rule="evenodd" fill-opacity="1" /><path clip-path="url(#clip650)" d="M1440.7 1309.28 L1444.96 1309.28 L1444.96 1345.3 L1440.7 1345.3 L1440.7 1309.28 Z" fill="#ffffff" fill-rule="evenodd" fill-opacity="1" /><path clip-path="url(#clip650)" d="M1473.8 1314.58 L1473.8 1327.56 L1479.68 1327.56 Q1482.95 1327.56 1484.73 1325.88 Q1486.51 1324.19 1486.51 1321.06 Q1486.51 1317.96 1484.73 1316.27 Q1482.95 1314.58 1479.68 1314.58 L1473.8 1314.58 M1469.13 1310.74 L1479.68 1310.74 Q1485.49 1310.74 1488.46 1313.38 Q1491.44 1315.99 1491.44 1321.06 Q1491.44 1326.18 1488.46 1328.79 Q1485.49 1331.41 1479.68 1331.41 L1473.8 1331.41 L1473.8 1345.3 L1469.13 1345.3 L1469.13 1310.74 Z" fill="#ffffff" fill-rule="evenodd" fill-opacity="1" /><path clip-path="url(#clip650)" d="M1502.39 1314.58 L1502.39 1341.45 L1508.04 1341.45 Q1515.19 1341.45 1518.5 1338.21 Q1521.84 1334.97 1521.84 1327.98 Q1521.84 1321.04 1518.5 1317.82 Q1515.19 1314.58 1508.04 1314.58 L1502.39 1314.58 M1497.72 1310.74 L1507.32 1310.74 Q1517.37 1310.74 1522.07 1314.93 Q1526.77 1319.09 1526.77 1327.98 Q1526.77 1336.92 1522.05 1341.11 Q1517.32 1345.3 1507.32 1345.3 L1497.72 1345.3 L1497.72 1310.74 Z" fill="#ffffff" fill-rule="evenodd" fill-opacity="1" /><path clip-path="url(#clip650)" d="M1534.22 1310.74 L1554.08 1310.74 L1554.08 1314.67 L1538.9 1314.67 L1538.9 1324.86 L1552.6 1324.86 L1552.6 1328.79 L1538.9 1328.79 L1538.9 1345.3 L1534.22 1345.3 L1534.22 1310.74 Z" fill="#ffffff" fill-rule="evenodd" fill-opacity="1" /></svg>
