<?xml version="1.0" encoding="utf-8"?>
<svg xmlns="http://www.w3.org/2000/svg" xmlns:xlink="http://www.w3.org/1999/xlink" width="600" height="400" viewBox="0 0 2400 1600">
<defs>
  <clipPath id="clip420">
    <rect x="0" y="0" width="2400" height="1600"/>
  </clipPath>
</defs>
<path clip-path="url(#clip420)" d="M0 1600 L2400 1600 L2400 0 L0 0  Z" fill="#000000" fill-rule="evenodd" fill-opacity="0"/>
<defs>
  <clipPath id="clip421">
    <rect x="480" y="0" width="1681" height="1600"/>
  </clipPath>
</defs>
<path clip-path="url(#clip420)" d="M210.746 356.513 L2352.76 356.513 L2352.76 123.472 L210.746 123.472  Z" fill="#000000" fill-rule="evenodd" fill-opacity="0"/>
<defs>
  <clipPath id="clip422">
    <rect x="210" y="123" width="2143" height="234"/>
  </clipPath>
</defs>
<polyline clip-path="url(#clip422)" style="stroke:#ffffff; stroke-linecap:round; stroke-linejoin:round; stroke-width:2; stroke-opacity:0.1; fill:none" points="250.957,356.513 250.957,123.472 "/>
<polyline clip-path="url(#clip422)" style="stroke:#ffffff; stroke-linecap:round; stroke-linejoin:round; stroke-width:2; stroke-opacity:0.1; fill:none" points="761.251,356.513 761.251,123.472 "/>
<polyline clip-path="url(#clip422)" style="stroke:#ffffff; stroke-linecap:round; stroke-linejoin:round; stroke-width:2; stroke-opacity:0.1; fill:none" points="1271.55,356.513 1271.55,123.472 "/>
<polyline clip-path="url(#clip422)" style="stroke:#ffffff; stroke-linecap:round; stroke-linejoin:round; stroke-width:2; stroke-opacity:0.1; fill:none" points="1781.84,356.513 1781.84,123.472 "/>
<polyline clip-path="url(#clip422)" style="stroke:#ffffff; stroke-linecap:round; stroke-linejoin:round; stroke-width:2; stroke-opacity:0.1; fill:none" points="2292.13,356.513 2292.13,123.472 "/>
<polyline clip-path="url(#clip420)" style="stroke:#ffffff; stroke-linecap:round; stroke-linejoin:round; stroke-width:4; stroke-opacity:1; fill:none" points="210.746,356.513 2352.76,356.513 "/>
<polyline clip-path="url(#clip420)" style="stroke:#ffffff; stroke-linecap:round; stroke-linejoin:round; stroke-width:4; stroke-opacity:1; fill:none" points="250.957,356.513 250.957,337.616 "/>
<polyline clip-path="url(#clip420)" style="stroke:#ffffff; stroke-linecap:round; stroke-linejoin:round; stroke-width:4; stroke-opacity:1; fill:none" points="761.251,356.513 761.251,337.616 "/>
<polyline clip-path="url(#clip420)" style="stroke:#ffffff; stroke-linecap:round; stroke-linejoin:round; stroke-width:4; stroke-opacity:1; fill:none" points="1271.55,356.513 1271.55,337.616 "/>
<polyline clip-path="url(#clip420)" style="stroke:#ffffff; stroke-linecap:round; stroke-linejoin:round; stroke-width:4; stroke-opacity:1; fill:none" points="1781.84,356.513 1781.84,337.616 "/>
<polyline clip-path="url(#clip420)" style="stroke:#ffffff; stroke-linecap:round; stroke-linejoin:round; stroke-width:4; stroke-opacity:1; fill:none" points="2292.13,356.513 2292.13,337.616 "/>
<path clip-path="url(#clip420)" d="M250.957 387.432 Q247.346 387.432 245.517 390.997 Q243.712 394.538 243.712 401.668 Q243.712 408.774 245.517 412.339 Q247.346 415.881 250.957 415.881 Q254.591 415.881 256.397 412.339 Q258.226 408.774 258.226 401.668 Q258.226 394.538 256.397 390.997 Q254.591 387.432 250.957 387.432 M250.957 383.728 Q256.767 383.728 259.823 388.335 Q262.901 392.918 262.901 401.668 Q262.901 410.395 259.823 415.001 Q256.767 419.584 250.957 419.584 Q245.147 419.584 242.068 415.001 Q239.013 410.395 239.013 401.668 Q239.013 392.918 242.068 388.335 Q245.147 383.728 250.957 383.728 Z" fill="#ffffff" fill-rule="evenodd" fill-opacity="1" /><path clip-path="url(#clip420)" d="M740.522 414.978 L756.841 414.978 L756.841 418.913 L734.897 418.913 L734.897 414.978 Q737.559 412.223 742.142 407.594 Q746.749 402.941 747.929 401.598 Q750.175 399.075 751.054 397.339 Q751.957 395.58 751.957 393.89 Q751.957 391.136 750.013 389.399 Q748.091 387.663 744.99 387.663 Q742.791 387.663 740.337 388.427 Q737.906 389.191 735.129 390.742 L735.129 386.02 Q737.953 384.886 740.406 384.307 Q742.86 383.728 744.897 383.728 Q750.267 383.728 753.462 386.413 Q756.656 389.099 756.656 393.589 Q756.656 395.719 755.846 397.64 Q755.059 399.538 752.953 402.131 Q752.374 402.802 749.272 406.02 Q746.17 409.214 740.522 414.978 Z" fill="#ffffff" fill-rule="evenodd" fill-opacity="1" /><path clip-path="url(#clip420)" d="M766.702 384.353 L785.059 384.353 L785.059 388.288 L770.985 388.288 L770.985 396.761 Q772.003 396.413 773.022 396.251 Q774.04 396.066 775.059 396.066 Q780.846 396.066 784.225 399.237 Q787.605 402.409 787.605 407.825 Q787.605 413.404 784.133 416.506 Q780.661 419.584 774.341 419.584 Q772.165 419.584 769.897 419.214 Q767.652 418.844 765.244 418.103 L765.244 413.404 Q767.327 414.538 769.55 415.094 Q771.772 415.649 774.249 415.649 Q778.253 415.649 780.591 413.543 Q782.929 411.436 782.929 407.825 Q782.929 404.214 780.591 402.108 Q778.253 400.001 774.249 400.001 Q772.374 400.001 770.499 400.418 Q768.647 400.835 766.702 401.714 L766.702 384.353 Z" fill="#ffffff" fill-rule="evenodd" fill-opacity="1" /><path clip-path="url(#clip420)" d="M1246.24 384.353 L1264.6 384.353 L1264.6 388.288 L1250.53 388.288 L1250.53 396.761 Q1251.55 396.413 1252.56 396.251 Q1253.58 396.066 1254.6 396.066 Q1260.39 396.066 1263.77 399.237 Q1267.15 402.409 1267.15 407.825 Q1267.15 413.404 1263.67 416.506 Q1260.2 419.584 1253.88 419.584 Q1251.71 419.584 1249.44 419.214 Q1247.19 418.844 1244.79 418.103 L1244.79 413.404 Q1246.87 414.538 1249.09 415.094 Q1251.31 415.649 1253.79 415.649 Q1257.8 415.649 1260.13 413.543 Q1262.47 411.436 1262.47 407.825 Q1262.47 404.214 1260.13 402.108 Q1257.8 400.001 1253.79 400.001 Q1251.92 400.001 1250.04 400.418 Q1248.19 400.835 1246.24 401.714 L1246.24 384.353 Z" fill="#ffffff" fill-rule="evenodd" fill-opacity="1" /><path clip-path="url(#clip420)" d="M1286.36 387.432 Q1282.75 387.432 1280.92 390.997 Q1279.11 394.538 1279.11 401.668 Q1279.11 408.774 1280.92 412.339 Q1282.75 415.881 1286.36 415.881 Q1289.99 415.881 1291.8 412.339 Q1293.63 408.774 1293.63 401.668 Q1293.63 394.538 1291.8 390.997 Q1289.99 387.432 1286.36 387.432 M1286.36 383.728 Q1292.17 383.728 1295.23 388.335 Q1298.3 392.918 1298.3 401.668 Q1298.3 410.395 1295.23 415.001 Q1292.17 419.584 1286.36 419.584 Q1280.55 419.584 1277.47 415.001 Q1274.42 410.395 1274.42 401.668 Q1274.42 392.918 1277.47 388.335 Q1280.55 383.728 1286.36 383.728 Z" fill="#ffffff" fill-rule="evenodd" fill-opacity="1" /><path clip-path="url(#clip420)" d="M1755.69 384.353 L1777.92 384.353 L1777.92 386.344 L1765.37 418.913 L1760.48 418.913 L1772.29 388.288 L1755.69 388.288 L1755.69 384.353 Z" fill="#ffffff" fill-rule="evenodd" fill-opacity="1" /><path clip-path="url(#clip420)" d="M1787.08 384.353 L1805.44 384.353 L1805.44 388.288 L1791.36 388.288 L1791.36 396.761 Q1792.38 396.413 1793.4 396.251 Q1794.42 396.066 1795.44 396.066 Q1801.23 396.066 1804.61 399.237 Q1807.98 402.409 1807.98 407.825 Q1807.98 413.404 1804.51 416.506 Q1801.04 419.584 1794.72 419.584 Q1792.54 419.584 1790.28 419.214 Q1788.03 418.844 1785.62 418.103 L1785.62 413.404 Q1787.71 414.538 1789.93 415.094 Q1792.15 415.649 1794.63 415.649 Q1798.63 415.649 1800.97 413.543 Q1803.31 411.436 1803.31 407.825 Q1803.31 404.214 1800.97 402.108 Q1798.63 400.001 1794.63 400.001 Q1792.75 400.001 1790.88 400.418 Q1789.03 400.835 1787.08 401.714 L1787.08 384.353 Z" fill="#ffffff" fill-rule="evenodd" fill-opacity="1" /><path clip-path="url(#clip420)" d="M2251.74 414.978 L2259.38 414.978 L2259.38 388.612 L2251.07 390.279 L2251.07 386.02 L2259.33 384.353 L2264.01 384.353 L2264.01 414.978 L2271.65 414.978 L2271.65 418.913 L2251.74 418.913 L2251.74 414.978 Z" fill="#ffffff" fill-rule="evenodd" fill-opacity="1" /><path clip-path="url(#clip420)" d="M2291.09 387.432 Q2287.48 387.432 2285.65 390.997 Q2283.85 394.538 2283.85 401.668 Q2283.85 408.774 2285.65 412.339 Q2287.48 415.881 2291.09 415.881 Q2294.73 415.881 2296.53 412.339 Q2298.36 408.774 2298.36 401.668 Q2298.36 394.538 2296.53 390.997 Q2294.73 387.432 2291.09 387.432 M2291.09 383.728 Q2296.9 383.728 2299.96 388.335 Q2303.04 392.918 2303.04 401.668 Q2303.04 410.395 2299.96 415.001 Q2296.9 419.584 2291.09 419.584 Q2285.28 419.584 2282.2 415.001 Q2279.15 410.395 2279.15 401.668 Q2279.15 392.918 2282.2 388.335 Q2285.28 383.728 2291.09 383.728 Z" fill="#ffffff" fill-rule="evenodd" fill-opacity="1" /><path clip-path="url(#clip420)" d="M2321.25 387.432 Q2317.64 387.432 2315.81 390.997 Q2314.01 394.538 2314.01 401.668 Q2314.01 408.774 2315.81 412.339 Q2317.64 415.881 2321.25 415.881 Q2324.89 415.881 2326.69 412.339 Q2328.52 408.774 2328.52 401.668 Q2328.52 394.538 2326.69 390.997 Q2324.89 387.432 2321.25 387.432 M2321.25 383.728 Q2327.06 383.728 2330.12 388.335 Q2333.2 392.918 2333.2 401.668 Q2333.2 410.395 2330.12 415.001 Q2327.06 419.584 2321.25 419.584 Q2315.44 419.584 2312.36 415.001 Q2309.31 410.395 2309.31 401.668 Q2309.31 392.918 2312.36 388.335 Q2315.44 383.728 2321.25 383.728 Z" fill="#ffffff" fill-rule="evenodd" fill-opacity="1" /><path clip-path="url(#clip420)" d="M1263.77 453.857 L1272.43 453.857 L1293.5 493.611 L1293.5 453.857 L1299.73 453.857 L1299.73 501.377 L1291.08 501.377 L1270.01 461.623 L1270.01 501.377 L1263.77 501.377 L1263.77 453.857 Z" fill="#ffffff" fill-rule="evenodd" fill-opacity="1" /><polyline clip-path="url(#clip422)" style="stroke:#ffffff; stroke-linecap:round; stroke-linejoin:round; stroke-width:2; stroke-opacity:0.1; fill:none" points="210.746,328.313 2352.76,328.313 "/>
<polyline clip-path="url(#clip422)" style="stroke:#ffffff; stroke-linecap:round; stroke-linejoin:round; stroke-width:2; stroke-opacity:0.1; fill:none" points="210.746,282.489 2352.76,282.489 "/>
<polyline clip-path="url(#clip422)" style="stroke:#ffffff; stroke-linecap:round; stroke-linejoin:round; stroke-width:2; stroke-opacity:0.1; fill:none" points="210.746,236.664 2352.76,236.664 "/>
<polyline clip-path="url(#clip422)" style="stroke:#ffffff; stroke-linecap:round; stroke-linejoin:round; stroke-width:2; stroke-opacity:0.1; fill:none" points="210.746,190.839 2352.76,190.839 "/>
<polyline clip-path="url(#clip422)" style="stroke:#ffffff; stroke-linecap:round; stroke-linejoin:round; stroke-width:2; stroke-opacity:0.1; fill:none" points="210.746,145.014 2352.76,145.014 "/>
<polyline clip-path="url(#clip420)" style="stroke:#ffffff; stroke-linecap:round; stroke-linejoin:round; stroke-width:4; stroke-opacity:1; fill:none" points="210.746,356.513 210.746,123.472 "/>
<polyline clip-path="url(#clip420)" style="stroke:#ffffff; stroke-linecap:round; stroke-linejoin:round; stroke-width:4; stroke-opacity:1; fill:none" points="210.746,328.313 229.644,328.313 "/>
<polyline clip-path="url(#clip420)" style="stroke:#ffffff; stroke-linecap:round; stroke-linejoin:round; stroke-width:4; stroke-opacity:1; fill:none" points="210.746,282.489 229.644,282.489 "/>
<polyline clip-path="url(#clip420)" style="stroke:#ffffff; stroke-linecap:round; stroke-linejoin:round; stroke-width:4; stroke-opacity:1; fill:none" points="210.746,236.664 229.644,236.664 "/>
<polyline clip-path="url(#clip420)" style="stroke:#ffffff; stroke-linecap:round; stroke-linejoin:round; stroke-width:4; stroke-opacity:1; fill:none" points="210.746,190.839 229.644,190.839 "/>
<polyline clip-path="url(#clip420)" style="stroke:#ffffff; stroke-linecap:round; stroke-linejoin:round; stroke-width:4; stroke-opacity:1; fill:none" points="210.746,145.014 229.644,145.014 "/>
<path clip-path="url(#clip420)" d="M114.26 328.765 L143.936 328.765 L143.936 332.7 L114.26 332.7 L114.26 328.765 Z" fill="#ffffff" fill-rule="evenodd" fill-opacity="1" /><path clip-path="url(#clip420)" d="M154.839 341.658 L162.477 341.658 L162.477 315.293 L154.167 316.959 L154.167 312.7 L162.431 311.033 L167.107 311.033 L167.107 341.658 L174.746 341.658 L174.746 345.593 L154.839 345.593 L154.839 341.658 Z" fill="#ffffff" fill-rule="evenodd" fill-opacity="1" /><path clip-path="url(#clip420)" d="M162.802 268.287 Q159.19 268.287 157.362 271.852 Q155.556 275.394 155.556 282.523 Q155.556 289.63 157.362 293.195 Q159.19 296.736 162.802 296.736 Q166.436 296.736 168.241 293.195 Q170.07 289.63 170.07 282.523 Q170.07 275.394 168.241 271.852 Q166.436 268.287 162.802 268.287 M162.802 264.584 Q168.612 264.584 171.667 269.19 Q174.746 273.773 174.746 282.523 Q174.746 291.25 171.667 295.857 Q168.612 300.44 162.802 300.44 Q156.991 300.44 153.913 295.857 Q150.857 291.25 150.857 282.523 Q150.857 273.773 153.913 269.19 Q156.991 264.584 162.802 264.584 Z" fill="#ffffff" fill-rule="evenodd" fill-opacity="1" /><path clip-path="url(#clip420)" d="M154.839 250.009 L162.477 250.009 L162.477 223.643 L154.167 225.31 L154.167 221.05 L162.431 219.384 L167.107 219.384 L167.107 250.009 L174.746 250.009 L174.746 253.944 L154.839 253.944 L154.839 250.009 Z" fill="#ffffff" fill-rule="evenodd" fill-opacity="1" /><path clip-path="url(#clip420)" d="M158.427 204.184 L174.746 204.184 L174.746 208.119 L152.802 208.119 L152.802 204.184 Q155.464 201.429 160.047 196.8 Q164.653 192.147 165.834 190.804 Q168.079 188.281 168.959 186.545 Q169.862 184.786 169.862 183.096 Q169.862 180.341 167.917 178.605 Q165.996 176.869 162.894 176.869 Q160.695 176.869 158.241 177.633 Q155.811 178.397 153.033 179.948 L153.033 175.226 Q155.857 174.091 158.311 173.513 Q160.765 172.934 162.802 172.934 Q168.172 172.934 171.366 175.619 Q174.561 178.304 174.561 182.795 Q174.561 184.925 173.751 186.846 Q172.964 188.744 170.857 191.337 Q170.278 192.008 167.177 195.226 Q164.075 198.42 158.427 204.184 Z" fill="#ffffff" fill-rule="evenodd" fill-opacity="1" /><path clip-path="url(#clip420)" d="M167.616 143.66 Q170.973 144.378 172.848 146.646 Q174.746 148.915 174.746 152.248 Q174.746 157.364 171.227 160.165 Q167.709 162.966 161.227 162.966 Q159.052 162.966 156.737 162.526 Q154.445 162.109 151.991 161.253 L151.991 156.739 Q153.936 157.873 156.251 158.452 Q158.565 159.03 161.089 159.03 Q165.487 159.03 167.778 157.294 Q170.093 155.558 170.093 152.248 Q170.093 149.192 167.94 147.479 Q165.811 145.743 161.991 145.743 L157.964 145.743 L157.964 141.901 L162.177 141.901 Q165.626 141.901 167.454 140.535 Q169.283 139.146 169.283 136.554 Q169.283 133.892 167.385 132.48 Q165.51 131.044 161.991 131.044 Q160.07 131.044 157.871 131.461 Q155.672 131.878 153.033 132.757 L153.033 128.591 Q155.695 127.85 158.01 127.48 Q160.348 127.109 162.408 127.109 Q167.732 127.109 170.834 129.54 Q173.936 131.947 173.936 136.068 Q173.936 138.938 172.292 140.929 Q170.649 142.896 167.616 143.66 Z" fill="#ffffff" fill-rule="evenodd" fill-opacity="1" /><path clip-path="url(#clip420)" d="M64.0042 309.363 L16.4842 327.505 L16.4842 320.789 L56.4926 305.734 L16.4842 290.648 L16.4842 283.964 L64.0042 302.074 L64.0042 309.363 Z" fill="#ffffff" fill-rule="evenodd" fill-opacity="1" /><path clip-path="url(#clip420)" d="M46.0847 266.14 Q46.0847 273.238 47.7079 275.975 Q49.3312 278.712 53.2461 278.712 Q56.3653 278.712 58.2114 276.675 Q60.0256 274.606 60.0256 271.073 Q60.0256 266.203 56.5881 263.275 Q53.1188 260.315 47.3897 260.315 L46.0847 260.315 L46.0847 266.14 M43.6657 254.459 L64.0042 254.459 L64.0042 260.315 L58.5933 260.315 Q61.8398 262.32 63.3994 265.312 Q64.9272 268.304 64.9272 272.633 Q64.9272 278.107 61.8716 281.354 Q58.7843 284.569 53.6281 284.569 Q47.6125 284.569 44.5569 280.558 Q41.5014 276.516 41.5014 268.527 L41.5014 260.315 L40.9285 260.315 Q36.8862 260.315 34.6901 262.989 Q32.4621 265.631 32.4621 270.437 Q32.4621 273.492 33.1941 276.389 Q33.9262 279.285 35.3903 281.959 L29.9795 281.959 Q28.7381 278.744 28.1334 275.72 Q27.4968 272.696 27.4968 269.832 Q27.4968 262.098 31.5072 258.278 Q35.5176 254.459 43.6657 254.459 Z" fill="#ffffff" fill-rule="evenodd" fill-opacity="1" /><path clip-path="url(#clip420)" d="M14.479 242.396 L14.479 236.539 L64.0042 236.539 L64.0042 242.396 L14.479 242.396 Z" fill="#ffffff" fill-rule="evenodd" fill-opacity="1" /><path clip-path="url(#clip420)" d="M49.9359 224.89 L28.3562 224.89 L28.3562 219.034 L49.7131 219.034 Q54.7739 219.034 57.3202 217.06 Q59.8346 215.087 59.8346 211.14 Q59.8346 206.398 56.8109 203.66 Q53.7872 200.891 48.5673 200.891 L28.3562 200.891 L28.3562 195.035 L64.0042 195.035 L64.0042 200.891 L58.5296 200.891 Q61.7762 203.024 63.3676 205.857 Q64.9272 208.657 64.9272 212.381 Q64.9272 218.524 61.1078 221.707 Q57.2883 224.89 49.9359 224.89 M27.4968 210.153 L27.4968 210.153 Z" fill="#ffffff" fill-rule="evenodd" fill-opacity="1" /><path clip-path="url(#clip420)" d="M44.7161 152.48 L47.5806 152.48 L47.5806 179.407 Q53.6281 179.025 56.8109 175.779 Q59.9619 172.5 59.9619 166.676 Q59.9619 163.302 59.1344 160.151 Q58.3069 156.968 56.6518 153.849 L62.1899 153.849 Q63.5267 157 64.227 160.31 Q64.9272 163.62 64.9272 167.026 Q64.9272 175.556 59.9619 180.553 Q54.9967 185.518 46.5303 185.518 Q37.7774 185.518 32.6531 180.807 Q27.4968 176.065 27.4968 168.044 Q27.4968 160.851 32.1438 156.681 Q36.7589 152.48 44.7161 152.48 M42.9973 158.337 Q38.1912 158.4 35.3266 161.042 Q32.4621 163.652 32.4621 167.981 Q32.4621 172.882 35.2312 175.842 Q38.0002 178.77 43.0292 179.216 L42.9973 158.337 Z" fill="#ffffff" fill-rule="evenodd" fill-opacity="1" /><path clip-path="url(#clip420)" d="M1246.14 34.1734 Q1244.89 33.4443 1243.39 33.1202 Q1241.93 32.7556 1240.15 32.7556 Q1233.83 32.7556 1230.43 36.8875 Q1227.06 40.9789 1227.06 48.6757 L1227.06 72.576 L1219.57 72.576 L1219.57 27.2059 L1227.06 27.2059 L1227.06 34.2544 Q1229.41 30.1225 1233.18 28.1376 Q1236.95 26.1121 1242.34 26.1121 Q1243.11 26.1121 1244.04 26.2337 Q1244.97 26.3147 1246.1 26.5172 L1246.14 34.1734 Z" fill="#ffffff" fill-rule="evenodd" fill-opacity="1" /><path clip-path="url(#clip420)" d="M1261.17 65.7705 L1261.17 89.8329 L1253.68 89.8329 L1253.68 27.2059 L1261.17 27.2059 L1261.17 34.0924 Q1263.52 30.0415 1267.09 28.0971 Q1270.69 26.1121 1275.67 26.1121 Q1283.94 26.1121 1289.08 32.6746 Q1294.27 39.2371 1294.27 49.9314 Q1294.27 60.6258 1289.08 67.1883 Q1283.94 73.7508 1275.67 73.7508 Q1270.69 73.7508 1267.09 71.8063 Q1263.52 69.8214 1261.17 65.7705 M1286.53 49.9314 Q1286.53 41.7081 1283.13 37.0496 Q1279.77 32.3505 1273.85 32.3505 Q1267.94 32.3505 1264.53 37.0496 Q1261.17 41.7081 1261.17 49.9314 Q1261.17 58.1548 1264.53 62.8538 Q1267.94 67.5124 1273.85 67.5124 Q1279.77 67.5124 1283.13 62.8538 Q1286.53 58.1548 1286.53 49.9314 Z" fill="#ffffff" fill-rule="evenodd" fill-opacity="1" /><path clip-path="url(#clip420)" d="M1309.09 65.6895 L1322.46 65.6895 L1322.46 19.5497 L1307.92 22.4663 L1307.92 15.0127 L1322.38 12.096 L1330.56 12.096 L1330.56 65.6895 L1343.93 65.6895 L1343.93 72.576 L1309.09 72.576 L1309.09 65.6895 Z" fill="#ffffff" fill-rule="evenodd" fill-opacity="1" /><polyline clip-path="url(#clip422)" style="stroke:#009af9; stroke-linecap:round; stroke-linejoin:round; stroke-width:4; stroke-opacity:1; fill:none" points="271.369,282.581 291.781,275.275 312.192,288.239 332.604,285.197 353.016,273.118 373.428,282.403 393.839,251.372 414.251,252.646 434.663,265.27 455.075,293.717 475.486,261.621 495.898,264.305 516.31,273.973 536.722,268.079 557.133,288.259 577.545,291.828 597.957,272.098 618.369,318.944 638.781,295.086 659.192,216.729 679.604,290.199 700.016,256.228 720.428,294.159 740.839,288.431 761.251,282.684 781.663,274.431 802.075,287.071 822.486,205.828 842.898,255.731 863.31,185.732 883.722,217.385 904.133,315.108 924.545,167.396 944.957,349.918 965.369,278.596 985.78,215.77 1006.19,189.483 1026.6,173.358 1047.02,156.583 1067.43,221.469 1087.84,169.945 1108.25,216.256 1128.66,345.061 1149.07,198.617 1169.49,344.145 1189.9,214 1210.31,260.796 1230.72,165.472 1251.13,312.804 1271.55,177.21 1291.96,285.007 1312.37,334.016 1332.78,270.904 1353.19,303.851 1373.6,238.846 1394.02,147.785 1414.43,245.733 1434.84,160.743 1455.25,141.465 1475.66,314.382 1496.07,170.808 1516.49,264.082 1536.9,208.942 1557.31,168.811 1577.72,151.633 1598.13,218.187 1618.54,290.767 1638.96,301.393 1659.37,225.468 1679.78,227.546 1700.19,250.758 1720.6,194.049 1741.02,177.898 1761.43,234.635 1781.84,191.721 1802.25,141.91 1822.66,147.513 1843.07,275.7 1863.49,205.303 1883.9,249.383 1904.31,214.946 1924.72,177.575 1945.13,205.077 1965.54,219.239 1985.96,236.001 2006.37,193.449 2026.78,196.053 2047.19,175.776 2067.6,165.915 2088.02,166.044 2108.43,195.608 2128.84,179.694 2149.25,176.358 2169.66,180.647 2190.07,191.746 2210.49,199.468 2230.9,182.886 2251.31,195.416 2271.72,191.869 2292.13,190.839 "/>
<polyline clip-path="url(#clip422)" style="stroke:#e26f46; stroke-linecap:round; stroke-linejoin:round; stroke-width:4; stroke-opacity:1; fill:none" points="271.369,278.52 291.781,281.548 312.192,269.957 332.604,291.97 353.016,275.254 373.428,290.238 393.839,260.107 414.251,292.924 434.663,295.49 455.075,254.566 475.486,297.935 495.898,274.017 516.31,277.555 536.722,290.087 557.133,309.301 577.545,214.618 597.957,262.488 618.369,252.978 638.781,249.805 659.192,299.468 679.604,280.074 700.016,248.24 720.428,276.773 740.839,300.94 761.251,284.474 781.663,254.734 802.075,309.391 822.486,344.533 842.898,285.777 863.31,178.635 883.722,167.739 904.133,322.269 924.545,235.19 944.957,183.485 965.369,172.664 985.78,229.049 1006.19,264.85 1026.6,239.459 1047.02,340.854 1067.43,221.669 1087.84,255.182 1108.25,263.432 1128.66,264.449 1149.07,333.109 1169.49,218.357 1189.9,327.171 1210.31,177.57 1230.72,181.892 1251.13,334.625 1271.55,142.407 1291.96,130.068 1312.37,190.826 1332.78,181.787 1353.19,316.631 1373.6,207.68 1394.02,326.731 1414.43,194.412 1434.84,271.243 1455.25,257.817 1475.66,166.589 1496.07,280.353 1516.49,226.049 1536.9,240.563 1557.31,139.416 1577.72,166.889 1598.13,244.09 1618.54,134.545 1638.96,305.133 1659.37,209.082 1679.78,202.33 1700.19,300.867 1720.6,290.849 1741.02,217.972 1761.43,215.389 1781.84,290.44 1802.25,164.265 1822.66,210.946 1843.07,165.191 1863.49,252.423 1883.9,143.079 1904.31,177.47 1924.72,262.262 1945.13,167.63 1965.54,207.646 1985.96,222.701 2006.37,207.644 2026.78,234.228 2047.19,223.618 2067.6,205.249 2088.02,169.661 2108.43,222.467 2128.84,172.901 2149.25,179.583 2169.66,186.926 2190.07,192.594 2210.49,200.012 2230.9,185.381 2251.31,194.455 2271.72,194.704 2292.13,190.839 "/>
<polyline clip-path="url(#clip422)" style="stroke:#3da44d; stroke-linecap:round; stroke-linejoin:round; stroke-width:4; stroke-opacity:1; fill:none" points="271.369,242.397 291.781,241.608 312.192,244.819 332.604,253.029 353.016,244.589 373.428,242.376 393.839,249.05 414.251,245.658 434.663,240.299 455.075,255.972 475.486,251.339 495.898,242.231 516.31,249.044 536.722,255.956 557.133,256.601 577.545,248.609 597.957,257.547 618.369,246.713 638.781,248.618 659.192,254.313 679.604,243.145 700.016,240.98 720.428,239.274 740.839,256.36 761.251,251.191 781.663,245.288 802.075,255.323 822.486,244.209 842.898,239.676 863.31,241.271 883.722,243.768 904.133,243.166 924.545,256.66 944.957,254.55 965.369,256.769 985.78,249.258 1006.19,243.076 1026.6,249.637 1047.02,243.408 1067.43,250.148 1087.84,248.231 1108.25,250.996 1128.66,244.693 1149.07,250.951 1169.49,255.618 1189.9,256.867 1210.31,254.687 1230.72,245.093 1251.13,244.481 1271.55,252.494 1291.96,251.698 1312.37,241.756 1332.78,256.743 1353.19,257.328 1373.6,244.064 1394.02,247.909 1414.43,242.952 1434.84,244.026 1455.25,242.054 1475.66,247.156 1496.07,253.942 1516.49,238.707 1536.9,249.346 1557.31,238.477 1577.72,243.701 1598.13,241.573 1618.54,256.454 1638.96,255.743 1659.37,247.366 1679.78,240.872 1700.19,253.25 1720.6,255.724 1741.02,249.178 1761.43,248.101 1781.84,246.83 1802.25,250.085 1822.66,255.499 1843.07,257.813 1863.49,254.073 1883.9,247.837 1904.31,247.697 1924.72,256.109 1945.13,243.415 1965.54,249.444 1985.96,252.884 2006.37,241.449 2026.78,250.017 2047.19,256.444 2067.6,257.533 2088.02,241.946 2108.43,240.544 2128.84,252.679 2149.25,248.049 2169.66,244.772 2190.07,257.611 2210.49,238.809 2230.9,244.646 2251.31,248.317 2271.72,256.241 2292.13,248.151 "/>
<polyline clip-path="url(#clip422)" style="stroke:#c271d2; stroke-linecap:round; stroke-linejoin:round; stroke-width:4; stroke-opacity:1; fill:none" points="271.369,245.263 291.781,306.218 312.192,303.622 332.604,209.356 353.016,199.77 373.428,302.519 393.839,281.8 414.251,286.113 434.663,316.298 455.075,194.929 475.486,284.347 495.898,307.89 516.31,299.176 536.722,256.864 557.133,287.368 577.545,283.743 597.957,318.554 618.369,205.943 638.781,222.852 659.192,213.951 679.604,314.259 700.016,307.483 720.428,293.466 740.839,311.57 761.251,273.172 781.663,259.66 802.075,306.827 822.486,261.848 842.898,233.517 863.31,209.072 883.722,267.478 904.133,276.176 924.545,298.364 944.957,235.005 965.369,223.334 985.78,315.482 1006.19,254.062 1026.6,258.047 1047.02,198.253 1067.43,254.007 1087.84,221.44 1108.25,273.792 1128.66,216.051 1149.07,208.599 1169.49,201 1189.9,326.12 1210.31,257.808 1230.72,209.193 1251.13,223.14 1271.55,266.879 1291.96,230.103 1312.37,262.022 1332.78,274.179 1353.19,311.326 1373.6,206.327 1394.02,294.362 1414.43,242.629 1434.84,303.423 1455.25,214.794 1475.66,238.792 1496.07,249.665 1516.49,265.818 1536.9,263.673 1557.31,308.32 1577.72,316.754 1598.13,256.645 1618.54,266.462 1638.96,208.041 1659.37,279.632 1679.78,259.568 1700.19,192.822 1720.6,281.89 1741.02,265.807 1761.43,314.473 1781.84,319.746 1802.25,191.277 1822.66,262.713 1843.07,269.671 1863.49,224.438 1883.9,319.681 1904.31,273.685 1924.72,248.269 1945.13,315.054 1965.54,257.679 1985.96,243.047 2006.37,197.817 2026.78,210.424 2047.19,234.835 2067.6,291.494 2088.02,327.934 2108.43,237.69 2128.84,285.613 2149.25,289.289 2169.66,306.158 2190.07,210.98 2210.49,305.876 2230.9,299.157 2251.31,276.954 2271.72,214.546 2292.13,234.194 "/>
<path clip-path="url(#clip420)" d="M210.746 889.847 L2352.76 889.847 L2352.76 656.805 L210.746 656.805  Z" fill="#000000" fill-rule="evenodd" fill-opacity="0"/>
<defs>
  <clipPath id="clip423">
    <rect x="210" y="656" width="2143" height="234"/>
  </clipPath>
</defs>
<polyline clip-path="url(#clip423)" style="stroke:#ffffff; stroke-linecap:round; stroke-linejoin:round; stroke-width:2; stroke-opacity:0.1; fill:none" points="250.957,889.847 250.957,656.805 "/>
<polyline clip-path="url(#clip423)" style="stroke:#ffffff; stroke-linecap:round; stroke-linejoin:round; stroke-width:2; stroke-opacity:0.1; fill:none" points="761.251,889.847 761.251,656.805 "/>
<polyline clip-path="url(#clip423)" style="stroke:#ffffff; stroke-linecap:round; stroke-linejoin:round; stroke-width:2; stroke-opacity:0.1; fill:none" points="1271.55,889.847 1271.55,656.805 "/>
<polyline clip-path="url(#clip423)" style="stroke:#ffffff; stroke-linecap:round; stroke-linejoin:round; stroke-width:2; stroke-opacity:0.1; fill:none" points="1781.84,889.847 1781.84,656.805 "/>
<polyline clip-path="url(#clip423)" style="stroke:#ffffff; stroke-linecap:round; stroke-linejoin:round; stroke-width:2; stroke-opacity:0.1; fill:none" points="2292.13,889.847 2292.13,656.805 "/>
<polyline clip-path="url(#clip420)" style="stroke:#ffffff; stroke-linecap:round; stroke-linejoin:round; stroke-width:4; stroke-opacity:1; fill:none" points="210.746,889.847 2352.76,889.847 "/>
<polyline clip-path="url(#clip420)" style="stroke:#ffffff; stroke-linecap:round; stroke-linejoin:round; stroke-width:4; stroke-opacity:1; fill:none" points="250.957,889.847 250.957,870.949 "/>
<polyline clip-path="url(#clip420)" style="stroke:#ffffff; stroke-linecap:round; stroke-linejoin:round; stroke-width:4; stroke-opacity:1; fill:none" points="761.251,889.847 761.251,870.949 "/>
<polyline clip-path="url(#clip420)" style="stroke:#ffffff; stroke-linecap:round; stroke-linejoin:round; stroke-width:4; stroke-opacity:1; fill:none" points="1271.55,889.847 1271.55,870.949 "/>
<polyline clip-path="url(#clip420)" style="stroke:#ffffff; stroke-linecap:round; stroke-linejoin:round; stroke-width:4; stroke-opacity:1; fill:none" points="1781.84,889.847 1781.84,870.949 "/>
<polyline clip-path="url(#clip420)" style="stroke:#ffffff; stroke-linecap:round; stroke-linejoin:round; stroke-width:4; stroke-opacity:1; fill:none" points="2292.13,889.847 2292.13,870.949 "/>
<path clip-path="url(#clip420)" d="M250.957 920.765 Q247.346 920.765 245.517 924.33 Q243.712 927.872 243.712 935.001 Q243.712 942.108 245.517 945.672 Q247.346 949.214 250.957 949.214 Q254.591 949.214 256.397 945.672 Q258.226 942.108 258.226 935.001 Q258.226 927.872 256.397 924.33 Q254.591 920.765 250.957 920.765 M250.957 917.062 Q256.767 917.062 259.823 921.668 Q262.901 926.251 262.901 935.001 Q262.901 943.728 259.823 948.334 Q256.767 952.918 250.957 952.918 Q245.147 952.918 242.068 948.334 Q239.013 943.728 239.013 935.001 Q239.013 926.251 242.068 921.668 Q245.147 917.062 250.957 917.062 Z" fill="#ffffff" fill-rule="evenodd" fill-opacity="1" /><path clip-path="url(#clip420)" d="M740.522 948.311 L756.841 948.311 L756.841 952.247 L734.897 952.247 L734.897 948.311 Q737.559 945.557 742.142 940.927 Q746.749 936.274 747.929 934.932 Q750.175 932.409 751.054 930.673 Q751.957 928.913 751.957 927.223 Q751.957 924.469 750.013 922.733 Q748.091 920.997 744.99 920.997 Q742.791 920.997 740.337 921.761 Q737.906 922.524 735.129 924.075 L735.129 919.353 Q737.953 918.219 740.406 917.64 Q742.86 917.062 744.897 917.062 Q750.267 917.062 753.462 919.747 Q756.656 922.432 756.656 926.923 Q756.656 929.052 755.846 930.973 Q755.059 932.872 752.953 935.464 Q752.374 936.135 749.272 939.353 Q746.17 942.547 740.522 948.311 Z" fill="#ffffff" fill-rule="evenodd" fill-opacity="1" /><path clip-path="url(#clip420)" d="M766.702 917.687 L785.059 917.687 L785.059 921.622 L770.985 921.622 L770.985 930.094 Q772.003 929.747 773.022 929.585 Q774.04 929.399 775.059 929.399 Q780.846 929.399 784.225 932.571 Q787.605 935.742 787.605 941.159 Q787.605 946.737 784.133 949.839 Q780.661 952.918 774.341 952.918 Q772.165 952.918 769.897 952.547 Q767.652 952.177 765.244 951.436 L765.244 946.737 Q767.327 947.872 769.55 948.427 Q771.772 948.983 774.249 948.983 Q778.253 948.983 780.591 946.876 Q782.929 944.77 782.929 941.159 Q782.929 937.548 780.591 935.441 Q778.253 933.335 774.249 933.335 Q772.374 933.335 770.499 933.751 Q768.647 934.168 766.702 935.048 L766.702 917.687 Z" fill="#ffffff" fill-rule="evenodd" fill-opacity="1" /><path clip-path="url(#clip420)" d="M1246.24 917.687 L1264.6 917.687 L1264.6 921.622 L1250.53 921.622 L1250.53 930.094 Q1251.55 929.747 1252.56 929.585 Q1253.58 929.399 1254.6 929.399 Q1260.39 929.399 1263.77 932.571 Q1267.15 935.742 1267.15 941.159 Q1267.15 946.737 1263.67 949.839 Q1260.2 952.918 1253.88 952.918 Q1251.71 952.918 1249.44 952.547 Q1247.19 952.177 1244.79 951.436 L1244.79 946.737 Q1246.87 947.872 1249.09 948.427 Q1251.31 948.983 1253.79 948.983 Q1257.8 948.983 1260.13 946.876 Q1262.47 944.77 1262.47 941.159 Q1262.47 937.548 1260.13 935.441 Q1257.8 933.335 1253.79 933.335 Q1251.92 933.335 1250.04 933.751 Q1248.19 934.168 1246.24 935.048 L1246.24 917.687 Z" fill="#ffffff" fill-rule="evenodd" fill-opacity="1" /><path clip-path="url(#clip420)" d="M1286.36 920.765 Q1282.75 920.765 1280.92 924.33 Q1279.11 927.872 1279.11 935.001 Q1279.11 942.108 1280.92 945.672 Q1282.75 949.214 1286.36 949.214 Q1289.99 949.214 1291.8 945.672 Q1293.63 942.108 1293.63 935.001 Q1293.63 927.872 1291.8 924.33 Q1289.99 920.765 1286.36 920.765 M1286.36 917.062 Q1292.17 917.062 1295.23 921.668 Q1298.3 926.251 1298.3 935.001 Q1298.3 943.728 1295.23 948.334 Q1292.17 952.918 1286.36 952.918 Q1280.55 952.918 1277.47 948.334 Q1274.42 943.728 1274.42 935.001 Q1274.42 926.251 1277.47 921.668 Q1280.55 917.062 1286.36 917.062 Z" fill="#ffffff" fill-rule="evenodd" fill-opacity="1" /><path clip-path="url(#clip420)" d="M1755.69 917.687 L1777.92 917.687 L1777.92 919.677 L1765.37 952.247 L1760.48 952.247 L1772.29 921.622 L1755.69 921.622 L1755.69 917.687 Z" fill="#ffffff" fill-rule="evenodd" fill-opacity="1" /><path clip-path="url(#clip420)" d="M1787.08 917.687 L1805.44 917.687 L1805.44 921.622 L1791.36 921.622 L1791.36 930.094 Q1792.38 929.747 1793.4 929.585 Q1794.42 929.399 1795.44 929.399 Q1801.23 929.399 1804.61 932.571 Q1807.98 935.742 1807.98 941.159 Q1807.98 946.737 1804.51 949.839 Q1801.04 952.918 1794.72 952.918 Q1792.54 952.918 1790.28 952.547 Q1788.03 952.177 1785.62 951.436 L1785.62 946.737 Q1787.71 947.872 1789.93 948.427 Q1792.15 948.983 1794.63 948.983 Q1798.63 948.983 1800.97 946.876 Q1803.31 944.77 1803.31 941.159 Q1803.31 937.548 1800.97 935.441 Q1798.63 933.335 1794.63 933.335 Q1792.75 933.335 1790.88 933.751 Q1789.03 934.168 1787.08 935.048 L1787.08 917.687 Z" fill="#ffffff" fill-rule="evenodd" fill-opacity="1" /><path clip-path="url(#clip420)" d="M2251.74 948.311 L2259.38 948.311 L2259.38 921.946 L2251.07 923.612 L2251.07 919.353 L2259.33 917.687 L2264.01 917.687 L2264.01 948.311 L2271.65 948.311 L2271.65 952.247 L2251.74 952.247 L2251.74 948.311 Z" fill="#ffffff" fill-rule="evenodd" fill-opacity="1" /><path clip-path="url(#clip420)" d="M2291.09 920.765 Q2287.48 920.765 2285.65 924.33 Q2283.85 927.872 2283.85 935.001 Q2283.85 942.108 2285.65 945.672 Q2287.48 949.214 2291.09 949.214 Q2294.73 949.214 2296.53 945.672 Q2298.36 942.108 2298.36 935.001 Q2298.36 927.872 2296.53 924.33 Q2294.73 920.765 2291.09 920.765 M2291.09 917.062 Q2296.9 917.062 2299.96 921.668 Q2303.04 926.251 2303.04 935.001 Q2303.04 943.728 2299.96 948.334 Q2296.9 952.918 2291.09 952.918 Q2285.28 952.918 2282.2 948.334 Q2279.15 943.728 2279.15 935.001 Q2279.15 926.251 2282.2 921.668 Q2285.28 917.062 2291.09 917.062 Z" fill="#ffffff" fill-rule="evenodd" fill-opacity="1" /><path clip-path="url(#clip420)" d="M2321.25 920.765 Q2317.64 920.765 2315.81 924.33 Q2314.01 927.872 2314.01 935.001 Q2314.01 942.108 2315.81 945.672 Q2317.64 949.214 2321.25 949.214 Q2324.89 949.214 2326.69 945.672 Q2328.52 942.108 2328.52 935.001 Q2328.52 927.872 2326.69 924.33 Q2324.89 920.765 2321.25 920.765 M2321.25 917.062 Q2327.06 917.062 2330.12 921.668 Q2333.2 926.251 2333.2 935.001 Q2333.2 943.728 2330.12 948.334 Q2327.06 952.918 2321.25 952.918 Q2315.44 952.918 2312.36 948.334 Q2309.31 943.728 2309.31 935.001 Q2309.31 926.251 2312.36 921.668 Q2315.44 917.062 2321.25 917.062 Z" fill="#ffffff" fill-rule="evenodd" fill-opacity="1" /><path clip-path="url(#clip420)" d="M1263.77 987.191 L1272.43 987.191 L1293.5 1026.94 L1293.5 987.191 L1299.73 987.191 L1299.73 1034.71 L1291.08 1034.71 L1270.01 994.957 L1270.01 1034.71 L1263.77 1034.71 L1263.77 987.191 Z" fill="#ffffff" fill-rule="evenodd" fill-opacity="1" /><polyline clip-path="url(#clip423)" style="stroke:#ffffff; stroke-linecap:round; stroke-linejoin:round; stroke-width:2; stroke-opacity:0.1; fill:none" points="210.746,864.649 2352.76,864.649 "/>
<polyline clip-path="url(#clip423)" style="stroke:#ffffff; stroke-linecap:round; stroke-linejoin:round; stroke-width:2; stroke-opacity:0.1; fill:none" points="210.746,815.422 2352.76,815.422 "/>
<polyline clip-path="url(#clip423)" style="stroke:#ffffff; stroke-linecap:round; stroke-linejoin:round; stroke-width:2; stroke-opacity:0.1; fill:none" points="210.746,766.195 2352.76,766.195 "/>
<polyline clip-path="url(#clip423)" style="stroke:#ffffff; stroke-linecap:round; stroke-linejoin:round; stroke-width:2; stroke-opacity:0.1; fill:none" points="210.746,716.968 2352.76,716.968 "/>
<polyline clip-path="url(#clip423)" style="stroke:#ffffff; stroke-linecap:round; stroke-linejoin:round; stroke-width:2; stroke-opacity:0.1; fill:none" points="210.746,667.741 2352.76,667.741 "/>
<polyline clip-path="url(#clip420)" style="stroke:#ffffff; stroke-linecap:round; stroke-linejoin:round; stroke-width:4; stroke-opacity:1; fill:none" points="210.746,889.847 210.746,656.805 "/>
<polyline clip-path="url(#clip420)" style="stroke:#ffffff; stroke-linecap:round; stroke-linejoin:round; stroke-width:4; stroke-opacity:1; fill:none" points="210.746,864.649 229.644,864.649 "/>
<polyline clip-path="url(#clip420)" style="stroke:#ffffff; stroke-linecap:round; stroke-linejoin:round; stroke-width:4; stroke-opacity:1; fill:none" points="210.746,815.422 229.644,815.422 "/>
<polyline clip-path="url(#clip420)" style="stroke:#ffffff; stroke-linecap:round; stroke-linejoin:round; stroke-width:4; stroke-opacity:1; fill:none" points="210.746,766.195 229.644,766.195 "/>
<polyline clip-path="url(#clip420)" style="stroke:#ffffff; stroke-linecap:round; stroke-linejoin:round; stroke-width:4; stroke-opacity:1; fill:none" points="210.746,716.968 229.644,716.968 "/>
<polyline clip-path="url(#clip420)" style="stroke:#ffffff; stroke-linecap:round; stroke-linejoin:round; stroke-width:4; stroke-opacity:1; fill:none" points="210.746,667.741 229.644,667.741 "/>
<path clip-path="url(#clip420)" d="M114.26 865.101 L143.936 865.101 L143.936 869.036 L114.26 869.036 L114.26 865.101 Z" fill="#ffffff" fill-rule="evenodd" fill-opacity="1" /><path clip-path="url(#clip420)" d="M154.839 877.994 L162.477 877.994 L162.477 851.629 L154.167 853.295 L154.167 849.036 L162.431 847.369 L167.107 847.369 L167.107 877.994 L174.746 877.994 L174.746 881.929 L154.839 881.929 L154.839 877.994 Z" fill="#ffffff" fill-rule="evenodd" fill-opacity="1" /><path clip-path="url(#clip420)" d="M162.802 801.221 Q159.19 801.221 157.362 804.786 Q155.556 808.327 155.556 815.457 Q155.556 822.563 157.362 826.128 Q159.19 829.67 162.802 829.67 Q166.436 829.67 168.241 826.128 Q170.07 822.563 170.07 815.457 Q170.07 808.327 168.241 804.786 Q166.436 801.221 162.802 801.221 M162.802 797.517 Q168.612 797.517 171.667 802.124 Q174.746 806.707 174.746 815.457 Q174.746 824.184 171.667 828.79 Q168.612 833.373 162.802 833.373 Q156.991 833.373 153.913 828.79 Q150.857 824.184 150.857 815.457 Q150.857 806.707 153.913 802.124 Q156.991 797.517 162.802 797.517 Z" fill="#ffffff" fill-rule="evenodd" fill-opacity="1" /><path clip-path="url(#clip420)" d="M154.839 779.54 L162.477 779.54 L162.477 753.174 L154.167 754.841 L154.167 750.582 L162.431 748.915 L167.107 748.915 L167.107 779.54 L174.746 779.54 L174.746 783.475 L154.839 783.475 L154.839 779.54 Z" fill="#ffffff" fill-rule="evenodd" fill-opacity="1" /><path clip-path="url(#clip420)" d="M158.427 730.313 L174.746 730.313 L174.746 734.248 L152.802 734.248 L152.802 730.313 Q155.464 727.558 160.047 722.928 Q164.653 718.276 165.834 716.933 Q168.079 714.41 168.959 712.674 Q169.862 710.915 169.862 709.225 Q169.862 706.47 167.917 704.734 Q165.996 702.998 162.894 702.998 Q160.695 702.998 158.241 703.762 Q155.811 704.526 153.033 706.077 L153.033 701.354 Q155.857 700.22 158.311 699.641 Q160.765 699.063 162.802 699.063 Q168.172 699.063 171.366 701.748 Q174.561 704.433 174.561 708.924 Q174.561 711.053 173.751 712.975 Q172.964 714.873 170.857 717.465 Q170.278 718.137 167.177 721.354 Q164.075 724.549 158.427 730.313 Z" fill="#ffffff" fill-rule="evenodd" fill-opacity="1" /><path clip-path="url(#clip420)" d="M167.616 666.386 Q170.973 667.104 172.848 669.373 Q174.746 671.641 174.746 674.974 Q174.746 680.09 171.227 682.891 Q167.709 685.692 161.227 685.692 Q159.052 685.692 156.737 685.252 Q154.445 684.835 151.991 683.979 L151.991 679.465 Q153.936 680.599 156.251 681.178 Q158.565 681.757 161.089 681.757 Q165.487 681.757 167.778 680.021 Q170.093 678.284 170.093 674.974 Q170.093 671.919 167.94 670.206 Q165.811 668.47 161.991 668.47 L157.964 668.47 L157.964 664.627 L162.177 664.627 Q165.626 664.627 167.454 663.261 Q169.283 661.873 169.283 659.28 Q169.283 656.618 167.385 655.206 Q165.51 653.771 161.991 653.771 Q160.07 653.771 157.871 654.187 Q155.672 654.604 153.033 655.484 L153.033 651.317 Q155.695 650.576 158.01 650.206 Q160.348 649.836 162.408 649.836 Q167.732 649.836 170.834 652.266 Q173.936 654.674 173.936 658.794 Q173.936 661.664 172.292 663.655 Q170.649 665.623 167.616 666.386 Z" fill="#ffffff" fill-rule="evenodd" fill-opacity="1" /><path clip-path="url(#clip420)" d="M64.0042 842.696 L16.4842 860.839 L16.4842 854.123 L56.4926 839.068 L16.4842 823.981 L16.4842 817.297 L64.0042 835.408 L64.0042 842.696 Z" fill="#ffffff" fill-rule="evenodd" fill-opacity="1" /><path clip-path="url(#clip420)" d="M46.0847 799.473 Q46.0847 806.571 47.7079 809.308 Q49.3312 812.045 53.2461 812.045 Q56.3653 812.045 58.2114 810.008 Q60.0256 807.94 60.0256 804.407 Q60.0256 799.537 56.5881 796.609 Q53.1188 793.649 47.3897 793.649 L46.0847 793.649 L46.0847 799.473 M43.6657 787.792 L64.0042 787.792 L64.0042 793.649 L58.5933 793.649 Q61.8398 795.654 63.3994 798.646 Q64.9272 801.637 64.9272 805.966 Q64.9272 811.441 61.8716 814.687 Q58.7843 817.902 53.6281 817.902 Q47.6125 817.902 44.5569 813.891 Q41.5014 809.849 41.5014 801.86 L41.5014 793.649 L40.9285 793.649 Q36.8862 793.649 34.6901 796.322 Q32.4621 798.964 32.4621 803.77 Q32.4621 806.826 33.1941 809.722 Q33.9262 812.618 35.3903 815.292 L29.9795 815.292 Q28.7381 812.077 28.1334 809.054 Q27.4968 806.03 27.4968 803.165 Q27.4968 795.431 31.5072 791.611 Q35.5176 787.792 43.6657 787.792 Z" fill="#ffffff" fill-rule="evenodd" fill-opacity="1" /><path clip-path="url(#clip420)" d="M14.479 775.729 L14.479 769.873 L64.0042 769.873 L64.0042 775.729 L14.479 775.729 Z" fill="#ffffff" fill-rule="evenodd" fill-opacity="1" /><path clip-path="url(#clip420)" d="M49.9359 758.223 L28.3562 758.223 L28.3562 752.367 L49.7131 752.367 Q54.7739 752.367 57.3202 750.394 Q59.8346 748.42 59.8346 744.473 Q59.8346 739.731 56.8109 736.994 Q53.7872 734.225 48.5673 734.225 L28.3562 734.225 L28.3562 728.368 L64.0042 728.368 L64.0042 734.225 L58.5296 734.225 Q61.7762 736.357 63.3676 739.19 Q64.9272 741.991 64.9272 745.715 Q64.9272 751.858 61.1078 755.04 Q57.2883 758.223 49.9359 758.223 M27.4968 743.487 L27.4968 743.487 Z" fill="#ffffff" fill-rule="evenodd" fill-opacity="1" /><path clip-path="url(#clip420)" d="M44.7161 685.813 L47.5806 685.813 L47.5806 712.74 Q53.6281 712.358 56.8109 709.112 Q59.9619 705.834 59.9619 700.009 Q59.9619 696.635 59.1344 693.484 Q58.3069 690.301 56.6518 687.182 L62.1899 687.182 Q63.5267 690.333 64.227 693.643 Q64.9272 696.953 64.9272 700.359 Q64.9272 708.889 59.9619 713.886 Q54.9967 718.851 46.5303 718.851 Q37.7774 718.851 32.6531 714.141 Q27.4968 709.398 27.4968 701.378 Q27.4968 694.184 32.1438 690.015 Q36.7589 685.813 44.7161 685.813 M42.9973 691.67 Q38.1912 691.734 35.3266 694.375 Q32.4621 696.985 32.4621 701.314 Q32.4621 706.216 35.2312 709.176 Q38.0002 712.104 43.0292 712.549 L42.9973 691.67 Z" fill="#ffffff" fill-rule="evenodd" fill-opacity="1" /><path clip-path="url(#clip420)" d="M1246.47 567.507 Q1245.21 566.778 1243.71 566.454 Q1242.25 566.089 1240.47 566.089 Q1234.15 566.089 1230.75 570.221 Q1227.39 574.312 1227.39 582.009 L1227.39 605.909 L1219.89 605.909 L1219.89 560.539 L1227.39 560.539 L1227.39 567.588 Q1229.74 563.456 1233.5 561.471 Q1237.27 559.445 1242.66 559.445 Q1243.43 559.445 1244.36 559.567 Q1245.29 559.648 1246.43 559.851 L1246.47 567.507 Z" fill="#ffffff" fill-rule="evenodd" fill-opacity="1" /><path clip-path="url(#clip420)" d="M1261.5 599.104 L1261.5 623.166 L1254 623.166 L1254 560.539 L1261.5 560.539 L1261.5 567.426 Q1263.85 563.375 1267.41 561.43 Q1271.02 559.445 1276 559.445 Q1284.26 559.445 1289.41 566.008 Q1294.59 572.57 1294.59 583.265 Q1294.59 593.959 1289.41 600.522 Q1284.26 607.084 1276 607.084 Q1271.02 607.084 1267.41 605.14 Q1263.85 603.155 1261.5 599.104 M1286.86 583.265 Q1286.86 575.041 1283.45 570.383 Q1280.09 565.684 1274.18 565.684 Q1268.26 565.684 1264.86 570.383 Q1261.5 575.041 1261.5 583.265 Q1261.5 591.488 1264.86 596.187 Q1268.26 600.846 1274.18 600.846 Q1280.09 600.846 1283.45 596.187 Q1286.86 591.488 1286.86 583.265 Z" fill="#ffffff" fill-rule="evenodd" fill-opacity="1" /><path clip-path="url(#clip420)" d="M1315.05 599.023 L1343.61 599.023 L1343.61 605.909 L1305.21 605.909 L1305.21 599.023 Q1309.86 594.202 1317.88 586.1 Q1325.95 577.958 1328.01 575.609 Q1331.94 571.193 1333.48 568.155 Q1335.06 565.076 1335.06 562.119 Q1335.06 557.298 1331.66 554.26 Q1328.3 551.222 1322.87 551.222 Q1319.02 551.222 1314.73 552.559 Q1310.47 553.896 1305.61 556.61 L1305.61 548.346 Q1310.55 546.361 1314.85 545.348 Q1319.14 544.336 1322.71 544.336 Q1332.1 544.336 1337.69 549.035 Q1343.28 553.734 1343.28 561.592 Q1343.28 565.319 1341.87 568.682 Q1340.49 572.003 1336.8 576.54 Q1335.79 577.715 1330.36 583.346 Q1324.93 588.936 1315.05 599.023 Z" fill="#ffffff" fill-rule="evenodd" fill-opacity="1" /><polyline clip-path="url(#clip423)" style="stroke:#009af9; stroke-linecap:round; stroke-linejoin:round; stroke-width:4; stroke-opacity:1; fill:none" points="271.369,812.654 291.781,815.265 312.192,805.33 332.604,802.461 353.016,820.986 373.428,825.822 393.839,794.865 414.251,784.734 434.663,826.792 455.075,829.381 475.486,837.843 495.898,766.098 516.31,817.948 536.722,836.895 557.133,815.291 577.545,790.707 597.957,785.681 618.369,779.222 638.781,820.337 659.192,855.875 679.604,869.406 700.016,789.835 720.428,813.458 740.839,766.971 761.251,842.73 781.663,783.369 802.075,847.465 822.486,798.2 842.898,727.098 863.31,748.097 883.722,874.589 904.133,765.959 924.545,858.294 944.957,773.72 965.369,758.142 985.78,848.074 1006.19,861.846 1026.6,844.129 1047.02,828.117 1067.43,883.251 1087.84,713.098 1108.25,771.151 1128.66,671.135 1149.07,709.146 1169.49,830.48 1189.9,794.255 1210.31,707.673 1230.72,683.4 1251.13,808.741 1271.55,711.735 1291.96,804.389 1312.37,708.936 1332.78,763.547 1353.19,786.714 1373.6,695.731 1394.02,783.439 1414.43,837.173 1434.84,744.322 1455.25,748.201 1475.66,690.767 1496.07,708.539 1516.49,670.014 1536.9,717.421 1557.31,672.802 1577.72,718.172 1598.13,728.598 1618.54,731.114 1638.96,806.284 1659.37,798.721 1679.78,681.587 1700.19,685.093 1720.6,731.348 1741.02,669.84 1761.43,810.287 1781.84,814.76 1802.25,748.946 1822.66,764.542 1843.07,663.401 1863.49,716.243 1883.9,714.758 1904.31,733.998 1924.72,748.481 1945.13,708.2 1965.54,695.527 1985.96,715.418 2006.37,751.629 2026.78,690.562 2047.19,770.177 2067.6,714.472 2088.02,702.26 2108.43,696.585 2128.84,702.39 2149.25,740.867 2169.66,722.559 2190.07,723.418 2210.49,710.787 2230.9,711.835 2251.31,711.949 2271.72,715.149 2292.13,716.968 "/>
<polyline clip-path="url(#clip423)" style="stroke:#e26f46; stroke-linecap:round; stroke-linejoin:round; stroke-width:4; stroke-opacity:1; fill:none" points="271.369,789.567 291.781,795.655 312.192,783.676 332.604,783.633 353.016,793.024 373.428,790.989 393.839,786.037 414.251,793.096 434.663,782.409 455.075,798.02 475.486,781.935 495.898,799.516 516.31,785.702 536.722,783.733 557.133,784.406 577.545,794.098 597.957,788.72 618.369,790.491 638.781,788.148 659.192,784.415 679.604,798.588 700.016,789.714 720.428,788.279 740.839,783.586 761.251,795.628 781.663,784.459 802.075,793.703 822.486,794.835 842.898,782.559 863.31,789.585 883.722,786.166 904.133,800.221 924.545,795.844 944.957,800.132 965.369,785.793 985.78,785.144 1006.19,797.167 1026.6,790.499 1047.02,797.137 1067.43,786.045 1087.84,789.844 1108.25,792.897 1128.66,783.042 1149.07,797.957 1169.49,782.021 1189.9,788.827 1210.31,792.554 1230.72,796.711 1251.13,794.143 1271.55,797.09 1291.96,788.154 1312.37,783.195 1332.78,788.944 1353.19,793.492 1373.6,789.023 1394.02,797.815 1414.43,792.52 1434.84,783.754 1455.25,785.102 1475.66,782.864 1496.07,788.945 1516.49,788.894 1536.9,789.856 1557.31,789.671 1577.72,786.289 1598.13,783.805 1618.54,785.081 1638.96,797.907 1659.37,786.753 1679.78,799.301 1700.19,781.905 1720.6,797.963 1741.02,792.768 1761.43,788.29 1781.84,784.031 1802.25,782.149 1822.66,787.399 1843.07,792.261 1863.49,792.442 1883.9,791.5 1904.31,797.855 1924.72,799.394 1945.13,786.254 1965.54,782.102 1985.96,799.176 2006.37,791.576 2026.78,795.12 2047.19,782.835 2067.6,790.023 2088.02,796.068 2108.43,792.549 2128.84,794.652 2149.25,790.049 2169.66,785.81 2190.07,792.438 2210.49,790.851 2230.9,782.409 2251.31,796.535 2271.72,800.001 2292.13,800.076 "/>
<polyline clip-path="url(#clip423)" style="stroke:#3da44d; stroke-linecap:round; stroke-linejoin:round; stroke-width:4; stroke-opacity:1; fill:none" points="271.369,808.137 291.781,809.921 312.192,811.443 332.604,817.858 353.016,812.168 373.428,810.742 393.839,811.435 414.251,810.921 434.663,817.268 455.075,819.517 475.486,813.459 495.898,813.597 516.31,808.156 536.722,816.959 557.133,819.856 577.545,816.53 597.957,818.959 618.369,812.401 638.781,815.4 659.192,818.842 679.604,813.149 700.016,817.663 720.428,820.278 740.839,809.849 761.251,810.986 781.663,817.639 802.075,818.058 822.486,816.003 842.898,820.252 863.31,808.35 883.722,807.522 904.133,815.665 924.545,807.445 944.957,815.864 965.369,815.516 985.78,811.752 1006.19,808.161 1026.6,812.034 1047.02,807.718 1067.43,813.314 1087.84,818.074 1108.25,817.419 1128.66,816.031 1149.07,811.84 1169.49,814.012 1189.9,808.37 1210.31,812.937 1230.72,817.471 1251.13,808.057 1271.55,816.823 1291.96,814.83 1312.37,816.193 1332.78,818.477 1353.19,819.207 1373.6,813.929 1394.02,818.439 1414.43,812.74 1434.84,810.299 1455.25,816.78 1475.66,808.359 1496.07,819.073 1516.49,811.088 1536.9,807.305 1557.31,814.838 1577.72,807.704 1598.13,810.347 1618.54,816.21 1638.96,817.52 1659.37,811.359 1679.78,818.644 1700.19,812.961 1720.6,809.186 1741.02,815.569 1761.43,813.532 1781.84,809.559 1802.25,811.023 1822.66,810.724 1843.07,815.845 1863.49,811.705 1883.9,811.008 1904.31,812.804 1924.72,816.044 1945.13,812.573 1965.54,819.229 1985.96,815.314 2006.37,813.438 2026.78,817.483 2047.19,809.137 2067.6,814.173 2088.02,815.073 2108.43,813.193 2128.84,811.494 2149.25,818.833 2169.66,812.452 2190.07,809.66 2210.49,808.368 2230.9,817.326 2251.31,819.31 2271.72,809.09 2292.13,811.715 "/>
<polyline clip-path="url(#clip423)" style="stroke:#c271d2; stroke-linecap:round; stroke-linejoin:round; stroke-width:4; stroke-opacity:1; fill:none" points="271.369,829.474 291.781,759.636 312.192,718.23 332.604,726.378 353.016,811.422 373.428,752.986 393.839,770.441 414.251,727.13 434.663,843.883 455.075,775.501 475.486,820.934 495.898,742.895 516.31,749.169 536.722,781.04 557.133,717.401 577.545,848.239 597.957,808.907 618.369,748.874 638.781,756.868 659.192,734.766 679.604,726.304 700.016,748.906 720.428,820.422 740.839,848.508 761.251,755 781.663,795.904 802.075,819.859 822.486,850.618 842.898,854.113 863.31,788.987 883.722,735.205 904.133,783.242 924.545,795.182 944.957,786.53 965.369,733.384 985.78,821.756 1006.19,792.321 1026.6,793.227 1047.02,800.693 1067.43,805.008 1087.84,836.999 1108.25,717.794 1128.66,717.741 1149.07,833.951 1169.49,858.814 1189.9,776.857 1210.31,735.865 1230.72,763.094 1251.13,739.22 1271.55,780.73 1291.96,743.402 1312.37,726.656 1332.78,753.386 1353.19,842.613 1373.6,762.759 1394.02,848.331 1414.43,837.435 1434.84,742.355 1455.25,793.639 1475.66,842.923 1496.07,784.501 1516.49,754.873 1536.9,773.188 1557.31,797.964 1577.72,782.776 1598.13,864.336 1618.54,807.252 1638.96,827.028 1659.37,729.602 1679.78,842.66 1700.19,861.792 1720.6,864.328 1741.02,817.546 1761.43,829.282 1781.84,723.215 1802.25,843.824 1822.66,804.71 1843.07,736.764 1863.49,801.843 1883.9,749.621 1904.31,836.503 1924.72,853.641 1945.13,726.132 1965.54,742.15 1985.96,742.972 2006.37,846.51 2026.78,777.246 2047.19,846.145 2067.6,754.199 2088.02,754.362 2108.43,861.208 2128.84,802.473 2149.25,755.438 2169.66,862.307 2190.07,853.641 2210.49,832.441 2230.9,857.366 2251.31,745.842 2271.72,733.132 2292.13,732.449 "/>
<path clip-path="url(#clip420)" d="M210.746 1423.18 L2352.76 1423.18 L2352.76 1190.14 L210.746 1190.14  Z" fill="#000000" fill-rule="evenodd" fill-opacity="0"/>
<defs>
  <clipPath id="clip424">
    <rect x="210" y="1190" width="2143" height="234"/>
  </clipPath>
</defs>
<polyline clip-path="url(#clip424)" style="stroke:#ffffff; stroke-linecap:round; stroke-linejoin:round; stroke-width:2; stroke-opacity:0.1; fill:none" points="250.957,1423.18 250.957,1190.14 "/>
<polyline clip-path="url(#clip424)" style="stroke:#ffffff; stroke-linecap:round; stroke-linejoin:round; stroke-width:2; stroke-opacity:0.1; fill:none" points="761.251,1423.18 761.251,1190.14 "/>
<polyline clip-path="url(#clip424)" style="stroke:#ffffff; stroke-linecap:round; stroke-linejoin:round; stroke-width:2; stroke-opacity:0.1; fill:none" points="1271.55,1423.18 1271.55,1190.14 "/>
<polyline clip-path="url(#clip424)" style="stroke:#ffffff; stroke-linecap:round; stroke-linejoin:round; stroke-width:2; stroke-opacity:0.1; fill:none" points="1781.84,1423.18 1781.84,1190.14 "/>
<polyline clip-path="url(#clip424)" style="stroke:#ffffff; stroke-linecap:round; stroke-linejoin:round; stroke-width:2; stroke-opacity:0.1; fill:none" points="2292.13,1423.18 2292.13,1190.14 "/>
<polyline clip-path="url(#clip420)" style="stroke:#ffffff; stroke-linecap:round; stroke-linejoin:round; stroke-width:4; stroke-opacity:1; fill:none" points="210.746,1423.18 2352.76,1423.18 "/>
<polyline clip-path="url(#clip420)" style="stroke:#ffffff; stroke-linecap:round; stroke-linejoin:round; stroke-width:4; stroke-opacity:1; fill:none" points="250.957,1423.18 250.957,1404.28 "/>
<polyline clip-path="url(#clip420)" style="stroke:#ffffff; stroke-linecap:round; stroke-linejoin:round; stroke-width:4; stroke-opacity:1; fill:none" points="761.251,1423.18 761.251,1404.28 "/>
<polyline clip-path="url(#clip420)" style="stroke:#ffffff; stroke-linecap:round; stroke-linejoin:round; stroke-width:4; stroke-opacity:1; fill:none" points="1271.55,1423.18 1271.55,1404.28 "/>
<polyline clip-path="url(#clip420)" style="stroke:#ffffff; stroke-linecap:round; stroke-linejoin:round; stroke-width:4; stroke-opacity:1; fill:none" points="1781.84,1423.18 1781.84,1404.28 "/>
<polyline clip-path="url(#clip420)" style="stroke:#ffffff; stroke-linecap:round; stroke-linejoin:round; stroke-width:4; stroke-opacity:1; fill:none" points="2292.13,1423.18 2292.13,1404.28 "/>
<path clip-path="url(#clip420)" d="M250.957 1454.1 Q247.346 1454.1 245.517 1457.66 Q243.712 1461.2 243.712 1468.33 Q243.712 1475.44 245.517 1479.01 Q247.346 1482.55 250.957 1482.55 Q254.591 1482.55 256.397 1479.01 Q258.226 1475.44 258.226 1468.33 Q258.226 1461.2 256.397 1457.66 Q254.591 1454.1 250.957 1454.1 M250.957 1450.39 Q256.767 1450.39 259.823 1455 Q262.901 1459.58 262.901 1468.33 Q262.901 1477.06 259.823 1481.67 Q256.767 1486.25 250.957 1486.25 Q245.147 1486.25 242.068 1481.67 Q239.013 1477.06 239.013 1468.33 Q239.013 1459.58 242.068 1455 Q245.147 1450.39 250.957 1450.39 Z" fill="#ffffff" fill-rule="evenodd" fill-opacity="1" /><path clip-path="url(#clip420)" d="M740.522 1481.64 L756.841 1481.64 L756.841 1485.58 L734.897 1485.58 L734.897 1481.64 Q737.559 1478.89 742.142 1474.26 Q746.749 1469.61 747.929 1468.27 Q750.175 1465.74 751.054 1464.01 Q751.957 1462.25 751.957 1460.56 Q751.957 1457.8 750.013 1456.07 Q748.091 1454.33 744.99 1454.33 Q742.791 1454.33 740.337 1455.09 Q737.906 1455.86 735.129 1457.41 L735.129 1452.69 Q737.953 1451.55 740.406 1450.97 Q742.86 1450.39 744.897 1450.39 Q750.267 1450.39 753.462 1453.08 Q756.656 1455.77 756.656 1460.26 Q756.656 1462.39 755.846 1464.31 Q755.059 1466.2 752.953 1468.8 Q752.374 1469.47 749.272 1472.69 Q746.17 1475.88 740.522 1481.64 Z" fill="#ffffff" fill-rule="evenodd" fill-opacity="1" /><path clip-path="url(#clip420)" d="M766.702 1451.02 L785.059 1451.02 L785.059 1454.96 L770.985 1454.96 L770.985 1463.43 Q772.003 1463.08 773.022 1462.92 Q774.04 1462.73 775.059 1462.73 Q780.846 1462.73 784.225 1465.9 Q787.605 1469.08 787.605 1474.49 Q787.605 1480.07 784.133 1483.17 Q780.661 1486.25 774.341 1486.25 Q772.165 1486.25 769.897 1485.88 Q767.652 1485.51 765.244 1484.77 L765.244 1480.07 Q767.327 1481.2 769.55 1481.76 Q771.772 1482.32 774.249 1482.32 Q778.253 1482.32 780.591 1480.21 Q782.929 1478.1 782.929 1474.49 Q782.929 1470.88 780.591 1468.77 Q778.253 1466.67 774.249 1466.67 Q772.374 1466.67 770.499 1467.08 Q768.647 1467.5 766.702 1468.38 L766.702 1451.02 Z" fill="#ffffff" fill-rule="evenodd" fill-opacity="1" /><path clip-path="url(#clip420)" d="M1246.24 1451.02 L1264.6 1451.02 L1264.6 1454.96 L1250.53 1454.96 L1250.53 1463.43 Q1251.55 1463.08 1252.56 1462.92 Q1253.58 1462.73 1254.6 1462.73 Q1260.39 1462.73 1263.77 1465.9 Q1267.15 1469.08 1267.15 1474.49 Q1267.15 1480.07 1263.67 1483.17 Q1260.2 1486.25 1253.88 1486.25 Q1251.71 1486.25 1249.44 1485.88 Q1247.19 1485.51 1244.79 1484.77 L1244.79 1480.07 Q1246.87 1481.2 1249.09 1481.76 Q1251.31 1482.32 1253.79 1482.32 Q1257.8 1482.32 1260.13 1480.21 Q1262.47 1478.1 1262.47 1474.49 Q1262.47 1470.88 1260.13 1468.77 Q1257.8 1466.67 1253.79 1466.67 Q1251.92 1466.67 1250.04 1467.08 Q1248.19 1467.5 1246.24 1468.38 L1246.24 1451.02 Z" fill="#ffffff" fill-rule="evenodd" fill-opacity="1" /><path clip-path="url(#clip420)" d="M1286.36 1454.1 Q1282.75 1454.1 1280.92 1457.66 Q1279.11 1461.2 1279.11 1468.33 Q1279.11 1475.44 1280.92 1479.01 Q1282.75 1482.55 1286.36 1482.55 Q1289.99 1482.55 1291.8 1479.01 Q1293.63 1475.44 1293.63 1468.33 Q1293.63 1461.2 1291.8 1457.66 Q1289.99 1454.1 1286.36 1454.1 M1286.36 1450.39 Q1292.17 1450.39 1295.23 1455 Q1298.3 1459.58 1298.3 1468.33 Q1298.3 1477.06 1295.23 1481.67 Q1292.17 1486.25 1286.36 1486.25 Q1280.55 1486.25 1277.47 1481.67 Q1274.42 1477.06 1274.42 1468.33 Q1274.42 1459.58 1277.47 1455 Q1280.55 1450.39 1286.36 1450.39 Z" fill="#ffffff" fill-rule="evenodd" fill-opacity="1" /><path clip-path="url(#clip420)" d="M1755.69 1451.02 L1777.92 1451.02 L1777.92 1453.01 L1765.37 1485.58 L1760.48 1485.58 L1772.29 1454.96 L1755.69 1454.96 L1755.69 1451.02 Z" fill="#ffffff" fill-rule="evenodd" fill-opacity="1" /><path clip-path="url(#clip420)" d="M1787.08 1451.02 L1805.44 1451.02 L1805.44 1454.96 L1791.36 1454.96 L1791.36 1463.43 Q1792.38 1463.08 1793.4 1462.92 Q1794.42 1462.73 1795.44 1462.73 Q1801.23 1462.73 1804.61 1465.9 Q1807.98 1469.08 1807.98 1474.49 Q1807.98 1480.07 1804.51 1483.17 Q1801.04 1486.25 1794.72 1486.25 Q1792.54 1486.25 1790.28 1485.88 Q1788.03 1485.51 1785.62 1484.77 L1785.62 1480.07 Q1787.71 1481.2 1789.93 1481.76 Q1792.15 1482.32 1794.63 1482.32 Q1798.63 1482.32 1800.97 1480.21 Q1803.31 1478.1 1803.31 1474.49 Q1803.31 1470.88 1800.97 1468.77 Q1798.63 1466.67 1794.63 1466.67 Q1792.75 1466.67 1790.88 1467.08 Q1789.03 1467.5 1787.08 1468.38 L1787.08 1451.02 Z" fill="#ffffff" fill-rule="evenodd" fill-opacity="1" /><path clip-path="url(#clip420)" d="M2251.74 1481.64 L2259.38 1481.64 L2259.38 1455.28 L2251.07 1456.95 L2251.07 1452.69 L2259.33 1451.02 L2264.01 1451.02 L2264.01 1481.64 L2271.65 1481.64 L2271.65 1485.58 L2251.74 1485.58 L2251.74 1481.64 Z" fill="#ffffff" fill-rule="evenodd" fill-opacity="1" /><path clip-path="url(#clip420)" d="M2291.09 1454.1 Q2287.48 1454.1 2285.65 1457.66 Q2283.85 1461.2 2283.85 1468.33 Q2283.85 1475.44 2285.65 1479.01 Q2287.48 1482.55 2291.09 1482.55 Q2294.73 1482.55 2296.53 1479.01 Q2298.36 1475.44 2298.36 1468.33 Q2298.36 1461.2 2296.53 1457.66 Q2294.73 1454.1 2291.09 1454.1 M2291.09 1450.39 Q2296.9 1450.39 2299.96 1455 Q2303.04 1459.58 2303.04 1468.33 Q2303.04 1477.06 2299.96 1481.67 Q2296.9 1486.25 2291.09 1486.25 Q2285.28 1486.25 2282.2 1481.67 Q2279.15 1477.06 2279.15 1468.33 Q2279.15 1459.58 2282.2 1455 Q2285.28 1450.39 2291.09 1450.39 Z" fill="#ffffff" fill-rule="evenodd" fill-opacity="1" /><path clip-path="url(#clip420)" d="M2321.25 1454.1 Q2317.64 1454.1 2315.81 1457.66 Q2314.01 1461.2 2314.01 1468.33 Q2314.01 1475.44 2315.81 1479.01 Q2317.64 1482.55 2321.25 1482.55 Q2324.89 1482.55 2326.69 1479.01 Q2328.52 1475.44 2328.52 1468.33 Q2328.52 1461.2 2326.69 1457.66 Q2324.89 1454.1 2321.25 1454.1 M2321.25 1450.39 Q2327.06 1450.39 2330.12 1455 Q2333.2 1459.58 2333.2 1468.33 Q2333.2 1477.06 2330.12 1481.67 Q2327.06 1486.25 2321.25 1486.25 Q2315.44 1486.25 2312.36 1481.67 Q2309.31 1477.06 2309.31 1468.33 Q2309.31 1459.58 2312.36 1455 Q2315.44 1450.39 2321.25 1450.39 Z" fill="#ffffff" fill-rule="evenodd" fill-opacity="1" /><path clip-path="url(#clip420)" d="M1263.77 1520.52 L1272.43 1520.52 L1293.5 1560.28 L1293.5 1520.52 L1299.73 1520.52 L1299.73 1568.04 L1291.08 1568.04 L1270.01 1528.29 L1270.01 1568.04 L1263.77 1568.04 L1263.77 1520.52 Z" fill="#ffffff" fill-rule="evenodd" fill-opacity="1" /><polyline clip-path="url(#clip424)" style="stroke:#ffffff; stroke-linecap:round; stroke-linejoin:round; stroke-width:2; stroke-opacity:0.1; fill:none" points="210.746,1406.93 2352.76,1406.93 "/>
<polyline clip-path="url(#clip424)" style="stroke:#ffffff; stroke-linecap:round; stroke-linejoin:round; stroke-width:2; stroke-opacity:0.1; fill:none" points="210.746,1360.37 2352.76,1360.37 "/>
<polyline clip-path="url(#clip424)" style="stroke:#ffffff; stroke-linecap:round; stroke-linejoin:round; stroke-width:2; stroke-opacity:0.1; fill:none" points="210.746,1313.8 2352.76,1313.8 "/>
<polyline clip-path="url(#clip424)" style="stroke:#ffffff; stroke-linecap:round; stroke-linejoin:round; stroke-width:2; stroke-opacity:0.1; fill:none" points="210.746,1267.24 2352.76,1267.24 "/>
<polyline clip-path="url(#clip424)" style="stroke:#ffffff; stroke-linecap:round; stroke-linejoin:round; stroke-width:2; stroke-opacity:0.1; fill:none" points="210.746,1220.68 2352.76,1220.68 "/>
<polyline clip-path="url(#clip420)" style="stroke:#ffffff; stroke-linecap:round; stroke-linejoin:round; stroke-width:4; stroke-opacity:1; fill:none" points="210.746,1423.18 210.746,1190.14 "/>
<polyline clip-path="url(#clip420)" style="stroke:#ffffff; stroke-linecap:round; stroke-linejoin:round; stroke-width:4; stroke-opacity:1; fill:none" points="210.746,1406.93 229.644,1406.93 "/>
<polyline clip-path="url(#clip420)" style="stroke:#ffffff; stroke-linecap:round; stroke-linejoin:round; stroke-width:4; stroke-opacity:1; fill:none" points="210.746,1360.37 229.644,1360.37 "/>
<polyline clip-path="url(#clip420)" style="stroke:#ffffff; stroke-linecap:round; stroke-linejoin:round; stroke-width:4; stroke-opacity:1; fill:none" points="210.746,1313.8 229.644,1313.8 "/>
<polyline clip-path="url(#clip420)" style="stroke:#ffffff; stroke-linecap:round; stroke-linejoin:round; stroke-width:4; stroke-opacity:1; fill:none" points="210.746,1267.24 229.644,1267.24 "/>
<polyline clip-path="url(#clip420)" style="stroke:#ffffff; stroke-linecap:round; stroke-linejoin:round; stroke-width:4; stroke-opacity:1; fill:none" points="210.746,1220.68 229.644,1220.68 "/>
<path clip-path="url(#clip420)" d="M114.26 1407.38 L143.936 1407.38 L143.936 1411.32 L114.26 1411.32 L114.26 1407.38 Z" fill="#ffffff" fill-rule="evenodd" fill-opacity="1" /><path clip-path="url(#clip420)" d="M154.839 1420.27 L162.477 1420.27 L162.477 1393.91 L154.167 1395.57 L154.167 1391.32 L162.431 1389.65 L167.107 1389.65 L167.107 1420.27 L174.746 1420.27 L174.746 1424.21 L154.839 1424.21 L154.839 1420.27 Z" fill="#ffffff" fill-rule="evenodd" fill-opacity="1" /><path clip-path="url(#clip420)" d="M162.802 1346.17 Q159.19 1346.17 157.362 1349.73 Q155.556 1353.27 155.556 1360.4 Q155.556 1367.51 157.362 1371.07 Q159.19 1374.61 162.802 1374.61 Q166.436 1374.61 168.241 1371.07 Q170.07 1367.51 170.07 1360.4 Q170.07 1353.27 168.241 1349.73 Q166.436 1346.17 162.802 1346.17 M162.802 1342.46 Q168.612 1342.46 171.667 1347.07 Q174.746 1351.65 174.746 1360.4 Q174.746 1369.13 171.667 1373.73 Q168.612 1378.32 162.802 1378.32 Q156.991 1378.32 153.913 1373.73 Q150.857 1369.13 150.857 1360.4 Q150.857 1351.65 153.913 1347.07 Q156.991 1342.46 162.802 1342.46 Z" fill="#ffffff" fill-rule="evenodd" fill-opacity="1" /><path clip-path="url(#clip420)" d="M154.839 1327.15 L162.477 1327.15 L162.477 1300.78 L154.167 1302.45 L154.167 1298.19 L162.431 1296.52 L167.107 1296.52 L167.107 1327.15 L174.746 1327.15 L174.746 1331.08 L154.839 1331.08 L154.839 1327.15 Z" fill="#ffffff" fill-rule="evenodd" fill-opacity="1" /><path clip-path="url(#clip420)" d="M158.427 1280.59 L174.746 1280.59 L174.746 1284.52 L152.802 1284.52 L152.802 1280.59 Q155.464 1277.83 160.047 1273.2 Q164.653 1268.55 165.834 1267.21 Q168.079 1264.68 168.959 1262.95 Q169.862 1261.19 169.862 1259.5 Q169.862 1256.74 167.917 1255.01 Q165.996 1253.27 162.894 1253.27 Q160.695 1253.27 158.241 1254.03 Q155.811 1254.8 153.033 1256.35 L153.033 1251.63 Q155.857 1250.49 158.311 1249.91 Q160.765 1249.34 162.802 1249.34 Q168.172 1249.34 171.366 1252.02 Q174.561 1254.71 174.561 1259.2 Q174.561 1261.33 173.751 1263.25 Q172.964 1265.15 170.857 1267.74 Q170.278 1268.41 167.177 1271.63 Q164.075 1274.82 158.427 1280.59 Z" fill="#ffffff" fill-rule="evenodd" fill-opacity="1" /><path clip-path="url(#clip420)" d="M167.616 1219.32 Q170.973 1220.04 172.848 1222.31 Q174.746 1224.58 174.746 1227.91 Q174.746 1233.03 171.227 1235.83 Q167.709 1238.63 161.227 1238.63 Q159.052 1238.63 156.737 1238.19 Q154.445 1237.77 151.991 1236.92 L151.991 1232.4 Q153.936 1233.54 156.251 1234.12 Q158.565 1234.69 161.089 1234.69 Q165.487 1234.69 167.778 1232.96 Q170.093 1231.22 170.093 1227.91 Q170.093 1224.86 167.94 1223.14 Q165.811 1221.41 161.991 1221.41 L157.964 1221.41 L157.964 1217.56 L162.177 1217.56 Q165.626 1217.56 167.454 1216.2 Q169.283 1214.81 169.283 1212.22 Q169.283 1209.56 167.385 1208.14 Q165.51 1206.71 161.991 1206.71 Q160.07 1206.71 157.871 1207.12 Q155.672 1207.54 153.033 1208.42 L153.033 1204.25 Q155.695 1203.51 158.01 1203.14 Q160.348 1202.77 162.408 1202.77 Q167.732 1202.77 170.834 1205.2 Q173.936 1207.61 173.936 1211.73 Q173.936 1214.6 172.292 1216.59 Q170.649 1218.56 167.616 1219.32 Z" fill="#ffffff" fill-rule="evenodd" fill-opacity="1" /><path clip-path="url(#clip420)" d="M64.0042 1376.03 L16.4842 1394.17 L16.4842 1387.46 L56.4926 1372.4 L16.4842 1357.31 L16.4842 1350.63 L64.0042 1368.74 L64.0042 1376.03 Z" fill="#ffffff" fill-rule="evenodd" fill-opacity="1" /><path clip-path="url(#clip420)" d="M46.0847 1332.81 Q46.0847 1339.9 47.7079 1342.64 Q49.3312 1345.38 53.2461 1345.38 Q56.3653 1345.38 58.2114 1343.34 Q60.0256 1341.27 60.0256 1337.74 Q60.0256 1332.87 56.5881 1329.94 Q53.1188 1326.98 47.3897 1326.98 L46.0847 1326.98 L46.0847 1332.81 M43.6657 1321.13 L64.0042 1321.13 L64.0042 1326.98 L58.5933 1326.98 Q61.8398 1328.99 63.3994 1331.98 Q64.9272 1334.97 64.9272 1339.3 Q64.9272 1344.77 61.8716 1348.02 Q58.7843 1351.24 53.6281 1351.24 Q47.6125 1351.24 44.5569 1347.22 Q41.5014 1343.18 41.5014 1335.19 L41.5014 1326.98 L40.9285 1326.98 Q36.8862 1326.98 34.6901 1329.66 Q32.4621 1332.3 32.4621 1337.1 Q32.4621 1340.16 33.1941 1343.06 Q33.9262 1345.95 35.3903 1348.63 L29.9795 1348.63 Q28.7381 1345.41 28.1334 1342.39 Q27.4968 1339.36 27.4968 1336.5 Q27.4968 1328.76 31.5072 1324.94 Q35.5176 1321.13 43.6657 1321.13 Z" fill="#ffffff" fill-rule="evenodd" fill-opacity="1" /><path clip-path="url(#clip420)" d="M14.479 1309.06 L14.479 1303.21 L64.0042 1303.21 L64.0042 1309.06 L14.479 1309.06 Z" fill="#ffffff" fill-rule="evenodd" fill-opacity="1" /><path clip-path="url(#clip420)" d="M49.9359 1291.56 L28.3562 1291.56 L28.3562 1285.7 L49.7131 1285.7 Q54.7739 1285.7 57.3202 1283.73 Q59.8346 1281.75 59.8346 1277.81 Q59.8346 1273.06 56.8109 1270.33 Q53.7872 1267.56 48.5673 1267.56 L28.3562 1267.56 L28.3562 1261.7 L64.0042 1261.7 L64.0042 1267.56 L58.5296 1267.56 Q61.7762 1269.69 63.3676 1272.52 Q64.9272 1275.32 64.9272 1279.05 Q64.9272 1285.19 61.1078 1288.37 Q57.2883 1291.56 49.9359 1291.56 M27.4968 1276.82 L27.4968 1276.82 Z" fill="#ffffff" fill-rule="evenodd" fill-opacity="1" /><path clip-path="url(#clip420)" d="M44.7161 1219.15 L47.5806 1219.15 L47.5806 1246.07 Q53.6281 1245.69 56.8109 1242.45 Q59.9619 1239.17 59.9619 1233.34 Q59.9619 1229.97 59.1344 1226.82 Q58.3069 1223.63 56.6518 1220.52 L62.1899 1220.52 Q63.5267 1223.67 64.227 1226.98 Q64.9272 1230.29 64.9272 1233.69 Q64.9272 1242.22 59.9619 1247.22 Q54.9967 1252.18 46.5303 1252.18 Q37.7774 1252.18 32.6531 1247.47 Q27.4968 1242.73 27.4968 1234.71 Q27.4968 1227.52 32.1438 1223.35 Q36.7589 1219.15 44.7161 1219.15 M42.9973 1225 Q38.1912 1225.07 35.3266 1227.71 Q32.4621 1230.32 32.4621 1234.65 Q32.4621 1239.55 35.2312 1242.51 Q38.0002 1245.44 43.0292 1245.88 L42.9973 1225 Z" fill="#ffffff" fill-rule="evenodd" fill-opacity="1" /><path clip-path="url(#clip420)" d="M1245.64 1100.84 Q1244.38 1100.11 1242.88 1099.79 Q1241.42 1099.42 1239.64 1099.42 Q1233.32 1099.42 1229.92 1103.55 Q1226.56 1107.65 1226.56 1115.34 L1226.56 1139.24 L1219.06 1139.24 L1219.06 1093.87 L1226.56 1093.87 L1226.56 1100.92 Q1228.91 1096.79 1232.67 1094.8 Q1236.44 1092.78 1241.83 1092.78 Q1242.6 1092.78 1243.53 1092.9 Q1244.46 1092.98 1245.6 1093.18 L1245.64 1100.84 Z" fill="#ffffff" fill-rule="evenodd" fill-opacity="1" /><path clip-path="url(#clip420)" d="M1260.67 1132.44 L1260.67 1156.5 L1253.17 1156.5 L1253.17 1093.87 L1260.67 1093.87 L1260.67 1100.76 Q1263.02 1096.71 1266.58 1094.76 Q1270.19 1092.78 1275.17 1092.78 Q1283.43 1092.78 1288.58 1099.34 Q1293.76 1105.9 1293.76 1116.6 Q1293.76 1127.29 1288.58 1133.85 Q1283.43 1140.42 1275.17 1140.42 Q1270.19 1140.42 1266.58 1138.47 Q1263.02 1136.49 1260.67 1132.44 M1286.02 1116.6 Q1286.02 1108.37 1282.62 1103.72 Q1279.26 1099.02 1273.35 1099.02 Q1267.43 1099.02 1264.03 1103.72 Q1260.67 1108.37 1260.67 1116.6 Q1260.67 1124.82 1264.03 1129.52 Q1267.43 1134.18 1273.35 1134.18 Q1279.26 1134.18 1282.62 1129.52 Q1286.02 1124.82 1286.02 1116.6 Z" fill="#ffffff" fill-rule="evenodd" fill-opacity="1" /><path clip-path="url(#clip420)" d="M1331.96 1106.63 Q1337.84 1107.89 1341.12 1111.86 Q1344.44 1115.83 1344.44 1121.66 Q1344.44 1130.61 1338.28 1135.52 Q1332.12 1140.42 1320.78 1140.42 Q1316.97 1140.42 1312.92 1139.65 Q1308.91 1138.92 1304.62 1137.42 L1304.62 1129.52 Q1308.02 1131.51 1312.07 1132.52 Q1316.12 1133.53 1320.54 1133.53 Q1328.24 1133.53 1332.25 1130.49 Q1336.3 1127.45 1336.3 1121.66 Q1336.3 1116.31 1332.53 1113.32 Q1328.8 1110.28 1322.12 1110.28 L1315.07 1110.28 L1315.07 1103.55 L1322.44 1103.55 Q1328.48 1103.55 1331.68 1101.16 Q1334.88 1098.73 1334.88 1094.2 Q1334.88 1089.54 1331.56 1087.07 Q1328.28 1084.56 1322.12 1084.56 Q1318.76 1084.56 1314.91 1085.28 Q1311.06 1086.01 1306.44 1087.55 L1306.44 1080.26 Q1311.1 1078.97 1315.15 1078.32 Q1319.24 1077.67 1322.85 1077.67 Q1332.16 1077.67 1337.59 1081.92 Q1343.02 1086.14 1343.02 1093.35 Q1343.02 1098.37 1340.14 1101.85 Q1337.27 1105.3 1331.96 1106.63 Z" fill="#ffffff" fill-rule="evenodd" fill-opacity="1" /><polyline clip-path="url(#clip424)" style="stroke:#009af9; stroke-linecap:round; stroke-linejoin:round; stroke-width:4; stroke-opacity:1; fill:none" points="271.369,1356.51 291.781,1352.24 312.192,1366.57 332.604,1367.27 353.016,1339.26 373.428,1354.41 393.839,1344.54 414.251,1329.67 434.663,1320.92 455.075,1337.31 475.486,1370.95 495.898,1346.24 516.31,1332.02 536.722,1329.02 557.133,1395.66 577.545,1395.57 597.957,1288.19 618.369,1358.89 638.781,1377.55 659.192,1313.95 679.604,1377.91 700.016,1289.58 720.428,1314.45 740.839,1406.46 761.251,1310.07 781.663,1354.3 802.075,1367.1 822.486,1303.58 842.898,1407.85 863.31,1385.77 883.722,1287.51 904.133,1372.94 924.545,1319.28 944.957,1338.58 965.369,1284.74 985.78,1347.67 1006.19,1260.34 1026.6,1290.91 1047.02,1393.85 1067.43,1276.46 1087.84,1385.12 1108.25,1405.31 1128.66,1384.47 1149.07,1213.17 1169.49,1287.99 1189.9,1208.44 1210.31,1414.34 1230.72,1213.42 1251.13,1392.79 1271.55,1312.91 1291.96,1263.25 1312.37,1297.26 1332.78,1329.64 1353.19,1271.01 1373.6,1294.86 1394.02,1196.73 1414.43,1238.26 1434.84,1281.58 1455.25,1416.58 1475.66,1273.6 1496.07,1218.46 1516.49,1331 1536.9,1399.3 1557.31,1261.31 1577.72,1210.27 1598.13,1230.44 1618.54,1296.26 1638.96,1375.96 1659.37,1383.01 1679.78,1213.05 1700.19,1365.14 1720.6,1261.75 1741.02,1235 1761.43,1227.95 1781.84,1352.91 1802.25,1330.99 1822.66,1305.09 1843.07,1303.21 1863.49,1280.93 1883.9,1324.42 1904.31,1329.68 1924.72,1330.12 1945.13,1316.34 1965.54,1256.47 1985.96,1300.53 2006.37,1321.43 2026.78,1266.95 2047.19,1245.03 2067.6,1263.39 2088.02,1291.78 2108.43,1277.99 2128.84,1282.69 2149.25,1268.51 2169.66,1257.46 2190.07,1277.45 2210.49,1269.16 2230.9,1264.64 2251.31,1271.01 2271.72,1271.34 2292.13,1267.24 "/>
<polyline clip-path="url(#clip424)" style="stroke:#e26f46; stroke-linecap:round; stroke-linejoin:round; stroke-width:4; stroke-opacity:1; fill:none" points="271.369,1354.45 291.781,1335.35 312.192,1352.17 332.604,1339.36 353.016,1341.74 373.428,1345.86 393.839,1341.64 414.251,1330.85 434.663,1329.05 455.075,1349.71 475.486,1342.47 495.898,1337.14 516.31,1341.29 536.722,1331.29 557.133,1355.13 577.545,1340.94 597.957,1355.37 618.369,1350.37 638.781,1329.03 659.192,1332.79 679.604,1345.52 700.016,1336.83 720.428,1347.82 740.839,1335.54 761.251,1353.13 781.663,1328.33 802.075,1342.88 822.486,1335.72 842.898,1342.05 863.31,1339.08 883.722,1343.03 904.133,1332.41 924.545,1350.02 944.957,1350.65 965.369,1352.98 985.78,1354.61 1006.19,1333.46 1026.6,1329.92 1047.02,1338.75 1067.43,1328.17 1087.84,1327.49 1108.25,1348.03 1128.66,1344.84 1149.07,1339.69 1169.49,1327.16 1189.9,1331.74 1210.31,1329.96 1230.72,1346.39 1251.13,1333.51 1271.55,1334.51 1291.96,1345.28 1312.37,1346.11 1332.78,1343.23 1353.19,1347.96 1373.6,1349.43 1394.02,1333.94 1414.43,1333.67 1434.84,1331.01 1455.25,1333.57 1475.66,1327.18 1496.07,1343.9 1516.49,1333.36 1536.9,1337.54 1557.31,1329.6 1577.72,1354.27 1598.13,1345.26 1618.54,1334.61 1638.96,1331.09 1659.37,1348.75 1679.78,1337.87 1700.19,1340.6 1720.6,1326.62 1741.02,1352.62 1761.43,1352.27 1781.84,1350.46 1802.25,1351.92 1822.66,1327.74 1843.07,1347.55 1863.49,1330.66 1883.9,1349.02 1904.31,1348.42 1924.72,1345.4 1945.13,1345.3 1965.54,1334.06 1985.96,1345.9 2006.37,1341.33 2026.78,1338.15 2047.19,1348.64 2067.6,1340.67 2088.02,1330.18 2108.43,1336.62 2128.84,1339.68 2149.25,1344.34 2169.66,1336.22 2190.07,1334.91 2210.49,1345.53 2230.9,1332.09 2251.31,1327.94 2271.72,1346.94 2292.13,1335.63 "/>
<polyline clip-path="url(#clip424)" style="stroke:#3da44d; stroke-linecap:round; stroke-linejoin:round; stroke-width:4; stroke-opacity:1; fill:none" points="271.369,1367.64 291.781,1370.93 312.192,1356.61 332.604,1299.03 353.016,1343.19 373.428,1388.08 393.839,1338.43 414.251,1282.5 434.663,1333.7 455.075,1401.93 475.486,1324.09 495.898,1358.43 516.31,1333.12 536.722,1320.94 557.133,1369.03 577.545,1341.04 597.957,1323.87 618.369,1357.32 638.781,1396.89 659.192,1406.37 679.604,1282.49 700.016,1328.84 720.428,1369.88 740.839,1316.48 761.251,1322.65 781.663,1352.73 802.075,1346.61 822.486,1377.82 842.898,1316.88 863.31,1354.88 883.722,1282.9 904.133,1392.8 924.545,1356.08 944.957,1297.7 965.369,1308.75 985.78,1283.62 1006.19,1294.48 1026.6,1314.03 1047.02,1367.66 1067.43,1395.65 1087.84,1296.03 1108.25,1389.82 1128.66,1362.66 1149.07,1331.88 1169.49,1330.44 1189.9,1389.56 1210.31,1326.22 1230.72,1380.75 1251.13,1404.49 1271.55,1390.86 1291.96,1272.34 1312.37,1338.17 1332.78,1324.43 1353.19,1312.91 1373.6,1277.35 1394.02,1317.28 1414.43,1332.16 1434.84,1340.67 1455.25,1354.83 1475.66,1367.77 1496.07,1294.79 1516.49,1363.25 1536.9,1352.59 1557.31,1285.72 1577.72,1393.17 1598.13,1309.56 1618.54,1394.72 1638.96,1382.65 1659.37,1268.58 1679.78,1284.93 1700.19,1406.68 1720.6,1361.63 1741.02,1386.98 1761.43,1362.99 1781.84,1350.25 1802.25,1344.65 1822.66,1374.3 1843.07,1364 1863.49,1375.97 1883.9,1345.13 1904.31,1385.42 1924.72,1293.46 1945.13,1355.54 1965.54,1381.59 1985.96,1393.89 2006.37,1389.94 2026.78,1341.97 2047.19,1286.84 2067.6,1337.09 2088.02,1330.01 2108.43,1280.01 2128.84,1299.46 2149.25,1304.86 2169.66,1362.08 2190.07,1343.61 2210.49,1383.35 2230.9,1328.15 2251.31,1373.26 2271.72,1277.95 2292.13,1275.56 "/>
<polyline clip-path="url(#clip424)" style="stroke:#c271d2; stroke-linecap:round; stroke-linejoin:round; stroke-width:4; stroke-opacity:1; fill:none" points="271.369,1287.33 291.781,1311.26 312.192,1392.51 332.604,1278.5 353.016,1365.24 373.428,1325.14 393.839,1347.29 414.251,1313.45 434.663,1361.53 455.075,1359.79 475.486,1297.83 495.898,1285.16 516.31,1302.14 536.722,1274.56 557.133,1335.12 577.545,1389.14 597.957,1276.48 618.369,1335.89 638.781,1297.64 659.192,1389.98 679.604,1379.27 700.016,1348.19 720.428,1395.59 740.839,1277.77 761.251,1351.58 781.663,1394.84 802.075,1388.05 822.486,1363.36 842.898,1364.08 863.31,1377.16 883.722,1362.47 904.133,1338.34 924.545,1378.03 944.957,1324.35 965.369,1283.63 985.78,1378.77 1006.19,1300.71 1026.6,1322.42 1047.02,1387.46 1067.43,1321.49 1087.84,1275.77 1108.25,1328.13 1128.66,1329.3 1149.07,1346.23 1169.49,1363.59 1189.9,1288.57 1210.31,1401.04 1230.72,1391.41 1251.13,1384.5 1271.55,1319.55 1291.96,1359.63 1312.37,1283.51 1332.78,1306.07 1353.19,1287.58 1373.6,1278.27 1394.02,1400.05 1414.43,1324.78 1434.84,1366.06 1455.25,1340.68 1475.66,1320.52 1496.07,1321.68 1516.49,1370.29 1536.9,1295.38 1557.31,1330.56 1577.72,1328.14 1598.13,1381.36 1618.54,1310.78 1638.96,1371.2 1659.37,1361.2 1679.78,1387.85 1700.19,1291.66 1720.6,1294.55 1741.02,1398.86 1761.43,1367.75 1781.84,1305.28 1802.25,1317.96 1822.66,1395.07 1843.07,1337.2 1863.49,1304.83 1883.9,1391.09 1904.31,1344.5 1924.72,1390.64 1945.13,1362.45 1965.54,1286.66 1985.96,1325.84 2006.37,1359.98 2026.78,1316.37 2047.19,1376.84 2067.6,1374.75 2088.02,1378.1 2108.43,1298.96 2128.84,1328.04 2149.25,1279.78 2169.66,1320.58 2190.07,1313.78 2210.49,1388.7 2230.9,1285.91 2251.31,1295.28 2271.72,1355.78 2292.13,1386.06 "/>
</svg>
