<?xml version="1.0" encoding="utf-8"?>
<svg xmlns="http://www.w3.org/2000/svg" xmlns:xlink="http://www.w3.org/1999/xlink" width="600" height="400" viewBox="0 0 2400 1600">
<defs>
  <clipPath id="clip630">
    <rect x="0" y="0" width="2400" height="1600"/>
  </clipPath>
</defs>
<path clip-path="url(#clip630)" d="M0 1600 L2400 1600 L2400 0 L0 0  Z" fill="#000000" fill-rule="evenodd" fill-opacity="0"/>
<defs>
  <clipPath id="clip631">
    <rect x="480" y="0" width="1681" height="1600"/>
  </clipPath>
</defs>
<path clip-path="url(#clip630)" d="M249.542 1423.18 L2352.76 1423.18 L2352.76 123.472 L249.542 123.472  Z" fill="#000000" fill-rule="evenodd" fill-opacity="0"/>
<defs>
  <clipPath id="clip632">
    <rect x="249" y="123" width="2104" height="1301"/>
  </clipPath>
</defs>
<polyline clip-path="url(#clip632)" style="stroke:#ffffff; stroke-linecap:round; stroke-linejoin:round; stroke-width:2; stroke-opacity:0.1; fill:none" points="603.017,1423.18 603.017,123.472 "/>
<polyline clip-path="url(#clip632)" style="stroke:#ffffff; stroke-linecap:round; stroke-linejoin:round; stroke-width:2; stroke-opacity:0.1; fill:none" points="970.455,1423.18 970.455,123.472 "/>
<polyline clip-path="url(#clip632)" style="stroke:#ffffff; stroke-linecap:round; stroke-linejoin:round; stroke-width:2; stroke-opacity:0.1; fill:none" points="1337.89,1423.18 1337.89,123.472 "/>
<polyline clip-path="url(#clip632)" style="stroke:#ffffff; stroke-linecap:round; stroke-linejoin:round; stroke-width:2; stroke-opacity:0.1; fill:none" points="1705.33,1423.18 1705.33,123.472 "/>
<polyline clip-path="url(#clip632)" style="stroke:#ffffff; stroke-linecap:round; stroke-linejoin:round; stroke-width:2; stroke-opacity:0.1; fill:none" points="2072.77,1423.18 2072.77,123.472 "/>
<polyline clip-path="url(#clip630)" style="stroke:#ffffff; stroke-linecap:round; stroke-linejoin:round; stroke-width:4; stroke-opacity:1; fill:none" points="249.542,1423.18 2352.76,1423.18 "/>
<polyline clip-path="url(#clip630)" style="stroke:#ffffff; stroke-linecap:round; stroke-linejoin:round; stroke-width:4; stroke-opacity:1; fill:none" points="603.017,1423.18 603.017,1404.28 "/>
<polyline clip-path="url(#clip630)" style="stroke:#ffffff; stroke-linecap:round; stroke-linejoin:round; stroke-width:4; stroke-opacity:1; fill:none" points="970.455,1423.18 970.455,1404.28 "/>
<polyline clip-path="url(#clip630)" style="stroke:#ffffff; stroke-linecap:round; stroke-linejoin:round; stroke-width:4; stroke-opacity:1; fill:none" points="1337.89,1423.18 1337.89,1404.28 "/>
<polyline clip-path="url(#clip630)" style="stroke:#ffffff; stroke-linecap:round; stroke-linejoin:round; stroke-width:4; stroke-opacity:1; fill:none" points="1705.33,1423.18 1705.33,1404.28 "/>
<polyline clip-path="url(#clip630)" style="stroke:#ffffff; stroke-linecap:round; stroke-linejoin:round; stroke-width:4; stroke-opacity:1; fill:none" points="2072.77,1423.18 2072.77,1404.28 "/>
<path clip-path="url(#clip630)" d="M565.321 1454.1 Q561.71 1454.1 559.881 1457.66 Q558.075 1461.2 558.075 1468.33 Q558.075 1475.44 559.881 1479.01 Q561.71 1482.55 565.321 1482.55 Q568.955 1482.55 570.76 1479.01 Q572.589 1475.44 572.589 1468.33 Q572.589 1461.2 570.76 1457.66 Q568.955 1454.1 565.321 1454.1 M565.321 1450.39 Q571.131 1450.39 574.186 1455 Q577.265 1459.58 577.265 1468.33 Q577.265 1477.06 574.186 1481.67 Q571.131 1486.25 565.321 1486.25 Q559.51 1486.25 556.432 1481.67 Q553.376 1477.06 553.376 1468.33 Q553.376 1459.58 556.432 1455 Q559.51 1450.39 565.321 1450.39 Z" fill="#ffffff" fill-rule="evenodd" fill-opacity="1" /><path clip-path="url(#clip630)" d="M585.483 1479.7 L590.367 1479.7 L590.367 1485.58 L585.483 1485.58 L585.483 1479.7 Z" fill="#ffffff" fill-rule="evenodd" fill-opacity="1" /><path clip-path="url(#clip630)" d="M610.552 1454.1 Q606.941 1454.1 605.112 1457.66 Q603.307 1461.2 603.307 1468.33 Q603.307 1475.44 605.112 1479.01 Q606.941 1482.55 610.552 1482.55 Q614.186 1482.55 615.992 1479.01 Q617.82 1475.44 617.82 1468.33 Q617.82 1461.2 615.992 1457.66 Q614.186 1454.1 610.552 1454.1 M610.552 1450.39 Q616.362 1450.39 619.418 1455 Q622.496 1459.58 622.496 1468.33 Q622.496 1477.06 619.418 1481.67 Q616.362 1486.25 610.552 1486.25 Q604.742 1486.25 601.663 1481.67 Q598.607 1477.06 598.607 1468.33 Q598.607 1459.58 601.663 1455 Q604.742 1450.39 610.552 1450.39 Z" fill="#ffffff" fill-rule="evenodd" fill-opacity="1" /><path clip-path="url(#clip630)" d="M640.714 1454.1 Q637.103 1454.1 635.274 1457.66 Q633.468 1461.2 633.468 1468.33 Q633.468 1475.44 635.274 1479.01 Q637.103 1482.55 640.714 1482.55 Q644.348 1482.55 646.154 1479.01 Q647.982 1475.44 647.982 1468.33 Q647.982 1461.2 646.154 1457.66 Q644.348 1454.1 640.714 1454.1 M640.714 1450.39 Q646.524 1450.39 649.579 1455 Q652.658 1459.58 652.658 1468.33 Q652.658 1477.06 649.579 1481.67 Q646.524 1486.25 640.714 1486.25 Q634.904 1486.25 631.825 1481.67 Q628.769 1477.06 628.769 1468.33 Q628.769 1459.58 631.825 1455 Q634.904 1450.39 640.714 1450.39 Z" fill="#ffffff" fill-rule="evenodd" fill-opacity="1" /><path clip-path="url(#clip630)" d="M933.256 1454.1 Q929.645 1454.1 927.816 1457.66 Q926.011 1461.2 926.011 1468.33 Q926.011 1475.44 927.816 1479.01 Q929.645 1482.55 933.256 1482.55 Q936.89 1482.55 938.696 1479.01 Q940.525 1475.44 940.525 1468.33 Q940.525 1461.2 938.696 1457.66 Q936.89 1454.1 933.256 1454.1 M933.256 1450.39 Q939.066 1450.39 942.122 1455 Q945.2 1459.58 945.2 1468.33 Q945.2 1477.06 942.122 1481.67 Q939.066 1486.25 933.256 1486.25 Q927.446 1486.25 924.367 1481.67 Q921.312 1477.06 921.312 1468.33 Q921.312 1459.58 924.367 1455 Q927.446 1450.39 933.256 1450.39 Z" fill="#ffffff" fill-rule="evenodd" fill-opacity="1" /><path clip-path="url(#clip630)" d="M953.418 1479.7 L958.302 1479.7 L958.302 1485.58 L953.418 1485.58 L953.418 1479.7 Z" fill="#ffffff" fill-rule="evenodd" fill-opacity="1" /><path clip-path="url(#clip630)" d="M972.515 1481.64 L988.834 1481.64 L988.834 1485.58 L966.89 1485.58 L966.89 1481.64 Q969.552 1478.89 974.135 1474.26 Q978.742 1469.61 979.923 1468.27 Q982.168 1465.74 983.047 1464.01 Q983.95 1462.25 983.95 1460.56 Q983.95 1457.8 982.006 1456.07 Q980.085 1454.33 976.983 1454.33 Q974.784 1454.33 972.33 1455.09 Q969.899 1455.86 967.122 1457.41 L967.122 1452.69 Q969.946 1451.55 972.399 1450.97 Q974.853 1450.39 976.89 1450.39 Q982.26 1450.39 985.455 1453.08 Q988.649 1455.77 988.649 1460.26 Q988.649 1462.39 987.839 1464.31 Q987.052 1466.2 984.946 1468.8 Q984.367 1469.47 981.265 1472.69 Q978.163 1475.88 972.515 1481.64 Z" fill="#ffffff" fill-rule="evenodd" fill-opacity="1" /><path clip-path="url(#clip630)" d="M998.696 1451.02 L1017.05 1451.02 L1017.05 1454.96 L1002.98 1454.96 L1002.98 1463.43 Q1004 1463.08 1005.01 1462.92 Q1006.03 1462.73 1007.05 1462.73 Q1012.84 1462.73 1016.22 1465.9 Q1019.6 1469.08 1019.6 1474.49 Q1019.6 1480.07 1016.13 1483.17 Q1012.65 1486.25 1006.33 1486.25 Q1004.16 1486.25 1001.89 1485.88 Q999.645 1485.51 997.237 1484.77 L997.237 1480.07 Q999.321 1481.2 1001.54 1481.76 Q1003.76 1482.32 1006.24 1482.32 Q1010.25 1482.32 1012.58 1480.21 Q1014.92 1478.1 1014.92 1474.49 Q1014.92 1470.88 1012.58 1468.77 Q1010.25 1466.67 1006.24 1466.67 Q1004.37 1466.67 1002.49 1467.08 Q1000.64 1467.5 998.696 1468.38 L998.696 1451.02 Z" fill="#ffffff" fill-rule="evenodd" fill-opacity="1" /><path clip-path="url(#clip630)" d="M1300.2 1454.1 Q1296.59 1454.1 1294.76 1457.66 Q1292.95 1461.2 1292.95 1468.33 Q1292.95 1475.44 1294.76 1479.01 Q1296.59 1482.55 1300.2 1482.55 Q1303.83 1482.55 1305.64 1479.01 Q1307.46 1475.44 1307.46 1468.33 Q1307.46 1461.2 1305.64 1457.66 Q1303.83 1454.1 1300.2 1454.1 M1300.2 1450.39 Q1306.01 1450.39 1309.06 1455 Q1312.14 1459.58 1312.14 1468.33 Q1312.14 1477.06 1309.06 1481.67 Q1306.01 1486.25 1300.2 1486.25 Q1294.39 1486.25 1291.31 1481.67 Q1288.25 1477.06 1288.25 1468.33 Q1288.25 1459.58 1291.31 1455 Q1294.39 1450.39 1300.2 1450.39 Z" fill="#ffffff" fill-rule="evenodd" fill-opacity="1" /><path clip-path="url(#clip630)" d="M1320.36 1479.7 L1325.24 1479.7 L1325.24 1485.58 L1320.36 1485.58 L1320.36 1479.7 Z" fill="#ffffff" fill-rule="evenodd" fill-opacity="1" /><path clip-path="url(#clip630)" d="M1335.47 1451.02 L1353.83 1451.02 L1353.83 1454.96 L1339.76 1454.96 L1339.76 1463.43 Q1340.77 1463.08 1341.79 1462.92 Q1342.81 1462.73 1343.83 1462.73 Q1349.62 1462.73 1353 1465.9 Q1356.38 1469.08 1356.38 1474.49 Q1356.38 1480.07 1352.9 1483.17 Q1349.43 1486.25 1343.11 1486.25 Q1340.94 1486.25 1338.67 1485.88 Q1336.42 1485.51 1334.02 1484.77 L1334.02 1480.07 Q1336.1 1481.2 1338.32 1481.76 Q1340.54 1482.32 1343.02 1482.32 Q1347.02 1482.32 1349.36 1480.21 Q1351.7 1478.1 1351.7 1474.49 Q1351.7 1470.88 1349.36 1468.77 Q1347.02 1466.67 1343.02 1466.67 Q1341.15 1466.67 1339.27 1467.08 Q1337.42 1467.5 1335.47 1468.38 L1335.47 1451.02 Z" fill="#ffffff" fill-rule="evenodd" fill-opacity="1" /><path clip-path="url(#clip630)" d="M1375.59 1454.1 Q1371.98 1454.1 1370.15 1457.66 Q1368.34 1461.2 1368.34 1468.33 Q1368.34 1475.44 1370.15 1479.01 Q1371.98 1482.55 1375.59 1482.55 Q1379.22 1482.55 1381.03 1479.01 Q1382.86 1475.44 1382.86 1468.33 Q1382.86 1461.2 1381.03 1457.66 Q1379.22 1454.1 1375.59 1454.1 M1375.59 1450.39 Q1381.4 1450.39 1384.45 1455 Q1387.53 1459.58 1387.53 1468.33 Q1387.53 1477.06 1384.45 1481.67 Q1381.4 1486.25 1375.59 1486.25 Q1369.78 1486.25 1366.7 1481.67 Q1363.64 1477.06 1363.64 1468.33 Q1363.64 1459.58 1366.7 1455 Q1369.78 1450.39 1375.59 1450.39 Z" fill="#ffffff" fill-rule="evenodd" fill-opacity="1" /><path clip-path="url(#clip630)" d="M1668.13 1454.1 Q1664.52 1454.1 1662.69 1457.66 Q1660.89 1461.2 1660.89 1468.33 Q1660.89 1475.44 1662.69 1479.01 Q1664.52 1482.55 1668.13 1482.55 Q1671.77 1482.55 1673.57 1479.01 Q1675.4 1475.44 1675.4 1468.33 Q1675.4 1461.2 1673.57 1457.66 Q1671.77 1454.1 1668.13 1454.1 M1668.13 1450.39 Q1673.94 1450.39 1677 1455 Q1680.08 1459.58 1680.08 1468.33 Q1680.08 1477.06 1677 1481.67 Q1673.94 1486.25 1668.13 1486.25 Q1662.32 1486.25 1659.24 1481.67 Q1656.19 1477.06 1656.19 1468.33 Q1656.19 1459.58 1659.24 1455 Q1662.32 1450.39 1668.13 1450.39 Z" fill="#ffffff" fill-rule="evenodd" fill-opacity="1" /><path clip-path="url(#clip630)" d="M1688.29 1479.7 L1693.18 1479.7 L1693.18 1485.58 L1688.29 1485.58 L1688.29 1479.7 Z" fill="#ffffff" fill-rule="evenodd" fill-opacity="1" /><path clip-path="url(#clip630)" d="M1702.18 1451.02 L1724.4 1451.02 L1724.4 1453.01 L1711.86 1485.58 L1706.97 1485.58 L1718.78 1454.96 L1702.18 1454.96 L1702.18 1451.02 Z" fill="#ffffff" fill-rule="evenodd" fill-opacity="1" /><path clip-path="url(#clip630)" d="M1733.57 1451.02 L1751.93 1451.02 L1751.93 1454.96 L1737.85 1454.96 L1737.85 1463.43 Q1738.87 1463.08 1739.89 1462.92 Q1740.91 1462.73 1741.93 1462.73 Q1747.71 1462.73 1751.09 1465.9 Q1754.47 1469.08 1754.47 1474.49 Q1754.47 1480.07 1751 1483.17 Q1747.53 1486.25 1741.21 1486.25 Q1739.03 1486.25 1736.77 1485.88 Q1734.52 1485.51 1732.11 1484.77 L1732.11 1480.07 Q1734.2 1481.2 1736.42 1481.76 Q1738.64 1482.32 1741.12 1482.32 Q1745.12 1482.32 1747.46 1480.21 Q1749.8 1478.1 1749.8 1474.49 Q1749.8 1470.88 1747.46 1468.77 Q1745.12 1466.67 1741.12 1466.67 Q1739.24 1466.67 1737.37 1467.08 Q1735.52 1467.5 1733.57 1468.38 L1733.57 1451.02 Z" fill="#ffffff" fill-rule="evenodd" fill-opacity="1" /><path clip-path="url(#clip630)" d="M2024.84 1481.64 L2032.48 1481.64 L2032.48 1455.28 L2024.17 1456.95 L2024.17 1452.69 L2032.43 1451.02 L2037.11 1451.02 L2037.11 1481.64 L2044.75 1481.64 L2044.75 1485.58 L2024.84 1485.58 L2024.84 1481.64 Z" fill="#ffffff" fill-rule="evenodd" fill-opacity="1" /><path clip-path="url(#clip630)" d="M2054.19 1479.7 L2059.08 1479.7 L2059.08 1485.58 L2054.19 1485.58 L2054.19 1479.7 Z" fill="#ffffff" fill-rule="evenodd" fill-opacity="1" /><path clip-path="url(#clip630)" d="M2079.26 1454.1 Q2075.65 1454.1 2073.82 1457.66 Q2072.02 1461.2 2072.02 1468.33 Q2072.02 1475.44 2073.82 1479.01 Q2075.65 1482.55 2079.26 1482.55 Q2082.9 1482.55 2084.7 1479.01 Q2086.53 1475.44 2086.53 1468.33 Q2086.53 1461.2 2084.7 1457.66 Q2082.9 1454.1 2079.26 1454.1 M2079.26 1450.39 Q2085.07 1450.39 2088.13 1455 Q2091.21 1459.58 2091.21 1468.33 Q2091.21 1477.06 2088.13 1481.67 Q2085.07 1486.25 2079.26 1486.25 Q2073.45 1486.25 2070.37 1481.67 Q2067.32 1477.06 2067.32 1468.33 Q2067.32 1459.58 2070.37 1455 Q2073.45 1450.39 2079.26 1450.39 Z" fill="#ffffff" fill-rule="evenodd" fill-opacity="1" /><path clip-path="url(#clip630)" d="M2109.42 1454.1 Q2105.81 1454.1 2103.98 1457.66 Q2102.18 1461.2 2102.18 1468.33 Q2102.18 1475.44 2103.98 1479.01 Q2105.81 1482.55 2109.42 1482.55 Q2113.06 1482.55 2114.86 1479.01 Q2116.69 1475.44 2116.69 1468.33 Q2116.69 1461.2 2114.86 1457.66 Q2113.06 1454.1 2109.42 1454.1 M2109.42 1450.39 Q2115.23 1450.39 2118.29 1455 Q2121.37 1459.58 2121.37 1468.33 Q2121.37 1477.06 2118.29 1481.67 Q2115.23 1486.25 2109.42 1486.25 Q2103.61 1486.25 2100.53 1481.67 Q2097.48 1477.06 2097.48 1468.33 Q2097.48 1459.58 2100.53 1455 Q2103.61 1450.39 2109.42 1450.39 Z" fill="#ffffff" fill-rule="evenodd" fill-opacity="1" /><path clip-path="url(#clip630)" d="M1231.78 1568.04 L1213.64 1520.52 L1220.35 1520.52 L1235.41 1560.53 L1250.49 1520.52 L1257.18 1520.52 L1239.07 1568.04 L1231.78 1568.04 Z" fill="#ffffff" fill-rule="evenodd" fill-opacity="1" /><path clip-path="url(#clip630)" d="M1275 1550.12 Q1267.9 1550.12 1265.17 1551.75 Q1262.43 1553.37 1262.43 1557.29 Q1262.43 1560.4 1264.47 1562.25 Q1266.54 1564.07 1270.07 1564.07 Q1274.94 1564.07 1277.87 1560.63 Q1280.83 1557.16 1280.83 1551.43 L1280.83 1550.12 L1275 1550.12 M1286.68 1547.71 L1286.68 1568.04 L1280.83 1568.04 L1280.83 1562.63 Q1278.82 1565.88 1275.83 1567.44 Q1272.84 1568.97 1268.51 1568.97 Q1263.03 1568.97 1259.79 1565.91 Q1256.57 1562.82 1256.57 1557.67 Q1256.57 1551.65 1260.58 1548.6 Q1264.63 1545.54 1272.61 1545.54 L1280.83 1545.54 L1280.83 1544.97 Q1280.83 1540.93 1278.15 1538.73 Q1275.51 1536.5 1270.7 1536.5 Q1267.65 1536.5 1264.75 1537.23 Q1261.86 1537.97 1259.18 1539.43 L1259.18 1534.02 Q1262.4 1532.78 1265.42 1532.17 Q1268.45 1531.54 1271.31 1531.54 Q1279.04 1531.54 1282.86 1535.55 Q1286.68 1539.56 1286.68 1547.71 Z" fill="#ffffff" fill-rule="evenodd" fill-opacity="1" /><path clip-path="url(#clip630)" d="M1298.75 1518.52 L1304.6 1518.52 L1304.6 1568.04 L1298.75 1568.04 L1298.75 1518.52 Z" fill="#ffffff" fill-rule="evenodd" fill-opacity="1" /><path clip-path="url(#clip630)" d="M1316.25 1553.98 L1316.25 1532.4 L1322.11 1532.4 L1322.11 1553.75 Q1322.11 1558.81 1324.08 1561.36 Q1326.05 1563.87 1330 1563.87 Q1334.74 1563.87 1337.48 1560.85 Q1340.25 1557.83 1340.25 1552.61 L1340.25 1532.4 L1346.11 1532.4 L1346.11 1568.04 L1340.25 1568.04 L1340.25 1562.57 Q1338.12 1565.82 1335.29 1567.41 Q1332.48 1568.97 1328.76 1568.97 Q1322.62 1568.97 1319.43 1565.15 Q1316.25 1561.33 1316.25 1553.98 M1330.99 1531.54 L1330.99 1531.54 Z" fill="#ffffff" fill-rule="evenodd" fill-opacity="1" /><path clip-path="url(#clip630)" d="M1388.66 1548.76 L1388.66 1551.62 L1361.73 1551.62 Q1362.12 1557.67 1365.36 1560.85 Q1368.64 1564 1374.47 1564 Q1377.84 1564 1380.99 1563.17 Q1384.17 1562.35 1387.29 1560.69 L1387.29 1566.23 Q1384.14 1567.57 1380.83 1568.27 Q1377.52 1568.97 1374.12 1568.97 Q1365.59 1568.97 1360.59 1564 Q1355.62 1559.04 1355.62 1550.57 Q1355.62 1541.82 1360.33 1536.69 Q1365.08 1531.54 1373.1 1531.54 Q1380.29 1531.54 1384.46 1536.18 Q1388.66 1540.8 1388.66 1548.76 M1382.81 1547.04 Q1382.74 1542.23 1380.1 1539.37 Q1377.49 1536.5 1373.16 1536.5 Q1368.26 1536.5 1365.3 1539.27 Q1362.37 1542.04 1361.93 1547.07 L1382.81 1547.04 Z" fill="#ffffff" fill-rule="evenodd" fill-opacity="1" /><polyline clip-path="url(#clip632)" style="stroke:#ffffff; stroke-linecap:round; stroke-linejoin:round; stroke-width:2; stroke-opacity:0.1; fill:none" points="249.542,1386.4 2352.76,1386.4 "/>
<polyline clip-path="url(#clip632)" style="stroke:#ffffff; stroke-linecap:round; stroke-linejoin:round; stroke-width:2; stroke-opacity:0.1; fill:none" points="249.542,1105.69 2352.76,1105.69 "/>
<polyline clip-path="url(#clip632)" style="stroke:#ffffff; stroke-linecap:round; stroke-linejoin:round; stroke-width:2; stroke-opacity:0.1; fill:none" points="249.542,824.977 2352.76,824.977 "/>
<polyline clip-path="url(#clip632)" style="stroke:#ffffff; stroke-linecap:round; stroke-linejoin:round; stroke-width:2; stroke-opacity:0.1; fill:none" points="249.542,544.267 2352.76,544.267 "/>
<polyline clip-path="url(#clip632)" style="stroke:#ffffff; stroke-linecap:round; stroke-linejoin:round; stroke-width:2; stroke-opacity:0.1; fill:none" points="249.542,263.557 2352.76,263.557 "/>
<polyline clip-path="url(#clip630)" style="stroke:#ffffff; stroke-linecap:round; stroke-linejoin:round; stroke-width:4; stroke-opacity:1; fill:none" points="249.542,1423.18 249.542,123.472 "/>
<polyline clip-path="url(#clip630)" style="stroke:#ffffff; stroke-linecap:round; stroke-linejoin:round; stroke-width:4; stroke-opacity:1; fill:none" points="249.542,1386.4 268.44,1386.4 "/>
<polyline clip-path="url(#clip630)" style="stroke:#ffffff; stroke-linecap:round; stroke-linejoin:round; stroke-width:4; stroke-opacity:1; fill:none" points="249.542,1105.69 268.44,1105.69 "/>
<polyline clip-path="url(#clip630)" style="stroke:#ffffff; stroke-linecap:round; stroke-linejoin:round; stroke-width:4; stroke-opacity:1; fill:none" points="249.542,824.977 268.44,824.977 "/>
<polyline clip-path="url(#clip630)" style="stroke:#ffffff; stroke-linecap:round; stroke-linejoin:round; stroke-width:4; stroke-opacity:1; fill:none" points="249.542,544.267 268.44,544.267 "/>
<polyline clip-path="url(#clip630)" style="stroke:#ffffff; stroke-linecap:round; stroke-linejoin:round; stroke-width:4; stroke-opacity:1; fill:none" points="249.542,263.557 268.44,263.557 "/>
<path clip-path="url(#clip630)" d="M126.205 1372.19 Q122.593 1372.19 120.765 1375.76 Q118.959 1379.3 118.959 1386.43 Q118.959 1393.54 120.765 1397.1 Q122.593 1400.64 126.205 1400.64 Q129.839 1400.64 131.644 1397.1 Q133.473 1393.54 133.473 1386.43 Q133.473 1379.3 131.644 1375.76 Q129.839 1372.19 126.205 1372.19 M126.205 1368.49 Q132.015 1368.49 135.07 1373.1 Q138.149 1377.68 138.149 1386.43 Q138.149 1395.16 135.07 1399.76 Q132.015 1404.35 126.205 1404.35 Q120.394 1404.35 117.316 1399.76 Q114.26 1395.16 114.26 1386.43 Q114.26 1377.68 117.316 1373.1 Q120.394 1368.49 126.205 1368.49 Z" fill="#ffffff" fill-rule="evenodd" fill-opacity="1" /><path clip-path="url(#clip630)" d="M146.366 1397.8 L151.251 1397.8 L151.251 1403.68 L146.366 1403.68 L146.366 1397.8 Z" fill="#ffffff" fill-rule="evenodd" fill-opacity="1" /><path clip-path="url(#clip630)" d="M171.436 1372.19 Q167.825 1372.19 165.996 1375.76 Q164.19 1379.3 164.19 1386.43 Q164.19 1393.54 165.996 1397.1 Q167.825 1400.64 171.436 1400.64 Q175.07 1400.64 176.876 1397.1 Q178.704 1393.54 178.704 1386.43 Q178.704 1379.3 176.876 1375.76 Q175.07 1372.19 171.436 1372.19 M171.436 1368.49 Q177.246 1368.49 180.301 1373.1 Q183.38 1377.68 183.38 1386.43 Q183.38 1395.16 180.301 1399.76 Q177.246 1404.35 171.436 1404.35 Q165.626 1404.35 162.547 1399.76 Q159.491 1395.16 159.491 1386.43 Q159.491 1377.68 162.547 1373.1 Q165.626 1368.49 171.436 1368.49 Z" fill="#ffffff" fill-rule="evenodd" fill-opacity="1" /><path clip-path="url(#clip630)" d="M201.598 1372.19 Q197.987 1372.19 196.158 1375.76 Q194.352 1379.3 194.352 1386.43 Q194.352 1393.54 196.158 1397.1 Q197.987 1400.64 201.598 1400.64 Q205.232 1400.64 207.037 1397.1 Q208.866 1393.54 208.866 1386.43 Q208.866 1379.3 207.037 1375.76 Q205.232 1372.19 201.598 1372.19 M201.598 1368.49 Q207.408 1368.49 210.463 1373.1 Q213.542 1377.68 213.542 1386.43 Q213.542 1395.16 210.463 1399.76 Q207.408 1404.35 201.598 1404.35 Q195.787 1404.35 192.709 1399.76 Q189.653 1395.16 189.653 1386.43 Q189.653 1377.68 192.709 1373.1 Q195.787 1368.49 201.598 1368.49 Z" fill="#ffffff" fill-rule="evenodd" fill-opacity="1" /><path clip-path="url(#clip630)" d="M127.2 1091.48 Q123.589 1091.48 121.76 1095.05 Q119.955 1098.59 119.955 1105.72 Q119.955 1112.83 121.76 1116.39 Q123.589 1119.93 127.2 1119.93 Q130.834 1119.93 132.64 1116.39 Q134.468 1112.83 134.468 1105.72 Q134.468 1098.59 132.64 1095.05 Q130.834 1091.48 127.2 1091.48 M127.2 1087.78 Q133.01 1087.78 136.066 1092.39 Q139.144 1096.97 139.144 1105.72 Q139.144 1114.45 136.066 1119.05 Q133.01 1123.64 127.2 1123.64 Q121.39 1123.64 118.311 1119.05 Q115.256 1114.45 115.256 1105.72 Q115.256 1096.97 118.311 1092.39 Q121.39 1087.78 127.2 1087.78 Z" fill="#ffffff" fill-rule="evenodd" fill-opacity="1" /><path clip-path="url(#clip630)" d="M147.362 1117.09 L152.246 1117.09 L152.246 1122.97 L147.362 1122.97 L147.362 1117.09 Z" fill="#ffffff" fill-rule="evenodd" fill-opacity="1" /><path clip-path="url(#clip630)" d="M166.459 1119.03 L182.778 1119.03 L182.778 1122.97 L160.834 1122.97 L160.834 1119.03 Q163.496 1116.28 168.079 1111.65 Q172.686 1106.99 173.866 1105.65 Q176.112 1103.13 176.991 1101.39 Q177.894 1099.63 177.894 1097.94 Q177.894 1095.19 175.95 1093.45 Q174.028 1091.72 170.927 1091.72 Q168.727 1091.72 166.274 1092.48 Q163.843 1093.24 161.065 1094.79 L161.065 1090.07 Q163.89 1088.94 166.343 1088.36 Q168.797 1087.78 170.834 1087.78 Q176.204 1087.78 179.399 1090.47 Q182.593 1093.15 182.593 1097.64 Q182.593 1099.77 181.783 1101.69 Q180.996 1103.59 178.889 1106.18 Q178.311 1106.86 175.209 1110.07 Q172.107 1113.27 166.459 1119.03 Z" fill="#ffffff" fill-rule="evenodd" fill-opacity="1" /><path clip-path="url(#clip630)" d="M192.639 1088.41 L210.996 1088.41 L210.996 1092.34 L196.922 1092.34 L196.922 1100.81 Q197.94 1100.47 198.959 1100.3 Q199.977 1100.12 200.996 1100.12 Q206.783 1100.12 210.162 1103.29 Q213.542 1106.46 213.542 1111.88 Q213.542 1117.46 210.07 1120.56 Q206.598 1123.64 200.278 1123.64 Q198.102 1123.64 195.834 1123.27 Q193.588 1122.9 191.181 1122.16 L191.181 1117.46 Q193.264 1118.59 195.487 1119.15 Q197.709 1119.7 200.186 1119.7 Q204.19 1119.7 206.528 1117.6 Q208.866 1115.49 208.866 1111.88 Q208.866 1108.27 206.528 1106.16 Q204.19 1104.05 200.186 1104.05 Q198.311 1104.05 196.436 1104.47 Q194.584 1104.89 192.639 1105.77 L192.639 1088.41 Z" fill="#ffffff" fill-rule="evenodd" fill-opacity="1" /><path clip-path="url(#clip630)" d="M126.205 810.775 Q122.593 810.775 120.765 814.34 Q118.959 817.882 118.959 825.011 Q118.959 832.118 120.765 835.683 Q122.593 839.224 126.205 839.224 Q129.839 839.224 131.644 835.683 Q133.473 832.118 133.473 825.011 Q133.473 817.882 131.644 814.34 Q129.839 810.775 126.205 810.775 M126.205 807.072 Q132.015 807.072 135.07 811.678 Q138.149 816.261 138.149 825.011 Q138.149 833.738 135.07 838.345 Q132.015 842.928 126.205 842.928 Q120.394 842.928 117.316 838.345 Q114.26 833.738 114.26 825.011 Q114.26 816.261 117.316 811.678 Q120.394 807.072 126.205 807.072 Z" fill="#ffffff" fill-rule="evenodd" fill-opacity="1" /><path clip-path="url(#clip630)" d="M146.366 836.377 L151.251 836.377 L151.251 842.257 L146.366 842.257 L146.366 836.377 Z" fill="#ffffff" fill-rule="evenodd" fill-opacity="1" /><path clip-path="url(#clip630)" d="M161.482 807.697 L179.839 807.697 L179.839 811.632 L165.765 811.632 L165.765 820.104 Q166.783 819.757 167.802 819.595 Q168.82 819.409 169.839 819.409 Q175.626 819.409 179.005 822.581 Q182.385 825.752 182.385 831.169 Q182.385 836.747 178.913 839.849 Q175.44 842.928 169.121 842.928 Q166.945 842.928 164.677 842.557 Q162.431 842.187 160.024 841.446 L160.024 836.747 Q162.107 837.882 164.329 838.437 Q166.552 838.993 169.028 838.993 Q173.033 838.993 175.371 836.886 Q177.709 834.78 177.709 831.169 Q177.709 827.558 175.371 825.451 Q173.033 823.345 169.028 823.345 Q167.153 823.345 165.278 823.761 Q163.427 824.178 161.482 825.058 L161.482 807.697 Z" fill="#ffffff" fill-rule="evenodd" fill-opacity="1" /><path clip-path="url(#clip630)" d="M201.598 810.775 Q197.987 810.775 196.158 814.34 Q194.352 817.882 194.352 825.011 Q194.352 832.118 196.158 835.683 Q197.987 839.224 201.598 839.224 Q205.232 839.224 207.037 835.683 Q208.866 832.118 208.866 825.011 Q208.866 817.882 207.037 814.34 Q205.232 810.775 201.598 810.775 M201.598 807.072 Q207.408 807.072 210.463 811.678 Q213.542 816.261 213.542 825.011 Q213.542 833.738 210.463 838.345 Q207.408 842.928 201.598 842.928 Q195.787 842.928 192.709 838.345 Q189.653 833.738 189.653 825.011 Q189.653 816.261 192.709 811.678 Q195.787 807.072 201.598 807.072 Z" fill="#ffffff" fill-rule="evenodd" fill-opacity="1" /><path clip-path="url(#clip630)" d="M127.2 530.066 Q123.589 530.066 121.76 533.63 Q119.955 537.172 119.955 544.302 Q119.955 551.408 121.76 554.973 Q123.589 558.515 127.2 558.515 Q130.834 558.515 132.64 554.973 Q134.468 551.408 134.468 544.302 Q134.468 537.172 132.64 533.63 Q130.834 530.066 127.2 530.066 M127.2 526.362 Q133.01 526.362 136.066 530.968 Q139.144 535.552 139.144 544.302 Q139.144 553.029 136.066 557.635 Q133.01 562.218 127.2 562.218 Q121.39 562.218 118.311 557.635 Q115.256 553.029 115.256 544.302 Q115.256 535.552 118.311 530.968 Q121.39 526.362 127.2 526.362 Z" fill="#ffffff" fill-rule="evenodd" fill-opacity="1" /><path clip-path="url(#clip630)" d="M147.362 555.667 L152.246 555.667 L152.246 561.547 L147.362 561.547 L147.362 555.667 Z" fill="#ffffff" fill-rule="evenodd" fill-opacity="1" /><path clip-path="url(#clip630)" d="M161.251 526.987 L183.473 526.987 L183.473 528.978 L170.927 561.547 L166.042 561.547 L177.848 530.922 L161.251 530.922 L161.251 526.987 Z" fill="#ffffff" fill-rule="evenodd" fill-opacity="1" /><path clip-path="url(#clip630)" d="M192.639 526.987 L210.996 526.987 L210.996 530.922 L196.922 530.922 L196.922 539.394 Q197.94 539.047 198.959 538.885 Q199.977 538.7 200.996 538.7 Q206.783 538.7 210.162 541.871 Q213.542 545.042 213.542 550.459 Q213.542 556.038 210.07 559.14 Q206.598 562.218 200.278 562.218 Q198.102 562.218 195.834 561.848 Q193.588 561.478 191.181 560.737 L191.181 556.038 Q193.264 557.172 195.487 557.728 Q197.709 558.283 200.186 558.283 Q204.19 558.283 206.528 556.177 Q208.866 554.07 208.866 550.459 Q208.866 546.848 206.528 544.742 Q204.19 542.635 200.186 542.635 Q198.311 542.635 196.436 543.052 Q194.584 543.468 192.639 544.348 L192.639 526.987 Z" fill="#ffffff" fill-rule="evenodd" fill-opacity="1" /><path clip-path="url(#clip630)" d="M117.015 276.902 L124.654 276.902 L124.654 250.537 L116.343 252.203 L116.343 247.944 L124.607 246.277 L129.283 246.277 L129.283 276.902 L136.922 276.902 L136.922 280.837 L117.015 280.837 L117.015 276.902 Z" fill="#ffffff" fill-rule="evenodd" fill-opacity="1" /><path clip-path="url(#clip630)" d="M146.366 274.958 L151.251 274.958 L151.251 280.837 L146.366 280.837 L146.366 274.958 Z" fill="#ffffff" fill-rule="evenodd" fill-opacity="1" /><path clip-path="url(#clip630)" d="M171.436 249.356 Q167.825 249.356 165.996 252.921 Q164.19 256.463 164.19 263.592 Q164.19 270.699 165.996 274.263 Q167.825 277.805 171.436 277.805 Q175.07 277.805 176.876 274.263 Q178.704 270.699 178.704 263.592 Q178.704 256.463 176.876 252.921 Q175.07 249.356 171.436 249.356 M171.436 245.652 Q177.246 245.652 180.301 250.259 Q183.38 254.842 183.38 263.592 Q183.38 272.319 180.301 276.925 Q177.246 281.509 171.436 281.509 Q165.626 281.509 162.547 276.925 Q159.491 272.319 159.491 263.592 Q159.491 254.842 162.547 250.259 Q165.626 245.652 171.436 245.652 Z" fill="#ffffff" fill-rule="evenodd" fill-opacity="1" /><path clip-path="url(#clip630)" d="M201.598 249.356 Q197.987 249.356 196.158 252.921 Q194.352 256.463 194.352 263.592 Q194.352 270.699 196.158 274.263 Q197.987 277.805 201.598 277.805 Q205.232 277.805 207.037 274.263 Q208.866 270.699 208.866 263.592 Q208.866 256.463 207.037 252.921 Q205.232 249.356 201.598 249.356 M201.598 245.652 Q207.408 245.652 210.463 250.259 Q213.542 254.842 213.542 263.592 Q213.542 272.319 210.463 276.925 Q207.408 281.509 201.598 281.509 Q195.787 281.509 192.709 276.925 Q189.653 272.319 189.653 263.592 Q189.653 254.842 192.709 250.259 Q195.787 245.652 201.598 245.652 Z" fill="#ffffff" fill-rule="evenodd" fill-opacity="1" /><path clip-path="url(#clip630)" d="M21.7677 935.015 L39.6235 935.015 L39.6235 926.93 Q39.6235 922.443 37.3 919.992 Q34.9765 917.541 30.6797 917.541 Q26.4147 917.541 24.0912 919.992 Q21.7677 922.443 21.7677 926.93 L21.7677 935.015 M16.4842 941.444 L16.4842 926.93 Q16.4842 918.942 20.1126 914.867 Q23.7092 910.762 30.6797 910.762 Q37.7138 910.762 41.3104 914.867 Q44.907 918.942 44.907 926.93 L44.907 935.015 L64.0042 935.015 L64.0042 941.444 L16.4842 941.444 Z" fill="#ffffff" fill-rule="evenodd" fill-opacity="1" /><path clip-path="url(#clip630)" d="M33.8307 882.88 Q33.2578 883.866 33.0032 885.044 Q32.7167 886.19 32.7167 887.59 Q32.7167 892.556 35.9632 895.229 Q39.1779 897.871 45.2253 897.871 L64.0042 897.871 L64.0042 903.759 L28.3562 903.759 L28.3562 897.871 L33.8944 897.871 Q30.6479 896.025 29.0883 893.065 Q27.4968 890.105 27.4968 885.872 Q27.4968 885.267 27.5923 884.535 Q27.656 883.803 27.8151 882.912 L33.8307 882.88 Z" fill="#ffffff" fill-rule="evenodd" fill-opacity="1" /><path clip-path="url(#clip630)" d="M32.4621 864.356 Q32.4621 869.066 36.1542 871.803 Q39.8145 874.541 46.212 874.541 Q52.6095 874.541 56.3017 871.835 Q59.9619 869.098 59.9619 864.356 Q59.9619 859.677 56.2698 856.94 Q52.5777 854.202 46.212 854.202 Q39.8781 854.202 36.186 856.94 Q32.4621 859.677 32.4621 864.356 M27.4968 864.356 Q27.4968 856.717 32.4621 852.356 Q37.4273 847.996 46.212 847.996 Q54.9649 847.996 59.9619 852.356 Q64.9272 856.717 64.9272 864.356 Q64.9272 872.026 59.9619 876.387 Q54.9649 880.715 46.212 880.715 Q37.4273 880.715 32.4621 876.387 Q27.4968 872.026 27.4968 864.356 Z" fill="#ffffff" fill-rule="evenodd" fill-opacity="1" /><path clip-path="url(#clip630)" d="M46.212 812.698 Q39.7508 812.698 36.0905 815.371 Q32.3984 818.013 32.3984 822.66 Q32.3984 827.307 36.0905 829.981 Q39.7508 832.623 46.212 832.623 Q52.6732 832.623 56.3653 829.981 Q60.0256 827.307 60.0256 822.66 Q60.0256 818.013 56.3653 815.371 Q52.6732 812.698 46.212 812.698 M33.7671 832.623 Q30.5842 830.776 29.0564 827.976 Q27.4968 825.143 27.4968 821.228 Q27.4968 814.735 32.6531 810.693 Q37.8093 806.619 46.212 806.619 Q54.6147 806.619 59.771 810.693 Q64.9272 814.735 64.9272 821.228 Q64.9272 825.143 63.3994 827.976 Q61.8398 830.776 58.657 832.623 L64.0042 832.623 L64.0042 838.511 L14.479 838.511 L14.479 832.623 L33.7671 832.623 Z" fill="#ffffff" fill-rule="evenodd" fill-opacity="1" /><path clip-path="url(#clip630)" d="M46.0847 780.71 Q46.0847 787.808 47.7079 790.545 Q49.3312 793.282 53.2461 793.282 Q56.3653 793.282 58.2114 791.245 Q60.0256 789.177 60.0256 785.644 Q60.0256 780.774 56.5881 777.846 Q53.1188 774.886 47.3897 774.886 L46.0847 774.886 L46.0847 780.71 M43.6657 769.029 L64.0042 769.029 L64.0042 774.886 L58.5933 774.886 Q61.8398 776.891 63.3994 779.883 Q64.9272 782.875 64.9272 787.203 Q64.9272 792.678 61.8716 795.924 Q58.7843 799.139 53.6281 799.139 Q47.6125 799.139 44.5569 795.129 Q41.5014 791.086 41.5014 783.097 L41.5014 774.886 L40.9285 774.886 Q36.8862 774.886 34.6901 777.559 Q32.4621 780.201 32.4621 785.007 Q32.4621 788.063 33.1941 790.959 Q33.9262 793.855 35.3903 796.529 L29.9795 796.529 Q28.7381 793.314 28.1334 790.291 Q27.4968 787.267 27.4968 784.402 Q27.4968 776.668 31.5072 772.849 Q35.5176 769.029 43.6657 769.029 Z" fill="#ffffff" fill-rule="evenodd" fill-opacity="1" /><path clip-path="url(#clip630)" d="M46.212 731.376 Q39.7508 731.376 36.0905 734.05 Q32.3984 736.691 32.3984 741.338 Q32.3984 745.985 36.0905 748.659 Q39.7508 751.301 46.212 751.301 Q52.6732 751.301 56.3653 748.659 Q60.0256 745.985 60.0256 741.338 Q60.0256 736.691 56.3653 734.05 Q52.6732 731.376 46.212 731.376 M33.7671 751.301 Q30.5842 749.455 29.0564 746.654 Q27.4968 743.821 27.4968 739.906 Q27.4968 733.413 32.6531 729.371 Q37.8093 725.297 46.212 725.297 Q54.6147 725.297 59.771 729.371 Q64.9272 733.413 64.9272 739.906 Q64.9272 743.821 63.3994 746.654 Q61.8398 749.455 58.657 751.301 L64.0042 751.301 L64.0042 757.189 L14.479 757.189 L14.479 751.301 L33.7671 751.301 Z" fill="#ffffff" fill-rule="evenodd" fill-opacity="1" /><path clip-path="url(#clip630)" d="M28.3562 715.589 L28.3562 709.733 L64.0042 709.733 L64.0042 715.589 L28.3562 715.589 M14.479 715.589 L14.479 709.733 L21.895 709.733 L21.895 715.589 L14.479 715.589 Z" fill="#ffffff" fill-rule="evenodd" fill-opacity="1" /><path clip-path="url(#clip630)" d="M14.479 697.479 L14.479 691.622 L64.0042 691.622 L64.0042 697.479 L14.479 697.479 Z" fill="#ffffff" fill-rule="evenodd" fill-opacity="1" /><path clip-path="url(#clip630)" d="M28.3562 679.368 L28.3562 673.512 L64.0042 673.512 L64.0042 679.368 L28.3562 679.368 M14.479 679.368 L14.479 673.512 L21.895 673.512 L21.895 679.368 L14.479 679.368 Z" fill="#ffffff" fill-rule="evenodd" fill-opacity="1" /><path clip-path="url(#clip630)" d="M18.2347 655.465 L28.3562 655.465 L28.3562 643.402 L32.9077 643.402 L32.9077 655.465 L52.2594 655.465 Q56.6199 655.465 57.8613 654.287 Q59.1026 653.078 59.1026 649.418 L59.1026 643.402 L64.0042 643.402 L64.0042 649.418 Q64.0042 656.197 61.4897 658.775 Q58.9434 661.353 52.2594 661.353 L32.9077 661.353 L32.9077 665.65 L28.3562 665.65 L28.3562 661.353 L18.2347 661.353 L18.2347 655.465 Z" fill="#ffffff" fill-rule="evenodd" fill-opacity="1" /><path clip-path="url(#clip630)" d="M67.3143 620.867 Q73.68 623.35 75.6216 625.705 Q77.5631 628.061 77.5631 632.007 L77.5631 636.686 L72.6615 636.686 L72.6615 633.249 Q72.6615 630.83 71.5157 629.493 Q70.3699 628.156 66.1048 626.533 L63.4312 625.482 L28.3562 639.901 L28.3562 633.694 L56.238 622.554 L28.3562 611.414 L28.3562 605.208 L67.3143 620.867 Z" fill="#ffffff" fill-rule="evenodd" fill-opacity="1" /><path clip-path="url(#clip630)" d="M1143.04 18.8205 L1143.04 41.5461 L1153.33 41.5461 Q1159.04 41.5461 1162.16 38.5889 Q1165.28 35.6318 1165.28 30.163 Q1165.28 24.7348 1162.16 21.7777 Q1159.04 18.8205 1153.33 18.8205 L1143.04 18.8205 M1134.86 12.096 L1153.33 12.096 Q1163.5 12.096 1168.68 16.714 Q1173.91 21.2916 1173.91 30.163 Q1173.91 39.1155 1168.68 43.6931 Q1163.5 48.2706 1153.33 48.2706 L1143.04 48.2706 L1143.04 72.576 L1134.86 72.576 L1134.86 12.096 Z" fill="#ffffff" fill-rule="evenodd" fill-opacity="1" /><path clip-path="url(#clip630)" d="M1193.07 18.8205 L1193.07 65.8515 L1202.96 65.8515 Q1215.47 65.8515 1221.27 60.1802 Q1227.1 54.509 1227.1 42.2752 Q1227.1 30.1225 1221.27 24.4918 Q1215.47 18.8205 1202.96 18.8205 L1193.07 18.8205 M1184.89 12.096 L1201.7 12.096 Q1219.28 12.096 1227.5 19.4281 Q1235.73 26.7198 1235.73 42.2752 Q1235.73 57.9117 1227.46 65.2439 Q1219.2 72.576 1201.7 72.576 L1184.89 72.576 L1184.89 12.096 Z" fill="#ffffff" fill-rule="evenodd" fill-opacity="1" /><path clip-path="url(#clip630)" d="M1248.77 12.096 L1283.53 12.096 L1283.53 18.9825 L1256.95 18.9825 L1256.95 36.8065 L1280.93 36.8065 L1280.93 43.6931 L1256.95 43.6931 L1256.95 72.576 L1248.77 72.576 L1248.77 12.096 Z" fill="#ffffff" fill-rule="evenodd" fill-opacity="1" /><path clip-path="url(#clip630)" d="M1340.12 32.4315 Q1334.12 32.4315 1330.64 37.1306 Q1327.16 41.7891 1327.16 49.9314 Q1327.16 58.0738 1330.6 62.7728 Q1334.08 67.4314 1340.12 67.4314 Q1346.07 67.4314 1349.56 62.7323 Q1353.04 58.0333 1353.04 49.9314 Q1353.04 41.8701 1349.56 37.1711 Q1346.07 32.4315 1340.12 32.4315 M1340.12 26.1121 Q1349.84 26.1121 1355.39 32.4315 Q1360.94 38.7509 1360.94 49.9314 Q1360.94 61.0714 1355.39 67.4314 Q1349.84 73.7508 1340.12 73.7508 Q1330.36 73.7508 1324.81 67.4314 Q1319.3 61.0714 1319.3 49.9314 Q1319.3 38.7509 1324.81 32.4315 Q1330.36 26.1121 1340.12 26.1121 Z" fill="#ffffff" fill-rule="evenodd" fill-opacity="1" /><path clip-path="url(#clip630)" d="M1396.26 9.54393 L1396.26 15.7418 L1389.13 15.7418 Q1385.12 15.7418 1383.54 17.3622 Q1382.01 18.9825 1382.01 23.1955 L1382.01 27.2059 L1394.28 27.2059 L1394.28 32.9987 L1382.01 32.9987 L1382.01 72.576 L1374.51 72.576 L1374.51 32.9987 L1367.38 32.9987 L1367.38 27.2059 L1374.51 27.2059 L1374.51 24.0462 Q1374.51 16.471 1378.04 13.0277 Q1381.56 9.54393 1389.22 9.54393 L1396.26 9.54393 Z" fill="#ffffff" fill-rule="evenodd" fill-opacity="1" /><path clip-path="url(#clip630)" d="M1466.59 27.2059 L1450.18 49.2833 L1467.44 72.576 L1458.65 72.576 L1445.44 54.752 L1432.24 72.576 L1423.45 72.576 L1441.07 48.8377 L1424.94 27.2059 L1433.74 27.2059 L1445.77 43.369 L1457.8 27.2059 L1466.59 27.2059 Z" fill="#ffffff" fill-rule="evenodd" fill-opacity="1" /><polyline clip-path="url(#clip632)" style="stroke:#009af9; stroke-linecap:round; stroke-linejoin:round; stroke-width:8; stroke-opacity:1; fill:none" points="309.067,1386.4 382.555,1386.4 456.042,1386.4 529.53,1386.4 603.017,1386.4 603.017,252.329 676.505,252.329 676.505,272.54 749.992,272.54 749.992,312.962 823.48,312.962 823.48,160.256 896.967,160.256 896.967,265.803 970.455,265.803 970.455,310.717 1043.94,310.717 1043.94,223.135 1117.43,223.135 1117.43,294.997 1190.92,294.997 1190.92,281.523 1264.41,281.523 1264.41,288.26 1337.89,288.26 1337.89,283.769 1411.38,283.769 1411.38,337.665 1484.87,337.665 1484.87,198.433 1558.36,198.433 1558.36,281.523 1631.84,281.523 1631.84,245.592 1705.33,245.592 1705.33,216.398 1778.82,216.398 1778.82,214.153 1852.31,214.153 1852.31,306.225 1925.79,306.225 1925.79,218.644 1999.28,218.644 1999.28,306.225 2072.77,306.225 2072.77,1386.4 2146.26,1386.4 2219.74,1386.4 2293.23,1386.4 "/>
<polyline clip-path="url(#clip632)" style="stroke:#e26f46; stroke-linecap:round; stroke-linejoin:round; stroke-width:8; stroke-opacity:1; fill:none" points="309.067,1386.4 382.555,1386.4 456.042,1386.4 529.53,1386.4 603.017,1386.4 603.017,263.557 676.505,263.557 749.992,263.557 823.48,263.557 896.967,263.557 970.455,263.557 1043.94,263.557 1117.43,263.557 1190.92,263.557 1264.41,263.557 1337.89,263.557 1411.38,263.557 1484.87,263.557 1558.36,263.557 1631.84,263.557 1705.33,263.557 1778.82,263.557 1852.31,263.557 1925.79,263.557 1999.28,263.557 2072.77,263.557 2072.77,1386.4 2146.26,1386.4 2219.74,1386.4 2293.23,1386.4 "/>
<path clip-path="url(#clip630)" d="M1011.16 1379.86 L1591.14 1379.86 L1591.14 1224.34 L1011.16 1224.34  Z" fill="#000000" fill-rule="evenodd" fill-opacity="0"/>
<polyline clip-path="url(#clip630)" style="stroke:#ffffff; stroke-linecap:round; stroke-linejoin:round; stroke-width:4; stroke-opacity:1; fill:none" points="1011.16,1379.86 1591.14,1379.86 1591.14,1224.34 1011.16,1224.34 1011.16,1379.86 "/>
<polyline clip-path="url(#clip630)" style="stroke:#009af9; stroke-linecap:round; stroke-linejoin:round; stroke-width:8; stroke-opacity:1; fill:none" points="1034.53,1276.18 1174.75,1276.18 "/>
<path clip-path="url(#clip630)" d="M1198.12 1258.9 L1219.97 1258.9 L1219.97 1262.83 L1202.79 1262.83 L1202.79 1273.06 L1219.25 1273.06 L1219.25 1277 L1202.79 1277 L1202.79 1289.52 L1220.38 1289.52 L1220.38 1293.46 L1198.12 1293.46 L1198.12 1258.9 Z" fill="#ffffff" fill-rule="evenodd" fill-opacity="1" /><path clip-path="url(#clip630)" d="M1244.41 1268.29 L1244.41 1272.32 Q1242.61 1271.4 1240.66 1270.93 Q1238.72 1270.47 1236.63 1270.47 Q1233.46 1270.47 1231.87 1271.44 Q1230.29 1272.41 1230.29 1274.36 Q1230.29 1275.84 1231.43 1276.7 Q1232.56 1277.53 1235.99 1278.29 L1237.44 1278.62 Q1241.98 1279.59 1243.88 1281.37 Q1245.8 1283.13 1245.8 1286.3 Q1245.8 1289.91 1242.93 1292.02 Q1240.08 1294.13 1235.08 1294.13 Q1233 1294.13 1230.73 1293.71 Q1228.49 1293.32 1225.99 1292.51 L1225.99 1288.11 Q1228.35 1289.34 1230.64 1289.96 Q1232.93 1290.56 1235.18 1290.56 Q1238.18 1290.56 1239.8 1289.54 Q1241.43 1288.5 1241.43 1286.63 Q1241.43 1284.89 1240.24 1283.97 Q1239.09 1283.04 1235.13 1282.18 L1233.65 1281.84 Q1229.69 1281 1227.93 1279.29 Q1226.17 1277.55 1226.17 1274.54 Q1226.17 1270.89 1228.76 1268.9 Q1231.36 1266.91 1236.12 1266.91 Q1238.49 1266.91 1240.57 1267.25 Q1242.65 1267.6 1244.41 1268.29 Z" fill="#ffffff" fill-rule="evenodd" fill-opacity="1" /><path clip-path="url(#clip630)" d="M1256.8 1260.17 L1256.8 1267.53 L1265.57 1267.53 L1265.57 1270.84 L1256.8 1270.84 L1256.8 1284.91 Q1256.8 1288.09 1257.65 1288.99 Q1258.53 1289.89 1261.19 1289.89 L1265.57 1289.89 L1265.57 1293.46 L1261.19 1293.46 Q1256.26 1293.46 1254.39 1291.63 Q1252.51 1289.78 1252.51 1284.91 L1252.51 1270.84 L1249.39 1270.84 L1249.39 1267.53 L1252.51 1267.53 L1252.51 1260.17 L1256.8 1260.17 Z" fill="#ffffff" fill-rule="evenodd" fill-opacity="1" /><path clip-path="url(#clip630)" d="M1271.17 1267.53 L1275.43 1267.53 L1275.43 1293.46 L1271.17 1293.46 L1271.17 1267.53 M1271.17 1257.44 L1275.43 1257.44 L1275.43 1262.83 L1271.17 1262.83 L1271.17 1257.44 Z" fill="#ffffff" fill-rule="evenodd" fill-opacity="1" /><path clip-path="url(#clip630)" d="M1304.53 1272.51 Q1306.12 1269.64 1308.35 1268.27 Q1310.57 1266.91 1313.58 1266.91 Q1317.63 1266.91 1319.83 1269.75 Q1322.03 1272.58 1322.03 1277.81 L1322.03 1293.46 L1317.74 1293.46 L1317.74 1277.95 Q1317.74 1274.22 1316.42 1272.41 Q1315.11 1270.61 1312.4 1270.61 Q1309.09 1270.61 1307.17 1272.81 Q1305.24 1275.01 1305.24 1278.8 L1305.24 1293.46 L1300.96 1293.46 L1300.96 1277.95 Q1300.96 1274.2 1299.64 1272.41 Q1298.32 1270.61 1295.57 1270.61 Q1292.3 1270.61 1290.38 1272.83 Q1288.46 1275.03 1288.46 1278.8 L1288.46 1293.46 L1284.18 1293.46 L1284.18 1267.53 L1288.46 1267.53 L1288.46 1271.56 Q1289.92 1269.17 1291.96 1268.04 Q1293.99 1266.91 1296.8 1266.91 Q1299.62 1266.91 1301.59 1268.34 Q1303.58 1269.78 1304.53 1272.51 Z" fill="#ffffff" fill-rule="evenodd" fill-opacity="1" /><path clip-path="url(#clip630)" d="M1342.3 1280.42 Q1337.14 1280.42 1335.15 1281.6 Q1333.16 1282.79 1333.16 1285.63 Q1333.16 1287.9 1334.64 1289.24 Q1336.15 1290.56 1338.72 1290.56 Q1342.26 1290.56 1344.39 1288.06 Q1346.54 1285.54 1346.54 1281.37 L1346.54 1280.42 L1342.3 1280.42 M1350.8 1278.66 L1350.8 1293.46 L1346.54 1293.46 L1346.54 1289.52 Q1345.08 1291.88 1342.91 1293.02 Q1340.73 1294.13 1337.58 1294.13 Q1333.6 1294.13 1331.24 1291.91 Q1328.9 1289.66 1328.9 1285.91 Q1328.9 1281.54 1331.82 1279.31 Q1334.76 1277.09 1340.57 1277.09 L1346.54 1277.09 L1346.54 1276.67 Q1346.54 1273.73 1344.6 1272.14 Q1342.67 1270.52 1339.18 1270.52 Q1336.96 1270.52 1334.85 1271.05 Q1332.74 1271.58 1330.8 1272.65 L1330.8 1268.71 Q1333.14 1267.81 1335.34 1267.37 Q1337.54 1266.91 1339.62 1266.91 Q1345.24 1266.91 1348.02 1269.82 Q1350.8 1272.74 1350.8 1278.66 Z" fill="#ffffff" fill-rule="evenodd" fill-opacity="1" /><path clip-path="url(#clip630)" d="M1363.79 1260.17 L1363.79 1267.53 L1372.56 1267.53 L1372.56 1270.84 L1363.79 1270.84 L1363.79 1284.91 Q1363.79 1288.09 1364.64 1288.99 Q1365.52 1289.89 1368.18 1289.89 L1372.56 1289.89 L1372.56 1293.46 L1368.18 1293.46 Q1363.25 1293.46 1361.38 1291.63 Q1359.5 1289.78 1359.5 1284.91 L1359.5 1270.84 L1356.38 1270.84 L1356.38 1267.53 L1359.5 1267.53 L1359.5 1260.17 L1363.79 1260.17 Z" fill="#ffffff" fill-rule="evenodd" fill-opacity="1" /><path clip-path="url(#clip630)" d="M1400.34 1279.43 L1400.34 1281.51 L1380.75 1281.51 Q1381.03 1285.91 1383.39 1288.22 Q1385.78 1290.52 1390.01 1290.52 Q1392.47 1290.52 1394.76 1289.91 Q1397.07 1289.31 1399.34 1288.11 L1399.34 1292.14 Q1397.05 1293.11 1394.64 1293.62 Q1392.23 1294.13 1389.76 1294.13 Q1383.55 1294.13 1379.92 1290.52 Q1376.31 1286.91 1376.31 1280.75 Q1376.31 1274.38 1379.73 1270.66 Q1383.18 1266.91 1389.02 1266.91 Q1394.25 1266.91 1397.28 1270.29 Q1400.34 1273.64 1400.34 1279.43 M1396.08 1278.18 Q1396.03 1274.68 1394.11 1272.6 Q1392.21 1270.52 1389.06 1270.52 Q1385.5 1270.52 1383.35 1272.53 Q1381.22 1274.54 1380.89 1278.2 L1396.08 1278.18 Z" fill="#ffffff" fill-rule="evenodd" fill-opacity="1" /><path clip-path="url(#clip630)" d="M1424.39 1271.47 L1424.39 1257.44 L1428.65 1257.44 L1428.65 1293.46 L1424.39 1293.46 L1424.39 1289.57 Q1423.04 1291.88 1420.98 1293.02 Q1418.95 1294.13 1416.08 1294.13 Q1411.38 1294.13 1408.42 1290.38 Q1405.48 1286.63 1405.48 1280.52 Q1405.48 1274.41 1408.42 1270.66 Q1411.38 1266.91 1416.08 1266.91 Q1418.95 1266.91 1420.98 1268.04 Q1423.04 1269.15 1424.39 1271.47 M1409.87 1280.52 Q1409.87 1285.22 1411.79 1287.9 Q1413.74 1290.56 1417.12 1290.56 Q1420.5 1290.56 1422.44 1287.9 Q1424.39 1285.22 1424.39 1280.52 Q1424.39 1275.82 1422.44 1273.16 Q1420.5 1270.47 1417.12 1270.47 Q1413.74 1270.47 1411.79 1273.16 Q1409.87 1275.82 1409.87 1280.52 Z" fill="#ffffff" fill-rule="evenodd" fill-opacity="1" /><path clip-path="url(#clip630)" d="M1457.35 1262.74 L1457.35 1275.72 L1463.23 1275.72 Q1466.49 1275.72 1468.28 1274.04 Q1470.06 1272.35 1470.06 1269.22 Q1470.06 1266.12 1468.28 1264.43 Q1466.49 1262.74 1463.23 1262.74 L1457.35 1262.74 M1452.67 1258.9 L1463.23 1258.9 Q1469.04 1258.9 1472 1261.54 Q1474.99 1264.15 1474.99 1269.22 Q1474.99 1274.34 1472 1276.95 Q1469.04 1279.57 1463.23 1279.57 L1457.35 1279.57 L1457.35 1293.46 L1452.67 1293.46 L1452.67 1258.9 Z" fill="#ffffff" fill-rule="evenodd" fill-opacity="1" /><path clip-path="url(#clip630)" d="M1485.94 1262.74 L1485.94 1289.61 L1491.59 1289.61 Q1498.74 1289.61 1502.05 1286.37 Q1505.38 1283.13 1505.38 1276.14 Q1505.38 1269.2 1502.05 1265.98 Q1498.74 1262.74 1491.59 1262.74 L1485.94 1262.74 M1481.26 1258.9 L1490.87 1258.9 Q1500.91 1258.9 1505.61 1263.09 Q1510.31 1267.25 1510.31 1276.14 Q1510.31 1285.08 1505.59 1289.27 Q1500.87 1293.46 1490.87 1293.46 L1481.26 1293.46 L1481.26 1258.9 Z" fill="#ffffff" fill-rule="evenodd" fill-opacity="1" /><path clip-path="url(#clip630)" d="M1517.77 1258.9 L1537.63 1258.9 L1537.63 1262.83 L1522.44 1262.83 L1522.44 1273.02 L1536.15 1273.02 L1536.15 1276.95 L1522.44 1276.95 L1522.44 1293.46 L1517.77 1293.46 L1517.77 1258.9 Z" fill="#ffffff" fill-rule="evenodd" fill-opacity="1" /><polyline clip-path="url(#clip630)" style="stroke:#e26f46; stroke-linecap:round; stroke-linejoin:round; stroke-width:8; stroke-opacity:1; fill:none" points="1034.53,1328.02 1174.75,1328.02 "/>
<path clip-path="url(#clip630)" d="M1198.12 1310.74 L1227.35 1310.74 L1227.35 1314.67 L1215.08 1314.67 L1215.08 1345.3 L1210.38 1345.3 L1210.38 1314.67 L1198.12 1314.67 L1198.12 1310.74 Z" fill="#ffffff" fill-rule="evenodd" fill-opacity="1" /><path clip-path="url(#clip630)" d="M1253.23 1329.65 L1253.23 1345.3 L1248.97 1345.3 L1248.97 1329.79 Q1248.97 1326.11 1247.54 1324.28 Q1246.1 1322.45 1243.23 1322.45 Q1239.78 1322.45 1237.79 1324.65 Q1235.8 1326.85 1235.8 1330.64 L1235.8 1345.3 L1231.52 1345.3 L1231.52 1309.28 L1235.8 1309.28 L1235.8 1323.4 Q1237.33 1321.06 1239.39 1319.9 Q1241.47 1318.75 1244.18 1318.75 Q1248.65 1318.75 1250.94 1321.52 Q1253.23 1324.28 1253.23 1329.65 Z" fill="#ffffff" fill-rule="evenodd" fill-opacity="1" /><path clip-path="url(#clip630)" d="M1283.9 1331.27 L1283.9 1333.35 L1264.32 1333.35 Q1264.6 1337.75 1266.96 1340.06 Q1269.34 1342.36 1273.58 1342.36 Q1276.03 1342.36 1278.32 1341.75 Q1280.64 1341.15 1282.91 1339.95 L1282.91 1343.98 Q1280.61 1344.95 1278.21 1345.46 Q1275.8 1345.97 1273.32 1345.97 Q1267.12 1345.97 1263.49 1342.36 Q1259.87 1338.75 1259.87 1332.59 Q1259.87 1326.22 1263.3 1322.5 Q1266.75 1318.75 1272.58 1318.75 Q1277.81 1318.75 1280.85 1322.13 Q1283.9 1325.48 1283.9 1331.27 M1279.64 1330.02 Q1279.6 1326.52 1277.67 1324.44 Q1275.78 1322.36 1272.63 1322.36 Q1269.06 1322.36 1266.91 1324.37 Q1264.78 1326.38 1264.46 1330.04 L1279.64 1330.02 Z" fill="#ffffff" fill-rule="evenodd" fill-opacity="1" /><path clip-path="url(#clip630)" d="M1300.94 1322.36 Q1297.51 1322.36 1295.52 1325.04 Q1293.53 1327.7 1293.53 1332.36 Q1293.53 1337.01 1295.5 1339.69 Q1297.49 1342.36 1300.94 1342.36 Q1304.34 1342.36 1306.33 1339.67 Q1308.32 1336.99 1308.32 1332.36 Q1308.32 1327.75 1306.33 1325.06 Q1304.34 1322.36 1300.94 1322.36 M1300.94 1318.75 Q1306.49 1318.75 1309.67 1322.36 Q1312.84 1325.97 1312.84 1332.36 Q1312.84 1338.72 1309.67 1342.36 Q1306.49 1345.97 1300.94 1345.97 Q1295.36 1345.97 1292.19 1342.36 Q1289.04 1338.72 1289.04 1332.36 Q1289.04 1325.97 1292.19 1322.36 Q1295.36 1318.75 1300.94 1318.75 Z" fill="#ffffff" fill-rule="evenodd" fill-opacity="1" /><path clip-path="url(#clip630)" d="M1334.92 1323.35 Q1334.2 1322.94 1333.35 1322.75 Q1332.51 1322.54 1331.49 1322.54 Q1327.88 1322.54 1325.94 1324.9 Q1324.02 1327.24 1324.02 1331.64 L1324.02 1345.3 L1319.73 1345.3 L1319.73 1319.37 L1324.02 1319.37 L1324.02 1323.4 Q1325.36 1321.04 1327.51 1319.9 Q1329.67 1318.75 1332.74 1318.75 Q1333.18 1318.75 1333.72 1318.81 Q1334.25 1318.86 1334.9 1318.98 L1334.92 1323.35 Z" fill="#ffffff" fill-rule="evenodd" fill-opacity="1" /><path clip-path="url(#clip630)" d="M1360.52 1331.27 L1360.52 1333.35 L1340.94 1333.35 Q1341.22 1337.75 1343.58 1340.06 Q1345.96 1342.36 1350.2 1342.36 Q1352.65 1342.36 1354.94 1341.75 Q1357.26 1341.15 1359.53 1339.95 L1359.53 1343.98 Q1357.23 1344.95 1354.83 1345.46 Q1352.42 1345.97 1349.94 1345.97 Q1343.74 1345.97 1340.11 1342.36 Q1336.49 1338.75 1336.49 1332.59 Q1336.49 1326.22 1339.92 1322.5 Q1343.37 1318.75 1349.2 1318.75 Q1354.43 1318.75 1357.47 1322.13 Q1360.52 1325.48 1360.52 1331.27 M1356.26 1330.02 Q1356.22 1326.52 1354.29 1324.44 Q1352.4 1322.36 1349.25 1322.36 Q1345.68 1322.36 1343.53 1324.37 Q1341.4 1326.38 1341.08 1330.04 L1356.26 1330.02 Z" fill="#ffffff" fill-rule="evenodd" fill-opacity="1" /><path clip-path="url(#clip630)" d="M1371.73 1312.01 L1371.73 1319.37 L1380.5 1319.37 L1380.5 1322.68 L1371.73 1322.68 L1371.73 1336.75 Q1371.73 1339.93 1372.58 1340.83 Q1373.46 1341.73 1376.12 1341.73 L1380.5 1341.73 L1380.5 1345.3 L1376.12 1345.3 Q1371.19 1345.3 1369.32 1343.47 Q1367.44 1341.62 1367.44 1336.75 L1367.44 1322.68 L1364.32 1322.68 L1364.32 1319.37 L1367.44 1319.37 L1367.44 1312.01 L1371.73 1312.01 Z" fill="#ffffff" fill-rule="evenodd" fill-opacity="1" /><path clip-path="url(#clip630)" d="M1386.1 1319.37 L1390.36 1319.37 L1390.36 1345.3 L1386.1 1345.3 L1386.1 1319.37 M1386.1 1309.28 L1390.36 1309.28 L1390.36 1314.67 L1386.1 1314.67 L1386.1 1309.28 Z" fill="#ffffff" fill-rule="evenodd" fill-opacity="1" /><path clip-path="url(#clip630)" d="M1417.93 1320.37 L1417.93 1324.35 Q1416.12 1323.35 1414.29 1322.87 Q1412.49 1322.36 1410.64 1322.36 Q1406.49 1322.36 1404.2 1325 Q1401.91 1327.61 1401.91 1332.36 Q1401.91 1337.1 1404.2 1339.74 Q1406.49 1342.36 1410.64 1342.36 Q1412.49 1342.36 1414.29 1341.87 Q1416.12 1341.36 1417.93 1340.37 L1417.93 1344.3 Q1416.15 1345.13 1414.23 1345.55 Q1412.33 1345.97 1410.17 1345.97 Q1404.32 1345.97 1400.87 1342.29 Q1397.42 1338.61 1397.42 1332.36 Q1397.42 1326.01 1400.89 1322.38 Q1404.39 1318.75 1410.45 1318.75 Q1412.42 1318.75 1414.29 1319.16 Q1416.17 1319.56 1417.93 1320.37 Z" fill="#ffffff" fill-rule="evenodd" fill-opacity="1" /><path clip-path="url(#clip630)" d="M1437.12 1332.26 Q1431.96 1332.26 1429.97 1333.44 Q1427.98 1334.63 1427.98 1337.47 Q1427.98 1339.74 1429.46 1341.08 Q1430.96 1342.4 1433.53 1342.4 Q1437.07 1342.4 1439.2 1339.9 Q1441.35 1337.38 1441.35 1333.21 L1441.35 1332.26 L1437.12 1332.26 M1445.61 1330.5 L1445.61 1345.3 L1441.35 1345.3 L1441.35 1341.36 Q1439.9 1343.72 1437.72 1344.86 Q1435.54 1345.97 1432.4 1345.97 Q1428.41 1345.97 1426.05 1343.75 Q1423.72 1341.5 1423.72 1337.75 Q1423.72 1333.38 1426.63 1331.15 Q1429.57 1328.93 1435.38 1328.93 L1441.35 1328.93 L1441.35 1328.51 Q1441.35 1325.57 1439.41 1323.98 Q1437.49 1322.36 1433.99 1322.36 Q1431.77 1322.36 1429.66 1322.89 Q1427.56 1323.42 1425.61 1324.49 L1425.61 1320.55 Q1427.95 1319.65 1430.15 1319.21 Q1432.35 1318.75 1434.43 1318.75 Q1440.06 1318.75 1442.84 1321.66 Q1445.61 1324.58 1445.61 1330.5 Z" fill="#ffffff" fill-rule="evenodd" fill-opacity="1" /><path clip-path="url(#clip630)" d="M1454.39 1309.28 L1458.65 1309.28 L1458.65 1345.3 L1454.39 1345.3 L1454.39 1309.28 Z" fill="#ffffff" fill-rule="evenodd" fill-opacity="1" /><path clip-path="url(#clip630)" d="M1487.49 1314.58 L1487.49 1327.56 L1493.37 1327.56 Q1496.63 1327.56 1498.41 1325.88 Q1500.2 1324.19 1500.2 1321.06 Q1500.2 1317.96 1498.41 1316.27 Q1496.63 1314.58 1493.37 1314.58 L1487.49 1314.58 M1482.81 1310.74 L1493.37 1310.74 Q1499.18 1310.74 1502.14 1313.38 Q1505.13 1315.99 1505.13 1321.06 Q1505.13 1326.18 1502.14 1328.79 Q1499.18 1331.41 1493.37 1331.41 L1487.49 1331.41 L1487.49 1345.3 L1482.81 1345.3 L1482.81 1310.74 Z" fill="#ffffff" fill-rule="evenodd" fill-opacity="1" /><path clip-path="url(#clip630)" d="M1516.08 1314.58 L1516.08 1341.45 L1521.72 1341.45 Q1528.88 1341.45 1532.19 1338.21 Q1535.52 1334.97 1535.52 1327.98 Q1535.52 1321.04 1532.19 1317.82 Q1528.88 1314.58 1521.72 1314.58 L1516.08 1314.58 M1511.4 1310.74 L1521.01 1310.74 Q1531.05 1310.74 1535.75 1314.93 Q1540.45 1319.09 1540.45 1327.98 Q1540.45 1336.92 1535.73 1341.11 Q1531.01 1345.3 1521.01 1345.3 L1511.4 1345.3 L1511.4 1310.74 Z" fill="#ffffff" fill-rule="evenodd" fill-opacity="1" /><path clip-path="url(#clip630)" d="M1547.91 1310.74 L1567.77 1310.74 L1567.77 1314.67 L1552.58 1314.67 L1552.58 1324.86 L1566.28 1324.86 L1566.28 1328.79 L1552.58 1328.79 L1552.58 1345.3 L1547.91 1345.3 L1547.91 1310.74 Z" fill="#ffffff" fill-rule="evenodd" fill-opacity="1" /></svg>
