<?xml version="1.0" encoding="utf-8"?>
<svg xmlns="http://www.w3.org/2000/svg" xmlns:xlink="http://www.w3.org/1999/xlink" width="600" height="400" viewBox="0 0 2400 1600">
<defs>
  <clipPath id="clip180">
    <rect x="0" y="0" width="2400" height="1600"/>
  </clipPath>
</defs>
<path clip-path="url(#clip180)" d="M0 1600 L2400 1600 L2400 0 L0 0  Z" fill="#000000" fill-rule="evenodd" fill-opacity="0"/>
<defs>
  <clipPath id="clip181">
    <rect x="480" y="0" width="1681" height="1600"/>
  </clipPath>
</defs>
<path clip-path="url(#clip180)" d="M257.204 1423.18 L2352.76 1423.18 L2352.76 47.2441 L257.204 47.2441  Z" fill="#000000" fill-rule="evenodd" fill-opacity="0"/>
<defs>
  <clipPath id="clip182">
    <rect x="257" y="47" width="2097" height="1377"/>
  </clipPath>
</defs>
<polyline clip-path="url(#clip182)" style="stroke:#ffffff; stroke-linecap:round; stroke-linejoin:round; stroke-width:2; stroke-opacity:0.1; fill:none" points="316.512,1423.18 316.512,47.2441 "/>
<polyline clip-path="url(#clip182)" style="stroke:#ffffff; stroke-linecap:round; stroke-linejoin:round; stroke-width:2; stroke-opacity:0.1; fill:none" points="810.746,1423.18 810.746,47.2441 "/>
<polyline clip-path="url(#clip182)" style="stroke:#ffffff; stroke-linecap:round; stroke-linejoin:round; stroke-width:2; stroke-opacity:0.1; fill:none" points="1304.98,1423.18 1304.98,47.2441 "/>
<polyline clip-path="url(#clip182)" style="stroke:#ffffff; stroke-linecap:round; stroke-linejoin:round; stroke-width:2; stroke-opacity:0.1; fill:none" points="1799.21,1423.18 1799.21,47.2441 "/>
<polyline clip-path="url(#clip182)" style="stroke:#ffffff; stroke-linecap:round; stroke-linejoin:round; stroke-width:2; stroke-opacity:0.1; fill:none" points="2293.45,1423.18 2293.45,47.2441 "/>
<polyline clip-path="url(#clip180)" style="stroke:#ffffff; stroke-linecap:round; stroke-linejoin:round; stroke-width:4; stroke-opacity:1; fill:none" points="257.204,1423.18 2352.76,1423.18 "/>
<polyline clip-path="url(#clip180)" style="stroke:#ffffff; stroke-linecap:round; stroke-linejoin:round; stroke-width:4; stroke-opacity:1; fill:none" points="316.512,1423.18 316.512,1404.28 "/>
<polyline clip-path="url(#clip180)" style="stroke:#ffffff; stroke-linecap:round; stroke-linejoin:round; stroke-width:4; stroke-opacity:1; fill:none" points="810.746,1423.18 810.746,1404.28 "/>
<polyline clip-path="url(#clip180)" style="stroke:#ffffff; stroke-linecap:round; stroke-linejoin:round; stroke-width:4; stroke-opacity:1; fill:none" points="1304.98,1423.18 1304.98,1404.28 "/>
<polyline clip-path="url(#clip180)" style="stroke:#ffffff; stroke-linecap:round; stroke-linejoin:round; stroke-width:4; stroke-opacity:1; fill:none" points="1799.21,1423.18 1799.21,1404.28 "/>
<polyline clip-path="url(#clip180)" style="stroke:#ffffff; stroke-linecap:round; stroke-linejoin:round; stroke-width:4; stroke-opacity:1; fill:none" points="2293.45,1423.18 2293.45,1404.28 "/>
<path clip-path="url(#clip180)" d="M232.635 1468.75 L262.311 1468.75 L262.311 1472.69 L232.635 1472.69 L232.635 1468.75 Z" fill="#ffffff" fill-rule="evenodd" fill-opacity="1" /><path clip-path="url(#clip180)" d="M282.403 1454.1 Q278.792 1454.1 276.964 1457.66 Q275.158 1461.2 275.158 1468.33 Q275.158 1475.44 276.964 1479.01 Q278.792 1482.55 282.403 1482.55 Q286.038 1482.55 287.843 1479.01 Q289.672 1475.44 289.672 1468.33 Q289.672 1461.2 287.843 1457.66 Q286.038 1454.1 282.403 1454.1 M282.403 1450.39 Q288.214 1450.39 291.269 1455 Q294.348 1459.58 294.348 1468.33 Q294.348 1477.06 291.269 1481.67 Q288.214 1486.25 282.403 1486.25 Q276.593 1486.25 273.515 1481.67 Q270.459 1477.06 270.459 1468.33 Q270.459 1459.58 273.515 1455 Q276.593 1450.39 282.403 1450.39 Z" fill="#ffffff" fill-rule="evenodd" fill-opacity="1" /><path clip-path="url(#clip180)" d="M302.565 1479.7 L307.45 1479.7 L307.45 1485.58 L302.565 1485.58 L302.565 1479.7 Z" fill="#ffffff" fill-rule="evenodd" fill-opacity="1" /><path clip-path="url(#clip180)" d="M327.635 1454.1 Q324.024 1454.1 322.195 1457.66 Q320.389 1461.2 320.389 1468.33 Q320.389 1475.44 322.195 1479.01 Q324.024 1482.55 327.635 1482.55 Q331.269 1482.55 333.075 1479.01 Q334.903 1475.44 334.903 1468.33 Q334.903 1461.2 333.075 1457.66 Q331.269 1454.1 327.635 1454.1 M327.635 1450.39 Q333.445 1450.39 336.5 1455 Q339.579 1459.58 339.579 1468.33 Q339.579 1477.06 336.5 1481.67 Q333.445 1486.25 327.635 1486.25 Q321.825 1486.25 318.746 1481.67 Q315.69 1477.06 315.69 1468.33 Q315.69 1459.58 318.746 1455 Q321.825 1450.39 327.635 1450.39 Z" fill="#ffffff" fill-rule="evenodd" fill-opacity="1" /><path clip-path="url(#clip180)" d="M357.797 1454.1 Q354.186 1454.1 352.357 1457.66 Q350.551 1461.2 350.551 1468.33 Q350.551 1475.44 352.357 1479.01 Q354.186 1482.55 357.797 1482.55 Q361.431 1482.55 363.236 1479.01 Q365.065 1475.44 365.065 1468.33 Q365.065 1461.2 363.236 1457.66 Q361.431 1454.1 357.797 1454.1 M357.797 1450.39 Q363.607 1450.39 366.662 1455 Q369.741 1459.58 369.741 1468.33 Q369.741 1477.06 366.662 1481.67 Q363.607 1486.25 357.797 1486.25 Q351.986 1486.25 348.908 1481.67 Q345.852 1477.06 345.852 1468.33 Q345.852 1459.58 348.908 1455 Q351.986 1450.39 357.797 1450.39 Z" fill="#ffffff" fill-rule="evenodd" fill-opacity="1" /><path clip-path="url(#clip180)" d="M390.806 1455.09 L379 1473.54 L390.806 1473.54 L390.806 1455.09 M389.579 1451.02 L395.458 1451.02 L395.458 1473.54 L400.389 1473.54 L400.389 1477.43 L395.458 1477.43 L395.458 1485.58 L390.806 1485.58 L390.806 1477.43 L375.204 1477.43 L375.204 1472.92 L389.579 1451.02 Z" fill="#ffffff" fill-rule="evenodd" fill-opacity="1" /><path clip-path="url(#clip180)" d="M727.911 1468.75 L757.587 1468.75 L757.587 1472.69 L727.911 1472.69 L727.911 1468.75 Z" fill="#ffffff" fill-rule="evenodd" fill-opacity="1" /><path clip-path="url(#clip180)" d="M777.679 1454.1 Q774.068 1454.1 772.239 1457.66 Q770.434 1461.2 770.434 1468.33 Q770.434 1475.44 772.239 1479.01 Q774.068 1482.55 777.679 1482.55 Q781.313 1482.55 783.119 1479.01 Q784.948 1475.44 784.948 1468.33 Q784.948 1461.2 783.119 1457.66 Q781.313 1454.1 777.679 1454.1 M777.679 1450.39 Q783.489 1450.39 786.545 1455 Q789.623 1459.58 789.623 1468.33 Q789.623 1477.06 786.545 1481.67 Q783.489 1486.25 777.679 1486.25 Q771.869 1486.25 768.79 1481.67 Q765.735 1477.06 765.735 1468.33 Q765.735 1459.58 768.79 1455 Q771.869 1450.39 777.679 1450.39 Z" fill="#ffffff" fill-rule="evenodd" fill-opacity="1" /><path clip-path="url(#clip180)" d="M797.841 1479.7 L802.725 1479.7 L802.725 1485.58 L797.841 1485.58 L797.841 1479.7 Z" fill="#ffffff" fill-rule="evenodd" fill-opacity="1" /><path clip-path="url(#clip180)" d="M822.91 1454.1 Q819.299 1454.1 817.471 1457.66 Q815.665 1461.2 815.665 1468.33 Q815.665 1475.44 817.471 1479.01 Q819.299 1482.55 822.91 1482.55 Q826.545 1482.55 828.35 1479.01 Q830.179 1475.44 830.179 1468.33 Q830.179 1461.2 828.35 1457.66 Q826.545 1454.1 822.91 1454.1 M822.91 1450.39 Q828.72 1450.39 831.776 1455 Q834.855 1459.58 834.855 1468.33 Q834.855 1477.06 831.776 1481.67 Q828.72 1486.25 822.91 1486.25 Q817.1 1486.25 814.021 1481.67 Q810.966 1477.06 810.966 1468.33 Q810.966 1459.58 814.021 1455 Q817.1 1450.39 822.91 1450.39 Z" fill="#ffffff" fill-rule="evenodd" fill-opacity="1" /><path clip-path="url(#clip180)" d="M853.072 1454.1 Q849.461 1454.1 847.632 1457.66 Q845.827 1461.2 845.827 1468.33 Q845.827 1475.44 847.632 1479.01 Q849.461 1482.55 853.072 1482.55 Q856.706 1482.55 858.512 1479.01 Q860.341 1475.44 860.341 1468.33 Q860.341 1461.2 858.512 1457.66 Q856.706 1454.1 853.072 1454.1 M853.072 1450.39 Q858.882 1450.39 861.938 1455 Q865.017 1459.58 865.017 1468.33 Q865.017 1477.06 861.938 1481.67 Q858.882 1486.25 853.072 1486.25 Q847.262 1486.25 844.183 1481.67 Q841.128 1477.06 841.128 1468.33 Q841.128 1459.58 844.183 1455 Q847.262 1450.39 853.072 1450.39 Z" fill="#ffffff" fill-rule="evenodd" fill-opacity="1" /><path clip-path="url(#clip180)" d="M877.262 1481.64 L893.581 1481.64 L893.581 1485.58 L871.637 1485.58 L871.637 1481.64 Q874.299 1478.89 878.882 1474.26 Q883.489 1469.61 884.669 1468.27 Q886.915 1465.74 887.794 1464.01 Q888.697 1462.25 888.697 1460.56 Q888.697 1457.8 886.753 1456.07 Q884.831 1454.33 881.729 1454.33 Q879.53 1454.33 877.077 1455.09 Q874.646 1455.86 871.868 1457.41 L871.868 1452.69 Q874.692 1451.55 877.146 1450.97 Q879.6 1450.39 881.637 1450.39 Q887.007 1450.39 890.202 1453.08 Q893.396 1455.77 893.396 1460.26 Q893.396 1462.39 892.586 1464.31 Q891.799 1466.2 889.692 1468.8 Q889.114 1469.47 886.012 1472.69 Q882.91 1475.88 877.262 1481.64 Z" fill="#ffffff" fill-rule="evenodd" fill-opacity="1" /><path clip-path="url(#clip180)" d="M1252.2 1454.1 Q1248.59 1454.1 1246.76 1457.66 Q1244.96 1461.2 1244.96 1468.33 Q1244.96 1475.44 1246.76 1479.01 Q1248.59 1482.55 1252.2 1482.55 Q1255.84 1482.55 1257.64 1479.01 Q1259.47 1475.44 1259.47 1468.33 Q1259.47 1461.2 1257.64 1457.66 Q1255.84 1454.1 1252.2 1454.1 M1252.2 1450.39 Q1258.01 1450.39 1261.07 1455 Q1264.15 1459.58 1264.15 1468.33 Q1264.15 1477.06 1261.07 1481.67 Q1258.01 1486.25 1252.2 1486.25 Q1246.39 1486.25 1243.31 1481.67 Q1240.26 1477.06 1240.26 1468.33 Q1240.26 1459.58 1243.31 1455 Q1246.39 1450.39 1252.2 1450.39 Z" fill="#ffffff" fill-rule="evenodd" fill-opacity="1" /><path clip-path="url(#clip180)" d="M1272.36 1479.7 L1277.25 1479.7 L1277.25 1485.58 L1272.36 1485.58 L1272.36 1479.7 Z" fill="#ffffff" fill-rule="evenodd" fill-opacity="1" /><path clip-path="url(#clip180)" d="M1297.43 1454.1 Q1293.82 1454.1 1291.99 1457.66 Q1290.19 1461.2 1290.19 1468.33 Q1290.19 1475.44 1291.99 1479.01 Q1293.82 1482.55 1297.43 1482.55 Q1301.07 1482.55 1302.87 1479.01 Q1304.7 1475.44 1304.7 1468.33 Q1304.7 1461.2 1302.87 1457.66 Q1301.07 1454.1 1297.43 1454.1 M1297.43 1450.39 Q1303.24 1450.39 1306.3 1455 Q1309.38 1459.58 1309.38 1468.33 Q1309.38 1477.06 1306.3 1481.67 Q1303.24 1486.25 1297.43 1486.25 Q1291.62 1486.25 1288.54 1481.67 Q1285.49 1477.06 1285.49 1468.33 Q1285.49 1459.58 1288.54 1455 Q1291.62 1450.39 1297.43 1450.39 Z" fill="#ffffff" fill-rule="evenodd" fill-opacity="1" /><path clip-path="url(#clip180)" d="M1327.6 1454.1 Q1323.98 1454.1 1322.16 1457.66 Q1320.35 1461.2 1320.35 1468.33 Q1320.35 1475.44 1322.16 1479.01 Q1323.98 1482.55 1327.6 1482.55 Q1331.23 1482.55 1333.04 1479.01 Q1334.86 1475.44 1334.86 1468.33 Q1334.86 1461.2 1333.04 1457.66 Q1331.23 1454.1 1327.6 1454.1 M1327.6 1450.39 Q1333.41 1450.39 1336.46 1455 Q1339.54 1459.58 1339.54 1468.33 Q1339.54 1477.06 1336.46 1481.67 Q1333.41 1486.25 1327.6 1486.25 Q1321.79 1486.25 1318.71 1481.67 Q1315.65 1477.06 1315.65 1468.33 Q1315.65 1459.58 1318.71 1455 Q1321.79 1450.39 1327.6 1450.39 Z" fill="#ffffff" fill-rule="evenodd" fill-opacity="1" /><path clip-path="url(#clip180)" d="M1357.76 1454.1 Q1354.15 1454.1 1352.32 1457.66 Q1350.51 1461.2 1350.51 1468.33 Q1350.51 1475.44 1352.32 1479.01 Q1354.15 1482.55 1357.76 1482.55 Q1361.39 1482.55 1363.2 1479.01 Q1365.03 1475.44 1365.03 1468.33 Q1365.03 1461.2 1363.2 1457.66 Q1361.39 1454.1 1357.76 1454.1 M1357.76 1450.39 Q1363.57 1450.39 1366.62 1455 Q1369.7 1459.58 1369.7 1468.33 Q1369.7 1477.06 1366.62 1481.67 Q1363.57 1486.25 1357.76 1486.25 Q1351.95 1486.25 1348.87 1481.67 Q1345.81 1477.06 1345.81 1468.33 Q1345.81 1459.58 1348.87 1455 Q1351.95 1450.39 1357.76 1450.39 Z" fill="#ffffff" fill-rule="evenodd" fill-opacity="1" /><path clip-path="url(#clip180)" d="M1747.24 1454.1 Q1743.62 1454.1 1741.8 1457.66 Q1739.99 1461.2 1739.99 1468.33 Q1739.99 1475.44 1741.8 1479.01 Q1743.62 1482.55 1747.24 1482.55 Q1750.87 1482.55 1752.67 1479.01 Q1754.5 1475.44 1754.5 1468.33 Q1754.5 1461.2 1752.67 1457.66 Q1750.87 1454.1 1747.24 1454.1 M1747.24 1450.39 Q1753.05 1450.39 1756.1 1455 Q1759.18 1459.58 1759.18 1468.33 Q1759.18 1477.06 1756.1 1481.67 Q1753.05 1486.25 1747.24 1486.25 Q1741.42 1486.25 1738.35 1481.67 Q1735.29 1477.06 1735.29 1468.33 Q1735.29 1459.58 1738.35 1455 Q1741.42 1450.39 1747.24 1450.39 Z" fill="#ffffff" fill-rule="evenodd" fill-opacity="1" /><path clip-path="url(#clip180)" d="M1767.4 1479.7 L1772.28 1479.7 L1772.28 1485.58 L1767.4 1485.58 L1767.4 1479.7 Z" fill="#ffffff" fill-rule="evenodd" fill-opacity="1" /><path clip-path="url(#clip180)" d="M1792.47 1454.1 Q1788.86 1454.1 1787.03 1457.66 Q1785.22 1461.2 1785.22 1468.33 Q1785.22 1475.44 1787.03 1479.01 Q1788.86 1482.55 1792.47 1482.55 Q1796.1 1482.55 1797.91 1479.01 Q1799.73 1475.44 1799.73 1468.33 Q1799.73 1461.2 1797.91 1457.66 Q1796.1 1454.1 1792.47 1454.1 M1792.47 1450.39 Q1798.28 1450.39 1801.33 1455 Q1804.41 1459.58 1804.41 1468.33 Q1804.41 1477.06 1801.33 1481.67 Q1798.28 1486.25 1792.47 1486.25 Q1786.66 1486.25 1783.58 1481.67 Q1780.52 1477.06 1780.52 1468.33 Q1780.52 1459.58 1783.58 1455 Q1786.66 1450.39 1792.47 1450.39 Z" fill="#ffffff" fill-rule="evenodd" fill-opacity="1" /><path clip-path="url(#clip180)" d="M1822.63 1454.1 Q1819.02 1454.1 1817.19 1457.66 Q1815.38 1461.2 1815.38 1468.33 Q1815.38 1475.44 1817.19 1479.01 Q1819.02 1482.55 1822.63 1482.55 Q1826.26 1482.55 1828.07 1479.01 Q1829.9 1475.44 1829.9 1468.33 Q1829.9 1461.2 1828.07 1457.66 Q1826.26 1454.1 1822.63 1454.1 M1822.63 1450.39 Q1828.44 1450.39 1831.49 1455 Q1834.57 1459.58 1834.57 1468.33 Q1834.57 1477.06 1831.49 1481.67 Q1828.44 1486.25 1822.63 1486.25 Q1816.82 1486.25 1813.74 1481.67 Q1810.68 1477.06 1810.68 1468.33 Q1810.68 1459.58 1813.74 1455 Q1816.82 1450.39 1822.63 1450.39 Z" fill="#ffffff" fill-rule="evenodd" fill-opacity="1" /><path clip-path="url(#clip180)" d="M1846.82 1481.64 L1863.14 1481.64 L1863.14 1485.58 L1841.19 1485.58 L1841.19 1481.64 Q1843.85 1478.89 1848.44 1474.26 Q1853.04 1469.61 1854.23 1468.27 Q1856.47 1465.74 1857.35 1464.01 Q1858.25 1462.25 1858.25 1460.56 Q1858.25 1457.8 1856.31 1456.07 Q1854.39 1454.33 1851.29 1454.33 Q1849.09 1454.33 1846.63 1455.09 Q1844.2 1455.86 1841.42 1457.41 L1841.42 1452.69 Q1844.25 1451.55 1846.7 1450.97 Q1849.16 1450.39 1851.19 1450.39 Q1856.56 1450.39 1859.76 1453.08 Q1862.95 1455.77 1862.95 1460.26 Q1862.95 1462.39 1862.14 1464.31 Q1861.35 1466.2 1859.25 1468.8 Q1858.67 1469.47 1855.57 1472.69 Q1852.47 1475.88 1846.82 1481.64 Z" fill="#ffffff" fill-rule="evenodd" fill-opacity="1" /><path clip-path="url(#clip180)" d="M2240.43 1454.1 Q2236.82 1454.1 2234.99 1457.66 Q2233.18 1461.2 2233.18 1468.33 Q2233.18 1475.44 2234.99 1479.01 Q2236.82 1482.55 2240.43 1482.55 Q2244.06 1482.55 2245.87 1479.01 Q2247.7 1475.44 2247.7 1468.33 Q2247.7 1461.2 2245.87 1457.66 Q2244.06 1454.1 2240.43 1454.1 M2240.43 1450.39 Q2246.24 1450.39 2249.29 1455 Q2252.37 1459.58 2252.37 1468.33 Q2252.37 1477.06 2249.29 1481.67 Q2246.24 1486.25 2240.43 1486.25 Q2234.62 1486.25 2231.54 1481.67 Q2228.48 1477.06 2228.48 1468.33 Q2228.48 1459.58 2231.54 1455 Q2234.62 1450.39 2240.43 1450.39 Z" fill="#ffffff" fill-rule="evenodd" fill-opacity="1" /><path clip-path="url(#clip180)" d="M2260.59 1479.7 L2265.47 1479.7 L2265.47 1485.58 L2260.59 1485.58 L2260.59 1479.7 Z" fill="#ffffff" fill-rule="evenodd" fill-opacity="1" /><path clip-path="url(#clip180)" d="M2285.66 1454.1 Q2282.05 1454.1 2280.22 1457.66 Q2278.41 1461.2 2278.41 1468.33 Q2278.41 1475.44 2280.22 1479.01 Q2282.05 1482.55 2285.66 1482.55 Q2289.29 1482.55 2291.1 1479.01 Q2292.93 1475.44 2292.93 1468.33 Q2292.93 1461.2 2291.1 1457.66 Q2289.29 1454.1 2285.66 1454.1 M2285.66 1450.39 Q2291.47 1450.39 2294.52 1455 Q2297.6 1459.58 2297.6 1468.33 Q2297.6 1477.06 2294.52 1481.67 Q2291.47 1486.25 2285.66 1486.25 Q2279.85 1486.25 2276.77 1481.67 Q2273.71 1477.06 2273.71 1468.33 Q2273.71 1459.58 2276.77 1455 Q2279.85 1450.39 2285.66 1450.39 Z" fill="#ffffff" fill-rule="evenodd" fill-opacity="1" /><path clip-path="url(#clip180)" d="M2315.82 1454.1 Q2312.21 1454.1 2310.38 1457.66 Q2308.58 1461.2 2308.58 1468.33 Q2308.58 1475.44 2310.38 1479.01 Q2312.21 1482.55 2315.82 1482.55 Q2319.45 1482.55 2321.26 1479.01 Q2323.09 1475.44 2323.09 1468.33 Q2323.09 1461.2 2321.26 1457.66 Q2319.45 1454.1 2315.82 1454.1 M2315.82 1450.39 Q2321.63 1450.39 2324.69 1455 Q2327.76 1459.58 2327.76 1468.33 Q2327.76 1477.06 2324.69 1481.67 Q2321.63 1486.25 2315.82 1486.25 Q2310.01 1486.25 2306.93 1481.67 Q2303.88 1477.06 2303.88 1468.33 Q2303.88 1459.58 2306.93 1455 Q2310.01 1450.39 2315.82 1450.39 Z" fill="#ffffff" fill-rule="evenodd" fill-opacity="1" /><path clip-path="url(#clip180)" d="M2348.83 1455.09 L2337.02 1473.54 L2348.83 1473.54 L2348.83 1455.09 M2347.6 1451.02 L2353.48 1451.02 L2353.48 1473.54 L2358.41 1473.54 L2358.41 1477.43 L2353.48 1477.43 L2353.48 1485.58 L2348.83 1485.58 L2348.83 1477.43 L2333.23 1477.43 L2333.23 1472.92 L2347.6 1451.02 Z" fill="#ffffff" fill-rule="evenodd" fill-opacity="1" /><path clip-path="url(#clip180)" d="M1088.69 1525.81 L1088.69 1543.66 L1096.77 1543.66 Q1101.26 1543.66 1103.71 1541.34 Q1106.16 1539.02 1106.16 1534.72 Q1106.16 1530.45 1103.71 1528.13 Q1101.26 1525.81 1096.77 1525.81 L1088.69 1525.81 M1082.26 1520.52 L1096.77 1520.52 Q1104.76 1520.52 1108.84 1524.15 Q1112.94 1527.75 1112.94 1534.72 Q1112.94 1541.75 1108.84 1545.35 Q1104.76 1548.95 1096.77 1548.95 L1088.69 1548.95 L1088.69 1568.04 L1082.26 1568.04 L1082.26 1520.52 Z" fill="#ffffff" fill-rule="evenodd" fill-opacity="1" /><path clip-path="url(#clip180)" d="M1119.56 1553.98 L1119.56 1532.4 L1125.42 1532.4 L1125.42 1553.75 Q1125.42 1558.81 1127.39 1561.36 Q1129.37 1563.87 1133.31 1563.87 Q1138.06 1563.87 1140.79 1560.85 Q1143.56 1557.83 1143.56 1552.61 L1143.56 1532.4 L1149.42 1532.4 L1149.42 1568.04 L1143.56 1568.04 L1143.56 1562.57 Q1141.43 1565.82 1138.6 1567.41 Q1135.8 1568.97 1132.07 1568.97 Q1125.93 1568.97 1122.75 1565.15 Q1119.56 1561.33 1119.56 1553.98 M1134.3 1531.54 L1134.3 1531.54 Z" fill="#ffffff" fill-rule="evenodd" fill-opacity="1" /><path clip-path="url(#clip180)" d="M1161.48 1518.52 L1167.34 1518.52 L1167.34 1568.04 L1161.48 1568.04 L1161.48 1518.52 Z" fill="#ffffff" fill-rule="evenodd" fill-opacity="1" /><path clip-path="url(#clip180)" d="M1202.32 1533.45 L1202.32 1538.98 Q1199.83 1537.71 1197.16 1537.07 Q1194.49 1536.44 1191.62 1536.44 Q1187.26 1536.44 1185.07 1537.77 Q1182.9 1539.11 1182.9 1541.79 Q1182.9 1543.82 1184.46 1545 Q1186.02 1546.15 1190.73 1547.2 L1192.74 1547.64 Q1198.98 1548.98 1201.58 1551.43 Q1204.23 1553.85 1204.23 1558.21 Q1204.23 1563.17 1200.28 1566.07 Q1196.37 1568.97 1189.49 1568.97 Q1186.63 1568.97 1183.51 1568.39 Q1180.42 1567.85 1176.98 1566.74 L1176.98 1560.69 Q1180.23 1562.38 1183.38 1563.24 Q1186.53 1564.07 1189.62 1564.07 Q1193.76 1564.07 1195.98 1562.66 Q1198.21 1561.23 1198.21 1558.65 Q1198.21 1556.27 1196.59 1554.99 Q1195 1553.72 1189.55 1552.54 L1187.52 1552.07 Q1182.07 1550.92 1179.66 1548.56 Q1177.24 1546.18 1177.24 1542.04 Q1177.24 1537.01 1180.8 1534.27 Q1184.37 1531.54 1190.92 1531.54 Q1194.17 1531.54 1197.03 1532.01 Q1199.9 1532.49 1202.32 1533.45 Z" fill="#ffffff" fill-rule="evenodd" fill-opacity="1" /><path clip-path="url(#clip180)" d="M1244.04 1548.76 L1244.04 1551.62 L1217.12 1551.62 Q1217.5 1557.67 1220.75 1560.85 Q1224.02 1564 1229.85 1564 Q1233.22 1564 1236.37 1563.17 Q1239.56 1562.35 1242.68 1560.69 L1242.68 1566.23 Q1239.52 1567.57 1236.21 1568.27 Q1232.9 1568.97 1229.5 1568.97 Q1220.97 1568.97 1215.97 1564 Q1211.01 1559.04 1211.01 1550.57 Q1211.01 1541.82 1215.72 1536.69 Q1220.46 1531.54 1228.48 1531.54 Q1235.67 1531.54 1239.84 1536.18 Q1244.04 1540.8 1244.04 1548.76 M1238.19 1547.04 Q1238.12 1542.23 1235.48 1539.37 Q1232.87 1536.5 1228.54 1536.5 Q1223.64 1536.5 1220.68 1539.27 Q1217.75 1542.04 1217.31 1547.07 L1238.19 1547.04 Z" fill="#ffffff" fill-rule="evenodd" fill-opacity="1" /><path clip-path="url(#clip180)" d="M1268.04 1520.52 L1308.24 1520.52 L1308.24 1525.93 L1291.37 1525.93 L1291.37 1568.04 L1284.91 1568.04 L1284.91 1525.93 L1268.04 1525.93 L1268.04 1520.52 Z" fill="#ffffff" fill-rule="evenodd" fill-opacity="1" /><path clip-path="url(#clip180)" d="M1312.19 1532.4 L1318.05 1532.4 L1318.05 1568.04 L1312.19 1568.04 L1312.19 1532.4 M1312.19 1518.52 L1318.05 1518.52 L1318.05 1525.93 L1312.19 1525.93 L1312.19 1518.52 Z" fill="#ffffff" fill-rule="evenodd" fill-opacity="1" /><path clip-path="url(#clip180)" d="M1358.05 1539.24 Q1360.25 1535.29 1363.31 1533.41 Q1366.36 1531.54 1370.5 1531.54 Q1376.07 1531.54 1379.09 1535.45 Q1382.12 1539.33 1382.12 1546.53 L1382.12 1568.04 L1376.23 1568.04 L1376.23 1546.72 Q1376.23 1541.59 1374.41 1539.11 Q1372.6 1536.63 1368.88 1536.63 Q1364.32 1536.63 1361.68 1539.65 Q1359.04 1542.68 1359.04 1547.9 L1359.04 1568.04 L1353.15 1568.04 L1353.15 1546.72 Q1353.15 1541.56 1351.34 1539.11 Q1349.52 1536.63 1345.74 1536.63 Q1341.25 1536.63 1338.61 1539.68 Q1335.97 1542.71 1335.97 1547.9 L1335.97 1568.04 L1330.08 1568.04 L1330.08 1532.4 L1335.97 1532.4 L1335.97 1537.93 Q1337.97 1534.66 1340.77 1533.1 Q1343.57 1531.54 1347.42 1531.54 Q1351.31 1531.54 1354.01 1533.51 Q1356.75 1535.48 1358.05 1539.24 Z" fill="#ffffff" fill-rule="evenodd" fill-opacity="1" /><path clip-path="url(#clip180)" d="M1424.29 1548.76 L1424.29 1551.62 L1397.36 1551.62 Q1397.74 1557.67 1400.99 1560.85 Q1404.27 1564 1410.09 1564 Q1413.47 1564 1416.62 1563.17 Q1419.8 1562.35 1422.92 1560.69 L1422.92 1566.23 Q1419.77 1567.57 1416.46 1568.27 Q1413.15 1568.97 1409.74 1568.97 Q1401.21 1568.97 1396.22 1564 Q1391.25 1559.04 1391.25 1550.57 Q1391.25 1541.82 1395.96 1536.69 Q1400.7 1531.54 1408.73 1531.54 Q1415.92 1531.54 1420.09 1536.18 Q1424.29 1540.8 1424.29 1548.76 M1418.43 1547.04 Q1418.37 1542.23 1415.73 1539.37 Q1413.12 1536.5 1408.79 1536.5 Q1403.89 1536.5 1400.93 1539.27 Q1398 1542.04 1397.55 1547.07 L1418.43 1547.04 Z" fill="#ffffff" fill-rule="evenodd" fill-opacity="1" /><path clip-path="url(#clip180)" d="M1468.69 1518.58 Q1464.43 1525.9 1462.36 1533.06 Q1460.29 1540.23 1460.29 1547.58 Q1460.29 1554.93 1462.36 1562.16 Q1464.46 1569.35 1468.69 1576.64 L1463.6 1576.64 Q1458.82 1569.16 1456.44 1561.93 Q1454.08 1554.71 1454.08 1547.58 Q1454.08 1540.48 1456.44 1533.29 Q1458.79 1526.09 1463.6 1518.58 L1468.69 1518.58 Z" fill="#ffffff" fill-rule="evenodd" fill-opacity="1" /><path clip-path="url(#clip180)" d="M1502.78 1533.45 L1502.78 1538.98 Q1500.3 1537.71 1497.62 1537.07 Q1494.95 1536.44 1492.08 1536.44 Q1487.72 1536.44 1485.53 1537.77 Q1483.36 1539.11 1483.36 1541.79 Q1483.36 1543.82 1484.92 1545 Q1486.48 1546.15 1491.19 1547.2 L1493.2 1547.64 Q1499.44 1548.98 1502.05 1551.43 Q1504.69 1553.85 1504.69 1558.21 Q1504.69 1563.17 1500.74 1566.07 Q1496.83 1568.97 1489.95 1568.97 Q1487.09 1568.97 1483.97 1568.39 Q1480.88 1567.85 1477.44 1566.74 L1477.44 1560.69 Q1480.69 1562.38 1483.84 1563.24 Q1486.99 1564.07 1490.08 1564.07 Q1494.22 1564.07 1496.44 1562.66 Q1498.67 1561.23 1498.67 1558.65 Q1498.67 1556.27 1497.05 1554.99 Q1495.46 1553.72 1490.02 1552.54 L1487.98 1552.07 Q1482.54 1550.92 1480.12 1548.56 Q1477.7 1546.18 1477.7 1542.04 Q1477.7 1537.01 1481.26 1534.27 Q1484.83 1531.54 1491.38 1531.54 Q1494.63 1531.54 1497.49 1532.01 Q1500.36 1532.49 1502.78 1533.45 Z" fill="#ffffff" fill-rule="evenodd" fill-opacity="1" /><path clip-path="url(#clip180)" d="M1513.09 1518.58 L1518.18 1518.58 Q1522.96 1526.09 1525.31 1533.29 Q1527.7 1540.48 1527.7 1547.58 Q1527.7 1554.71 1525.31 1561.93 Q1522.96 1569.16 1518.18 1576.64 L1513.09 1576.64 Q1517.32 1569.35 1519.39 1562.16 Q1521.49 1554.93 1521.49 1547.58 Q1521.49 1540.23 1519.39 1533.06 Q1517.32 1525.9 1513.09 1518.58 Z" fill="#ffffff" fill-rule="evenodd" fill-opacity="1" /><polyline clip-path="url(#clip182)" style="stroke:#ffffff; stroke-linecap:round; stroke-linejoin:round; stroke-width:2; stroke-opacity:0.1; fill:none" points="257.204,1384.24 2352.76,1384.24 "/>
<polyline clip-path="url(#clip182)" style="stroke:#ffffff; stroke-linecap:round; stroke-linejoin:round; stroke-width:2; stroke-opacity:0.1; fill:none" points="257.204,1059.73 2352.76,1059.73 "/>
<polyline clip-path="url(#clip182)" style="stroke:#ffffff; stroke-linecap:round; stroke-linejoin:round; stroke-width:2; stroke-opacity:0.1; fill:none" points="257.204,735.212 2352.76,735.212 "/>
<polyline clip-path="url(#clip182)" style="stroke:#ffffff; stroke-linecap:round; stroke-linejoin:round; stroke-width:2; stroke-opacity:0.1; fill:none" points="257.204,410.699 2352.76,410.699 "/>
<polyline clip-path="url(#clip182)" style="stroke:#ffffff; stroke-linecap:round; stroke-linejoin:round; stroke-width:2; stroke-opacity:0.1; fill:none" points="257.204,86.1857 2352.76,86.1857 "/>
<polyline clip-path="url(#clip180)" style="stroke:#ffffff; stroke-linecap:round; stroke-linejoin:round; stroke-width:4; stroke-opacity:1; fill:none" points="257.204,1423.18 257.204,47.2441 "/>
<polyline clip-path="url(#clip180)" style="stroke:#ffffff; stroke-linecap:round; stroke-linejoin:round; stroke-width:4; stroke-opacity:1; fill:none" points="257.204,1384.24 276.102,1384.24 "/>
<polyline clip-path="url(#clip180)" style="stroke:#ffffff; stroke-linecap:round; stroke-linejoin:round; stroke-width:4; stroke-opacity:1; fill:none" points="257.204,1059.73 276.102,1059.73 "/>
<polyline clip-path="url(#clip180)" style="stroke:#ffffff; stroke-linecap:round; stroke-linejoin:round; stroke-width:4; stroke-opacity:1; fill:none" points="257.204,735.212 276.102,735.212 "/>
<polyline clip-path="url(#clip180)" style="stroke:#ffffff; stroke-linecap:round; stroke-linejoin:round; stroke-width:4; stroke-opacity:1; fill:none" points="257.204,410.699 276.102,410.699 "/>
<polyline clip-path="url(#clip180)" style="stroke:#ffffff; stroke-linecap:round; stroke-linejoin:round; stroke-width:4; stroke-opacity:1; fill:none" points="257.204,86.1857 276.102,86.1857 "/>
<path clip-path="url(#clip180)" d="M114.26 1384.69 L143.936 1384.69 L143.936 1388.62 L114.26 1388.62 L114.26 1384.69 Z" fill="#ffffff" fill-rule="evenodd" fill-opacity="1" /><path clip-path="url(#clip180)" d="M154.839 1397.58 L162.477 1397.58 L162.477 1371.22 L154.167 1372.88 L154.167 1368.62 L162.431 1366.96 L167.107 1366.96 L167.107 1397.58 L174.746 1397.58 L174.746 1401.52 L154.839 1401.52 L154.839 1397.58 Z" fill="#ffffff" fill-rule="evenodd" fill-opacity="1" /><path clip-path="url(#clip180)" d="M184.19 1395.64 L189.075 1395.64 L189.075 1401.52 L184.19 1401.52 L184.19 1395.64 Z" fill="#ffffff" fill-rule="evenodd" fill-opacity="1" /><path clip-path="url(#clip180)" d="M209.26 1370.04 Q205.649 1370.04 203.82 1373.6 Q202.014 1377.14 202.014 1384.27 Q202.014 1391.38 203.82 1394.94 Q205.649 1398.49 209.26 1398.49 Q212.894 1398.49 214.699 1394.94 Q216.528 1391.38 216.528 1384.27 Q216.528 1377.14 214.699 1373.6 Q212.894 1370.04 209.26 1370.04 M209.26 1366.33 Q215.07 1366.33 218.125 1370.94 Q221.204 1375.52 221.204 1384.27 Q221.204 1393 218.125 1397.61 Q215.07 1402.19 209.26 1402.19 Q203.449 1402.19 200.371 1397.61 Q197.315 1393 197.315 1384.27 Q197.315 1375.52 200.371 1370.94 Q203.449 1366.33 209.26 1366.33 Z" fill="#ffffff" fill-rule="evenodd" fill-opacity="1" /><path clip-path="url(#clip180)" d="M115.256 1060.18 L144.931 1060.18 L144.931 1064.11 L115.256 1064.11 L115.256 1060.18 Z" fill="#ffffff" fill-rule="evenodd" fill-opacity="1" /><path clip-path="url(#clip180)" d="M165.024 1045.52 Q161.413 1045.52 159.584 1049.09 Q157.778 1052.63 157.778 1059.76 Q157.778 1066.87 159.584 1070.43 Q161.413 1073.97 165.024 1073.97 Q168.658 1073.97 170.464 1070.43 Q172.292 1066.87 172.292 1059.76 Q172.292 1052.63 170.464 1049.09 Q168.658 1045.52 165.024 1045.52 M165.024 1041.82 Q170.834 1041.82 173.889 1046.43 Q176.968 1051.01 176.968 1059.76 Q176.968 1068.49 173.889 1073.09 Q170.834 1077.68 165.024 1077.68 Q159.214 1077.68 156.135 1073.09 Q153.079 1068.49 153.079 1059.76 Q153.079 1051.01 156.135 1046.43 Q159.214 1041.82 165.024 1041.82 Z" fill="#ffffff" fill-rule="evenodd" fill-opacity="1" /><path clip-path="url(#clip180)" d="M185.186 1071.13 L190.07 1071.13 L190.07 1077.01 L185.186 1077.01 L185.186 1071.13 Z" fill="#ffffff" fill-rule="evenodd" fill-opacity="1" /><path clip-path="url(#clip180)" d="M200.301 1042.45 L218.658 1042.45 L218.658 1046.38 L204.584 1046.38 L204.584 1054.85 Q205.602 1054.51 206.621 1054.34 Q207.639 1054.16 208.658 1054.16 Q214.445 1054.16 217.824 1057.33 Q221.204 1060.5 221.204 1065.92 Q221.204 1071.5 217.732 1074.6 Q214.26 1077.68 207.94 1077.68 Q205.764 1077.68 203.496 1077.31 Q201.25 1076.94 198.843 1076.19 L198.843 1071.5 Q200.926 1072.63 203.149 1073.19 Q205.371 1073.74 207.848 1073.74 Q211.852 1073.74 214.19 1071.63 Q216.528 1069.53 216.528 1065.92 Q216.528 1062.31 214.19 1060.2 Q211.852 1058.09 207.848 1058.09 Q205.973 1058.09 204.098 1058.51 Q202.246 1058.93 200.301 1059.81 L200.301 1042.45 Z" fill="#ffffff" fill-rule="evenodd" fill-opacity="1" /><path clip-path="url(#clip180)" d="M164.028 721.011 Q160.417 721.011 158.589 724.575 Q156.783 728.117 156.783 735.247 Q156.783 742.353 158.589 745.918 Q160.417 749.46 164.028 749.46 Q167.663 749.46 169.468 745.918 Q171.297 742.353 171.297 735.247 Q171.297 728.117 169.468 724.575 Q167.663 721.011 164.028 721.011 M164.028 717.307 Q169.839 717.307 172.894 721.913 Q175.973 726.497 175.973 735.247 Q175.973 743.973 172.894 748.58 Q169.839 753.163 164.028 753.163 Q158.218 753.163 155.14 748.58 Q152.084 743.973 152.084 735.247 Q152.084 726.497 155.14 721.913 Q158.218 717.307 164.028 717.307 Z" fill="#ffffff" fill-rule="evenodd" fill-opacity="1" /><path clip-path="url(#clip180)" d="M184.19 746.612 L189.075 746.612 L189.075 752.492 L184.19 752.492 L184.19 746.612 Z" fill="#ffffff" fill-rule="evenodd" fill-opacity="1" /><path clip-path="url(#clip180)" d="M209.26 721.011 Q205.649 721.011 203.82 724.575 Q202.014 728.117 202.014 735.247 Q202.014 742.353 203.82 745.918 Q205.649 749.46 209.26 749.46 Q212.894 749.46 214.699 745.918 Q216.528 742.353 216.528 735.247 Q216.528 728.117 214.699 724.575 Q212.894 721.011 209.26 721.011 M209.26 717.307 Q215.07 717.307 218.125 721.913 Q221.204 726.497 221.204 735.247 Q221.204 743.973 218.125 748.58 Q215.07 753.163 209.26 753.163 Q203.449 753.163 200.371 748.58 Q197.315 743.973 197.315 735.247 Q197.315 726.497 200.371 721.913 Q203.449 717.307 209.26 717.307 Z" fill="#ffffff" fill-rule="evenodd" fill-opacity="1" /><path clip-path="url(#clip180)" d="M165.024 396.498 Q161.413 396.498 159.584 400.062 Q157.778 403.604 157.778 410.734 Q157.778 417.84 159.584 421.405 Q161.413 424.946 165.024 424.946 Q168.658 424.946 170.464 421.405 Q172.292 417.84 172.292 410.734 Q172.292 403.604 170.464 400.062 Q168.658 396.498 165.024 396.498 M165.024 392.794 Q170.834 392.794 173.889 397.4 Q176.968 401.984 176.968 410.734 Q176.968 419.46 173.889 424.067 Q170.834 428.65 165.024 428.65 Q159.214 428.65 156.135 424.067 Q153.079 419.46 153.079 410.734 Q153.079 401.984 156.135 397.4 Q159.214 392.794 165.024 392.794 Z" fill="#ffffff" fill-rule="evenodd" fill-opacity="1" /><path clip-path="url(#clip180)" d="M185.186 422.099 L190.07 422.099 L190.07 427.979 L185.186 427.979 L185.186 422.099 Z" fill="#ffffff" fill-rule="evenodd" fill-opacity="1" /><path clip-path="url(#clip180)" d="M200.301 393.419 L218.658 393.419 L218.658 397.354 L204.584 397.354 L204.584 405.826 Q205.602 405.479 206.621 405.317 Q207.639 405.132 208.658 405.132 Q214.445 405.132 217.824 408.303 Q221.204 411.474 221.204 416.891 Q221.204 422.47 217.732 425.571 Q214.26 428.65 207.94 428.65 Q205.764 428.65 203.496 428.28 Q201.25 427.909 198.843 427.169 L198.843 422.47 Q200.926 423.604 203.149 424.159 Q205.371 424.715 207.848 424.715 Q211.852 424.715 214.19 422.608 Q216.528 420.502 216.528 416.891 Q216.528 413.28 214.19 411.173 Q211.852 409.067 207.848 409.067 Q205.973 409.067 204.098 409.484 Q202.246 409.9 200.301 410.78 L200.301 393.419 Z" fill="#ffffff" fill-rule="evenodd" fill-opacity="1" /><path clip-path="url(#clip180)" d="M154.839 99.5305 L162.477 99.5305 L162.477 73.1649 L154.167 74.8316 L154.167 70.5723 L162.431 68.9057 L167.107 68.9057 L167.107 99.5305 L174.746 99.5305 L174.746 103.466 L154.839 103.466 L154.839 99.5305 Z" fill="#ffffff" fill-rule="evenodd" fill-opacity="1" /><path clip-path="url(#clip180)" d="M184.19 97.5861 L189.075 97.5861 L189.075 103.466 L184.19 103.466 L184.19 97.5861 Z" fill="#ffffff" fill-rule="evenodd" fill-opacity="1" /><path clip-path="url(#clip180)" d="M209.26 71.9844 Q205.649 71.9844 203.82 75.5492 Q202.014 79.0908 202.014 86.2204 Q202.014 93.3268 203.82 96.8916 Q205.649 100.433 209.26 100.433 Q212.894 100.433 214.699 96.8916 Q216.528 93.3268 216.528 86.2204 Q216.528 79.0908 214.699 75.5492 Q212.894 71.9844 209.26 71.9844 M209.26 68.2807 Q215.07 68.2807 218.125 72.8871 Q221.204 77.4704 221.204 86.2204 Q221.204 94.9472 218.125 99.5537 Q215.07 104.137 209.26 104.137 Q203.449 104.137 200.371 99.5537 Q197.315 94.9472 197.315 86.2204 Q197.315 77.4704 200.371 72.8871 Q203.449 68.2807 209.26 68.2807 Z" fill="#ffffff" fill-rule="evenodd" fill-opacity="1" /><path clip-path="url(#clip180)" d="M21.7677 909.537 L39.6235 909.537 L39.6235 901.452 Q39.6235 896.965 37.3 894.514 Q34.9765 892.063 30.6797 892.063 Q26.4147 892.063 24.0912 894.514 Q21.7677 896.965 21.7677 901.452 L21.7677 909.537 M16.4842 915.966 L16.4842 901.452 Q16.4842 893.463 20.1126 889.389 Q23.7092 885.284 30.6797 885.284 Q37.7138 885.284 41.3104 889.389 Q44.907 893.463 44.907 901.452 L44.907 909.537 L64.0042 909.537 L64.0042 915.966 L16.4842 915.966 Z" fill="#ffffff" fill-rule="evenodd" fill-opacity="1" /><path clip-path="url(#clip180)" d="M49.9359 878.663 L28.3562 878.663 L28.3562 872.807 L49.7131 872.807 Q54.7739 872.807 57.3202 870.833 Q59.8346 868.86 59.8346 864.913 Q59.8346 860.171 56.8109 857.434 Q53.7872 854.664 48.5673 854.664 L28.3562 854.664 L28.3562 848.808 L64.0042 848.808 L64.0042 854.664 L58.5296 854.664 Q61.7762 856.797 63.3676 859.63 Q64.9272 862.431 64.9272 866.155 Q64.9272 872.297 61.1078 875.48 Q57.2883 878.663 49.9359 878.663 M27.4968 863.927 L27.4968 863.927 Z" fill="#ffffff" fill-rule="evenodd" fill-opacity="1" /><path clip-path="url(#clip180)" d="M14.479 836.745 L14.479 830.889 L64.0042 830.889 L64.0042 836.745 L14.479 836.745 Z" fill="#ffffff" fill-rule="evenodd" fill-opacity="1" /><path clip-path="url(#clip180)" d="M29.4065 795.909 L34.9447 795.909 Q33.6716 798.392 33.035 801.065 Q32.3984 803.739 32.3984 806.603 Q32.3984 810.964 33.7352 813.16 Q35.072 815.324 37.7456 815.324 Q39.7826 815.324 40.9603 813.765 Q42.1061 812.205 43.1565 807.495 L43.6021 805.489 Q44.9389 799.251 47.3897 796.641 Q49.8086 793.999 54.1691 793.999 Q59.1344 793.999 62.0308 797.946 Q64.9272 801.861 64.9272 808.736 Q64.9272 811.6 64.3543 814.72 Q63.8132 817.807 62.6992 821.244 L56.6518 821.244 Q58.3387 817.998 59.198 814.847 Q60.0256 811.696 60.0256 808.609 Q60.0256 804.471 58.6251 802.243 Q57.1929 800.015 54.6147 800.015 Q52.2276 800.015 50.9545 801.638 Q49.6813 803.23 48.5037 808.672 L48.0262 810.709 Q46.8804 816.152 44.5251 818.571 Q42.138 820.99 38.0002 820.99 Q32.9713 820.99 30.2341 817.425 Q27.4968 813.86 27.4968 807.304 Q27.4968 804.057 27.9743 801.193 Q28.4517 798.328 29.4065 795.909 Z" fill="#ffffff" fill-rule="evenodd" fill-opacity="1" /><path clip-path="url(#clip180)" d="M44.7161 754.182 L47.5806 754.182 L47.5806 781.109 Q53.6281 780.727 56.8109 777.48 Q59.9619 774.202 59.9619 768.377 Q59.9619 765.003 59.1344 761.852 Q58.3069 758.67 56.6518 755.55 L62.1899 755.55 Q63.5267 758.701 64.227 762.012 Q64.9272 765.322 64.9272 768.727 Q64.9272 777.257 59.9619 782.255 Q54.9967 787.22 46.5303 787.22 Q37.7774 787.22 32.6531 782.509 Q27.4968 777.767 27.4968 769.746 Q27.4968 762.553 32.1438 758.383 Q36.7589 754.182 44.7161 754.182 M42.9973 760.038 Q38.1912 760.102 35.3266 762.744 Q32.4621 765.354 32.4621 769.682 Q32.4621 774.584 35.2312 777.544 Q38.0002 780.472 43.0292 780.918 L42.9973 760.038 Z" fill="#ffffff" fill-rule="evenodd" fill-opacity="1" /><path clip-path="url(#clip180)" d="M64.0042 711.341 L16.4842 729.483 L16.4842 722.767 L56.4926 707.712 L16.4842 692.625 L16.4842 685.941 L64.0042 704.052 L64.0042 711.341 Z" fill="#ffffff" fill-rule="evenodd" fill-opacity="1" /><path clip-path="url(#clip180)" d="M46.0847 668.117 Q46.0847 675.215 47.7079 677.952 Q49.3312 680.69 53.2461 680.69 Q56.3653 680.69 58.2114 678.653 Q60.0256 676.584 60.0256 673.051 Q60.0256 668.181 56.5881 665.253 Q53.1188 662.293 47.3897 662.293 L46.0847 662.293 L46.0847 668.117 M43.6657 656.436 L64.0042 656.436 L64.0042 662.293 L58.5933 662.293 Q61.8398 664.298 63.3994 667.29 Q64.9272 670.282 64.9272 674.61 Q64.9272 680.085 61.8716 683.331 Q58.7843 686.546 53.6281 686.546 Q47.6125 686.546 44.5569 682.536 Q41.5014 678.494 41.5014 670.505 L41.5014 662.293 L40.9285 662.293 Q36.8862 662.293 34.6901 664.966 Q32.4621 667.608 32.4621 672.414 Q32.4621 675.47 33.1941 678.366 Q33.9262 681.263 35.3903 683.936 L29.9795 683.936 Q28.7381 680.722 28.1334 677.698 Q27.4968 674.674 27.4968 671.81 Q27.4968 664.075 31.5072 660.256 Q35.5176 656.436 43.6657 656.436 Z" fill="#ffffff" fill-rule="evenodd" fill-opacity="1" /><path clip-path="url(#clip180)" d="M14.479 644.373 L14.479 638.517 L64.0042 638.517 L64.0042 644.373 L14.479 644.373 Z" fill="#ffffff" fill-rule="evenodd" fill-opacity="1" /><path clip-path="url(#clip180)" d="M49.9359 626.868 L28.3562 626.868 L28.3562 621.011 L49.7131 621.011 Q54.7739 621.011 57.3202 619.038 Q59.8346 617.064 59.8346 613.118 Q59.8346 608.375 56.8109 605.638 Q53.7872 602.869 48.5673 602.869 L28.3562 602.869 L28.3562 597.012 L64.0042 597.012 L64.0042 602.869 L58.5296 602.869 Q61.7762 605.001 63.3676 607.834 Q64.9272 610.635 64.9272 614.359 Q64.9272 620.502 61.1078 623.685 Q57.2883 626.868 49.9359 626.868 M27.4968 612.131 L27.4968 612.131 Z" fill="#ffffff" fill-rule="evenodd" fill-opacity="1" /><path clip-path="url(#clip180)" d="M44.7161 554.458 L47.5806 554.458 L47.5806 581.385 Q53.6281 581.003 56.8109 577.756 Q59.9619 574.478 59.9619 568.653 Q59.9619 565.279 59.1344 562.128 Q58.3069 558.946 56.6518 555.826 L62.1899 555.826 Q63.5267 558.977 64.227 562.288 Q64.9272 565.598 64.9272 569.003 Q64.9272 577.533 59.9619 582.53 Q54.9967 587.496 46.5303 587.496 Q37.7774 587.496 32.6531 582.785 Q27.4968 578.043 27.4968 570.022 Q27.4968 562.829 32.1438 558.659 Q36.7589 554.458 44.7161 554.458 M42.9973 560.314 Q38.1912 560.378 35.3266 563.02 Q32.4621 565.63 32.4621 569.958 Q32.4621 574.86 35.2312 577.82 Q38.0002 580.748 43.0292 581.194 L42.9973 560.314 Z" fill="#ffffff" fill-rule="evenodd" fill-opacity="1" /><polyline clip-path="url(#clip182)" style="stroke:#009af9; stroke-linecap:round; stroke-linejoin:round; stroke-width:4; stroke-opacity:1; fill:none" points="316.512,86.1857 322.69,1190.75 328.868,754.325 335.046,246.898 341.224,1379.74 347.402,368.037 353.58,565.181 359.758,1326.61 365.935,156.925 372.113,857.14 378.291,1171.07 384.469,89.7968 390.647,1052.34 396.825,1022.75 403.003,91.4644 409.181,1153.08 415.359,935.772 421.537,103.02 427.715,1180.43 433.893,928.182 440.071,98.6565 446.249,1143.24 452.426,1001.13 458.604,86.516 464.782,1029.86 470.96,1140.76 477.138,108.854 483.316,819.4 489.494,1301.48 495.672,236.553 501.85,516.562 508.028,1384.22 514.206,534.652 520.384,207.344 526.562,1248.82 532.739,976.207 538.917,90.6844 545.095,819.4 551.273,1341.89 557.451,378.615 563.629,276.281 569.807,1272.19 575.985,1001.13 582.163,108.438 588.341,658.927 594.519,1384.19 600.697,652.603 606.875,103.02 613.052,935.772 619.23,1336.65 625.408,457.717 631.586,160.585 637.764,1052.34 643.942,1297.55 650.12,412.54 656.298,166.619 662.476,1029.86 668.654,1326.61 674.832,504.606 681.01,112.762 687.188,861.831 693.365,1381.56 699.543,754.325 705.721,94.9412 711.899,534.652 718.077,1311.31 724.255,1132 730.433,307.679 736.611,168.939 742.789,919.036 748.967,1383.46 755.145,866.514 761.323,156.925 767.501,291.155 773.678,1057.88 779.856,1370.17 786.034,811.497 792.212,153.353 798.39,262.965 804.568,979.162 810.746,1384.24 816.924,987.992 823.102,289.995 829.28,120.459 835.458,658.927 841.636,1279.24 847.814,1298.34 853.992,714.507 860.169,156.925 866.347,192.926 872.525,767.058 878.703,1305.33 884.881,1301.48 891.059,778.19 897.237,221.601 903.415,116.491 909.593,534.652 915.771,1112.82 921.949,1383.96 928.127,1150.63 934.305,608.593 940.482,165.09 946.66,128.536 952.838,506.096 959.016,1029.86 965.194,1358.56 971.372,1298.34 977.55,903.705 983.728,418.084 989.906,115.537 996.084,148.499 1002.26,482.432 1008.44,935.772 1014.62,1286.09 1020.8,1378.96 1026.97,1188.48 1033.15,811.497 1039.33,411.159 1045.51,143.164 1051.69,97.7415 1057.86,276.281 1064.04,603.91 1070.22,965.818 1076.4,1249.8 1082.57,1379.74 1088.75,1331.74 1094.93,1132 1101.11,841.459 1107.29,534.652 1113.46,279.673 1119.64,124.125 1125.82,88.86 1132,168.939 1138.18,339.689 1144.35,565.181 1150.53,806.749 1156.71,1029.86 1162.89,1208.55 1169.07,1327.26 1175.24,1380.63 1181.42,1371.77 1187.6,1309.84 1193.78,1207.46 1199.96,1078.39 1206.13,935.772 1212.31,790.897 1218.49,652.603 1224.67,527.092 1230.84,418.084 1237.02,327.179 1243.2,254.315 1249.38,198.236 1255.56,156.925 1261.73,127.972 1267.91,108.854 1274.09,97.1507 1280.27,90.6844 1286.45,87.6102 1292.62,86.4671 1298.8,86.2033 1304.98,86.1857 1311.16,86.2033 1317.34,86.4671 1323.51,87.6102 1329.69,90.6844 1335.87,97.1507 1342.05,108.854 1348.23,127.972 1354.4,156.925 1360.58,198.236 1366.76,254.315 1372.94,327.179 1379.12,418.084 1385.29,527.092 1391.47,652.603 1397.65,790.897 1403.83,935.772 1410,1078.39 1416.18,1207.46 1422.36,1309.84 1428.54,1371.77 1434.72,1380.63 1440.89,1327.26 1447.07,1208.55 1453.25,1029.86 1459.43,806.749 1465.61,565.181 1471.78,339.689 1477.96,168.939 1484.14,88.86 1490.32,124.125 1496.5,279.673 1502.67,534.652 1508.85,841.459 1515.03,1132 1521.21,1331.74 1527.39,1379.74 1533.56,1249.8 1539.74,965.818 1545.92,603.91 1552.1,276.281 1558.27,97.7415 1564.45,143.164 1570.63,411.159 1576.81,811.497 1582.99,1188.48 1589.16,1378.96 1595.34,1286.09 1601.52,935.772 1607.7,482.432 1613.88,148.499 1620.05,115.537 1626.23,418.084 1632.41,903.705 1638.59,1298.34 1644.77,1358.56 1650.94,1029.86 1657.12,506.096 1663.3,128.536 1669.48,165.09 1675.66,608.593 1681.83,1150.63 1688.01,1383.96 1694.19,1112.82 1700.37,534.652 1706.55,116.491 1712.72,221.601 1718.9,778.19 1725.08,1301.48 1731.26,1305.33 1737.43,767.058 1743.61,192.926 1749.79,156.925 1755.97,714.507 1762.15,1298.34 1768.32,1279.24 1774.5,658.927 1780.68,120.459 1786.86,289.995 1793.04,987.992 1799.21,1384.24 1805.39,979.162 1811.57,262.965 1817.75,153.353 1823.93,811.497 1830.1,1370.17 1836.28,1057.88 1842.46,291.155 1848.64,156.925 1854.82,866.514 1860.99,1383.46 1867.17,919.036 1873.35,168.939 1879.53,307.679 1885.7,1132 1891.88,1311.31 1898.06,534.652 1904.24,94.9412 1910.42,754.325 1916.59,1381.56 1922.77,861.831 1928.95,112.762 1935.13,504.606 1941.31,1326.61 1947.48,1029.86 1953.66,166.619 1959.84,412.54 1966.02,1297.55 1972.2,1052.34 1978.37,160.585 1984.55,457.717 1990.73,1336.65 1996.91,935.772 2003.09,103.02 2009.26,652.603 2015.44,1384.19 2021.62,658.927 2027.8,108.438 2033.98,1001.13 2040.15,1272.19 2046.33,276.281 2052.51,378.615 2058.69,1341.89 2064.86,819.4 2071.04,90.6844 2077.22,976.207 2083.4,1248.82 2089.58,207.344 2095.75,534.652 2101.93,1384.22 2108.11,516.562 2114.29,236.553 2120.47,1301.48 2126.64,819.4 2132.82,108.854 2139,1140.76 2145.18,1029.86 2151.36,86.516 2157.53,1001.13 2163.71,1143.24 2169.89,98.6565 2176.07,928.182 2182.25,1180.43 2188.42,103.02 2194.6,935.772 2200.78,1153.08 2206.96,91.4644 2213.13,1022.75 2219.31,1052.34 2225.49,89.7968 2231.67,1171.07 2237.85,857.14 2244.02,156.925 2250.2,1326.61 2256.38,565.181 2262.56,368.037 2268.74,1379.74 2274.91,246.898 2281.09,754.325 2287.27,1190.75 2293.45,86.1857 "/>
<polyline clip-path="url(#clip182)" style="stroke:#e26f46; stroke-linecap:round; stroke-linejoin:round; stroke-width:4; stroke-opacity:1; fill:none" points="316.512,735.212 322.69,1197.51 328.868,86.4671 335.046,1162.75 341.224,811.497 347.402,200.032 353.58,1361.57 359.758,467.838 365.935,440.56 372.113,1372.68 378.291,254.315 384.469,666.842 390.647,1301.48 396.825,153.353 403.003,817.821 409.181,1231.83 415.359,117.951 421.537,882.073 427.715,1207.46 433.893,115.537 440.071,861.831 446.249,1239.93 452.426,143.164 458.604,755.917 464.782,1313.5 470.96,228.493 477.138,565.181 483.316,1378.75 489.494,418.084 495.672,319.791 501.85,1346.3 508.028,739.991 514.206,117.951 520.384,1112.82 526.562,1132 532.739,132.587 538.917,658.927 545.095,1378.75 551.273,504.606 557.451,192.926 563.629,1194.14 569.807,1099.76 575.985,143.164 582.163,566.719 588.341,1379.74 594.519,727.247 600.697,91.4644 606.875,882.073 613.052,1352.47 619.23,491.262 625.408,148.499 631.586,1036.94 637.764,1301.48 643.942,411.159 650.12,172.08 656.298,1048.16 662.476,1313.5 668.654,467.838 674.832,128.536 681.01,919.036 687.188,1371.77 693.365,676.354 699.543,86.4671 705.721,628.965 711.899,1352.47 718.077,1034.11 724.255,221.601 730.433,246.898 736.611,1052.34 742.789,1357.66 748.967,703.366 755.145,99.6061 761.323,440.56 767.501,1208.55 773.678,1298.34 779.856,600.791 786.034,90.6844 792.212,447.679 798.39,1180.43 804.568,1336.65 810.746,735.212 816.924,137.435 823.102,262.965 829.28,943.332 835.458,1379.74 841.636,1089.14 847.814,412.54 853.992,86.516 860.169,440.56 866.347,1091.81 872.525,1383.46 878.703,1045.37 884.881,418.084 891.059,87.6102 897.237,338.427 903.415,931.222 909.593,1352.47 915.771,1263.08 921.949,754.325 928.127,236.553 934.305,98.6565 940.482,425.057 946.66,965.818 952.838,1342.45 959.016,1313.5 965.194,915.979 971.372,412.54 977.55,108.438 983.728,168.939 989.906,542.242 996.084,1012.71 1002.26,1332.99 1008.44,1352.47 1014.62,1078.39 1020.8,652.603 1026.97,270.684 1033.15,90.6844 1039.33,172.873 1045.51,469.29 1051.69,857.14 1057.86,1194.14 1064.04,1370.82 1070.22,1341.89 1076.4,1130.74 1082.57,811.497 1088.75,479.501 1094.93,221.601 1101.11,94.9412 1107.29,117.951 1113.46,272.914 1119.64,516.562 1125.82,794.07 1132,1052.34 1138.18,1249.8 1144.35,1361.57 1150.53,1380.28 1156.71,1313.5 1162.89,1179.27 1169.07,1001.13 1175.24,803.582 1181.42,608.593 1187.6,433.486 1193.78,289.995 1199.96,184.338 1206.13,117.951 1212.31,88.5789 1218.49,91.4644 1224.67,120.459 1230.84,168.939 1237.02,230.49 1243.2,299.353 1249.38,370.669 1255.56,440.56 1261.73,506.096 1267.91,565.181 1274.09,616.414 1280.27,658.927 1286.45,692.234 1292.62,716.099 1298.8,730.433 1304.98,735.212 1311.16,730.433 1317.34,716.099 1323.51,692.234 1329.69,658.927 1335.87,616.414 1342.05,565.181 1348.23,506.096 1354.4,440.56 1360.58,370.669 1366.76,299.353 1372.94,230.49 1379.12,168.939 1385.29,120.459 1391.47,91.4644 1397.65,88.5789 1403.83,117.951 1410,184.338 1416.18,289.995 1422.36,433.486 1428.54,608.593 1434.72,803.582 1440.89,1001.13 1447.07,1179.27 1453.25,1313.5 1459.43,1380.28 1465.61,1361.57 1471.78,1249.8 1477.96,1052.34 1484.14,794.07 1490.32,516.562 1496.5,272.914 1502.67,117.951 1508.85,94.9412 1515.03,221.601 1521.21,479.501 1527.39,811.497 1533.56,1130.74 1539.74,1341.89 1545.92,1370.82 1552.1,1194.14 1558.27,857.14 1564.45,469.29 1570.63,172.873 1576.81,90.6844 1582.99,270.684 1589.16,652.603 1595.34,1078.39 1601.52,1352.47 1607.7,1332.99 1613.88,1012.71 1620.05,542.242 1626.23,168.939 1632.41,108.438 1638.59,412.54 1644.77,915.979 1650.94,1313.5 1657.12,1342.45 1663.3,965.818 1669.48,425.057 1675.66,98.6565 1681.83,236.553 1688.01,754.325 1694.19,1263.08 1700.37,1352.47 1706.55,931.222 1712.72,338.427 1718.9,87.6102 1725.08,418.084 1731.26,1045.37 1737.43,1383.46 1743.61,1091.81 1749.79,440.56 1755.97,86.516 1762.15,412.54 1768.32,1089.14 1774.5,1379.74 1780.68,943.332 1786.86,262.965 1793.04,137.435 1799.21,735.212 1805.39,1336.65 1811.57,1180.43 1817.75,447.679 1823.93,90.6844 1830.1,600.791 1836.28,1298.34 1842.46,1208.55 1848.64,440.56 1854.82,99.6061 1860.99,703.366 1867.17,1357.66 1873.35,1052.34 1879.53,246.898 1885.7,221.601 1891.88,1034.11 1898.06,1352.47 1904.24,628.965 1910.42,86.4671 1916.59,676.354 1922.77,1371.77 1928.95,919.036 1935.13,128.536 1941.31,467.838 1947.48,1313.5 1953.66,1048.16 1959.84,172.08 1966.02,411.159 1972.2,1301.48 1978.37,1036.94 1984.55,148.499 1990.73,491.262 1996.91,1352.47 2003.09,882.073 2009.26,91.4644 2015.44,727.247 2021.62,1379.74 2027.8,566.719 2033.98,143.164 2040.15,1099.76 2046.33,1194.14 2052.51,192.926 2058.69,504.606 2064.86,1378.75 2071.04,658.927 2077.22,132.587 2083.4,1132 2089.58,1112.82 2095.75,117.951 2101.93,739.991 2108.11,1346.3 2114.29,319.791 2120.47,418.084 2126.64,1378.75 2132.82,565.181 2139,228.493 2145.18,1313.5 2151.36,755.917 2157.53,143.164 2163.71,1239.93 2169.89,861.831 2176.07,115.537 2182.25,1207.46 2188.42,882.073 2194.6,117.951 2200.78,1231.83 2206.96,817.821 2213.13,153.353 2219.31,1301.48 2225.49,666.842 2231.67,254.315 2237.85,1372.68 2244.02,440.56 2250.2,467.838 2256.38,1361.57 2262.56,200.032 2268.74,811.497 2274.91,1162.75 2281.09,86.4671 2287.27,1197.51 2293.45,735.212 "/>
<path clip-path="url(#clip180)" d="M1173.8 1377.32 L1436.16 1377.32 L1436.16 1221.8 L1173.8 1221.8  Z" fill="#000000" fill-rule="evenodd" fill-opacity="0"/>
<polyline clip-path="url(#clip180)" style="stroke:#ffffff; stroke-linecap:round; stroke-linejoin:round; stroke-width:4; stroke-opacity:1; fill:none" points="1173.8,1377.32 1436.16,1377.32 1436.16,1221.8 1173.8,1221.8 1173.8,1377.32 "/>
<polyline clip-path="url(#clip180)" style="stroke:#009af9; stroke-linecap:round; stroke-linejoin:round; stroke-width:4; stroke-opacity:1; fill:none" points="1197.09,1273.64 1336.79,1273.64 "/>
<path clip-path="url(#clip180)" d="M1376.46 1274.71 Q1377.97 1275.22 1379.38 1276.89 Q1380.81 1278.55 1382.25 1281.47 L1386.99 1290.92 L1381.97 1290.92 L1377.55 1282.05 Q1375.84 1278.58 1374.22 1277.44 Q1372.62 1276.31 1369.84 1276.31 L1364.75 1276.31 L1364.75 1290.92 L1360.07 1290.92 L1360.07 1256.36 L1370.63 1256.36 Q1376.55 1256.36 1379.47 1258.83 Q1382.39 1261.31 1382.39 1266.31 Q1382.39 1269.57 1380.86 1271.73 Q1379.36 1273.88 1376.46 1274.71 M1364.75 1260.2 L1364.75 1272.47 L1370.63 1272.47 Q1374.01 1272.47 1375.72 1270.92 Q1377.46 1269.34 1377.46 1266.31 Q1377.46 1263.28 1375.72 1261.75 Q1374.01 1260.2 1370.63 1260.2 L1364.75 1260.2 Z" fill="#ffffff" fill-rule="evenodd" fill-opacity="1" /><path clip-path="url(#clip180)" d="M1412.87 1276.89 L1412.87 1278.97 L1393.29 1278.97 Q1393.57 1283.37 1395.93 1285.68 Q1398.31 1287.98 1402.55 1287.98 Q1405 1287.98 1407.3 1287.37 Q1409.61 1286.77 1411.88 1285.57 L1411.88 1289.6 Q1409.59 1290.57 1407.18 1291.08 Q1404.77 1291.59 1402.3 1291.59 Q1396.09 1291.59 1392.46 1287.98 Q1388.85 1284.36 1388.85 1278.21 Q1388.85 1271.84 1392.27 1268.11 Q1395.72 1264.36 1401.55 1264.36 Q1406.79 1264.36 1409.82 1267.74 Q1412.87 1271.1 1412.87 1276.89 M1408.61 1275.64 Q1408.57 1272.14 1406.65 1270.06 Q1404.75 1267.98 1401.6 1267.98 Q1398.04 1267.98 1395.88 1269.99 Q1393.75 1272 1393.43 1275.66 L1408.61 1275.64 Z" fill="#ffffff" fill-rule="evenodd" fill-opacity="1" /><polyline clip-path="url(#clip180)" style="stroke:#e26f46; stroke-linecap:round; stroke-linejoin:round; stroke-width:4; stroke-opacity:1; fill:none" points="1197.09,1325.48 1336.79,1325.48 "/>
<path clip-path="url(#clip180)" d="M1360.07 1308.2 L1364.75 1308.2 L1364.75 1342.76 L1360.07 1342.76 L1360.07 1308.2 Z" fill="#ffffff" fill-rule="evenodd" fill-opacity="1" /><path clip-path="url(#clip180)" d="M1394.05 1321.81 Q1395.65 1318.94 1397.87 1317.57 Q1400.1 1316.2 1403.11 1316.2 Q1407.16 1316.2 1409.36 1319.05 Q1411.55 1321.88 1411.55 1327.11 L1411.55 1342.76 L1407.27 1342.76 L1407.27 1327.25 Q1407.27 1323.52 1405.95 1321.71 Q1404.63 1319.91 1401.92 1319.91 Q1398.61 1319.91 1396.69 1322.11 Q1394.77 1324.31 1394.77 1328.1 L1394.77 1342.76 L1390.49 1342.76 L1390.49 1327.25 Q1390.49 1323.5 1389.17 1321.71 Q1387.85 1319.91 1385.1 1319.91 Q1381.83 1319.91 1379.91 1322.13 Q1377.99 1324.33 1377.99 1328.1 L1377.99 1342.76 L1373.71 1342.76 L1373.71 1316.83 L1377.99 1316.83 L1377.99 1320.86 Q1379.45 1318.47 1381.49 1317.34 Q1383.52 1316.2 1386.32 1316.2 Q1389.15 1316.2 1391.11 1317.64 Q1393.11 1319.07 1394.05 1321.81 Z" fill="#ffffff" fill-rule="evenodd" fill-opacity="1" /></svg>
