<?xml version="1.0" encoding="utf-8"?>
<svg xmlns="http://www.w3.org/2000/svg" xmlns:xlink="http://www.w3.org/1999/xlink" width="600" height="400" viewBox="0 0 2400 1600">
<defs>
  <clipPath id="clip530">
    <rect x="0" y="0" width="2400" height="1600"/>
  </clipPath>
</defs>
<path clip-path="url(#clip530)" d="M0 1600 L2400 1600 L2400 0 L0 0  Z" fill="#000000" fill-rule="evenodd" fill-opacity="0"/>
<defs>
  <clipPath id="clip531">
    <rect x="480" y="0" width="1681" height="1600"/>
  </clipPath>
</defs>
<path clip-path="url(#clip530)" d="M249.542 1423.18 L2352.76 1423.18 L2352.76 123.472 L249.542 123.472  Z" fill="#000000" fill-rule="evenodd" fill-opacity="0"/>
<defs>
  <clipPath id="clip532">
    <rect x="249" y="123" width="2104" height="1301"/>
  </clipPath>
</defs>
<polyline clip-path="url(#clip532)" style="stroke:#ffffff; stroke-linecap:round; stroke-linejoin:round; stroke-width:2; stroke-opacity:0.1; fill:none" points="565.088,1423.18 565.088,123.472 "/>
<polyline clip-path="url(#clip532)" style="stroke:#ffffff; stroke-linecap:round; stroke-linejoin:round; stroke-width:2; stroke-opacity:0.1; fill:none" points="885.115,1423.18 885.115,123.472 "/>
<polyline clip-path="url(#clip532)" style="stroke:#ffffff; stroke-linecap:round; stroke-linejoin:round; stroke-width:2; stroke-opacity:0.1; fill:none" points="1205.14,1423.18 1205.14,123.472 "/>
<polyline clip-path="url(#clip532)" style="stroke:#ffffff; stroke-linecap:round; stroke-linejoin:round; stroke-width:2; stroke-opacity:0.1; fill:none" points="1525.17,1423.18 1525.17,123.472 "/>
<polyline clip-path="url(#clip532)" style="stroke:#ffffff; stroke-linecap:round; stroke-linejoin:round; stroke-width:2; stroke-opacity:0.1; fill:none" points="1845.19,1423.18 1845.19,123.472 "/>
<polyline clip-path="url(#clip532)" style="stroke:#ffffff; stroke-linecap:round; stroke-linejoin:round; stroke-width:2; stroke-opacity:0.1; fill:none" points="2165.22,1423.18 2165.22,123.472 "/>
<polyline clip-path="url(#clip530)" style="stroke:#ffffff; stroke-linecap:round; stroke-linejoin:round; stroke-width:4; stroke-opacity:1; fill:none" points="249.542,1423.18 2352.76,1423.18 "/>
<polyline clip-path="url(#clip530)" style="stroke:#ffffff; stroke-linecap:round; stroke-linejoin:round; stroke-width:4; stroke-opacity:1; fill:none" points="565.088,1423.18 565.088,1404.28 "/>
<polyline clip-path="url(#clip530)" style="stroke:#ffffff; stroke-linecap:round; stroke-linejoin:round; stroke-width:4; stroke-opacity:1; fill:none" points="885.115,1423.18 885.115,1404.28 "/>
<polyline clip-path="url(#clip530)" style="stroke:#ffffff; stroke-linecap:round; stroke-linejoin:round; stroke-width:4; stroke-opacity:1; fill:none" points="1205.14,1423.18 1205.14,1404.28 "/>
<polyline clip-path="url(#clip530)" style="stroke:#ffffff; stroke-linecap:round; stroke-linejoin:round; stroke-width:4; stroke-opacity:1; fill:none" points="1525.17,1423.18 1525.17,1404.28 "/>
<polyline clip-path="url(#clip530)" style="stroke:#ffffff; stroke-linecap:round; stroke-linejoin:round; stroke-width:4; stroke-opacity:1; fill:none" points="1845.19,1423.18 1845.19,1404.28 "/>
<polyline clip-path="url(#clip530)" style="stroke:#ffffff; stroke-linecap:round; stroke-linejoin:round; stroke-width:4; stroke-opacity:1; fill:none" points="2165.22,1423.18 2165.22,1404.28 "/>
<path clip-path="url(#clip530)" d="M555.366 1451.02 L573.722 1451.02 L573.722 1454.96 L559.648 1454.96 L559.648 1463.43 Q560.667 1463.08 561.685 1462.92 Q562.704 1462.73 563.722 1462.73 Q569.509 1462.73 572.889 1465.9 Q576.269 1469.08 576.269 1474.49 Q576.269 1480.07 572.796 1483.17 Q569.324 1486.25 563.005 1486.25 Q560.829 1486.25 558.56 1485.88 Q556.315 1485.51 553.908 1484.77 L553.908 1480.07 Q555.991 1481.2 558.213 1481.76 Q560.435 1482.32 562.912 1482.32 Q566.917 1482.32 569.255 1480.21 Q571.593 1478.1 571.593 1474.49 Q571.593 1470.88 569.255 1468.77 Q566.917 1466.67 562.912 1466.67 Q561.037 1466.67 559.162 1467.08 Q557.31 1467.5 555.366 1468.38 L555.366 1451.02 Z" fill="#ffffff" fill-rule="evenodd" fill-opacity="1" /><path clip-path="url(#clip530)" d="M859.802 1481.64 L867.441 1481.64 L867.441 1455.28 L859.131 1456.95 L859.131 1452.69 L867.395 1451.02 L872.071 1451.02 L872.071 1481.64 L879.71 1481.64 L879.71 1485.58 L859.802 1485.58 L859.802 1481.64 Z" fill="#ffffff" fill-rule="evenodd" fill-opacity="1" /><path clip-path="url(#clip530)" d="M899.154 1454.1 Q895.543 1454.1 893.714 1457.66 Q891.909 1461.2 891.909 1468.33 Q891.909 1475.44 893.714 1479.01 Q895.543 1482.55 899.154 1482.55 Q902.788 1482.55 904.594 1479.01 Q906.422 1475.44 906.422 1468.33 Q906.422 1461.2 904.594 1457.66 Q902.788 1454.1 899.154 1454.1 M899.154 1450.39 Q904.964 1450.39 908.02 1455 Q911.098 1459.58 911.098 1468.33 Q911.098 1477.06 908.02 1481.67 Q904.964 1486.25 899.154 1486.25 Q893.344 1486.25 890.265 1481.67 Q887.209 1477.06 887.209 1468.33 Q887.209 1459.58 890.265 1455 Q893.344 1450.39 899.154 1450.39 Z" fill="#ffffff" fill-rule="evenodd" fill-opacity="1" /><path clip-path="url(#clip530)" d="M1180.33 1481.64 L1187.97 1481.64 L1187.97 1455.28 L1179.66 1456.95 L1179.66 1452.69 L1187.92 1451.02 L1192.59 1451.02 L1192.59 1481.64 L1200.23 1481.64 L1200.23 1485.58 L1180.33 1485.58 L1180.33 1481.64 Z" fill="#ffffff" fill-rule="evenodd" fill-opacity="1" /><path clip-path="url(#clip530)" d="M1209.72 1451.02 L1228.08 1451.02 L1228.08 1454.96 L1214.01 1454.96 L1214.01 1463.43 Q1215.03 1463.08 1216.04 1462.92 Q1217.06 1462.73 1218.08 1462.73 Q1223.87 1462.73 1227.25 1465.9 Q1230.63 1469.08 1230.63 1474.49 Q1230.63 1480.07 1227.15 1483.17 Q1223.68 1486.25 1217.36 1486.25 Q1215.19 1486.25 1212.92 1485.88 Q1210.67 1485.51 1208.27 1484.77 L1208.27 1480.07 Q1210.35 1481.2 1212.57 1481.76 Q1214.79 1482.32 1217.27 1482.32 Q1221.28 1482.32 1223.61 1480.21 Q1225.95 1478.1 1225.95 1474.49 Q1225.95 1470.88 1223.61 1468.77 Q1221.28 1466.67 1217.27 1466.67 Q1215.4 1466.67 1213.52 1467.08 Q1211.67 1467.5 1209.72 1468.38 L1209.72 1451.02 Z" fill="#ffffff" fill-rule="evenodd" fill-opacity="1" /><path clip-path="url(#clip530)" d="M1503.94 1481.64 L1520.26 1481.64 L1520.26 1485.58 L1498.32 1485.58 L1498.32 1481.64 Q1500.98 1478.89 1505.56 1474.26 Q1510.17 1469.61 1511.35 1468.27 Q1513.59 1465.74 1514.47 1464.01 Q1515.38 1462.25 1515.38 1460.56 Q1515.38 1457.8 1513.43 1456.07 Q1511.51 1454.33 1508.41 1454.33 Q1506.21 1454.33 1503.76 1455.09 Q1501.33 1455.86 1498.55 1457.41 L1498.55 1452.69 Q1501.37 1451.55 1503.83 1450.97 Q1506.28 1450.39 1508.32 1450.39 Q1513.69 1450.39 1516.88 1453.08 Q1520.07 1455.77 1520.07 1460.26 Q1520.07 1462.39 1519.26 1464.31 Q1518.48 1466.2 1516.37 1468.8 Q1515.79 1469.47 1512.69 1472.69 Q1509.59 1475.88 1503.94 1481.64 Z" fill="#ffffff" fill-rule="evenodd" fill-opacity="1" /><path clip-path="url(#clip530)" d="M1540.07 1454.1 Q1536.46 1454.1 1534.64 1457.66 Q1532.83 1461.2 1532.83 1468.33 Q1532.83 1475.44 1534.64 1479.01 Q1536.46 1482.55 1540.07 1482.55 Q1543.71 1482.55 1545.51 1479.01 Q1547.34 1475.44 1547.34 1468.33 Q1547.34 1461.2 1545.51 1457.66 Q1543.71 1454.1 1540.07 1454.1 M1540.07 1450.39 Q1545.88 1450.39 1548.94 1455 Q1552.02 1459.58 1552.02 1468.33 Q1552.02 1477.06 1548.94 1481.67 Q1545.88 1486.25 1540.07 1486.25 Q1534.26 1486.25 1531.19 1481.67 Q1528.13 1477.06 1528.13 1468.33 Q1528.13 1459.58 1531.19 1455 Q1534.26 1450.39 1540.07 1450.39 Z" fill="#ffffff" fill-rule="evenodd" fill-opacity="1" /><path clip-path="url(#clip530)" d="M1824.46 1481.64 L1840.78 1481.64 L1840.78 1485.58 L1818.84 1485.58 L1818.84 1481.64 Q1821.5 1478.89 1826.09 1474.26 Q1830.69 1469.61 1831.87 1468.27 Q1834.12 1465.74 1835 1464.01 Q1835.9 1462.25 1835.9 1460.56 Q1835.9 1457.8 1833.96 1456.07 Q1832.03 1454.33 1828.93 1454.33 Q1826.73 1454.33 1824.28 1455.09 Q1821.85 1455.86 1819.07 1457.41 L1819.07 1452.69 Q1821.9 1451.55 1824.35 1450.97 Q1826.8 1450.39 1828.84 1450.39 Q1834.21 1450.39 1837.4 1453.08 Q1840.6 1455.77 1840.6 1460.26 Q1840.6 1462.39 1839.79 1464.31 Q1839 1466.2 1836.9 1468.8 Q1836.32 1469.47 1833.21 1472.69 Q1830.11 1475.88 1824.46 1481.64 Z" fill="#ffffff" fill-rule="evenodd" fill-opacity="1" /><path clip-path="url(#clip530)" d="M1850.65 1451.02 L1869 1451.02 L1869 1454.96 L1854.93 1454.96 L1854.93 1463.43 Q1855.95 1463.08 1856.96 1462.92 Q1857.98 1462.73 1859 1462.73 Q1864.79 1462.73 1868.17 1465.9 Q1871.55 1469.08 1871.55 1474.49 Q1871.55 1480.07 1868.08 1483.17 Q1864.6 1486.25 1858.28 1486.25 Q1856.11 1486.25 1853.84 1485.88 Q1851.59 1485.51 1849.19 1484.77 L1849.19 1480.07 Q1851.27 1481.2 1853.49 1481.76 Q1855.71 1482.32 1858.19 1482.32 Q1862.2 1482.32 1864.53 1480.21 Q1866.87 1478.1 1866.87 1474.49 Q1866.87 1470.88 1864.53 1468.77 Q1862.2 1466.67 1858.19 1466.67 Q1856.32 1466.67 1854.44 1467.08 Q1852.59 1467.5 1850.65 1468.38 L1850.65 1451.02 Z" fill="#ffffff" fill-rule="evenodd" fill-opacity="1" /><path clip-path="url(#clip530)" d="M2154.06 1466.95 Q2157.42 1467.66 2159.29 1469.93 Q2161.19 1472.2 2161.19 1475.53 Q2161.19 1480.65 2157.67 1483.45 Q2154.16 1486.25 2147.67 1486.25 Q2145.5 1486.25 2143.18 1485.81 Q2140.89 1485.39 2138.44 1484.54 L2138.44 1480.02 Q2140.38 1481.16 2142.7 1481.74 Q2145.01 1482.32 2147.54 1482.32 Q2151.93 1482.32 2154.23 1480.58 Q2156.54 1478.84 2156.54 1475.53 Q2156.54 1472.48 2154.39 1470.77 Q2152.26 1469.03 2148.44 1469.03 L2144.41 1469.03 L2144.41 1465.19 L2148.62 1465.19 Q2152.07 1465.19 2153.9 1463.82 Q2155.73 1462.43 2155.73 1459.84 Q2155.73 1457.18 2153.83 1455.77 Q2151.96 1454.33 2148.44 1454.33 Q2146.52 1454.33 2144.32 1454.75 Q2142.12 1455.16 2139.48 1456.04 L2139.48 1451.88 Q2142.14 1451.14 2144.46 1450.77 Q2146.79 1450.39 2148.85 1450.39 Q2154.18 1450.39 2157.28 1452.83 Q2160.38 1455.23 2160.38 1459.35 Q2160.38 1462.22 2158.74 1464.21 Q2157.1 1466.18 2154.06 1466.95 Z" fill="#ffffff" fill-rule="evenodd" fill-opacity="1" /><path clip-path="url(#clip530)" d="M2180.06 1454.1 Q2176.45 1454.1 2174.62 1457.66 Q2172.81 1461.2 2172.81 1468.33 Q2172.81 1475.44 2174.62 1479.01 Q2176.45 1482.55 2180.06 1482.55 Q2183.69 1482.55 2185.5 1479.01 Q2187.33 1475.44 2187.33 1468.33 Q2187.33 1461.2 2185.5 1457.66 Q2183.69 1454.1 2180.06 1454.1 M2180.06 1450.39 Q2185.87 1450.39 2188.92 1455 Q2192 1459.58 2192 1468.33 Q2192 1477.06 2188.92 1481.67 Q2185.87 1486.25 2180.06 1486.25 Q2174.25 1486.25 2171.17 1481.67 Q2168.11 1477.06 2168.11 1468.33 Q2168.11 1459.58 2171.17 1455 Q2174.25 1450.39 2180.06 1450.39 Z" fill="#ffffff" fill-rule="evenodd" fill-opacity="1" /><path clip-path="url(#clip530)" d="M1210.55 1524.18 L1210.55 1530.96 Q1207.3 1527.94 1203.61 1526.44 Q1199.95 1524.95 1195.81 1524.95 Q1187.66 1524.95 1183.34 1529.95 Q1179.01 1534.91 1179.01 1544.33 Q1179.01 1553.72 1183.34 1558.72 Q1187.66 1563.68 1195.81 1563.68 Q1199.95 1563.68 1203.61 1562.19 Q1207.3 1560.69 1210.55 1557.67 L1210.55 1564.38 Q1207.18 1566.68 1203.39 1567.82 Q1199.63 1568.97 1195.43 1568.97 Q1184.64 1568.97 1178.43 1562.38 Q1172.23 1555.76 1172.23 1544.33 Q1172.23 1532.87 1178.43 1526.28 Q1184.64 1519.66 1195.43 1519.66 Q1199.7 1519.66 1203.45 1520.81 Q1207.24 1521.92 1210.55 1524.18 Z" fill="#ffffff" fill-rule="evenodd" fill-opacity="1" /><path clip-path="url(#clip530)" d="M1249.86 1546.53 L1249.86 1568.04 L1244 1568.04 L1244 1546.72 Q1244 1541.66 1242.03 1539.14 Q1240.05 1536.63 1236.11 1536.63 Q1231.36 1536.63 1228.63 1539.65 Q1225.89 1542.68 1225.89 1547.9 L1225.89 1568.04 L1220 1568.04 L1220 1518.52 L1225.89 1518.52 L1225.89 1537.93 Q1227.99 1534.72 1230.82 1533.13 Q1233.69 1531.54 1237.41 1531.54 Q1243.56 1531.54 1246.71 1535.36 Q1249.86 1539.14 1249.86 1546.53 Z" fill="#ffffff" fill-rule="evenodd" fill-opacity="1" /><path clip-path="url(#clip530)" d="M1277.74 1550.12 Q1270.64 1550.12 1267.9 1551.75 Q1265.17 1553.37 1265.17 1557.29 Q1265.17 1560.4 1267.2 1562.25 Q1269.27 1564.07 1272.81 1564.07 Q1277.68 1564.07 1280.6 1560.63 Q1283.56 1557.16 1283.56 1551.43 L1283.56 1550.12 L1277.74 1550.12 M1289.42 1547.71 L1289.42 1568.04 L1283.56 1568.04 L1283.56 1562.63 Q1281.56 1565.88 1278.57 1567.44 Q1275.57 1568.97 1271.25 1568.97 Q1265.77 1568.97 1262.53 1565.91 Q1259.31 1562.82 1259.31 1557.67 Q1259.31 1551.65 1263.32 1548.6 Q1267.36 1545.54 1275.35 1545.54 L1283.56 1545.54 L1283.56 1544.97 Q1283.56 1540.93 1280.89 1538.73 Q1278.25 1536.5 1273.44 1536.5 Q1270.39 1536.5 1267.49 1537.23 Q1264.59 1537.97 1261.92 1539.43 L1261.92 1534.02 Q1265.13 1532.78 1268.16 1532.17 Q1271.18 1531.54 1274.05 1531.54 Q1281.78 1531.54 1285.6 1535.55 Q1289.42 1539.56 1289.42 1547.71 Z" fill="#ffffff" fill-rule="evenodd" fill-opacity="1" /><path clip-path="url(#clip530)" d="M1331.12 1546.53 L1331.12 1568.04 L1325.26 1568.04 L1325.26 1546.72 Q1325.26 1541.66 1323.29 1539.14 Q1321.31 1536.63 1317.37 1536.63 Q1312.62 1536.63 1309.89 1539.65 Q1307.15 1542.68 1307.15 1547.9 L1307.15 1568.04 L1301.26 1568.04 L1301.26 1532.4 L1307.15 1532.4 L1307.15 1537.93 Q1309.25 1534.72 1312.08 1533.13 Q1314.95 1531.54 1318.67 1531.54 Q1324.81 1531.54 1327.96 1535.36 Q1331.12 1539.14 1331.12 1546.53 Z" fill="#ffffff" fill-rule="evenodd" fill-opacity="1" /><path clip-path="url(#clip530)" d="M1372.43 1546.53 L1372.43 1568.04 L1366.57 1568.04 L1366.57 1546.72 Q1366.57 1541.66 1364.6 1539.14 Q1362.63 1536.63 1358.68 1536.63 Q1353.94 1536.63 1351.2 1539.65 Q1348.46 1542.68 1348.46 1547.9 L1348.46 1568.04 L1342.57 1568.04 L1342.57 1532.4 L1348.46 1532.4 L1348.46 1537.93 Q1350.56 1534.72 1353.4 1533.13 Q1356.26 1531.54 1359.98 1531.54 Q1366.13 1531.54 1369.28 1535.36 Q1372.43 1539.14 1372.43 1546.53 Z" fill="#ffffff" fill-rule="evenodd" fill-opacity="1" /><path clip-path="url(#clip530)" d="M1414.6 1548.76 L1414.6 1551.62 L1387.67 1551.62 Q1388.06 1557.67 1391.3 1560.85 Q1394.58 1564 1400.41 1564 Q1403.78 1564 1406.93 1563.17 Q1410.11 1562.35 1413.23 1560.69 L1413.23 1566.23 Q1410.08 1567.57 1406.77 1568.27 Q1403.46 1568.97 1400.06 1568.97 Q1391.53 1568.97 1386.53 1564 Q1381.56 1559.04 1381.56 1550.57 Q1381.56 1541.82 1386.27 1536.69 Q1391.02 1531.54 1399.04 1531.54 Q1406.23 1531.54 1410.4 1536.18 Q1414.6 1540.8 1414.6 1548.76 M1408.75 1547.04 Q1408.68 1542.23 1406.04 1539.37 Q1403.43 1536.5 1399.1 1536.5 Q1394.2 1536.5 1391.24 1539.27 Q1388.31 1542.04 1387.87 1547.07 L1408.75 1547.04 Z" fill="#ffffff" fill-rule="evenodd" fill-opacity="1" /><path clip-path="url(#clip530)" d="M1424.21 1518.52 L1430.07 1518.52 L1430.07 1568.04 L1424.21 1568.04 L1424.21 1518.52 Z" fill="#ffffff" fill-rule="evenodd" fill-opacity="1" /><polyline clip-path="url(#clip532)" style="stroke:#ffffff; stroke-linecap:round; stroke-linejoin:round; stroke-width:2; stroke-opacity:0.1; fill:none" points="249.542,1354.41 2352.76,1354.41 "/>
<polyline clip-path="url(#clip532)" style="stroke:#ffffff; stroke-linecap:round; stroke-linejoin:round; stroke-width:2; stroke-opacity:0.1; fill:none" points="249.542,1013.22 2352.76,1013.22 "/>
<polyline clip-path="url(#clip532)" style="stroke:#ffffff; stroke-linecap:round; stroke-linejoin:round; stroke-width:2; stroke-opacity:0.1; fill:none" points="249.542,672.036 2352.76,672.036 "/>
<polyline clip-path="url(#clip532)" style="stroke:#ffffff; stroke-linecap:round; stroke-linejoin:round; stroke-width:2; stroke-opacity:0.1; fill:none" points="249.542,330.85 2352.76,330.85 "/>
<polyline clip-path="url(#clip530)" style="stroke:#ffffff; stroke-linecap:round; stroke-linejoin:round; stroke-width:4; stroke-opacity:1; fill:none" points="249.542,1423.18 249.542,123.472 "/>
<polyline clip-path="url(#clip530)" style="stroke:#ffffff; stroke-linecap:round; stroke-linejoin:round; stroke-width:4; stroke-opacity:1; fill:none" points="249.542,1354.41 268.44,1354.41 "/>
<polyline clip-path="url(#clip530)" style="stroke:#ffffff; stroke-linecap:round; stroke-linejoin:round; stroke-width:4; stroke-opacity:1; fill:none" points="249.542,1013.22 268.44,1013.22 "/>
<polyline clip-path="url(#clip530)" style="stroke:#ffffff; stroke-linecap:round; stroke-linejoin:round; stroke-width:4; stroke-opacity:1; fill:none" points="249.542,672.036 268.44,672.036 "/>
<polyline clip-path="url(#clip530)" style="stroke:#ffffff; stroke-linecap:round; stroke-linejoin:round; stroke-width:4; stroke-opacity:1; fill:none" points="249.542,330.85 268.44,330.85 "/>
<path clip-path="url(#clip530)" d="M130.464 1353.06 Q133.82 1353.77 135.695 1356.04 Q137.593 1358.31 137.593 1361.64 Q137.593 1366.76 134.075 1369.56 Q130.556 1372.36 124.075 1372.36 Q121.899 1372.36 119.584 1371.92 Q117.293 1371.5 114.839 1370.65 L114.839 1366.13 Q116.783 1367.27 119.098 1367.85 Q121.413 1368.43 123.936 1368.43 Q128.334 1368.43 130.626 1366.69 Q132.941 1364.95 132.941 1361.64 Q132.941 1358.59 130.788 1356.87 Q128.658 1355.14 124.839 1355.14 L120.811 1355.14 L120.811 1351.3 L125.024 1351.3 Q128.473 1351.3 130.302 1349.93 Q132.13 1348.54 132.13 1345.95 Q132.13 1343.29 130.232 1341.87 Q128.357 1340.44 124.839 1340.44 Q122.918 1340.44 120.718 1340.86 Q118.519 1341.27 115.881 1342.15 L115.881 1337.99 Q118.543 1337.25 120.857 1336.87 Q123.195 1336.5 125.255 1336.5 Q130.58 1336.5 133.681 1338.93 Q136.783 1341.34 136.783 1345.46 Q136.783 1348.33 135.14 1350.32 Q133.496 1352.29 130.464 1353.06 Z" fill="#ffffff" fill-rule="evenodd" fill-opacity="1" /><path clip-path="url(#clip530)" d="M146.459 1365.81 L151.343 1365.81 L151.343 1371.69 L146.459 1371.69 L146.459 1365.81 Z" fill="#ffffff" fill-rule="evenodd" fill-opacity="1" /><path clip-path="url(#clip530)" d="M161.575 1337.13 L179.931 1337.13 L179.931 1341.06 L165.857 1341.06 L165.857 1349.54 Q166.876 1349.19 167.894 1349.03 Q168.913 1348.84 169.931 1348.84 Q175.718 1348.84 179.098 1352.01 Q182.477 1355.18 182.477 1360.6 Q182.477 1366.18 179.005 1369.28 Q175.533 1372.36 169.214 1372.36 Q167.038 1372.36 164.769 1371.99 Q162.524 1371.62 160.116 1370.88 L160.116 1366.18 Q162.2 1367.31 164.422 1367.87 Q166.644 1368.43 169.121 1368.43 Q173.126 1368.43 175.464 1366.32 Q177.801 1364.21 177.801 1360.6 Q177.801 1356.99 175.464 1354.88 Q173.126 1352.78 169.121 1352.78 Q167.246 1352.78 165.371 1353.19 Q163.519 1353.61 161.575 1354.49 L161.575 1337.13 Z" fill="#ffffff" fill-rule="evenodd" fill-opacity="1" /><path clip-path="url(#clip530)" d="M201.69 1355.28 Q198.357 1355.28 196.436 1357.06 Q194.538 1358.84 194.538 1361.97 Q194.538 1365.09 196.436 1366.87 Q198.357 1368.66 201.69 1368.66 Q205.024 1368.66 206.945 1366.87 Q208.866 1365.07 208.866 1361.97 Q208.866 1358.84 206.945 1357.06 Q205.047 1355.28 201.69 1355.28 M197.014 1353.29 Q194.005 1352.55 192.315 1350.49 Q190.649 1348.43 190.649 1345.46 Q190.649 1341.32 193.588 1338.91 Q196.551 1336.5 201.69 1336.5 Q206.852 1336.5 209.792 1338.91 Q212.732 1341.32 212.732 1345.46 Q212.732 1348.43 211.042 1350.49 Q209.375 1352.55 206.389 1353.29 Q209.769 1354.07 211.644 1356.37 Q213.542 1358.66 213.542 1361.97 Q213.542 1366.99 210.463 1369.68 Q207.408 1372.36 201.69 1372.36 Q195.973 1372.36 192.894 1369.68 Q189.838 1366.99 189.838 1361.97 Q189.838 1358.66 191.737 1356.37 Q193.635 1354.07 197.014 1353.29 M195.301 1345.9 Q195.301 1348.59 196.968 1350.09 Q198.658 1351.6 201.69 1351.6 Q204.699 1351.6 206.389 1350.09 Q208.102 1348.59 208.102 1345.9 Q208.102 1343.22 206.389 1341.71 Q204.699 1340.21 201.69 1340.21 Q198.658 1340.21 196.968 1341.71 Q195.301 1343.22 195.301 1345.9 Z" fill="#ffffff" fill-rule="evenodd" fill-opacity="1" /><path clip-path="url(#clip530)" d="M130.371 1011.87 Q133.728 1012.59 135.603 1014.85 Q137.501 1017.12 137.501 1020.46 Q137.501 1025.57 133.982 1028.37 Q130.464 1031.17 123.982 1031.17 Q121.806 1031.17 119.492 1030.73 Q117.2 1030.32 114.746 1029.46 L114.746 1024.95 Q116.691 1026.08 119.006 1026.66 Q121.32 1027.24 123.843 1027.24 Q128.242 1027.24 130.533 1025.5 Q132.848 1023.77 132.848 1020.46 Q132.848 1017.4 130.695 1015.69 Q128.566 1013.95 124.746 1013.95 L120.718 1013.95 L120.718 1010.11 L124.931 1010.11 Q128.38 1010.11 130.209 1008.74 Q132.038 1007.35 132.038 1004.76 Q132.038 1002.1 130.14 1000.69 Q128.265 999.253 124.746 999.253 Q122.825 999.253 120.626 999.67 Q118.427 1000.09 115.788 1000.97 L115.788 996.799 Q118.45 996.059 120.765 995.688 Q123.103 995.318 125.163 995.318 Q130.487 995.318 133.589 997.748 Q136.691 1000.16 136.691 1004.28 Q136.691 1007.15 135.047 1009.14 Q133.404 1011.1 130.371 1011.87 Z" fill="#ffffff" fill-rule="evenodd" fill-opacity="1" /><path clip-path="url(#clip530)" d="M146.366 1024.62 L151.251 1024.62 L151.251 1030.5 L146.366 1030.5 L146.366 1024.62 Z" fill="#ffffff" fill-rule="evenodd" fill-opacity="1" /><path clip-path="url(#clip530)" d="M172.014 1011.36 Q168.866 1011.36 167.015 1013.51 Q165.186 1015.66 165.186 1019.41 Q165.186 1023.14 167.015 1025.32 Q168.866 1027.47 172.014 1027.47 Q175.163 1027.47 176.991 1025.32 Q178.843 1023.14 178.843 1019.41 Q178.843 1015.66 176.991 1013.51 Q175.163 1011.36 172.014 1011.36 M181.297 996.707 L181.297 1000.97 Q179.538 1000.13 177.732 999.693 Q175.95 999.253 174.19 999.253 Q169.561 999.253 167.107 1002.38 Q164.677 1005.5 164.329 1011.82 Q165.695 1009.81 167.755 1008.74 Q169.815 1007.66 172.292 1007.66 Q177.501 1007.66 180.51 1010.83 Q183.542 1013.98 183.542 1019.41 Q183.542 1024.74 180.394 1027.96 Q177.246 1031.17 172.014 1031.17 Q166.019 1031.17 162.848 1026.59 Q159.677 1021.98 159.677 1013.26 Q159.677 1005.06 163.565 1000.2 Q167.454 995.318 174.005 995.318 Q175.764 995.318 177.547 995.665 Q179.352 996.012 181.297 996.707 Z" fill="#ffffff" fill-rule="evenodd" fill-opacity="1" /><path clip-path="url(#clip530)" d="M201.598 999.022 Q197.987 999.022 196.158 1002.59 Q194.352 1006.13 194.352 1013.26 Q194.352 1020.36 196.158 1023.93 Q197.987 1027.47 201.598 1027.47 Q205.232 1027.47 207.037 1023.93 Q208.866 1020.36 208.866 1013.26 Q208.866 1006.13 207.037 1002.59 Q205.232 999.022 201.598 999.022 M201.598 995.318 Q207.408 995.318 210.463 999.924 Q213.542 1004.51 213.542 1013.26 Q213.542 1021.98 210.463 1026.59 Q207.408 1031.17 201.598 1031.17 Q195.787 1031.17 192.709 1026.59 Q189.653 1021.98 189.653 1013.26 Q189.653 1004.51 192.709 999.924 Q195.787 995.318 201.598 995.318 Z" fill="#ffffff" fill-rule="evenodd" fill-opacity="1" /><path clip-path="url(#clip530)" d="M131.968 670.682 Q135.325 671.4 137.2 673.668 Q139.098 675.937 139.098 679.27 Q139.098 684.386 135.579 687.187 Q132.061 689.988 125.58 689.988 Q123.404 689.988 121.089 689.548 Q118.797 689.131 116.343 688.275 L116.343 683.761 Q118.288 684.895 120.603 685.474 Q122.918 686.052 125.441 686.052 Q129.839 686.052 132.13 684.316 Q134.445 682.58 134.445 679.27 Q134.445 676.214 132.292 674.501 Q130.163 672.765 126.343 672.765 L122.316 672.765 L122.316 668.923 L126.529 668.923 Q129.978 668.923 131.806 667.557 Q133.635 666.168 133.635 663.576 Q133.635 660.914 131.737 659.502 Q129.862 658.066 126.343 658.066 Q124.422 658.066 122.223 658.483 Q120.024 658.9 117.385 659.779 L117.385 655.613 Q120.047 654.872 122.362 654.502 Q124.7 654.131 126.76 654.131 Q132.084 654.131 135.186 656.562 Q138.288 658.969 138.288 663.09 Q138.288 665.96 136.644 667.951 Q135.001 669.918 131.968 670.682 Z" fill="#ffffff" fill-rule="evenodd" fill-opacity="1" /><path clip-path="url(#clip530)" d="M147.964 683.437 L152.848 683.437 L152.848 689.316 L147.964 689.316 L147.964 683.437 Z" fill="#ffffff" fill-rule="evenodd" fill-opacity="1" /><path clip-path="url(#clip530)" d="M173.612 670.173 Q170.464 670.173 168.612 672.326 Q166.783 674.478 166.783 678.228 Q166.783 681.955 168.612 684.131 Q170.464 686.284 173.612 686.284 Q176.76 686.284 178.589 684.131 Q180.44 681.955 180.44 678.228 Q180.44 674.478 178.589 672.326 Q176.76 670.173 173.612 670.173 M182.894 655.52 L182.894 659.779 Q181.135 658.946 179.329 658.506 Q177.547 658.066 175.788 658.066 Q171.158 658.066 168.704 661.191 Q166.274 664.316 165.927 670.636 Q167.292 668.622 169.352 667.557 Q171.413 666.469 173.889 666.469 Q179.098 666.469 182.107 669.64 Q185.139 672.789 185.139 678.228 Q185.139 683.552 181.991 686.77 Q178.843 689.988 173.612 689.988 Q167.616 689.988 164.445 685.404 Q161.274 680.798 161.274 672.071 Q161.274 663.877 165.163 659.015 Q169.052 654.131 175.602 654.131 Q177.362 654.131 179.144 654.478 Q180.95 654.826 182.894 655.52 Z" fill="#ffffff" fill-rule="evenodd" fill-opacity="1" /><path clip-path="url(#clip530)" d="M197.223 685.381 L213.542 685.381 L213.542 689.316 L191.598 689.316 L191.598 685.381 Q194.26 682.626 198.843 677.997 Q203.449 673.344 204.63 672.001 Q206.875 669.478 207.755 667.742 Q208.658 665.983 208.658 664.293 Q208.658 661.539 206.713 659.802 Q204.792 658.066 201.69 658.066 Q199.491 658.066 197.037 658.83 Q194.607 659.594 191.829 661.145 L191.829 656.423 Q194.653 655.289 197.107 654.71 Q199.561 654.131 201.598 654.131 Q206.968 654.131 210.162 656.816 Q213.357 659.502 213.357 663.992 Q213.357 666.122 212.547 668.043 Q211.76 669.941 209.653 672.534 Q209.074 673.205 205.973 676.423 Q202.871 679.617 197.223 685.381 Z" fill="#ffffff" fill-rule="evenodd" fill-opacity="1" /><path clip-path="url(#clip530)" d="M129.885 329.495 Q133.242 330.213 135.117 332.482 Q137.015 334.75 137.015 338.083 Q137.015 343.199 133.496 346 Q129.978 348.801 123.496 348.801 Q121.32 348.801 119.006 348.361 Q116.714 347.944 114.26 347.088 L114.26 342.574 Q116.205 343.708 118.519 344.287 Q120.834 344.866 123.357 344.866 Q127.755 344.866 130.047 343.13 Q132.362 341.394 132.362 338.083 Q132.362 335.028 130.209 333.315 Q128.08 331.579 124.26 331.579 L120.232 331.579 L120.232 327.736 L124.445 327.736 Q127.894 327.736 129.723 326.37 Q131.552 324.982 131.552 322.389 Q131.552 319.727 129.654 318.315 Q127.779 316.88 124.26 316.88 Q122.339 316.88 120.14 317.296 Q117.941 317.713 115.302 318.593 L115.302 314.426 Q117.964 313.685 120.279 313.315 Q122.617 312.945 124.677 312.945 Q130.001 312.945 133.103 315.375 Q136.204 317.783 136.204 321.903 Q136.204 324.773 134.561 326.764 Q132.917 328.732 129.885 329.495 Z" fill="#ffffff" fill-rule="evenodd" fill-opacity="1" /><path clip-path="url(#clip530)" d="M145.88 342.25 L150.765 342.25 L150.765 348.13 L145.88 348.13 L145.88 342.25 Z" fill="#ffffff" fill-rule="evenodd" fill-opacity="1" /><path clip-path="url(#clip530)" d="M171.528 328.986 Q168.38 328.986 166.528 331.139 Q164.7 333.292 164.7 337.042 Q164.7 340.769 166.528 342.944 Q168.38 345.097 171.528 345.097 Q174.677 345.097 176.505 342.944 Q178.357 340.769 178.357 337.042 Q178.357 333.292 176.505 331.139 Q174.677 328.986 171.528 328.986 M180.811 314.333 L180.811 318.593 Q179.051 317.759 177.246 317.32 Q175.464 316.88 173.704 316.88 Q169.075 316.88 166.621 320.005 Q164.19 323.13 163.843 329.449 Q165.209 327.435 167.269 326.37 Q169.329 325.283 171.806 325.283 Q177.014 325.283 180.024 328.454 Q183.056 331.602 183.056 337.042 Q183.056 342.366 179.908 345.583 Q176.76 348.801 171.528 348.801 Q165.533 348.801 162.362 344.218 Q159.19 339.611 159.19 330.884 Q159.19 322.69 163.079 317.829 Q166.968 312.945 173.519 312.945 Q175.278 312.945 177.061 313.292 Q178.866 313.639 180.811 314.333 Z" fill="#ffffff" fill-rule="evenodd" fill-opacity="1" /><path clip-path="url(#clip530)" d="M203.959 317.644 L192.153 336.093 L203.959 336.093 L203.959 317.644 M202.732 313.57 L208.612 313.57 L208.612 336.093 L213.542 336.093 L213.542 339.982 L208.612 339.982 L208.612 348.13 L203.959 348.13 L203.959 339.982 L188.357 339.982 L188.357 335.468 L202.732 313.57 Z" fill="#ffffff" fill-rule="evenodd" fill-opacity="1" /><path clip-path="url(#clip530)" d="M16.4842 1038.73 L16.4842 998.529 L21.895 998.529 L21.895 1015.4 L64.0042 1015.4 L64.0042 1021.86 L21.895 1021.86 L21.895 1038.73 L16.4842 1038.73 Z" fill="#ffffff" fill-rule="evenodd" fill-opacity="1" /><path clip-path="url(#clip530)" d="M28.3562 994.582 L28.3562 988.726 L64.0042 988.726 L64.0042 994.582 L28.3562 994.582 M14.479 994.582 L14.479 988.726 L21.895 988.726 L21.895 994.582 L14.479 994.582 Z" fill="#ffffff" fill-rule="evenodd" fill-opacity="1" /><path clip-path="url(#clip530)" d="M35.1993 948.717 Q31.2526 946.521 29.3747 943.465 Q27.4968 940.41 27.4968 936.272 Q27.4968 930.702 31.4117 927.678 Q35.2948 924.655 42.4881 924.655 L64.0042 924.655 L64.0042 930.543 L42.679 930.543 Q37.5546 930.543 35.072 932.357 Q32.5894 934.171 32.5894 937.895 Q32.5894 942.447 35.6131 945.089 Q38.6368 947.73 43.8567 947.73 L64.0042 947.73 L64.0042 953.619 L42.679 953.619 Q37.5228 953.619 35.072 955.433 Q32.5894 957.247 32.5894 961.035 Q32.5894 965.523 35.6449 968.164 Q38.6686 970.806 43.8567 970.806 L64.0042 970.806 L64.0042 976.694 L28.3562 976.694 L28.3562 970.806 L33.8944 970.806 Q30.616 968.801 29.0564 966 Q27.4968 963.199 27.4968 959.348 Q27.4968 955.465 29.4702 952.759 Q31.4436 950.022 35.1993 948.717 Z" fill="#ffffff" fill-rule="evenodd" fill-opacity="1" /><path clip-path="url(#clip530)" d="M44.7161 882.482 L47.5806 882.482 L47.5806 909.409 Q53.6281 909.027 56.8109 905.78 Q59.9619 902.502 59.9619 896.677 Q59.9619 893.304 59.1344 890.153 Q58.3069 886.97 56.6518 883.851 L62.1899 883.851 Q63.5267 887.002 64.227 890.312 Q64.9272 893.622 64.9272 897.028 Q64.9272 905.558 59.9619 910.555 Q54.9967 915.52 46.5303 915.52 Q37.7774 915.52 32.6531 910.809 Q27.4968 906.067 27.4968 898.046 Q27.4968 890.853 32.1438 886.683 Q36.7589 882.482 44.7161 882.482 M42.9973 888.338 Q38.1912 888.402 35.3266 891.044 Q32.4621 893.654 32.4621 897.982 Q32.4621 902.884 35.2312 905.844 Q38.0002 908.772 43.0292 909.218 L42.9973 888.338 Z" fill="#ffffff" fill-rule="evenodd" fill-opacity="1" /><path clip-path="url(#clip530)" d="M21.7677 845.465 L58.7206 845.465 L58.7206 837.699 Q58.7206 827.864 54.2646 823.313 Q49.8086 818.729 40.1964 818.729 Q30.6479 818.729 26.2237 823.313 Q21.7677 827.864 21.7677 837.699 L21.7677 845.465 M16.4842 851.895 L16.4842 838.686 Q16.4842 824.872 22.2451 818.411 Q27.9743 811.95 40.1964 811.95 Q52.4822 811.95 58.2432 818.443 Q64.0042 824.936 64.0042 838.686 L64.0042 851.895 L16.4842 851.895 Z" fill="#ffffff" fill-rule="evenodd" fill-opacity="1" /><path clip-path="url(#clip530)" d="M44.7161 771.464 L47.5806 771.464 L47.5806 798.391 Q53.6281 798.009 56.8109 794.763 Q59.9619 791.484 59.9619 785.66 Q59.9619 782.286 59.1344 779.135 Q58.3069 775.952 56.6518 772.833 L62.1899 772.833 Q63.5267 775.984 64.227 779.294 Q64.9272 782.604 64.9272 786.01 Q64.9272 794.54 59.9619 799.537 Q54.9967 804.502 46.5303 804.502 Q37.7774 804.502 32.6531 799.791 Q27.4968 795.049 27.4968 787.028 Q27.4968 779.835 32.1438 775.665 Q36.7589 771.464 44.7161 771.464 M42.9973 777.32 Q38.1912 777.384 35.3266 780.026 Q32.4621 782.636 32.4621 786.965 Q32.4621 791.866 35.2312 794.826 Q38.0002 797.754 43.0292 798.2 L42.9973 777.32 Z" fill="#ffffff" fill-rule="evenodd" fill-opacity="1" /><path clip-path="url(#clip530)" d="M14.479 761.852 L14.479 755.995 L64.0042 755.995 L64.0042 761.852 L14.479 761.852 Z" fill="#ffffff" fill-rule="evenodd" fill-opacity="1" /><path clip-path="url(#clip530)" d="M46.0847 727.541 Q46.0847 734.638 47.7079 737.376 Q49.3312 740.113 53.2461 740.113 Q56.3653 740.113 58.2114 738.076 Q60.0256 736.007 60.0256 732.474 Q60.0256 727.604 56.5881 724.676 Q53.1188 721.716 47.3897 721.716 L46.0847 721.716 L46.0847 727.541 M43.6657 715.86 L64.0042 715.86 L64.0042 721.716 L58.5933 721.716 Q61.8398 723.721 63.3994 726.713 Q64.9272 729.705 64.9272 734.034 Q64.9272 739.508 61.8716 742.755 Q58.7843 745.969 53.6281 745.969 Q47.6125 745.969 44.5569 741.959 Q41.5014 737.917 41.5014 729.928 L41.5014 721.716 L40.9285 721.716 Q36.8862 721.716 34.6901 724.39 Q32.4621 727.031 32.4621 731.837 Q32.4621 734.893 33.1941 737.789 Q33.9262 740.686 35.3903 743.359 L29.9795 743.359 Q28.7381 740.145 28.1334 737.121 Q27.4968 734.097 27.4968 731.233 Q27.4968 723.498 31.5072 719.679 Q35.5176 715.86 43.6657 715.86 Z" fill="#ffffff" fill-rule="evenodd" fill-opacity="1" /><path clip-path="url(#clip530)" d="M67.3143 688.964 Q73.68 691.447 75.6216 693.802 Q77.5631 696.158 77.5631 700.104 L77.5631 704.783 L72.6615 704.783 L72.6615 701.346 Q72.6615 698.927 71.5157 697.59 Q70.3699 696.253 66.1048 694.63 L63.4312 693.58 L28.3562 707.998 L28.3562 701.791 L56.238 690.651 L28.3562 679.511 L28.3562 673.305 L67.3143 688.964 Z" fill="#ffffff" fill-rule="evenodd" fill-opacity="1" /><path clip-path="url(#clip530)" d="M14.479 645.041 L14.479 631.546 L19.0304 631.546 L19.0304 639.185 L68.0464 639.185 L68.0464 631.546 L72.5979 631.546 L72.5979 645.041 L14.479 645.041 Z" fill="#ffffff" fill-rule="evenodd" fill-opacity="1" /><path clip-path="url(#clip530)" d="M35.1993 591.315 Q31.2526 589.118 29.3747 586.063 Q27.4968 583.007 27.4968 578.87 Q27.4968 573.3 31.4117 570.276 Q35.2948 567.252 42.4881 567.252 L64.0042 567.252 L64.0042 573.14 L42.679 573.14 Q37.5546 573.14 35.072 574.955 Q32.5894 576.769 32.5894 580.493 Q32.5894 585.044 35.6131 587.686 Q38.6368 590.328 43.8567 590.328 L64.0042 590.328 L64.0042 596.216 L42.679 596.216 Q37.5228 596.216 35.072 598.03 Q32.5894 599.845 32.5894 603.632 Q32.5894 608.12 35.6449 610.762 Q38.6686 613.404 43.8567 613.404 L64.0042 613.404 L64.0042 619.292 L28.3562 619.292 L28.3562 613.404 L33.8944 613.404 Q30.616 611.398 29.0564 608.597 Q27.4968 605.796 27.4968 601.945 Q27.4968 598.062 29.4702 595.357 Q31.4436 592.619 35.1993 591.315 Z" fill="#ffffff" fill-rule="evenodd" fill-opacity="1" /><path clip-path="url(#clip530)" d="M29.4065 532.846 L34.9447 532.846 Q33.6716 535.328 33.035 538.002 Q32.3984 540.675 32.3984 543.54 Q32.3984 547.9 33.7352 550.097 Q35.072 552.261 37.7456 552.261 Q39.7826 552.261 40.9603 550.701 Q42.1061 549.142 43.1565 544.431 L43.6021 542.426 Q44.9389 536.187 47.3897 533.578 Q49.8086 530.936 54.1691 530.936 Q59.1344 530.936 62.0308 534.883 Q64.9272 538.797 64.9272 545.672 Q64.9272 548.537 64.3543 551.656 Q63.8132 554.744 62.6992 558.181 L56.6518 558.181 Q58.3387 554.935 59.198 551.783 Q60.0256 548.632 60.0256 545.545 Q60.0256 541.407 58.6251 539.179 Q57.1929 536.951 54.6147 536.951 Q52.2276 536.951 50.9545 538.575 Q49.6813 540.166 48.5037 545.609 L48.0262 547.646 Q46.8804 553.088 44.5251 555.507 Q42.138 557.926 38.0002 557.926 Q32.9713 557.926 30.2341 554.362 Q27.4968 550.797 27.4968 544.24 Q27.4968 540.994 27.9743 538.129 Q28.4517 535.264 29.4065 532.846 Z" fill="#ffffff" fill-rule="evenodd" fill-opacity="1" /><path clip-path="url(#clip530)" d="M14.479 507.924 L72.5979 507.924 L72.5979 521.419 L68.0464 521.419 L68.0464 513.812 L19.0304 513.812 L19.0304 521.419 L14.479 521.419 L14.479 507.924 Z" fill="#ffffff" fill-rule="evenodd" fill-opacity="1" /><path clip-path="url(#clip530)" d="M649.804 12.096 L700.967 12.096 L700.967 18.9825 L679.497 18.9825 L679.497 72.576 L671.274 72.576 L671.274 18.9825 L649.804 18.9825 L649.804 12.096 Z" fill="#ffffff" fill-rule="evenodd" fill-opacity="1" /><path clip-path="url(#clip530)" d="M705.99 27.2059 L713.444 27.2059 L713.444 72.576 L705.99 72.576 L705.99 27.2059 M705.99 9.54393 L713.444 9.54393 L713.444 18.9825 L705.99 18.9825 L705.99 9.54393 Z" fill="#ffffff" fill-rule="evenodd" fill-opacity="1" /><path clip-path="url(#clip530)" d="M764.364 35.9153 Q767.159 30.8922 771.048 28.5022 Q774.937 26.1121 780.203 26.1121 Q787.292 26.1121 791.14 31.0947 Q794.988 36.0368 794.988 45.1919 L794.988 72.576 L787.494 72.576 L787.494 45.4349 Q787.494 38.913 785.185 35.7533 Q782.876 32.5936 778.137 32.5936 Q772.344 32.5936 768.982 36.4419 Q765.619 40.2903 765.619 46.9338 L765.619 72.576 L758.125 72.576 L758.125 45.4349 Q758.125 38.8725 755.816 35.7533 Q753.507 32.5936 748.687 32.5936 Q742.975 32.5936 739.613 36.4824 Q736.25 40.3308 736.25 46.9338 L736.25 72.576 L728.756 72.576 L728.756 27.2059 L736.25 27.2059 L736.25 34.2544 Q738.802 30.082 742.367 28.0971 Q745.932 26.1121 750.834 26.1121 Q755.776 26.1121 759.219 28.6237 Q762.703 31.1352 764.364 35.9153 Z" fill="#ffffff" fill-rule="evenodd" fill-opacity="1" /><path clip-path="url(#clip530)" d="M848.663 48.0275 L848.663 51.6733 L814.392 51.6733 Q814.878 59.3701 819.01 63.421 Q823.183 67.4314 830.596 67.4314 Q834.89 67.4314 838.9 66.3781 Q842.951 65.3249 846.921 63.2184 L846.921 70.267 Q842.911 71.9684 838.698 72.8596 Q834.485 73.7508 830.15 73.7508 Q819.294 73.7508 812.934 67.4314 Q806.615 61.1119 806.615 50.3365 Q806.615 39.1965 812.61 32.6746 Q818.646 26.1121 828.854 26.1121 Q838.009 26.1121 843.316 32.0264 Q848.663 37.9003 848.663 48.0275 M841.209 45.84 Q841.128 39.7232 837.766 36.0774 Q834.444 32.4315 828.935 32.4315 Q822.697 32.4315 818.929 35.9558 Q815.202 39.4801 814.635 45.8805 L841.209 45.84 Z" fill="#ffffff" fill-rule="evenodd" fill-opacity="1" /><path clip-path="url(#clip530)" d="M917.123 34.0924 L917.123 9.54393 L924.577 9.54393 L924.577 72.576 L917.123 72.576 L917.123 65.7705 Q914.774 69.8214 911.168 71.8063 Q907.604 73.7508 902.581 73.7508 Q894.357 73.7508 889.172 67.1883 Q884.027 60.6258 884.027 49.9314 Q884.027 39.2371 889.172 32.6746 Q894.357 26.1121 902.581 26.1121 Q907.604 26.1121 911.168 28.0971 Q914.774 30.0415 917.123 34.0924 M891.724 49.9314 Q891.724 58.1548 895.086 62.8538 Q898.489 67.5124 904.403 67.5124 Q910.318 67.5124 913.72 62.8538 Q917.123 58.1548 917.123 49.9314 Q917.123 41.7081 913.72 37.0496 Q910.318 32.3505 904.403 32.3505 Q898.489 32.3505 895.086 37.0496 Q891.724 41.7081 891.724 49.9314 Z" fill="#ffffff" fill-rule="evenodd" fill-opacity="1" /><path clip-path="url(#clip530)" d="M978.738 48.0275 L978.738 51.6733 L944.467 51.6733 Q944.953 59.3701 949.085 63.421 Q953.257 67.4314 960.67 67.4314 Q964.964 67.4314 968.975 66.3781 Q973.026 65.3249 976.996 63.2184 L976.996 70.267 Q972.985 71.9684 968.772 72.8596 Q964.559 73.7508 960.225 73.7508 Q949.368 73.7508 943.009 67.4314 Q936.689 61.1119 936.689 50.3365 Q936.689 39.1965 942.684 32.6746 Q948.72 26.1121 958.929 26.1121 Q968.084 26.1121 973.39 32.0264 Q978.738 37.9003 978.738 48.0275 M971.284 45.84 Q971.203 39.7232 967.841 36.0774 Q964.519 32.4315 959.01 32.4315 Q952.771 32.4315 949.004 35.9558 Q945.277 39.4801 944.71 45.8805 L971.284 45.84 Z" fill="#ffffff" fill-rule="evenodd" fill-opacity="1" /><path clip-path="url(#clip530)" d="M990.971 9.54393 L998.425 9.54393 L998.425 72.576 L990.971 72.576 L990.971 9.54393 Z" fill="#ffffff" fill-rule="evenodd" fill-opacity="1" /><path clip-path="url(#clip530)" d="M1034.64 49.7694 Q1025.61 49.7694 1022.12 51.8354 Q1018.64 53.9013 1018.64 58.8839 Q1018.64 62.8538 1021.23 65.2034 Q1023.86 67.5124 1028.36 67.5124 Q1034.56 67.5124 1038.29 63.1374 Q1042.05 58.7219 1042.05 51.4303 L1042.05 49.7694 L1034.64 49.7694 M1049.51 46.6907 L1049.51 72.576 L1042.05 72.576 L1042.05 65.6895 Q1039.5 69.8214 1035.69 71.8063 Q1031.89 73.7508 1026.38 73.7508 Q1019.41 73.7508 1015.28 69.8619 Q1011.19 65.9325 1011.19 59.3701 Q1011.19 51.7138 1016.29 47.825 Q1021.43 43.9361 1031.6 43.9361 L1042.05 43.9361 L1042.05 43.2069 Q1042.05 38.0623 1038.65 35.2672 Q1035.29 32.4315 1029.17 32.4315 Q1025.28 32.4315 1021.6 33.3632 Q1017.91 34.295 1014.51 36.1584 L1014.51 29.2718 Q1018.6 27.692 1022.45 26.9223 Q1026.3 26.1121 1029.94 26.1121 Q1039.78 26.1121 1044.65 31.2163 Q1049.51 36.3204 1049.51 46.6907 Z" fill="#ffffff" fill-rule="evenodd" fill-opacity="1" /><path clip-path="url(#clip530)" d="M1083.74 76.7889 Q1080.58 84.8907 1077.58 87.3618 Q1074.58 89.8329 1069.56 89.8329 L1063.6 89.8329 L1063.6 83.5945 L1067.98 83.5945 Q1071.06 83.5945 1072.76 82.1361 Q1074.46 80.6778 1076.53 75.2496 L1077.86 71.8468 L1059.51 27.2059 L1067.41 27.2059 L1081.59 62.6918 L1095.77 27.2059 L1103.67 27.2059 L1083.74 76.7889 Z" fill="#ffffff" fill-rule="evenodd" fill-opacity="1" /><path clip-path="url(#clip530)" d="M1157.91 32.4315 Q1151.91 32.4315 1148.43 37.1306 Q1144.95 41.7891 1144.95 49.9314 Q1144.95 58.0738 1148.39 62.7728 Q1151.87 67.4314 1157.91 67.4314 Q1163.86 67.4314 1167.35 62.7323 Q1170.83 58.0333 1170.83 49.9314 Q1170.83 41.8701 1167.35 37.1711 Q1163.86 32.4315 1157.91 32.4315 M1157.91 26.1121 Q1167.63 26.1121 1173.18 32.4315 Q1178.73 38.7509 1178.73 49.9314 Q1178.73 61.0714 1173.18 67.4314 Q1167.63 73.7508 1157.91 73.7508 Q1148.15 73.7508 1142.6 67.4314 Q1137.09 61.0714 1137.09 49.9314 Q1137.09 38.7509 1142.6 32.4315 Q1148.15 26.1121 1157.91 26.1121 Z" fill="#ffffff" fill-rule="evenodd" fill-opacity="1" /><path clip-path="url(#clip530)" d="M1214.05 9.54393 L1214.05 15.7418 L1206.92 15.7418 Q1202.91 15.7418 1201.33 17.3622 Q1199.8 18.9825 1199.8 23.1955 L1199.8 27.2059 L1212.07 27.2059 L1212.07 32.9987 L1199.8 32.9987 L1199.8 72.576 L1192.3 72.576 L1192.3 32.9987 L1185.17 32.9987 L1185.17 27.2059 L1192.3 27.2059 L1192.3 24.0462 Q1192.3 16.471 1195.83 13.0277 Q1199.35 9.54393 1207.01 9.54393 L1214.05 9.54393 Z" fill="#ffffff" fill-rule="evenodd" fill-opacity="1" /><path clip-path="url(#clip530)" d="M1253.87 65.7705 L1253.87 89.8329 L1246.38 89.8329 L1246.38 27.2059 L1253.87 27.2059 L1253.87 34.0924 Q1256.22 30.0415 1259.79 28.0971 Q1263.39 26.1121 1268.38 26.1121 Q1276.64 26.1121 1281.79 32.6746 Q1286.97 39.2371 1286.97 49.9314 Q1286.97 60.6258 1281.79 67.1883 Q1276.64 73.7508 1268.38 73.7508 Q1263.39 73.7508 1259.79 71.8063 Q1256.22 69.8214 1253.87 65.7705 M1279.23 49.9314 Q1279.23 41.7081 1275.83 37.0496 Q1272.47 32.3505 1266.55 32.3505 Q1260.64 32.3505 1257.24 37.0496 Q1253.87 41.7081 1253.87 49.9314 Q1253.87 58.1548 1257.24 62.8538 Q1260.64 67.5124 1266.55 67.5124 Q1272.47 67.5124 1275.83 62.8538 Q1279.23 58.1548 1279.23 49.9314 Z" fill="#ffffff" fill-rule="evenodd" fill-opacity="1" /><path clip-path="url(#clip530)" d="M1338.13 48.0275 L1338.13 51.6733 L1303.86 51.6733 Q1304.35 59.3701 1308.48 63.421 Q1312.65 67.4314 1320.07 67.4314 Q1324.36 67.4314 1328.37 66.3781 Q1332.42 65.3249 1336.39 63.2184 L1336.39 70.267 Q1332.38 71.9684 1328.17 72.8596 Q1323.96 73.7508 1319.62 73.7508 Q1308.76 73.7508 1302.4 67.4314 Q1296.09 61.1119 1296.09 50.3365 Q1296.09 39.1965 1302.08 32.6746 Q1308.12 26.1121 1318.32 26.1121 Q1327.48 26.1121 1332.79 32.0264 Q1338.13 37.9003 1338.13 48.0275 M1330.68 45.84 Q1330.6 39.7232 1327.24 36.0774 Q1323.92 32.4315 1318.41 32.4315 Q1312.17 32.4315 1308.4 35.9558 Q1304.67 39.4801 1304.11 45.8805 L1330.68 45.84 Z" fill="#ffffff" fill-rule="evenodd" fill-opacity="1" /><path clip-path="url(#clip530)" d="M1370.99 49.7694 Q1361.95 49.7694 1358.47 51.8354 Q1354.99 53.9013 1354.99 58.8839 Q1354.99 62.8538 1357.58 65.2034 Q1360.21 67.5124 1364.71 67.5124 Q1370.91 67.5124 1374.63 63.1374 Q1378.4 58.7219 1378.4 51.4303 L1378.4 49.7694 L1370.99 49.7694 M1385.85 46.6907 L1385.85 72.576 L1378.4 72.576 L1378.4 65.6895 Q1375.85 69.8214 1372.04 71.8063 Q1368.23 73.7508 1362.72 73.7508 Q1355.76 73.7508 1351.62 69.8619 Q1347.53 65.9325 1347.53 59.3701 Q1347.53 51.7138 1352.64 47.825 Q1357.78 43.9361 1367.95 43.9361 L1378.4 43.9361 L1378.4 43.2069 Q1378.4 38.0623 1375 35.2672 Q1371.63 32.4315 1365.52 32.4315 Q1361.63 32.4315 1357.94 33.3632 Q1354.26 34.295 1350.85 36.1584 L1350.85 29.2718 Q1354.94 27.692 1358.79 26.9223 Q1362.64 26.1121 1366.29 26.1121 Q1376.13 26.1121 1380.99 31.2163 Q1385.85 36.3204 1385.85 46.6907 Z" fill="#ffffff" fill-rule="evenodd" fill-opacity="1" /><path clip-path="url(#clip530)" d="M1400.92 9.54393 L1408.42 9.54393 L1408.42 46.7717 L1430.66 27.2059 L1440.18 27.2059 L1416.11 48.4326 L1441.19 72.576 L1431.47 72.576 L1408.42 50.4176 L1408.42 72.576 L1400.92 72.576 L1400.92 9.54393 Z" fill="#ffffff" fill-rule="evenodd" fill-opacity="1" /><path clip-path="url(#clip530)" d="M1482.83 65.7705 L1482.83 89.8329 L1475.34 89.8329 L1475.34 27.2059 L1482.83 27.2059 L1482.83 34.0924 Q1485.18 30.0415 1488.75 28.0971 Q1492.35 26.1121 1497.33 26.1121 Q1505.6 26.1121 1510.74 32.6746 Q1515.93 39.2371 1515.93 49.9314 Q1515.93 60.6258 1510.74 67.1883 Q1505.6 73.7508 1497.33 73.7508 Q1492.35 73.7508 1488.75 71.8063 Q1485.18 69.8214 1482.83 65.7705 M1508.19 49.9314 Q1508.19 41.7081 1504.79 37.0496 Q1501.43 32.3505 1495.51 32.3505 Q1489.6 32.3505 1486.19 37.0496 Q1482.83 41.7081 1482.83 49.9314 Q1482.83 58.1548 1486.19 62.8538 Q1489.6 67.5124 1495.51 67.5124 Q1501.43 67.5124 1504.79 62.8538 Q1508.19 58.1548 1508.19 49.9314 Z" fill="#ffffff" fill-rule="evenodd" fill-opacity="1" /><path clip-path="url(#clip530)" d="M1567.09 48.0275 L1567.09 51.6733 L1532.82 51.6733 Q1533.31 59.3701 1537.44 63.421 Q1541.61 67.4314 1549.02 67.4314 Q1553.32 67.4314 1557.33 66.3781 Q1561.38 65.3249 1565.35 63.2184 L1565.35 70.267 Q1561.34 71.9684 1557.13 72.8596 Q1552.91 73.7508 1548.58 73.7508 Q1537.72 73.7508 1531.36 67.4314 Q1525.04 61.1119 1525.04 50.3365 Q1525.04 39.1965 1531.04 32.6746 Q1537.07 26.1121 1547.28 26.1121 Q1556.44 26.1121 1561.74 32.0264 Q1567.09 37.9003 1567.09 48.0275 M1559.64 45.84 Q1559.56 39.7232 1556.19 36.0774 Q1552.87 32.4315 1547.36 32.4315 Q1541.12 32.4315 1537.36 35.9558 Q1533.63 39.4801 1533.06 45.8805 L1559.64 45.84 Z" fill="#ffffff" fill-rule="evenodd" fill-opacity="1" /><path clip-path="url(#clip530)" d="M1605.61 34.1734 Q1604.36 33.4443 1602.86 33.1202 Q1601.4 32.7556 1599.62 32.7556 Q1593.3 32.7556 1589.9 36.8875 Q1586.54 40.9789 1586.54 48.6757 L1586.54 72.576 L1579.04 72.576 L1579.04 27.2059 L1586.54 27.2059 L1586.54 34.2544 Q1588.88 30.1225 1592.65 28.1376 Q1596.42 26.1121 1601.81 26.1121 Q1602.58 26.1121 1603.51 26.2337 Q1604.44 26.3147 1605.57 26.5172 L1605.61 34.1734 Z" fill="#ffffff" fill-rule="evenodd" fill-opacity="1" /><path clip-path="url(#clip530)" d="M1672.45 28.9478 L1672.45 35.9153 Q1669.3 34.1734 1666.09 33.3227 Q1662.94 32.4315 1659.69 32.4315 Q1652.44 32.4315 1648.43 37.0496 Q1644.42 41.6271 1644.42 49.9314 Q1644.42 58.2358 1648.43 62.8538 Q1652.44 67.4314 1659.69 67.4314 Q1662.94 67.4314 1666.09 66.5807 Q1669.3 65.6895 1672.45 63.9476 L1672.45 70.8341 Q1669.34 72.2924 1665.97 73.0216 Q1662.65 73.7508 1658.88 73.7508 Q1648.64 73.7508 1642.6 67.3098 Q1636.56 60.8689 1636.56 49.9314 Q1636.56 38.832 1642.64 32.472 Q1648.76 26.1121 1659.37 26.1121 Q1662.81 26.1121 1666.09 26.8413 Q1669.38 27.5299 1672.45 28.9478 Z" fill="#ffffff" fill-rule="evenodd" fill-opacity="1" /><path clip-path="url(#clip530)" d="M1723.13 45.1919 L1723.13 72.576 L1715.68 72.576 L1715.68 45.4349 Q1715.68 38.994 1713.17 35.7938 Q1710.65 32.5936 1705.63 32.5936 Q1699.6 32.5936 1696.11 36.4419 Q1692.63 40.2903 1692.63 46.9338 L1692.63 72.576 L1685.13 72.576 L1685.13 9.54393 L1692.63 9.54393 L1692.63 34.2544 Q1695.3 30.163 1698.91 28.1376 Q1702.55 26.1121 1707.29 26.1121 Q1715.11 26.1121 1719.12 30.9732 Q1723.13 35.7938 1723.13 45.1919 Z" fill="#ffffff" fill-rule="evenodd" fill-opacity="1" /><path clip-path="url(#clip530)" d="M1758.62 49.7694 Q1749.58 49.7694 1746.1 51.8354 Q1742.62 53.9013 1742.62 58.8839 Q1742.62 62.8538 1745.21 65.2034 Q1747.84 67.5124 1752.34 67.5124 Q1758.54 67.5124 1762.26 63.1374 Q1766.03 58.7219 1766.03 51.4303 L1766.03 49.7694 L1758.62 49.7694 M1773.48 46.6907 L1773.48 72.576 L1766.03 72.576 L1766.03 65.6895 Q1763.48 69.8214 1759.67 71.8063 Q1755.86 73.7508 1750.35 73.7508 Q1743.39 73.7508 1739.25 69.8619 Q1735.16 65.9325 1735.16 59.3701 Q1735.16 51.7138 1740.27 47.825 Q1745.41 43.9361 1755.58 43.9361 L1766.03 43.9361 L1766.03 43.2069 Q1766.03 38.0623 1762.63 35.2672 Q1759.27 32.4315 1753.15 32.4315 Q1749.26 32.4315 1745.57 33.3632 Q1741.89 34.295 1738.48 36.1584 L1738.48 29.2718 Q1742.58 27.692 1746.42 26.9223 Q1750.27 26.1121 1753.92 26.1121 Q1763.76 26.1121 1768.62 31.2163 Q1773.48 36.3204 1773.48 46.6907 Z" fill="#ffffff" fill-rule="evenodd" fill-opacity="1" /><path clip-path="url(#clip530)" d="M1826.55 45.1919 L1826.55 72.576 L1819.1 72.576 L1819.1 45.4349 Q1819.1 38.994 1816.59 35.7938 Q1814.07 32.5936 1809.05 32.5936 Q1803.02 32.5936 1799.53 36.4419 Q1796.05 40.2903 1796.05 46.9338 L1796.05 72.576 L1788.55 72.576 L1788.55 27.2059 L1796.05 27.2059 L1796.05 34.2544 Q1798.72 30.163 1802.33 28.1376 Q1805.97 26.1121 1810.71 26.1121 Q1818.53 26.1121 1822.54 30.9732 Q1826.55 35.7938 1826.55 45.1919 Z" fill="#ffffff" fill-rule="evenodd" fill-opacity="1" /><path clip-path="url(#clip530)" d="M1879.13 45.1919 L1879.13 72.576 L1871.68 72.576 L1871.68 45.4349 Q1871.68 38.994 1869.17 35.7938 Q1866.66 32.5936 1861.63 32.5936 Q1855.6 32.5936 1852.11 36.4419 Q1848.63 40.2903 1848.63 46.9338 L1848.63 72.576 L1841.13 72.576 L1841.13 27.2059 L1848.63 27.2059 L1848.63 34.2544 Q1851.3 30.163 1854.91 28.1376 Q1858.55 26.1121 1863.29 26.1121 Q1871.11 26.1121 1875.12 30.9732 Q1879.13 35.7938 1879.13 45.1919 Z" fill="#ffffff" fill-rule="evenodd" fill-opacity="1" /><path clip-path="url(#clip530)" d="M1932.81 48.0275 L1932.81 51.6733 L1898.54 51.6733 Q1899.02 59.3701 1903.15 63.421 Q1907.33 67.4314 1914.74 67.4314 Q1919.03 67.4314 1923.04 66.3781 Q1927.09 65.3249 1931.06 63.2184 L1931.06 70.267 Q1927.05 71.9684 1922.84 72.8596 Q1918.63 73.7508 1914.29 73.7508 Q1903.44 73.7508 1897.08 67.4314 Q1890.76 61.1119 1890.76 50.3365 Q1890.76 39.1965 1896.75 32.6746 Q1902.79 26.1121 1913 26.1121 Q1922.15 26.1121 1927.46 32.0264 Q1932.81 37.9003 1932.81 48.0275 M1925.35 45.84 Q1925.27 39.7232 1921.91 36.0774 Q1918.59 32.4315 1913.08 32.4315 Q1906.84 32.4315 1903.07 35.9558 Q1899.35 39.4801 1898.78 45.8805 L1925.35 45.84 Z" fill="#ffffff" fill-rule="evenodd" fill-opacity="1" /><path clip-path="url(#clip530)" d="M1945.04 9.54393 L1952.49 9.54393 L1952.49 72.576 L1945.04 72.576 L1945.04 9.54393 Z" fill="#ffffff" fill-rule="evenodd" fill-opacity="1" /><polyline clip-path="url(#clip532)" style="stroke:#009af9; stroke-linecap:round; stroke-linejoin:round; stroke-width:4; stroke-opacity:1; fill:none" points="309.067,1013.22 373.072,1013.22 437.078,1013.22 501.083,1013.22 565.088,1013.22 629.093,1013.22 693.099,1013.22 757.104,1013.22 821.109,1013.22 885.115,1013.22 949.12,1013.22 1013.13,1013.22 1077.13,586.74 1141.14,586.74 1205.14,586.74 1269.15,586.74 1333.15,586.74 1397.16,586.74 1461.16,586.74 1525.17,586.74 1589.17,586.74 1653.18,586.74 1717.18,586.74 1781.19,586.74 1845.19,160.256 1909.2,160.256 1973.2,160.256 2037.21,160.256 2101.22,160.256 2165.22,160.256 2229.23,160.256 2293.23,160.256 "/>
<polyline clip-path="url(#clip532)" style="stroke:#e26f46; stroke-linecap:round; stroke-linejoin:round; stroke-width:4; stroke-opacity:1; fill:none" points="309.067,1333.09 373.072,1333.09 437.078,1333.09 501.083,1226.46 565.088,1226.46 629.093,1226.46 693.099,1226.46 757.104,1226.46 821.109,1226.46 885.115,1119.84 949.12,1119.84 1013.13,1119.84 1077.13,1119.84 1141.14,1119.84 1205.14,1013.22 1269.15,1013.22 1333.15,1013.22 1397.16,1013.22 1461.16,906.602 1525.17,906.602 1589.17,799.981 1653.18,799.981 1717.18,799.981 1781.19,693.36 1845.19,693.36 1909.2,586.74 1973.2,586.74 2037.21,586.74 2101.22,480.119 2165.22,480.119 2229.23,373.498 2293.23,373.498 "/>
<polyline clip-path="url(#clip532)" style="stroke:#3da44d; stroke-linecap:round; stroke-linejoin:round; stroke-width:4; stroke-opacity:1; fill:none" points="309.067,1386.4 373.072,1333.09 437.078,1333.09 501.083,1333.09 565.088,1333.09 629.093,1279.77 693.099,1279.77 757.104,1279.77 821.109,1226.46 885.115,1226.46 949.12,1173.15 1013.13,1173.15 1077.13,1173.15 1141.14,1119.84 1205.14,1066.53 1269.15,1066.53 1333.15,1013.22 1397.16,1013.22 1461.16,959.912 1525.17,906.602 1589.17,853.292 1653.18,853.292 1717.18,853.292 1781.19,799.981 1845.19,693.36 1909.2,693.36 1973.2,640.05 2037.21,586.74 2101.22,533.429 2165.22,533.429 2229.23,480.119 2293.23,426.808 "/>
<path clip-path="url(#clip530)" d="M319.649 374.156 L770.779 374.156 L770.779 166.796 L319.649 166.796  Z" fill="#000000" fill-rule="evenodd" fill-opacity="0"/>
<polyline clip-path="url(#clip530)" style="stroke:#ffffff; stroke-linecap:round; stroke-linejoin:round; stroke-width:4; stroke-opacity:1; fill:none" points="319.649,374.156 770.779,374.156 770.779,166.796 319.649,166.796 319.649,374.156 "/>
<polyline clip-path="url(#clip530)" style="stroke:#009af9; stroke-linecap:round; stroke-linejoin:round; stroke-width:4; stroke-opacity:1; fill:none" points="343.018,218.636 483.232,218.636 "/>
<path clip-path="url(#clip530)" d="M507.273 231.981 L514.912 231.981 L514.912 205.615 L506.602 207.282 L506.602 203.022 L514.865 201.356 L519.541 201.356 L519.541 231.981 L527.18 231.981 L527.18 235.916 L507.273 235.916 L507.273 231.981 Z" fill="#ffffff" fill-rule="evenodd" fill-opacity="1" /><path clip-path="url(#clip530)" d="M557.573 209.99 L548.199 222.606 L558.06 235.916 L553.036 235.916 L545.49 225.731 L537.944 235.916 L532.921 235.916 L542.99 222.351 L533.777 209.99 L538.8 209.99 L545.675 219.226 L552.55 209.99 L557.573 209.99 Z" fill="#ffffff" fill-rule="evenodd" fill-opacity="1" /><path clip-path="url(#clip530)" d="M595.675 210.754 L595.675 214.782 Q593.87 213.856 591.925 213.393 Q589.981 212.93 587.897 212.93 Q584.726 212.93 583.129 213.902 Q581.555 214.874 581.555 216.819 Q581.555 218.3 582.689 219.157 Q583.823 219.99 587.249 220.754 L588.708 221.078 Q593.245 222.05 595.143 223.832 Q597.064 225.592 597.064 228.763 Q597.064 232.374 594.194 234.481 Q591.346 236.587 586.346 236.587 Q584.263 236.587 581.995 236.17 Q579.749 235.777 577.249 234.967 L577.249 230.569 Q579.61 231.795 581.902 232.42 Q584.194 233.022 586.439 233.022 Q589.448 233.022 591.069 232.004 Q592.689 230.962 592.689 229.087 Q592.689 227.351 591.508 226.425 Q590.351 225.499 586.393 224.643 L584.911 224.295 Q580.953 223.462 579.194 221.749 Q577.434 220.013 577.434 217.004 Q577.434 213.346 580.027 211.356 Q582.62 209.365 587.388 209.365 Q589.749 209.365 591.833 209.712 Q593.916 210.059 595.675 210.754 Z" fill="#ffffff" fill-rule="evenodd" fill-opacity="1" /><path clip-path="url(#clip530)" d="M615.629 222.883 Q610.467 222.883 608.476 224.064 Q606.485 225.244 606.485 228.092 Q606.485 230.36 607.967 231.703 Q609.471 233.022 612.041 233.022 Q615.582 233.022 617.712 230.522 Q619.865 227.999 619.865 223.832 L619.865 222.883 L615.629 222.883 M624.124 221.124 L624.124 235.916 L619.865 235.916 L619.865 231.981 Q618.406 234.342 616.231 235.476 Q614.055 236.587 610.907 236.587 Q606.925 236.587 604.564 234.365 Q602.226 232.119 602.226 228.369 Q602.226 223.994 605.143 221.772 Q608.082 219.55 613.893 219.55 L619.865 219.55 L619.865 219.133 Q619.865 216.194 617.92 214.596 Q615.999 212.976 612.504 212.976 Q610.282 212.976 608.175 213.508 Q606.069 214.041 604.124 215.106 L604.124 211.17 Q606.462 210.268 608.661 209.828 Q610.86 209.365 612.944 209.365 Q618.568 209.365 621.346 212.282 Q624.124 215.198 624.124 221.124 Z" fill="#ffffff" fill-rule="evenodd" fill-opacity="1" /><path clip-path="url(#clip530)" d="M653.082 214.967 Q654.679 212.096 656.902 210.731 Q659.124 209.365 662.133 209.365 Q666.184 209.365 668.383 212.212 Q670.582 215.036 670.582 220.268 L670.582 235.916 L666.3 235.916 L666.3 220.407 Q666.3 216.68 664.98 214.874 Q663.661 213.069 660.953 213.069 Q657.642 213.069 655.721 215.268 Q653.8 217.467 653.8 221.263 L653.8 235.916 L649.517 235.916 L649.517 220.407 Q649.517 216.657 648.198 214.874 Q646.879 213.069 644.124 213.069 Q640.86 213.069 638.939 215.291 Q637.017 217.49 637.017 221.263 L637.017 235.916 L632.735 235.916 L632.735 209.99 L637.017 209.99 L637.017 214.018 Q638.476 211.633 640.513 210.499 Q642.55 209.365 645.351 209.365 Q648.175 209.365 650.142 210.8 Q652.133 212.235 653.082 214.967 Z" fill="#ffffff" fill-rule="evenodd" fill-opacity="1" /><path clip-path="url(#clip530)" d="M683.198 232.027 L683.198 245.777 L678.915 245.777 L678.915 209.99 L683.198 209.99 L683.198 213.925 Q684.54 211.61 686.577 210.499 Q688.638 209.365 691.485 209.365 Q696.207 209.365 699.147 213.115 Q702.11 216.865 702.11 222.976 Q702.11 229.087 699.147 232.837 Q696.207 236.587 691.485 236.587 Q688.638 236.587 686.577 235.476 Q684.54 234.342 683.198 232.027 M697.688 222.976 Q697.688 218.277 695.744 215.615 Q693.823 212.93 690.443 212.93 Q687.064 212.93 685.119 215.615 Q683.198 218.277 683.198 222.976 Q683.198 227.675 685.119 230.36 Q687.064 233.022 690.443 233.022 Q693.823 233.022 695.744 230.36 Q697.688 227.675 697.688 222.976 Z" fill="#ffffff" fill-rule="evenodd" fill-opacity="1" /><path clip-path="url(#clip530)" d="M709.17 199.897 L713.429 199.897 L713.429 235.916 L709.17 235.916 L709.17 199.897 Z" fill="#ffffff" fill-rule="evenodd" fill-opacity="1" /><path clip-path="url(#clip530)" d="M744.517 221.888 L744.517 223.971 L724.934 223.971 Q725.211 228.369 727.573 230.684 Q729.957 232.976 734.193 232.976 Q736.647 232.976 738.938 232.374 Q741.253 231.772 743.522 230.569 L743.522 234.596 Q741.23 235.568 738.822 236.078 Q736.415 236.587 733.938 236.587 Q727.735 236.587 724.1 232.976 Q720.489 229.365 720.489 223.207 Q720.489 216.842 723.915 213.115 Q727.364 209.365 733.198 209.365 Q738.429 209.365 741.461 212.745 Q744.517 216.101 744.517 221.888 M740.258 220.638 Q740.211 217.143 738.29 215.059 Q736.392 212.976 733.244 212.976 Q729.679 212.976 727.526 214.99 Q725.397 217.004 725.073 220.661 L740.258 220.638 Z" fill="#ffffff" fill-rule="evenodd" fill-opacity="1" /><polyline clip-path="url(#clip530)" style="stroke:#e26f46; stroke-linecap:round; stroke-linejoin:round; stroke-width:4; stroke-opacity:1; fill:none" points="343.018,270.476 483.232,270.476 "/>
<path clip-path="url(#clip530)" d="M522.203 257.27 L510.398 275.719 L522.203 275.719 L522.203 257.27 M520.976 253.196 L526.856 253.196 L526.856 275.719 L531.787 275.719 L531.787 279.608 L526.856 279.608 L526.856 287.756 L522.203 287.756 L522.203 279.608 L506.602 279.608 L506.602 275.094 L520.976 253.196 Z" fill="#ffffff" fill-rule="evenodd" fill-opacity="1" /><path clip-path="url(#clip530)" d="M560.467 261.83 L551.092 274.446 L560.953 287.756 L555.93 287.756 L548.384 277.571 L540.837 287.756 L535.814 287.756 L545.884 274.191 L536.671 261.83 L541.694 261.83 L548.569 271.066 L555.444 261.83 L560.467 261.83 Z" fill="#ffffff" fill-rule="evenodd" fill-opacity="1" /><path clip-path="url(#clip530)" d="M598.569 262.594 L598.569 266.622 Q596.763 265.696 594.819 265.233 Q592.874 264.77 590.791 264.77 Q587.62 264.77 586.022 265.742 Q584.448 266.714 584.448 268.659 Q584.448 270.14 585.583 270.997 Q586.717 271.83 590.143 272.594 L591.601 272.918 Q596.138 273.89 598.036 275.672 Q599.957 277.432 599.957 280.603 Q599.957 284.214 597.087 286.321 Q594.24 288.427 589.24 288.427 Q587.157 288.427 584.888 288.01 Q582.643 287.617 580.143 286.807 L580.143 282.409 Q582.504 283.635 584.796 284.26 Q587.087 284.862 589.333 284.862 Q592.342 284.862 593.962 283.844 Q595.583 282.802 595.583 280.927 Q595.583 279.191 594.402 278.265 Q593.245 277.339 589.286 276.483 L587.805 276.135 Q583.846 275.302 582.087 273.589 Q580.328 271.853 580.328 268.844 Q580.328 265.186 582.921 263.196 Q585.513 261.205 590.282 261.205 Q592.643 261.205 594.726 261.552 Q596.809 261.899 598.569 262.594 Z" fill="#ffffff" fill-rule="evenodd" fill-opacity="1" /><path clip-path="url(#clip530)" d="M618.522 274.723 Q613.36 274.723 611.369 275.904 Q609.379 277.084 609.379 279.932 Q609.379 282.2 610.86 283.543 Q612.365 284.862 614.934 284.862 Q618.476 284.862 620.606 282.362 Q622.758 279.839 622.758 275.672 L622.758 274.723 L618.522 274.723 M627.018 272.964 L627.018 287.756 L622.758 287.756 L622.758 283.821 Q621.3 286.182 619.124 287.316 Q616.948 288.427 613.8 288.427 Q609.819 288.427 607.457 286.205 Q605.119 283.959 605.119 280.209 Q605.119 275.834 608.036 273.612 Q610.976 271.39 616.786 271.39 L622.758 271.39 L622.758 270.973 Q622.758 268.034 620.814 266.436 Q618.893 264.816 615.397 264.816 Q613.175 264.816 611.069 265.348 Q608.962 265.881 607.018 266.946 L607.018 263.01 Q609.356 262.108 611.555 261.668 Q613.754 261.205 615.837 261.205 Q621.462 261.205 624.24 264.122 Q627.018 267.038 627.018 272.964 Z" fill="#ffffff" fill-rule="evenodd" fill-opacity="1" /><path clip-path="url(#clip530)" d="M655.976 266.807 Q657.573 263.936 659.795 262.571 Q662.017 261.205 665.027 261.205 Q669.077 261.205 671.277 264.052 Q673.476 266.876 673.476 272.108 L673.476 287.756 L669.193 287.756 L669.193 272.247 Q669.193 268.52 667.874 266.714 Q666.554 264.909 663.846 264.909 Q660.536 264.909 658.615 267.108 Q656.693 269.307 656.693 273.103 L656.693 287.756 L652.411 287.756 L652.411 272.247 Q652.411 268.497 651.091 266.714 Q649.772 264.909 647.017 264.909 Q643.754 264.909 641.832 267.131 Q639.911 269.33 639.911 273.103 L639.911 287.756 L635.629 287.756 L635.629 261.83 L639.911 261.83 L639.911 265.858 Q641.369 263.473 643.406 262.339 Q645.443 261.205 648.244 261.205 Q651.068 261.205 653.036 262.64 Q655.027 264.075 655.976 266.807 Z" fill="#ffffff" fill-rule="evenodd" fill-opacity="1" /><path clip-path="url(#clip530)" d="M686.091 283.867 L686.091 297.617 L681.809 297.617 L681.809 261.83 L686.091 261.83 L686.091 265.765 Q687.434 263.45 689.471 262.339 Q691.531 261.205 694.378 261.205 Q699.1 261.205 702.04 264.955 Q705.003 268.705 705.003 274.816 Q705.003 280.927 702.04 284.677 Q699.1 288.427 694.378 288.427 Q691.531 288.427 689.471 287.316 Q687.434 286.182 686.091 283.867 M700.582 274.816 Q700.582 270.117 698.638 267.455 Q696.716 264.77 693.337 264.77 Q689.957 264.77 688.013 267.455 Q686.091 270.117 686.091 274.816 Q686.091 279.515 688.013 282.2 Q689.957 284.862 693.337 284.862 Q696.716 284.862 698.638 282.2 Q700.582 279.515 700.582 274.816 Z" fill="#ffffff" fill-rule="evenodd" fill-opacity="1" /><path clip-path="url(#clip530)" d="M712.063 251.737 L716.323 251.737 L716.323 287.756 L712.063 287.756 L712.063 251.737 Z" fill="#ffffff" fill-rule="evenodd" fill-opacity="1" /><path clip-path="url(#clip530)" d="M747.41 273.728 L747.41 275.811 L727.827 275.811 Q728.105 280.209 730.466 282.524 Q732.85 284.816 737.086 284.816 Q739.54 284.816 741.832 284.214 Q744.147 283.612 746.415 282.409 L746.415 286.436 Q744.123 287.408 741.716 287.918 Q739.309 288.427 736.832 288.427 Q730.628 288.427 726.994 284.816 Q723.383 281.205 723.383 275.047 Q723.383 268.682 726.809 264.955 Q730.258 261.205 736.091 261.205 Q741.322 261.205 744.355 264.585 Q747.41 267.941 747.41 273.728 M743.151 272.478 Q743.105 268.983 741.184 266.899 Q739.285 264.816 736.137 264.816 Q732.573 264.816 730.42 266.83 Q728.29 268.844 727.966 272.501 L743.151 272.478 Z" fill="#ffffff" fill-rule="evenodd" fill-opacity="1" /><polyline clip-path="url(#clip530)" style="stroke:#3da44d; stroke-linecap:round; stroke-linejoin:round; stroke-width:4; stroke-opacity:1; fill:none" points="343.018,322.316 483.232,322.316 "/>
<path clip-path="url(#clip530)" d="M518.453 323.184 Q515.12 323.184 513.199 324.966 Q511.301 326.749 511.301 329.874 Q511.301 332.999 513.199 334.781 Q515.12 336.563 518.453 336.563 Q521.787 336.563 523.708 334.781 Q525.629 332.975 525.629 329.874 Q525.629 326.749 523.708 324.966 Q521.81 323.184 518.453 323.184 M513.777 321.193 Q510.768 320.452 509.078 318.392 Q507.412 316.332 507.412 313.369 Q507.412 309.226 510.351 306.818 Q513.314 304.411 518.453 304.411 Q523.615 304.411 526.555 306.818 Q529.495 309.226 529.495 313.369 Q529.495 316.332 527.805 318.392 Q526.138 320.452 523.152 321.193 Q526.532 321.98 528.407 324.272 Q530.305 326.563 530.305 329.874 Q530.305 334.897 527.226 337.582 Q524.171 340.267 518.453 340.267 Q512.736 340.267 509.657 337.582 Q506.602 334.897 506.602 329.874 Q506.602 326.563 508.5 324.272 Q510.398 321.98 513.777 321.193 M512.064 313.809 Q512.064 316.494 513.731 317.999 Q515.421 319.503 518.453 319.503 Q521.463 319.503 523.152 317.999 Q524.865 316.494 524.865 313.809 Q524.865 311.124 523.152 309.619 Q521.463 308.114 518.453 308.114 Q515.421 308.114 513.731 309.619 Q512.064 311.124 512.064 313.809 Z" fill="#ffffff" fill-rule="evenodd" fill-opacity="1" /><path clip-path="url(#clip530)" d="M559.564 313.67 L550.189 326.286 L560.05 339.596 L555.027 339.596 L547.481 329.411 L539.935 339.596 L534.912 339.596 L544.981 326.031 L535.768 313.67 L540.791 313.67 L547.666 322.906 L554.541 313.67 L559.564 313.67 Z" fill="#ffffff" fill-rule="evenodd" fill-opacity="1" /><path clip-path="url(#clip530)" d="M597.666 314.434 L597.666 318.462 Q595.86 317.536 593.916 317.073 Q591.971 316.61 589.888 316.61 Q586.717 316.61 585.12 317.582 Q583.546 318.554 583.546 320.499 Q583.546 321.98 584.68 322.837 Q585.814 323.67 589.24 324.434 L590.698 324.758 Q595.235 325.73 597.133 327.512 Q599.055 329.272 599.055 332.443 Q599.055 336.054 596.184 338.161 Q593.337 340.267 588.337 340.267 Q586.254 340.267 583.985 339.85 Q581.74 339.457 579.24 338.647 L579.24 334.249 Q581.601 335.475 583.893 336.1 Q586.184 336.702 588.43 336.702 Q591.439 336.702 593.059 335.684 Q594.68 334.642 594.68 332.767 Q594.68 331.031 593.499 330.105 Q592.342 329.179 588.383 328.323 L586.902 327.975 Q582.944 327.142 581.184 325.429 Q579.425 323.693 579.425 320.684 Q579.425 317.026 582.018 315.036 Q584.61 313.045 589.379 313.045 Q591.74 313.045 593.823 313.392 Q595.907 313.739 597.666 314.434 Z" fill="#ffffff" fill-rule="evenodd" fill-opacity="1" /><path clip-path="url(#clip530)" d="M617.619 326.563 Q612.457 326.563 610.467 327.744 Q608.476 328.924 608.476 331.772 Q608.476 334.04 609.957 335.383 Q611.462 336.702 614.031 336.702 Q617.573 336.702 619.703 334.202 Q621.856 331.679 621.856 327.512 L621.856 326.563 L617.619 326.563 M626.115 324.804 L626.115 339.596 L621.856 339.596 L621.856 335.661 Q620.397 338.022 618.221 339.156 Q616.045 340.267 612.897 340.267 Q608.916 340.267 606.555 338.045 Q604.217 335.799 604.217 332.049 Q604.217 327.674 607.133 325.452 Q610.073 323.23 615.883 323.23 L621.856 323.23 L621.856 322.813 Q621.856 319.874 619.911 318.276 Q617.99 316.656 614.494 316.656 Q612.272 316.656 610.166 317.188 Q608.059 317.721 606.115 318.786 L606.115 314.85 Q608.453 313.948 610.652 313.508 Q612.851 313.045 614.934 313.045 Q620.559 313.045 623.337 315.962 Q626.115 318.878 626.115 324.804 Z" fill="#ffffff" fill-rule="evenodd" fill-opacity="1" /><path clip-path="url(#clip530)" d="M655.073 318.647 Q656.67 315.776 658.892 314.411 Q661.115 313.045 664.124 313.045 Q668.175 313.045 670.374 315.892 Q672.573 318.716 672.573 323.948 L672.573 339.596 L668.29 339.596 L668.29 324.087 Q668.29 320.36 666.971 318.554 Q665.652 316.749 662.943 316.749 Q659.633 316.749 657.712 318.948 Q655.791 321.147 655.791 324.943 L655.791 339.596 L651.508 339.596 L651.508 324.087 Q651.508 320.337 650.189 318.554 Q648.869 316.749 646.115 316.749 Q642.851 316.749 640.929 318.971 Q639.008 321.17 639.008 324.943 L639.008 339.596 L634.726 339.596 L634.726 313.67 L639.008 313.67 L639.008 317.698 Q640.467 315.313 642.504 314.179 Q644.541 313.045 647.341 313.045 Q650.166 313.045 652.133 314.48 Q654.124 315.915 655.073 318.647 Z" fill="#ffffff" fill-rule="evenodd" fill-opacity="1" /><path clip-path="url(#clip530)" d="M685.189 335.707 L685.189 349.457 L680.906 349.457 L680.906 313.67 L685.189 313.67 L685.189 317.605 Q686.531 315.29 688.568 314.179 Q690.628 313.045 693.476 313.045 Q698.198 313.045 701.138 316.795 Q704.1 320.545 704.1 326.656 Q704.1 332.767 701.138 336.517 Q698.198 340.267 693.476 340.267 Q690.628 340.267 688.568 339.156 Q686.531 338.022 685.189 335.707 M699.679 326.656 Q699.679 321.957 697.735 319.295 Q695.813 316.61 692.434 316.61 Q689.054 316.61 687.11 319.295 Q685.189 321.957 685.189 326.656 Q685.189 331.355 687.11 334.04 Q689.054 336.702 692.434 336.702 Q695.813 336.702 697.735 334.04 Q699.679 331.355 699.679 326.656 Z" fill="#ffffff" fill-rule="evenodd" fill-opacity="1" /><path clip-path="url(#clip530)" d="M711.161 303.577 L715.42 303.577 L715.42 339.596 L711.161 339.596 L711.161 303.577 Z" fill="#ffffff" fill-rule="evenodd" fill-opacity="1" /><path clip-path="url(#clip530)" d="M746.508 325.568 L746.508 327.651 L726.924 327.651 Q727.202 332.049 729.563 334.364 Q731.948 336.656 736.184 336.656 Q738.637 336.656 740.929 336.054 Q743.244 335.452 745.512 334.249 L745.512 338.276 Q743.221 339.248 740.813 339.758 Q738.406 340.267 735.929 340.267 Q729.725 340.267 726.091 336.656 Q722.48 333.045 722.48 326.887 Q722.48 320.522 725.906 316.795 Q729.355 313.045 735.188 313.045 Q740.42 313.045 743.452 316.425 Q746.508 319.781 746.508 325.568 M742.248 324.318 Q742.202 320.823 740.281 318.739 Q738.383 316.656 735.235 316.656 Q731.67 316.656 729.517 318.67 Q727.387 320.684 727.063 324.341 L742.248 324.318 Z" fill="#ffffff" fill-rule="evenodd" fill-opacity="1" /></svg>
