<?xml version="1.0" encoding="utf-8"?>
<svg xmlns="http://www.w3.org/2000/svg" xmlns:xlink="http://www.w3.org/1999/xlink" width="600" height="400" viewBox="0 0 2400 1600">
<defs>
  <clipPath id="clip320">
    <rect x="0" y="0" width="2400" height="1600"/>
  </clipPath>
</defs>
<path clip-path="url(#clip320)" d="M0 1600 L2400 1600 L2400 0 L0 0  Z" fill="#000000" fill-rule="evenodd" fill-opacity="0"/>
<defs>
  <clipPath id="clip321">
    <rect x="480" y="0" width="1681" height="1600"/>
  </clipPath>
</defs>
<path clip-path="url(#clip320)" d="M250.028 1423.18 L2352.76 1423.18 L2352.76 123.472 L250.028 123.472  Z" fill="#000000" fill-rule="evenodd" fill-opacity="0"/>
<defs>
  <clipPath id="clip322">
    <rect x="250" y="123" width="2104" height="1301"/>
  </clipPath>
</defs>
<polyline clip-path="url(#clip322)" style="stroke:#ffffff; stroke-linecap:round; stroke-linejoin:round; stroke-width:2; stroke-opacity:0.1; fill:none" points="565.501,1423.18 565.501,123.472 "/>
<polyline clip-path="url(#clip322)" style="stroke:#ffffff; stroke-linecap:round; stroke-linejoin:round; stroke-width:2; stroke-opacity:0.1; fill:none" points="885.454,1423.18 885.454,123.472 "/>
<polyline clip-path="url(#clip322)" style="stroke:#ffffff; stroke-linecap:round; stroke-linejoin:round; stroke-width:2; stroke-opacity:0.1; fill:none" points="1205.41,1423.18 1205.41,123.472 "/>
<polyline clip-path="url(#clip322)" style="stroke:#ffffff; stroke-linecap:round; stroke-linejoin:round; stroke-width:2; stroke-opacity:0.1; fill:none" points="1525.36,1423.18 1525.36,123.472 "/>
<polyline clip-path="url(#clip322)" style="stroke:#ffffff; stroke-linecap:round; stroke-linejoin:round; stroke-width:2; stroke-opacity:0.1; fill:none" points="1845.31,1423.18 1845.31,123.472 "/>
<polyline clip-path="url(#clip322)" style="stroke:#ffffff; stroke-linecap:round; stroke-linejoin:round; stroke-width:2; stroke-opacity:0.1; fill:none" points="2165.26,1423.18 2165.26,123.472 "/>
<polyline clip-path="url(#clip320)" style="stroke:#ffffff; stroke-linecap:round; stroke-linejoin:round; stroke-width:4; stroke-opacity:1; fill:none" points="250.028,1423.18 2352.76,1423.18 "/>
<polyline clip-path="url(#clip320)" style="stroke:#ffffff; stroke-linecap:round; stroke-linejoin:round; stroke-width:4; stroke-opacity:1; fill:none" points="565.501,1423.18 565.501,1404.28 "/>
<polyline clip-path="url(#clip320)" style="stroke:#ffffff; stroke-linecap:round; stroke-linejoin:round; stroke-width:4; stroke-opacity:1; fill:none" points="885.454,1423.18 885.454,1404.28 "/>
<polyline clip-path="url(#clip320)" style="stroke:#ffffff; stroke-linecap:round; stroke-linejoin:round; stroke-width:4; stroke-opacity:1; fill:none" points="1205.41,1423.18 1205.41,1404.28 "/>
<polyline clip-path="url(#clip320)" style="stroke:#ffffff; stroke-linecap:round; stroke-linejoin:round; stroke-width:4; stroke-opacity:1; fill:none" points="1525.36,1423.18 1525.36,1404.28 "/>
<polyline clip-path="url(#clip320)" style="stroke:#ffffff; stroke-linecap:round; stroke-linejoin:round; stroke-width:4; stroke-opacity:1; fill:none" points="1845.31,1423.18 1845.31,1404.28 "/>
<polyline clip-path="url(#clip320)" style="stroke:#ffffff; stroke-linecap:round; stroke-linejoin:round; stroke-width:4; stroke-opacity:1; fill:none" points="2165.26,1423.18 2165.26,1404.28 "/>
<path clip-path="url(#clip320)" d="M555.779 1451.02 L574.136 1451.02 L574.136 1454.96 L560.062 1454.96 L560.062 1463.43 Q561.08 1463.08 562.099 1462.92 Q563.117 1462.73 564.136 1462.73 Q569.923 1462.73 573.302 1465.9 Q576.682 1469.08 576.682 1474.49 Q576.682 1480.07 573.21 1483.17 Q569.737 1486.25 563.418 1486.25 Q561.242 1486.25 558.974 1485.88 Q556.728 1485.51 554.321 1484.77 L554.321 1480.07 Q556.404 1481.2 558.626 1481.76 Q560.849 1482.32 563.325 1482.32 Q567.33 1482.32 569.668 1480.21 Q572.006 1478.1 572.006 1474.49 Q572.006 1470.88 569.668 1468.77 Q567.33 1466.67 563.325 1466.67 Q561.45 1466.67 559.575 1467.08 Q557.724 1467.5 555.779 1468.38 L555.779 1451.02 Z" fill="#ffffff" fill-rule="evenodd" fill-opacity="1" /><path clip-path="url(#clip320)" d="M860.141 1481.64 L867.78 1481.64 L867.78 1455.28 L859.47 1456.95 L859.47 1452.69 L867.734 1451.02 L872.41 1451.02 L872.41 1481.64 L880.049 1481.64 L880.049 1485.58 L860.141 1485.58 L860.141 1481.64 Z" fill="#ffffff" fill-rule="evenodd" fill-opacity="1" /><path clip-path="url(#clip320)" d="M899.493 1454.1 Q895.882 1454.1 894.053 1457.66 Q892.248 1461.2 892.248 1468.33 Q892.248 1475.44 894.053 1479.01 Q895.882 1482.55 899.493 1482.55 Q903.127 1482.55 904.933 1479.01 Q906.762 1475.44 906.762 1468.33 Q906.762 1461.2 904.933 1457.66 Q903.127 1454.1 899.493 1454.1 M899.493 1450.39 Q905.303 1450.39 908.359 1455 Q911.437 1459.58 911.437 1468.33 Q911.437 1477.06 908.359 1481.67 Q905.303 1486.25 899.493 1486.25 Q893.683 1486.25 890.604 1481.67 Q887.549 1477.06 887.549 1468.33 Q887.549 1459.58 890.604 1455 Q893.683 1450.39 899.493 1450.39 Z" fill="#ffffff" fill-rule="evenodd" fill-opacity="1" /><path clip-path="url(#clip320)" d="M1180.59 1481.64 L1188.23 1481.64 L1188.23 1455.28 L1179.92 1456.95 L1179.92 1452.69 L1188.18 1451.02 L1192.86 1451.02 L1192.86 1481.64 L1200.5 1481.64 L1200.5 1485.58 L1180.59 1485.58 L1180.59 1481.64 Z" fill="#ffffff" fill-rule="evenodd" fill-opacity="1" /><path clip-path="url(#clip320)" d="M1209.99 1451.02 L1228.35 1451.02 L1228.35 1454.96 L1214.27 1454.96 L1214.27 1463.43 Q1215.29 1463.08 1216.31 1462.92 Q1217.33 1462.73 1218.35 1462.73 Q1224.13 1462.73 1227.51 1465.9 Q1230.89 1469.08 1230.89 1474.49 Q1230.89 1480.07 1227.42 1483.17 Q1223.95 1486.25 1217.63 1486.25 Q1215.45 1486.25 1213.18 1485.88 Q1210.94 1485.51 1208.53 1484.77 L1208.53 1480.07 Q1210.61 1481.2 1212.84 1481.76 Q1215.06 1482.32 1217.54 1482.32 Q1221.54 1482.32 1223.88 1480.21 Q1226.22 1478.1 1226.22 1474.49 Q1226.22 1470.88 1223.88 1468.77 Q1221.54 1466.67 1217.54 1466.67 Q1215.66 1466.67 1213.79 1467.08 Q1211.93 1467.5 1209.99 1468.38 L1209.99 1451.02 Z" fill="#ffffff" fill-rule="evenodd" fill-opacity="1" /><path clip-path="url(#clip320)" d="M1504.13 1481.64 L1520.45 1481.64 L1520.45 1485.58 L1498.51 1485.58 L1498.51 1481.64 Q1501.17 1478.89 1505.75 1474.26 Q1510.36 1469.61 1511.54 1468.27 Q1513.78 1465.74 1514.66 1464.01 Q1515.57 1462.25 1515.57 1460.56 Q1515.57 1457.8 1513.62 1456.07 Q1511.7 1454.33 1508.6 1454.33 Q1506.4 1454.33 1503.95 1455.09 Q1501.52 1455.86 1498.74 1457.41 L1498.74 1452.69 Q1501.56 1451.55 1504.02 1450.97 Q1506.47 1450.39 1508.51 1450.39 Q1513.88 1450.39 1517.07 1453.08 Q1520.27 1455.77 1520.27 1460.26 Q1520.27 1462.39 1519.46 1464.31 Q1518.67 1466.2 1516.56 1468.8 Q1515.98 1469.47 1512.88 1472.69 Q1509.78 1475.88 1504.13 1481.64 Z" fill="#ffffff" fill-rule="evenodd" fill-opacity="1" /><path clip-path="url(#clip320)" d="M1540.27 1454.1 Q1536.66 1454.1 1534.83 1457.66 Q1533.02 1461.2 1533.02 1468.33 Q1533.02 1475.44 1534.83 1479.01 Q1536.66 1482.55 1540.27 1482.55 Q1543.9 1482.55 1545.71 1479.01 Q1547.53 1475.44 1547.53 1468.33 Q1547.53 1461.2 1545.71 1457.66 Q1543.9 1454.1 1540.27 1454.1 M1540.27 1450.39 Q1546.08 1450.39 1549.13 1455 Q1552.21 1459.58 1552.21 1468.33 Q1552.21 1477.06 1549.13 1481.67 Q1546.08 1486.25 1540.27 1486.25 Q1534.46 1486.25 1531.38 1481.67 Q1528.32 1477.06 1528.32 1468.33 Q1528.32 1459.58 1531.38 1455 Q1534.46 1450.39 1540.27 1450.39 Z" fill="#ffffff" fill-rule="evenodd" fill-opacity="1" /><path clip-path="url(#clip320)" d="M1824.58 1481.64 L1840.9 1481.64 L1840.9 1485.58 L1818.96 1485.58 L1818.96 1481.64 Q1821.62 1478.89 1826.2 1474.26 Q1830.81 1469.61 1831.99 1468.27 Q1834.23 1465.74 1835.11 1464.01 Q1836.02 1462.25 1836.02 1460.56 Q1836.02 1457.8 1834.07 1456.07 Q1832.15 1454.33 1829.05 1454.33 Q1826.85 1454.33 1824.4 1455.09 Q1821.97 1455.86 1819.19 1457.41 L1819.19 1452.69 Q1822.01 1451.55 1824.47 1450.97 Q1826.92 1450.39 1828.96 1450.39 Q1834.33 1450.39 1837.52 1453.08 Q1840.72 1455.77 1840.72 1460.26 Q1840.72 1462.39 1839.91 1464.31 Q1839.12 1466.2 1837.01 1468.8 Q1836.43 1469.47 1833.33 1472.69 Q1830.23 1475.88 1824.58 1481.64 Z" fill="#ffffff" fill-rule="evenodd" fill-opacity="1" /><path clip-path="url(#clip320)" d="M1850.76 1451.02 L1869.12 1451.02 L1869.12 1454.96 L1855.05 1454.96 L1855.05 1463.43 Q1856.06 1463.08 1857.08 1462.92 Q1858.1 1462.73 1859.12 1462.73 Q1864.91 1462.73 1868.29 1465.9 Q1871.67 1469.08 1871.67 1474.49 Q1871.67 1480.07 1868.19 1483.17 Q1864.72 1486.25 1858.4 1486.25 Q1856.23 1486.25 1853.96 1485.88 Q1851.71 1485.51 1849.3 1484.77 L1849.3 1480.07 Q1851.39 1481.2 1853.61 1481.76 Q1855.83 1482.32 1858.31 1482.32 Q1862.31 1482.32 1864.65 1480.21 Q1866.99 1478.1 1866.99 1474.49 Q1866.99 1470.88 1864.65 1468.77 Q1862.31 1466.67 1858.31 1466.67 Q1856.43 1466.67 1854.56 1467.08 Q1852.71 1467.5 1850.76 1468.38 L1850.76 1451.02 Z" fill="#ffffff" fill-rule="evenodd" fill-opacity="1" /><path clip-path="url(#clip320)" d="M2154.11 1466.95 Q2157.46 1467.66 2159.34 1469.93 Q2161.24 1472.2 2161.24 1475.53 Q2161.24 1480.65 2157.72 1483.45 Q2154.2 1486.25 2147.72 1486.25 Q2145.54 1486.25 2143.23 1485.81 Q2140.94 1485.39 2138.48 1484.54 L2138.48 1480.02 Q2140.43 1481.16 2142.74 1481.74 Q2145.06 1482.32 2147.58 1482.32 Q2151.98 1482.32 2154.27 1480.58 Q2156.58 1478.84 2156.58 1475.53 Q2156.58 1472.48 2154.43 1470.77 Q2152.3 1469.03 2148.48 1469.03 L2144.45 1469.03 L2144.45 1465.19 L2148.67 1465.19 Q2152.12 1465.19 2153.94 1463.82 Q2155.77 1462.43 2155.77 1459.84 Q2155.77 1457.18 2153.87 1455.77 Q2152 1454.33 2148.48 1454.33 Q2146.56 1454.33 2144.36 1454.75 Q2142.16 1455.16 2139.52 1456.04 L2139.52 1451.88 Q2142.19 1451.14 2144.5 1450.77 Q2146.84 1450.39 2148.9 1450.39 Q2154.22 1450.39 2157.32 1452.83 Q2160.43 1455.23 2160.43 1459.35 Q2160.43 1462.22 2158.78 1464.21 Q2157.14 1466.18 2154.11 1466.95 Z" fill="#ffffff" fill-rule="evenodd" fill-opacity="1" /><path clip-path="url(#clip320)" d="M2180.1 1454.1 Q2176.49 1454.1 2174.66 1457.66 Q2172.86 1461.2 2172.86 1468.33 Q2172.86 1475.44 2174.66 1479.01 Q2176.49 1482.55 2180.1 1482.55 Q2183.74 1482.55 2185.54 1479.01 Q2187.37 1475.44 2187.37 1468.33 Q2187.37 1461.2 2185.54 1457.66 Q2183.74 1454.1 2180.1 1454.1 M2180.1 1450.39 Q2185.91 1450.39 2188.97 1455 Q2192.05 1459.58 2192.05 1468.33 Q2192.05 1477.06 2188.97 1481.67 Q2185.91 1486.25 2180.1 1486.25 Q2174.29 1486.25 2171.21 1481.67 Q2168.16 1477.06 2168.16 1468.33 Q2168.16 1459.58 2171.21 1455 Q2174.29 1450.39 2180.1 1450.39 Z" fill="#ffffff" fill-rule="evenodd" fill-opacity="1" /><path clip-path="url(#clip320)" d="M1210.79 1524.18 L1210.79 1530.96 Q1207.55 1527.94 1203.85 1526.44 Q1200.19 1524.95 1196.06 1524.95 Q1187.91 1524.95 1183.58 1529.95 Q1179.25 1534.91 1179.25 1544.33 Q1179.25 1553.72 1183.58 1558.72 Q1187.91 1563.68 1196.06 1563.68 Q1200.19 1563.68 1203.85 1562.19 Q1207.55 1560.69 1210.79 1557.67 L1210.79 1564.38 Q1207.42 1566.68 1203.63 1567.82 Q1199.87 1568.97 1195.67 1568.97 Q1184.88 1568.97 1178.68 1562.38 Q1172.47 1555.76 1172.47 1544.33 Q1172.47 1532.87 1178.68 1526.28 Q1184.88 1519.66 1195.67 1519.66 Q1199.94 1519.66 1203.69 1520.81 Q1207.48 1521.92 1210.79 1524.18 Z" fill="#ffffff" fill-rule="evenodd" fill-opacity="1" /><path clip-path="url(#clip320)" d="M1250.1 1546.53 L1250.1 1568.04 L1244.24 1568.04 L1244.24 1546.72 Q1244.24 1541.66 1242.27 1539.14 Q1240.3 1536.63 1236.35 1536.63 Q1231.61 1536.63 1228.87 1539.65 Q1226.13 1542.68 1226.13 1547.9 L1226.13 1568.04 L1220.25 1568.04 L1220.25 1518.52 L1226.13 1518.52 L1226.13 1537.93 Q1228.23 1534.72 1231.07 1533.13 Q1233.93 1531.54 1237.66 1531.54 Q1243.8 1531.54 1246.95 1535.36 Q1250.1 1539.14 1250.1 1546.53 Z" fill="#ffffff" fill-rule="evenodd" fill-opacity="1" /><path clip-path="url(#clip320)" d="M1277.98 1550.12 Q1270.88 1550.12 1268.15 1551.75 Q1265.41 1553.37 1265.41 1557.29 Q1265.41 1560.4 1267.45 1562.25 Q1269.52 1564.07 1273.05 1564.07 Q1277.92 1564.07 1280.85 1560.63 Q1283.81 1557.16 1283.81 1551.43 L1283.81 1550.12 L1277.98 1550.12 M1289.66 1547.71 L1289.66 1568.04 L1283.81 1568.04 L1283.81 1562.63 Q1281.8 1565.88 1278.81 1567.44 Q1275.82 1568.97 1271.49 1568.97 Q1266.01 1568.97 1262.77 1565.91 Q1259.55 1562.82 1259.55 1557.67 Q1259.55 1551.65 1263.56 1548.6 Q1267.61 1545.54 1275.59 1545.54 L1283.81 1545.54 L1283.81 1544.97 Q1283.81 1540.93 1281.13 1538.73 Q1278.49 1536.5 1273.69 1536.5 Q1270.63 1536.5 1267.73 1537.23 Q1264.84 1537.97 1262.16 1539.43 L1262.16 1534.02 Q1265.38 1532.78 1268.4 1532.17 Q1271.43 1531.54 1274.29 1531.54 Q1282.02 1531.54 1285.84 1535.55 Q1289.66 1539.56 1289.66 1547.71 Z" fill="#ffffff" fill-rule="evenodd" fill-opacity="1" /><path clip-path="url(#clip320)" d="M1331.36 1546.53 L1331.36 1568.04 L1325.5 1568.04 L1325.5 1546.72 Q1325.5 1541.66 1323.53 1539.14 Q1321.56 1536.63 1317.61 1536.63 Q1312.87 1536.63 1310.13 1539.65 Q1307.39 1542.68 1307.39 1547.9 L1307.39 1568.04 L1301.5 1568.04 L1301.5 1532.4 L1307.39 1532.4 L1307.39 1537.93 Q1309.49 1534.72 1312.33 1533.13 Q1315.19 1531.54 1318.91 1531.54 Q1325.06 1531.54 1328.21 1535.36 Q1331.36 1539.14 1331.36 1546.53 Z" fill="#ffffff" fill-rule="evenodd" fill-opacity="1" /><path clip-path="url(#clip320)" d="M1372.67 1546.53 L1372.67 1568.04 L1366.82 1568.04 L1366.82 1546.72 Q1366.82 1541.66 1364.84 1539.14 Q1362.87 1536.63 1358.92 1536.63 Q1354.18 1536.63 1351.44 1539.65 Q1348.71 1542.68 1348.71 1547.9 L1348.71 1568.04 L1342.82 1568.04 L1342.82 1532.4 L1348.71 1532.4 L1348.71 1537.93 Q1350.81 1534.72 1353.64 1533.13 Q1356.5 1531.54 1360.23 1531.54 Q1366.37 1531.54 1369.52 1535.36 Q1372.67 1539.14 1372.67 1546.53 Z" fill="#ffffff" fill-rule="evenodd" fill-opacity="1" /><path clip-path="url(#clip320)" d="M1414.84 1548.76 L1414.84 1551.62 L1387.92 1551.62 Q1388.3 1557.67 1391.55 1560.85 Q1394.82 1564 1400.65 1564 Q1404.02 1564 1407.17 1563.17 Q1410.36 1562.35 1413.48 1560.69 L1413.48 1566.23 Q1410.33 1567.57 1407.02 1568.27 Q1403.7 1568.97 1400.3 1568.97 Q1391.77 1568.97 1386.77 1564 Q1381.81 1559.04 1381.81 1550.57 Q1381.81 1541.82 1386.52 1536.69 Q1391.26 1531.54 1399.28 1531.54 Q1406.47 1531.54 1410.64 1536.18 Q1414.84 1540.8 1414.84 1548.76 M1408.99 1547.04 Q1408.92 1542.23 1406.28 1539.37 Q1403.67 1536.5 1399.34 1536.5 Q1394.44 1536.5 1391.48 1539.27 Q1388.55 1542.04 1388.11 1547.07 L1408.99 1547.04 Z" fill="#ffffff" fill-rule="evenodd" fill-opacity="1" /><path clip-path="url(#clip320)" d="M1424.46 1518.52 L1430.31 1518.52 L1430.31 1568.04 L1424.46 1568.04 L1424.46 1518.52 Z" fill="#ffffff" fill-rule="evenodd" fill-opacity="1" /><polyline clip-path="url(#clip322)" style="stroke:#ffffff; stroke-linecap:round; stroke-linejoin:round; stroke-width:2; stroke-opacity:0.1; fill:none" points="250.028,1360.43 2352.76,1360.43 "/>
<polyline clip-path="url(#clip322)" style="stroke:#ffffff; stroke-linecap:round; stroke-linejoin:round; stroke-width:2; stroke-opacity:0.1; fill:none" points="250.028,1167.23 2352.76,1167.23 "/>
<polyline clip-path="url(#clip322)" style="stroke:#ffffff; stroke-linecap:round; stroke-linejoin:round; stroke-width:2; stroke-opacity:0.1; fill:none" points="250.028,974.028 2352.76,974.028 "/>
<polyline clip-path="url(#clip322)" style="stroke:#ffffff; stroke-linecap:round; stroke-linejoin:round; stroke-width:2; stroke-opacity:0.1; fill:none" points="250.028,780.825 2352.76,780.825 "/>
<polyline clip-path="url(#clip322)" style="stroke:#ffffff; stroke-linecap:round; stroke-linejoin:round; stroke-width:2; stroke-opacity:0.1; fill:none" points="250.028,587.622 2352.76,587.622 "/>
<polyline clip-path="url(#clip322)" style="stroke:#ffffff; stroke-linecap:round; stroke-linejoin:round; stroke-width:2; stroke-opacity:0.1; fill:none" points="250.028,394.419 2352.76,394.419 "/>
<polyline clip-path="url(#clip322)" style="stroke:#ffffff; stroke-linecap:round; stroke-linejoin:round; stroke-width:2; stroke-opacity:0.1; fill:none" points="250.028,201.217 2352.76,201.217 "/>
<polyline clip-path="url(#clip320)" style="stroke:#ffffff; stroke-linecap:round; stroke-linejoin:round; stroke-width:4; stroke-opacity:1; fill:none" points="250.028,1423.18 250.028,123.472 "/>
<polyline clip-path="url(#clip320)" style="stroke:#ffffff; stroke-linecap:round; stroke-linejoin:round; stroke-width:4; stroke-opacity:1; fill:none" points="250.028,1360.43 268.926,1360.43 "/>
<polyline clip-path="url(#clip320)" style="stroke:#ffffff; stroke-linecap:round; stroke-linejoin:round; stroke-width:4; stroke-opacity:1; fill:none" points="250.028,1167.23 268.926,1167.23 "/>
<polyline clip-path="url(#clip320)" style="stroke:#ffffff; stroke-linecap:round; stroke-linejoin:round; stroke-width:4; stroke-opacity:1; fill:none" points="250.028,974.028 268.926,974.028 "/>
<polyline clip-path="url(#clip320)" style="stroke:#ffffff; stroke-linecap:round; stroke-linejoin:round; stroke-width:4; stroke-opacity:1; fill:none" points="250.028,780.825 268.926,780.825 "/>
<polyline clip-path="url(#clip320)" style="stroke:#ffffff; stroke-linecap:round; stroke-linejoin:round; stroke-width:4; stroke-opacity:1; fill:none" points="250.028,587.622 268.926,587.622 "/>
<polyline clip-path="url(#clip320)" style="stroke:#ffffff; stroke-linecap:round; stroke-linejoin:round; stroke-width:4; stroke-opacity:1; fill:none" points="250.028,394.419 268.926,394.419 "/>
<polyline clip-path="url(#clip320)" style="stroke:#ffffff; stroke-linecap:round; stroke-linejoin:round; stroke-width:4; stroke-opacity:1; fill:none" points="250.028,201.217 268.926,201.217 "/>
<path clip-path="url(#clip320)" d="M126.876 1346.23 Q123.265 1346.23 121.436 1349.8 Q119.63 1353.34 119.63 1360.47 Q119.63 1367.57 121.436 1371.14 Q123.265 1374.68 126.876 1374.68 Q130.51 1374.68 132.316 1371.14 Q134.144 1367.57 134.144 1360.47 Q134.144 1353.34 132.316 1349.8 Q130.51 1346.23 126.876 1346.23 M126.876 1342.53 Q132.686 1342.53 135.742 1347.13 Q138.82 1351.72 138.82 1360.47 Q138.82 1369.19 135.742 1373.8 Q132.686 1378.38 126.876 1378.38 Q121.066 1378.38 117.987 1373.8 Q114.931 1369.19 114.931 1360.47 Q114.931 1351.72 117.987 1347.13 Q121.066 1342.53 126.876 1342.53 Z" fill="#ffffff" fill-rule="evenodd" fill-opacity="1" /><path clip-path="url(#clip320)" d="M147.038 1371.83 L151.922 1371.83 L151.922 1377.71 L147.038 1377.71 L147.038 1371.83 Z" fill="#ffffff" fill-rule="evenodd" fill-opacity="1" /><path clip-path="url(#clip320)" d="M166.135 1373.78 L182.454 1373.78 L182.454 1377.71 L160.51 1377.71 L160.51 1373.78 Q163.172 1371.02 167.755 1366.39 Q172.362 1361.74 173.542 1360.4 Q175.788 1357.88 176.667 1356.14 Q177.57 1354.38 177.57 1352.69 Q177.57 1349.94 175.626 1348.2 Q173.704 1346.46 170.602 1346.46 Q168.403 1346.46 165.95 1347.23 Q163.519 1347.99 160.741 1349.54 L160.741 1344.82 Q163.565 1343.69 166.019 1343.11 Q168.473 1342.53 170.51 1342.53 Q175.88 1342.53 179.075 1345.21 Q182.269 1347.9 182.269 1352.39 Q182.269 1354.52 181.459 1356.44 Q180.672 1358.34 178.565 1360.93 Q177.987 1361.6 174.885 1364.82 Q171.783 1368.01 166.135 1373.78 Z" fill="#ffffff" fill-rule="evenodd" fill-opacity="1" /><path clip-path="url(#clip320)" d="M192.408 1377 L192.408 1372.74 Q194.167 1373.57 195.973 1374.01 Q197.778 1374.45 199.514 1374.45 Q204.144 1374.45 206.574 1371.35 Q209.028 1368.22 209.375 1361.88 Q208.033 1363.87 205.973 1364.94 Q203.912 1366 201.412 1366 Q196.227 1366 193.195 1362.88 Q190.186 1359.73 190.186 1354.29 Q190.186 1348.96 193.334 1345.75 Q196.482 1342.53 201.713 1342.53 Q207.709 1342.53 210.857 1347.13 Q214.028 1351.72 214.028 1360.47 Q214.028 1368.64 210.139 1373.52 Q206.274 1378.38 199.723 1378.38 Q197.963 1378.38 196.158 1378.04 Q194.352 1377.69 192.408 1377 M201.713 1362.34 Q204.862 1362.34 206.69 1360.19 Q208.542 1358.04 208.542 1354.29 Q208.542 1350.56 206.69 1348.41 Q204.862 1346.23 201.713 1346.23 Q198.565 1346.23 196.713 1348.41 Q194.885 1350.56 194.885 1354.29 Q194.885 1358.04 196.713 1360.19 Q198.565 1362.34 201.713 1362.34 Z" fill="#ffffff" fill-rule="evenodd" fill-opacity="1" /><path clip-path="url(#clip320)" d="M126.691 1153.03 Q123.08 1153.03 121.251 1156.59 Q119.445 1160.14 119.445 1167.27 Q119.445 1174.37 121.251 1177.94 Q123.08 1181.48 126.691 1181.48 Q130.325 1181.48 132.13 1177.94 Q133.959 1174.37 133.959 1167.27 Q133.959 1160.14 132.13 1156.59 Q130.325 1153.03 126.691 1153.03 M126.691 1149.33 Q132.501 1149.33 135.556 1153.93 Q138.635 1158.52 138.635 1167.27 Q138.635 1175.99 135.556 1180.6 Q132.501 1185.18 126.691 1185.18 Q120.88 1185.18 117.802 1180.6 Q114.746 1175.99 114.746 1167.27 Q114.746 1158.52 117.802 1153.93 Q120.88 1149.33 126.691 1149.33 Z" fill="#ffffff" fill-rule="evenodd" fill-opacity="1" /><path clip-path="url(#clip320)" d="M146.853 1178.63 L151.737 1178.63 L151.737 1184.51 L146.853 1184.51 L146.853 1178.63 Z" fill="#ffffff" fill-rule="evenodd" fill-opacity="1" /><path clip-path="url(#clip320)" d="M176.089 1165.88 Q179.445 1166.59 181.32 1168.86 Q183.218 1171.13 183.218 1174.46 Q183.218 1179.58 179.7 1182.38 Q176.181 1185.18 169.7 1185.18 Q167.524 1185.18 165.209 1184.74 Q162.917 1184.33 160.464 1183.47 L160.464 1178.95 Q162.408 1180.09 164.723 1180.67 Q167.038 1181.25 169.561 1181.25 Q173.959 1181.25 176.251 1179.51 Q178.565 1177.77 178.565 1174.46 Q178.565 1171.41 176.413 1169.7 Q174.283 1167.96 170.464 1167.96 L166.436 1167.96 L166.436 1164.12 L170.649 1164.12 Q174.098 1164.12 175.926 1162.75 Q177.755 1161.36 177.755 1158.77 Q177.755 1156.11 175.857 1154.7 Q173.982 1153.26 170.464 1153.26 Q168.542 1153.26 166.343 1153.68 Q164.144 1154.09 161.505 1154.97 L161.505 1150.81 Q164.167 1150.07 166.482 1149.7 Q168.82 1149.33 170.88 1149.33 Q176.204 1149.33 179.306 1151.76 Q182.408 1154.16 182.408 1158.28 Q182.408 1161.15 180.764 1163.14 Q179.121 1165.11 176.089 1165.88 Z" fill="#ffffff" fill-rule="evenodd" fill-opacity="1" /><path clip-path="url(#clip320)" d="M202.084 1153.03 Q198.473 1153.03 196.644 1156.59 Q194.838 1160.14 194.838 1167.27 Q194.838 1174.37 196.644 1177.94 Q198.473 1181.48 202.084 1181.48 Q205.718 1181.48 207.524 1177.94 Q209.352 1174.37 209.352 1167.27 Q209.352 1160.14 207.524 1156.59 Q205.718 1153.03 202.084 1153.03 M202.084 1149.33 Q207.894 1149.33 210.949 1153.93 Q214.028 1158.52 214.028 1167.27 Q214.028 1175.99 210.949 1180.6 Q207.894 1185.18 202.084 1185.18 Q196.274 1185.18 193.195 1180.6 Q190.139 1175.99 190.139 1167.27 Q190.139 1158.52 193.195 1153.93 Q196.274 1149.33 202.084 1149.33 Z" fill="#ffffff" fill-rule="evenodd" fill-opacity="1" /><path clip-path="url(#clip320)" d="M127.917 959.826 Q124.306 959.826 122.478 963.391 Q120.672 966.933 120.672 974.062 Q120.672 981.169 122.478 984.734 Q124.306 988.275 127.917 988.275 Q131.552 988.275 133.357 984.734 Q135.186 981.169 135.186 974.062 Q135.186 966.933 133.357 963.391 Q131.552 959.826 127.917 959.826 M127.917 956.123 Q133.728 956.123 136.783 960.729 Q139.862 965.312 139.862 974.062 Q139.862 982.789 136.783 987.396 Q133.728 991.979 127.917 991.979 Q122.107 991.979 119.029 987.396 Q115.973 982.789 115.973 974.062 Q115.973 965.312 119.029 960.729 Q122.107 956.123 127.917 956.123 Z" fill="#ffffff" fill-rule="evenodd" fill-opacity="1" /><path clip-path="url(#clip320)" d="M148.079 985.428 L152.964 985.428 L152.964 991.308 L148.079 991.308 L148.079 985.428 Z" fill="#ffffff" fill-rule="evenodd" fill-opacity="1" /><path clip-path="url(#clip320)" d="M177.315 972.674 Q180.672 973.391 182.547 975.66 Q184.445 977.928 184.445 981.261 Q184.445 986.377 180.926 989.178 Q177.408 991.979 170.927 991.979 Q168.751 991.979 166.436 991.539 Q164.144 991.123 161.69 990.266 L161.69 985.752 Q163.635 986.886 165.95 987.465 Q168.264 988.044 170.788 988.044 Q175.186 988.044 177.477 986.308 Q179.792 984.572 179.792 981.261 Q179.792 978.206 177.639 976.493 Q175.51 974.757 171.69 974.757 L167.663 974.757 L167.663 970.914 L171.876 970.914 Q175.325 970.914 177.153 969.549 Q178.982 968.16 178.982 965.567 Q178.982 962.905 177.084 961.493 Q175.209 960.058 171.69 960.058 Q169.769 960.058 167.57 960.475 Q165.371 960.891 162.732 961.771 L162.732 957.604 Q165.394 956.863 167.709 956.493 Q170.047 956.123 172.107 956.123 Q177.431 956.123 180.533 958.553 Q183.635 960.961 183.635 965.081 Q183.635 967.951 181.991 969.942 Q180.348 971.91 177.315 972.674 Z" fill="#ffffff" fill-rule="evenodd" fill-opacity="1" /><path clip-path="url(#clip320)" d="M194.121 987.373 L201.76 987.373 L201.76 961.007 L193.45 962.674 L193.45 958.414 L201.713 956.748 L206.389 956.748 L206.389 987.373 L214.028 987.373 L214.028 991.308 L194.121 991.308 L194.121 987.373 Z" fill="#ffffff" fill-rule="evenodd" fill-opacity="1" /><path clip-path="url(#clip320)" d="M128.288 766.624 Q124.677 766.624 122.848 770.188 Q121.043 773.73 121.043 780.86 Q121.043 787.966 122.848 791.531 Q124.677 795.073 128.288 795.073 Q131.922 795.073 133.728 791.531 Q135.556 787.966 135.556 780.86 Q135.556 773.73 133.728 770.188 Q131.922 766.624 128.288 766.624 M128.288 762.92 Q134.098 762.92 137.154 767.526 Q140.232 772.11 140.232 780.86 Q140.232 789.586 137.154 794.193 Q134.098 798.776 128.288 798.776 Q122.478 798.776 119.399 794.193 Q116.343 789.586 116.343 780.86 Q116.343 772.11 119.399 767.526 Q122.478 762.92 128.288 762.92 Z" fill="#ffffff" fill-rule="evenodd" fill-opacity="1" /><path clip-path="url(#clip320)" d="M148.45 792.225 L153.334 792.225 L153.334 798.105 L148.45 798.105 L148.45 792.225 Z" fill="#ffffff" fill-rule="evenodd" fill-opacity="1" /><path clip-path="url(#clip320)" d="M177.686 779.471 Q181.042 780.188 182.917 782.457 Q184.815 784.725 184.815 788.059 Q184.815 793.174 181.297 795.975 Q177.778 798.776 171.297 798.776 Q169.121 798.776 166.806 798.336 Q164.515 797.92 162.061 797.063 L162.061 792.549 Q164.005 793.684 166.32 794.262 Q168.635 794.841 171.158 794.841 Q175.556 794.841 177.848 793.105 Q180.163 791.369 180.163 788.059 Q180.163 785.003 178.01 783.29 Q175.88 781.554 172.061 781.554 L168.033 781.554 L168.033 777.712 L172.246 777.712 Q175.695 777.712 177.524 776.346 Q179.352 774.957 179.352 772.364 Q179.352 769.702 177.454 768.29 Q175.579 766.855 172.061 766.855 Q170.139 766.855 167.94 767.272 Q165.741 767.688 163.102 768.568 L163.102 764.401 Q165.765 763.661 168.079 763.29 Q170.417 762.92 172.477 762.92 Q177.801 762.92 180.903 765.35 Q184.005 767.758 184.005 771.878 Q184.005 774.749 182.362 776.739 Q180.718 778.707 177.686 779.471 Z" fill="#ffffff" fill-rule="evenodd" fill-opacity="1" /><path clip-path="url(#clip320)" d="M197.709 794.17 L214.028 794.17 L214.028 798.105 L192.084 798.105 L192.084 794.17 Q194.746 791.415 199.329 786.786 Q203.936 782.133 205.116 780.79 Q207.362 778.267 208.241 776.531 Q209.144 774.772 209.144 773.082 Q209.144 770.327 207.199 768.591 Q205.278 766.855 202.176 766.855 Q199.977 766.855 197.524 767.619 Q195.093 768.383 192.315 769.934 L192.315 765.212 Q195.139 764.077 197.593 763.499 Q200.047 762.92 202.084 762.92 Q207.454 762.92 210.649 765.605 Q213.843 768.29 213.843 772.781 Q213.843 774.911 213.033 776.832 Q212.246 778.73 210.139 781.323 Q209.561 781.994 206.459 785.211 Q203.357 788.406 197.709 794.17 Z" fill="#ffffff" fill-rule="evenodd" fill-opacity="1" /><path clip-path="url(#clip320)" d="M127.339 573.421 Q123.728 573.421 121.899 576.986 Q120.093 580.527 120.093 587.657 Q120.093 594.763 121.899 598.328 Q123.728 601.87 127.339 601.87 Q130.973 601.87 132.779 598.328 Q134.607 594.763 134.607 587.657 Q134.607 580.527 132.779 576.986 Q130.973 573.421 127.339 573.421 M127.339 569.717 Q133.149 569.717 136.204 574.324 Q139.283 578.907 139.283 587.657 Q139.283 596.384 136.204 600.99 Q133.149 605.573 127.339 605.573 Q121.529 605.573 118.45 600.99 Q115.394 596.384 115.394 587.657 Q115.394 578.907 118.45 574.324 Q121.529 569.717 127.339 569.717 Z" fill="#ffffff" fill-rule="evenodd" fill-opacity="1" /><path clip-path="url(#clip320)" d="M147.501 599.023 L152.385 599.023 L152.385 604.902 L147.501 604.902 L147.501 599.023 Z" fill="#ffffff" fill-rule="evenodd" fill-opacity="1" /><path clip-path="url(#clip320)" d="M176.737 586.268 Q180.093 586.986 181.968 589.254 Q183.866 591.523 183.866 594.856 Q183.866 599.972 180.348 602.773 Q176.829 605.573 170.348 605.573 Q168.172 605.573 165.857 605.134 Q163.565 604.717 161.112 603.861 L161.112 599.347 Q163.056 600.481 165.371 601.06 Q167.686 601.638 170.209 601.638 Q174.607 601.638 176.899 599.902 Q179.214 598.166 179.214 594.856 Q179.214 591.8 177.061 590.087 Q174.931 588.351 171.112 588.351 L167.084 588.351 L167.084 584.509 L171.297 584.509 Q174.746 584.509 176.575 583.143 Q178.403 581.754 178.403 579.162 Q178.403 576.5 176.505 575.088 Q174.63 573.652 171.112 573.652 Q169.19 573.652 166.991 574.069 Q164.792 574.486 162.153 575.365 L162.153 571.199 Q164.815 570.458 167.13 570.088 Q169.468 569.717 171.528 569.717 Q176.852 569.717 179.954 572.148 Q183.056 574.555 183.056 578.675 Q183.056 581.546 181.413 583.537 Q179.769 585.504 176.737 586.268 Z" fill="#ffffff" fill-rule="evenodd" fill-opacity="1" /><path clip-path="url(#clip320)" d="M206.899 586.268 Q210.255 586.986 212.13 589.254 Q214.028 591.523 214.028 594.856 Q214.028 599.972 210.51 602.773 Q206.991 605.573 200.51 605.573 Q198.334 605.573 196.019 605.134 Q193.727 604.717 191.274 603.861 L191.274 599.347 Q193.218 600.481 195.533 601.06 Q197.848 601.638 200.371 601.638 Q204.769 601.638 207.061 599.902 Q209.375 598.166 209.375 594.856 Q209.375 591.8 207.223 590.087 Q205.093 588.351 201.274 588.351 L197.246 588.351 L197.246 584.509 L201.459 584.509 Q204.908 584.509 206.737 583.143 Q208.565 581.754 208.565 579.162 Q208.565 576.5 206.667 575.088 Q204.792 573.652 201.274 573.652 Q199.352 573.652 197.153 574.069 Q194.954 574.486 192.315 575.365 L192.315 571.199 Q194.977 570.458 197.292 570.088 Q199.63 569.717 201.69 569.717 Q207.014 569.717 210.116 572.148 Q213.218 574.555 213.218 578.675 Q213.218 581.546 211.574 583.537 Q209.931 585.504 206.899 586.268 Z" fill="#ffffff" fill-rule="evenodd" fill-opacity="1" /><path clip-path="url(#clip320)" d="M126.205 380.218 Q122.593 380.218 120.765 383.783 Q118.959 387.325 118.959 394.454 Q118.959 401.561 120.765 405.125 Q122.593 408.667 126.205 408.667 Q129.839 408.667 131.644 405.125 Q133.473 401.561 133.473 394.454 Q133.473 387.325 131.644 383.783 Q129.839 380.218 126.205 380.218 M126.205 376.514 Q132.015 376.514 135.07 381.121 Q138.149 385.704 138.149 394.454 Q138.149 403.181 135.07 407.787 Q132.015 412.371 126.205 412.371 Q120.394 412.371 117.316 407.787 Q114.26 403.181 114.26 394.454 Q114.26 385.704 117.316 381.121 Q120.394 376.514 126.205 376.514 Z" fill="#ffffff" fill-rule="evenodd" fill-opacity="1" /><path clip-path="url(#clip320)" d="M146.366 405.82 L151.251 405.82 L151.251 411.699 L146.366 411.699 L146.366 405.82 Z" fill="#ffffff" fill-rule="evenodd" fill-opacity="1" /><path clip-path="url(#clip320)" d="M175.602 393.065 Q178.959 393.783 180.834 396.051 Q182.732 398.32 182.732 401.653 Q182.732 406.769 179.214 409.57 Q175.695 412.371 169.214 412.371 Q167.038 412.371 164.723 411.931 Q162.431 411.514 159.978 410.658 L159.978 406.144 Q161.922 407.278 164.237 407.857 Q166.552 408.436 169.075 408.436 Q173.473 408.436 175.764 406.699 Q178.079 404.963 178.079 401.653 Q178.079 398.598 175.926 396.885 Q173.797 395.149 169.977 395.149 L165.95 395.149 L165.95 391.306 L170.163 391.306 Q173.612 391.306 175.44 389.94 Q177.269 388.551 177.269 385.959 Q177.269 383.297 175.371 381.885 Q173.496 380.45 169.977 380.45 Q168.056 380.45 165.857 380.866 Q163.658 381.283 161.019 382.163 L161.019 377.996 Q163.681 377.255 165.996 376.885 Q168.334 376.514 170.394 376.514 Q175.718 376.514 178.82 378.945 Q181.922 381.352 181.922 385.473 Q181.922 388.343 180.278 390.334 Q178.635 392.301 175.602 393.065 Z" fill="#ffffff" fill-rule="evenodd" fill-opacity="1" /><path clip-path="url(#clip320)" d="M204.445 381.213 L192.639 399.662 L204.445 399.662 L204.445 381.213 M203.218 377.139 L209.098 377.139 L209.098 399.662 L214.028 399.662 L214.028 403.551 L209.098 403.551 L209.098 411.699 L204.445 411.699 L204.445 403.551 L188.843 403.551 L188.843 399.037 L203.218 377.139 Z" fill="#ffffff" fill-rule="evenodd" fill-opacity="1" /><path clip-path="url(#clip320)" d="M127.686 187.015 Q124.075 187.015 122.246 190.58 Q120.441 194.122 120.441 201.251 Q120.441 208.358 122.246 211.923 Q124.075 215.464 127.686 215.464 Q131.32 215.464 133.126 211.923 Q134.954 208.358 134.954 201.251 Q134.954 194.122 133.126 190.58 Q131.32 187.015 127.686 187.015 M127.686 183.312 Q133.496 183.312 136.552 187.918 Q139.63 192.501 139.63 201.251 Q139.63 209.978 136.552 214.585 Q133.496 219.168 127.686 219.168 Q121.876 219.168 118.797 214.585 Q115.742 209.978 115.742 201.251 Q115.742 192.501 118.797 187.918 Q121.876 183.312 127.686 183.312 Z" fill="#ffffff" fill-rule="evenodd" fill-opacity="1" /><path clip-path="url(#clip320)" d="M147.848 212.617 L152.732 212.617 L152.732 218.497 L147.848 218.497 L147.848 212.617 Z" fill="#ffffff" fill-rule="evenodd" fill-opacity="1" /><path clip-path="url(#clip320)" d="M177.084 199.862 Q180.44 200.58 182.315 202.849 Q184.213 205.117 184.213 208.45 Q184.213 213.566 180.695 216.367 Q177.176 219.168 170.695 219.168 Q168.519 219.168 166.204 218.728 Q163.913 218.311 161.459 217.455 L161.459 212.941 Q163.403 214.075 165.718 214.654 Q168.033 215.233 170.556 215.233 Q174.954 215.233 177.246 213.497 Q179.561 211.761 179.561 208.45 Q179.561 205.395 177.408 203.682 Q175.278 201.946 171.459 201.946 L167.431 201.946 L167.431 198.103 L171.644 198.103 Q175.093 198.103 176.922 196.737 Q178.751 195.349 178.751 192.756 Q178.751 190.094 176.852 188.682 Q174.977 187.247 171.459 187.247 Q169.538 187.247 167.339 187.663 Q165.14 188.08 162.501 188.96 L162.501 184.793 Q165.163 184.052 167.477 183.682 Q169.815 183.312 171.876 183.312 Q177.2 183.312 180.301 185.742 Q183.403 188.15 183.403 192.27 Q183.403 195.14 181.76 197.131 Q180.116 199.099 177.084 199.862 Z" fill="#ffffff" fill-rule="evenodd" fill-opacity="1" /><path clip-path="url(#clip320)" d="M193.125 183.937 L211.482 183.937 L211.482 187.872 L197.408 187.872 L197.408 196.344 Q198.426 195.997 199.445 195.835 Q200.463 195.65 201.482 195.65 Q207.269 195.65 210.649 198.821 Q214.028 201.992 214.028 207.409 Q214.028 212.987 210.556 216.089 Q207.084 219.168 200.764 219.168 Q198.588 219.168 196.32 218.798 Q194.075 218.427 191.667 217.686 L191.667 212.987 Q193.75 214.122 195.973 214.677 Q198.195 215.233 200.672 215.233 Q204.676 215.233 207.014 213.126 Q209.352 211.02 209.352 207.409 Q209.352 203.798 207.014 201.691 Q204.676 199.585 200.672 199.585 Q198.797 199.585 196.922 200.001 Q195.07 200.418 193.125 201.298 L193.125 183.937 Z" fill="#ffffff" fill-rule="evenodd" fill-opacity="1" /><path clip-path="url(#clip320)" d="M16.4842 1051.46 L16.4842 1045.03 L58.5933 1045.03 L58.5933 1021.89 L64.0042 1021.89 L64.0042 1051.46 L16.4842 1051.46 Z" fill="#ffffff" fill-rule="evenodd" fill-opacity="1" /><path clip-path="url(#clip320)" d="M32.4621 1002.73 Q32.4621 1007.44 36.1542 1010.18 Q39.8145 1012.92 46.212 1012.92 Q52.6095 1012.92 56.3017 1010.21 Q59.9619 1007.47 59.9619 1002.73 Q59.9619 998.051 56.2698 995.314 Q52.5777 992.577 46.212 992.577 Q39.8781 992.577 36.186 995.314 Q32.4621 998.051 32.4621 1002.73 M27.4968 1002.73 Q27.4968 995.091 32.4621 990.731 Q37.4273 986.37 46.212 986.37 Q54.9649 986.37 59.9619 990.731 Q64.9272 995.091 64.9272 1002.73 Q64.9272 1010.4 59.9619 1014.76 Q54.9649 1019.09 46.212 1019.09 Q37.4273 1019.09 32.4621 1014.76 Q27.4968 1010.4 27.4968 1002.73 Z" fill="#ffffff" fill-rule="evenodd" fill-opacity="1" /><path clip-path="url(#clip320)" d="M28.3562 980.068 L28.3562 974.212 L56.1743 966.891 L28.3562 959.602 L28.3562 952.696 L56.1743 945.375 L28.3562 938.086 L28.3562 932.23 L64.0042 941.556 L64.0042 948.462 L34.7856 956.133 L64.0042 963.836 L64.0042 970.742 L28.3562 980.068 Z" fill="#ffffff" fill-rule="evenodd" fill-opacity="1" /><path clip-path="url(#clip320)" d="M44.7161 892.858 L47.5806 892.858 L47.5806 919.785 Q53.6281 919.403 56.8109 916.157 Q59.9619 912.878 59.9619 907.054 Q59.9619 903.68 59.1344 900.529 Q58.3069 897.346 56.6518 894.227 L62.1899 894.227 Q63.5267 897.378 64.227 900.688 Q64.9272 903.998 64.9272 907.404 Q64.9272 915.934 59.9619 920.931 Q54.9967 925.896 46.5303 925.896 Q37.7774 925.896 32.6531 921.185 Q27.4968 916.443 27.4968 908.422 Q27.4968 901.229 32.1438 897.059 Q36.7589 892.858 44.7161 892.858 M42.9973 898.714 Q38.1912 898.778 35.3266 901.42 Q32.4621 904.03 32.4621 908.359 Q32.4621 913.26 35.2312 916.22 Q38.0002 919.148 43.0292 919.594 L42.9973 898.714 Z" fill="#ffffff" fill-rule="evenodd" fill-opacity="1" /><path clip-path="url(#clip320)" d="M33.8307 862.589 Q33.2578 863.576 33.0032 864.753 Q32.7167 865.899 32.7167 867.3 Q32.7167 872.265 35.9632 874.939 Q39.1779 877.58 45.2253 877.58 L64.0042 877.58 L64.0042 883.469 L28.3562 883.469 L28.3562 877.58 L33.8944 877.58 Q30.6479 875.734 29.0883 872.774 Q27.4968 869.814 27.4968 865.581 Q27.4968 864.976 27.5923 864.244 Q27.656 863.512 27.8151 862.621 L33.8307 862.589 Z" fill="#ffffff" fill-rule="evenodd" fill-opacity="1" /><path clip-path="url(#clip320)" d="M46.212 810.136 Q39.7508 810.136 36.0905 812.809 Q32.3984 815.451 32.3984 820.098 Q32.3984 824.745 36.0905 827.419 Q39.7508 830.06 46.212 830.06 Q52.6732 830.06 56.3653 827.419 Q60.0256 824.745 60.0256 820.098 Q60.0256 815.451 56.3653 812.809 Q52.6732 810.136 46.212 810.136 M33.7671 830.06 Q30.5842 828.214 29.0564 825.413 Q27.4968 822.581 27.4968 818.666 Q27.4968 812.173 32.6531 808.13 Q37.8093 804.056 46.212 804.056 Q54.6147 804.056 59.771 808.13 Q64.9272 812.173 64.9272 818.666 Q64.9272 822.581 63.3994 825.413 Q61.8398 828.214 58.657 830.06 L64.0042 830.06 L64.0042 835.949 L14.479 835.949 L14.479 830.06 L33.7671 830.06 Z" fill="#ffffff" fill-rule="evenodd" fill-opacity="1" /><path clip-path="url(#clip320)" d="M32.4621 780.535 Q32.4621 785.246 36.1542 787.983 Q39.8145 790.72 46.212 790.72 Q52.6095 790.72 56.3017 788.015 Q59.9619 785.278 59.9619 780.535 Q59.9619 775.856 56.2698 773.119 Q52.5777 770.382 46.212 770.382 Q39.8781 770.382 36.186 773.119 Q32.4621 775.856 32.4621 780.535 M27.4968 780.535 Q27.4968 772.896 32.4621 768.536 Q37.4273 764.175 46.212 764.175 Q54.9649 764.175 59.9619 768.536 Q64.9272 772.896 64.9272 780.535 Q64.9272 788.206 59.9619 792.566 Q54.9649 796.895 46.212 796.895 Q37.4273 796.895 32.4621 792.566 Q27.4968 788.206 27.4968 780.535 Z" fill="#ffffff" fill-rule="evenodd" fill-opacity="1" /><path clip-path="url(#clip320)" d="M49.9359 755.072 L28.3562 755.072 L28.3562 749.216 L49.7131 749.216 Q54.7739 749.216 57.3202 747.243 Q59.8346 745.269 59.8346 741.322 Q59.8346 736.58 56.8109 733.843 Q53.7872 731.074 48.5673 731.074 L28.3562 731.074 L28.3562 725.217 L64.0042 725.217 L64.0042 731.074 L58.5296 731.074 Q61.7762 733.206 63.3676 736.039 Q64.9272 738.84 64.9272 742.564 Q64.9272 748.707 61.1078 751.889 Q57.2883 755.072 49.9359 755.072 M27.4968 740.336 L27.4968 740.336 Z" fill="#ffffff" fill-rule="evenodd" fill-opacity="1" /><path clip-path="url(#clip320)" d="M42.4881 683.522 L64.0042 683.522 L64.0042 689.378 L42.679 689.378 Q37.6183 689.378 35.1038 691.352 Q32.5894 693.325 32.5894 697.272 Q32.5894 702.014 35.6131 704.751 Q38.6368 707.489 43.8567 707.489 L64.0042 707.489 L64.0042 713.377 L28.3562 713.377 L28.3562 707.489 L33.8944 707.489 Q30.6797 705.388 29.0883 702.555 Q27.4968 699.691 27.4968 695.967 Q27.4968 689.824 31.3163 686.673 Q35.1038 683.522 42.4881 683.522 Z" fill="#ffffff" fill-rule="evenodd" fill-opacity="1" /><path clip-path="url(#clip320)" d="M33.7671 648.383 L14.479 648.383 L14.479 642.527 L64.0042 642.527 L64.0042 648.383 L58.657 648.383 Q61.8398 650.229 63.3994 653.062 Q64.9272 655.863 64.9272 659.81 Q64.9272 666.271 59.771 670.345 Q54.6147 674.387 46.212 674.387 Q37.8093 674.387 32.6531 670.345 Q27.4968 666.271 27.4968 659.81 Q27.4968 655.863 29.0564 653.062 Q30.5842 650.229 33.7671 648.383 M46.212 668.34 Q52.6732 668.34 56.3653 665.698 Q60.0256 663.024 60.0256 658.377 Q60.0256 653.73 56.3653 651.057 Q52.6732 648.383 46.212 648.383 Q39.7508 648.383 36.0905 651.057 Q32.3984 653.73 32.3984 658.377 Q32.3984 663.024 36.0905 665.698 Q39.7508 668.34 46.212 668.34 Z" fill="#ffffff" fill-rule="evenodd" fill-opacity="1" /><path clip-path="url(#clip320)" d="M14.479 610.284 L14.479 596.789 L19.0304 596.789 L19.0304 604.428 L68.0464 604.428 L68.0464 596.789 L72.5979 596.789 L72.5979 610.284 L14.479 610.284 Z" fill="#ffffff" fill-rule="evenodd" fill-opacity="1" /><path clip-path="url(#clip320)" d="M77.5631 584.917 L28.3562 584.917 L28.3562 579.061 L50.5089 579.061 Q55.124 579.061 57.4793 576.864 Q59.8346 574.668 59.8346 570.371 Q59.8346 565.661 57.161 563.305 Q54.4874 560.918 49.1402 560.918 L28.3562 560.918 L28.3562 555.062 L55.7924 555.062 Q57.7021 555.062 58.6251 554.521 Q59.5163 553.948 59.5163 552.77 Q59.5163 552.484 59.3572 551.974 Q59.1662 551.465 58.7843 550.574 L63.4949 550.574 Q64.227 551.879 64.5771 553.057 Q64.9272 554.202 64.9272 555.316 Q64.9272 557.513 63.6859 558.818 Q62.4446 560.123 59.8983 560.6 Q62.4127 562.191 63.6859 564.515 Q64.9272 566.807 64.9272 569.926 Q64.9272 573.172 63.6859 575.464 Q62.4446 577.724 59.9619 579.061 L77.5631 579.061 L77.5631 584.917 Z" fill="#ffffff" fill-rule="evenodd" fill-opacity="1" /><path clip-path="url(#clip320)" d="M29.4065 520.114 L34.9447 520.114 Q33.6716 522.597 33.035 525.27 Q32.3984 527.944 32.3984 530.808 Q32.3984 535.169 33.7352 537.365 Q35.072 539.529 37.7456 539.529 Q39.7826 539.529 40.9603 537.97 Q42.1061 536.41 43.1565 531.7 L43.6021 529.694 Q44.9389 523.456 47.3897 520.846 Q49.8086 518.204 54.1691 518.204 Q59.1344 518.204 62.0308 522.151 Q64.9272 526.066 64.9272 532.941 Q64.9272 535.806 64.3543 538.925 Q63.8132 542.012 62.6992 545.45 L56.6518 545.45 Q58.3387 542.203 59.198 539.052 Q60.0256 535.901 60.0256 532.814 Q60.0256 528.676 58.6251 526.448 Q57.1929 524.22 54.6147 524.22 Q52.2276 524.22 50.9545 525.843 Q49.6813 527.435 48.5037 532.877 L48.0262 534.914 Q46.8804 540.357 44.5251 542.776 Q42.138 545.195 38.0002 545.195 Q32.9713 545.195 30.2341 541.63 Q27.4968 538.065 27.4968 531.509 Q27.4968 528.262 27.9743 525.398 Q28.4517 522.533 29.4065 520.114 Z" fill="#ffffff" fill-rule="evenodd" fill-opacity="1" /><path clip-path="url(#clip320)" d="M14.479 495.192 L72.5979 495.192 L72.5979 508.688 L68.0464 508.688 L68.0464 501.081 L19.0304 501.081 L19.0304 508.688 L14.479 508.688 L14.479 495.192 Z" fill="#ffffff" fill-rule="evenodd" fill-opacity="1" /><path clip-path="url(#clip320)" d="M516.671 12.096 L524.854 12.096 L524.854 65.6895 L554.304 65.6895 L554.304 72.576 L516.671 72.576 L516.671 12.096 Z" fill="#ffffff" fill-rule="evenodd" fill-opacity="1" /><path clip-path="url(#clip320)" d="M578.69 32.4315 Q572.695 32.4315 569.211 37.1306 Q565.728 41.7891 565.728 49.9314 Q565.728 58.0738 569.171 62.7728 Q572.655 67.4314 578.69 67.4314 Q584.645 67.4314 588.129 62.7323 Q591.613 58.0333 591.613 49.9314 Q591.613 41.8701 588.129 37.1711 Q584.645 32.4315 578.69 32.4315 M578.69 26.1121 Q588.413 26.1121 593.962 32.4315 Q599.512 38.7509 599.512 49.9314 Q599.512 61.0714 593.962 67.4314 Q588.413 73.7508 578.69 73.7508 Q568.928 73.7508 563.378 67.4314 Q557.869 61.0714 557.869 49.9314 Q557.869 38.7509 563.378 32.4315 Q568.928 26.1121 578.69 26.1121 Z" fill="#ffffff" fill-rule="evenodd" fill-opacity="1" /><path clip-path="url(#clip320)" d="M607.533 27.2059 L614.987 27.2059 L624.304 62.6108 L633.58 27.2059 L642.371 27.2059 L651.688 62.6108 L660.964 27.2059 L668.418 27.2059 L656.549 72.576 L647.758 72.576 L637.996 35.3887 L628.193 72.576 L619.402 72.576 L607.533 27.2059 Z" fill="#ffffff" fill-rule="evenodd" fill-opacity="1" /><path clip-path="url(#clip320)" d="M718.528 48.0275 L718.528 51.6733 L684.257 51.6733 Q684.743 59.3701 688.875 63.421 Q693.047 67.4314 700.461 67.4314 Q704.755 67.4314 708.765 66.3781 Q712.816 65.3249 716.786 63.2184 L716.786 70.267 Q712.775 71.9684 708.562 72.8596 Q704.35 73.7508 700.015 73.7508 Q689.159 73.7508 682.799 67.4314 Q676.479 61.1119 676.479 50.3365 Q676.479 39.1965 682.475 32.6746 Q688.51 26.1121 698.719 26.1121 Q707.874 26.1121 713.18 32.0264 Q718.528 37.9003 718.528 48.0275 M711.074 45.84 Q710.993 39.7232 707.631 36.0774 Q704.309 32.4315 698.8 32.4315 Q692.561 32.4315 688.794 35.9558 Q685.067 39.4801 684.5 45.8805 L711.074 45.84 Z" fill="#ffffff" fill-rule="evenodd" fill-opacity="1" /><path clip-path="url(#clip320)" d="M757.052 34.1734 Q755.796 33.4443 754.297 33.1202 Q752.839 32.7556 751.056 32.7556 Q744.737 32.7556 741.334 36.8875 Q737.972 40.9789 737.972 48.6757 L737.972 72.576 L730.478 72.576 L730.478 27.2059 L737.972 27.2059 L737.972 34.2544 Q740.322 30.1225 744.089 28.1376 Q747.856 26.1121 753.244 26.1121 Q754.014 26.1121 754.945 26.2337 Q755.877 26.3147 757.011 26.5172 L757.052 34.1734 Z" fill="#ffffff" fill-rule="evenodd" fill-opacity="1" /><path clip-path="url(#clip320)" d="M823.811 49.9314 Q823.811 41.7081 820.408 37.0496 Q817.046 32.3505 811.131 32.3505 Q805.217 32.3505 801.814 37.0496 Q798.452 41.7081 798.452 49.9314 Q798.452 58.1548 801.814 62.8538 Q805.217 67.5124 811.131 67.5124 Q817.046 67.5124 820.408 62.8538 Q823.811 58.1548 823.811 49.9314 M798.452 34.0924 Q800.802 30.0415 804.366 28.0971 Q807.972 26.1121 812.954 26.1121 Q821.218 26.1121 826.363 32.6746 Q831.548 39.2371 831.548 49.9314 Q831.548 60.6258 826.363 67.1883 Q821.218 73.7508 812.954 73.7508 Q807.972 73.7508 804.366 71.8063 Q800.802 69.8214 798.452 65.7705 L798.452 72.576 L790.958 72.576 L790.958 9.54393 L798.452 9.54393 L798.452 34.0924 Z" fill="#ffffff" fill-rule="evenodd" fill-opacity="1" /><path clip-path="url(#clip320)" d="M861.484 32.4315 Q855.489 32.4315 852.005 37.1306 Q848.521 41.7891 848.521 49.9314 Q848.521 58.0738 851.964 62.7728 Q855.448 67.4314 861.484 67.4314 Q867.439 67.4314 870.923 62.7323 Q874.406 58.0333 874.406 49.9314 Q874.406 41.8701 870.923 37.1711 Q867.439 32.4315 861.484 32.4315 M861.484 26.1121 Q871.206 26.1121 876.756 32.4315 Q882.306 38.7509 882.306 49.9314 Q882.306 61.0714 876.756 67.4314 Q871.206 73.7508 861.484 73.7508 Q851.721 73.7508 846.172 67.4314 Q840.662 61.0714 840.662 49.9314 Q840.662 38.7509 846.172 32.4315 Q851.721 26.1121 861.484 26.1121 Z" fill="#ffffff" fill-rule="evenodd" fill-opacity="1" /><path clip-path="url(#clip320)" d="M893.891 54.671 L893.891 27.2059 L901.345 27.2059 L901.345 54.3874 Q901.345 60.8284 903.857 64.0691 Q906.368 67.2693 911.391 67.2693 Q917.427 67.2693 920.911 63.421 Q924.435 59.5726 924.435 52.9291 L924.435 27.2059 L931.889 27.2059 L931.889 72.576 L924.435 72.576 L924.435 65.6084 Q921.721 69.7404 918.116 71.7658 Q914.551 73.7508 909.811 73.7508 Q901.993 73.7508 897.942 68.8897 Q893.891 64.0286 893.891 54.671 M912.647 26.1121 L912.647 26.1121 Z" fill="#ffffff" fill-rule="evenodd" fill-opacity="1" /><path clip-path="url(#clip320)" d="M984.956 45.1919 L984.956 72.576 L977.502 72.576 L977.502 45.4349 Q977.502 38.994 974.99 35.7938 Q972.479 32.5936 967.456 32.5936 Q961.42 32.5936 957.936 36.4419 Q954.452 40.2903 954.452 46.9338 L954.452 72.576 L946.958 72.576 L946.958 27.2059 L954.452 27.2059 L954.452 34.2544 Q957.126 30.163 960.731 28.1376 Q964.377 26.1121 969.117 26.1121 Q976.935 26.1121 980.945 30.9732 Q984.956 35.7938 984.956 45.1919 Z" fill="#ffffff" fill-rule="evenodd" fill-opacity="1" /><path clip-path="url(#clip320)" d="M1029.68 34.0924 L1029.68 9.54393 L1037.13 9.54393 L1037.13 72.576 L1029.68 72.576 L1029.68 65.7705 Q1027.33 69.8214 1023.72 71.8063 Q1020.16 73.7508 1015.13 73.7508 Q1006.91 73.7508 1001.73 67.1883 Q996.582 60.6258 996.582 49.9314 Q996.582 39.2371 1001.73 32.6746 Q1006.91 26.1121 1015.13 26.1121 Q1020.16 26.1121 1023.72 28.0971 Q1027.33 30.0415 1029.68 34.0924 M1004.28 49.9314 Q1004.28 58.1548 1007.64 62.8538 Q1011.04 67.5124 1016.96 67.5124 Q1022.87 67.5124 1026.27 62.8538 Q1029.68 58.1548 1029.68 49.9314 Q1029.68 41.7081 1026.27 37.0496 Q1022.87 32.3505 1016.96 32.3505 Q1011.04 32.3505 1007.64 37.0496 Q1004.28 41.7081 1004.28 49.9314 Z" fill="#ffffff" fill-rule="evenodd" fill-opacity="1" /><path clip-path="url(#clip320)" d="M1096.44 32.4315 Q1090.44 32.4315 1086.96 37.1306 Q1083.47 41.7891 1083.47 49.9314 Q1083.47 58.0738 1086.92 62.7728 Q1090.4 67.4314 1096.44 67.4314 Q1102.39 67.4314 1105.88 62.7323 Q1109.36 58.0333 1109.36 49.9314 Q1109.36 41.8701 1105.88 37.1711 Q1102.39 32.4315 1096.44 32.4315 M1096.44 26.1121 Q1106.16 26.1121 1111.71 32.4315 Q1117.26 38.7509 1117.26 49.9314 Q1117.26 61.0714 1111.71 67.4314 Q1106.16 73.7508 1096.44 73.7508 Q1086.67 73.7508 1081.12 67.4314 Q1075.61 61.0714 1075.61 49.9314 Q1075.61 38.7509 1081.12 32.4315 Q1086.67 26.1121 1096.44 26.1121 Z" fill="#ffffff" fill-rule="evenodd" fill-opacity="1" /><path clip-path="url(#clip320)" d="M1167.33 45.1919 L1167.33 72.576 L1159.87 72.576 L1159.87 45.4349 Q1159.87 38.994 1157.36 35.7938 Q1154.85 32.5936 1149.83 32.5936 Q1143.79 32.5936 1140.31 36.4419 Q1136.82 40.2903 1136.82 46.9338 L1136.82 72.576 L1129.33 72.576 L1129.33 27.2059 L1136.82 27.2059 L1136.82 34.2544 Q1139.5 30.163 1143.1 28.1376 Q1146.75 26.1121 1151.49 26.1121 Q1159.31 26.1121 1163.32 30.9732 Q1167.33 35.7938 1167.33 45.1919 Z" fill="#ffffff" fill-rule="evenodd" fill-opacity="1" /><path clip-path="url(#clip320)" d="M1229.18 49.7694 Q1220.15 49.7694 1216.67 51.8354 Q1213.18 53.9013 1213.18 58.8839 Q1213.18 62.8538 1215.78 65.2034 Q1218.41 67.5124 1222.91 67.5124 Q1229.1 67.5124 1232.83 63.1374 Q1236.6 58.7219 1236.6 51.4303 L1236.6 49.7694 L1229.18 49.7694 M1244.05 46.6907 L1244.05 72.576 L1236.6 72.576 L1236.6 65.6895 Q1234.05 69.8214 1230.24 71.8063 Q1226.43 73.7508 1220.92 73.7508 Q1213.95 73.7508 1209.82 69.8619 Q1205.73 65.9325 1205.73 59.3701 Q1205.73 51.7138 1210.83 47.825 Q1215.98 43.9361 1226.15 43.9361 L1236.6 43.9361 L1236.6 43.2069 Q1236.6 38.0623 1233.2 35.2672 Q1229.83 32.4315 1223.72 32.4315 Q1219.83 32.4315 1216.14 33.3632 Q1212.45 34.295 1209.05 36.1584 L1209.05 29.2718 Q1213.14 27.692 1216.99 26.9223 Q1220.84 26.1121 1224.49 26.1121 Q1234.33 26.1121 1239.19 31.2163 Q1244.05 36.3204 1244.05 46.6907 Z" fill="#ffffff" fill-rule="evenodd" fill-opacity="1" /><path clip-path="url(#clip320)" d="M1292.05 28.9478 L1292.05 35.9153 Q1288.89 34.1734 1285.69 33.3227 Q1282.54 32.4315 1279.29 32.4315 Q1272.04 32.4315 1268.03 37.0496 Q1264.02 41.6271 1264.02 49.9314 Q1264.02 58.2358 1268.03 62.8538 Q1272.04 67.4314 1279.29 67.4314 Q1282.54 67.4314 1285.69 66.5807 Q1288.89 65.6895 1292.05 63.9476 L1292.05 70.8341 Q1288.94 72.2924 1285.57 73.0216 Q1282.25 73.7508 1278.48 73.7508 Q1268.24 73.7508 1262.2 67.3098 Q1256.16 60.8689 1256.16 49.9314 Q1256.16 38.832 1262.24 32.472 Q1268.36 26.1121 1278.97 26.1121 Q1282.41 26.1121 1285.69 26.8413 Q1288.98 27.5299 1292.05 28.9478 Z" fill="#ffffff" fill-rule="evenodd" fill-opacity="1" /><path clip-path="url(#clip320)" d="M1337.67 28.9478 L1337.67 35.9153 Q1334.51 34.1734 1331.31 33.3227 Q1328.15 32.4315 1324.91 32.4315 Q1317.66 32.4315 1313.65 37.0496 Q1309.64 41.6271 1309.64 49.9314 Q1309.64 58.2358 1313.65 62.8538 Q1317.66 67.4314 1324.91 67.4314 Q1328.15 67.4314 1331.31 66.5807 Q1334.51 65.6895 1337.67 63.9476 L1337.67 70.8341 Q1334.55 72.2924 1331.19 73.0216 Q1327.86 73.7508 1324.1 73.7508 Q1313.85 73.7508 1307.81 67.3098 Q1301.78 60.8689 1301.78 49.9314 Q1301.78 38.832 1307.85 32.472 Q1313.97 26.1121 1324.58 26.1121 Q1328.03 26.1121 1331.31 26.8413 Q1334.59 27.5299 1337.67 28.9478 Z" fill="#ffffff" fill-rule="evenodd" fill-opacity="1" /><path clip-path="url(#clip320)" d="M1349.86 54.671 L1349.86 27.2059 L1357.31 27.2059 L1357.31 54.3874 Q1357.31 60.8284 1359.83 64.0691 Q1362.34 67.2693 1367.36 67.2693 Q1373.4 67.2693 1376.88 63.421 Q1380.4 59.5726 1380.4 52.9291 L1380.4 27.2059 L1387.86 27.2059 L1387.86 72.576 L1380.4 72.576 L1380.4 65.6084 Q1377.69 69.7404 1374.09 71.7658 Q1370.52 73.7508 1365.78 73.7508 Q1357.96 73.7508 1353.91 68.8897 Q1349.86 64.0286 1349.86 54.671 M1368.62 26.1121 L1368.62 26.1121 Z" fill="#ffffff" fill-rule="evenodd" fill-opacity="1" /><path clip-path="url(#clip320)" d="M1429.5 34.1734 Q1428.25 33.4443 1426.75 33.1202 Q1425.29 32.7556 1423.51 32.7556 Q1417.19 32.7556 1413.78 36.8875 Q1410.42 40.9789 1410.42 48.6757 L1410.42 72.576 L1402.93 72.576 L1402.93 27.2059 L1410.42 27.2059 L1410.42 34.2544 Q1412.77 30.1225 1416.54 28.1376 Q1420.31 26.1121 1425.69 26.1121 Q1426.46 26.1121 1427.4 26.2337 Q1428.33 26.3147 1429.46 26.5172 L1429.5 34.1734 Z" fill="#ffffff" fill-rule="evenodd" fill-opacity="1" /><path clip-path="url(#clip320)" d="M1457.94 49.7694 Q1448.91 49.7694 1445.42 51.8354 Q1441.94 53.9013 1441.94 58.8839 Q1441.94 62.8538 1444.53 65.2034 Q1447.16 67.5124 1451.66 67.5124 Q1457.86 67.5124 1461.59 63.1374 Q1465.35 58.7219 1465.35 51.4303 L1465.35 49.7694 L1457.94 49.7694 M1472.81 46.6907 L1472.81 72.576 L1465.35 72.576 L1465.35 65.6895 Q1462.8 69.8214 1458.99 71.8063 Q1455.18 73.7508 1449.68 73.7508 Q1442.71 73.7508 1438.58 69.8619 Q1434.48 65.9325 1434.48 59.3701 Q1434.48 51.7138 1439.59 47.825 Q1444.73 43.9361 1454.9 43.9361 L1465.35 43.9361 L1465.35 43.2069 Q1465.35 38.0623 1461.95 35.2672 Q1458.59 32.4315 1452.47 32.4315 Q1448.58 32.4315 1444.9 33.3632 Q1441.21 34.295 1437.81 36.1584 L1437.81 29.2718 Q1441.9 27.692 1445.75 26.9223 Q1449.59 26.1121 1453.24 26.1121 Q1463.08 26.1121 1467.94 31.2163 Q1472.81 36.3204 1472.81 46.6907 Z" fill="#ffffff" fill-rule="evenodd" fill-opacity="1" /><path clip-path="url(#clip320)" d="M1520.81 28.9478 L1520.81 35.9153 Q1517.65 34.1734 1514.45 33.3227 Q1511.29 32.4315 1508.05 32.4315 Q1500.8 32.4315 1496.79 37.0496 Q1492.78 41.6271 1492.78 49.9314 Q1492.78 58.2358 1496.79 62.8538 Q1500.8 67.4314 1508.05 67.4314 Q1511.29 67.4314 1514.45 66.5807 Q1517.65 65.6895 1520.81 63.9476 L1520.81 70.8341 Q1517.69 72.2924 1514.33 73.0216 Q1511.01 73.7508 1507.24 73.7508 Q1496.99 73.7508 1490.95 67.3098 Q1484.92 60.8689 1484.92 49.9314 Q1484.92 38.832 1490.99 32.472 Q1497.11 26.1121 1507.72 26.1121 Q1511.17 26.1121 1514.45 26.8413 Q1517.73 27.5299 1520.81 28.9478 Z" fill="#ffffff" fill-rule="evenodd" fill-opacity="1" /><path clip-path="url(#clip320)" d="M1552.65 76.7889 Q1549.49 84.8907 1546.49 87.3618 Q1543.49 89.8329 1538.47 89.8329 L1532.52 89.8329 L1532.52 83.5945 L1536.89 83.5945 Q1539.97 83.5945 1541.67 82.1361 Q1543.37 80.6778 1545.44 75.2496 L1546.78 71.8468 L1528.42 27.2059 L1536.32 27.2059 L1550.5 62.6918 L1564.68 27.2059 L1572.58 27.2059 L1552.65 76.7889 Z" fill="#ffffff" fill-rule="evenodd" fill-opacity="1" /><path clip-path="url(#clip320)" d="M1616.45 65.7705 L1616.45 89.8329 L1608.96 89.8329 L1608.96 27.2059 L1616.45 27.2059 L1616.45 34.0924 Q1618.8 30.0415 1622.37 28.0971 Q1625.97 26.1121 1630.95 26.1121 Q1639.22 26.1121 1644.36 32.6746 Q1649.55 39.2371 1649.55 49.9314 Q1649.55 60.6258 1644.36 67.1883 Q1639.22 73.7508 1630.95 73.7508 Q1625.97 73.7508 1622.37 71.8063 Q1618.8 69.8214 1616.45 65.7705 M1641.81 49.9314 Q1641.81 41.7081 1638.41 37.0496 Q1635.04 32.3505 1629.13 32.3505 Q1623.22 32.3505 1619.81 37.0496 Q1616.45 41.7081 1616.45 49.9314 Q1616.45 58.1548 1619.81 62.8538 Q1623.22 67.5124 1629.13 67.5124 Q1635.04 67.5124 1638.41 62.8538 Q1641.81 58.1548 1641.81 49.9314 Z" fill="#ffffff" fill-rule="evenodd" fill-opacity="1" /><path clip-path="url(#clip320)" d="M1700.71 48.0275 L1700.71 51.6733 L1666.44 51.6733 Q1666.93 59.3701 1671.06 63.421 Q1675.23 67.4314 1682.64 67.4314 Q1686.94 67.4314 1690.95 66.3781 Q1695 65.3249 1698.97 63.2184 L1698.97 70.267 Q1694.96 71.9684 1690.74 72.8596 Q1686.53 73.7508 1682.2 73.7508 Q1671.34 73.7508 1664.98 67.4314 Q1658.66 61.1119 1658.66 50.3365 Q1658.66 39.1965 1664.66 32.6746 Q1670.69 26.1121 1680.9 26.1121 Q1690.06 26.1121 1695.36 32.0264 Q1700.71 37.9003 1700.71 48.0275 M1693.26 45.84 Q1693.18 39.7232 1689.81 36.0774 Q1686.49 32.4315 1680.98 32.4315 Q1674.74 32.4315 1670.98 35.9558 Q1667.25 39.4801 1666.68 45.8805 L1693.26 45.84 Z" fill="#ffffff" fill-rule="evenodd" fill-opacity="1" /><path clip-path="url(#clip320)" d="M1739.23 34.1734 Q1737.98 33.4443 1736.48 33.1202 Q1735.02 32.7556 1733.24 32.7556 Q1726.92 32.7556 1723.52 36.8875 Q1720.15 40.9789 1720.15 48.6757 L1720.15 72.576 L1712.66 72.576 L1712.66 27.2059 L1720.15 27.2059 L1720.15 34.2544 Q1722.5 30.1225 1726.27 28.1376 Q1730.04 26.1121 1735.43 26.1121 Q1736.2 26.1121 1737.13 26.2337 Q1738.06 26.3147 1739.19 26.5172 L1739.23 34.1734 Z" fill="#ffffff" fill-rule="evenodd" fill-opacity="1" /><path clip-path="url(#clip320)" d="M1806.07 28.9478 L1806.07 35.9153 Q1802.91 34.1734 1799.71 33.3227 Q1796.55 32.4315 1793.31 32.4315 Q1786.06 32.4315 1782.05 37.0496 Q1778.04 41.6271 1778.04 49.9314 Q1778.04 58.2358 1782.05 62.8538 Q1786.06 67.4314 1793.31 67.4314 Q1796.55 67.4314 1799.71 66.5807 Q1802.91 65.6895 1806.07 63.9476 L1806.07 70.8341 Q1802.95 72.2924 1799.59 73.0216 Q1796.27 73.7508 1792.5 73.7508 Q1782.25 73.7508 1776.22 67.3098 Q1770.18 60.8689 1770.18 49.9314 Q1770.18 38.832 1776.26 32.472 Q1782.38 26.1121 1792.99 26.1121 Q1796.43 26.1121 1799.71 26.8413 Q1803 27.5299 1806.07 28.9478 Z" fill="#ffffff" fill-rule="evenodd" fill-opacity="1" /><path clip-path="url(#clip320)" d="M1856.75 45.1919 L1856.75 72.576 L1849.3 72.576 L1849.3 45.4349 Q1849.3 38.994 1846.79 35.7938 Q1844.27 32.5936 1839.25 32.5936 Q1833.21 32.5936 1829.73 36.4419 Q1826.25 40.2903 1826.25 46.9338 L1826.25 72.576 L1818.75 72.576 L1818.75 9.54393 L1826.25 9.54393 L1826.25 34.2544 Q1828.92 30.163 1832.53 28.1376 Q1836.17 26.1121 1840.91 26.1121 Q1848.73 26.1121 1852.74 30.9732 Q1856.75 35.7938 1856.75 45.1919 Z" fill="#ffffff" fill-rule="evenodd" fill-opacity="1" /><path clip-path="url(#clip320)" d="M1892.24 49.7694 Q1883.2 49.7694 1879.72 51.8354 Q1876.24 53.9013 1876.24 58.8839 Q1876.24 62.8538 1878.83 65.2034 Q1881.46 67.5124 1885.96 67.5124 Q1892.16 67.5124 1895.88 63.1374 Q1899.65 58.7219 1899.65 51.4303 L1899.65 49.7694 L1892.24 49.7694 M1907.1 46.6907 L1907.1 72.576 L1899.65 72.576 L1899.65 65.6895 Q1897.1 69.8214 1893.29 71.8063 Q1889.48 73.7508 1883.97 73.7508 Q1877.01 73.7508 1872.87 69.8619 Q1868.78 65.9325 1868.78 59.3701 Q1868.78 51.7138 1873.89 47.825 Q1879.03 43.9361 1889.2 43.9361 L1899.65 43.9361 L1899.65 43.2069 Q1899.65 38.0623 1896.25 35.2672 Q1892.88 32.4315 1886.77 32.4315 Q1882.88 32.4315 1879.19 33.3632 Q1875.51 34.295 1872.1 36.1584 L1872.1 29.2718 Q1876.2 27.692 1880.04 26.9223 Q1883.89 26.1121 1887.54 26.1121 Q1897.38 26.1121 1902.24 31.2163 Q1907.1 36.3204 1907.1 46.6907 Z" fill="#ffffff" fill-rule="evenodd" fill-opacity="1" /><path clip-path="url(#clip320)" d="M1960.17 45.1919 L1960.17 72.576 L1952.72 72.576 L1952.72 45.4349 Q1952.72 38.994 1950.21 35.7938 Q1947.69 32.5936 1942.67 32.5936 Q1936.63 32.5936 1933.15 36.4419 Q1929.67 40.2903 1929.67 46.9338 L1929.67 72.576 L1922.17 72.576 L1922.17 27.2059 L1929.67 27.2059 L1929.67 34.2544 Q1932.34 30.163 1935.95 28.1376 Q1939.59 26.1121 1944.33 26.1121 Q1952.15 26.1121 1956.16 30.9732 Q1960.17 35.7938 1960.17 45.1919 Z" fill="#ffffff" fill-rule="evenodd" fill-opacity="1" /><path clip-path="url(#clip320)" d="M2012.75 45.1919 L2012.75 72.576 L2005.3 72.576 L2005.3 45.4349 Q2005.3 38.994 2002.79 35.7938 Q2000.27 32.5936 1995.25 32.5936 Q1989.22 32.5936 1985.73 36.4419 Q1982.25 40.2903 1982.25 46.9338 L1982.25 72.576 L1974.75 72.576 L1974.75 27.2059 L1982.25 27.2059 L1982.25 34.2544 Q1984.92 30.163 1988.53 28.1376 Q1992.17 26.1121 1996.91 26.1121 Q2004.73 26.1121 2008.74 30.9732 Q2012.75 35.7938 2012.75 45.1919 Z" fill="#ffffff" fill-rule="evenodd" fill-opacity="1" /><path clip-path="url(#clip320)" d="M2066.43 48.0275 L2066.43 51.6733 L2032.15 51.6733 Q2032.64 59.3701 2036.77 63.421 Q2040.95 67.4314 2048.36 67.4314 Q2052.65 67.4314 2056.66 66.3781 Q2060.71 65.3249 2064.68 63.2184 L2064.68 70.267 Q2060.67 71.9684 2056.46 72.8596 Q2052.25 73.7508 2047.91 73.7508 Q2037.06 73.7508 2030.7 67.4314 Q2024.38 61.1119 2024.38 50.3365 Q2024.38 39.1965 2030.37 32.6746 Q2036.41 26.1121 2046.62 26.1121 Q2055.77 26.1121 2061.08 32.0264 Q2066.43 37.9003 2066.43 48.0275 M2058.97 45.84 Q2058.89 39.7232 2055.53 36.0774 Q2052.21 32.4315 2046.7 32.4315 Q2040.46 32.4315 2036.69 35.9558 Q2032.97 39.4801 2032.4 45.8805 L2058.97 45.84 Z" fill="#ffffff" fill-rule="evenodd" fill-opacity="1" /><path clip-path="url(#clip320)" d="M2078.66 9.54393 L2086.11 9.54393 L2086.11 72.576 L2078.66 72.576 L2078.66 9.54393 Z" fill="#ffffff" fill-rule="evenodd" fill-opacity="1" /><polyline clip-path="url(#clip322)" style="stroke:#009af9; stroke-linecap:round; stroke-linejoin:round; stroke-width:4; stroke-opacity:1; fill:none" points="309.539,1054.69 373.53,1303.03 437.52,1386.4 501.511,1178.68 565.501,1070.22 629.492,981.067 693.482,904.442 757.473,588.407 821.463,859.524 885.454,595.624 949.444,692.53 1013.43,686.71 1077.43,911.531 1141.42,759.647 1205.41,636.856 1269.4,1141.05 1333.39,1219.04 1397.38,958.814 1461.37,1089.46 1525.36,760.184 1589.35,1000.54 1653.34,891.441 1717.33,549.994 1781.32,160.256 1845.31,555.319 1909.3,928.503 1973.29,742.779 2037.28,740.293 2101.27,1234.8 2165.26,817.448 2229.25,845.778 2293.24,208.698 "/>
<path clip-path="url(#clip320)" d="M320.119 270.476 L582.822 270.476 L582.822 166.796 L320.119 166.796  Z" fill="#000000" fill-rule="evenodd" fill-opacity="0"/>
<polyline clip-path="url(#clip320)" style="stroke:#ffffff; stroke-linecap:round; stroke-linejoin:round; stroke-width:4; stroke-opacity:1; fill:none" points="320.119,270.476 582.822,270.476 582.822,166.796 320.119,166.796 320.119,270.476 "/>
<polyline clip-path="url(#clip320)" style="stroke:#009af9; stroke-linecap:round; stroke-linejoin:round; stroke-width:4; stroke-opacity:1; fill:none" points="343.483,218.636 483.665,218.636 "/>
<path clip-path="url(#clip320)" d="M520.871 238.323 Q519.065 242.953 517.352 244.365 Q515.639 245.777 512.769 245.777 L509.366 245.777 L509.366 242.212 L511.866 242.212 Q513.625 242.212 514.598 241.379 Q515.57 240.545 516.75 237.443 L517.514 235.499 L507.028 209.99 L511.542 209.99 L519.644 230.268 L527.746 209.99 L532.26 209.99 L520.871 238.323 Z" fill="#ffffff" fill-rule="evenodd" fill-opacity="1" /><path clip-path="url(#clip320)" d="M539.551 231.981 L547.19 231.981 L547.19 205.615 L538.88 207.282 L538.88 203.022 L547.144 201.356 L551.82 201.356 L551.82 231.981 L559.458 231.981 L559.458 235.916 L539.551 235.916 L539.551 231.981 Z" fill="#ffffff" fill-rule="evenodd" fill-opacity="1" /></svg>
