<?xml version="1.0" encoding="utf-8"?>
<svg xmlns="http://www.w3.org/2000/svg" xmlns:xlink="http://www.w3.org/1999/xlink" width="600" height="400" viewBox="0 0 2400 1600">
<defs>
  <clipPath id="clip360">
    <rect x="0" y="0" width="2400" height="1600"/>
  </clipPath>
</defs>
<path clip-path="url(#clip360)" d="M0 1600 L2400 1600 L2400 0 L0 0  Z" fill="#000000" fill-rule="evenodd" fill-opacity="0"/>
<defs>
  <clipPath id="clip361">
    <rect x="480" y="0" width="1681" height="1600"/>
  </clipPath>
</defs>
<path clip-path="url(#clip360)" d="M249.542 1423.18 L2149.97 1423.18 L2149.97 47.2441 L249.542 47.2441  Z" fill="#000000" fill-rule="evenodd" fill-opacity="0"/>
<defs>
  <clipPath id="clip362">
    <rect x="249" y="47" width="1901" height="1377"/>
  </clipPath>
</defs>
<polyline clip-path="url(#clip362)" style="stroke:#ffffff; stroke-linecap:round; stroke-linejoin:round; stroke-width:2; stroke-opacity:0.1; fill:none" points="534.664,1423.18 534.664,47.2441 "/>
<polyline clip-path="url(#clip362)" style="stroke:#ffffff; stroke-linecap:round; stroke-linejoin:round; stroke-width:2; stroke-opacity:0.1; fill:none" points="823.835,1423.18 823.835,47.2441 "/>
<polyline clip-path="url(#clip362)" style="stroke:#ffffff; stroke-linecap:round; stroke-linejoin:round; stroke-width:2; stroke-opacity:0.1; fill:none" points="1113.01,1423.18 1113.01,47.2441 "/>
<polyline clip-path="url(#clip362)" style="stroke:#ffffff; stroke-linecap:round; stroke-linejoin:round; stroke-width:2; stroke-opacity:0.1; fill:none" points="1402.18,1423.18 1402.18,47.2441 "/>
<polyline clip-path="url(#clip362)" style="stroke:#ffffff; stroke-linecap:round; stroke-linejoin:round; stroke-width:2; stroke-opacity:0.1; fill:none" points="1691.35,1423.18 1691.35,47.2441 "/>
<polyline clip-path="url(#clip362)" style="stroke:#ffffff; stroke-linecap:round; stroke-linejoin:round; stroke-width:2; stroke-opacity:0.1; fill:none" points="1980.52,1423.18 1980.52,47.2441 "/>
<polyline clip-path="url(#clip360)" style="stroke:#ffffff; stroke-linecap:round; stroke-linejoin:round; stroke-width:4; stroke-opacity:1; fill:none" points="249.542,1423.18 2149.97,1423.18 "/>
<polyline clip-path="url(#clip360)" style="stroke:#ffffff; stroke-linecap:round; stroke-linejoin:round; stroke-width:4; stroke-opacity:1; fill:none" points="534.664,1423.18 534.664,1404.28 "/>
<polyline clip-path="url(#clip360)" style="stroke:#ffffff; stroke-linecap:round; stroke-linejoin:round; stroke-width:4; stroke-opacity:1; fill:none" points="823.835,1423.18 823.835,1404.28 "/>
<polyline clip-path="url(#clip360)" style="stroke:#ffffff; stroke-linecap:round; stroke-linejoin:round; stroke-width:4; stroke-opacity:1; fill:none" points="1113.01,1423.18 1113.01,1404.28 "/>
<polyline clip-path="url(#clip360)" style="stroke:#ffffff; stroke-linecap:round; stroke-linejoin:round; stroke-width:4; stroke-opacity:1; fill:none" points="1402.18,1423.18 1402.18,1404.28 "/>
<polyline clip-path="url(#clip360)" style="stroke:#ffffff; stroke-linecap:round; stroke-linejoin:round; stroke-width:4; stroke-opacity:1; fill:none" points="1691.35,1423.18 1691.35,1404.28 "/>
<polyline clip-path="url(#clip360)" style="stroke:#ffffff; stroke-linecap:round; stroke-linejoin:round; stroke-width:4; stroke-opacity:1; fill:none" points="1980.52,1423.18 1980.52,1404.28 "/>
<path clip-path="url(#clip360)" d="M524.942 1451.02 L543.299 1451.02 L543.299 1454.96 L529.225 1454.96 L529.225 1463.43 Q530.243 1463.08 531.262 1462.92 Q532.28 1462.73 533.299 1462.73 Q539.086 1462.73 542.465 1465.9 Q545.845 1469.08 545.845 1474.49 Q545.845 1480.07 542.373 1483.17 Q538.9 1486.25 532.581 1486.25 Q530.405 1486.25 528.137 1485.88 Q525.891 1485.51 523.484 1484.77 L523.484 1480.07 Q525.567 1481.2 527.789 1481.76 Q530.012 1482.32 532.488 1482.32 Q536.493 1482.32 538.831 1480.21 Q541.169 1478.1 541.169 1474.49 Q541.169 1470.88 538.831 1468.77 Q536.493 1466.67 532.488 1466.67 Q530.613 1466.67 528.738 1467.08 Q526.887 1467.5 524.942 1468.38 L524.942 1451.02 Z" fill="#ffffff" fill-rule="evenodd" fill-opacity="1" /><path clip-path="url(#clip360)" d="M798.523 1481.64 L806.162 1481.64 L806.162 1455.28 L797.851 1456.95 L797.851 1452.69 L806.115 1451.02 L810.791 1451.02 L810.791 1481.64 L818.43 1481.64 L818.43 1485.58 L798.523 1485.58 L798.523 1481.64 Z" fill="#ffffff" fill-rule="evenodd" fill-opacity="1" /><path clip-path="url(#clip360)" d="M837.874 1454.1 Q834.263 1454.1 832.435 1457.66 Q830.629 1461.2 830.629 1468.33 Q830.629 1475.44 832.435 1479.01 Q834.263 1482.55 837.874 1482.55 Q841.509 1482.55 843.314 1479.01 Q845.143 1475.44 845.143 1468.33 Q845.143 1461.2 843.314 1457.66 Q841.509 1454.1 837.874 1454.1 M837.874 1450.39 Q843.684 1450.39 846.74 1455 Q849.819 1459.58 849.819 1468.33 Q849.819 1477.06 846.74 1481.67 Q843.684 1486.25 837.874 1486.25 Q832.064 1486.25 828.985 1481.67 Q825.93 1477.06 825.93 1468.33 Q825.93 1459.58 828.985 1455 Q832.064 1450.39 837.874 1450.39 Z" fill="#ffffff" fill-rule="evenodd" fill-opacity="1" /><path clip-path="url(#clip360)" d="M1088.19 1481.64 L1095.83 1481.64 L1095.83 1455.28 L1087.52 1456.95 L1087.52 1452.69 L1095.78 1451.02 L1100.46 1451.02 L1100.46 1481.64 L1108.1 1481.64 L1108.1 1485.58 L1088.19 1485.58 L1088.19 1481.64 Z" fill="#ffffff" fill-rule="evenodd" fill-opacity="1" /><path clip-path="url(#clip360)" d="M1117.59 1451.02 L1135.95 1451.02 L1135.95 1454.96 L1121.87 1454.96 L1121.87 1463.43 Q1122.89 1463.08 1123.91 1462.92 Q1124.93 1462.73 1125.95 1462.73 Q1131.73 1462.73 1135.11 1465.9 Q1138.49 1469.08 1138.49 1474.49 Q1138.49 1480.07 1135.02 1483.17 Q1131.55 1486.25 1125.23 1486.25 Q1123.05 1486.25 1120.78 1485.88 Q1118.54 1485.51 1116.13 1484.77 L1116.13 1480.07 Q1118.21 1481.2 1120.44 1481.76 Q1122.66 1482.32 1125.14 1482.32 Q1129.14 1482.32 1131.48 1480.21 Q1133.82 1478.1 1133.82 1474.49 Q1133.82 1470.88 1131.48 1468.77 Q1129.14 1466.67 1125.14 1466.67 Q1123.26 1466.67 1121.39 1467.08 Q1119.53 1467.5 1117.59 1468.38 L1117.59 1451.02 Z" fill="#ffffff" fill-rule="evenodd" fill-opacity="1" /><path clip-path="url(#clip360)" d="M1380.95 1481.64 L1397.27 1481.64 L1397.27 1485.58 L1375.32 1485.58 L1375.32 1481.64 Q1377.99 1478.89 1382.57 1474.26 Q1387.18 1469.61 1388.36 1468.27 Q1390.6 1465.74 1391.48 1464.01 Q1392.38 1462.25 1392.38 1460.56 Q1392.38 1457.8 1390.44 1456.07 Q1388.52 1454.33 1385.42 1454.33 Q1383.22 1454.33 1380.76 1455.09 Q1378.33 1455.86 1375.56 1457.41 L1375.56 1452.69 Q1378.38 1451.55 1380.83 1450.97 Q1383.29 1450.39 1385.32 1450.39 Q1390.7 1450.39 1393.89 1453.08 Q1397.08 1455.77 1397.08 1460.26 Q1397.08 1462.39 1396.27 1464.31 Q1395.49 1466.2 1393.38 1468.8 Q1392.8 1469.47 1389.7 1472.69 Q1386.6 1475.88 1380.95 1481.64 Z" fill="#ffffff" fill-rule="evenodd" fill-opacity="1" /><path clip-path="url(#clip360)" d="M1417.08 1454.1 Q1413.47 1454.1 1411.64 1457.66 Q1409.84 1461.2 1409.84 1468.33 Q1409.84 1475.44 1411.64 1479.01 Q1413.47 1482.55 1417.08 1482.55 Q1420.72 1482.55 1422.52 1479.01 Q1424.35 1475.44 1424.35 1468.33 Q1424.35 1461.2 1422.52 1457.66 Q1420.72 1454.1 1417.08 1454.1 M1417.08 1450.39 Q1422.89 1450.39 1425.95 1455 Q1429.03 1459.58 1429.03 1468.33 Q1429.03 1477.06 1425.95 1481.67 Q1422.89 1486.25 1417.08 1486.25 Q1411.27 1486.25 1408.19 1481.67 Q1405.14 1477.06 1405.14 1468.33 Q1405.14 1459.58 1408.19 1455 Q1411.27 1450.39 1417.08 1450.39 Z" fill="#ffffff" fill-rule="evenodd" fill-opacity="1" /><path clip-path="url(#clip360)" d="M1670.62 1481.64 L1686.94 1481.64 L1686.94 1485.58 L1664.99 1485.58 L1664.99 1481.64 Q1667.66 1478.89 1672.24 1474.26 Q1676.84 1469.61 1678.03 1468.27 Q1680.27 1465.74 1681.15 1464.01 Q1682.05 1462.25 1682.05 1460.56 Q1682.05 1457.8 1680.11 1456.07 Q1678.19 1454.33 1675.09 1454.33 Q1672.89 1454.33 1670.43 1455.09 Q1668 1455.86 1665.22 1457.41 L1665.22 1452.69 Q1668.05 1451.55 1670.5 1450.97 Q1672.96 1450.39 1674.99 1450.39 Q1680.36 1450.39 1683.56 1453.08 Q1686.75 1455.77 1686.75 1460.26 Q1686.75 1462.39 1685.94 1464.31 Q1685.16 1466.2 1683.05 1468.8 Q1682.47 1469.47 1679.37 1472.69 Q1676.27 1475.88 1670.62 1481.64 Z" fill="#ffffff" fill-rule="evenodd" fill-opacity="1" /><path clip-path="url(#clip360)" d="M1696.8 1451.02 L1715.15 1451.02 L1715.15 1454.96 L1701.08 1454.96 L1701.08 1463.43 Q1702.1 1463.08 1703.12 1462.92 Q1704.14 1462.73 1705.15 1462.73 Q1710.94 1462.73 1714.32 1465.9 Q1717.7 1469.08 1717.7 1474.49 Q1717.7 1480.07 1714.23 1483.17 Q1710.76 1486.25 1704.44 1486.25 Q1702.26 1486.25 1699.99 1485.88 Q1697.75 1485.51 1695.34 1484.77 L1695.34 1480.07 Q1697.42 1481.2 1699.65 1481.76 Q1701.87 1482.32 1704.34 1482.32 Q1708.35 1482.32 1710.69 1480.21 Q1713.03 1478.1 1713.03 1474.49 Q1713.03 1470.88 1710.69 1468.77 Q1708.35 1466.67 1704.34 1466.67 Q1702.47 1466.67 1700.59 1467.08 Q1698.74 1467.5 1696.8 1468.38 L1696.8 1451.02 Z" fill="#ffffff" fill-rule="evenodd" fill-opacity="1" /><path clip-path="url(#clip360)" d="M1969.36 1466.95 Q1972.72 1467.66 1974.59 1469.93 Q1976.49 1472.2 1976.49 1475.53 Q1976.49 1480.65 1972.97 1483.45 Q1969.45 1486.25 1962.97 1486.25 Q1960.8 1486.25 1958.48 1485.81 Q1956.19 1485.39 1953.74 1484.54 L1953.74 1480.02 Q1955.68 1481.16 1957.99 1481.74 Q1960.31 1482.32 1962.83 1482.32 Q1967.23 1482.32 1969.52 1480.58 Q1971.84 1478.84 1971.84 1475.53 Q1971.84 1472.48 1969.68 1470.77 Q1967.55 1469.03 1963.74 1469.03 L1959.71 1469.03 L1959.71 1465.19 L1963.92 1465.19 Q1967.37 1465.19 1969.2 1463.82 Q1971.03 1462.43 1971.03 1459.84 Q1971.03 1457.18 1969.13 1455.77 Q1967.25 1454.33 1963.74 1454.33 Q1961.81 1454.33 1959.62 1454.75 Q1957.42 1455.16 1954.78 1456.04 L1954.78 1451.88 Q1957.44 1451.14 1959.75 1450.77 Q1962.09 1450.39 1964.15 1450.39 Q1969.48 1450.39 1972.58 1452.83 Q1975.68 1455.23 1975.68 1459.35 Q1975.68 1462.22 1974.04 1464.21 Q1972.39 1466.18 1969.36 1466.95 Z" fill="#ffffff" fill-rule="evenodd" fill-opacity="1" /><path clip-path="url(#clip360)" d="M1995.36 1454.1 Q1991.74 1454.1 1989.92 1457.66 Q1988.11 1461.2 1988.11 1468.33 Q1988.11 1475.44 1989.92 1479.01 Q1991.74 1482.55 1995.36 1482.55 Q1998.99 1482.55 2000.8 1479.01 Q2002.62 1475.44 2002.62 1468.33 Q2002.62 1461.2 2000.8 1457.66 Q1998.99 1454.1 1995.36 1454.1 M1995.36 1450.39 Q2001.17 1450.39 2004.22 1455 Q2007.3 1459.58 2007.3 1468.33 Q2007.3 1477.06 2004.22 1481.67 Q2001.17 1486.25 1995.36 1486.25 Q1989.55 1486.25 1986.47 1481.67 Q1983.41 1477.06 1983.41 1468.33 Q1983.41 1459.58 1986.47 1455 Q1989.55 1450.39 1995.36 1450.39 Z" fill="#ffffff" fill-rule="evenodd" fill-opacity="1" /><path clip-path="url(#clip360)" d="M1109.16 1524.18 L1109.16 1530.96 Q1105.91 1527.94 1102.22 1526.44 Q1098.56 1524.95 1094.42 1524.95 Q1086.27 1524.95 1081.94 1529.95 Q1077.61 1534.91 1077.61 1544.33 Q1077.61 1553.72 1081.94 1558.72 Q1086.27 1563.68 1094.42 1563.68 Q1098.56 1563.68 1102.22 1562.19 Q1105.91 1560.69 1109.16 1557.67 L1109.16 1564.38 Q1105.78 1566.68 1102 1567.82 Q1098.24 1568.97 1094.04 1568.97 Q1083.25 1568.97 1077.04 1562.38 Q1070.84 1555.76 1070.84 1544.33 Q1070.84 1532.87 1077.04 1526.28 Q1083.25 1519.66 1094.04 1519.66 Q1098.3 1519.66 1102.06 1520.81 Q1105.85 1521.92 1109.16 1524.18 Z" fill="#ffffff" fill-rule="evenodd" fill-opacity="1" /><path clip-path="url(#clip360)" d="M1148.47 1546.53 L1148.47 1568.04 L1142.61 1568.04 L1142.61 1546.72 Q1142.61 1541.66 1140.64 1539.14 Q1138.66 1536.63 1134.72 1536.63 Q1129.97 1536.63 1127.24 1539.65 Q1124.5 1542.68 1124.5 1547.9 L1124.5 1568.04 L1118.61 1568.04 L1118.61 1518.52 L1124.5 1518.52 L1124.5 1537.93 Q1126.6 1534.72 1129.43 1533.13 Q1132.3 1531.54 1136.02 1531.54 Q1142.16 1531.54 1145.31 1535.36 Q1148.47 1539.14 1148.47 1546.53 Z" fill="#ffffff" fill-rule="evenodd" fill-opacity="1" /><path clip-path="url(#clip360)" d="M1176.35 1550.12 Q1169.25 1550.12 1166.51 1551.75 Q1163.77 1553.37 1163.77 1557.29 Q1163.77 1560.4 1165.81 1562.25 Q1167.88 1564.07 1171.41 1564.07 Q1176.28 1564.07 1179.21 1560.63 Q1182.17 1557.16 1182.17 1551.43 L1182.17 1550.12 L1176.35 1550.12 M1188.03 1547.71 L1188.03 1568.04 L1182.17 1568.04 L1182.17 1562.63 Q1180.17 1565.88 1177.17 1567.44 Q1174.18 1568.97 1169.85 1568.97 Q1164.38 1568.97 1161.13 1565.91 Q1157.92 1562.82 1157.92 1557.67 Q1157.92 1551.65 1161.93 1548.6 Q1165.97 1545.54 1173.96 1545.54 L1182.17 1545.54 L1182.17 1544.97 Q1182.17 1540.93 1179.5 1538.73 Q1176.86 1536.5 1172.05 1536.5 Q1168.99 1536.5 1166.1 1537.23 Q1163.2 1537.97 1160.53 1539.43 L1160.53 1534.02 Q1163.74 1532.78 1166.77 1532.17 Q1169.79 1531.54 1172.65 1531.54 Q1180.39 1531.54 1184.21 1535.55 Q1188.03 1539.56 1188.03 1547.71 Z" fill="#ffffff" fill-rule="evenodd" fill-opacity="1" /><path clip-path="url(#clip360)" d="M1229.72 1546.53 L1229.72 1568.04 L1223.87 1568.04 L1223.87 1546.72 Q1223.87 1541.66 1221.89 1539.14 Q1219.92 1536.63 1215.97 1536.63 Q1211.23 1536.63 1208.49 1539.65 Q1205.76 1542.68 1205.76 1547.9 L1205.76 1568.04 L1199.87 1568.04 L1199.87 1532.4 L1205.76 1532.4 L1205.76 1537.93 Q1207.86 1534.72 1210.69 1533.13 Q1213.55 1531.54 1217.28 1531.54 Q1223.42 1531.54 1226.57 1535.36 Q1229.72 1539.14 1229.72 1546.53 Z" fill="#ffffff" fill-rule="evenodd" fill-opacity="1" /><path clip-path="url(#clip360)" d="M1271.04 1546.53 L1271.04 1568.04 L1265.18 1568.04 L1265.18 1546.72 Q1265.18 1541.66 1263.21 1539.14 Q1261.23 1536.63 1257.29 1536.63 Q1252.54 1536.63 1249.81 1539.65 Q1247.07 1542.68 1247.07 1547.9 L1247.07 1568.04 L1241.18 1568.04 L1241.18 1532.4 L1247.07 1532.4 L1247.07 1537.93 Q1249.17 1534.72 1252 1533.13 Q1254.87 1531.54 1258.59 1531.54 Q1264.73 1531.54 1267.89 1535.36 Q1271.04 1539.14 1271.04 1546.53 Z" fill="#ffffff" fill-rule="evenodd" fill-opacity="1" /><path clip-path="url(#clip360)" d="M1313.21 1548.76 L1313.21 1551.62 L1286.28 1551.62 Q1286.66 1557.67 1289.91 1560.85 Q1293.19 1564 1299.01 1564 Q1302.39 1564 1305.54 1563.17 Q1308.72 1562.35 1311.84 1560.69 L1311.84 1566.23 Q1308.69 1567.57 1305.38 1568.27 Q1302.07 1568.97 1298.66 1568.97 Q1290.13 1568.97 1285.14 1564 Q1280.17 1559.04 1280.17 1550.57 Q1280.17 1541.82 1284.88 1536.69 Q1289.62 1531.54 1297.65 1531.54 Q1304.84 1531.54 1309.01 1536.18 Q1313.21 1540.8 1313.21 1548.76 M1307.35 1547.04 Q1307.29 1542.23 1304.65 1539.37 Q1302.04 1536.5 1297.71 1536.5 Q1292.81 1536.5 1289.85 1539.27 Q1286.92 1542.04 1286.47 1547.07 L1307.35 1547.04 Z" fill="#ffffff" fill-rule="evenodd" fill-opacity="1" /><path clip-path="url(#clip360)" d="M1322.82 1518.52 L1328.68 1518.52 L1328.68 1568.04 L1322.82 1568.04 L1322.82 1518.52 Z" fill="#ffffff" fill-rule="evenodd" fill-opacity="1" /><polyline clip-path="url(#clip360)" style="stroke:#ffffff; stroke-linecap:round; stroke-linejoin:round; stroke-width:4; stroke-opacity:1; fill:none" points="249.542,1423.18 249.542,47.2441 "/>
<polyline clip-path="url(#clip360)" style="stroke:#ffffff; stroke-linecap:round; stroke-linejoin:round; stroke-width:4; stroke-opacity:1; fill:none" points="249.542,1384.24 268.44,1384.24 "/>
<polyline clip-path="url(#clip360)" style="stroke:#ffffff; stroke-linecap:round; stroke-linejoin:round; stroke-width:4; stroke-opacity:1; fill:none" points="249.542,1124.63 268.44,1124.63 "/>
<polyline clip-path="url(#clip360)" style="stroke:#ffffff; stroke-linecap:round; stroke-linejoin:round; stroke-width:4; stroke-opacity:1; fill:none" points="249.542,865.017 268.44,865.017 "/>
<polyline clip-path="url(#clip360)" style="stroke:#ffffff; stroke-linecap:round; stroke-linejoin:round; stroke-width:4; stroke-opacity:1; fill:none" points="249.542,605.407 268.44,605.407 "/>
<polyline clip-path="url(#clip360)" style="stroke:#ffffff; stroke-linecap:round; stroke-linejoin:round; stroke-width:4; stroke-opacity:1; fill:none" points="249.542,345.796 268.44,345.796 "/>
<polyline clip-path="url(#clip360)" style="stroke:#ffffff; stroke-linecap:round; stroke-linejoin:round; stroke-width:4; stroke-opacity:1; fill:none" points="249.542,86.1857 268.44,86.1857 "/>
<path clip-path="url(#clip360)" d="M130.371 1382.88 Q133.728 1383.6 135.603 1385.87 Q137.501 1388.14 137.501 1391.47 Q137.501 1396.59 133.982 1399.39 Q130.464 1402.19 123.982 1402.19 Q121.806 1402.19 119.492 1401.75 Q117.2 1401.33 114.746 1400.48 L114.746 1395.96 Q116.691 1397.1 119.006 1397.68 Q121.32 1398.25 123.843 1398.25 Q128.242 1398.25 130.533 1396.52 Q132.848 1394.78 132.848 1391.47 Q132.848 1388.42 130.695 1386.7 Q128.566 1384.97 124.746 1384.97 L120.718 1384.97 L120.718 1381.12 L124.931 1381.12 Q128.38 1381.12 130.209 1379.76 Q132.038 1378.37 132.038 1375.78 Q132.038 1373.12 130.14 1371.7 Q128.265 1370.27 124.746 1370.27 Q122.825 1370.27 120.626 1370.69 Q118.427 1371.1 115.788 1371.98 L115.788 1367.81 Q118.45 1367.07 120.765 1366.7 Q123.103 1366.33 125.163 1366.33 Q130.487 1366.33 133.589 1368.76 Q136.691 1371.17 136.691 1375.29 Q136.691 1378.16 135.047 1380.15 Q133.404 1382.12 130.371 1382.88 Z" fill="#ffffff" fill-rule="evenodd" fill-opacity="1" /><path clip-path="url(#clip360)" d="M146.366 1395.64 L151.251 1395.64 L151.251 1401.52 L146.366 1401.52 L146.366 1395.64 Z" fill="#ffffff" fill-rule="evenodd" fill-opacity="1" /><path clip-path="url(#clip360)" d="M172.014 1382.37 Q168.866 1382.37 167.015 1384.53 Q165.186 1386.68 165.186 1390.43 Q165.186 1394.16 167.015 1396.33 Q168.866 1398.49 172.014 1398.49 Q175.163 1398.49 176.991 1396.33 Q178.843 1394.16 178.843 1390.43 Q178.843 1386.68 176.991 1384.53 Q175.163 1382.37 172.014 1382.37 M181.297 1367.72 L181.297 1371.98 Q179.538 1371.15 177.732 1370.71 Q175.95 1370.27 174.19 1370.27 Q169.561 1370.27 167.107 1373.39 Q164.677 1376.52 164.329 1382.84 Q165.695 1380.82 167.755 1379.76 Q169.815 1378.67 172.292 1378.67 Q177.501 1378.67 180.51 1381.84 Q183.542 1384.99 183.542 1390.43 Q183.542 1395.75 180.394 1398.97 Q177.246 1402.19 172.014 1402.19 Q166.019 1402.19 162.848 1397.61 Q159.677 1393 159.677 1384.27 Q159.677 1376.08 163.565 1371.22 Q167.454 1366.33 174.005 1366.33 Q175.764 1366.33 177.547 1366.68 Q179.352 1367.03 181.297 1367.72 Z" fill="#ffffff" fill-rule="evenodd" fill-opacity="1" /><path clip-path="url(#clip360)" d="M201.598 1370.04 Q197.987 1370.04 196.158 1373.6 Q194.352 1377.14 194.352 1384.27 Q194.352 1391.38 196.158 1394.94 Q197.987 1398.49 201.598 1398.49 Q205.232 1398.49 207.037 1394.94 Q208.866 1391.38 208.866 1384.27 Q208.866 1377.14 207.037 1373.6 Q205.232 1370.04 201.598 1370.04 M201.598 1366.33 Q207.408 1366.33 210.463 1370.94 Q213.542 1375.52 213.542 1384.27 Q213.542 1393 210.463 1397.61 Q207.408 1402.19 201.598 1402.19 Q195.787 1402.19 192.709 1397.61 Q189.653 1393 189.653 1384.27 Q189.653 1375.52 192.709 1370.94 Q195.787 1366.33 201.598 1366.33 Z" fill="#ffffff" fill-rule="evenodd" fill-opacity="1" /><path clip-path="url(#clip360)" d="M131.598 1123.27 Q134.954 1123.99 136.829 1126.26 Q138.728 1128.53 138.728 1131.86 Q138.728 1136.98 135.209 1139.78 Q131.691 1142.58 125.209 1142.58 Q123.033 1142.58 120.718 1142.14 Q118.427 1141.72 115.973 1140.87 L115.973 1136.35 Q117.918 1137.49 120.232 1138.07 Q122.547 1138.64 125.07 1138.64 Q129.468 1138.64 131.76 1136.91 Q134.075 1135.17 134.075 1131.86 Q134.075 1128.81 131.922 1127.09 Q129.792 1125.36 125.973 1125.36 L121.945 1125.36 L121.945 1121.51 L126.158 1121.51 Q129.607 1121.51 131.436 1120.15 Q133.265 1118.76 133.265 1116.17 Q133.265 1113.51 131.367 1112.09 Q129.492 1110.66 125.973 1110.66 Q124.052 1110.66 121.853 1111.07 Q119.654 1111.49 117.015 1112.37 L117.015 1108.2 Q119.677 1107.46 121.992 1107.09 Q124.33 1106.72 126.39 1106.72 Q131.714 1106.72 134.816 1109.15 Q137.917 1111.56 137.917 1115.68 Q137.917 1118.55 136.274 1120.54 Q134.63 1122.51 131.598 1123.27 Z" fill="#ffffff" fill-rule="evenodd" fill-opacity="1" /><path clip-path="url(#clip360)" d="M147.593 1136.03 L152.478 1136.03 L152.478 1141.91 L147.593 1141.91 L147.593 1136.03 Z" fill="#ffffff" fill-rule="evenodd" fill-opacity="1" /><path clip-path="url(#clip360)" d="M173.241 1122.76 Q170.093 1122.76 168.241 1124.92 Q166.413 1127.07 166.413 1130.82 Q166.413 1134.55 168.241 1136.72 Q170.093 1138.88 173.241 1138.88 Q176.389 1138.88 178.218 1136.72 Q180.07 1134.55 180.07 1130.82 Q180.07 1127.07 178.218 1124.92 Q176.389 1122.76 173.241 1122.76 M182.524 1108.11 L182.524 1112.37 Q180.764 1111.54 178.959 1111.1 Q177.176 1110.66 175.417 1110.66 Q170.788 1110.66 168.334 1113.78 Q165.903 1116.91 165.556 1123.23 Q166.922 1121.21 168.982 1120.15 Q171.042 1119.06 173.519 1119.06 Q178.727 1119.06 181.737 1122.23 Q184.769 1125.38 184.769 1130.82 Q184.769 1136.14 181.621 1139.36 Q178.473 1142.58 173.241 1142.58 Q167.246 1142.58 164.075 1138 Q160.903 1133.39 160.903 1124.66 Q160.903 1116.47 164.792 1111.61 Q168.681 1106.72 175.232 1106.72 Q176.991 1106.72 178.774 1107.07 Q180.579 1107.42 182.524 1108.11 Z" fill="#ffffff" fill-rule="evenodd" fill-opacity="1" /><path clip-path="url(#clip360)" d="M193.635 1137.97 L201.274 1137.97 L201.274 1111.61 L192.963 1113.27 L192.963 1109.01 L201.227 1107.35 L205.903 1107.35 L205.903 1137.97 L213.542 1137.97 L213.542 1141.91 L193.635 1141.91 L193.635 1137.97 Z" fill="#ffffff" fill-rule="evenodd" fill-opacity="1" /><path clip-path="url(#clip360)" d="M131.968 863.663 Q135.325 864.381 137.2 866.649 Q139.098 868.918 139.098 872.251 Q139.098 877.367 135.579 880.168 Q132.061 882.969 125.58 882.969 Q123.404 882.969 121.089 882.529 Q118.797 882.112 116.343 881.256 L116.343 876.742 Q118.288 877.876 120.603 878.455 Q122.918 879.033 125.441 879.033 Q129.839 879.033 132.13 877.297 Q134.445 875.561 134.445 872.251 Q134.445 869.195 132.292 867.482 Q130.163 865.746 126.343 865.746 L122.316 865.746 L122.316 861.904 L126.529 861.904 Q129.978 861.904 131.806 860.538 Q133.635 859.149 133.635 856.557 Q133.635 853.895 131.737 852.483 Q129.862 851.047 126.343 851.047 Q124.422 851.047 122.223 851.464 Q120.024 851.881 117.385 852.76 L117.385 848.594 Q120.047 847.853 122.362 847.483 Q124.7 847.112 126.76 847.112 Q132.084 847.112 135.186 849.543 Q138.288 851.95 138.288 856.071 Q138.288 858.941 136.644 860.932 Q135.001 862.899 131.968 863.663 Z" fill="#ffffff" fill-rule="evenodd" fill-opacity="1" /><path clip-path="url(#clip360)" d="M147.964 876.418 L152.848 876.418 L152.848 882.297 L147.964 882.297 L147.964 876.418 Z" fill="#ffffff" fill-rule="evenodd" fill-opacity="1" /><path clip-path="url(#clip360)" d="M173.612 863.154 Q170.464 863.154 168.612 865.307 Q166.783 867.459 166.783 871.209 Q166.783 874.936 168.612 877.112 Q170.464 879.265 173.612 879.265 Q176.76 879.265 178.589 877.112 Q180.44 874.936 180.44 871.209 Q180.44 867.459 178.589 865.307 Q176.76 863.154 173.612 863.154 M182.894 848.501 L182.894 852.76 Q181.135 851.927 179.329 851.487 Q177.547 851.047 175.788 851.047 Q171.158 851.047 168.704 854.172 Q166.274 857.297 165.927 863.617 Q167.292 861.603 169.352 860.538 Q171.413 859.45 173.889 859.45 Q179.098 859.45 182.107 862.621 Q185.139 865.77 185.139 871.209 Q185.139 876.533 181.991 879.751 Q178.843 882.969 173.612 882.969 Q167.616 882.969 164.445 878.385 Q161.274 873.779 161.274 865.052 Q161.274 856.858 165.163 851.996 Q169.052 847.112 175.602 847.112 Q177.362 847.112 179.144 847.459 Q180.95 847.807 182.894 848.501 Z" fill="#ffffff" fill-rule="evenodd" fill-opacity="1" /><path clip-path="url(#clip360)" d="M197.223 878.362 L213.542 878.362 L213.542 882.297 L191.598 882.297 L191.598 878.362 Q194.26 875.607 198.843 870.978 Q203.449 866.325 204.63 864.983 Q206.875 862.459 207.755 860.723 Q208.658 858.964 208.658 857.274 Q208.658 854.52 206.713 852.783 Q204.792 851.047 201.69 851.047 Q199.491 851.047 197.037 851.811 Q194.607 852.575 191.829 854.126 L191.829 849.404 Q194.653 848.27 197.107 847.691 Q199.561 847.112 201.598 847.112 Q206.968 847.112 210.162 849.797 Q213.357 852.483 213.357 856.973 Q213.357 859.103 212.547 861.024 Q211.76 862.922 209.653 865.515 Q209.074 866.186 205.973 869.404 Q202.871 872.598 197.223 878.362 Z" fill="#ffffff" fill-rule="evenodd" fill-opacity="1" /><path clip-path="url(#clip360)" d="M131.019 604.053 Q134.376 604.77 136.251 607.039 Q138.149 609.307 138.149 612.64 Q138.149 617.756 134.63 620.557 Q131.112 623.358 124.63 623.358 Q122.455 623.358 120.14 622.918 Q117.848 622.502 115.394 621.645 L115.394 617.131 Q117.339 618.265 119.654 618.844 Q121.968 619.423 124.492 619.423 Q128.89 619.423 131.181 617.687 Q133.496 615.951 133.496 612.64 Q133.496 609.585 131.343 607.872 Q129.214 606.136 125.394 606.136 L121.367 606.136 L121.367 602.293 L125.58 602.293 Q129.029 602.293 130.857 600.928 Q132.686 599.539 132.686 596.946 Q132.686 594.284 130.788 592.872 Q128.913 591.437 125.394 591.437 Q123.473 591.437 121.274 591.854 Q119.075 592.27 116.436 593.15 L116.436 588.983 Q119.098 588.242 121.413 587.872 Q123.751 587.502 125.811 587.502 Q131.135 587.502 134.237 589.932 Q137.339 592.34 137.339 596.46 Q137.339 599.33 135.695 601.321 Q134.052 603.289 131.019 604.053 Z" fill="#ffffff" fill-rule="evenodd" fill-opacity="1" /><path clip-path="url(#clip360)" d="M147.015 616.807 L151.899 616.807 L151.899 622.687 L147.015 622.687 L147.015 616.807 Z" fill="#ffffff" fill-rule="evenodd" fill-opacity="1" /><path clip-path="url(#clip360)" d="M172.663 603.543 Q169.514 603.543 167.663 605.696 Q165.834 607.849 165.834 611.599 Q165.834 615.326 167.663 617.502 Q169.514 619.654 172.663 619.654 Q175.811 619.654 177.639 617.502 Q179.491 615.326 179.491 611.599 Q179.491 607.849 177.639 605.696 Q175.811 603.543 172.663 603.543 M181.945 588.891 L181.945 593.15 Q180.186 592.317 178.38 591.877 Q176.598 591.437 174.839 591.437 Q170.209 591.437 167.755 594.562 Q165.325 597.687 164.977 604.006 Q166.343 601.992 168.403 600.928 Q170.464 599.84 172.94 599.84 Q178.149 599.84 181.158 603.011 Q184.19 606.159 184.19 611.599 Q184.19 616.923 181.042 620.14 Q177.894 623.358 172.663 623.358 Q166.667 623.358 163.496 618.775 Q160.325 614.168 160.325 605.441 Q160.325 597.247 164.214 592.386 Q168.102 587.502 174.653 587.502 Q176.413 587.502 178.195 587.849 Q180.001 588.196 181.945 588.891 Z" fill="#ffffff" fill-rule="evenodd" fill-opacity="1" /><path clip-path="url(#clip360)" d="M206.412 604.053 Q209.769 604.77 211.644 607.039 Q213.542 609.307 213.542 612.64 Q213.542 617.756 210.024 620.557 Q206.505 623.358 200.024 623.358 Q197.848 623.358 195.533 622.918 Q193.241 622.502 190.788 621.645 L190.788 617.131 Q192.732 618.265 195.047 618.844 Q197.362 619.423 199.885 619.423 Q204.283 619.423 206.574 617.687 Q208.889 615.951 208.889 612.64 Q208.889 609.585 206.737 607.872 Q204.607 606.136 200.787 606.136 L196.76 606.136 L196.76 602.293 L200.973 602.293 Q204.422 602.293 206.25 600.928 Q208.079 599.539 208.079 596.946 Q208.079 594.284 206.181 592.872 Q204.306 591.437 200.787 591.437 Q198.866 591.437 196.667 591.854 Q194.468 592.27 191.829 593.15 L191.829 588.983 Q194.491 588.242 196.806 587.872 Q199.144 587.502 201.204 587.502 Q206.528 587.502 209.63 589.932 Q212.732 592.34 212.732 596.46 Q212.732 599.33 211.088 601.321 Q209.445 603.289 206.412 604.053 Z" fill="#ffffff" fill-rule="evenodd" fill-opacity="1" /><path clip-path="url(#clip360)" d="M129.885 344.442 Q133.242 345.16 135.117 347.428 Q137.015 349.697 137.015 353.03 Q137.015 358.146 133.496 360.947 Q129.978 363.747 123.496 363.747 Q121.32 363.747 119.006 363.308 Q116.714 362.891 114.26 362.035 L114.26 357.521 Q116.205 358.655 118.519 359.234 Q120.834 359.812 123.357 359.812 Q127.755 359.812 130.047 358.076 Q132.362 356.34 132.362 353.03 Q132.362 349.974 130.209 348.261 Q128.08 346.525 124.26 346.525 L120.232 346.525 L120.232 342.683 L124.445 342.683 Q127.894 342.683 129.723 341.317 Q131.552 339.928 131.552 337.336 Q131.552 334.674 129.654 333.262 Q127.779 331.826 124.26 331.826 Q122.339 331.826 120.14 332.243 Q117.941 332.66 115.302 333.539 L115.302 329.373 Q117.964 328.632 120.279 328.262 Q122.617 327.891 124.677 327.891 Q130.001 327.891 133.103 330.322 Q136.204 332.729 136.204 336.849 Q136.204 339.72 134.561 341.711 Q132.917 343.678 129.885 344.442 Z" fill="#ffffff" fill-rule="evenodd" fill-opacity="1" /><path clip-path="url(#clip360)" d="M145.88 357.197 L150.765 357.197 L150.765 363.076 L145.88 363.076 L145.88 357.197 Z" fill="#ffffff" fill-rule="evenodd" fill-opacity="1" /><path clip-path="url(#clip360)" d="M171.528 343.933 Q168.38 343.933 166.528 346.086 Q164.7 348.238 164.7 351.988 Q164.7 355.715 166.528 357.891 Q168.38 360.044 171.528 360.044 Q174.677 360.044 176.505 357.891 Q178.357 355.715 178.357 351.988 Q178.357 348.238 176.505 346.086 Q174.677 343.933 171.528 343.933 M180.811 329.28 L180.811 333.539 Q179.051 332.706 177.246 332.266 Q175.464 331.826 173.704 331.826 Q169.075 331.826 166.621 334.951 Q164.19 338.076 163.843 344.396 Q165.209 342.382 167.269 341.317 Q169.329 340.229 171.806 340.229 Q177.014 340.229 180.024 343.4 Q183.056 346.549 183.056 351.988 Q183.056 357.312 179.908 360.53 Q176.76 363.747 171.528 363.747 Q165.533 363.747 162.362 359.164 Q159.19 354.558 159.19 345.831 Q159.19 337.637 163.079 332.775 Q166.968 327.891 173.519 327.891 Q175.278 327.891 177.061 328.238 Q178.866 328.586 180.811 329.28 Z" fill="#ffffff" fill-rule="evenodd" fill-opacity="1" /><path clip-path="url(#clip360)" d="M203.959 332.59 L192.153 351.039 L203.959 351.039 L203.959 332.59 M202.732 328.516 L208.612 328.516 L208.612 351.039 L213.542 351.039 L213.542 354.928 L208.612 354.928 L208.612 363.076 L203.959 363.076 L203.959 354.928 L188.357 354.928 L188.357 350.414 L202.732 328.516 Z" fill="#ffffff" fill-rule="evenodd" fill-opacity="1" /><path clip-path="url(#clip360)" d="M131.367 84.8315 Q134.723 85.5491 136.598 87.8176 Q138.496 90.0861 138.496 93.4194 Q138.496 98.5351 134.978 101.336 Q131.459 104.137 124.978 104.137 Q122.802 104.137 120.487 103.697 Q118.195 103.28 115.742 102.424 L115.742 97.9101 Q117.686 99.0444 120.001 99.6231 Q122.316 100.202 124.839 100.202 Q129.237 100.202 131.529 98.4657 Q133.843 96.7296 133.843 93.4194 Q133.843 90.3639 131.691 88.6509 Q129.561 86.9148 125.742 86.9148 L121.714 86.9148 L121.714 83.0723 L125.927 83.0723 Q129.376 83.0723 131.205 81.7065 Q133.033 80.3176 133.033 77.7251 Q133.033 75.063 131.135 73.651 Q129.26 72.2158 125.742 72.2158 Q123.82 72.2158 121.621 72.6325 Q119.422 73.0492 116.783 73.9288 L116.783 69.7621 Q119.445 69.0214 121.76 68.651 Q124.098 68.2807 126.158 68.2807 Q131.482 68.2807 134.584 70.7112 Q137.686 73.1186 137.686 77.239 Q137.686 80.1093 136.042 82.1 Q134.399 84.0676 131.367 84.8315 Z" fill="#ffffff" fill-rule="evenodd" fill-opacity="1" /><path clip-path="url(#clip360)" d="M147.362 97.5861 L152.246 97.5861 L152.246 103.466 L147.362 103.466 L147.362 97.5861 Z" fill="#ffffff" fill-rule="evenodd" fill-opacity="1" /><path clip-path="url(#clip360)" d="M173.01 84.3223 Q169.862 84.3223 168.01 86.475 Q166.181 88.6278 166.181 92.3778 Q166.181 96.1046 168.01 98.2805 Q169.862 100.433 173.01 100.433 Q176.158 100.433 177.987 98.2805 Q179.839 96.1046 179.839 92.3778 Q179.839 88.6278 177.987 86.475 Q176.158 84.3223 173.01 84.3223 M182.292 69.6696 L182.292 73.9288 Q180.533 73.0955 178.727 72.6557 Q176.945 72.2158 175.186 72.2158 Q170.556 72.2158 168.102 75.3408 Q165.672 78.4658 165.325 84.7852 Q166.69 82.7713 168.751 81.7065 Q170.811 80.6186 173.288 80.6186 Q178.496 80.6186 181.505 83.7899 Q184.538 86.938 184.538 92.3778 Q184.538 97.7018 181.389 100.919 Q178.241 104.137 173.01 104.137 Q167.015 104.137 163.843 99.5537 Q160.672 94.9472 160.672 86.2204 Q160.672 78.026 164.561 73.1649 Q168.45 68.2807 175.001 68.2807 Q176.76 68.2807 178.542 68.6279 Q180.348 68.9751 182.292 69.6696 Z" fill="#ffffff" fill-rule="evenodd" fill-opacity="1" /><path clip-path="url(#clip360)" d="M192.639 68.9057 L210.996 68.9057 L210.996 72.8408 L196.922 72.8408 L196.922 81.313 Q197.94 80.9658 198.959 80.8038 Q199.977 80.6186 200.996 80.6186 Q206.783 80.6186 210.162 83.7899 Q213.542 86.9611 213.542 92.3778 Q213.542 97.9564 210.07 101.058 Q206.598 104.137 200.278 104.137 Q198.102 104.137 195.834 103.767 Q193.588 103.396 191.181 102.655 L191.181 97.9564 Q193.264 99.0907 195.487 99.6462 Q197.709 100.202 200.186 100.202 Q204.19 100.202 206.528 98.0953 Q208.866 95.9889 208.866 92.3778 Q208.866 88.7667 206.528 86.6602 Q204.19 84.5537 200.186 84.5537 Q198.311 84.5537 196.436 84.9704 Q194.584 85.3871 192.639 86.2667 L192.639 68.9057 Z" fill="#ffffff" fill-rule="evenodd" fill-opacity="1" /><path clip-path="url(#clip360)" d="M16.4842 1000.61 L16.4842 960.415 L21.895 960.415 L21.895 977.284 L64.0042 977.284 L64.0042 983.745 L21.895 983.745 L21.895 1000.61 L16.4842 1000.61 Z" fill="#ffffff" fill-rule="evenodd" fill-opacity="1" /><path clip-path="url(#clip360)" d="M28.3562 956.468 L28.3562 950.612 L64.0042 950.612 L64.0042 956.468 L28.3562 956.468 M14.479 956.468 L14.479 950.612 L21.895 950.612 L21.895 956.468 L14.479 956.468 Z" fill="#ffffff" fill-rule="evenodd" fill-opacity="1" /><path clip-path="url(#clip360)" d="M35.1993 910.603 Q31.2526 908.407 29.3747 905.351 Q27.4968 902.296 27.4968 898.158 Q27.4968 892.588 31.4117 889.564 Q35.2948 886.541 42.4881 886.541 L64.0042 886.541 L64.0042 892.429 L42.679 892.429 Q37.5546 892.429 35.072 894.243 Q32.5894 896.057 32.5894 899.781 Q32.5894 904.333 35.6131 906.975 Q38.6368 909.616 43.8567 909.616 L64.0042 909.616 L64.0042 915.505 L42.679 915.505 Q37.5228 915.505 35.072 917.319 Q32.5894 919.133 32.5894 922.921 Q32.5894 927.409 35.6449 930.05 Q38.6686 932.692 43.8567 932.692 L64.0042 932.692 L64.0042 938.58 L28.3562 938.58 L28.3562 932.692 L33.8944 932.692 Q30.616 930.687 29.0564 927.886 Q27.4968 925.085 27.4968 921.234 Q27.4968 917.351 29.4702 914.645 Q31.4436 911.908 35.1993 910.603 Z" fill="#ffffff" fill-rule="evenodd" fill-opacity="1" /><path clip-path="url(#clip360)" d="M44.7161 844.368 L47.5806 844.368 L47.5806 871.295 Q53.6281 870.913 56.8109 867.666 Q59.9619 864.388 59.9619 858.563 Q59.9619 855.19 59.1344 852.039 Q58.3069 848.856 56.6518 845.737 L62.1899 845.737 Q63.5267 848.888 64.227 852.198 Q64.9272 855.508 64.9272 858.914 Q64.9272 867.444 59.9619 872.441 Q54.9967 877.406 46.5303 877.406 Q37.7774 877.406 32.6531 872.695 Q27.4968 867.953 27.4968 859.932 Q27.4968 852.739 32.1438 848.569 Q36.7589 844.368 44.7161 844.368 M42.9973 850.224 Q38.1912 850.288 35.3266 852.93 Q32.4621 855.54 32.4621 859.868 Q32.4621 864.77 35.2312 867.73 Q38.0002 870.658 43.0292 871.104 L42.9973 850.224 Z" fill="#ffffff" fill-rule="evenodd" fill-opacity="1" /><path clip-path="url(#clip360)" d="M21.7677 807.351 L58.7206 807.351 L58.7206 799.585 Q58.7206 789.75 54.2646 785.199 Q49.8086 780.615 40.1964 780.615 Q30.6479 780.615 26.2237 785.199 Q21.7677 789.75 21.7677 799.585 L21.7677 807.351 M16.4842 813.781 L16.4842 800.572 Q16.4842 786.758 22.2451 780.297 Q27.9743 773.836 40.1964 773.836 Q52.4822 773.836 58.2432 780.329 Q64.0042 786.822 64.0042 800.572 L64.0042 813.781 L16.4842 813.781 Z" fill="#ffffff" fill-rule="evenodd" fill-opacity="1" /><path clip-path="url(#clip360)" d="M44.7161 733.35 L47.5806 733.35 L47.5806 760.277 Q53.6281 759.895 56.8109 756.648 Q59.9619 753.37 59.9619 747.546 Q59.9619 744.172 59.1344 741.021 Q58.3069 737.838 56.6518 734.719 L62.1899 734.719 Q63.5267 737.87 64.227 741.18 Q64.9272 744.49 64.9272 747.896 Q64.9272 756.426 59.9619 761.423 Q54.9967 766.388 46.5303 766.388 Q37.7774 766.388 32.6531 761.677 Q27.4968 756.935 27.4968 748.914 Q27.4968 741.721 32.1438 737.551 Q36.7589 733.35 44.7161 733.35 M42.9973 739.206 Q38.1912 739.27 35.3266 741.912 Q32.4621 744.522 32.4621 748.85 Q32.4621 753.752 35.2312 756.712 Q38.0002 759.64 43.0292 760.086 L42.9973 739.206 Z" fill="#ffffff" fill-rule="evenodd" fill-opacity="1" /><path clip-path="url(#clip360)" d="M14.479 723.738 L14.479 717.881 L64.0042 717.881 L64.0042 723.738 L14.479 723.738 Z" fill="#ffffff" fill-rule="evenodd" fill-opacity="1" /><path clip-path="url(#clip360)" d="M46.0847 689.427 Q46.0847 696.524 47.7079 699.262 Q49.3312 701.999 53.2461 701.999 Q56.3653 701.999 58.2114 699.962 Q60.0256 697.893 60.0256 694.36 Q60.0256 689.49 56.5881 686.562 Q53.1188 683.602 47.3897 683.602 L46.0847 683.602 L46.0847 689.427 M43.6657 677.746 L64.0042 677.746 L64.0042 683.602 L58.5933 683.602 Q61.8398 685.607 63.3994 688.599 Q64.9272 691.591 64.9272 695.92 Q64.9272 701.394 61.8716 704.641 Q58.7843 707.855 53.6281 707.855 Q47.6125 707.855 44.5569 703.845 Q41.5014 699.803 41.5014 691.814 L41.5014 683.602 L40.9285 683.602 Q36.8862 683.602 34.6901 686.276 Q32.4621 688.917 32.4621 693.723 Q32.4621 696.779 33.1941 699.675 Q33.9262 702.572 35.3903 705.245 L29.9795 705.245 Q28.7381 702.031 28.1334 699.007 Q27.4968 695.983 27.4968 693.119 Q27.4968 685.384 31.5072 681.565 Q35.5176 677.746 43.6657 677.746 Z" fill="#ffffff" fill-rule="evenodd" fill-opacity="1" /><path clip-path="url(#clip360)" d="M67.3143 650.85 Q73.68 653.333 75.6216 655.688 Q77.5631 658.044 77.5631 661.99 L77.5631 666.669 L72.6615 666.669 L72.6615 663.232 Q72.6615 660.813 71.5157 659.476 Q70.3699 658.139 66.1048 656.516 L63.4312 655.466 L28.3562 669.884 L28.3562 663.677 L56.238 652.537 L28.3562 641.397 L28.3562 635.191 L67.3143 650.85 Z" fill="#ffffff" fill-rule="evenodd" fill-opacity="1" /><path clip-path="url(#clip360)" d="M14.479 606.927 L14.479 593.432 L19.0304 593.432 L19.0304 601.071 L68.0464 601.071 L68.0464 593.432 L72.5979 593.432 L72.5979 606.927 L14.479 606.927 Z" fill="#ffffff" fill-rule="evenodd" fill-opacity="1" /><path clip-path="url(#clip360)" d="M35.1993 553.201 Q31.2526 551.004 29.3747 547.949 Q27.4968 544.893 27.4968 540.756 Q27.4968 535.186 31.4117 532.162 Q35.2948 529.138 42.4881 529.138 L64.0042 529.138 L64.0042 535.026 L42.679 535.026 Q37.5546 535.026 35.072 536.841 Q32.5894 538.655 32.5894 542.379 Q32.5894 546.93 35.6131 549.572 Q38.6368 552.214 43.8567 552.214 L64.0042 552.214 L64.0042 558.102 L42.679 558.102 Q37.5228 558.102 35.072 559.916 Q32.5894 561.731 32.5894 565.518 Q32.5894 570.006 35.6449 572.648 Q38.6686 575.29 43.8567 575.29 L64.0042 575.29 L64.0042 581.178 L28.3562 581.178 L28.3562 575.29 L33.8944 575.29 Q30.616 573.284 29.0564 570.483 Q27.4968 567.682 27.4968 563.831 Q27.4968 559.948 29.4702 557.243 Q31.4436 554.505 35.1993 553.201 Z" fill="#ffffff" fill-rule="evenodd" fill-opacity="1" /><path clip-path="url(#clip360)" d="M29.4065 494.731 L34.9447 494.731 Q33.6716 497.214 33.035 499.888 Q32.3984 502.561 32.3984 505.426 Q32.3984 509.786 33.7352 511.983 Q35.072 514.147 37.7456 514.147 Q39.7826 514.147 40.9603 512.587 Q42.1061 511.028 43.1565 506.317 L43.6021 504.312 Q44.9389 498.073 47.3897 495.464 Q49.8086 492.822 54.1691 492.822 Q59.1344 492.822 62.0308 496.769 Q64.9272 500.683 64.9272 507.558 Q64.9272 510.423 64.3543 513.542 Q63.8132 516.63 62.6992 520.067 L56.6518 520.067 Q58.3387 516.82 59.198 513.669 Q60.0256 510.518 60.0256 507.431 Q60.0256 503.293 58.6251 501.065 Q57.1929 498.837 54.6147 498.837 Q52.2276 498.837 50.9545 500.461 Q49.6813 502.052 48.5037 507.495 L48.0262 509.532 Q46.8804 514.974 44.5251 517.393 Q42.138 519.812 38.0002 519.812 Q32.9713 519.812 30.2341 516.248 Q27.4968 512.683 27.4968 506.126 Q27.4968 502.88 27.9743 500.015 Q28.4517 497.15 29.4065 494.731 Z" fill="#ffffff" fill-rule="evenodd" fill-opacity="1" /><path clip-path="url(#clip360)" d="M14.479 469.81 L72.5979 469.81 L72.5979 483.305 L68.0464 483.305 L68.0464 475.698 L19.0304 475.698 L19.0304 483.305 L14.479 483.305 L14.479 469.81 Z" fill="#ffffff" fill-rule="evenodd" fill-opacity="1" /><polyline clip-path="url(#clip362)" style="stroke:#009af9; stroke-linecap:round; stroke-linejoin:round; stroke-width:4; stroke-opacity:1; fill:none" points="303.328,1384.24 361.162,1384.24 418.996,1384.24 476.83,1384.24 534.664,1384.24 592.498,1384.24 650.333,1384.24 708.167,1384.24 766.001,1384.24 823.835,1384.24 881.669,1384.24 939.503,1384.24 997.337,735.212 1055.17,735.212 1113.01,735.212 1170.84,735.212 1228.67,735.212 1286.51,735.212 1344.34,735.212 1402.18,735.212 1460.01,735.212 1517.84,735.212 1575.68,735.212 1633.51,735.212 1691.35,86.1857 1749.18,86.1857 1807.02,86.1857 1864.85,86.1857 1922.68,86.1857 1980.52,86.1857 2038.35,86.1857 2096.19,86.1857 "/>
<path clip-path="url(#clip360)" d="M312.89 196.789 L762.283 196.789 L762.283 93.1086 L312.89 93.1086  Z" fill="#000000" fill-rule="evenodd" fill-opacity="0"/>
<polyline clip-path="url(#clip360)" style="stroke:#ffffff; stroke-linecap:round; stroke-linejoin:round; stroke-width:4; stroke-opacity:1; fill:none" points="312.89,196.789 762.283,196.789 762.283,93.1086 312.89,93.1086 312.89,196.789 "/>
<polyline clip-path="url(#clip360)" style="stroke:#009af9; stroke-linecap:round; stroke-linejoin:round; stroke-width:4; stroke-opacity:1; fill:none" points="334.006,144.949 460.701,144.949 "/>
<path clip-path="url(#clip360)" d="M481.817 127.669 L511.053 127.669 L511.053 131.604 L498.784 131.604 L498.784 162.229 L494.085 162.229 L494.085 131.604 L481.817 131.604 L481.817 127.669 Z" fill="#ffffff" fill-rule="evenodd" fill-opacity="1" /><path clip-path="url(#clip360)" d="M513.923 136.303 L518.182 136.303 L518.182 162.229 L513.923 162.229 L513.923 136.303 M513.923 126.21 L518.182 126.21 L518.182 131.604 L513.923 131.604 L513.923 126.21 Z" fill="#ffffff" fill-rule="evenodd" fill-opacity="1" /><path clip-path="url(#clip360)" d="M547.279 141.28 Q548.877 138.409 551.099 137.044 Q553.321 135.678 556.33 135.678 Q560.381 135.678 562.58 138.525 Q564.779 141.349 564.779 146.581 L564.779 162.229 L560.497 162.229 L560.497 146.719 Q560.497 142.993 559.177 141.187 Q557.858 139.382 555.15 139.382 Q551.84 139.382 549.918 141.581 Q547.997 143.78 547.997 147.576 L547.997 162.229 L543.715 162.229 L543.715 146.719 Q543.715 142.969 542.395 141.187 Q541.076 139.382 538.321 139.382 Q535.057 139.382 533.136 141.604 Q531.215 143.803 531.215 147.576 L531.215 162.229 L526.932 162.229 L526.932 136.303 L531.215 136.303 L531.215 140.331 Q532.673 137.946 534.71 136.812 Q536.747 135.678 539.548 135.678 Q542.372 135.678 544.34 137.113 Q546.33 138.548 547.279 141.28 Z" fill="#ffffff" fill-rule="evenodd" fill-opacity="1" /><path clip-path="url(#clip360)" d="M595.45 148.201 L595.45 150.284 L575.867 150.284 Q576.145 154.682 578.506 156.997 Q580.89 159.289 585.126 159.289 Q587.58 159.289 589.872 158.687 Q592.187 158.085 594.455 156.881 L594.455 160.909 Q592.163 161.881 589.756 162.391 Q587.349 162.9 584.872 162.9 Q578.668 162.9 575.034 159.289 Q571.423 155.678 571.423 149.52 Q571.423 143.155 574.849 139.428 Q578.298 135.678 584.131 135.678 Q589.363 135.678 592.395 139.057 Q595.45 142.414 595.45 148.201 M591.191 146.951 Q591.145 143.456 589.224 141.372 Q587.325 139.289 584.177 139.289 Q580.613 139.289 578.46 141.303 Q576.33 143.317 576.006 146.974 L591.191 146.951 Z" fill="#ffffff" fill-rule="evenodd" fill-opacity="1" /><path clip-path="url(#clip360)" d="M634.571 140.238 L634.571 126.21 L638.83 126.21 L638.83 162.229 L634.571 162.229 L634.571 158.34 Q633.228 160.655 631.168 161.789 Q629.131 162.9 626.26 162.9 Q621.561 162.9 618.598 159.15 Q615.659 155.4 615.659 149.289 Q615.659 143.178 618.598 139.428 Q621.561 135.678 626.26 135.678 Q629.131 135.678 631.168 136.812 Q633.228 137.923 634.571 140.238 M620.057 149.289 Q620.057 153.988 621.978 156.673 Q623.923 159.335 627.302 159.335 Q630.682 159.335 632.626 156.673 Q634.571 153.988 634.571 149.289 Q634.571 144.59 632.626 141.928 Q630.682 139.243 627.302 139.243 Q623.923 139.243 621.978 141.928 Q620.057 144.59 620.057 149.289 Z" fill="#ffffff" fill-rule="evenodd" fill-opacity="1" /><path clip-path="url(#clip360)" d="M669.779 148.201 L669.779 150.284 L650.196 150.284 Q650.473 154.682 652.834 156.997 Q655.219 159.289 659.455 159.289 Q661.908 159.289 664.2 158.687 Q666.515 158.085 668.783 156.881 L668.783 160.909 Q666.492 161.881 664.084 162.391 Q661.677 162.9 659.2 162.9 Q652.996 162.9 649.362 159.289 Q645.751 155.678 645.751 149.52 Q645.751 143.155 649.177 139.428 Q652.626 135.678 658.459 135.678 Q663.691 135.678 666.723 139.057 Q669.779 142.414 669.779 148.201 M665.52 146.951 Q665.473 143.456 663.552 141.372 Q661.654 139.289 658.506 139.289 Q654.941 139.289 652.788 141.303 Q650.658 143.317 650.334 146.974 L665.52 146.951 Z" fill="#ffffff" fill-rule="evenodd" fill-opacity="1" /><path clip-path="url(#clip360)" d="M676.769 126.21 L681.029 126.21 L681.029 162.229 L676.769 162.229 L676.769 126.21 Z" fill="#ffffff" fill-rule="evenodd" fill-opacity="1" /><path clip-path="url(#clip360)" d="M701.723 149.196 Q696.561 149.196 694.57 150.377 Q692.58 151.557 692.58 154.405 Q692.58 156.673 694.061 158.016 Q695.566 159.335 698.135 159.335 Q701.677 159.335 703.806 156.835 Q705.959 154.312 705.959 150.145 L705.959 149.196 L701.723 149.196 M710.218 147.437 L710.218 162.229 L705.959 162.229 L705.959 158.293 Q704.501 160.655 702.325 161.789 Q700.149 162.9 697.001 162.9 Q693.019 162.9 690.658 160.678 Q688.32 158.432 688.32 154.682 Q688.32 150.307 691.237 148.085 Q694.177 145.863 699.987 145.863 L705.959 145.863 L705.959 145.446 Q705.959 142.507 704.015 140.909 Q702.093 139.289 698.598 139.289 Q696.376 139.289 694.269 139.821 Q692.163 140.354 690.218 141.419 L690.218 137.483 Q692.556 136.581 694.755 136.141 Q696.955 135.678 699.038 135.678 Q704.663 135.678 707.441 138.594 Q710.218 141.511 710.218 147.437 Z" fill="#ffffff" fill-rule="evenodd" fill-opacity="1" /><path clip-path="url(#clip360)" d="M729.778 164.636 Q727.973 169.266 726.26 170.678 Q724.547 172.09 721.677 172.09 L718.274 172.09 L718.274 168.525 L720.774 168.525 Q722.533 168.525 723.505 167.692 Q724.478 166.858 725.658 163.756 L726.422 161.812 L715.936 136.303 L720.45 136.303 L728.552 156.581 L736.653 136.303 L741.167 136.303 L729.778 164.636 Z" fill="#ffffff" fill-rule="evenodd" fill-opacity="1" /><path clip-path="url(#clip360)" d="M249.542 1423.18 L2149.97 1423.18 L2149.97 47.2441 L249.542 47.2441  Z" fill="#000000" fill-rule="evenodd" fill-opacity="0"/>
<polyline clip-path="url(#clip360)" style="stroke:#ffffff; stroke-linecap:round; stroke-linejoin:round; stroke-width:4; stroke-opacity:1; fill:none" points="2149.97,1423.18 2149.97,47.2441 "/>
<polyline clip-path="url(#clip360)" style="stroke:#ffffff; stroke-linecap:round; stroke-linejoin:round; stroke-width:4; stroke-opacity:1; fill:none" points="2149.97,1356.75 2131.07,1356.75 "/>
<polyline clip-path="url(#clip360)" style="stroke:#ffffff; stroke-linecap:round; stroke-linejoin:round; stroke-width:4; stroke-opacity:1; fill:none" points="2149.97,1152.22 2131.07,1152.22 "/>
<polyline clip-path="url(#clip360)" style="stroke:#ffffff; stroke-linecap:round; stroke-linejoin:round; stroke-width:4; stroke-opacity:1; fill:none" points="2149.97,947.685 2131.07,947.685 "/>
<polyline clip-path="url(#clip360)" style="stroke:#ffffff; stroke-linecap:round; stroke-linejoin:round; stroke-width:4; stroke-opacity:1; fill:none" points="2149.97,743.151 2131.07,743.151 "/>
<polyline clip-path="url(#clip360)" style="stroke:#ffffff; stroke-linecap:round; stroke-linejoin:round; stroke-width:4; stroke-opacity:1; fill:none" points="2149.97,538.617 2131.07,538.617 "/>
<polyline clip-path="url(#clip360)" style="stroke:#ffffff; stroke-linecap:round; stroke-linejoin:round; stroke-width:4; stroke-opacity:1; fill:none" points="2149.97,334.082 2131.07,334.082 "/>
<polyline clip-path="url(#clip360)" style="stroke:#ffffff; stroke-linecap:round; stroke-linejoin:round; stroke-width:4; stroke-opacity:1; fill:none" points="2149.97,129.548 2131.07,129.548 "/>
<path clip-path="url(#clip360)" d="M2197.92 1342.55 Q2194.31 1342.55 2192.48 1346.12 Q2190.67 1349.66 2190.67 1356.79 Q2190.67 1363.89 2192.48 1367.46 Q2194.31 1371 2197.92 1371 Q2201.55 1371 2203.36 1367.46 Q2205.18 1363.89 2205.18 1356.79 Q2205.18 1349.66 2203.36 1346.12 Q2201.55 1342.55 2197.92 1342.55 M2197.92 1338.85 Q2203.73 1338.85 2206.78 1343.45 Q2209.86 1348.04 2209.86 1356.79 Q2209.86 1365.51 2206.78 1370.12 Q2203.73 1374.7 2197.92 1374.7 Q2192.11 1374.7 2189.03 1370.12 Q2185.97 1365.51 2185.97 1356.79 Q2185.97 1348.04 2189.03 1343.45 Q2192.11 1338.85 2197.92 1338.85 Z" fill="#ffffff" fill-rule="evenodd" fill-opacity="1" /><path clip-path="url(#clip360)" d="M2218.08 1368.15 L2222.96 1368.15 L2222.96 1374.03 L2218.08 1374.03 L2218.08 1368.15 Z" fill="#ffffff" fill-rule="evenodd" fill-opacity="1" /><path clip-path="url(#clip360)" d="M2237.18 1370.1 L2253.49 1370.1 L2253.49 1374.03 L2231.55 1374.03 L2231.55 1370.1 Q2234.21 1367.34 2238.8 1362.71 Q2243.4 1358.06 2244.58 1356.72 Q2246.83 1354.2 2247.71 1352.46 Q2248.61 1350.7 2248.61 1349.01 Q2248.61 1346.26 2246.67 1344.52 Q2244.74 1342.78 2241.64 1342.78 Q2239.44 1342.78 2236.99 1343.55 Q2234.56 1344.31 2231.78 1345.86 L2231.78 1341.14 Q2234.61 1340.01 2237.06 1339.43 Q2239.51 1338.85 2241.55 1338.85 Q2246.92 1338.85 2250.12 1341.53 Q2253.31 1344.22 2253.31 1348.71 Q2253.31 1350.84 2252.5 1352.76 Q2251.71 1354.66 2249.61 1357.25 Q2249.03 1357.92 2245.93 1361.14 Q2242.82 1364.33 2237.18 1370.1 Z" fill="#ffffff" fill-rule="evenodd" fill-opacity="1" /><path clip-path="url(#clip360)" d="M2263.45 1373.32 L2263.45 1369.06 Q2265.21 1369.89 2267.01 1370.33 Q2268.82 1370.77 2270.55 1370.77 Q2275.18 1370.77 2277.61 1367.67 Q2280.07 1364.54 2280.42 1358.2 Q2279.07 1360.19 2277.01 1361.26 Q2274.95 1362.32 2272.45 1362.32 Q2267.27 1362.32 2264.24 1359.2 Q2261.23 1356.05 2261.23 1350.61 Q2261.23 1345.28 2264.37 1342.07 Q2267.52 1338.85 2272.75 1338.85 Q2278.75 1338.85 2281.9 1343.45 Q2285.07 1348.04 2285.07 1356.79 Q2285.07 1364.96 2281.18 1369.84 Q2277.31 1374.7 2270.76 1374.7 Q2269 1374.7 2267.2 1374.36 Q2265.39 1374.01 2263.45 1373.32 M2272.75 1358.66 Q2275.9 1358.66 2277.73 1356.51 Q2279.58 1354.36 2279.58 1350.61 Q2279.58 1346.88 2277.73 1344.73 Q2275.9 1342.55 2272.75 1342.55 Q2269.61 1342.55 2267.75 1344.73 Q2265.93 1346.88 2265.93 1350.61 Q2265.93 1354.36 2267.75 1356.51 Q2269.61 1358.66 2272.75 1358.66 Z" fill="#ffffff" fill-rule="evenodd" fill-opacity="1" /><path clip-path="url(#clip360)" d="M2197.92 1138.02 Q2194.31 1138.02 2192.48 1141.58 Q2190.67 1145.12 2190.67 1152.25 Q2190.67 1159.36 2192.48 1162.92 Q2194.31 1166.47 2197.92 1166.47 Q2201.55 1166.47 2203.36 1162.92 Q2205.18 1159.36 2205.18 1152.25 Q2205.18 1145.12 2203.36 1141.58 Q2201.55 1138.02 2197.92 1138.02 M2197.92 1134.31 Q2203.73 1134.31 2206.78 1138.92 Q2209.86 1143.5 2209.86 1152.25 Q2209.86 1160.98 2206.78 1165.59 Q2203.73 1170.17 2197.92 1170.17 Q2192.11 1170.17 2189.03 1165.59 Q2185.97 1160.98 2185.97 1152.25 Q2185.97 1143.5 2189.03 1138.92 Q2192.11 1134.31 2197.92 1134.31 Z" fill="#ffffff" fill-rule="evenodd" fill-opacity="1" /><path clip-path="url(#clip360)" d="M2218.08 1163.62 L2222.96 1163.62 L2222.96 1169.5 L2218.08 1169.5 L2218.08 1163.62 Z" fill="#ffffff" fill-rule="evenodd" fill-opacity="1" /><path clip-path="url(#clip360)" d="M2247.31 1150.86 Q2250.67 1151.58 2252.55 1153.85 Q2254.44 1156.12 2254.44 1159.45 Q2254.44 1164.57 2250.93 1167.37 Q2247.41 1170.17 2240.93 1170.17 Q2238.75 1170.17 2236.43 1169.73 Q2234.14 1169.31 2231.69 1168.46 L2231.69 1163.94 Q2233.63 1165.08 2235.95 1165.66 Q2238.26 1166.24 2240.79 1166.24 Q2245.18 1166.24 2247.48 1164.5 Q2249.79 1162.76 2249.79 1159.45 Q2249.79 1156.4 2247.64 1154.68 Q2245.51 1152.95 2241.69 1152.95 L2237.66 1152.95 L2237.66 1149.11 L2241.87 1149.11 Q2245.32 1149.11 2247.15 1147.74 Q2248.98 1146.35 2248.98 1143.76 Q2248.98 1141.1 2247.08 1139.68 Q2245.21 1138.25 2241.69 1138.25 Q2239.77 1138.25 2237.57 1138.67 Q2235.37 1139.08 2232.73 1139.96 L2232.73 1135.8 Q2235.39 1135.05 2237.71 1134.68 Q2240.05 1134.31 2242.11 1134.31 Q2247.43 1134.31 2250.53 1136.74 Q2253.63 1139.15 2253.63 1143.27 Q2253.63 1146.14 2251.99 1148.13 Q2250.35 1150.1 2247.31 1150.86 Z" fill="#ffffff" fill-rule="evenodd" fill-opacity="1" /><path clip-path="url(#clip360)" d="M2273.31 1138.02 Q2269.7 1138.02 2267.87 1141.58 Q2266.06 1145.12 2266.06 1152.25 Q2266.06 1159.36 2267.87 1162.92 Q2269.7 1166.47 2273.31 1166.47 Q2276.94 1166.47 2278.75 1162.92 Q2280.58 1159.36 2280.58 1152.25 Q2280.58 1145.12 2278.75 1141.58 Q2276.94 1138.02 2273.31 1138.02 M2273.31 1134.31 Q2279.12 1134.31 2282.18 1138.92 Q2285.25 1143.5 2285.25 1152.25 Q2285.25 1160.98 2282.18 1165.59 Q2279.12 1170.17 2273.31 1170.17 Q2267.5 1170.17 2264.42 1165.59 Q2261.36 1160.98 2261.36 1152.25 Q2261.36 1143.5 2264.42 1138.92 Q2267.5 1134.31 2273.31 1134.31 Z" fill="#ffffff" fill-rule="evenodd" fill-opacity="1" /><path clip-path="url(#clip360)" d="M2197.92 933.484 Q2194.31 933.484 2192.48 937.048 Q2190.67 940.59 2190.67 947.72 Q2190.67 954.826 2192.48 958.391 Q2194.31 961.932 2197.92 961.932 Q2201.55 961.932 2203.36 958.391 Q2205.18 954.826 2205.18 947.72 Q2205.18 940.59 2203.36 937.048 Q2201.55 933.484 2197.92 933.484 M2197.92 929.78 Q2203.73 929.78 2206.78 934.386 Q2209.86 938.97 2209.86 947.72 Q2209.86 956.446 2206.78 961.053 Q2203.73 965.636 2197.92 965.636 Q2192.11 965.636 2189.03 961.053 Q2185.97 956.446 2185.97 947.72 Q2185.97 938.97 2189.03 934.386 Q2192.11 929.78 2197.92 929.78 Z" fill="#ffffff" fill-rule="evenodd" fill-opacity="1" /><path clip-path="url(#clip360)" d="M2218.08 959.085 L2222.96 959.085 L2222.96 964.965 L2218.08 964.965 L2218.08 959.085 Z" fill="#ffffff" fill-rule="evenodd" fill-opacity="1" /><path clip-path="url(#clip360)" d="M2247.31 946.331 Q2250.67 947.048 2252.55 949.317 Q2254.44 951.585 2254.44 954.919 Q2254.44 960.034 2250.93 962.835 Q2247.41 965.636 2240.93 965.636 Q2238.75 965.636 2236.43 965.196 Q2234.14 964.78 2231.69 963.923 L2231.69 959.409 Q2233.63 960.544 2235.95 961.122 Q2238.26 961.701 2240.79 961.701 Q2245.18 961.701 2247.48 959.965 Q2249.79 958.229 2249.79 954.919 Q2249.79 951.863 2247.64 950.15 Q2245.51 948.414 2241.69 948.414 L2237.66 948.414 L2237.66 944.571 L2241.87 944.571 Q2245.32 944.571 2247.15 943.206 Q2248.98 941.817 2248.98 939.224 Q2248.98 936.562 2247.08 935.15 Q2245.21 933.715 2241.69 933.715 Q2239.77 933.715 2237.57 934.132 Q2235.37 934.548 2232.73 935.428 L2232.73 931.261 Q2235.39 930.521 2237.71 930.15 Q2240.05 929.78 2242.11 929.78 Q2247.43 929.78 2250.53 932.21 Q2253.63 934.618 2253.63 938.738 Q2253.63 941.609 2251.99 943.599 Q2250.35 945.567 2247.31 946.331 Z" fill="#ffffff" fill-rule="evenodd" fill-opacity="1" /><path clip-path="url(#clip360)" d="M2264.12 961.03 L2271.76 961.03 L2271.76 934.664 L2263.45 936.331 L2263.45 932.072 L2271.71 930.405 L2276.39 930.405 L2276.39 961.03 L2284.03 961.03 L2284.03 964.965 L2264.12 964.965 L2264.12 961.03 Z" fill="#ffffff" fill-rule="evenodd" fill-opacity="1" /><path clip-path="url(#clip360)" d="M2197.92 728.949 Q2194.31 728.949 2192.48 732.514 Q2190.67 736.056 2190.67 743.185 Q2190.67 750.292 2192.48 753.857 Q2194.31 757.398 2197.92 757.398 Q2201.55 757.398 2203.36 753.857 Q2205.18 750.292 2205.18 743.185 Q2205.18 736.056 2203.36 732.514 Q2201.55 728.949 2197.92 728.949 M2197.92 725.246 Q2203.73 725.246 2206.78 729.852 Q2209.86 734.436 2209.86 743.185 Q2209.86 751.912 2206.78 756.519 Q2203.73 761.102 2197.92 761.102 Q2192.11 761.102 2189.03 756.519 Q2185.97 751.912 2185.97 743.185 Q2185.97 734.436 2189.03 729.852 Q2192.11 725.246 2197.92 725.246 Z" fill="#ffffff" fill-rule="evenodd" fill-opacity="1" /><path clip-path="url(#clip360)" d="M2218.08 754.551 L2222.96 754.551 L2222.96 760.431 L2218.08 760.431 L2218.08 754.551 Z" fill="#ffffff" fill-rule="evenodd" fill-opacity="1" /><path clip-path="url(#clip360)" d="M2247.31 741.797 Q2250.67 742.514 2252.55 744.783 Q2254.44 747.051 2254.44 750.385 Q2254.44 755.5 2250.93 758.301 Q2247.41 761.102 2240.93 761.102 Q2238.75 761.102 2236.43 760.662 Q2234.14 760.246 2231.69 759.389 L2231.69 754.875 Q2233.63 756.009 2235.95 756.588 Q2238.26 757.167 2240.79 757.167 Q2245.18 757.167 2247.48 755.431 Q2249.79 753.695 2249.79 750.385 Q2249.79 747.329 2247.64 745.616 Q2245.51 743.88 2241.69 743.88 L2237.66 743.88 L2237.66 740.037 L2241.87 740.037 Q2245.32 740.037 2247.15 738.672 Q2248.98 737.283 2248.98 734.69 Q2248.98 732.028 2247.08 730.616 Q2245.21 729.181 2241.69 729.181 Q2239.77 729.181 2237.57 729.598 Q2235.37 730.014 2232.73 730.894 L2232.73 726.727 Q2235.39 725.986 2237.71 725.616 Q2240.05 725.246 2242.11 725.246 Q2247.43 725.246 2250.53 727.676 Q2253.63 730.084 2253.63 734.204 Q2253.63 737.074 2251.99 739.065 Q2250.35 741.033 2247.31 741.797 Z" fill="#ffffff" fill-rule="evenodd" fill-opacity="1" /><path clip-path="url(#clip360)" d="M2267.34 756.496 L2283.66 756.496 L2283.66 760.431 L2261.71 760.431 L2261.71 756.496 Q2264.37 753.741 2268.96 749.111 Q2273.56 744.459 2274.74 743.116 Q2276.99 740.593 2277.87 738.857 Q2278.77 737.098 2278.77 735.408 Q2278.77 732.653 2276.83 730.917 Q2274.91 729.181 2271.8 729.181 Q2269.61 729.181 2267.15 729.945 Q2264.72 730.709 2261.94 732.26 L2261.94 727.537 Q2264.77 726.403 2267.22 725.824 Q2269.68 725.246 2271.71 725.246 Q2277.08 725.246 2280.28 727.931 Q2283.47 730.616 2283.47 735.107 Q2283.47 737.236 2282.66 739.158 Q2281.87 741.056 2279.77 743.648 Q2279.19 744.32 2276.09 747.537 Q2272.99 750.732 2267.34 756.496 Z" fill="#ffffff" fill-rule="evenodd" fill-opacity="1" /><path clip-path="url(#clip360)" d="M2197.92 524.415 Q2194.31 524.415 2192.48 527.98 Q2190.67 531.522 2190.67 538.651 Q2190.67 545.758 2192.48 549.323 Q2194.31 552.864 2197.92 552.864 Q2201.55 552.864 2203.36 549.323 Q2205.18 545.758 2205.18 538.651 Q2205.18 531.522 2203.36 527.98 Q2201.55 524.415 2197.92 524.415 M2197.92 520.712 Q2203.73 520.712 2206.78 525.318 Q2209.86 529.901 2209.86 538.651 Q2209.86 547.378 2206.78 551.985 Q2203.73 556.568 2197.92 556.568 Q2192.11 556.568 2189.03 551.985 Q2185.97 547.378 2185.97 538.651 Q2185.97 529.901 2189.03 525.318 Q2192.11 520.712 2197.92 520.712 Z" fill="#ffffff" fill-rule="evenodd" fill-opacity="1" /><path clip-path="url(#clip360)" d="M2218.08 550.017 L2222.96 550.017 L2222.96 555.897 L2218.08 555.897 L2218.08 550.017 Z" fill="#ffffff" fill-rule="evenodd" fill-opacity="1" /><path clip-path="url(#clip360)" d="M2247.31 537.262 Q2250.67 537.98 2252.55 540.249 Q2254.44 542.517 2254.44 545.85 Q2254.44 550.966 2250.93 553.767 Q2247.41 556.568 2240.93 556.568 Q2238.75 556.568 2236.43 556.128 Q2234.14 555.711 2231.69 554.855 L2231.69 550.341 Q2233.63 551.475 2235.95 552.054 Q2238.26 552.633 2240.79 552.633 Q2245.18 552.633 2247.48 550.897 Q2249.79 549.161 2249.79 545.85 Q2249.79 542.795 2247.64 541.082 Q2245.51 539.346 2241.69 539.346 L2237.66 539.346 L2237.66 535.503 L2241.87 535.503 Q2245.32 535.503 2247.15 534.137 Q2248.98 532.749 2248.98 530.156 Q2248.98 527.494 2247.08 526.082 Q2245.21 524.647 2241.69 524.647 Q2239.77 524.647 2237.57 525.063 Q2235.37 525.48 2232.73 526.36 L2232.73 522.193 Q2235.39 521.452 2237.71 521.082 Q2240.05 520.712 2242.11 520.712 Q2247.43 520.712 2250.53 523.142 Q2253.63 525.55 2253.63 529.67 Q2253.63 532.54 2251.99 534.531 Q2250.35 536.499 2247.31 537.262 Z" fill="#ffffff" fill-rule="evenodd" fill-opacity="1" /><path clip-path="url(#clip360)" d="M2277.48 537.262 Q2280.83 537.98 2282.71 540.249 Q2284.61 542.517 2284.61 545.85 Q2284.61 550.966 2281.09 553.767 Q2277.57 556.568 2271.09 556.568 Q2268.91 556.568 2266.6 556.128 Q2264.3 555.711 2261.85 554.855 L2261.85 550.341 Q2263.8 551.475 2266.11 552.054 Q2268.43 552.633 2270.95 552.633 Q2275.35 552.633 2277.64 550.897 Q2279.95 549.161 2279.95 545.85 Q2279.95 542.795 2277.8 541.082 Q2275.67 539.346 2271.85 539.346 L2267.82 539.346 L2267.82 535.503 L2272.04 535.503 Q2275.49 535.503 2277.31 534.137 Q2279.14 532.749 2279.14 530.156 Q2279.14 527.494 2277.24 526.082 Q2275.37 524.647 2271.85 524.647 Q2269.93 524.647 2267.73 525.063 Q2265.53 525.48 2262.89 526.36 L2262.89 522.193 Q2265.55 521.452 2267.87 521.082 Q2270.21 520.712 2272.27 520.712 Q2277.59 520.712 2280.69 523.142 Q2283.8 525.55 2283.8 529.67 Q2283.8 532.54 2282.15 534.531 Q2280.51 536.499 2277.48 537.262 Z" fill="#ffffff" fill-rule="evenodd" fill-opacity="1" /><path clip-path="url(#clip360)" d="M2197.92 319.881 Q2194.31 319.881 2192.48 323.446 Q2190.67 326.988 2190.67 334.117 Q2190.67 341.224 2192.48 344.788 Q2194.31 348.33 2197.92 348.33 Q2201.55 348.33 2203.36 344.788 Q2205.18 341.224 2205.18 334.117 Q2205.18 326.988 2203.36 323.446 Q2201.55 319.881 2197.92 319.881 M2197.92 316.177 Q2203.73 316.177 2206.78 320.784 Q2209.86 325.367 2209.86 334.117 Q2209.86 342.844 2206.78 347.45 Q2203.73 352.034 2197.92 352.034 Q2192.11 352.034 2189.03 347.45 Q2185.97 342.844 2185.97 334.117 Q2185.97 325.367 2189.03 320.784 Q2192.11 316.177 2197.92 316.177 Z" fill="#ffffff" fill-rule="evenodd" fill-opacity="1" /><path clip-path="url(#clip360)" d="M2218.08 345.483 L2222.96 345.483 L2222.96 351.362 L2218.08 351.362 L2218.08 345.483 Z" fill="#ffffff" fill-rule="evenodd" fill-opacity="1" /><path clip-path="url(#clip360)" d="M2247.31 332.728 Q2250.67 333.446 2252.55 335.714 Q2254.44 337.983 2254.44 341.316 Q2254.44 346.432 2250.93 349.233 Q2247.41 352.034 2240.93 352.034 Q2238.75 352.034 2236.43 351.594 Q2234.14 351.177 2231.69 350.321 L2231.69 345.807 Q2233.63 346.941 2235.95 347.52 Q2238.26 348.099 2240.79 348.099 Q2245.18 348.099 2247.48 346.362 Q2249.79 344.626 2249.79 341.316 Q2249.79 338.261 2247.64 336.548 Q2245.51 334.812 2241.69 334.812 L2237.66 334.812 L2237.66 330.969 L2241.87 330.969 Q2245.32 330.969 2247.15 329.603 Q2248.98 328.214 2248.98 325.622 Q2248.98 322.96 2247.08 321.548 Q2245.21 320.113 2241.69 320.113 Q2239.77 320.113 2237.57 320.529 Q2235.37 320.946 2232.73 321.826 L2232.73 317.659 Q2235.39 316.918 2237.71 316.548 Q2240.05 316.177 2242.11 316.177 Q2247.43 316.177 2250.53 318.608 Q2253.63 321.015 2253.63 325.136 Q2253.63 328.006 2251.99 329.997 Q2250.35 331.964 2247.31 332.728 Z" fill="#ffffff" fill-rule="evenodd" fill-opacity="1" /><path clip-path="url(#clip360)" d="M2276.16 320.877 L2264.35 339.325 L2276.16 339.325 L2276.16 320.877 M2274.93 316.802 L2280.81 316.802 L2280.81 339.325 L2285.74 339.325 L2285.74 343.214 L2280.81 343.214 L2280.81 351.362 L2276.16 351.362 L2276.16 343.214 L2260.55 343.214 L2260.55 338.7 L2274.93 316.802 Z" fill="#ffffff" fill-rule="evenodd" fill-opacity="1" /><path clip-path="url(#clip360)" d="M2197.92 115.347 Q2194.31 115.347 2192.48 118.912 Q2190.67 122.453 2190.67 129.583 Q2190.67 136.689 2192.48 140.254 Q2194.31 143.796 2197.92 143.796 Q2201.55 143.796 2203.36 140.254 Q2205.18 136.689 2205.18 129.583 Q2205.18 122.453 2203.36 118.912 Q2201.55 115.347 2197.92 115.347 M2197.92 111.643 Q2203.73 111.643 2206.78 116.25 Q2209.86 120.833 2209.86 129.583 Q2209.86 138.31 2206.78 142.916 Q2203.73 147.5 2197.92 147.5 Q2192.11 147.5 2189.03 142.916 Q2185.97 138.31 2185.97 129.583 Q2185.97 120.833 2189.03 116.25 Q2192.11 111.643 2197.92 111.643 Z" fill="#ffffff" fill-rule="evenodd" fill-opacity="1" /><path clip-path="url(#clip360)" d="M2218.08 140.949 L2222.96 140.949 L2222.96 146.828 L2218.08 146.828 L2218.08 140.949 Z" fill="#ffffff" fill-rule="evenodd" fill-opacity="1" /><path clip-path="url(#clip360)" d="M2247.31 128.194 Q2250.67 128.912 2252.55 131.18 Q2254.44 133.449 2254.44 136.782 Q2254.44 141.898 2250.93 144.699 Q2247.41 147.5 2240.93 147.5 Q2238.75 147.5 2236.43 147.06 Q2234.14 146.643 2231.69 145.787 L2231.69 141.273 Q2233.63 142.407 2235.95 142.986 Q2238.26 143.564 2240.79 143.564 Q2245.18 143.564 2247.48 141.828 Q2249.79 140.092 2249.79 136.782 Q2249.79 133.727 2247.64 132.014 Q2245.51 130.277 2241.69 130.277 L2237.66 130.277 L2237.66 126.435 L2241.87 126.435 Q2245.32 126.435 2247.15 125.069 Q2248.98 123.68 2248.98 121.088 Q2248.98 118.426 2247.08 117.014 Q2245.21 115.578 2241.69 115.578 Q2239.77 115.578 2237.57 115.995 Q2235.37 116.412 2232.73 117.291 L2232.73 113.125 Q2235.39 112.384 2237.71 112.014 Q2240.05 111.643 2242.11 111.643 Q2247.43 111.643 2250.53 114.074 Q2253.63 116.481 2253.63 120.602 Q2253.63 123.472 2251.99 125.463 Q2250.35 127.43 2247.31 128.194 Z" fill="#ffffff" fill-rule="evenodd" fill-opacity="1" /><path clip-path="url(#clip360)" d="M2263.36 112.268 L2281.71 112.268 L2281.71 116.203 L2267.64 116.203 L2267.64 124.676 Q2268.66 124.328 2269.68 124.166 Q2270.69 123.981 2271.71 123.981 Q2277.5 123.981 2280.88 127.152 Q2284.26 130.324 2284.26 135.74 Q2284.26 141.319 2280.79 144.421 Q2277.31 147.5 2270.99 147.5 Q2268.82 147.5 2266.55 147.129 Q2264.3 146.759 2261.9 146.018 L2261.9 141.319 Q2263.98 142.453 2266.2 143.009 Q2268.43 143.564 2270.9 143.564 Q2274.91 143.564 2277.24 141.458 Q2279.58 139.352 2279.58 135.74 Q2279.58 132.129 2277.24 130.023 Q2274.91 127.916 2270.9 127.916 Q2269.03 127.916 2267.15 128.333 Q2265.3 128.75 2263.36 129.629 L2263.36 112.268 Z" fill="#ffffff" fill-rule="evenodd" fill-opacity="1" /><path clip-path="url(#clip360)" d="M2334.9 851.688 L2341.68 851.688 Q2338.66 854.935 2337.16 858.627 Q2335.67 862.287 2335.67 866.425 Q2335.67 874.573 2340.67 878.902 Q2345.63 883.231 2355.05 883.231 Q2364.44 883.231 2369.44 878.902 Q2374.4 874.573 2374.4 866.425 Q2374.4 862.287 2372.91 858.627 Q2371.41 854.935 2368.39 851.688 L2375.1 851.688 Q2377.4 855.062 2378.54 858.85 Q2379.69 862.606 2379.69 866.807 Q2379.69 877.597 2373.1 883.803 Q2366.48 890.01 2355.05 890.01 Q2343.59 890.01 2337 883.803 Q2330.38 877.597 2330.38 866.807 Q2330.38 862.542 2331.53 858.786 Q2332.64 854.999 2334.9 851.688 Z" fill="#ffffff" fill-rule="evenodd" fill-opacity="1" /><path clip-path="url(#clip360)" d="M2356.48 819.223 Q2357.18 817.155 2359.48 815.213 Q2361.77 813.24 2365.78 811.266 L2378.76 804.741 L2378.76 811.648 L2366.57 817.727 Q2361.8 820.083 2360.24 822.311 Q2358.68 824.507 2358.68 828.326 L2358.68 835.329 L2378.76 835.329 L2378.76 841.758 L2331.24 841.758 L2331.24 827.244 Q2331.24 819.096 2334.65 815.086 Q2338.06 811.075 2344.93 811.075 Q2349.42 811.075 2352.38 813.176 Q2355.34 815.245 2356.48 819.223 M2336.53 835.329 L2353.4 835.329 L2353.4 827.244 Q2353.4 822.597 2351.26 820.242 Q2349.1 817.855 2344.93 817.855 Q2340.76 817.855 2338.66 820.242 Q2336.53 822.597 2336.53 827.244 L2336.53 835.329 Z" fill="#ffffff" fill-rule="evenodd" fill-opacity="1" /><path clip-path="url(#clip360)" d="M2331.24 796.466 L2331.24 790.037 L2373.35 790.037 L2373.35 766.897 L2378.76 766.897 L2378.76 796.466 L2331.24 796.466 Z" fill="#ffffff" fill-rule="evenodd" fill-opacity="1" /><path clip-path="url(#clip360)" d="M2356.07 753.72 L2373.48 753.72 L2373.48 743.408 Q2373.48 738.22 2371.35 735.737 Q2369.18 733.223 2364.76 733.223 Q2360.3 733.223 2358.2 735.737 Q2356.07 738.22 2356.07 743.408 L2356.07 753.72 M2336.53 753.72 L2350.85 753.72 L2350.85 744.204 Q2350.85 739.493 2349.1 737.201 Q2347.32 734.878 2343.69 734.878 Q2340.09 734.878 2338.31 737.201 Q2336.53 739.493 2336.53 744.204 L2336.53 753.72 M2331.24 760.15 L2331.24 743.726 Q2331.24 736.374 2334.3 732.395 Q2337.35 728.417 2342.99 728.417 Q2347.35 728.417 2349.93 730.454 Q2352.51 732.491 2353.14 736.437 Q2354.16 731.695 2357.41 729.085 Q2360.62 726.443 2365.46 726.443 Q2371.83 726.443 2375.29 730.772 Q2378.76 735.101 2378.76 743.09 L2378.76 760.15 L2331.24 760.15 Z" fill="#ffffff" fill-rule="evenodd" fill-opacity="1" /><path clip-path="url(#clip360)" d="M2329.24 695.506 L2329.24 682.011 L2333.79 682.011 L2333.79 689.649 L2382.81 689.649 L2382.81 682.011 L2387.36 682.011 L2387.36 695.506 L2329.24 695.506 Z" fill="#ffffff" fill-rule="evenodd" fill-opacity="1" /><path clip-path="url(#clip360)" d="M2392.32 670.139 L2343.12 670.139 L2343.12 664.282 L2365.27 664.282 Q2369.88 664.282 2372.24 662.086 Q2374.59 659.89 2374.59 655.593 Q2374.59 650.882 2371.92 648.527 Q2369.25 646.14 2363.9 646.14 L2343.12 646.14 L2343.12 640.283 L2370.55 640.283 Q2372.46 640.283 2373.38 639.742 Q2374.28 639.169 2374.28 637.992 Q2374.28 637.705 2374.12 637.196 Q2373.93 636.687 2373.54 635.796 L2378.25 635.796 Q2378.99 637.101 2379.34 638.278 Q2379.69 639.424 2379.69 640.538 Q2379.69 642.734 2378.45 644.039 Q2377.2 645.344 2374.66 645.822 Q2377.17 647.413 2378.45 649.736 Q2379.69 652.028 2379.69 655.147 Q2379.69 658.394 2378.45 660.685 Q2377.2 662.945 2374.72 664.282 L2392.32 664.282 L2392.32 670.139 Z" fill="#ffffff" fill-rule="evenodd" fill-opacity="1" /><path clip-path="url(#clip360)" d="M2344.17 605.336 L2349.7 605.336 Q2348.43 607.818 2347.79 610.492 Q2347.16 613.165 2347.16 616.03 Q2347.16 620.391 2348.49 622.587 Q2349.83 624.751 2352.51 624.751 Q2354.54 624.751 2355.72 623.191 Q2356.87 621.632 2357.92 616.921 L2358.36 614.916 Q2359.7 608.678 2362.15 606.068 Q2364.57 603.426 2368.93 603.426 Q2373.89 603.426 2376.79 607.373 Q2379.69 611.288 2379.69 618.163 Q2379.69 621.027 2379.11 624.146 Q2378.57 627.234 2377.46 630.671 L2371.41 630.671 Q2373.1 627.425 2373.96 624.274 Q2374.79 621.123 2374.79 618.035 Q2374.79 613.898 2373.38 611.67 Q2371.95 609.442 2369.37 609.442 Q2366.99 609.442 2365.71 611.065 Q2364.44 612.656 2363.26 618.099 L2362.79 620.136 Q2361.64 625.579 2359.28 627.998 Q2356.9 630.417 2352.76 630.417 Q2347.73 630.417 2344.99 626.852 Q2342.26 623.287 2342.26 616.73 Q2342.26 613.484 2342.73 610.619 Q2343.21 607.755 2344.17 605.336 Z" fill="#ffffff" fill-rule="evenodd" fill-opacity="1" /><path clip-path="url(#clip360)" d="M2329.24 580.414 L2387.36 580.414 L2387.36 593.909 L2382.81 593.909 L2382.81 586.302 L2333.79 586.302 L2333.79 593.909 L2329.24 593.909 L2329.24 580.414 Z" fill="#ffffff" fill-rule="evenodd" fill-opacity="1" /><polyline clip-path="url(#clip362)" style="stroke:#ff8c00; stroke-linecap:round; stroke-linejoin:round; stroke-width:4; stroke-opacity:1; fill:none" points="303.328,1033.07 361.162,1295.98 418.996,1384.24 476.83,1164.34 534.664,1049.52 592.498,955.138 650.333,874.018 708.167,539.447 766.001,826.466 823.835,547.088 881.669,649.677 939.503,643.516 997.337,881.522 1055.17,720.731 1113.01,590.738 1170.84,1124.5 1228.67,1207.07 1286.51,931.579 1344.34,1069.89 1402.18,721.3 1460.01,975.753 1517.84,860.254 1575.68,498.782 1633.51,86.1857 1691.35,504.419 1749.18,899.49 1807.02,702.874 1864.85,700.241 1922.68,1223.75 1980.52,781.922 2038.35,811.913 2096.19,137.469 "/>
<path clip-path="url(#clip360)" d="M1777.62 196.789 L2086.62 196.789 L2086.62 93.1086 L1777.62 93.1086  Z" fill="#000000" fill-rule="evenodd" fill-opacity="0"/>
<polyline clip-path="url(#clip360)" style="stroke:#ffffff; stroke-linecap:round; stroke-linejoin:round; stroke-width:4; stroke-opacity:1; fill:none" points="1777.62,196.789 2086.62,196.789 2086.62,93.1086 1777.62,93.1086 1777.62,196.789 "/>
<polyline clip-path="url(#clip360)" style="stroke:#ff8c00; stroke-linecap:round; stroke-linejoin:round; stroke-width:4; stroke-opacity:1; fill:none" points="1798.74,144.949 1925.43,144.949 "/>
<path clip-path="url(#clip360)" d="M1974.42 130.331 L1974.42 135.261 Q1972.06 133.062 1969.37 131.974 Q1966.71 130.886 1963.7 130.886 Q1957.78 130.886 1954.63 134.52 Q1951.48 138.132 1951.48 144.983 Q1951.48 151.812 1954.63 155.446 Q1957.78 159.057 1963.7 159.057 Q1966.71 159.057 1969.37 157.969 Q1972.06 156.881 1974.42 154.682 L1974.42 159.567 Q1971.97 161.233 1969.21 162.067 Q1966.48 162.9 1963.43 162.9 Q1955.58 162.9 1951.06 158.108 Q1946.55 153.293 1946.55 144.983 Q1946.55 136.65 1951.06 131.858 Q1955.58 127.044 1963.43 127.044 Q1966.53 127.044 1969.26 127.877 Q1972.01 128.687 1974.42 130.331 Z" fill="#ffffff" fill-rule="evenodd" fill-opacity="1" /><path clip-path="url(#clip360)" d="M1998.03 146.025 Q1999.54 146.534 2000.95 148.201 Q2002.38 149.868 2003.82 152.784 L2008.56 162.229 L2003.54 162.229 L1999.12 153.363 Q1997.41 149.891 1995.79 148.756 Q1994.19 147.622 1991.41 147.622 L1986.32 147.622 L1986.32 162.229 L1981.64 162.229 L1981.64 127.669 L1992.2 127.669 Q1998.12 127.669 2001.04 130.145 Q2003.96 132.622 2003.96 137.622 Q2003.96 140.886 2002.43 143.039 Q2000.93 145.192 1998.03 146.025 M1986.32 131.511 L1986.32 143.78 L1992.2 143.78 Q1995.58 143.78 1997.29 142.229 Q1999.03 140.655 1999.03 137.622 Q1999.03 134.59 1997.29 133.062 Q1995.58 131.511 1992.2 131.511 L1986.32 131.511 Z" fill="#ffffff" fill-rule="evenodd" fill-opacity="1" /><path clip-path="url(#clip360)" d="M2014.58 127.669 L2019.26 127.669 L2019.26 158.293 L2036.09 158.293 L2036.09 162.229 L2014.58 162.229 L2014.58 127.669 Z" fill="#ffffff" fill-rule="evenodd" fill-opacity="1" /><path clip-path="url(#clip360)" d="M2045.67 145.724 L2045.67 158.386 L2053.17 158.386 Q2056.94 158.386 2058.75 156.835 Q2060.58 155.261 2060.58 152.043 Q2060.58 148.803 2058.75 147.275 Q2056.94 145.724 2053.17 145.724 L2045.67 145.724 M2045.67 131.511 L2045.67 141.928 L2052.59 141.928 Q2056.02 141.928 2057.68 140.655 Q2059.37 139.358 2059.37 136.719 Q2059.37 134.104 2057.68 132.807 Q2056.02 131.511 2052.59 131.511 L2045.67 131.511 M2040.99 127.669 L2052.94 127.669 Q2058.29 127.669 2061.18 129.891 Q2064.07 132.113 2064.07 136.21 Q2064.07 139.382 2062.59 141.257 Q2061.11 143.131 2058.24 143.594 Q2061.69 144.335 2063.59 146.696 Q2065.51 149.034 2065.51 152.553 Q2065.51 157.182 2062.36 159.705 Q2059.21 162.229 2053.4 162.229 L2040.99 162.229 L2040.99 127.669 Z" fill="#ffffff" fill-rule="evenodd" fill-opacity="1" /></svg>
