<?xml version="1.0" encoding="utf-8"?>
<svg xmlns="http://www.w3.org/2000/svg" xmlns:xlink="http://www.w3.org/1999/xlink" width="600" height="400" viewBox="0 0 2400 1600">
<defs>
  <clipPath id="clip650">
    <rect x="0" y="0" width="2400" height="1600"/>
  </clipPath>
</defs>
<path clip-path="url(#clip650)" d="M0 1600 L2400 1600 L2400 0 L0 0  Z" fill="#000000" fill-rule="evenodd" fill-opacity="0"/>
<defs>
  <clipPath id="clip651">
    <rect x="480" y="0" width="1681" height="1600"/>
  </clipPath>
</defs>
<path clip-path="url(#clip650)" d="M339.627 1423.18 L2352.76 1423.18 L2352.76 123.472 L339.627 123.472  Z" fill="#000000" fill-rule="evenodd" fill-opacity="0"/>
<defs>
  <clipPath id="clip652">
    <rect x="339" y="123" width="2014" height="1301"/>
  </clipPath>
</defs>
<polyline clip-path="url(#clip652)" style="stroke:#ffffff; stroke-linecap:round; stroke-linejoin:round; stroke-width:2; stroke-opacity:0.1; fill:none" points="472.569,1423.18 472.569,123.472 "/>
<polyline clip-path="url(#clip652)" style="stroke:#ffffff; stroke-linecap:round; stroke-linejoin:round; stroke-width:2; stroke-opacity:0.1; fill:none" points="776.438,1423.18 776.438,123.472 "/>
<polyline clip-path="url(#clip652)" style="stroke:#ffffff; stroke-linecap:round; stroke-linejoin:round; stroke-width:2; stroke-opacity:0.1; fill:none" points="1080.31,1423.18 1080.31,123.472 "/>
<polyline clip-path="url(#clip652)" style="stroke:#ffffff; stroke-linecap:round; stroke-linejoin:round; stroke-width:2; stroke-opacity:0.1; fill:none" points="1384.17,1423.18 1384.17,123.472 "/>
<polyline clip-path="url(#clip652)" style="stroke:#ffffff; stroke-linecap:round; stroke-linejoin:round; stroke-width:2; stroke-opacity:0.1; fill:none" points="1688.04,1423.18 1688.04,123.472 "/>
<polyline clip-path="url(#clip652)" style="stroke:#ffffff; stroke-linecap:round; stroke-linejoin:round; stroke-width:2; stroke-opacity:0.1; fill:none" points="1991.91,1423.18 1991.91,123.472 "/>
<polyline clip-path="url(#clip652)" style="stroke:#ffffff; stroke-linecap:round; stroke-linejoin:round; stroke-width:2; stroke-opacity:0.1; fill:none" points="2295.78,1423.18 2295.78,123.472 "/>
<polyline clip-path="url(#clip650)" style="stroke:#ffffff; stroke-linecap:round; stroke-linejoin:round; stroke-width:4; stroke-opacity:1; fill:none" points="339.627,1423.18 2352.76,1423.18 "/>
<polyline clip-path="url(#clip650)" style="stroke:#ffffff; stroke-linecap:round; stroke-linejoin:round; stroke-width:4; stroke-opacity:1; fill:none" points="472.569,1423.18 472.569,1404.28 "/>
<polyline clip-path="url(#clip650)" style="stroke:#ffffff; stroke-linecap:round; stroke-linejoin:round; stroke-width:4; stroke-opacity:1; fill:none" points="776.438,1423.18 776.438,1404.28 "/>
<polyline clip-path="url(#clip650)" style="stroke:#ffffff; stroke-linecap:round; stroke-linejoin:round; stroke-width:4; stroke-opacity:1; fill:none" points="1080.31,1423.18 1080.31,1404.28 "/>
<polyline clip-path="url(#clip650)" style="stroke:#ffffff; stroke-linecap:round; stroke-linejoin:round; stroke-width:4; stroke-opacity:1; fill:none" points="1384.17,1423.18 1384.17,1404.28 "/>
<polyline clip-path="url(#clip650)" style="stroke:#ffffff; stroke-linecap:round; stroke-linejoin:round; stroke-width:4; stroke-opacity:1; fill:none" points="1688.04,1423.18 1688.04,1404.28 "/>
<polyline clip-path="url(#clip650)" style="stroke:#ffffff; stroke-linecap:round; stroke-linejoin:round; stroke-width:4; stroke-opacity:1; fill:none" points="1991.91,1423.18 1991.91,1404.28 "/>
<polyline clip-path="url(#clip650)" style="stroke:#ffffff; stroke-linecap:round; stroke-linejoin:round; stroke-width:4; stroke-opacity:1; fill:none" points="2295.78,1423.18 2295.78,1404.28 "/>
<path clip-path="url(#clip650)" d="M439.294 1466.95 Q442.651 1467.66 444.526 1469.93 Q446.424 1472.2 446.424 1475.53 Q446.424 1480.65 442.905 1483.45 Q439.387 1486.25 432.905 1486.25 Q430.729 1486.25 428.415 1485.81 Q426.123 1485.39 423.669 1484.54 L423.669 1480.02 Q425.614 1481.16 427.928 1481.74 Q430.243 1482.32 432.766 1482.32 Q437.164 1482.32 439.456 1480.58 Q441.771 1478.84 441.771 1475.53 Q441.771 1472.48 439.618 1470.77 Q437.489 1469.03 433.669 1469.03 L429.641 1469.03 L429.641 1465.19 L433.854 1465.19 Q437.303 1465.19 439.132 1463.82 Q440.961 1462.43 440.961 1459.84 Q440.961 1457.18 439.063 1455.77 Q437.188 1454.33 433.669 1454.33 Q431.748 1454.33 429.549 1454.75 Q427.35 1455.16 424.711 1456.04 L424.711 1451.88 Q427.373 1451.14 429.688 1450.77 Q432.026 1450.39 434.086 1450.39 Q439.41 1450.39 442.512 1452.83 Q445.614 1455.23 445.614 1459.35 Q445.614 1462.22 443.97 1464.21 Q442.326 1466.18 439.294 1466.95 Z" fill="#ffffff" fill-rule="evenodd" fill-opacity="1" /><path clip-path="url(#clip650)" d="M455.289 1479.7 L460.174 1479.7 L460.174 1485.58 L455.289 1485.58 L455.289 1479.7 Z" fill="#ffffff" fill-rule="evenodd" fill-opacity="1" /><path clip-path="url(#clip650)" d="M483.206 1455.09 L471.4 1473.54 L483.206 1473.54 L483.206 1455.09 M481.979 1451.02 L487.859 1451.02 L487.859 1473.54 L492.789 1473.54 L492.789 1477.43 L487.859 1477.43 L487.859 1485.58 L483.206 1485.58 L483.206 1477.43 L467.604 1477.43 L467.604 1472.92 L481.979 1451.02 Z" fill="#ffffff" fill-rule="evenodd" fill-opacity="1" /><path clip-path="url(#clip650)" d="M500.567 1451.02 L518.923 1451.02 L518.923 1454.96 L504.849 1454.96 L504.849 1463.43 Q505.868 1463.08 506.886 1462.92 Q507.905 1462.73 508.923 1462.73 Q514.71 1462.73 518.09 1465.9 Q521.47 1469.08 521.47 1474.49 Q521.47 1480.07 517.997 1483.17 Q514.525 1486.25 508.206 1486.25 Q506.03 1486.25 503.761 1485.88 Q501.516 1485.51 499.109 1484.77 L499.109 1480.07 Q501.192 1481.2 503.414 1481.76 Q505.636 1482.32 508.113 1482.32 Q512.118 1482.32 514.456 1480.21 Q516.794 1478.1 516.794 1474.49 Q516.794 1470.88 514.456 1468.77 Q512.118 1466.67 508.113 1466.67 Q506.238 1466.67 504.363 1467.08 Q502.511 1467.5 500.567 1468.38 L500.567 1451.02 Z" fill="#ffffff" fill-rule="evenodd" fill-opacity="1" /><path clip-path="url(#clip650)" d="M742.665 1466.95 Q746.021 1467.66 747.896 1469.93 Q749.795 1472.2 749.795 1475.53 Q749.795 1480.65 746.276 1483.45 Q742.758 1486.25 736.276 1486.25 Q734.1 1486.25 731.785 1485.81 Q729.494 1485.39 727.04 1484.54 L727.04 1480.02 Q728.984 1481.16 731.299 1481.74 Q733.614 1482.32 736.137 1482.32 Q740.535 1482.32 742.827 1480.58 Q745.142 1478.84 745.142 1475.53 Q745.142 1472.48 742.989 1470.77 Q740.859 1469.03 737.04 1469.03 L733.012 1469.03 L733.012 1465.19 L737.225 1465.19 Q740.674 1465.19 742.503 1463.82 Q744.332 1462.43 744.332 1459.84 Q744.332 1457.18 742.433 1455.77 Q740.558 1454.33 737.04 1454.33 Q735.119 1454.33 732.92 1454.75 Q730.721 1455.16 728.082 1456.04 L728.082 1451.88 Q730.744 1451.14 733.059 1450.77 Q735.396 1450.39 737.457 1450.39 Q742.781 1450.39 745.883 1452.83 Q748.984 1455.23 748.984 1459.35 Q748.984 1462.22 747.341 1464.21 Q745.697 1466.18 742.665 1466.95 Z" fill="#ffffff" fill-rule="evenodd" fill-opacity="1" /><path clip-path="url(#clip650)" d="M758.66 1479.7 L763.544 1479.7 L763.544 1485.58 L758.66 1485.58 L758.66 1479.7 Z" fill="#ffffff" fill-rule="evenodd" fill-opacity="1" /><path clip-path="url(#clip650)" d="M773.776 1451.02 L792.132 1451.02 L792.132 1454.96 L778.058 1454.96 L778.058 1463.43 Q779.077 1463.08 780.095 1462.92 Q781.114 1462.73 782.132 1462.73 Q787.919 1462.73 791.299 1465.9 Q794.679 1469.08 794.679 1474.49 Q794.679 1480.07 791.206 1483.17 Q787.734 1486.25 781.415 1486.25 Q779.239 1486.25 776.97 1485.88 Q774.725 1485.51 772.318 1484.77 L772.318 1480.07 Q774.401 1481.2 776.623 1481.76 Q778.845 1482.32 781.322 1482.32 Q785.327 1482.32 787.665 1480.21 Q790.003 1478.1 790.003 1474.49 Q790.003 1470.88 787.665 1468.77 Q785.327 1466.67 781.322 1466.67 Q779.447 1466.67 777.572 1467.08 Q775.72 1467.5 773.776 1468.38 L773.776 1451.02 Z" fill="#ffffff" fill-rule="evenodd" fill-opacity="1" /><path clip-path="url(#clip650)" d="M813.891 1454.1 Q810.28 1454.1 808.452 1457.66 Q806.646 1461.2 806.646 1468.33 Q806.646 1475.44 808.452 1479.01 Q810.28 1482.55 813.891 1482.55 Q817.526 1482.55 819.331 1479.01 Q821.16 1475.44 821.16 1468.33 Q821.16 1461.2 819.331 1457.66 Q817.526 1454.1 813.891 1454.1 M813.891 1450.39 Q819.702 1450.39 822.757 1455 Q825.836 1459.58 825.836 1468.33 Q825.836 1477.06 822.757 1481.67 Q819.702 1486.25 813.891 1486.25 Q808.081 1486.25 805.003 1481.67 Q801.947 1477.06 801.947 1468.33 Q801.947 1459.58 805.003 1455 Q808.081 1450.39 813.891 1450.39 Z" fill="#ffffff" fill-rule="evenodd" fill-opacity="1" /><path clip-path="url(#clip650)" d="M1047.03 1466.95 Q1050.39 1467.66 1052.26 1469.93 Q1054.16 1472.2 1054.16 1475.53 Q1054.16 1480.65 1050.64 1483.45 Q1047.12 1486.25 1040.64 1486.25 Q1038.47 1486.25 1036.15 1485.81 Q1033.86 1485.39 1031.41 1484.54 L1031.41 1480.02 Q1033.35 1481.16 1035.67 1481.74 Q1037.98 1482.32 1040.5 1482.32 Q1044.9 1482.32 1047.19 1480.58 Q1049.51 1478.84 1049.51 1475.53 Q1049.51 1472.48 1047.36 1470.77 Q1045.23 1469.03 1041.41 1469.03 L1037.38 1469.03 L1037.38 1465.19 L1041.59 1465.19 Q1045.04 1465.19 1046.87 1463.82 Q1048.7 1462.43 1048.7 1459.84 Q1048.7 1457.18 1046.8 1455.77 Q1044.92 1454.33 1041.41 1454.33 Q1039.48 1454.33 1037.29 1454.75 Q1035.09 1455.16 1032.45 1456.04 L1032.45 1451.88 Q1035.11 1451.14 1037.42 1450.77 Q1039.76 1450.39 1041.82 1450.39 Q1047.15 1450.39 1050.25 1452.83 Q1053.35 1455.23 1053.35 1459.35 Q1053.35 1462.22 1051.71 1464.21 Q1050.06 1466.18 1047.03 1466.95 Z" fill="#ffffff" fill-rule="evenodd" fill-opacity="1" /><path clip-path="url(#clip650)" d="M1063.03 1479.7 L1067.91 1479.7 L1067.91 1485.58 L1063.03 1485.58 L1063.03 1479.7 Z" fill="#ffffff" fill-rule="evenodd" fill-opacity="1" /><path clip-path="url(#clip650)" d="M1078.14 1451.02 L1096.5 1451.02 L1096.5 1454.96 L1082.42 1454.96 L1082.42 1463.43 Q1083.44 1463.08 1084.46 1462.92 Q1085.48 1462.73 1086.5 1462.73 Q1092.29 1462.73 1095.67 1465.9 Q1099.04 1469.08 1099.04 1474.49 Q1099.04 1480.07 1095.57 1483.17 Q1092.1 1486.25 1085.78 1486.25 Q1083.61 1486.25 1081.34 1485.88 Q1079.09 1485.51 1076.68 1484.77 L1076.68 1480.07 Q1078.77 1481.2 1080.99 1481.76 Q1083.21 1482.32 1085.69 1482.32 Q1089.69 1482.32 1092.03 1480.21 Q1094.37 1478.1 1094.37 1474.49 Q1094.37 1470.88 1092.03 1468.77 Q1089.69 1466.67 1085.69 1466.67 Q1083.81 1466.67 1081.94 1467.08 Q1080.09 1467.5 1078.14 1468.38 L1078.14 1451.02 Z" fill="#ffffff" fill-rule="evenodd" fill-opacity="1" /><path clip-path="url(#clip650)" d="M1108.3 1451.02 L1126.66 1451.02 L1126.66 1454.96 L1112.59 1454.96 L1112.59 1463.43 Q1113.6 1463.08 1114.62 1462.92 Q1115.64 1462.73 1116.66 1462.73 Q1122.45 1462.73 1125.83 1465.9 Q1129.21 1469.08 1129.21 1474.49 Q1129.21 1480.07 1125.73 1483.17 Q1122.26 1486.25 1115.94 1486.25 Q1113.77 1486.25 1111.5 1485.88 Q1109.25 1485.51 1106.85 1484.77 L1106.85 1480.07 Q1108.93 1481.2 1111.15 1481.76 Q1113.37 1482.32 1115.85 1482.32 Q1119.85 1482.32 1122.19 1480.21 Q1124.53 1478.1 1124.53 1474.49 Q1124.53 1470.88 1122.19 1468.77 Q1119.85 1466.67 1115.85 1466.67 Q1113.98 1466.67 1112.1 1467.08 Q1110.25 1467.5 1108.3 1468.38 L1108.3 1451.02 Z" fill="#ffffff" fill-rule="evenodd" fill-opacity="1" /><path clip-path="url(#clip650)" d="M1350.4 1466.95 Q1353.76 1467.66 1355.63 1469.93 Q1357.53 1472.2 1357.53 1475.53 Q1357.53 1480.65 1354.01 1483.45 Q1350.49 1486.25 1344.01 1486.25 Q1341.84 1486.25 1339.52 1485.81 Q1337.23 1485.39 1334.78 1484.54 L1334.78 1480.02 Q1336.72 1481.16 1339.04 1481.74 Q1341.35 1482.32 1343.87 1482.32 Q1348.27 1482.32 1350.56 1480.58 Q1352.88 1478.84 1352.88 1475.53 Q1352.88 1472.48 1350.73 1470.77 Q1348.6 1469.03 1344.78 1469.03 L1340.75 1469.03 L1340.75 1465.19 L1344.96 1465.19 Q1348.41 1465.19 1350.24 1463.82 Q1352.07 1462.43 1352.07 1459.84 Q1352.07 1457.18 1350.17 1455.77 Q1348.3 1454.33 1344.78 1454.33 Q1342.86 1454.33 1340.66 1454.75 Q1338.46 1455.16 1335.82 1456.04 L1335.82 1451.88 Q1338.48 1451.14 1340.8 1450.77 Q1343.13 1450.39 1345.19 1450.39 Q1350.52 1450.39 1353.62 1452.83 Q1356.72 1455.23 1356.72 1459.35 Q1356.72 1462.22 1355.08 1464.21 Q1353.43 1466.18 1350.4 1466.95 Z" fill="#ffffff" fill-rule="evenodd" fill-opacity="1" /><path clip-path="url(#clip650)" d="M1366.4 1479.7 L1371.28 1479.7 L1371.28 1485.58 L1366.4 1485.58 L1366.4 1479.7 Z" fill="#ffffff" fill-rule="evenodd" fill-opacity="1" /><path clip-path="url(#clip650)" d="M1392.05 1466.44 Q1388.9 1466.44 1387.05 1468.59 Q1385.22 1470.74 1385.22 1474.49 Q1385.22 1478.22 1387.05 1480.39 Q1388.9 1482.55 1392.05 1482.55 Q1395.19 1482.55 1397.02 1480.39 Q1398.87 1478.22 1398.87 1474.49 Q1398.87 1470.74 1397.02 1468.59 Q1395.19 1466.44 1392.05 1466.44 M1401.33 1451.78 L1401.33 1456.04 Q1399.57 1455.21 1397.76 1454.77 Q1395.98 1454.33 1394.22 1454.33 Q1389.59 1454.33 1387.14 1457.45 Q1384.71 1460.58 1384.36 1466.9 Q1385.73 1464.89 1387.79 1463.82 Q1389.85 1462.73 1392.32 1462.73 Q1397.53 1462.73 1400.54 1465.9 Q1403.57 1469.05 1403.57 1474.49 Q1403.57 1479.82 1400.42 1483.03 Q1397.28 1486.25 1392.05 1486.25 Q1386.05 1486.25 1382.88 1481.67 Q1379.71 1477.06 1379.71 1468.33 Q1379.71 1460.14 1383.6 1455.28 Q1387.49 1450.39 1394.04 1450.39 Q1395.8 1450.39 1397.58 1450.74 Q1399.38 1451.09 1401.33 1451.78 Z" fill="#ffffff" fill-rule="evenodd" fill-opacity="1" /><path clip-path="url(#clip650)" d="M1421.63 1454.1 Q1418.02 1454.1 1416.19 1457.66 Q1414.38 1461.2 1414.38 1468.33 Q1414.38 1475.44 1416.19 1479.01 Q1418.02 1482.55 1421.63 1482.55 Q1425.26 1482.55 1427.07 1479.01 Q1428.9 1475.44 1428.9 1468.33 Q1428.9 1461.2 1427.07 1457.66 Q1425.26 1454.1 1421.63 1454.1 M1421.63 1450.39 Q1427.44 1450.39 1430.49 1455 Q1433.57 1459.58 1433.57 1468.33 Q1433.57 1477.06 1430.49 1481.67 Q1427.44 1486.25 1421.63 1486.25 Q1415.82 1486.25 1412.74 1481.67 Q1409.68 1477.06 1409.68 1468.33 Q1409.68 1459.58 1412.74 1455 Q1415.82 1450.39 1421.63 1450.39 Z" fill="#ffffff" fill-rule="evenodd" fill-opacity="1" /><path clip-path="url(#clip650)" d="M1654.77 1466.95 Q1658.12 1467.66 1660 1469.93 Q1661.9 1472.2 1661.9 1475.53 Q1661.9 1480.65 1658.38 1483.45 Q1654.86 1486.25 1648.38 1486.25 Q1646.2 1486.25 1643.89 1485.81 Q1641.6 1485.39 1639.14 1484.54 L1639.14 1480.02 Q1641.09 1481.16 1643.4 1481.74 Q1645.72 1482.32 1648.24 1482.32 Q1652.64 1482.32 1654.93 1480.58 Q1657.25 1478.84 1657.25 1475.53 Q1657.25 1472.48 1655.09 1470.77 Q1652.96 1469.03 1649.14 1469.03 L1645.12 1469.03 L1645.12 1465.19 L1649.33 1465.19 Q1652.78 1465.19 1654.61 1463.82 Q1656.43 1462.43 1656.43 1459.84 Q1656.43 1457.18 1654.54 1455.77 Q1652.66 1454.33 1649.14 1454.33 Q1647.22 1454.33 1645.02 1454.75 Q1642.82 1455.16 1640.18 1456.04 L1640.18 1451.88 Q1642.85 1451.14 1645.16 1450.77 Q1647.5 1450.39 1649.56 1450.39 Q1654.88 1450.39 1657.99 1452.83 Q1661.09 1455.23 1661.09 1459.35 Q1661.09 1462.22 1659.44 1464.21 Q1657.8 1466.18 1654.77 1466.95 Z" fill="#ffffff" fill-rule="evenodd" fill-opacity="1" /><path clip-path="url(#clip650)" d="M1670.76 1479.7 L1675.65 1479.7 L1675.65 1485.58 L1670.76 1485.58 L1670.76 1479.7 Z" fill="#ffffff" fill-rule="evenodd" fill-opacity="1" /><path clip-path="url(#clip650)" d="M1696.41 1466.44 Q1693.26 1466.44 1691.41 1468.59 Q1689.58 1470.74 1689.58 1474.49 Q1689.58 1478.22 1691.41 1480.39 Q1693.26 1482.55 1696.41 1482.55 Q1699.56 1482.55 1701.39 1480.39 Q1703.24 1478.22 1703.24 1474.49 Q1703.24 1470.74 1701.39 1468.59 Q1699.56 1466.44 1696.41 1466.44 M1705.69 1451.78 L1705.69 1456.04 Q1703.93 1455.21 1702.13 1454.77 Q1700.35 1454.33 1698.59 1454.33 Q1693.96 1454.33 1691.5 1457.45 Q1689.07 1460.58 1688.73 1466.9 Q1690.09 1464.89 1692.15 1463.82 Q1694.21 1462.73 1696.69 1462.73 Q1701.9 1462.73 1704.91 1465.9 Q1707.94 1469.05 1707.94 1474.49 Q1707.94 1479.82 1704.79 1483.03 Q1701.64 1486.25 1696.41 1486.25 Q1690.42 1486.25 1687.24 1481.67 Q1684.07 1477.06 1684.07 1468.33 Q1684.07 1460.14 1687.96 1455.28 Q1691.85 1450.39 1698.4 1450.39 Q1700.16 1450.39 1701.94 1450.74 Q1703.75 1451.09 1705.69 1451.78 Z" fill="#ffffff" fill-rule="evenodd" fill-opacity="1" /><path clip-path="url(#clip650)" d="M1716.04 1451.02 L1734.4 1451.02 L1734.4 1454.96 L1720.32 1454.96 L1720.32 1463.43 Q1721.34 1463.08 1722.36 1462.92 Q1723.38 1462.73 1724.4 1462.73 Q1730.18 1462.73 1733.56 1465.9 Q1736.94 1469.08 1736.94 1474.49 Q1736.94 1480.07 1733.47 1483.17 Q1730 1486.25 1723.68 1486.25 Q1721.5 1486.25 1719.24 1485.88 Q1716.99 1485.51 1714.58 1484.77 L1714.58 1480.07 Q1716.67 1481.2 1718.89 1481.76 Q1721.11 1482.32 1723.59 1482.32 Q1727.59 1482.32 1729.93 1480.21 Q1732.27 1478.1 1732.27 1474.49 Q1732.27 1470.88 1729.93 1468.77 Q1727.59 1466.67 1723.59 1466.67 Q1721.71 1466.67 1719.84 1467.08 Q1717.99 1467.5 1716.04 1468.38 L1716.04 1451.02 Z" fill="#ffffff" fill-rule="evenodd" fill-opacity="1" /><path clip-path="url(#clip650)" d="M1958.14 1466.95 Q1961.5 1467.66 1963.37 1469.93 Q1965.27 1472.2 1965.27 1475.53 Q1965.27 1480.65 1961.75 1483.45 Q1958.23 1486.25 1951.75 1486.25 Q1949.57 1486.25 1947.26 1485.81 Q1944.97 1485.39 1942.51 1484.54 L1942.51 1480.02 Q1944.46 1481.16 1946.77 1481.74 Q1949.09 1482.32 1951.61 1482.32 Q1956.01 1482.32 1958.3 1480.58 Q1960.62 1478.84 1960.62 1475.53 Q1960.62 1472.48 1958.46 1470.77 Q1956.33 1469.03 1952.51 1469.03 L1948.49 1469.03 L1948.49 1465.19 L1952.7 1465.19 Q1956.15 1465.19 1957.98 1463.82 Q1959.81 1462.43 1959.81 1459.84 Q1959.81 1457.18 1957.91 1455.77 Q1956.03 1454.33 1952.51 1454.33 Q1950.59 1454.33 1948.39 1454.75 Q1946.19 1455.16 1943.56 1456.04 L1943.56 1451.88 Q1946.22 1451.14 1948.53 1450.77 Q1950.87 1450.39 1952.93 1450.39 Q1958.25 1450.39 1961.36 1452.83 Q1964.46 1455.23 1964.46 1459.35 Q1964.46 1462.22 1962.81 1464.21 Q1961.17 1466.18 1958.14 1466.95 Z" fill="#ffffff" fill-rule="evenodd" fill-opacity="1" /><path clip-path="url(#clip650)" d="M1974.13 1479.7 L1979.02 1479.7 L1979.02 1485.58 L1974.13 1485.58 L1974.13 1479.7 Z" fill="#ffffff" fill-rule="evenodd" fill-opacity="1" /><path clip-path="url(#clip650)" d="M1988.02 1451.02 L2010.25 1451.02 L2010.25 1453.01 L1997.7 1485.58 L1992.81 1485.58 L2004.62 1454.96 L1988.02 1454.96 L1988.02 1451.02 Z" fill="#ffffff" fill-rule="evenodd" fill-opacity="1" /><path clip-path="url(#clip650)" d="M2029.37 1454.1 Q2025.75 1454.1 2023.93 1457.66 Q2022.12 1461.2 2022.12 1468.33 Q2022.12 1475.44 2023.93 1479.01 Q2025.75 1482.55 2029.37 1482.55 Q2033 1482.55 2034.81 1479.01 Q2036.63 1475.44 2036.63 1468.33 Q2036.63 1461.2 2034.81 1457.66 Q2033 1454.1 2029.37 1454.1 M2029.37 1450.39 Q2035.18 1450.39 2038.23 1455 Q2041.31 1459.58 2041.31 1468.33 Q2041.31 1477.06 2038.23 1481.67 Q2035.18 1486.25 2029.37 1486.25 Q2023.56 1486.25 2020.48 1481.67 Q2017.42 1477.06 2017.42 1468.33 Q2017.42 1459.58 2020.48 1455 Q2023.56 1450.39 2029.37 1450.39 Z" fill="#ffffff" fill-rule="evenodd" fill-opacity="1" /><path clip-path="url(#clip650)" d="M2262.51 1466.95 Q2265.86 1467.66 2267.74 1469.93 Q2269.63 1472.2 2269.63 1475.53 Q2269.63 1480.65 2266.12 1483.45 Q2262.6 1486.25 2256.12 1486.25 Q2253.94 1486.25 2251.63 1485.81 Q2249.33 1485.39 2246.88 1484.54 L2246.88 1480.02 Q2248.82 1481.16 2251.14 1481.74 Q2253.45 1482.32 2255.98 1482.32 Q2260.38 1482.32 2262.67 1480.58 Q2264.98 1478.84 2264.98 1475.53 Q2264.98 1472.48 2262.83 1470.77 Q2260.7 1469.03 2256.88 1469.03 L2252.85 1469.03 L2252.85 1465.19 L2257.07 1465.19 Q2260.51 1465.19 2262.34 1463.82 Q2264.17 1462.43 2264.17 1459.84 Q2264.17 1457.18 2262.27 1455.77 Q2260.4 1454.33 2256.88 1454.33 Q2254.96 1454.33 2252.76 1454.75 Q2250.56 1455.16 2247.92 1456.04 L2247.92 1451.88 Q2250.58 1451.14 2252.9 1450.77 Q2255.24 1450.39 2257.3 1450.39 Q2262.62 1450.39 2265.72 1452.83 Q2268.82 1455.23 2268.82 1459.35 Q2268.82 1462.22 2267.18 1464.21 Q2265.54 1466.18 2262.51 1466.95 Z" fill="#ffffff" fill-rule="evenodd" fill-opacity="1" /><path clip-path="url(#clip650)" d="M2278.5 1479.7 L2283.38 1479.7 L2283.38 1485.58 L2278.5 1485.58 L2278.5 1479.7 Z" fill="#ffffff" fill-rule="evenodd" fill-opacity="1" /><path clip-path="url(#clip650)" d="M2292.39 1451.02 L2314.61 1451.02 L2314.61 1453.01 L2302.07 1485.58 L2297.18 1485.58 L2308.99 1454.96 L2292.39 1454.96 L2292.39 1451.02 Z" fill="#ffffff" fill-rule="evenodd" fill-opacity="1" /><path clip-path="url(#clip650)" d="M2323.78 1451.02 L2342.13 1451.02 L2342.13 1454.96 L2328.06 1454.96 L2328.06 1463.43 Q2329.08 1463.08 2330.1 1462.92 Q2331.12 1462.73 2332.13 1462.73 Q2337.92 1462.73 2341.3 1465.9 Q2344.68 1469.08 2344.68 1474.49 Q2344.68 1480.07 2341.21 1483.17 Q2337.74 1486.25 2331.42 1486.25 Q2329.24 1486.25 2326.97 1485.88 Q2324.73 1485.51 2322.32 1484.77 L2322.32 1480.07 Q2324.4 1481.2 2326.63 1481.76 Q2328.85 1482.32 2331.32 1482.32 Q2335.33 1482.32 2337.67 1480.21 Q2340 1478.1 2340 1474.49 Q2340 1470.88 2337.67 1468.77 Q2335.33 1466.67 2331.32 1466.67 Q2329.45 1466.67 2327.57 1467.08 Q2325.72 1467.5 2323.78 1468.38 L2323.78 1451.02 Z" fill="#ffffff" fill-rule="evenodd" fill-opacity="1" /><path clip-path="url(#clip650)" d="M1184.61 1520.52 L1224.81 1520.52 L1224.81 1525.93 L1207.94 1525.93 L1207.94 1568.04 L1201.48 1568.04 L1201.48 1525.93 L1184.61 1525.93 L1184.61 1520.52 Z" fill="#ffffff" fill-rule="evenodd" fill-opacity="1" /><path clip-path="url(#clip650)" d="M1228.76 1532.4 L1234.62 1532.4 L1234.62 1568.04 L1228.76 1568.04 L1228.76 1532.4 M1228.76 1518.52 L1234.62 1518.52 L1234.62 1525.93 L1228.76 1525.93 L1228.76 1518.52 Z" fill="#ffffff" fill-rule="evenodd" fill-opacity="1" /><path clip-path="url(#clip650)" d="M1274.62 1539.24 Q1276.82 1535.29 1279.88 1533.41 Q1282.93 1531.54 1287.07 1531.54 Q1292.64 1531.54 1295.66 1535.45 Q1298.69 1539.33 1298.69 1546.53 L1298.69 1568.04 L1292.8 1568.04 L1292.8 1546.72 Q1292.8 1541.59 1290.98 1539.11 Q1289.17 1536.63 1285.45 1536.63 Q1280.9 1536.63 1278.25 1539.65 Q1275.61 1542.68 1275.61 1547.9 L1275.61 1568.04 L1269.72 1568.04 L1269.72 1546.72 Q1269.72 1541.56 1267.91 1539.11 Q1266.09 1536.63 1262.31 1536.63 Q1257.82 1536.63 1255.18 1539.68 Q1252.54 1542.71 1252.54 1547.9 L1252.54 1568.04 L1246.65 1568.04 L1246.65 1532.4 L1252.54 1532.4 L1252.54 1537.93 Q1254.54 1534.66 1257.34 1533.1 Q1260.14 1531.54 1263.99 1531.54 Q1267.88 1531.54 1270.58 1533.51 Q1273.32 1535.48 1274.62 1539.24 Z" fill="#ffffff" fill-rule="evenodd" fill-opacity="1" /><path clip-path="url(#clip650)" d="M1340.86 1548.76 L1340.86 1551.62 L1313.93 1551.62 Q1314.32 1557.67 1317.56 1560.85 Q1320.84 1564 1326.66 1564 Q1330.04 1564 1333.19 1563.17 Q1336.37 1562.35 1339.49 1560.69 L1339.49 1566.23 Q1336.34 1567.57 1333.03 1568.27 Q1329.72 1568.97 1326.31 1568.97 Q1317.78 1568.97 1312.79 1564 Q1307.82 1559.04 1307.82 1550.57 Q1307.82 1541.82 1312.53 1536.69 Q1317.28 1531.54 1325.3 1531.54 Q1332.49 1531.54 1336.66 1536.18 Q1340.86 1540.8 1340.86 1548.76 M1335 1547.04 Q1334.94 1542.23 1332.3 1539.37 Q1329.69 1536.5 1325.36 1536.5 Q1320.46 1536.5 1317.5 1539.27 Q1314.57 1542.04 1314.12 1547.07 L1335 1547.04 Z" fill="#ffffff" fill-rule="evenodd" fill-opacity="1" /><path clip-path="url(#clip650)" d="M1370.65 1518.52 L1384.15 1518.52 L1384.15 1523.07 L1376.51 1523.07 L1376.51 1572.09 L1384.15 1572.09 L1384.15 1576.64 L1370.65 1576.64 L1370.65 1518.52 Z" fill="#ffffff" fill-rule="evenodd" fill-opacity="1" /><path clip-path="url(#clip650)" d="M1424.38 1539.24 Q1426.57 1535.29 1429.63 1533.41 Q1432.69 1531.54 1436.82 1531.54 Q1442.39 1531.54 1445.42 1535.45 Q1448.44 1539.33 1448.44 1546.53 L1448.44 1568.04 L1442.55 1568.04 L1442.55 1546.72 Q1442.55 1541.59 1440.74 1539.11 Q1438.92 1536.63 1435.2 1536.63 Q1430.65 1536.63 1428.01 1539.65 Q1425.36 1542.68 1425.36 1547.9 L1425.36 1568.04 L1419.48 1568.04 L1419.48 1546.72 Q1419.48 1541.56 1417.66 1539.11 Q1415.85 1536.63 1412.06 1536.63 Q1407.57 1536.63 1404.93 1539.68 Q1402.29 1542.71 1402.29 1547.9 L1402.29 1568.04 L1396.4 1568.04 L1396.4 1532.4 L1402.29 1532.4 L1402.29 1537.93 Q1404.29 1534.66 1407.1 1533.1 Q1409.9 1531.54 1413.75 1531.54 Q1417.63 1531.54 1420.34 1533.51 Q1423.07 1535.48 1424.38 1539.24 Z" fill="#ffffff" fill-rule="evenodd" fill-opacity="1" /><path clip-path="url(#clip650)" d="M1482.85 1533.45 L1482.85 1538.98 Q1480.36 1537.71 1477.69 1537.07 Q1475.02 1536.44 1472.15 1536.44 Q1467.79 1536.44 1465.6 1537.77 Q1463.43 1539.11 1463.43 1541.79 Q1463.43 1543.82 1464.99 1545 Q1466.55 1546.15 1471.26 1547.2 L1473.27 1547.64 Q1479.51 1548.98 1482.12 1551.43 Q1484.76 1553.85 1484.76 1558.21 Q1484.76 1563.17 1480.81 1566.07 Q1476.9 1568.97 1470.02 1568.97 Q1467.16 1568.97 1464.04 1568.39 Q1460.95 1567.85 1457.51 1566.74 L1457.51 1560.69 Q1460.76 1562.38 1463.91 1563.24 Q1467.06 1564.07 1470.15 1564.07 Q1474.29 1564.07 1476.51 1562.66 Q1478.74 1561.23 1478.74 1558.65 Q1478.74 1556.27 1477.12 1554.99 Q1475.53 1553.72 1470.08 1552.54 L1468.05 1552.07 Q1462.6 1550.92 1460.19 1548.56 Q1457.77 1546.18 1457.77 1542.04 Q1457.77 1537.01 1461.33 1534.27 Q1464.9 1531.54 1471.45 1531.54 Q1474.7 1531.54 1477.56 1532.01 Q1480.43 1532.49 1482.85 1533.45 Z" fill="#ffffff" fill-rule="evenodd" fill-opacity="1" /><path clip-path="url(#clip650)" d="M1507.77 1518.52 L1507.77 1576.64 L1494.27 1576.64 L1494.27 1572.09 L1501.88 1572.09 L1501.88 1523.07 L1494.27 1523.07 L1494.27 1518.52 L1507.77 1518.52 Z" fill="#ffffff" fill-rule="evenodd" fill-opacity="1" /><polyline clip-path="url(#clip652)" style="stroke:#ffffff; stroke-linecap:round; stroke-linejoin:round; stroke-width:2; stroke-opacity:0.1; fill:none" points="339.627,1386.4 2352.76,1386.4 "/>
<polyline clip-path="url(#clip652)" style="stroke:#ffffff; stroke-linecap:round; stroke-linejoin:round; stroke-width:2; stroke-opacity:0.1; fill:none" points="339.627,1199.1 2352.76,1199.1 "/>
<polyline clip-path="url(#clip652)" style="stroke:#ffffff; stroke-linecap:round; stroke-linejoin:round; stroke-width:2; stroke-opacity:0.1; fill:none" points="339.627,1011.81 2352.76,1011.81 "/>
<polyline clip-path="url(#clip652)" style="stroke:#ffffff; stroke-linecap:round; stroke-linejoin:round; stroke-width:2; stroke-opacity:0.1; fill:none" points="339.627,824.519 2352.76,824.519 "/>
<polyline clip-path="url(#clip652)" style="stroke:#ffffff; stroke-linecap:round; stroke-linejoin:round; stroke-width:2; stroke-opacity:0.1; fill:none" points="339.627,637.227 2352.76,637.227 "/>
<polyline clip-path="url(#clip652)" style="stroke:#ffffff; stroke-linecap:round; stroke-linejoin:round; stroke-width:2; stroke-opacity:0.1; fill:none" points="339.627,449.935 2352.76,449.935 "/>
<polyline clip-path="url(#clip652)" style="stroke:#ffffff; stroke-linecap:round; stroke-linejoin:round; stroke-width:2; stroke-opacity:0.1; fill:none" points="339.627,262.642 2352.76,262.642 "/>
<polyline clip-path="url(#clip650)" style="stroke:#ffffff; stroke-linecap:round; stroke-linejoin:round; stroke-width:4; stroke-opacity:1; fill:none" points="339.627,1423.18 339.627,123.472 "/>
<polyline clip-path="url(#clip650)" style="stroke:#ffffff; stroke-linecap:round; stroke-linejoin:round; stroke-width:4; stroke-opacity:1; fill:none" points="339.627,1386.4 358.525,1386.4 "/>
<polyline clip-path="url(#clip650)" style="stroke:#ffffff; stroke-linecap:round; stroke-linejoin:round; stroke-width:4; stroke-opacity:1; fill:none" points="339.627,1199.1 358.525,1199.1 "/>
<polyline clip-path="url(#clip650)" style="stroke:#ffffff; stroke-linecap:round; stroke-linejoin:round; stroke-width:4; stroke-opacity:1; fill:none" points="339.627,1011.81 358.525,1011.81 "/>
<polyline clip-path="url(#clip650)" style="stroke:#ffffff; stroke-linecap:round; stroke-linejoin:round; stroke-width:4; stroke-opacity:1; fill:none" points="339.627,824.519 358.525,824.519 "/>
<polyline clip-path="url(#clip650)" style="stroke:#ffffff; stroke-linecap:round; stroke-linejoin:round; stroke-width:4; stroke-opacity:1; fill:none" points="339.627,637.227 358.525,637.227 "/>
<polyline clip-path="url(#clip650)" style="stroke:#ffffff; stroke-linecap:round; stroke-linejoin:round; stroke-width:4; stroke-opacity:1; fill:none" points="339.627,449.935 358.525,449.935 "/>
<polyline clip-path="url(#clip650)" style="stroke:#ffffff; stroke-linecap:round; stroke-linejoin:round; stroke-width:4; stroke-opacity:1; fill:none" points="339.627,262.642 358.525,262.642 "/>
<path clip-path="url(#clip650)" d="M291.683 1372.19 Q288.071 1372.19 286.243 1375.76 Q284.437 1379.3 284.437 1386.43 Q284.437 1393.54 286.243 1397.1 Q288.071 1400.64 291.683 1400.64 Q295.317 1400.64 297.122 1397.1 Q298.951 1393.54 298.951 1386.43 Q298.951 1379.3 297.122 1375.76 Q295.317 1372.19 291.683 1372.19 M291.683 1368.49 Q297.493 1368.49 300.548 1373.1 Q303.627 1377.68 303.627 1386.43 Q303.627 1395.16 300.548 1399.76 Q297.493 1404.35 291.683 1404.35 Q285.872 1404.35 282.794 1399.76 Q279.738 1395.16 279.738 1386.43 Q279.738 1377.68 282.794 1373.1 Q285.872 1368.49 291.683 1368.49 Z" fill="#ffffff" fill-rule="evenodd" fill-opacity="1" /><path clip-path="url(#clip650)" d="M117.825 1218.9 L125.464 1218.9 L125.464 1192.53 L117.154 1194.2 L117.154 1189.94 L125.418 1188.27 L130.093 1188.27 L130.093 1218.9 L137.732 1218.9 L137.732 1222.83 L117.825 1222.83 L117.825 1218.9 Z" fill="#ffffff" fill-rule="evenodd" fill-opacity="1" /><path clip-path="url(#clip650)" d="M147.177 1216.95 L152.061 1216.95 L152.061 1222.83 L147.177 1222.83 L147.177 1216.95 Z" fill="#ffffff" fill-rule="evenodd" fill-opacity="1" /><path clip-path="url(#clip650)" d="M172.246 1191.35 Q168.635 1191.35 166.806 1194.91 Q165.001 1198.46 165.001 1205.59 Q165.001 1212.69 166.806 1216.26 Q168.635 1219.8 172.246 1219.8 Q175.88 1219.8 177.686 1216.26 Q179.514 1212.69 179.514 1205.59 Q179.514 1198.46 177.686 1194.91 Q175.88 1191.35 172.246 1191.35 M172.246 1187.65 Q178.056 1187.65 181.112 1192.25 Q184.19 1196.84 184.19 1205.59 Q184.19 1214.31 181.112 1218.92 Q178.056 1223.5 172.246 1223.5 Q166.436 1223.5 163.357 1218.92 Q160.302 1214.31 160.302 1205.59 Q160.302 1196.84 163.357 1192.25 Q166.436 1187.65 172.246 1187.65 Z" fill="#ffffff" fill-rule="evenodd" fill-opacity="1" /><path clip-path="url(#clip650)" d="M220.579 1197.37 L210 1207.99 L220.579 1218.57 L217.824 1221.37 L207.199 1210.75 L196.575 1221.37 L193.843 1218.57 L204.399 1207.99 L193.843 1197.37 L196.575 1194.57 L207.199 1205.19 L217.824 1194.57 L220.579 1197.37 Z" fill="#ffffff" fill-rule="evenodd" fill-opacity="1" /><path clip-path="url(#clip650)" d="M232.94 1218.9 L240.579 1218.9 L240.579 1192.53 L232.269 1194.2 L232.269 1189.94 L240.533 1188.27 L245.209 1188.27 L245.209 1218.9 L252.847 1218.9 L252.847 1222.83 L232.94 1222.83 L232.94 1218.9 Z" fill="#ffffff" fill-rule="evenodd" fill-opacity="1" /><path clip-path="url(#clip650)" d="M272.292 1191.35 Q268.681 1191.35 266.852 1194.91 Q265.046 1198.46 265.046 1205.59 Q265.046 1212.69 266.852 1216.26 Q268.681 1219.8 272.292 1219.8 Q275.926 1219.8 277.732 1216.26 Q279.56 1212.69 279.56 1205.59 Q279.56 1198.46 277.732 1194.91 Q275.926 1191.35 272.292 1191.35 M272.292 1187.65 Q278.102 1187.65 281.157 1192.25 Q284.236 1196.84 284.236 1205.59 Q284.236 1214.31 281.157 1218.92 Q278.102 1223.5 272.292 1223.5 Q266.482 1223.5 263.403 1218.92 Q260.347 1214.31 260.347 1205.59 Q260.347 1196.84 263.403 1192.25 Q266.482 1187.65 272.292 1187.65 Z" fill="#ffffff" fill-rule="evenodd" fill-opacity="1" /><path clip-path="url(#clip650)" d="M294.261 1179.87 Q291.703 1179.87 290.198 1181.62 Q288.712 1183.36 288.712 1186.41 Q288.712 1189.44 290.198 1191.21 Q291.703 1192.96 294.261 1192.96 Q296.818 1192.96 298.304 1191.21 Q299.809 1189.44 299.809 1186.41 Q299.809 1183.36 298.304 1181.62 Q296.818 1179.87 294.261 1179.87 M301.803 1167.96 L301.803 1171.42 Q300.373 1170.74 298.906 1170.39 Q297.458 1170.03 296.029 1170.03 Q292.267 1170.03 290.273 1172.57 Q288.299 1175.11 288.016 1180.24 Q289.126 1178.61 290.8 1177.74 Q292.474 1176.86 294.486 1176.86 Q298.718 1176.86 301.163 1179.43 Q303.627 1181.99 303.627 1186.41 Q303.627 1190.74 301.069 1193.35 Q298.511 1195.97 294.261 1195.97 Q289.389 1195.97 286.813 1192.24 Q284.236 1188.5 284.236 1181.41 Q284.236 1174.75 287.396 1170.8 Q290.556 1166.83 295.878 1166.83 Q297.307 1166.83 298.756 1167.11 Q300.223 1167.4 301.803 1167.96 Z" fill="#ffffff" fill-rule="evenodd" fill-opacity="1" /><path clip-path="url(#clip650)" d="M121.043 1031.6 L137.362 1031.6 L137.362 1035.54 L115.418 1035.54 L115.418 1031.6 Q118.08 1028.85 122.663 1024.22 Q127.269 1019.57 128.45 1018.22 Q130.695 1015.7 131.575 1013.96 Q132.478 1012.21 132.478 1010.52 Q132.478 1007.76 130.533 1006.03 Q128.612 1004.29 125.51 1004.29 Q123.311 1004.29 120.857 1005.05 Q118.427 1005.82 115.649 1007.37 L115.649 1002.65 Q118.473 1001.51 120.927 1000.93 Q123.38 1000.35 125.418 1000.35 Q130.788 1000.35 133.982 1003.04 Q137.177 1005.72 137.177 1010.21 Q137.177 1012.34 136.367 1014.27 Q135.579 1016.16 133.473 1018.76 Q132.894 1019.43 129.792 1022.65 Q126.691 1025.84 121.043 1031.6 Z" fill="#ffffff" fill-rule="evenodd" fill-opacity="1" /><path clip-path="url(#clip650)" d="M147.177 1029.66 L152.061 1029.66 L152.061 1035.54 L147.177 1035.54 L147.177 1029.66 Z" fill="#ffffff" fill-rule="evenodd" fill-opacity="1" /><path clip-path="url(#clip650)" d="M172.246 1004.06 Q168.635 1004.06 166.806 1007.62 Q165.001 1011.16 165.001 1018.29 Q165.001 1025.4 166.806 1028.96 Q168.635 1032.51 172.246 1032.51 Q175.88 1032.51 177.686 1028.96 Q179.514 1025.4 179.514 1018.29 Q179.514 1011.16 177.686 1007.62 Q175.88 1004.06 172.246 1004.06 M172.246 1000.35 Q178.056 1000.35 181.112 1004.96 Q184.19 1009.54 184.19 1018.29 Q184.19 1027.02 181.112 1031.63 Q178.056 1036.21 172.246 1036.21 Q166.436 1036.21 163.357 1031.63 Q160.302 1027.02 160.302 1018.29 Q160.302 1009.54 163.357 1004.96 Q166.436 1000.35 172.246 1000.35 Z" fill="#ffffff" fill-rule="evenodd" fill-opacity="1" /><path clip-path="url(#clip650)" d="M220.579 1010.08 L210 1020.7 L220.579 1031.28 L217.824 1034.08 L207.199 1023.46 L196.575 1034.08 L193.843 1031.28 L204.399 1020.7 L193.843 1010.08 L196.575 1007.28 L207.199 1017.9 L217.824 1007.28 L220.579 1010.08 Z" fill="#ffffff" fill-rule="evenodd" fill-opacity="1" /><path clip-path="url(#clip650)" d="M232.94 1031.6 L240.579 1031.6 L240.579 1005.24 L232.269 1006.9 L232.269 1002.65 L240.533 1000.98 L245.209 1000.98 L245.209 1031.6 L252.847 1031.6 L252.847 1035.54 L232.94 1035.54 L232.94 1031.6 Z" fill="#ffffff" fill-rule="evenodd" fill-opacity="1" /><path clip-path="url(#clip650)" d="M272.292 1004.06 Q268.681 1004.06 266.852 1007.62 Q265.046 1011.16 265.046 1018.29 Q265.046 1025.4 266.852 1028.96 Q268.681 1032.51 272.292 1032.51 Q275.926 1032.51 277.732 1028.96 Q279.56 1025.4 279.56 1018.29 Q279.56 1011.16 277.732 1007.62 Q275.926 1004.06 272.292 1004.06 M272.292 1000.35 Q278.102 1000.35 281.157 1004.96 Q284.236 1009.54 284.236 1018.29 Q284.236 1027.02 281.157 1031.63 Q278.102 1036.21 272.292 1036.21 Q266.482 1036.21 263.403 1031.63 Q260.347 1027.02 260.347 1018.29 Q260.347 1009.54 263.403 1004.96 Q266.482 1000.35 272.292 1000.35 Z" fill="#ffffff" fill-rule="evenodd" fill-opacity="1" /><path clip-path="url(#clip650)" d="M294.261 992.574 Q291.703 992.574 290.198 994.324 Q288.712 996.073 288.712 999.12 Q288.712 1002.15 290.198 1003.92 Q291.703 1005.66 294.261 1005.66 Q296.818 1005.66 298.304 1003.92 Q299.809 1002.15 299.809 999.12 Q299.809 996.073 298.304 994.324 Q296.818 992.574 294.261 992.574 M301.803 980.669 L301.803 984.13 Q300.373 983.453 298.906 983.095 Q297.458 982.738 296.029 982.738 Q292.267 982.738 290.273 985.277 Q288.299 987.816 288.016 992.951 Q289.126 991.314 290.8 990.449 Q292.474 989.565 294.486 989.565 Q298.718 989.565 301.163 992.142 Q303.627 994.7 303.627 999.12 Q303.627 1003.45 301.069 1006.06 Q298.511 1008.67 294.261 1008.67 Q289.389 1008.67 286.813 1004.95 Q284.236 1001.21 284.236 994.117 Q284.236 987.459 287.396 983.509 Q290.556 979.541 295.878 979.541 Q297.307 979.541 298.756 979.823 Q300.223 980.105 301.803 980.669 Z" fill="#ffffff" fill-rule="evenodd" fill-opacity="1" /><path clip-path="url(#clip650)" d="M131.181 829.613 Q134.538 830.33 136.413 832.599 Q138.311 834.867 138.311 838.2 Q138.311 843.316 134.792 846.117 Q131.274 848.918 124.793 848.918 Q122.617 848.918 120.302 848.478 Q118.01 848.061 115.556 847.205 L115.556 842.691 Q117.501 843.825 119.816 844.404 Q122.13 844.983 124.654 844.983 Q129.052 844.983 131.343 843.247 Q133.658 841.511 133.658 838.2 Q133.658 835.145 131.505 833.432 Q129.376 831.696 125.556 831.696 L121.529 831.696 L121.529 827.853 L125.742 827.853 Q129.191 827.853 131.019 826.488 Q132.848 825.099 132.848 822.506 Q132.848 819.844 130.95 818.432 Q129.075 816.997 125.556 816.997 Q123.635 816.997 121.436 817.414 Q119.237 817.83 116.598 818.71 L116.598 814.543 Q119.26 813.802 121.575 813.432 Q123.913 813.062 125.973 813.062 Q131.297 813.062 134.399 815.492 Q137.501 817.9 137.501 822.02 Q137.501 824.89 135.857 826.881 Q134.214 828.849 131.181 829.613 Z" fill="#ffffff" fill-rule="evenodd" fill-opacity="1" /><path clip-path="url(#clip650)" d="M147.177 842.367 L152.061 842.367 L152.061 848.247 L147.177 848.247 L147.177 842.367 Z" fill="#ffffff" fill-rule="evenodd" fill-opacity="1" /><path clip-path="url(#clip650)" d="M172.246 816.765 Q168.635 816.765 166.806 820.33 Q165.001 823.872 165.001 831.001 Q165.001 838.108 166.806 841.673 Q168.635 845.214 172.246 845.214 Q175.88 845.214 177.686 841.673 Q179.514 838.108 179.514 831.001 Q179.514 823.872 177.686 820.33 Q175.88 816.765 172.246 816.765 M172.246 813.062 Q178.056 813.062 181.112 817.668 Q184.19 822.251 184.19 831.001 Q184.19 839.728 181.112 844.335 Q178.056 848.918 172.246 848.918 Q166.436 848.918 163.357 844.335 Q160.302 839.728 160.302 831.001 Q160.302 822.251 163.357 817.668 Q166.436 813.062 172.246 813.062 Z" fill="#ffffff" fill-rule="evenodd" fill-opacity="1" /><path clip-path="url(#clip650)" d="M220.579 822.784 L210 833.409 L220.579 843.987 L217.824 846.788 L207.199 836.163 L196.575 846.788 L193.843 843.987 L204.399 833.409 L193.843 822.784 L196.575 819.983 L207.199 830.608 L217.824 819.983 L220.579 822.784 Z" fill="#ffffff" fill-rule="evenodd" fill-opacity="1" /><path clip-path="url(#clip650)" d="M232.94 844.312 L240.579 844.312 L240.579 817.946 L232.269 819.613 L232.269 815.353 L240.533 813.687 L245.209 813.687 L245.209 844.312 L252.847 844.312 L252.847 848.247 L232.94 848.247 L232.94 844.312 Z" fill="#ffffff" fill-rule="evenodd" fill-opacity="1" /><path clip-path="url(#clip650)" d="M272.292 816.765 Q268.681 816.765 266.852 820.33 Q265.046 823.872 265.046 831.001 Q265.046 838.108 266.852 841.673 Q268.681 845.214 272.292 845.214 Q275.926 845.214 277.732 841.673 Q279.56 838.108 279.56 831.001 Q279.56 823.872 277.732 820.33 Q275.926 816.765 272.292 816.765 M272.292 813.062 Q278.102 813.062 281.157 817.668 Q284.236 822.251 284.236 831.001 Q284.236 839.728 281.157 844.335 Q278.102 848.918 272.292 848.918 Q266.482 848.918 263.403 844.335 Q260.347 839.728 260.347 831.001 Q260.347 822.251 263.403 817.668 Q266.482 813.062 272.292 813.062 Z" fill="#ffffff" fill-rule="evenodd" fill-opacity="1" /><path clip-path="url(#clip650)" d="M294.261 805.282 Q291.703 805.282 290.198 807.031 Q288.712 808.78 288.712 811.827 Q288.712 814.855 290.198 816.623 Q291.703 818.372 294.261 818.372 Q296.818 818.372 298.304 816.623 Q299.809 814.855 299.809 811.827 Q299.809 808.78 298.304 807.031 Q296.818 805.282 294.261 805.282 M301.803 793.377 L301.803 796.838 Q300.373 796.16 298.906 795.803 Q297.458 795.446 296.029 795.446 Q292.267 795.446 290.273 797.985 Q288.299 800.524 288.016 805.658 Q289.126 804.022 290.8 803.157 Q292.474 802.273 294.486 802.273 Q298.718 802.273 301.163 804.85 Q303.627 807.408 303.627 811.827 Q303.627 816.153 301.069 818.767 Q298.511 821.382 294.261 821.382 Q289.389 821.382 286.813 817.658 Q284.236 813.915 284.236 806.824 Q284.236 800.167 287.396 796.217 Q290.556 792.248 295.878 792.248 Q297.307 792.248 298.756 792.531 Q300.223 792.813 301.803 793.377 Z" fill="#ffffff" fill-rule="evenodd" fill-opacity="1" /><path clip-path="url(#clip650)" d="M129.862 630.469 L118.056 648.918 L129.862 648.918 L129.862 630.469 M128.635 626.394 L134.515 626.394 L134.515 648.918 L139.445 648.918 L139.445 652.806 L134.515 652.806 L134.515 660.954 L129.862 660.954 L129.862 652.806 L114.26 652.806 L114.26 648.293 L128.635 626.394 Z" fill="#ffffff" fill-rule="evenodd" fill-opacity="1" /><path clip-path="url(#clip650)" d="M147.177 655.075 L152.061 655.075 L152.061 660.954 L147.177 660.954 L147.177 655.075 Z" fill="#ffffff" fill-rule="evenodd" fill-opacity="1" /><path clip-path="url(#clip650)" d="M172.246 629.473 Q168.635 629.473 166.806 633.038 Q165.001 636.58 165.001 643.709 Q165.001 650.816 166.806 654.38 Q168.635 657.922 172.246 657.922 Q175.88 657.922 177.686 654.38 Q179.514 650.816 179.514 643.709 Q179.514 636.58 177.686 633.038 Q175.88 629.473 172.246 629.473 M172.246 625.769 Q178.056 625.769 181.112 630.376 Q184.19 634.959 184.19 643.709 Q184.19 652.436 181.112 657.042 Q178.056 661.626 172.246 661.626 Q166.436 661.626 163.357 657.042 Q160.302 652.436 160.302 643.709 Q160.302 634.959 163.357 630.376 Q166.436 625.769 172.246 625.769 Z" fill="#ffffff" fill-rule="evenodd" fill-opacity="1" /><path clip-path="url(#clip650)" d="M220.579 635.492 L210 646.117 L220.579 656.695 L217.824 659.496 L207.199 648.871 L196.575 659.496 L193.843 656.695 L204.399 646.117 L193.843 635.492 L196.575 632.691 L207.199 643.316 L217.824 632.691 L220.579 635.492 Z" fill="#ffffff" fill-rule="evenodd" fill-opacity="1" /><path clip-path="url(#clip650)" d="M232.94 657.019 L240.579 657.019 L240.579 630.654 L232.269 632.32 L232.269 628.061 L240.533 626.394 L245.209 626.394 L245.209 657.019 L252.847 657.019 L252.847 660.954 L232.94 660.954 L232.94 657.019 Z" fill="#ffffff" fill-rule="evenodd" fill-opacity="1" /><path clip-path="url(#clip650)" d="M272.292 629.473 Q268.681 629.473 266.852 633.038 Q265.046 636.58 265.046 643.709 Q265.046 650.816 266.852 654.38 Q268.681 657.922 272.292 657.922 Q275.926 657.922 277.732 654.38 Q279.56 650.816 279.56 643.709 Q279.56 636.58 277.732 633.038 Q275.926 629.473 272.292 629.473 M272.292 625.769 Q278.102 625.769 281.157 630.376 Q284.236 634.959 284.236 643.709 Q284.236 652.436 281.157 657.042 Q278.102 661.626 272.292 661.626 Q266.482 661.626 263.403 657.042 Q260.347 652.436 260.347 643.709 Q260.347 634.959 263.403 630.376 Q266.482 625.769 272.292 625.769 Z" fill="#ffffff" fill-rule="evenodd" fill-opacity="1" /><path clip-path="url(#clip650)" d="M294.261 617.99 Q291.703 617.99 290.198 619.739 Q288.712 621.488 288.712 624.535 Q288.712 627.563 290.198 629.331 Q291.703 631.08 294.261 631.08 Q296.818 631.08 298.304 629.331 Q299.809 627.563 299.809 624.535 Q299.809 621.488 298.304 619.739 Q296.818 617.99 294.261 617.99 M301.803 606.085 L301.803 609.545 Q300.373 608.868 298.906 608.511 Q297.458 608.154 296.029 608.154 Q292.267 608.154 290.273 610.693 Q288.299 613.232 288.016 618.366 Q289.126 616.73 290.8 615.865 Q292.474 614.981 294.486 614.981 Q298.718 614.981 301.163 617.557 Q303.627 620.115 303.627 624.535 Q303.627 628.861 301.069 631.475 Q298.511 634.09 294.261 634.09 Q289.389 634.09 286.813 630.366 Q284.236 626.623 284.236 619.532 Q284.236 612.874 287.396 608.925 Q290.556 604.956 295.878 604.956 Q297.307 604.956 298.756 605.238 Q300.223 605.521 301.803 606.085 Z" fill="#ffffff" fill-rule="evenodd" fill-opacity="1" /><path clip-path="url(#clip650)" d="M117.061 439.102 L135.417 439.102 L135.417 443.037 L121.343 443.037 L121.343 451.51 Q122.362 451.162 123.38 451 Q124.399 450.815 125.418 450.815 Q131.205 450.815 134.584 453.986 Q137.964 457.158 137.964 462.574 Q137.964 468.153 134.492 471.255 Q131.019 474.334 124.7 474.334 Q122.524 474.334 120.255 473.963 Q118.01 473.593 115.603 472.852 L115.603 468.153 Q117.686 469.287 119.908 469.843 Q122.13 470.398 124.607 470.398 Q128.612 470.398 130.95 468.292 Q133.288 466.185 133.288 462.574 Q133.288 458.963 130.95 456.857 Q128.612 454.75 124.607 454.75 Q122.732 454.75 120.857 455.167 Q119.006 455.584 117.061 456.463 L117.061 439.102 Z" fill="#ffffff" fill-rule="evenodd" fill-opacity="1" /><path clip-path="url(#clip650)" d="M147.177 467.783 L152.061 467.783 L152.061 473.662 L147.177 473.662 L147.177 467.783 Z" fill="#ffffff" fill-rule="evenodd" fill-opacity="1" /><path clip-path="url(#clip650)" d="M172.246 442.181 Q168.635 442.181 166.806 445.746 Q165.001 449.287 165.001 456.417 Q165.001 463.523 166.806 467.088 Q168.635 470.63 172.246 470.63 Q175.88 470.63 177.686 467.088 Q179.514 463.523 179.514 456.417 Q179.514 449.287 177.686 445.746 Q175.88 442.181 172.246 442.181 M172.246 438.477 Q178.056 438.477 181.112 443.084 Q184.19 447.667 184.19 456.417 Q184.19 465.144 181.112 469.75 Q178.056 474.334 172.246 474.334 Q166.436 474.334 163.357 469.75 Q160.302 465.144 160.302 456.417 Q160.302 447.667 163.357 443.084 Q166.436 438.477 172.246 438.477 Z" fill="#ffffff" fill-rule="evenodd" fill-opacity="1" /><path clip-path="url(#clip650)" d="M220.579 448.199 L210 458.824 L220.579 469.403 L217.824 472.204 L207.199 461.579 L196.575 472.204 L193.843 469.403 L204.399 458.824 L193.843 448.199 L196.575 445.399 L207.199 456.023 L217.824 445.399 L220.579 448.199 Z" fill="#ffffff" fill-rule="evenodd" fill-opacity="1" /><path clip-path="url(#clip650)" d="M232.94 469.727 L240.579 469.727 L240.579 443.362 L232.269 445.028 L232.269 440.769 L240.533 439.102 L245.209 439.102 L245.209 469.727 L252.847 469.727 L252.847 473.662 L232.94 473.662 L232.94 469.727 Z" fill="#ffffff" fill-rule="evenodd" fill-opacity="1" /><path clip-path="url(#clip650)" d="M272.292 442.181 Q268.681 442.181 266.852 445.746 Q265.046 449.287 265.046 456.417 Q265.046 463.523 266.852 467.088 Q268.681 470.63 272.292 470.63 Q275.926 470.63 277.732 467.088 Q279.56 463.523 279.56 456.417 Q279.56 449.287 277.732 445.746 Q275.926 442.181 272.292 442.181 M272.292 438.477 Q278.102 438.477 281.157 443.084 Q284.236 447.667 284.236 456.417 Q284.236 465.144 281.157 469.75 Q278.102 474.334 272.292 474.334 Q266.482 474.334 263.403 469.75 Q260.347 465.144 260.347 456.417 Q260.347 447.667 263.403 443.084 Q266.482 438.477 272.292 438.477 Z" fill="#ffffff" fill-rule="evenodd" fill-opacity="1" /><path clip-path="url(#clip650)" d="M294.261 430.698 Q291.703 430.698 290.198 432.447 Q288.712 434.196 288.712 437.243 Q288.712 440.271 290.198 442.039 Q291.703 443.788 294.261 443.788 Q296.818 443.788 298.304 442.039 Q299.809 440.271 299.809 437.243 Q299.809 434.196 298.304 432.447 Q296.818 430.698 294.261 430.698 M301.803 418.793 L301.803 422.253 Q300.373 421.576 298.906 421.219 Q297.458 420.861 296.029 420.861 Q292.267 420.861 290.273 423.4 Q288.299 425.939 288.016 431.074 Q289.126 429.438 290.8 428.573 Q292.474 427.689 294.486 427.689 Q298.718 427.689 301.163 430.265 Q303.627 432.823 303.627 437.243 Q303.627 441.569 301.069 444.183 Q298.511 446.797 294.261 446.797 Q289.389 446.797 286.813 443.073 Q284.236 439.331 284.236 432.24 Q284.236 425.582 287.396 421.633 Q290.556 417.664 295.878 417.664 Q297.307 417.664 298.756 417.946 Q300.223 418.228 301.803 418.793 Z" fill="#ffffff" fill-rule="evenodd" fill-opacity="1" /><path clip-path="url(#clip650)" d="M127.593 267.227 Q124.445 267.227 122.593 269.379 Q120.765 271.532 120.765 275.282 Q120.765 279.009 122.593 281.185 Q124.445 283.338 127.593 283.338 Q130.742 283.338 132.57 281.185 Q134.422 279.009 134.422 275.282 Q134.422 271.532 132.57 269.379 Q130.742 267.227 127.593 267.227 M136.876 252.574 L136.876 256.833 Q135.117 256 133.311 255.56 Q131.529 255.12 129.769 255.12 Q125.14 255.12 122.686 258.245 Q120.255 261.37 119.908 267.69 Q121.274 265.676 123.334 264.611 Q125.394 263.523 127.871 263.523 Q133.08 263.523 136.089 266.694 Q139.121 269.842 139.121 275.282 Q139.121 280.606 135.973 283.824 Q132.825 287.041 127.593 287.041 Q121.598 287.041 118.427 282.458 Q115.256 277.852 115.256 269.125 Q115.256 260.93 119.144 256.069 Q123.033 251.185 129.584 251.185 Q131.343 251.185 133.126 251.532 Q134.931 251.88 136.876 252.574 Z" fill="#ffffff" fill-rule="evenodd" fill-opacity="1" /><path clip-path="url(#clip650)" d="M147.177 280.49 L152.061 280.49 L152.061 286.37 L147.177 286.37 L147.177 280.49 Z" fill="#ffffff" fill-rule="evenodd" fill-opacity="1" /><path clip-path="url(#clip650)" d="M172.246 254.889 Q168.635 254.889 166.806 258.454 Q165.001 261.995 165.001 269.125 Q165.001 276.231 166.806 279.796 Q168.635 283.338 172.246 283.338 Q175.88 283.338 177.686 279.796 Q179.514 276.231 179.514 269.125 Q179.514 261.995 177.686 258.454 Q175.88 254.889 172.246 254.889 M172.246 251.185 Q178.056 251.185 181.112 255.792 Q184.19 260.375 184.19 269.125 Q184.19 277.852 181.112 282.458 Q178.056 287.041 172.246 287.041 Q166.436 287.041 163.357 282.458 Q160.302 277.852 160.302 269.125 Q160.302 260.375 163.357 255.792 Q166.436 251.185 172.246 251.185 Z" fill="#ffffff" fill-rule="evenodd" fill-opacity="1" /><path clip-path="url(#clip650)" d="M220.579 260.907 L210 271.532 L220.579 282.111 L217.824 284.912 L207.199 274.287 L196.575 284.912 L193.843 282.111 L204.399 271.532 L193.843 260.907 L196.575 258.106 L207.199 268.731 L217.824 258.106 L220.579 260.907 Z" fill="#ffffff" fill-rule="evenodd" fill-opacity="1" /><path clip-path="url(#clip650)" d="M232.94 282.435 L240.579 282.435 L240.579 256.069 L232.269 257.736 L232.269 253.477 L240.533 251.81 L245.209 251.81 L245.209 282.435 L252.847 282.435 L252.847 286.37 L232.94 286.37 L232.94 282.435 Z" fill="#ffffff" fill-rule="evenodd" fill-opacity="1" /><path clip-path="url(#clip650)" d="M272.292 254.889 Q268.681 254.889 266.852 258.454 Q265.046 261.995 265.046 269.125 Q265.046 276.231 266.852 279.796 Q268.681 283.338 272.292 283.338 Q275.926 283.338 277.732 279.796 Q279.56 276.231 279.56 269.125 Q279.56 261.995 277.732 258.454 Q275.926 254.889 272.292 254.889 M272.292 251.185 Q278.102 251.185 281.157 255.792 Q284.236 260.375 284.236 269.125 Q284.236 277.852 281.157 282.458 Q278.102 287.041 272.292 287.041 Q266.482 287.041 263.403 282.458 Q260.347 277.852 260.347 269.125 Q260.347 260.375 263.403 255.792 Q266.482 251.185 272.292 251.185 Z" fill="#ffffff" fill-rule="evenodd" fill-opacity="1" /><path clip-path="url(#clip650)" d="M294.261 243.406 Q291.703 243.406 290.198 245.155 Q288.712 246.904 288.712 249.951 Q288.712 252.979 290.198 254.747 Q291.703 256.496 294.261 256.496 Q296.818 256.496 298.304 254.747 Q299.809 252.979 299.809 249.951 Q299.809 246.904 298.304 245.155 Q296.818 243.406 294.261 243.406 M301.803 231.5 L301.803 234.961 Q300.373 234.284 298.906 233.927 Q297.458 233.569 296.029 233.569 Q292.267 233.569 290.273 236.108 Q288.299 238.647 288.016 243.782 Q289.126 242.146 290.8 241.28 Q292.474 240.396 294.486 240.396 Q298.718 240.396 301.163 242.973 Q303.627 245.531 303.627 249.951 Q303.627 254.277 301.069 256.891 Q298.511 259.505 294.261 259.505 Q289.389 259.505 286.813 255.781 Q284.236 252.038 284.236 244.948 Q284.236 238.29 287.396 234.34 Q290.556 230.372 295.878 230.372 Q297.307 230.372 298.756 230.654 Q300.223 230.936 301.803 231.5 Z" fill="#ffffff" fill-rule="evenodd" fill-opacity="1" /><path clip-path="url(#clip650)" d="M16.4842 911.016 L16.4842 904.587 L64.0042 904.587 L64.0042 911.016 L16.4842 911.016 Z" fill="#ffffff" fill-rule="evenodd" fill-opacity="1" /><path clip-path="url(#clip650)" d="M42.4881 862.414 L64.0042 862.414 L64.0042 868.27 L42.679 868.27 Q37.6183 868.27 35.1038 870.244 Q32.5894 872.217 32.5894 876.164 Q32.5894 880.906 35.6131 883.644 Q38.6368 886.381 43.8567 886.381 L64.0042 886.381 L64.0042 892.269 L28.3562 892.269 L28.3562 886.381 L33.8944 886.381 Q30.6797 884.28 29.0883 881.448 Q27.4968 878.583 27.4968 874.859 Q27.4968 868.716 31.3163 865.565 Q35.1038 862.414 42.4881 862.414 Z" fill="#ffffff" fill-rule="evenodd" fill-opacity="1" /><path clip-path="url(#clip650)" d="M18.2347 844.94 L28.3562 844.94 L28.3562 832.877 L32.9077 832.877 L32.9077 844.94 L52.2594 844.94 Q56.6199 844.94 57.8613 843.763 Q59.1026 842.553 59.1026 838.893 L59.1026 832.877 L64.0042 832.877 L64.0042 838.893 Q64.0042 845.672 61.4897 848.25 Q58.9434 850.828 52.2594 850.828 L32.9077 850.828 L32.9077 855.125 L28.3562 855.125 L28.3562 850.828 L18.2347 850.828 L18.2347 844.94 Z" fill="#ffffff" fill-rule="evenodd" fill-opacity="1" /><path clip-path="url(#clip650)" d="M44.7161 794.683 L47.5806 794.683 L47.5806 821.61 Q53.6281 821.228 56.8109 817.981 Q59.9619 814.703 59.9619 808.878 Q59.9619 805.505 59.1344 802.354 Q58.3069 799.171 56.6518 796.052 L62.1899 796.052 Q63.5267 799.203 64.227 802.513 Q64.9272 805.823 64.9272 809.229 Q64.9272 817.759 59.9619 822.756 Q54.9967 827.721 46.5303 827.721 Q37.7774 827.721 32.6531 823.01 Q27.4968 818.268 27.4968 810.247 Q27.4968 803.054 32.1438 798.884 Q36.7589 794.683 44.7161 794.683 M42.9973 800.539 Q38.1912 800.603 35.3266 803.245 Q32.4621 805.855 32.4621 810.183 Q32.4621 815.085 35.2312 818.045 Q38.0002 820.973 43.0292 821.419 L42.9973 800.539 Z" fill="#ffffff" fill-rule="evenodd" fill-opacity="1" /><path clip-path="url(#clip650)" d="M42.4881 755.438 L64.0042 755.438 L64.0042 761.295 L42.679 761.295 Q37.6183 761.295 35.1038 763.268 Q32.5894 765.242 32.5894 769.188 Q32.5894 773.931 35.6131 776.668 Q38.6368 779.405 43.8567 779.405 L64.0042 779.405 L64.0042 785.294 L28.3562 785.294 L28.3562 779.405 L33.8944 779.405 Q30.6797 777.305 29.0883 774.472 Q27.4968 771.607 27.4968 767.883 Q27.4968 761.74 31.3163 758.589 Q35.1038 755.438 42.4881 755.438 Z" fill="#ffffff" fill-rule="evenodd" fill-opacity="1" /><path clip-path="url(#clip650)" d="M29.4065 721.032 L34.9447 721.032 Q33.6716 723.514 33.035 726.188 Q32.3984 728.862 32.3984 731.726 Q32.3984 736.087 33.7352 738.283 Q35.072 740.447 37.7456 740.447 Q39.7826 740.447 40.9603 738.888 Q42.1061 737.328 43.1565 732.617 L43.6021 730.612 Q44.9389 724.374 47.3897 721.764 Q49.8086 719.122 54.1691 719.122 Q59.1344 719.122 62.0308 723.069 Q64.9272 726.984 64.9272 733.859 Q64.9272 736.723 64.3543 739.842 Q63.8132 742.93 62.6992 746.367 L56.6518 746.367 Q58.3387 743.121 59.198 739.97 Q60.0256 736.819 60.0256 733.731 Q60.0256 729.594 58.6251 727.366 Q57.1929 725.138 54.6147 725.138 Q52.2276 725.138 50.9545 726.761 Q49.6813 728.352 48.5037 733.795 L48.0262 735.832 Q46.8804 741.275 44.5251 743.694 Q42.138 746.113 38.0002 746.113 Q32.9713 746.113 30.2341 742.548 Q27.4968 738.983 27.4968 732.426 Q27.4968 729.18 27.9743 726.315 Q28.4517 723.451 29.4065 721.032 Z" fill="#ffffff" fill-rule="evenodd" fill-opacity="1" /><path clip-path="url(#clip650)" d="M28.3562 709.796 L28.3562 703.94 L64.0042 703.94 L64.0042 709.796 L28.3562 709.796 M14.479 709.796 L14.479 703.94 L21.895 703.94 L21.895 709.796 L14.479 709.796 Z" fill="#ffffff" fill-rule="evenodd" fill-opacity="1" /><path clip-path="url(#clip650)" d="M18.2347 685.893 L28.3562 685.893 L28.3562 673.83 L32.9077 673.83 L32.9077 685.893 L52.2594 685.893 Q56.6199 685.893 57.8613 684.715 Q59.1026 683.506 59.1026 679.846 L59.1026 673.83 L64.0042 673.83 L64.0042 679.846 Q64.0042 686.625 61.4897 689.203 Q58.9434 691.781 52.2594 691.781 L32.9077 691.781 L32.9077 696.078 L28.3562 696.078 L28.3562 691.781 L18.2347 691.781 L18.2347 685.893 Z" fill="#ffffff" fill-rule="evenodd" fill-opacity="1" /><path clip-path="url(#clip650)" d="M67.3143 651.295 Q73.68 653.778 75.6216 656.133 Q77.5631 658.489 77.5631 662.435 L77.5631 667.114 L72.6615 667.114 L72.6615 663.677 Q72.6615 661.258 71.5157 659.921 Q70.3699 658.584 66.1048 656.961 L63.4312 655.911 L28.3562 670.329 L28.3562 664.122 L56.238 652.982 L28.3562 641.842 L28.3562 635.636 L67.3143 651.295 Z" fill="#ffffff" fill-rule="evenodd" fill-opacity="1" /><path clip-path="url(#clip650)" d="M461.474 12.096 L469.738 12.096 L482.458 63.2184 L495.137 12.096 L504.332 12.096 L517.052 63.2184 L529.732 12.096 L538.036 12.096 L522.845 72.576 L512.556 72.576 L499.795 20.0763 L486.914 72.576 L476.624 72.576 L461.474 12.096 Z" fill="#ffffff" fill-rule="evenodd" fill-opacity="1" /><path clip-path="url(#clip650)" d="M563.881 49.7694 Q554.847 49.7694 551.363 51.8354 Q547.88 53.9013 547.88 58.8839 Q547.88 62.8538 550.472 65.2034 Q553.105 67.5124 557.602 67.5124 Q563.8 67.5124 567.527 63.1374 Q571.294 58.7219 571.294 51.4303 L571.294 49.7694 L563.881 49.7694 M578.748 46.6907 L578.748 72.576 L571.294 72.576 L571.294 65.6895 Q568.742 69.8214 564.934 71.8063 Q561.126 73.7508 555.617 73.7508 Q548.649 73.7508 544.517 69.8619 Q540.426 65.9325 540.426 59.3701 Q540.426 51.7138 545.53 47.825 Q550.675 43.9361 560.843 43.9361 L571.294 43.9361 L571.294 43.2069 Q571.294 38.0623 567.891 35.2672 Q564.529 32.4315 558.412 32.4315 Q554.523 32.4315 550.837 33.3632 Q547.151 34.295 543.748 36.1584 L543.748 29.2718 Q547.839 27.692 551.688 26.9223 Q555.536 26.1121 559.182 26.1121 Q569.025 26.1121 573.887 31.2163 Q578.748 36.3204 578.748 46.6907 Z" fill="#ffffff" fill-rule="evenodd" fill-opacity="1" /><path clip-path="url(#clip650)" d="M601.473 14.324 L601.473 27.2059 L616.826 27.2059 L616.826 32.9987 L601.473 32.9987 L601.473 57.6282 Q601.473 63.1779 602.972 64.7578 Q604.511 66.3376 609.17 66.3376 L616.826 66.3376 L616.826 72.576 L609.17 72.576 Q600.541 72.576 597.26 69.3758 Q593.979 66.1351 593.979 57.6282 L593.979 32.9987 L588.51 32.9987 L588.51 27.2059 L593.979 27.2059 L593.979 14.324 L601.473 14.324 Z" fill="#ffffff" fill-rule="evenodd" fill-opacity="1" /><path clip-path="url(#clip650)" d="M665.437 48.0275 L665.437 51.6733 L631.166 51.6733 Q631.652 59.3701 635.784 63.421 Q639.957 67.4314 647.37 67.4314 Q651.664 67.4314 655.674 66.3781 Q659.725 65.3249 663.695 63.2184 L663.695 70.267 Q659.685 71.9684 655.472 72.8596 Q651.259 73.7508 646.924 73.7508 Q636.068 73.7508 629.708 67.4314 Q623.389 61.1119 623.389 50.3365 Q623.389 39.1965 629.384 32.6746 Q635.42 26.1121 645.628 26.1121 Q654.783 26.1121 660.09 32.0264 Q665.437 37.9003 665.437 48.0275 M657.983 45.84 Q657.902 39.7232 654.54 36.0774 Q651.218 32.4315 645.709 32.4315 Q639.471 32.4315 635.703 35.9558 Q631.976 39.4801 631.409 45.8805 L657.983 45.84 Z" fill="#ffffff" fill-rule="evenodd" fill-opacity="1" /><path clip-path="url(#clip650)" d="M703.961 34.1734 Q702.705 33.4443 701.206 33.1202 Q699.748 32.7556 697.966 32.7556 Q691.646 32.7556 688.244 36.8875 Q684.881 40.9789 684.881 48.6757 L684.881 72.576 L677.387 72.576 L677.387 27.2059 L684.881 27.2059 L684.881 34.2544 Q687.231 30.1225 690.998 28.1376 Q694.765 26.1121 700.153 26.1121 Q700.923 26.1121 701.855 26.2337 Q702.786 26.3147 703.921 26.5172 L703.961 34.1734 Z" fill="#ffffff" fill-rule="evenodd" fill-opacity="1" /><path clip-path="url(#clip650)" d="M770.801 28.9478 L770.801 35.9153 Q767.641 34.1734 764.441 33.3227 Q761.281 32.4315 758.041 32.4315 Q750.79 32.4315 746.779 37.0496 Q742.769 41.6271 742.769 49.9314 Q742.769 58.2358 746.779 62.8538 Q750.79 67.4314 758.041 67.4314 Q761.281 67.4314 764.441 66.5807 Q767.641 65.6895 770.801 63.9476 L770.801 70.8341 Q767.682 72.2924 764.32 73.0216 Q760.998 73.7508 757.23 73.7508 Q746.982 73.7508 740.946 67.3098 Q734.91 60.8689 734.91 49.9314 Q734.91 38.832 740.986 32.472 Q747.103 26.1121 757.717 26.1121 Q761.16 26.1121 764.441 26.8413 Q767.722 27.5299 770.801 28.9478 Z" fill="#ffffff" fill-rule="evenodd" fill-opacity="1" /><path clip-path="url(#clip650)" d="M801.345 32.4315 Q795.349 32.4315 791.866 37.1306 Q788.382 41.7891 788.382 49.9314 Q788.382 58.0738 791.825 62.7728 Q795.309 67.4314 801.345 67.4314 Q807.3 67.4314 810.783 62.7323 Q814.267 58.0333 814.267 49.9314 Q814.267 41.8701 810.783 37.1711 Q807.3 32.4315 801.345 32.4315 M801.345 26.1121 Q811.067 26.1121 816.617 32.4315 Q822.166 38.7509 822.166 49.9314 Q822.166 61.0714 816.617 67.4314 Q811.067 73.7508 801.345 73.7508 Q791.582 73.7508 786.032 67.4314 Q780.523 61.0714 780.523 49.9314 Q780.523 38.7509 786.032 32.4315 Q791.582 26.1121 801.345 26.1121 Z" fill="#ffffff" fill-rule="evenodd" fill-opacity="1" /><path clip-path="url(#clip650)" d="M834.522 9.54393 L841.975 9.54393 L841.975 72.576 L834.522 72.576 L834.522 9.54393 Z" fill="#ffffff" fill-rule="evenodd" fill-opacity="1" /><path clip-path="url(#clip650)" d="M856.802 54.671 L856.802 27.2059 L864.255 27.2059 L864.255 54.3874 Q864.255 60.8284 866.767 64.0691 Q869.278 67.2693 874.302 67.2693 Q880.337 67.2693 883.821 63.421 Q887.345 59.5726 887.345 52.9291 L887.345 27.2059 L894.799 27.2059 L894.799 72.576 L887.345 72.576 L887.345 65.6084 Q884.631 69.7404 881.026 71.7658 Q877.461 73.7508 872.722 73.7508 Q864.903 73.7508 860.853 68.8897 Q856.802 64.0286 856.802 54.671 M875.557 26.1121 L875.557 26.1121 Z" fill="#ffffff" fill-rule="evenodd" fill-opacity="1" /><path clip-path="url(#clip650)" d="M945.476 35.9153 Q948.271 30.8922 952.16 28.5022 Q956.049 26.1121 961.315 26.1121 Q968.404 26.1121 972.252 31.0947 Q976.101 36.0368 976.101 45.1919 L976.101 72.576 L968.607 72.576 L968.607 45.4349 Q968.607 38.913 966.298 35.7533 Q963.989 32.5936 959.249 32.5936 Q953.456 32.5936 950.094 36.4419 Q946.732 40.2903 946.732 46.9338 L946.732 72.576 L939.238 72.576 L939.238 45.4349 Q939.238 38.8725 936.929 35.7533 Q934.62 32.5936 929.799 32.5936 Q924.087 32.5936 920.725 36.4824 Q917.363 40.3308 917.363 46.9338 L917.363 72.576 L909.869 72.576 L909.869 27.2059 L917.363 27.2059 L917.363 34.2544 Q919.915 30.082 923.48 28.0971 Q927.044 26.1121 931.946 26.1121 Q936.888 26.1121 940.331 28.6237 Q943.815 31.1352 945.476 35.9153 Z" fill="#ffffff" fill-rule="evenodd" fill-opacity="1" /><path clip-path="url(#clip650)" d="M1028.68 45.1919 L1028.68 72.576 L1021.23 72.576 L1021.23 45.4349 Q1021.23 38.994 1018.72 35.7938 Q1016.2 32.5936 1011.18 32.5936 Q1005.15 32.5936 1001.66 36.4419 Q998.178 40.2903 998.178 46.9338 L998.178 72.576 L990.684 72.576 L990.684 27.2059 L998.178 27.2059 L998.178 34.2544 Q1000.85 30.163 1004.46 28.1376 Q1008.1 26.1121 1012.84 26.1121 Q1020.66 26.1121 1024.67 30.9732 Q1028.68 35.7938 1028.68 45.1919 Z" fill="#ffffff" fill-rule="evenodd" fill-opacity="1" /><path clip-path="url(#clip650)" d="M1077.13 65.7705 L1077.13 89.8329 L1069.64 89.8329 L1069.64 27.2059 L1077.13 27.2059 L1077.13 34.0924 Q1079.48 30.0415 1083.04 28.0971 Q1086.65 26.1121 1091.63 26.1121 Q1099.9 26.1121 1105.04 32.6746 Q1110.23 39.2371 1110.23 49.9314 Q1110.23 60.6258 1105.04 67.1883 Q1099.9 73.7508 1091.63 73.7508 Q1086.65 73.7508 1083.04 71.8063 Q1079.48 69.8214 1077.13 65.7705 M1102.49 49.9314 Q1102.49 41.7081 1099.09 37.0496 Q1095.72 32.3505 1089.81 32.3505 Q1083.9 32.3505 1080.49 37.0496 Q1077.13 41.7081 1077.13 49.9314 Q1077.13 58.1548 1080.49 62.8538 Q1083.9 67.5124 1089.81 67.5124 Q1095.72 67.5124 1099.09 62.8538 Q1102.49 58.1548 1102.49 49.9314 Z" fill="#ffffff" fill-rule="evenodd" fill-opacity="1" /><path clip-path="url(#clip650)" d="M1161.39 48.0275 L1161.39 51.6733 L1127.12 51.6733 Q1127.6 59.3701 1131.74 63.421 Q1135.91 67.4314 1143.32 67.4314 Q1147.62 67.4314 1151.63 66.3781 Q1155.68 65.3249 1159.65 63.2184 L1159.65 70.267 Q1155.64 71.9684 1151.42 72.8596 Q1147.21 73.7508 1142.88 73.7508 Q1132.02 73.7508 1125.66 67.4314 Q1119.34 61.1119 1119.34 50.3365 Q1119.34 39.1965 1125.34 32.6746 Q1131.37 26.1121 1141.58 26.1121 Q1150.74 26.1121 1156.04 32.0264 Q1161.39 37.9003 1161.39 48.0275 M1153.94 45.84 Q1153.85 39.7232 1150.49 36.0774 Q1147.17 32.4315 1141.66 32.4315 Q1135.42 32.4315 1131.66 35.9558 Q1127.93 39.4801 1127.36 45.8805 L1153.94 45.84 Z" fill="#ffffff" fill-rule="evenodd" fill-opacity="1" /><path clip-path="url(#clip650)" d="M1194.24 49.7694 Q1185.21 49.7694 1181.72 51.8354 Q1178.24 53.9013 1178.24 58.8839 Q1178.24 62.8538 1180.83 65.2034 Q1183.47 67.5124 1187.96 67.5124 Q1194.16 67.5124 1197.89 63.1374 Q1201.66 58.7219 1201.66 51.4303 L1201.66 49.7694 L1194.24 49.7694 M1209.11 46.6907 L1209.11 72.576 L1201.66 72.576 L1201.66 65.6895 Q1199.1 69.8214 1195.3 71.8063 Q1191.49 73.7508 1185.98 73.7508 Q1179.01 73.7508 1174.88 69.8619 Q1170.79 65.9325 1170.79 59.3701 Q1170.79 51.7138 1175.89 47.825 Q1181.04 43.9361 1191.2 43.9361 L1201.66 43.9361 L1201.66 43.2069 Q1201.66 38.0623 1198.25 35.2672 Q1194.89 32.4315 1188.77 32.4315 Q1184.88 32.4315 1181.2 33.3632 Q1177.51 34.295 1174.11 36.1584 L1174.11 29.2718 Q1178.2 27.692 1182.05 26.9223 Q1185.9 26.1121 1189.54 26.1121 Q1199.39 26.1121 1204.25 31.2163 Q1209.11 36.3204 1209.11 46.6907 Z" fill="#ffffff" fill-rule="evenodd" fill-opacity="1" /><path clip-path="url(#clip650)" d="M1224.18 9.54393 L1231.67 9.54393 L1231.67 46.7717 L1253.91 27.2059 L1263.43 27.2059 L1239.37 48.4326 L1264.44 72.576 L1254.72 72.576 L1231.67 50.4176 L1231.67 72.576 L1224.18 72.576 L1224.18 9.54393 Z" fill="#ffffff" fill-rule="evenodd" fill-opacity="1" /><path clip-path="url(#clip650)" d="M1294.54 27.2059 L1302 27.2059 L1311.31 62.6108 L1320.59 27.2059 L1329.38 27.2059 L1338.7 62.6108 L1347.97 27.2059 L1355.43 27.2059 L1343.56 72.576 L1334.77 72.576 L1325.01 35.3887 L1315.2 72.576 L1306.41 72.576 L1294.54 27.2059 Z" fill="#ffffff" fill-rule="evenodd" fill-opacity="1" /><path clip-path="url(#clip650)" d="M1379.98 12.096 L1386.86 12.096 L1365.8 80.2727 L1358.91 80.2727 L1379.98 12.096 Z" fill="#ffffff" fill-rule="evenodd" fill-opacity="1" /><path clip-path="url(#clip650)" d="M1459.86 48.0275 L1459.86 51.6733 L1425.59 51.6733 Q1426.08 59.3701 1430.21 63.421 Q1434.38 67.4314 1441.79 67.4314 Q1446.09 67.4314 1450.1 66.3781 Q1454.15 65.3249 1458.12 63.2184 L1458.12 70.267 Q1454.11 71.9684 1449.89 72.8596 Q1445.68 73.7508 1441.35 73.7508 Q1430.49 73.7508 1424.13 67.4314 Q1417.81 61.1119 1417.81 50.3365 Q1417.81 39.1965 1423.81 32.6746 Q1429.84 26.1121 1440.05 26.1121 Q1449.21 26.1121 1454.51 32.0264 Q1459.86 37.9003 1459.86 48.0275 M1452.41 45.84 Q1452.33 39.7232 1448.96 36.0774 Q1445.64 32.4315 1440.13 32.4315 Q1433.89 32.4315 1430.13 35.9558 Q1426.4 39.4801 1425.83 45.8805 L1452.41 45.84 Z" fill="#ffffff" fill-rule="evenodd" fill-opacity="1" /><path clip-path="url(#clip650)" d="M1501.02 28.5427 L1501.02 35.5912 Q1497.86 33.9709 1494.45 33.1607 Q1491.05 32.3505 1487.41 32.3505 Q1481.86 32.3505 1479.06 34.0519 Q1476.31 35.7533 1476.31 39.156 Q1476.31 41.7486 1478.29 43.2475 Q1480.28 44.7058 1486.27 46.0426 L1488.82 46.6097 Q1496.76 48.3111 1500.09 51.4303 Q1503.45 54.509 1503.45 60.0587 Q1503.45 66.3781 1498.42 70.0644 Q1493.44 73.7508 1484.69 73.7508 Q1481.05 73.7508 1477.08 73.0216 Q1473.15 72.3329 1468.77 70.9151 L1468.77 63.2184 Q1472.9 65.3654 1476.91 66.4591 Q1480.92 67.5124 1484.85 67.5124 Q1490.12 67.5124 1492.96 65.73 Q1495.79 63.9071 1495.79 60.6258 Q1495.79 57.5877 1493.73 55.9673 Q1491.7 54.3469 1484.77 52.8481 L1482.18 52.2405 Q1475.25 50.7821 1472.17 47.7845 Q1469.1 44.7463 1469.1 39.4801 Q1469.1 33.0797 1473.63 29.5959 Q1478.17 26.1121 1486.51 26.1121 Q1490.65 26.1121 1494.29 26.7198 Q1497.94 27.3274 1501.02 28.5427 Z" fill="#ffffff" fill-rule="evenodd" fill-opacity="1" /><path clip-path="url(#clip650)" d="M1522.69 14.324 L1522.69 27.2059 L1538.04 27.2059 L1538.04 32.9987 L1522.69 32.9987 L1522.69 57.6282 Q1522.69 63.1779 1524.19 64.7578 Q1525.73 66.3376 1530.39 66.3376 L1538.04 66.3376 L1538.04 72.576 L1530.39 72.576 Q1521.76 72.576 1518.48 69.3758 Q1515.2 66.1351 1515.2 57.6282 L1515.2 32.9987 L1509.73 32.9987 L1509.73 27.2059 L1515.2 27.2059 L1515.2 14.324 L1522.69 14.324 Z" fill="#ffffff" fill-rule="evenodd" fill-opacity="1" /><path clip-path="url(#clip650)" d="M1547.85 27.2059 L1555.3 27.2059 L1555.3 72.576 L1547.85 72.576 L1547.85 27.2059 M1547.85 9.54393 L1555.3 9.54393 L1555.3 18.9825 L1547.85 18.9825 L1547.85 9.54393 Z" fill="#ffffff" fill-rule="evenodd" fill-opacity="1" /><path clip-path="url(#clip650)" d="M1606.22 35.9153 Q1609.01 30.8922 1612.9 28.5022 Q1616.79 26.1121 1622.06 26.1121 Q1629.15 26.1121 1633 31.0947 Q1636.84 36.0368 1636.84 45.1919 L1636.84 72.576 L1629.35 72.576 L1629.35 45.4349 Q1629.35 38.913 1627.04 35.7533 Q1624.73 32.5936 1619.99 32.5936 Q1614.2 32.5936 1610.84 36.4419 Q1607.47 40.2903 1607.47 46.9338 L1607.47 72.576 L1599.98 72.576 L1599.98 45.4349 Q1599.98 38.8725 1597.67 35.7533 Q1595.36 32.5936 1590.54 32.5936 Q1584.83 32.5936 1581.47 36.4824 Q1578.11 40.3308 1578.11 46.9338 L1578.11 72.576 L1570.61 72.576 L1570.61 27.2059 L1578.11 27.2059 L1578.11 34.2544 Q1580.66 30.082 1584.22 28.0971 Q1587.79 26.1121 1592.69 26.1121 Q1597.63 26.1121 1601.07 28.6237 Q1604.56 31.1352 1606.22 35.9153 Z" fill="#ffffff" fill-rule="evenodd" fill-opacity="1" /><path clip-path="url(#clip650)" d="M1672.33 49.7694 Q1663.3 49.7694 1659.81 51.8354 Q1656.33 53.9013 1656.33 58.8839 Q1656.33 62.8538 1658.92 65.2034 Q1661.55 67.5124 1666.05 67.5124 Q1672.25 67.5124 1675.98 63.1374 Q1679.74 58.7219 1679.74 51.4303 L1679.74 49.7694 L1672.33 49.7694 M1687.2 46.6907 L1687.2 72.576 L1679.74 72.576 L1679.74 65.6895 Q1677.19 69.8214 1673.38 71.8063 Q1669.58 73.7508 1664.07 73.7508 Q1657.1 73.7508 1652.97 69.8619 Q1648.87 65.9325 1648.87 59.3701 Q1648.87 51.7138 1653.98 47.825 Q1659.12 43.9361 1669.29 43.9361 L1679.74 43.9361 L1679.74 43.2069 Q1679.74 38.0623 1676.34 35.2672 Q1672.98 32.4315 1666.86 32.4315 Q1662.97 32.4315 1659.29 33.3632 Q1655.6 34.295 1652.2 36.1584 L1652.2 29.2718 Q1656.29 27.692 1660.14 26.9223 Q1663.98 26.1121 1667.63 26.1121 Q1677.47 26.1121 1682.34 31.2163 Q1687.2 36.3204 1687.2 46.6907 Z" fill="#ffffff" fill-rule="evenodd" fill-opacity="1" /><path clip-path="url(#clip650)" d="M1709.92 14.324 L1709.92 27.2059 L1725.28 27.2059 L1725.28 32.9987 L1709.92 32.9987 L1709.92 57.6282 Q1709.92 63.1779 1711.42 64.7578 Q1712.96 66.3376 1717.62 66.3376 L1725.28 66.3376 L1725.28 72.576 L1717.62 72.576 Q1708.99 72.576 1705.71 69.3758 Q1702.43 66.1351 1702.43 57.6282 L1702.43 32.9987 L1696.96 32.9987 L1696.96 27.2059 L1702.43 27.2059 L1702.43 14.324 L1709.92 14.324 Z" fill="#ffffff" fill-rule="evenodd" fill-opacity="1" /><path clip-path="url(#clip650)" d="M1773.89 48.0275 L1773.89 51.6733 L1739.62 51.6733 Q1740.1 59.3701 1744.23 63.421 Q1748.41 67.4314 1755.82 67.4314 Q1760.11 67.4314 1764.12 66.3781 Q1768.17 65.3249 1772.14 63.2184 L1772.14 70.267 Q1768.13 71.9684 1763.92 72.8596 Q1759.71 73.7508 1755.37 73.7508 Q1744.52 73.7508 1738.16 67.4314 Q1731.84 61.1119 1731.84 50.3365 Q1731.84 39.1965 1737.83 32.6746 Q1743.87 26.1121 1754.08 26.1121 Q1763.23 26.1121 1768.54 32.0264 Q1773.89 37.9003 1773.89 48.0275 M1766.43 45.84 Q1766.35 39.7232 1762.99 36.0774 Q1759.67 32.4315 1754.16 32.4315 Q1747.92 32.4315 1744.15 35.9558 Q1740.43 39.4801 1739.86 45.8805 L1766.43 45.84 Z" fill="#ffffff" fill-rule="evenodd" fill-opacity="1" /><path clip-path="url(#clip650)" d="M1815.97 34.0924 L1815.97 9.54393 L1823.43 9.54393 L1823.43 72.576 L1815.97 72.576 L1815.97 65.7705 Q1813.63 69.8214 1810.02 71.8063 Q1806.46 73.7508 1801.43 73.7508 Q1793.21 73.7508 1788.02 67.1883 Q1782.88 60.6258 1782.88 49.9314 Q1782.88 39.2371 1788.02 32.6746 Q1793.21 26.1121 1801.43 26.1121 Q1806.46 26.1121 1810.02 28.0971 Q1813.63 30.0415 1815.97 34.0924 M1790.58 49.9314 Q1790.58 58.1548 1793.94 62.8538 Q1797.34 67.5124 1803.25 67.5124 Q1809.17 67.5124 1812.57 62.8538 Q1815.97 58.1548 1815.97 49.9314 Q1815.97 41.7081 1812.57 37.0496 Q1809.17 32.3505 1803.25 32.3505 Q1797.34 32.3505 1793.94 37.0496 Q1790.58 41.7081 1790.58 49.9314 Z" fill="#ffffff" fill-rule="evenodd" fill-opacity="1" /><path clip-path="url(#clip650)" d="M1906.72 63.9476 L1906.72 47.7034 L1893.35 47.7034 L1893.35 40.9789 L1914.82 40.9789 L1914.82 66.9452 Q1910.08 70.3075 1904.37 72.0494 Q1898.65 73.7508 1892.17 73.7508 Q1877.99 73.7508 1869.97 65.4869 Q1861.99 57.1826 1861.99 42.3968 Q1861.99 27.5705 1869.97 19.3066 Q1877.99 11.0023 1892.17 11.0023 Q1898.09 11.0023 1903.39 12.4606 Q1908.74 13.9189 1913.24 16.7545 L1913.24 25.464 Q1908.7 21.6156 1903.6 19.6712 Q1898.49 17.7268 1892.86 17.7268 Q1881.76 17.7268 1876.17 23.9246 Q1870.62 30.1225 1870.62 42.3968 Q1870.62 54.6305 1876.17 60.8284 Q1881.76 67.0263 1892.86 67.0263 Q1897.2 67.0263 1900.6 66.2971 Q1904 65.5274 1906.72 63.9476 Z" fill="#ffffff" fill-rule="evenodd" fill-opacity="1" /><path clip-path="url(#clip650)" d="M1950.06 49.7694 Q1941.03 49.7694 1937.54 51.8354 Q1934.06 53.9013 1934.06 58.8839 Q1934.06 62.8538 1936.65 65.2034 Q1939.28 67.5124 1943.78 67.5124 Q1949.98 67.5124 1953.71 63.1374 Q1957.47 58.7219 1957.47 51.4303 L1957.47 49.7694 L1950.06 49.7694 M1964.93 46.6907 L1964.93 72.576 L1957.47 72.576 L1957.47 65.6895 Q1954.92 69.8214 1951.11 71.8063 Q1947.31 73.7508 1941.8 73.7508 Q1934.83 73.7508 1930.7 69.8619 Q1926.6 65.9325 1926.6 59.3701 Q1926.6 51.7138 1931.71 47.825 Q1936.85 43.9361 1947.02 43.9361 L1957.47 43.9361 L1957.47 43.2069 Q1957.47 38.0623 1954.07 35.2672 Q1950.71 32.4315 1944.59 32.4315 Q1940.7 32.4315 1937.02 33.3632 Q1933.33 34.295 1929.93 36.1584 L1929.93 29.2718 Q1934.02 27.692 1937.87 26.9223 Q1941.71 26.1121 1945.36 26.1121 Q1955.2 26.1121 1960.07 31.2163 Q1964.93 36.3204 1964.93 46.6907 Z" fill="#ffffff" fill-rule="evenodd" fill-opacity="1" /><path clip-path="url(#clip650)" d="M1979.51 54.671 L1979.51 27.2059 L1986.96 27.2059 L1986.96 54.3874 Q1986.96 60.8284 1989.47 64.0691 Q1991.99 67.2693 1997.01 67.2693 Q2003.05 67.2693 2006.53 63.421 Q2010.05 59.5726 2010.05 52.9291 L2010.05 27.2059 L2017.51 27.2059 L2017.51 72.576 L2010.05 72.576 L2010.05 65.6084 Q2007.34 69.7404 2003.73 71.7658 Q2000.17 73.7508 1995.43 73.7508 Q1987.61 73.7508 1983.56 68.8897 Q1979.51 64.0286 1979.51 54.671 M1998.27 26.1121 L1998.27 26.1121 Z" fill="#ffffff" fill-rule="evenodd" fill-opacity="1" /><path clip-path="url(#clip650)" d="M2061.78 28.5427 L2061.78 35.5912 Q2058.62 33.9709 2055.22 33.1607 Q2051.82 32.3505 2048.17 32.3505 Q2042.62 32.3505 2039.83 34.0519 Q2037.07 35.7533 2037.07 39.156 Q2037.07 41.7486 2039.06 43.2475 Q2041.04 44.7058 2047.04 46.0426 L2049.59 46.6097 Q2057.53 48.3111 2060.85 51.4303 Q2064.21 54.509 2064.21 60.0587 Q2064.21 66.3781 2059.19 70.0644 Q2054.21 73.7508 2045.46 73.7508 Q2041.81 73.7508 2037.84 73.0216 Q2033.91 72.3329 2029.54 70.9151 L2029.54 63.2184 Q2033.67 65.3654 2037.68 66.4591 Q2041.69 67.5124 2045.62 67.5124 Q2050.89 67.5124 2053.72 65.73 Q2056.56 63.9071 2056.56 60.6258 Q2056.56 57.5877 2054.49 55.9673 Q2052.47 54.3469 2045.54 52.8481 L2042.95 52.2405 Q2036.02 50.7821 2032.94 47.7845 Q2029.86 44.7463 2029.86 39.4801 Q2029.86 33.0797 2034.4 29.5959 Q2038.94 26.1121 2047.28 26.1121 Q2051.41 26.1121 2055.06 26.7198 Q2058.7 27.3274 2061.78 28.5427 Z" fill="#ffffff" fill-rule="evenodd" fill-opacity="1" /><path clip-path="url(#clip650)" d="M2105.01 28.5427 L2105.01 35.5912 Q2101.85 33.9709 2098.44 33.1607 Q2095.04 32.3505 2091.4 32.3505 Q2085.85 32.3505 2083.05 34.0519 Q2080.3 35.7533 2080.3 39.156 Q2080.3 41.7486 2082.28 43.2475 Q2084.27 44.7058 2090.26 46.0426 L2092.81 46.6097 Q2100.75 48.3111 2104.08 51.4303 Q2107.44 54.509 2107.44 60.0587 Q2107.44 66.3781 2102.41 70.0644 Q2097.43 73.7508 2088.68 73.7508 Q2085.04 73.7508 2081.07 73.0216 Q2077.14 72.3329 2072.76 70.9151 L2072.76 63.2184 Q2076.89 65.3654 2080.9 66.4591 Q2084.91 67.5124 2088.84 67.5124 Q2094.11 67.5124 2096.95 65.73 Q2099.78 63.9071 2099.78 60.6258 Q2099.78 57.5877 2097.72 55.9673 Q2095.69 54.3469 2088.76 52.8481 L2086.17 52.2405 Q2079.24 50.7821 2076.16 47.7845 Q2073.09 44.7463 2073.09 39.4801 Q2073.09 33.0797 2077.62 29.5959 Q2082.16 26.1121 2090.5 26.1121 Q2094.64 26.1121 2098.28 26.7198 Q2101.93 27.3274 2105.01 28.5427 Z" fill="#ffffff" fill-rule="evenodd" fill-opacity="1" /><path clip-path="url(#clip650)" d="M2119.31 27.2059 L2126.76 27.2059 L2126.76 72.576 L2119.31 72.576 L2119.31 27.2059 M2119.31 9.54393 L2126.76 9.54393 L2126.76 18.9825 L2119.31 18.9825 L2119.31 9.54393 Z" fill="#ffffff" fill-rule="evenodd" fill-opacity="1" /><path clip-path="url(#clip650)" d="M2162.98 49.7694 Q2153.94 49.7694 2150.46 51.8354 Q2146.97 53.9013 2146.97 58.8839 Q2146.97 62.8538 2149.57 65.2034 Q2152.2 67.5124 2156.7 67.5124 Q2162.89 67.5124 2166.62 63.1374 Q2170.39 58.7219 2170.39 51.4303 L2170.39 49.7694 L2162.98 49.7694 M2177.84 46.6907 L2177.84 72.576 L2170.39 72.576 L2170.39 65.6895 Q2167.84 69.8214 2164.03 71.8063 Q2160.22 73.7508 2154.71 73.7508 Q2147.74 73.7508 2143.61 69.8619 Q2139.52 65.9325 2139.52 59.3701 Q2139.52 51.7138 2144.62 47.825 Q2149.77 43.9361 2159.94 43.9361 L2170.39 43.9361 L2170.39 43.2069 Q2170.39 38.0623 2166.99 35.2672 Q2163.62 32.4315 2157.51 32.4315 Q2153.62 32.4315 2149.93 33.3632 Q2146.24 34.295 2142.84 36.1584 L2142.84 29.2718 Q2146.93 27.692 2150.78 26.9223 Q2154.63 26.1121 2158.28 26.1121 Q2168.12 26.1121 2172.98 31.2163 Q2177.84 36.3204 2177.84 46.6907 Z" fill="#ffffff" fill-rule="evenodd" fill-opacity="1" /><path clip-path="url(#clip650)" d="M2230.91 45.1919 L2230.91 72.576 L2223.46 72.576 L2223.46 45.4349 Q2223.46 38.994 2220.94 35.7938 Q2218.43 32.5936 2213.41 32.5936 Q2207.37 32.5936 2203.89 36.4419 Q2200.41 40.2903 2200.41 46.9338 L2200.41 72.576 L2192.91 72.576 L2192.91 27.2059 L2200.41 27.2059 L2200.41 34.2544 Q2203.08 30.163 2206.68 28.1376 Q2210.33 26.1121 2215.07 26.1121 Q2222.89 26.1121 2226.9 30.9732 Q2230.91 35.7938 2230.91 45.1919 Z" fill="#ffffff" fill-rule="evenodd" fill-opacity="1" /><polyline clip-path="url(#clip652)" style="stroke:#009af9; stroke-linecap:round; stroke-linejoin:round; stroke-width:4; stroke-opacity:1; fill:none" points="396.602,1385.55 415.594,1384.96 434.586,1383.27 453.578,1380.86 472.569,1378.37 491.561,1376.48 510.553,1375.77 529.545,1376.44 548.537,1378.3 567.528,1380.72 586.52,1382.82 605.512,1383.74 624.504,1382.87 643.495,1380.1 662.487,1375.92 681.479,1371.28 700.471,1367.4 719.463,1365.34 738.454,1365.7 757.446,1368.29 776.438,1372.1 795.43,1375.44 814.421,1376.39 833.413,1373.34 852.405,1365.55 871.397,1353.52 890.389,1339.17 909.38,1325.44 928.372,1315.7 947.364,1312.83 966.356,1318.19 985.348,1330.77 1004.34,1346.78 1023.33,1359.76 1042.32,1361.34 1061.31,1342.49 1080.31,1295.27 1099.3,1214.52 1118.29,1099.32 1137.28,953.831 1156.27,787.376 1175.27,613.55 1194.26,448.603 1213.25,309.167 1232.24,209.967 1251.23,161.573 1270.22,168.84 1289.22,230.221 1308.21,338.059 1327.2,479.853 1346.19,640.148 1365.18,802.868 1384.17,953.619 1403.17,1081.45 1422.16,1180.01 1441.15,1247.77 1460.14,1287.55 1479.13,1305.29 1498.13,1308.53 1517.12,1304.84 1536.11,1300.53 1555.1,1299.81 1574.09,1304.52 1593.08,1314.4 1612.08,1327.7 1631.07,1342.01 1650.06,1355.04 1669.05,1365.22 1688.04,1371.92 1707.04,1375.45 1726.03,1376.76 1745.02,1377.06 1764.01,1377.38 1783,1378.35 1801.99,1380.09 1820.99,1382.26 1839.98,1384.34 1858.97,1385.81 1877.96,1386.39 1896.95,1386.1 1915.94,1385.26 1934.94,1384.34 1953.93,1383.78 1972.92,1383.84 1991.91,1384.48 2010.9,1385.39 2029.9,1386.13 2048.89,1386.25 2067.88,1385.51 2086.87,1383.94 2105.86,1381.87 2124.85,1379.84 2143.85,1378.43 2162.84,1378.08 2181.83,1378.91 2200.82,1380.7 2219.81,1382.91 2238.81,1384.83 2257.8,1385.78 2276.79,1385.31 2295.78,1383.33 "/>
<polyline clip-path="url(#clip652)" style="stroke:#e26f46; stroke-linecap:round; stroke-linejoin:round; stroke-width:4; stroke-opacity:1; fill:none" points="396.602,1386.4 415.594,1386.4 434.586,1386.4 453.578,1386.4 472.569,1386.4 491.561,1386.4 510.553,1386.4 529.545,1386.4 548.537,1386.4 567.528,1386.4 586.52,1386.4 605.512,1386.4 624.504,1386.4 643.495,1386.4 662.487,1386.4 681.479,1386.4 700.471,1386.4 719.463,1386.4 738.454,1386.4 757.446,1386.4 776.438,1386.4 795.43,1386.39 814.421,1386.39 833.413,1386.39 852.405,1386.37 871.397,1386.33 890.389,1386.23 909.38,1386 928.372,1385.47 947.364,1384.33 966.356,1382 985.348,1377.48 1004.34,1369.14 1023.33,1354.55 1042.32,1330.33 1061.31,1292.29 1080.31,1235.76 1099.3,1156.45 1118.29,1051.67 1137.28,921.745 1156.27,771.312 1175.27,609.948 1194.26,451.718 1213.25,313.436 1232.24,211.834 1251.23,160.256 1270.22,165.791 1289.22,227.666 1308.21,337.433 1327.2,480.851 1346.19,640.925 1365.18,801.171 1384.17,948.282 1403.17,1073.63 1422.16,1173.47 1441.15,1248.16 1460.14,1300.82 1479.13,1335.87 1498.13,1357.95 1517.12,1371.13 1536.11,1378.58 1555.1,1382.58 1574.09,1384.62 1593.08,1385.61 1612.08,1386.06 1631.07,1386.26 1650.06,1386.34 1669.05,1386.38 1688.04,1386.39 1707.04,1386.39 1726.03,1386.39 1745.02,1386.4 1764.01,1386.4 1783,1386.4 1801.99,1386.4 1820.99,1386.4 1839.98,1386.4 1858.97,1386.4 1877.96,1386.4 1896.95,1386.4 1915.94,1386.4 1934.94,1386.4 1953.93,1386.4 1972.92,1386.4 1991.91,1386.4 2010.9,1386.4 2029.9,1386.4 2048.89,1386.4 2067.88,1386.4 2086.87,1386.4 2105.86,1386.4 2124.85,1386.4 2143.85,1386.4 2162.84,1386.4 2181.83,1386.4 2200.82,1386.4 2219.81,1386.4 2238.81,1386.4 2257.8,1386.4 2276.79,1386.4 2295.78,1386.4 "/>
<path clip-path="url(#clip650)" d="M1694.27 322.316 L2285.65 322.316 L2285.65 166.796 L1694.27 166.796  Z" fill="#000000" fill-rule="evenodd" fill-opacity="0"/>
<polyline clip-path="url(#clip650)" style="stroke:#ffffff; stroke-linecap:round; stroke-linejoin:round; stroke-width:4; stroke-opacity:1; fill:none" points="1694.27,322.316 2285.65,322.316 2285.65,166.796 1694.27,166.796 1694.27,322.316 "/>
<polyline clip-path="url(#clip650)" style="stroke:#009af9; stroke-linecap:round; stroke-linejoin:round; stroke-width:4; stroke-opacity:1; fill:none" points="1716.64,218.636 1850.85,218.636 "/>
<path clip-path="url(#clip650)" d="M1885.07 219.504 Q1881.73 219.504 1879.81 221.286 Q1877.92 223.069 1877.92 226.194 Q1877.92 229.319 1879.81 231.101 Q1881.73 232.883 1885.07 232.883 Q1888.4 232.883 1890.32 231.101 Q1892.24 229.295 1892.24 226.194 Q1892.24 223.069 1890.32 221.286 Q1888.42 219.504 1885.07 219.504 M1880.39 217.513 Q1877.38 216.772 1875.69 214.712 Q1874.03 212.652 1874.03 209.689 Q1874.03 205.546 1876.97 203.138 Q1879.93 200.731 1885.07 200.731 Q1890.23 200.731 1893.17 203.138 Q1896.11 205.546 1896.11 209.689 Q1896.11 212.652 1894.42 214.712 Q1892.75 216.772 1889.77 217.513 Q1893.15 218.3 1895.02 220.592 Q1896.92 222.883 1896.92 226.194 Q1896.92 231.217 1893.84 233.902 Q1890.79 236.587 1885.07 236.587 Q1879.35 236.587 1876.27 233.902 Q1873.22 231.217 1873.22 226.194 Q1873.22 222.883 1875.11 220.592 Q1877.01 218.3 1880.39 217.513 M1878.68 210.129 Q1878.68 212.814 1880.35 214.319 Q1882.04 215.823 1885.07 215.823 Q1888.08 215.823 1889.77 214.319 Q1891.48 212.814 1891.48 210.129 Q1891.48 207.444 1889.77 205.939 Q1888.08 204.434 1885.07 204.434 Q1882.04 204.434 1880.35 205.939 Q1878.68 207.444 1878.68 210.129 Z" fill="#ffffff" fill-rule="evenodd" fill-opacity="1" /><path clip-path="url(#clip650)" d="M1926.18 209.99 L1916.8 222.606 L1926.66 235.916 L1921.64 235.916 L1914.1 225.731 L1906.55 235.916 L1901.53 235.916 L1911.6 222.351 L1902.38 209.99 L1907.41 209.99 L1914.28 219.226 L1921.16 209.99 L1926.18 209.99 Z" fill="#ffffff" fill-rule="evenodd" fill-opacity="1" /><path clip-path="url(#clip650)" d="M1964.28 210.754 L1964.28 214.782 Q1962.47 213.856 1960.53 213.393 Q1958.59 212.93 1956.5 212.93 Q1953.33 212.93 1951.73 213.902 Q1950.16 214.874 1950.16 216.819 Q1950.16 218.3 1951.29 219.157 Q1952.43 219.99 1955.85 220.754 L1957.31 221.078 Q1961.85 222.05 1963.75 223.832 Q1965.67 225.592 1965.67 228.763 Q1965.67 232.374 1962.8 234.481 Q1959.95 236.587 1954.95 236.587 Q1952.87 236.587 1950.6 236.17 Q1948.35 235.777 1945.85 234.967 L1945.85 230.569 Q1948.22 231.795 1950.51 232.42 Q1952.8 233.022 1955.04 233.022 Q1958.05 233.022 1959.67 232.004 Q1961.29 230.962 1961.29 229.087 Q1961.29 227.351 1960.11 226.425 Q1958.96 225.499 1955 224.643 L1953.52 224.295 Q1949.56 223.462 1947.8 221.749 Q1946.04 220.013 1946.04 217.004 Q1946.04 213.346 1948.63 211.356 Q1951.22 209.365 1955.99 209.365 Q1958.35 209.365 1960.44 209.712 Q1962.52 210.059 1964.28 210.754 Z" fill="#ffffff" fill-rule="evenodd" fill-opacity="1" /><path clip-path="url(#clip650)" d="M1984.23 222.883 Q1979.07 222.883 1977.08 224.064 Q1975.09 225.244 1975.09 228.092 Q1975.09 230.36 1976.57 231.703 Q1978.08 233.022 1980.65 233.022 Q1984.19 233.022 1986.32 230.522 Q1988.47 227.999 1988.47 223.832 L1988.47 222.883 L1984.23 222.883 M1992.73 221.124 L1992.73 235.916 L1988.47 235.916 L1988.47 231.981 Q1987.01 234.342 1984.84 235.476 Q1982.66 236.587 1979.51 236.587 Q1975.53 236.587 1973.17 234.365 Q1970.83 232.119 1970.83 228.369 Q1970.83 223.994 1973.75 221.772 Q1976.69 219.55 1982.5 219.55 L1988.47 219.55 L1988.47 219.133 Q1988.47 216.194 1986.53 214.596 Q1984.6 212.976 1981.11 212.976 Q1978.89 212.976 1976.78 213.508 Q1974.67 214.041 1972.73 215.106 L1972.73 211.17 Q1975.07 210.268 1977.27 209.828 Q1979.47 209.365 1981.55 209.365 Q1987.17 209.365 1989.95 212.282 Q1992.73 215.198 1992.73 221.124 Z" fill="#ffffff" fill-rule="evenodd" fill-opacity="1" /><path clip-path="url(#clip650)" d="M2021.69 214.967 Q2023.28 212.096 2025.51 210.731 Q2027.73 209.365 2030.74 209.365 Q2034.79 209.365 2036.99 212.212 Q2039.19 215.036 2039.19 220.268 L2039.19 235.916 L2034.91 235.916 L2034.91 220.407 Q2034.91 216.68 2033.59 214.874 Q2032.27 213.069 2029.56 213.069 Q2026.25 213.069 2024.33 215.268 Q2022.41 217.467 2022.41 221.263 L2022.41 235.916 L2018.12 235.916 L2018.12 220.407 Q2018.12 216.657 2016.8 214.874 Q2015.48 213.069 2012.73 213.069 Q2009.47 213.069 2007.54 215.291 Q2005.62 217.49 2005.62 221.263 L2005.62 235.916 L2001.34 235.916 L2001.34 209.99 L2005.62 209.99 L2005.62 214.018 Q2007.08 211.633 2009.12 210.499 Q2011.16 209.365 2013.96 209.365 Q2016.78 209.365 2018.75 210.8 Q2020.74 212.235 2021.69 214.967 Z" fill="#ffffff" fill-rule="evenodd" fill-opacity="1" /><path clip-path="url(#clip650)" d="M2051.8 232.027 L2051.8 245.777 L2047.52 245.777 L2047.52 209.99 L2051.8 209.99 L2051.8 213.925 Q2053.15 211.61 2055.18 210.499 Q2057.24 209.365 2060.09 209.365 Q2064.81 209.365 2067.75 213.115 Q2070.72 216.865 2070.72 222.976 Q2070.72 229.087 2067.75 232.837 Q2064.81 236.587 2060.09 236.587 Q2057.24 236.587 2055.18 235.476 Q2053.15 234.342 2051.8 232.027 M2066.29 222.976 Q2066.29 218.277 2064.35 215.615 Q2062.43 212.93 2059.05 212.93 Q2055.67 212.93 2053.72 215.615 Q2051.8 218.277 2051.8 222.976 Q2051.8 227.675 2053.72 230.36 Q2055.67 233.022 2059.05 233.022 Q2062.43 233.022 2064.35 230.36 Q2066.29 227.675 2066.29 222.976 Z" fill="#ffffff" fill-rule="evenodd" fill-opacity="1" /><path clip-path="url(#clip650)" d="M2077.78 199.897 L2082.03 199.897 L2082.03 235.916 L2077.78 235.916 L2077.78 199.897 Z" fill="#ffffff" fill-rule="evenodd" fill-opacity="1" /><path clip-path="url(#clip650)" d="M2113.12 221.888 L2113.12 223.971 L2093.54 223.971 Q2093.82 228.369 2096.18 230.684 Q2098.56 232.976 2102.8 232.976 Q2105.25 232.976 2107.54 232.374 Q2109.86 231.772 2112.13 230.569 L2112.13 234.596 Q2109.84 235.568 2107.43 236.078 Q2105.02 236.587 2102.54 236.587 Q2096.34 236.587 2092.71 232.976 Q2089.09 229.365 2089.09 223.207 Q2089.09 216.842 2092.52 213.115 Q2095.97 209.365 2101.8 209.365 Q2107.03 209.365 2110.07 212.745 Q2113.12 216.101 2113.12 221.888 M2108.86 220.638 Q2108.82 217.143 2106.9 215.059 Q2105 212.976 2101.85 212.976 Q2098.28 212.976 2096.13 214.99 Q2094 217.004 2093.68 220.661 L2108.86 220.638 Z" fill="#ffffff" fill-rule="evenodd" fill-opacity="1" /><path clip-path="url(#clip650)" d="M2137.17 213.925 L2137.17 199.897 L2141.43 199.897 L2141.43 235.916 L2137.17 235.916 L2137.17 232.027 Q2135.83 234.342 2133.77 235.476 Q2131.73 236.587 2128.86 236.587 Q2124.16 236.587 2121.2 232.837 Q2118.26 229.087 2118.26 222.976 Q2118.26 216.865 2121.2 213.115 Q2124.16 209.365 2128.86 209.365 Q2131.73 209.365 2133.77 210.499 Q2135.83 211.61 2137.17 213.925 M2122.66 222.976 Q2122.66 227.675 2124.58 230.36 Q2126.52 233.022 2129.9 233.022 Q2133.28 233.022 2135.23 230.36 Q2137.17 227.675 2137.17 222.976 Q2137.17 218.277 2135.23 215.615 Q2133.28 212.93 2129.9 212.93 Q2126.52 212.93 2124.58 215.615 Q2122.66 218.277 2122.66 222.976 Z" fill="#ffffff" fill-rule="evenodd" fill-opacity="1" /><path clip-path="url(#clip650)" d="M2182.33 213.925 L2182.33 199.897 L2186.59 199.897 L2186.59 235.916 L2182.33 235.916 L2182.33 232.027 Q2180.99 234.342 2178.93 235.476 Q2176.9 236.587 2174.02 236.587 Q2169.33 236.587 2166.36 232.837 Q2163.42 229.087 2163.42 222.976 Q2163.42 216.865 2166.36 213.115 Q2169.33 209.365 2174.02 209.365 Q2176.9 209.365 2178.93 210.499 Q2180.99 211.61 2182.33 213.925 M2167.82 222.976 Q2167.82 227.675 2169.74 230.36 Q2171.69 233.022 2175.07 233.022 Q2178.45 233.022 2180.39 230.36 Q2182.33 227.675 2182.33 222.976 Q2182.33 218.277 2180.39 215.615 Q2178.45 212.93 2175.07 212.93 Q2171.69 212.93 2169.74 215.615 Q2167.82 218.277 2167.82 222.976 Z" fill="#ffffff" fill-rule="evenodd" fill-opacity="1" /><path clip-path="url(#clip650)" d="M2207.15 222.883 Q2201.99 222.883 2200 224.064 Q2198.01 225.244 2198.01 228.092 Q2198.01 230.36 2199.49 231.703 Q2200.99 233.022 2203.56 233.022 Q2207.1 233.022 2209.23 230.522 Q2211.39 227.999 2211.39 223.832 L2211.39 222.883 L2207.15 222.883 M2215.64 221.124 L2215.64 235.916 L2211.39 235.916 L2211.39 231.981 Q2209.93 234.342 2207.75 235.476 Q2205.58 236.587 2202.43 236.587 Q2198.45 236.587 2196.08 234.365 Q2193.75 232.119 2193.75 228.369 Q2193.75 223.994 2196.66 221.772 Q2199.6 219.55 2205.41 219.55 L2211.39 219.55 L2211.39 219.133 Q2211.39 216.194 2209.44 214.596 Q2207.52 212.976 2204.02 212.976 Q2201.8 212.976 2199.7 213.508 Q2197.59 214.041 2195.64 215.106 L2195.64 211.17 Q2197.98 210.268 2200.18 209.828 Q2202.38 209.365 2204.46 209.365 Q2210.09 209.365 2212.87 212.282 Q2215.64 215.198 2215.64 221.124 Z" fill="#ffffff" fill-rule="evenodd" fill-opacity="1" /><path clip-path="url(#clip650)" d="M2228.63 202.629 L2228.63 209.99 L2237.4 209.99 L2237.4 213.3 L2228.63 213.3 L2228.63 227.374 Q2228.63 230.545 2229.49 231.448 Q2230.37 232.351 2233.03 232.351 L2237.4 232.351 L2237.4 235.916 L2233.03 235.916 Q2228.1 235.916 2226.22 234.087 Q2224.35 232.235 2224.35 227.374 L2224.35 213.3 L2221.22 213.3 L2221.22 209.99 L2224.35 209.99 L2224.35 202.629 L2228.63 202.629 Z" fill="#ffffff" fill-rule="evenodd" fill-opacity="1" /><path clip-path="url(#clip650)" d="M2254.79 222.883 Q2249.63 222.883 2247.64 224.064 Q2245.64 225.244 2245.64 228.092 Q2245.64 230.36 2247.13 231.703 Q2248.63 233.022 2251.2 233.022 Q2254.74 233.022 2256.87 230.522 Q2259.02 227.999 2259.02 223.832 L2259.02 222.883 L2254.79 222.883 M2263.28 221.124 L2263.28 235.916 L2259.02 235.916 L2259.02 231.981 Q2257.57 234.342 2255.39 235.476 Q2253.21 236.587 2250.07 236.587 Q2246.08 236.587 2243.72 234.365 Q2241.39 232.119 2241.39 228.369 Q2241.39 223.994 2244.3 221.772 Q2247.24 219.55 2253.05 219.55 L2259.02 219.55 L2259.02 219.133 Q2259.02 216.194 2257.08 214.596 Q2255.16 212.976 2251.66 212.976 Q2249.44 212.976 2247.33 213.508 Q2245.23 214.041 2243.28 215.106 L2243.28 211.17 Q2245.62 210.268 2247.82 209.828 Q2250.02 209.365 2252.1 209.365 Q2257.73 209.365 2260.51 212.282 Q2263.28 215.198 2263.28 221.124 Z" fill="#ffffff" fill-rule="evenodd" fill-opacity="1" /><polyline clip-path="url(#clip650)" style="stroke:#e26f46; stroke-linecap:round; stroke-linejoin:round; stroke-width:4; stroke-opacity:1; fill:none" points="1716.64,270.476 1850.85,270.476 "/>
<path clip-path="url(#clip650)" d="M1898.77 282.825 L1898.77 273.543 L1891.13 273.543 L1891.13 269.7 L1903.4 269.7 L1903.4 284.538 Q1900.69 286.459 1897.43 287.455 Q1894.17 288.427 1890.46 288.427 Q1882.36 288.427 1877.78 283.705 Q1873.22 278.959 1873.22 270.51 Q1873.22 262.038 1877.78 257.316 Q1882.36 252.571 1890.46 252.571 Q1893.84 252.571 1896.87 253.404 Q1899.93 254.237 1902.5 255.858 L1902.5 260.835 Q1899.91 258.636 1896.99 257.524 Q1894.07 256.413 1890.85 256.413 Q1884.51 256.413 1881.32 259.955 Q1878.15 263.497 1878.15 270.51 Q1878.15 277.501 1881.32 281.043 Q1884.51 284.584 1890.85 284.584 Q1893.33 284.584 1895.28 284.168 Q1897.22 283.728 1898.77 282.825 Z" fill="#ffffff" fill-rule="evenodd" fill-opacity="1" /><path clip-path="url(#clip650)" d="M1923.54 274.723 Q1918.38 274.723 1916.39 275.904 Q1914.4 277.084 1914.4 279.932 Q1914.4 282.2 1915.88 283.543 Q1917.38 284.862 1919.95 284.862 Q1923.49 284.862 1925.62 282.362 Q1927.78 279.839 1927.78 275.672 L1927.78 274.723 L1923.54 274.723 M1932.04 272.964 L1932.04 287.756 L1927.78 287.756 L1927.78 283.821 Q1926.32 286.182 1924.14 287.316 Q1921.97 288.427 1918.82 288.427 Q1914.84 288.427 1912.48 286.205 Q1910.14 283.959 1910.14 280.209 Q1910.14 275.834 1913.05 273.612 Q1915.99 271.39 1921.8 271.39 L1927.78 271.39 L1927.78 270.973 Q1927.78 268.034 1925.83 266.436 Q1923.91 264.816 1920.41 264.816 Q1918.19 264.816 1916.09 265.348 Q1913.98 265.881 1912.04 266.946 L1912.04 263.01 Q1914.37 262.108 1916.57 261.668 Q1918.77 261.205 1920.85 261.205 Q1926.48 261.205 1929.26 264.122 Q1932.04 267.038 1932.04 272.964 Z" fill="#ffffff" fill-rule="evenodd" fill-opacity="1" /><path clip-path="url(#clip650)" d="M1940.37 277.524 L1940.37 261.83 L1944.63 261.83 L1944.63 277.362 Q1944.63 281.043 1946.06 282.895 Q1947.5 284.723 1950.37 284.723 Q1953.82 284.723 1955.81 282.524 Q1957.82 280.325 1957.82 276.529 L1957.82 261.83 L1962.08 261.83 L1962.08 287.756 L1957.82 287.756 L1957.82 283.774 Q1956.27 286.135 1954.21 287.293 Q1952.17 288.427 1949.47 288.427 Q1945 288.427 1942.68 285.649 Q1940.37 282.871 1940.37 277.524 M1951.09 261.205 L1951.09 261.205 Z" fill="#ffffff" fill-rule="evenodd" fill-opacity="1" /><path clip-path="url(#clip650)" d="M1987.38 262.594 L1987.38 266.622 Q1985.58 265.696 1983.63 265.233 Q1981.69 264.77 1979.6 264.77 Q1976.43 264.77 1974.84 265.742 Q1973.26 266.714 1973.26 268.659 Q1973.26 270.14 1974.4 270.997 Q1975.53 271.83 1978.96 272.594 L1980.41 272.918 Q1984.95 273.89 1986.85 275.672 Q1988.77 277.432 1988.77 280.603 Q1988.77 284.214 1985.9 286.321 Q1983.05 288.427 1978.05 288.427 Q1975.97 288.427 1973.7 288.01 Q1971.46 287.617 1968.96 286.807 L1968.96 282.409 Q1971.32 283.635 1973.61 284.26 Q1975.9 284.862 1978.15 284.862 Q1981.16 284.862 1982.78 283.844 Q1984.4 282.802 1984.4 280.927 Q1984.4 279.191 1983.22 278.265 Q1982.06 277.339 1978.1 276.483 L1976.62 276.135 Q1972.66 275.302 1970.9 273.589 Q1969.14 271.853 1969.14 268.844 Q1969.14 265.186 1971.73 263.196 Q1974.33 261.205 1979.1 261.205 Q1981.46 261.205 1983.54 261.552 Q1985.62 261.899 1987.38 262.594 Z" fill="#ffffff" fill-rule="evenodd" fill-opacity="1" /><path clip-path="url(#clip650)" d="M2012.08 262.594 L2012.08 266.622 Q2010.28 265.696 2008.33 265.233 Q2006.39 264.77 2004.3 264.77 Q2001.13 264.77 1999.53 265.742 Q1997.96 266.714 1997.96 268.659 Q1997.96 270.14 1999.1 270.997 Q2000.23 271.83 2003.66 272.594 L2005.11 272.918 Q2009.65 273.89 2011.55 275.672 Q2013.47 277.432 2013.47 280.603 Q2013.47 284.214 2010.6 286.321 Q2007.75 288.427 2002.75 288.427 Q2000.67 288.427 1998.4 288.01 Q1996.16 287.617 1993.66 286.807 L1993.66 282.409 Q1996.02 283.635 1998.31 284.26 Q2000.6 284.862 2002.85 284.862 Q2005.85 284.862 2007.47 283.844 Q2009.1 282.802 2009.1 280.927 Q2009.1 279.191 2007.91 278.265 Q2006.76 277.339 2002.8 276.483 L2001.32 276.135 Q1997.36 275.302 1995.6 273.589 Q1993.84 271.853 1993.84 268.844 Q1993.84 265.186 1996.43 263.196 Q1999.03 261.205 2003.79 261.205 Q2006.16 261.205 2008.24 261.552 Q2010.32 261.899 2012.08 262.594 Z" fill="#ffffff" fill-rule="evenodd" fill-opacity="1" /><path clip-path="url(#clip650)" d="M2020.25 261.83 L2024.51 261.83 L2024.51 287.756 L2020.25 287.756 L2020.25 261.83 M2020.25 251.737 L2024.51 251.737 L2024.51 257.131 L2020.25 257.131 L2020.25 251.737 Z" fill="#ffffff" fill-rule="evenodd" fill-opacity="1" /><path clip-path="url(#clip650)" d="M2045.21 274.723 Q2040.04 274.723 2038.05 275.904 Q2036.06 277.084 2036.06 279.932 Q2036.06 282.2 2037.54 283.543 Q2039.05 284.862 2041.62 284.862 Q2045.16 284.862 2047.29 282.362 Q2049.44 279.839 2049.44 275.672 L2049.44 274.723 L2045.21 274.723 M2053.7 272.964 L2053.7 287.756 L2049.44 287.756 L2049.44 283.821 Q2047.98 286.182 2045.81 287.316 Q2043.63 288.427 2040.48 288.427 Q2036.5 288.427 2034.14 286.205 Q2031.8 283.959 2031.8 280.209 Q2031.8 275.834 2034.72 273.612 Q2037.66 271.39 2043.47 271.39 L2049.44 271.39 L2049.44 270.973 Q2049.44 268.034 2047.5 266.436 Q2045.58 264.816 2042.08 264.816 Q2039.86 264.816 2037.75 265.348 Q2035.65 265.881 2033.7 266.946 L2033.7 263.01 Q2036.04 262.108 2038.24 261.668 Q2040.44 261.205 2042.52 261.205 Q2048.15 261.205 2050.92 264.122 Q2053.7 267.038 2053.7 272.964 Z" fill="#ffffff" fill-rule="evenodd" fill-opacity="1" /><path clip-path="url(#clip650)" d="M2084.03 272.108 L2084.03 287.756 L2079.77 287.756 L2079.77 272.247 Q2079.77 268.566 2078.33 266.737 Q2076.9 264.909 2074.03 264.909 Q2070.58 264.909 2068.59 267.108 Q2066.59 269.307 2066.59 273.103 L2066.59 287.756 L2062.31 287.756 L2062.31 261.83 L2066.59 261.83 L2066.59 265.858 Q2068.12 263.52 2070.18 262.362 Q2072.27 261.205 2074.97 261.205 Q2079.44 261.205 2081.73 263.983 Q2084.03 266.737 2084.03 272.108 Z" fill="#ffffff" fill-rule="evenodd" fill-opacity="1" /><path clip-path="url(#clip650)" d="M2120.71 251.737 L2120.71 255.279 L2116.64 255.279 Q2114.35 255.279 2113.45 256.205 Q2112.57 257.131 2112.57 259.538 L2112.57 261.83 L2119.58 261.83 L2119.58 265.14 L2112.57 265.14 L2112.57 287.756 L2108.28 287.756 L2108.28 265.14 L2104.21 265.14 L2104.21 261.83 L2108.28 261.83 L2108.28 260.024 Q2108.28 255.696 2110.3 253.728 Q2112.31 251.737 2116.69 251.737 L2120.71 251.737 Z" fill="#ffffff" fill-rule="evenodd" fill-opacity="1" /><path clip-path="url(#clip650)" d="M2124.28 261.83 L2128.54 261.83 L2128.54 287.756 L2124.28 287.756 L2124.28 261.83 M2124.28 251.737 L2128.54 251.737 L2128.54 257.131 L2124.28 257.131 L2124.28 251.737 Z" fill="#ffffff" fill-rule="evenodd" fill-opacity="1" /><path clip-path="url(#clip650)" d="M2141.66 254.469 L2141.66 261.83 L2150.44 261.83 L2150.44 265.14 L2141.66 265.14 L2141.66 279.214 Q2141.66 282.385 2142.52 283.288 Q2143.4 284.191 2146.06 284.191 L2150.44 284.191 L2150.44 287.756 L2146.06 287.756 Q2141.13 287.756 2139.26 285.927 Q2137.38 284.075 2137.38 279.214 L2137.38 265.14 L2134.26 265.14 L2134.26 261.83 L2137.38 261.83 L2137.38 254.469 L2141.66 254.469 Z" fill="#ffffff" fill-rule="evenodd" fill-opacity="1" /></svg>
