<?xml version="1.0" encoding="utf-8"?>
<svg xmlns="http://www.w3.org/2000/svg" xmlns:xlink="http://www.w3.org/1999/xlink" width="600" height="400" viewBox="0 0 2400 1600">
<defs>
  <clipPath id="clip440">
    <rect x="0" y="0" width="2400" height="1600"/>
  </clipPath>
</defs>
<path clip-path="url(#clip440)" d="M0 1600 L2400 1600 L2400 0 L0 0  Z" fill="#000000" fill-rule="evenodd" fill-opacity="0"/>
<defs>
  <clipPath id="clip441">
    <rect x="480" y="0" width="1681" height="1600"/>
  </clipPath>
</defs>
<path clip-path="url(#clip440)" d="M249.056 1423.18 L2352.76 1423.18 L2352.76 123.472 L249.056 123.472  Z" fill="#000000" fill-rule="evenodd" fill-opacity="0"/>
<defs>
  <clipPath id="clip442">
    <rect x="249" y="123" width="2105" height="1301"/>
  </clipPath>
</defs>
<polyline clip-path="url(#clip442)" style="stroke:#ffffff; stroke-linecap:round; stroke-linejoin:round; stroke-width:2; stroke-opacity:0.1; fill:none" points="564.675,1423.18 564.675,123.472 "/>
<polyline clip-path="url(#clip442)" style="stroke:#ffffff; stroke-linecap:round; stroke-linejoin:round; stroke-width:2; stroke-opacity:0.1; fill:none" points="884.775,1423.18 884.775,123.472 "/>
<polyline clip-path="url(#clip442)" style="stroke:#ffffff; stroke-linecap:round; stroke-linejoin:round; stroke-width:2; stroke-opacity:0.1; fill:none" points="1204.88,1423.18 1204.88,123.472 "/>
<polyline clip-path="url(#clip442)" style="stroke:#ffffff; stroke-linecap:round; stroke-linejoin:round; stroke-width:2; stroke-opacity:0.1; fill:none" points="1524.98,1423.18 1524.98,123.472 "/>
<polyline clip-path="url(#clip442)" style="stroke:#ffffff; stroke-linecap:round; stroke-linejoin:round; stroke-width:2; stroke-opacity:0.1; fill:none" points="1845.08,1423.18 1845.08,123.472 "/>
<polyline clip-path="url(#clip442)" style="stroke:#ffffff; stroke-linecap:round; stroke-linejoin:round; stroke-width:2; stroke-opacity:0.1; fill:none" points="2165.18,1423.18 2165.18,123.472 "/>
<polyline clip-path="url(#clip440)" style="stroke:#ffffff; stroke-linecap:round; stroke-linejoin:round; stroke-width:4; stroke-opacity:1; fill:none" points="249.056,1423.18 2352.76,1423.18 "/>
<polyline clip-path="url(#clip440)" style="stroke:#ffffff; stroke-linecap:round; stroke-linejoin:round; stroke-width:4; stroke-opacity:1; fill:none" points="564.675,1423.18 564.675,1404.28 "/>
<polyline clip-path="url(#clip440)" style="stroke:#ffffff; stroke-linecap:round; stroke-linejoin:round; stroke-width:4; stroke-opacity:1; fill:none" points="884.775,1423.18 884.775,1404.28 "/>
<polyline clip-path="url(#clip440)" style="stroke:#ffffff; stroke-linecap:round; stroke-linejoin:round; stroke-width:4; stroke-opacity:1; fill:none" points="1204.88,1423.18 1204.88,1404.28 "/>
<polyline clip-path="url(#clip440)" style="stroke:#ffffff; stroke-linecap:round; stroke-linejoin:round; stroke-width:4; stroke-opacity:1; fill:none" points="1524.98,1423.18 1524.98,1404.28 "/>
<polyline clip-path="url(#clip440)" style="stroke:#ffffff; stroke-linecap:round; stroke-linejoin:round; stroke-width:4; stroke-opacity:1; fill:none" points="1845.08,1423.18 1845.08,1404.28 "/>
<polyline clip-path="url(#clip440)" style="stroke:#ffffff; stroke-linecap:round; stroke-linejoin:round; stroke-width:4; stroke-opacity:1; fill:none" points="2165.18,1423.18 2165.18,1404.28 "/>
<path clip-path="url(#clip440)" d="M554.953 1451.02 L573.309 1451.02 L573.309 1454.96 L559.235 1454.96 L559.235 1463.43 Q560.254 1463.08 561.272 1462.92 Q562.291 1462.73 563.309 1462.73 Q569.096 1462.73 572.476 1465.9 Q575.855 1469.08 575.855 1474.49 Q575.855 1480.07 572.383 1483.17 Q568.911 1486.25 562.592 1486.25 Q560.416 1486.25 558.147 1485.88 Q555.902 1485.51 553.494 1484.77 L553.494 1480.07 Q555.578 1481.2 557.8 1481.76 Q560.022 1482.32 562.499 1482.32 Q566.504 1482.32 568.842 1480.21 Q571.18 1478.1 571.18 1474.49 Q571.18 1470.88 568.842 1468.77 Q566.504 1466.67 562.499 1466.67 Q560.624 1466.67 558.749 1467.08 Q556.897 1467.5 554.953 1468.38 L554.953 1451.02 Z" fill="#ffffff" fill-rule="evenodd" fill-opacity="1" /><path clip-path="url(#clip440)" d="M859.463 1481.64 L867.102 1481.64 L867.102 1455.28 L858.792 1456.95 L858.792 1452.69 L867.056 1451.02 L871.731 1451.02 L871.731 1481.64 L879.37 1481.64 L879.37 1485.58 L859.463 1485.58 L859.463 1481.64 Z" fill="#ffffff" fill-rule="evenodd" fill-opacity="1" /><path clip-path="url(#clip440)" d="M898.815 1454.1 Q895.204 1454.1 893.375 1457.66 Q891.569 1461.2 891.569 1468.33 Q891.569 1475.44 893.375 1479.01 Q895.204 1482.55 898.815 1482.55 Q902.449 1482.55 904.254 1479.01 Q906.083 1475.44 906.083 1468.33 Q906.083 1461.2 904.254 1457.66 Q902.449 1454.1 898.815 1454.1 M898.815 1450.39 Q904.625 1450.39 907.68 1455 Q910.759 1459.58 910.759 1468.33 Q910.759 1477.06 907.68 1481.67 Q904.625 1486.25 898.815 1486.25 Q893.004 1486.25 889.926 1481.67 Q886.87 1477.06 886.87 1468.33 Q886.87 1459.58 889.926 1455 Q893.004 1450.39 898.815 1450.39 Z" fill="#ffffff" fill-rule="evenodd" fill-opacity="1" /><path clip-path="url(#clip440)" d="M1180.06 1481.64 L1187.7 1481.64 L1187.7 1455.28 L1179.39 1456.95 L1179.39 1452.69 L1187.65 1451.02 L1192.33 1451.02 L1192.33 1481.64 L1199.97 1481.64 L1199.97 1485.58 L1180.06 1485.58 L1180.06 1481.64 Z" fill="#ffffff" fill-rule="evenodd" fill-opacity="1" /><path clip-path="url(#clip440)" d="M1209.46 1451.02 L1227.82 1451.02 L1227.82 1454.96 L1213.74 1454.96 L1213.74 1463.43 Q1214.76 1463.08 1215.78 1462.92 Q1216.8 1462.73 1217.82 1462.73 Q1223.6 1462.73 1226.98 1465.9 Q1230.36 1469.08 1230.36 1474.49 Q1230.36 1480.07 1226.89 1483.17 Q1223.42 1486.25 1217.1 1486.25 Q1214.92 1486.25 1212.65 1485.88 Q1210.41 1485.51 1208 1484.77 L1208 1480.07 Q1210.08 1481.2 1212.31 1481.76 Q1214.53 1482.32 1217.01 1482.32 Q1221.01 1482.32 1223.35 1480.21 Q1225.69 1478.1 1225.69 1474.49 Q1225.69 1470.88 1223.35 1468.77 Q1221.01 1466.67 1217.01 1466.67 Q1215.13 1466.67 1213.26 1467.08 Q1211.4 1467.5 1209.46 1468.38 L1209.46 1451.02 Z" fill="#ffffff" fill-rule="evenodd" fill-opacity="1" /><path clip-path="url(#clip440)" d="M1503.75 1481.64 L1520.07 1481.64 L1520.07 1485.58 L1498.12 1485.58 L1498.12 1481.64 Q1500.79 1478.89 1505.37 1474.26 Q1509.98 1469.61 1511.16 1468.27 Q1513.4 1465.74 1514.28 1464.01 Q1515.18 1462.25 1515.18 1460.56 Q1515.18 1457.8 1513.24 1456.07 Q1511.32 1454.33 1508.22 1454.33 Q1506.02 1454.33 1503.56 1455.09 Q1501.13 1455.86 1498.36 1457.41 L1498.36 1452.69 Q1501.18 1451.55 1503.63 1450.97 Q1506.09 1450.39 1508.12 1450.39 Q1513.49 1450.39 1516.69 1453.08 Q1519.88 1455.77 1519.88 1460.26 Q1519.88 1462.39 1519.07 1464.31 Q1518.29 1466.2 1516.18 1468.8 Q1515.6 1469.47 1512.5 1472.69 Q1509.4 1475.88 1503.75 1481.64 Z" fill="#ffffff" fill-rule="evenodd" fill-opacity="1" /><path clip-path="url(#clip440)" d="M1539.88 1454.1 Q1536.27 1454.1 1534.44 1457.66 Q1532.64 1461.2 1532.64 1468.33 Q1532.64 1475.44 1534.44 1479.01 Q1536.27 1482.55 1539.88 1482.55 Q1543.52 1482.55 1545.32 1479.01 Q1547.15 1475.44 1547.15 1468.33 Q1547.15 1461.2 1545.32 1457.66 Q1543.52 1454.1 1539.88 1454.1 M1539.88 1450.39 Q1545.69 1450.39 1548.75 1455 Q1551.83 1459.58 1551.83 1468.33 Q1551.83 1477.06 1548.75 1481.67 Q1545.69 1486.25 1539.88 1486.25 Q1534.07 1486.25 1530.99 1481.67 Q1527.94 1477.06 1527.94 1468.33 Q1527.94 1459.58 1530.99 1455 Q1534.07 1450.39 1539.88 1450.39 Z" fill="#ffffff" fill-rule="evenodd" fill-opacity="1" /><path clip-path="url(#clip440)" d="M1824.35 1481.64 L1840.67 1481.64 L1840.67 1485.58 L1818.72 1485.58 L1818.72 1481.64 Q1821.38 1478.89 1825.97 1474.26 Q1830.57 1469.61 1831.75 1468.27 Q1834 1465.74 1834.88 1464.01 Q1835.78 1462.25 1835.78 1460.56 Q1835.78 1457.8 1833.84 1456.07 Q1831.92 1454.33 1828.82 1454.33 Q1826.62 1454.33 1824.16 1455.09 Q1821.73 1455.86 1818.95 1457.41 L1818.95 1452.69 Q1821.78 1451.55 1824.23 1450.97 Q1826.69 1450.39 1828.72 1450.39 Q1834.09 1450.39 1837.29 1453.08 Q1840.48 1455.77 1840.48 1460.26 Q1840.48 1462.39 1839.67 1464.31 Q1838.88 1466.2 1836.78 1468.8 Q1836.2 1469.47 1833.1 1472.69 Q1830 1475.88 1824.35 1481.64 Z" fill="#ffffff" fill-rule="evenodd" fill-opacity="1" /><path clip-path="url(#clip440)" d="M1850.53 1451.02 L1868.88 1451.02 L1868.88 1454.96 L1854.81 1454.96 L1854.81 1463.43 Q1855.83 1463.08 1856.85 1462.92 Q1857.87 1462.73 1858.88 1462.73 Q1864.67 1462.73 1868.05 1465.9 Q1871.43 1469.08 1871.43 1474.49 Q1871.43 1480.07 1867.96 1483.17 Q1864.49 1486.25 1858.17 1486.25 Q1855.99 1486.25 1853.72 1485.88 Q1851.48 1485.51 1849.07 1484.77 L1849.07 1480.07 Q1851.15 1481.2 1853.38 1481.76 Q1855.6 1482.32 1858.07 1482.32 Q1862.08 1482.32 1864.42 1480.21 Q1866.75 1478.1 1866.75 1474.49 Q1866.75 1470.88 1864.42 1468.77 Q1862.08 1466.67 1858.07 1466.67 Q1856.2 1466.67 1854.32 1467.08 Q1852.47 1467.5 1850.53 1468.38 L1850.53 1451.02 Z" fill="#ffffff" fill-rule="evenodd" fill-opacity="1" /><path clip-path="url(#clip440)" d="M2154.02 1466.95 Q2157.38 1467.66 2159.25 1469.93 Q2161.15 1472.2 2161.15 1475.53 Q2161.15 1480.65 2157.63 1483.45 Q2154.11 1486.25 2147.63 1486.25 Q2145.45 1486.25 2143.14 1485.81 Q2140.85 1485.39 2138.39 1484.54 L2138.39 1480.02 Q2140.34 1481.16 2142.65 1481.74 Q2144.97 1482.32 2147.49 1482.32 Q2151.89 1482.32 2154.18 1480.58 Q2156.5 1478.84 2156.5 1475.53 Q2156.5 1472.48 2154.34 1470.77 Q2152.21 1469.03 2148.39 1469.03 L2144.37 1469.03 L2144.37 1465.19 L2148.58 1465.19 Q2152.03 1465.19 2153.86 1463.82 Q2155.69 1462.43 2155.69 1459.84 Q2155.69 1457.18 2153.79 1455.77 Q2151.91 1454.33 2148.39 1454.33 Q2146.47 1454.33 2144.27 1454.75 Q2142.08 1455.16 2139.44 1456.04 L2139.44 1451.88 Q2142.1 1451.14 2144.41 1450.77 Q2146.75 1450.39 2148.81 1450.39 Q2154.14 1450.39 2157.24 1452.83 Q2160.34 1455.23 2160.34 1459.35 Q2160.34 1462.22 2158.7 1464.21 Q2157.05 1466.18 2154.02 1466.95 Z" fill="#ffffff" fill-rule="evenodd" fill-opacity="1" /><path clip-path="url(#clip440)" d="M2180.01 1454.1 Q2176.4 1454.1 2174.58 1457.66 Q2172.77 1461.2 2172.77 1468.33 Q2172.77 1475.44 2174.58 1479.01 Q2176.4 1482.55 2180.01 1482.55 Q2183.65 1482.55 2185.45 1479.01 Q2187.28 1475.44 2187.28 1468.33 Q2187.28 1461.2 2185.45 1457.66 Q2183.65 1454.1 2180.01 1454.1 M2180.01 1450.39 Q2185.83 1450.39 2188.88 1455 Q2191.96 1459.58 2191.96 1468.33 Q2191.96 1477.06 2188.88 1481.67 Q2185.83 1486.25 2180.01 1486.25 Q2174.2 1486.25 2171.13 1481.67 Q2168.07 1477.06 2168.07 1468.33 Q2168.07 1459.58 2171.13 1455 Q2174.2 1450.39 2180.01 1450.39 Z" fill="#ffffff" fill-rule="evenodd" fill-opacity="1" /><path clip-path="url(#clip440)" d="M1210.31 1524.18 L1210.31 1530.96 Q1207.06 1527.94 1203.37 1526.44 Q1199.71 1524.95 1195.57 1524.95 Q1187.42 1524.95 1183.09 1529.95 Q1178.76 1534.91 1178.76 1544.33 Q1178.76 1553.72 1183.09 1558.72 Q1187.42 1563.68 1195.57 1563.68 Q1199.71 1563.68 1203.37 1562.19 Q1207.06 1560.69 1210.31 1557.67 L1210.31 1564.38 Q1206.93 1566.68 1203.14 1567.82 Q1199.39 1568.97 1195.19 1568.97 Q1184.4 1568.97 1178.19 1562.38 Q1171.98 1555.76 1171.98 1544.33 Q1171.98 1532.87 1178.19 1526.28 Q1184.4 1519.66 1195.19 1519.66 Q1199.45 1519.66 1203.21 1520.81 Q1207 1521.92 1210.31 1524.18 Z" fill="#ffffff" fill-rule="evenodd" fill-opacity="1" /><path clip-path="url(#clip440)" d="M1249.61 1546.53 L1249.61 1568.04 L1243.76 1568.04 L1243.76 1546.72 Q1243.76 1541.66 1241.78 1539.14 Q1239.81 1536.63 1235.86 1536.63 Q1231.12 1536.63 1228.38 1539.65 Q1225.65 1542.68 1225.65 1547.9 L1225.65 1568.04 L1219.76 1568.04 L1219.76 1518.52 L1225.65 1518.52 L1225.65 1537.93 Q1227.75 1534.72 1230.58 1533.13 Q1233.45 1531.54 1237.17 1531.54 Q1243.31 1531.54 1246.46 1535.36 Q1249.61 1539.14 1249.61 1546.53 Z" fill="#ffffff" fill-rule="evenodd" fill-opacity="1" /><path clip-path="url(#clip440)" d="M1277.5 1550.12 Q1270.4 1550.12 1267.66 1551.75 Q1264.92 1553.37 1264.92 1557.29 Q1264.92 1560.4 1266.96 1562.25 Q1269.03 1564.07 1272.56 1564.07 Q1277.43 1564.07 1280.36 1560.63 Q1283.32 1557.16 1283.32 1551.43 L1283.32 1550.12 L1277.5 1550.12 M1289.18 1547.71 L1289.18 1568.04 L1283.32 1568.04 L1283.32 1562.63 Q1281.32 1565.88 1278.32 1567.44 Q1275.33 1568.97 1271 1568.97 Q1265.53 1568.97 1262.28 1565.91 Q1259.07 1562.82 1259.07 1557.67 Q1259.07 1551.65 1263.08 1548.6 Q1267.12 1545.54 1275.11 1545.54 L1283.32 1545.54 L1283.32 1544.97 Q1283.32 1540.93 1280.65 1538.73 Q1278.01 1536.5 1273.2 1536.5 Q1270.14 1536.5 1267.25 1537.23 Q1264.35 1537.97 1261.68 1539.43 L1261.68 1534.02 Q1264.89 1532.78 1267.92 1532.17 Q1270.94 1531.54 1273.8 1531.54 Q1281.54 1531.54 1285.36 1535.55 Q1289.18 1539.56 1289.18 1547.71 Z" fill="#ffffff" fill-rule="evenodd" fill-opacity="1" /><path clip-path="url(#clip440)" d="M1330.87 1546.53 L1330.87 1568.04 L1325.02 1568.04 L1325.02 1546.72 Q1325.02 1541.66 1323.04 1539.14 Q1321.07 1536.63 1317.12 1536.63 Q1312.38 1536.63 1309.64 1539.65 Q1306.91 1542.68 1306.91 1547.9 L1306.91 1568.04 L1301.02 1568.04 L1301.02 1532.4 L1306.91 1532.4 L1306.91 1537.93 Q1309.01 1534.72 1311.84 1533.13 Q1314.7 1531.54 1318.43 1531.54 Q1324.57 1531.54 1327.72 1535.36 Q1330.87 1539.14 1330.87 1546.53 Z" fill="#ffffff" fill-rule="evenodd" fill-opacity="1" /><path clip-path="url(#clip440)" d="M1372.19 1546.53 L1372.19 1568.04 L1366.33 1568.04 L1366.33 1546.72 Q1366.33 1541.66 1364.36 1539.14 Q1362.38 1536.63 1358.44 1536.63 Q1353.69 1536.63 1350.96 1539.65 Q1348.22 1542.68 1348.22 1547.9 L1348.22 1568.04 L1342.33 1568.04 L1342.33 1532.4 L1348.22 1532.4 L1348.22 1537.93 Q1350.32 1534.72 1353.15 1533.13 Q1356.02 1531.54 1359.74 1531.54 Q1365.88 1531.54 1369.03 1535.36 Q1372.19 1539.14 1372.19 1546.53 Z" fill="#ffffff" fill-rule="evenodd" fill-opacity="1" /><path clip-path="url(#clip440)" d="M1414.36 1548.76 L1414.36 1551.62 L1387.43 1551.62 Q1387.81 1557.67 1391.06 1560.85 Q1394.34 1564 1400.16 1564 Q1403.54 1564 1406.69 1563.17 Q1409.87 1562.35 1412.99 1560.69 L1412.99 1566.23 Q1409.84 1567.57 1406.53 1568.27 Q1403.22 1568.97 1399.81 1568.97 Q1391.28 1568.97 1386.29 1564 Q1381.32 1559.04 1381.32 1550.57 Q1381.32 1541.82 1386.03 1536.69 Q1390.77 1531.54 1398.79 1531.54 Q1405.99 1531.54 1410.16 1536.18 Q1414.36 1540.8 1414.36 1548.76 M1408.5 1547.04 Q1408.44 1542.23 1405.8 1539.37 Q1403.19 1536.5 1398.86 1536.5 Q1393.96 1536.5 1391 1539.27 Q1388.07 1542.04 1387.62 1547.07 L1408.5 1547.04 Z" fill="#ffffff" fill-rule="evenodd" fill-opacity="1" /><path clip-path="url(#clip440)" d="M1423.97 1518.52 L1429.83 1518.52 L1429.83 1568.04 L1423.97 1568.04 L1423.97 1518.52 Z" fill="#ffffff" fill-rule="evenodd" fill-opacity="1" /><polyline clip-path="url(#clip442)" style="stroke:#ffffff; stroke-linecap:round; stroke-linejoin:round; stroke-width:2; stroke-opacity:0.1; fill:none" points="249.056,1373.2 2352.76,1373.2 "/>
<polyline clip-path="url(#clip442)" style="stroke:#ffffff; stroke-linecap:round; stroke-linejoin:round; stroke-width:2; stroke-opacity:0.1; fill:none" points="249.056,1156.93 2352.76,1156.93 "/>
<polyline clip-path="url(#clip442)" style="stroke:#ffffff; stroke-linecap:round; stroke-linejoin:round; stroke-width:2; stroke-opacity:0.1; fill:none" points="249.056,940.667 2352.76,940.667 "/>
<polyline clip-path="url(#clip442)" style="stroke:#ffffff; stroke-linecap:round; stroke-linejoin:round; stroke-width:2; stroke-opacity:0.1; fill:none" points="249.056,724.401 2352.76,724.401 "/>
<polyline clip-path="url(#clip442)" style="stroke:#ffffff; stroke-linecap:round; stroke-linejoin:round; stroke-width:2; stroke-opacity:0.1; fill:none" points="249.056,508.134 2352.76,508.134 "/>
<polyline clip-path="url(#clip442)" style="stroke:#ffffff; stroke-linecap:round; stroke-linejoin:round; stroke-width:2; stroke-opacity:0.1; fill:none" points="249.056,291.867 2352.76,291.867 "/>
<polyline clip-path="url(#clip440)" style="stroke:#ffffff; stroke-linecap:round; stroke-linejoin:round; stroke-width:4; stroke-opacity:1; fill:none" points="249.056,1423.18 249.056,123.472 "/>
<polyline clip-path="url(#clip440)" style="stroke:#ffffff; stroke-linecap:round; stroke-linejoin:round; stroke-width:4; stroke-opacity:1; fill:none" points="249.056,1373.2 267.954,1373.2 "/>
<polyline clip-path="url(#clip440)" style="stroke:#ffffff; stroke-linecap:round; stroke-linejoin:round; stroke-width:4; stroke-opacity:1; fill:none" points="249.056,1156.93 267.954,1156.93 "/>
<polyline clip-path="url(#clip440)" style="stroke:#ffffff; stroke-linecap:round; stroke-linejoin:round; stroke-width:4; stroke-opacity:1; fill:none" points="249.056,940.667 267.954,940.667 "/>
<polyline clip-path="url(#clip440)" style="stroke:#ffffff; stroke-linecap:round; stroke-linejoin:round; stroke-width:4; stroke-opacity:1; fill:none" points="249.056,724.401 267.954,724.401 "/>
<polyline clip-path="url(#clip440)" style="stroke:#ffffff; stroke-linecap:round; stroke-linejoin:round; stroke-width:4; stroke-opacity:1; fill:none" points="249.056,508.134 267.954,508.134 "/>
<polyline clip-path="url(#clip440)" style="stroke:#ffffff; stroke-linecap:round; stroke-linejoin:round; stroke-width:4; stroke-opacity:1; fill:none" points="249.056,291.867 267.954,291.867 "/>
<path clip-path="url(#clip440)" d="M129.978 1371.85 Q133.334 1372.56 135.209 1374.83 Q137.107 1377.1 137.107 1380.43 Q137.107 1385.55 133.589 1388.35 Q130.07 1391.15 123.589 1391.15 Q121.413 1391.15 119.098 1390.71 Q116.806 1390.3 114.353 1389.44 L114.353 1384.93 Q116.297 1386.06 118.612 1386.64 Q120.927 1387.22 123.45 1387.22 Q127.848 1387.22 130.14 1385.48 Q132.455 1383.74 132.455 1380.43 Q132.455 1377.38 130.302 1375.67 Q128.172 1373.93 124.353 1373.93 L120.325 1373.93 L120.325 1370.09 L124.538 1370.09 Q127.987 1370.09 129.816 1368.72 Q131.644 1367.33 131.644 1364.74 Q131.644 1362.08 129.746 1360.67 Q127.871 1359.23 124.353 1359.23 Q122.431 1359.23 120.232 1359.65 Q118.033 1360.06 115.394 1360.94 L115.394 1356.78 Q118.056 1356.04 120.371 1355.67 Q122.709 1355.3 124.769 1355.3 Q130.093 1355.3 133.195 1357.73 Q136.297 1360.13 136.297 1364.25 Q136.297 1367.12 134.654 1369.12 Q133.01 1371.08 129.978 1371.85 Z" fill="#ffffff" fill-rule="evenodd" fill-opacity="1" /><path clip-path="url(#clip440)" d="M145.973 1384.6 L150.857 1384.6 L150.857 1390.48 L145.973 1390.48 L145.973 1384.6 Z" fill="#ffffff" fill-rule="evenodd" fill-opacity="1" /><path clip-path="url(#clip440)" d="M161.089 1355.92 L179.445 1355.92 L179.445 1359.86 L165.371 1359.86 L165.371 1368.33 Q166.39 1367.98 167.408 1367.82 Q168.427 1367.63 169.445 1367.63 Q175.232 1367.63 178.612 1370.8 Q181.991 1373.98 181.991 1379.39 Q181.991 1384.97 178.519 1388.07 Q175.047 1391.15 168.727 1391.15 Q166.552 1391.15 164.283 1390.78 Q162.038 1390.41 159.63 1389.67 L159.63 1384.97 Q161.714 1386.11 163.936 1386.66 Q166.158 1387.22 168.635 1387.22 Q172.639 1387.22 174.977 1385.11 Q177.315 1383 177.315 1379.39 Q177.315 1375.78 174.977 1373.68 Q172.639 1371.57 168.635 1371.57 Q166.76 1371.57 164.885 1371.99 Q163.033 1372.4 161.089 1373.28 L161.089 1355.92 Z" fill="#ffffff" fill-rule="evenodd" fill-opacity="1" /><path clip-path="url(#clip440)" d="M201.204 1374.07 Q197.871 1374.07 195.95 1375.85 Q194.051 1377.63 194.051 1380.76 Q194.051 1383.88 195.95 1385.67 Q197.871 1387.45 201.204 1387.45 Q204.537 1387.45 206.459 1385.67 Q208.38 1383.86 208.38 1380.76 Q208.38 1377.63 206.459 1375.85 Q204.561 1374.07 201.204 1374.07 M196.528 1372.08 Q193.519 1371.34 191.829 1369.28 Q190.163 1367.22 190.163 1364.25 Q190.163 1360.11 193.102 1357.7 Q196.065 1355.3 201.204 1355.3 Q206.366 1355.3 209.306 1357.7 Q212.246 1360.11 212.246 1364.25 Q212.246 1367.22 210.556 1369.28 Q208.889 1371.34 205.903 1372.08 Q209.283 1372.87 211.158 1375.16 Q213.056 1377.45 213.056 1380.76 Q213.056 1385.78 209.977 1388.47 Q206.922 1391.15 201.204 1391.15 Q195.487 1391.15 192.408 1388.47 Q189.352 1385.78 189.352 1380.76 Q189.352 1377.45 191.25 1375.16 Q193.149 1372.87 196.528 1372.08 M194.815 1364.69 Q194.815 1367.38 196.482 1368.88 Q198.172 1370.39 201.204 1370.39 Q204.213 1370.39 205.903 1368.88 Q207.616 1367.38 207.616 1364.69 Q207.616 1362.01 205.903 1360.5 Q204.213 1359 201.204 1359 Q198.172 1359 196.482 1360.5 Q194.815 1362.01 194.815 1364.69 Z" fill="#ffffff" fill-rule="evenodd" fill-opacity="1" /><path clip-path="url(#clip440)" d="M130.07 1155.58 Q133.427 1156.3 135.302 1158.57 Q137.2 1160.83 137.2 1164.17 Q137.2 1169.28 133.681 1172.08 Q130.163 1174.89 123.681 1174.89 Q121.505 1174.89 119.191 1174.45 Q116.899 1174.03 114.445 1173.17 L114.445 1168.66 Q116.39 1169.79 118.705 1170.37 Q121.019 1170.95 123.543 1170.95 Q127.941 1170.95 130.232 1169.21 Q132.547 1167.48 132.547 1164.17 Q132.547 1161.11 130.394 1159.4 Q128.265 1157.66 124.445 1157.66 L120.418 1157.66 L120.418 1153.82 L124.63 1153.82 Q128.08 1153.82 129.908 1152.45 Q131.737 1151.07 131.737 1148.47 Q131.737 1145.81 129.839 1144.4 Q127.964 1142.96 124.445 1142.96 Q122.524 1142.96 120.325 1143.38 Q118.126 1143.8 115.487 1144.68 L115.487 1140.51 Q118.149 1139.77 120.464 1139.4 Q122.802 1139.03 124.862 1139.03 Q130.186 1139.03 133.288 1141.46 Q136.39 1143.87 136.39 1147.99 Q136.39 1150.86 134.746 1152.85 Q133.103 1154.82 130.07 1155.58 Z" fill="#ffffff" fill-rule="evenodd" fill-opacity="1" /><path clip-path="url(#clip440)" d="M146.066 1168.33 L150.95 1168.33 L150.95 1174.21 L146.066 1174.21 L146.066 1168.33 Z" fill="#ffffff" fill-rule="evenodd" fill-opacity="1" /><path clip-path="url(#clip440)" d="M161.181 1139.65 L179.538 1139.65 L179.538 1143.59 L165.464 1143.59 L165.464 1152.06 Q166.482 1151.71 167.501 1151.55 Q168.519 1151.37 169.538 1151.37 Q175.325 1151.37 178.704 1154.54 Q182.084 1157.71 182.084 1163.13 Q182.084 1168.7 178.612 1171.81 Q175.139 1174.89 168.82 1174.89 Q166.644 1174.89 164.376 1174.51 Q162.13 1174.14 159.723 1173.4 L159.723 1168.7 Q161.806 1169.84 164.028 1170.39 Q166.251 1170.95 168.727 1170.95 Q172.732 1170.95 175.07 1168.84 Q177.408 1166.74 177.408 1163.13 Q177.408 1159.52 175.07 1157.41 Q172.732 1155.3 168.727 1155.3 Q166.852 1155.3 164.977 1155.72 Q163.126 1156.14 161.181 1157.02 L161.181 1139.65 Z" fill="#ffffff" fill-rule="evenodd" fill-opacity="1" /><path clip-path="url(#clip440)" d="M191.436 1173.5 L191.436 1169.24 Q193.195 1170.07 195 1170.51 Q196.806 1170.95 198.542 1170.95 Q203.172 1170.95 205.602 1167.85 Q208.056 1164.72 208.403 1158.38 Q207.061 1160.37 205 1161.44 Q202.94 1162.5 200.44 1162.5 Q195.255 1162.5 192.223 1159.38 Q189.213 1156.23 189.213 1150.79 Q189.213 1145.46 192.362 1142.25 Q195.51 1139.03 200.741 1139.03 Q206.737 1139.03 209.885 1143.64 Q213.056 1148.22 213.056 1156.97 Q213.056 1165.14 209.167 1170.02 Q205.301 1174.89 198.75 1174.89 Q196.991 1174.89 195.186 1174.54 Q193.38 1174.19 191.436 1173.5 M200.741 1158.84 Q203.889 1158.84 205.718 1156.69 Q207.57 1154.54 207.57 1150.79 Q207.57 1147.06 205.718 1144.91 Q203.889 1142.73 200.741 1142.73 Q197.593 1142.73 195.741 1144.91 Q193.913 1147.06 193.913 1150.79 Q193.913 1154.54 195.741 1156.69 Q197.593 1158.84 200.741 1158.84 Z" fill="#ffffff" fill-rule="evenodd" fill-opacity="1" /><path clip-path="url(#clip440)" d="M129.885 939.313 Q133.242 940.031 135.117 942.299 Q137.015 944.568 137.015 947.901 Q137.015 953.017 133.496 955.818 Q129.978 958.619 123.496 958.619 Q121.32 958.619 119.006 958.179 Q116.714 957.762 114.26 956.906 L114.26 952.392 Q116.205 953.526 118.519 954.105 Q120.834 954.683 123.357 954.683 Q127.755 954.683 130.047 952.947 Q132.362 951.211 132.362 947.901 Q132.362 944.845 130.209 943.133 Q128.08 941.396 124.26 941.396 L120.232 941.396 L120.232 937.554 L124.445 937.554 Q127.894 937.554 129.723 936.188 Q131.552 934.799 131.552 932.207 Q131.552 929.545 129.654 928.133 Q127.779 926.697 124.26 926.697 Q122.339 926.697 120.14 927.114 Q117.941 927.531 115.302 928.41 L115.302 924.244 Q117.964 923.503 120.279 923.133 Q122.617 922.762 124.677 922.762 Q130.001 922.762 133.103 925.193 Q136.204 927.6 136.204 931.721 Q136.204 934.591 134.561 936.582 Q132.917 938.549 129.885 939.313 Z" fill="#ffffff" fill-rule="evenodd" fill-opacity="1" /><path clip-path="url(#clip440)" d="M145.88 952.068 L150.765 952.068 L150.765 957.947 L145.88 957.947 L145.88 952.068 Z" fill="#ffffff" fill-rule="evenodd" fill-opacity="1" /><path clip-path="url(#clip440)" d="M171.528 938.804 Q168.38 938.804 166.528 940.957 Q164.7 943.109 164.7 946.859 Q164.7 950.586 166.528 952.762 Q168.38 954.915 171.528 954.915 Q174.677 954.915 176.505 952.762 Q178.357 950.586 178.357 946.859 Q178.357 943.109 176.505 940.957 Q174.677 938.804 171.528 938.804 M180.811 924.151 L180.811 928.41 Q179.051 927.577 177.246 927.137 Q175.464 926.697 173.704 926.697 Q169.075 926.697 166.621 929.822 Q164.19 932.947 163.843 939.267 Q165.209 937.253 167.269 936.188 Q169.329 935.1 171.806 935.1 Q177.014 935.1 180.024 938.271 Q183.056 941.42 183.056 946.859 Q183.056 952.183 179.908 955.401 Q176.76 958.619 171.528 958.619 Q165.533 958.619 162.362 954.035 Q159.19 949.429 159.19 940.702 Q159.19 932.508 163.079 927.647 Q166.968 922.762 173.519 922.762 Q175.278 922.762 177.061 923.109 Q178.866 923.457 180.811 924.151 Z" fill="#ffffff" fill-rule="evenodd" fill-opacity="1" /><path clip-path="url(#clip440)" d="M201.112 926.466 Q197.5 926.466 195.672 930.031 Q193.866 933.572 193.866 940.702 Q193.866 947.808 195.672 951.373 Q197.5 954.915 201.112 954.915 Q204.746 954.915 206.551 951.373 Q208.38 947.808 208.38 940.702 Q208.38 933.572 206.551 930.031 Q204.746 926.466 201.112 926.466 M201.112 922.762 Q206.922 922.762 209.977 927.369 Q213.056 931.952 213.056 940.702 Q213.056 949.429 209.977 954.035 Q206.922 958.619 201.112 958.619 Q195.301 958.619 192.223 954.035 Q189.167 949.429 189.167 940.702 Q189.167 931.952 192.223 927.369 Q195.301 922.762 201.112 922.762 Z" fill="#ffffff" fill-rule="evenodd" fill-opacity="1" /><path clip-path="url(#clip440)" d="M131.112 723.046 Q134.468 723.764 136.343 726.032 Q138.242 728.301 138.242 731.634 Q138.242 736.75 134.723 739.551 Q131.205 742.352 124.723 742.352 Q122.547 742.352 120.232 741.912 Q117.941 741.495 115.487 740.639 L115.487 736.125 Q117.431 737.259 119.746 737.838 Q122.061 738.417 124.584 738.417 Q128.982 738.417 131.274 736.681 Q133.589 734.944 133.589 731.634 Q133.589 728.579 131.436 726.866 Q129.306 725.13 125.487 725.13 L121.459 725.13 L121.459 721.287 L125.672 721.287 Q129.121 721.287 130.95 719.921 Q132.779 718.532 132.779 715.94 Q132.779 713.278 130.88 711.866 Q129.005 710.431 125.487 710.431 Q123.566 710.431 121.367 710.847 Q119.168 711.264 116.529 712.144 L116.529 707.977 Q119.191 707.236 121.505 706.866 Q123.843 706.496 125.904 706.496 Q131.228 706.496 134.329 708.926 Q137.431 711.333 137.431 715.454 Q137.431 718.324 135.788 720.315 Q134.144 722.282 131.112 723.046 Z" fill="#ffffff" fill-rule="evenodd" fill-opacity="1" /><path clip-path="url(#clip440)" d="M147.107 735.801 L151.991 735.801 L151.991 741.681 L147.107 741.681 L147.107 735.801 Z" fill="#ffffff" fill-rule="evenodd" fill-opacity="1" /><path clip-path="url(#clip440)" d="M172.755 722.537 Q169.607 722.537 167.755 724.69 Q165.927 726.843 165.927 730.593 Q165.927 734.319 167.755 736.495 Q169.607 738.648 172.755 738.648 Q175.903 738.648 177.732 736.495 Q179.584 734.319 179.584 730.593 Q179.584 726.843 177.732 724.69 Q175.903 722.537 172.755 722.537 M182.038 707.884 L182.038 712.144 Q180.278 711.31 178.473 710.87 Q176.69 710.431 174.931 710.431 Q170.302 710.431 167.848 713.556 Q165.417 716.681 165.07 723 Q166.436 720.986 168.496 719.921 Q170.556 718.833 173.033 718.833 Q178.241 718.833 181.251 722.005 Q184.283 725.153 184.283 730.593 Q184.283 735.917 181.135 739.134 Q177.987 742.352 172.755 742.352 Q166.76 742.352 163.589 737.768 Q160.417 733.162 160.417 724.435 Q160.417 716.241 164.306 711.38 Q168.195 706.496 174.746 706.496 Q176.505 706.496 178.288 706.843 Q180.093 707.19 182.038 707.884 Z" fill="#ffffff" fill-rule="evenodd" fill-opacity="1" /><path clip-path="url(#clip440)" d="M193.149 737.745 L200.787 737.745 L200.787 711.38 L192.477 713.046 L192.477 708.787 L200.741 707.121 L205.417 707.121 L205.417 737.745 L213.056 737.745 L213.056 741.681 L193.149 741.681 L193.149 737.745 Z" fill="#ffffff" fill-rule="evenodd" fill-opacity="1" /><path clip-path="url(#clip440)" d="M131.482 506.78 Q134.839 507.497 136.714 509.766 Q138.612 512.034 138.612 515.367 Q138.612 520.483 135.093 523.284 Q131.575 526.085 125.093 526.085 Q122.918 526.085 120.603 525.645 Q118.311 525.229 115.857 524.372 L115.857 519.858 Q117.802 520.992 120.117 521.571 Q122.431 522.15 124.955 522.15 Q129.353 522.15 131.644 520.414 Q133.959 518.678 133.959 515.367 Q133.959 512.312 131.806 510.599 Q129.677 508.863 125.857 508.863 L121.83 508.863 L121.83 505.02 L126.043 505.02 Q129.492 505.02 131.32 503.655 Q133.149 502.266 133.149 499.673 Q133.149 497.011 131.251 495.599 Q129.376 494.164 125.857 494.164 Q123.936 494.164 121.737 494.581 Q119.538 494.997 116.899 495.877 L116.899 491.71 Q119.561 490.969 121.876 490.599 Q124.214 490.229 126.274 490.229 Q131.598 490.229 134.7 492.659 Q137.802 495.067 137.802 499.187 Q137.802 502.057 136.158 504.048 Q134.515 506.016 131.482 506.78 Z" fill="#ffffff" fill-rule="evenodd" fill-opacity="1" /><path clip-path="url(#clip440)" d="M147.478 519.534 L152.362 519.534 L152.362 525.414 L147.478 525.414 L147.478 519.534 Z" fill="#ffffff" fill-rule="evenodd" fill-opacity="1" /><path clip-path="url(#clip440)" d="M173.126 506.27 Q169.977 506.27 168.126 508.423 Q166.297 510.576 166.297 514.326 Q166.297 518.053 168.126 520.229 Q169.977 522.381 173.126 522.381 Q176.274 522.381 178.102 520.229 Q179.954 518.053 179.954 514.326 Q179.954 510.576 178.102 508.423 Q176.274 506.27 173.126 506.27 M182.408 491.618 L182.408 495.877 Q180.649 495.044 178.843 494.604 Q177.061 494.164 175.301 494.164 Q170.672 494.164 168.218 497.289 Q165.788 500.414 165.44 506.733 Q166.806 504.719 168.866 503.655 Q170.927 502.567 173.403 502.567 Q178.612 502.567 181.621 505.738 Q184.653 508.886 184.653 514.326 Q184.653 519.65 181.505 522.867 Q178.357 526.085 173.126 526.085 Q167.13 526.085 163.959 521.502 Q160.788 516.895 160.788 508.168 Q160.788 499.974 164.677 495.113 Q168.565 490.229 175.116 490.229 Q176.876 490.229 178.658 490.576 Q180.464 490.923 182.408 491.618 Z" fill="#ffffff" fill-rule="evenodd" fill-opacity="1" /><path clip-path="url(#clip440)" d="M196.737 521.479 L213.056 521.479 L213.056 525.414 L191.112 525.414 L191.112 521.479 Q193.774 518.724 198.357 514.094 Q202.963 509.442 204.144 508.099 Q206.389 505.576 207.269 503.84 Q208.172 502.081 208.172 500.391 Q208.172 497.636 206.227 495.9 Q204.306 494.164 201.204 494.164 Q199.005 494.164 196.551 494.928 Q194.121 495.692 191.343 497.243 L191.343 492.52 Q194.167 491.386 196.621 490.807 Q199.075 490.229 201.112 490.229 Q206.482 490.229 209.676 492.914 Q212.871 495.599 212.871 500.09 Q212.871 502.219 212.061 504.141 Q211.274 506.039 209.167 508.631 Q208.588 509.303 205.487 512.52 Q202.385 515.715 196.737 521.479 Z" fill="#ffffff" fill-rule="evenodd" fill-opacity="1" /><path clip-path="url(#clip440)" d="M130.533 290.513 Q133.89 291.23 135.765 293.499 Q137.663 295.767 137.663 299.101 Q137.663 304.216 134.144 307.017 Q130.626 309.818 124.144 309.818 Q121.968 309.818 119.654 309.378 Q117.362 308.962 114.908 308.105 L114.908 303.591 Q116.853 304.726 119.168 305.304 Q121.482 305.883 124.005 305.883 Q128.404 305.883 130.695 304.147 Q133.01 302.411 133.01 299.101 Q133.01 296.045 130.857 294.332 Q128.728 292.596 124.908 292.596 L120.88 292.596 L120.88 288.754 L125.093 288.754 Q128.542 288.754 130.371 287.388 Q132.2 285.999 132.2 283.406 Q132.2 280.744 130.302 279.332 Q128.427 277.897 124.908 277.897 Q122.987 277.897 120.788 278.314 Q118.589 278.73 115.95 279.61 L115.95 275.443 Q118.612 274.703 120.927 274.332 Q123.265 273.962 125.325 273.962 Q130.649 273.962 133.751 276.393 Q136.853 278.8 136.853 282.92 Q136.853 285.791 135.209 287.781 Q133.566 289.749 130.533 290.513 Z" fill="#ffffff" fill-rule="evenodd" fill-opacity="1" /><path clip-path="url(#clip440)" d="M146.529 303.267 L151.413 303.267 L151.413 309.147 L146.529 309.147 L146.529 303.267 Z" fill="#ffffff" fill-rule="evenodd" fill-opacity="1" /><path clip-path="url(#clip440)" d="M172.177 290.004 Q169.028 290.004 167.177 292.156 Q165.348 294.309 165.348 298.059 Q165.348 301.786 167.177 303.962 Q169.028 306.115 172.177 306.115 Q175.325 306.115 177.153 303.962 Q179.005 301.786 179.005 298.059 Q179.005 294.309 177.153 292.156 Q175.325 290.004 172.177 290.004 M181.459 275.351 L181.459 279.61 Q179.7 278.777 177.894 278.337 Q176.112 277.897 174.352 277.897 Q169.723 277.897 167.269 281.022 Q164.839 284.147 164.491 290.467 Q165.857 288.453 167.917 287.388 Q169.977 286.3 172.454 286.3 Q177.663 286.3 180.672 289.471 Q183.704 292.619 183.704 298.059 Q183.704 303.383 180.556 306.601 Q177.408 309.818 172.177 309.818 Q166.181 309.818 163.01 305.235 Q159.839 300.629 159.839 291.902 Q159.839 283.707 163.727 278.846 Q167.616 273.962 174.167 273.962 Q175.926 273.962 177.709 274.309 Q179.514 274.656 181.459 275.351 Z" fill="#ffffff" fill-rule="evenodd" fill-opacity="1" /><path clip-path="url(#clip440)" d="M205.926 290.513 Q209.283 291.23 211.158 293.499 Q213.056 295.767 213.056 299.101 Q213.056 304.216 209.537 307.017 Q206.019 309.818 199.537 309.818 Q197.362 309.818 195.047 309.378 Q192.755 308.962 190.301 308.105 L190.301 303.591 Q192.246 304.726 194.561 305.304 Q196.875 305.883 199.399 305.883 Q203.797 305.883 206.088 304.147 Q208.403 302.411 208.403 299.101 Q208.403 296.045 206.25 294.332 Q204.121 292.596 200.301 292.596 L196.274 292.596 L196.274 288.754 L200.487 288.754 Q203.936 288.754 205.764 287.388 Q207.593 285.999 207.593 283.406 Q207.593 280.744 205.695 279.332 Q203.82 277.897 200.301 277.897 Q198.38 277.897 196.181 278.314 Q193.982 278.73 191.343 279.61 L191.343 275.443 Q194.005 274.703 196.32 274.332 Q198.658 273.962 200.718 273.962 Q206.042 273.962 209.144 276.393 Q212.246 278.8 212.246 282.92 Q212.246 285.791 210.602 287.781 Q208.959 289.749 205.926 290.513 Z" fill="#ffffff" fill-rule="evenodd" fill-opacity="1" /><path clip-path="url(#clip440)" d="M16.4842 1034.32 L16.4842 994.121 L21.895 994.121 L21.895 1010.99 L64.0042 1010.99 L64.0042 1017.45 L21.895 1017.45 L21.895 1034.32 L16.4842 1034.32 Z" fill="#ffffff" fill-rule="evenodd" fill-opacity="1" /><path clip-path="url(#clip440)" d="M28.3562 990.174 L28.3562 984.317 L64.0042 984.317 L64.0042 990.174 L28.3562 990.174 M14.479 990.174 L14.479 984.317 L21.895 984.317 L21.895 990.174 L14.479 990.174 Z" fill="#ffffff" fill-rule="evenodd" fill-opacity="1" /><path clip-path="url(#clip440)" d="M35.1993 944.309 Q31.2526 942.113 29.3747 939.057 Q27.4968 936.002 27.4968 931.864 Q27.4968 926.294 31.4117 923.27 Q35.2948 920.246 42.4881 920.246 L64.0042 920.246 L64.0042 926.135 L42.679 926.135 Q37.5546 926.135 35.072 927.949 Q32.5894 929.763 32.5894 933.487 Q32.5894 938.039 35.6131 940.68 Q38.6368 943.322 43.8567 943.322 L64.0042 943.322 L64.0042 949.21 L42.679 949.21 Q37.5228 949.21 35.072 951.025 Q32.5894 952.839 32.5894 956.627 Q32.5894 961.114 35.6449 963.756 Q38.6686 966.398 43.8567 966.398 L64.0042 966.398 L64.0042 972.286 L28.3562 972.286 L28.3562 966.398 L33.8944 966.398 Q30.616 964.393 29.0564 961.592 Q27.4968 958.791 27.4968 954.94 Q27.4968 951.057 29.4702 948.351 Q31.4436 945.614 35.1993 944.309 Z" fill="#ffffff" fill-rule="evenodd" fill-opacity="1" /><path clip-path="url(#clip440)" d="M44.7161 878.074 L47.5806 878.074 L47.5806 905.001 Q53.6281 904.619 56.8109 901.372 Q59.9619 898.094 59.9619 892.269 Q59.9619 888.895 59.1344 885.744 Q58.3069 882.562 56.6518 879.442 L62.1899 879.442 Q63.5267 882.593 64.227 885.904 Q64.9272 889.214 64.9272 892.619 Q64.9272 901.149 59.9619 906.146 Q54.9967 911.112 46.5303 911.112 Q37.7774 911.112 32.6531 906.401 Q27.4968 901.659 27.4968 893.638 Q27.4968 886.445 32.1438 882.275 Q36.7589 878.074 44.7161 878.074 M42.9973 883.93 Q38.1912 883.994 35.3266 886.636 Q32.4621 889.246 32.4621 893.574 Q32.4621 898.476 35.2312 901.436 Q38.0002 904.364 43.0292 904.81 L42.9973 883.93 Z" fill="#ffffff" fill-rule="evenodd" fill-opacity="1" /><path clip-path="url(#clip440)" d="M33.7671 824.283 L14.479 824.283 L14.479 818.427 L64.0042 818.427 L64.0042 824.283 L58.657 824.283 Q61.8398 826.13 63.3994 828.962 Q64.9272 831.763 64.9272 835.71 Q64.9272 842.171 59.771 846.245 Q54.6147 850.287 46.212 850.287 Q37.8093 850.287 32.6531 846.245 Q27.4968 842.171 27.4968 835.71 Q27.4968 831.763 29.0564 828.962 Q30.5842 826.13 33.7671 824.283 M46.212 844.24 Q52.6732 844.24 56.3653 841.598 Q60.0256 838.925 60.0256 834.278 Q60.0256 829.631 56.3653 826.957 Q52.6732 824.283 46.212 824.283 Q39.7508 824.283 36.0905 826.957 Q32.3984 829.631 32.3984 834.278 Q32.3984 838.925 36.0905 841.598 Q39.7508 844.24 46.212 844.24 Z" fill="#ffffff" fill-rule="evenodd" fill-opacity="1" /><path clip-path="url(#clip440)" d="M44.7161 775.872 L47.5806 775.872 L47.5806 802.799 Q53.6281 802.417 56.8109 799.171 Q59.9619 795.892 59.9619 790.068 Q59.9619 786.694 59.1344 783.543 Q58.3069 780.36 56.6518 777.241 L62.1899 777.241 Q63.5267 780.392 64.227 783.702 Q64.9272 787.012 64.9272 790.418 Q64.9272 798.948 59.9619 803.945 Q54.9967 808.91 46.5303 808.91 Q37.7774 808.91 32.6531 804.2 Q27.4968 799.457 27.4968 791.436 Q27.4968 784.243 32.1438 780.074 Q36.7589 775.872 44.7161 775.872 M42.9973 781.729 Q38.1912 781.792 35.3266 784.434 Q32.4621 787.044 32.4621 791.373 Q32.4621 796.274 35.2312 799.234 Q38.0002 802.163 43.0292 802.608 L42.9973 781.729 Z" fill="#ffffff" fill-rule="evenodd" fill-opacity="1" /><path clip-path="url(#clip440)" d="M14.479 766.26 L14.479 760.404 L64.0042 760.404 L64.0042 766.26 L14.479 766.26 Z" fill="#ffffff" fill-rule="evenodd" fill-opacity="1" /><path clip-path="url(#clip440)" d="M46.0847 731.949 Q46.0847 739.047 47.7079 741.784 Q49.3312 744.521 53.2461 744.521 Q56.3653 744.521 58.2114 742.484 Q60.0256 740.415 60.0256 736.882 Q60.0256 732.013 56.5881 729.084 Q53.1188 726.124 47.3897 726.124 L46.0847 726.124 L46.0847 731.949 M43.6657 720.268 L64.0042 720.268 L64.0042 726.124 L58.5933 726.124 Q61.8398 728.129 63.3994 731.121 Q64.9272 734.113 64.9272 738.442 Q64.9272 743.916 61.8716 747.163 Q58.7843 750.378 53.6281 750.378 Q47.6125 750.378 44.5569 746.367 Q41.5014 742.325 41.5014 734.336 L41.5014 726.124 L40.9285 726.124 Q36.8862 726.124 34.6901 728.798 Q32.4621 731.44 32.4621 736.246 Q32.4621 739.301 33.1941 742.198 Q33.9262 745.094 35.3903 747.768 L29.9795 747.768 Q28.7381 744.553 28.1334 741.529 Q27.4968 738.506 27.4968 735.641 Q27.4968 727.907 31.5072 724.087 Q35.5176 720.268 43.6657 720.268 Z" fill="#ffffff" fill-rule="evenodd" fill-opacity="1" /><path clip-path="url(#clip440)" d="M67.3143 693.373 Q73.68 695.855 75.6216 698.211 Q77.5631 700.566 77.5631 704.513 L77.5631 709.191 L72.6615 709.191 L72.6615 705.754 Q72.6615 703.335 71.5157 701.998 Q70.3699 700.661 66.1048 699.038 L63.4312 697.988 L28.3562 712.406 L28.3562 706.2 L56.238 695.06 L28.3562 683.92 L28.3562 677.713 L67.3143 693.373 Z" fill="#ffffff" fill-rule="evenodd" fill-opacity="1" /><path clip-path="url(#clip440)" d="M14.479 649.449 L14.479 635.954 L19.0304 635.954 L19.0304 643.593 L68.0464 643.593 L68.0464 635.954 L72.5979 635.954 L72.5979 649.449 L14.479 649.449 Z" fill="#ffffff" fill-rule="evenodd" fill-opacity="1" /><path clip-path="url(#clip440)" d="M35.1993 595.723 Q31.2526 593.527 29.3747 590.471 Q27.4968 587.416 27.4968 583.278 Q27.4968 577.708 31.4117 574.684 Q35.2948 571.66 42.4881 571.66 L64.0042 571.66 L64.0042 577.549 L42.679 577.549 Q37.5546 577.549 35.072 579.363 Q32.5894 581.177 32.5894 584.901 Q32.5894 589.453 35.6131 592.094 Q38.6368 594.736 43.8567 594.736 L64.0042 594.736 L64.0042 600.624 L42.679 600.624 Q37.5228 600.624 35.072 602.439 Q32.5894 604.253 32.5894 608.04 Q32.5894 612.528 35.6449 615.17 Q38.6686 617.812 43.8567 617.812 L64.0042 617.812 L64.0042 623.7 L28.3562 623.7 L28.3562 617.812 L33.8944 617.812 Q30.616 615.807 29.0564 613.006 Q27.4968 610.205 27.4968 606.353 Q27.4968 602.47 29.4702 599.765 Q31.4436 597.028 35.1993 595.723 Z" fill="#ffffff" fill-rule="evenodd" fill-opacity="1" /><path clip-path="url(#clip440)" d="M29.4065 537.254 L34.9447 537.254 Q33.6716 539.736 33.035 542.41 Q32.3984 545.084 32.3984 547.948 Q32.3984 552.309 33.7352 554.505 Q35.072 556.669 37.7456 556.669 Q39.7826 556.669 40.9603 555.11 Q42.1061 553.55 43.1565 548.839 L43.6021 546.834 Q44.9389 540.596 47.3897 537.986 Q49.8086 535.344 54.1691 535.344 Q59.1344 535.344 62.0308 539.291 Q64.9272 543.206 64.9272 550.081 Q64.9272 552.945 64.3543 556.064 Q63.8132 559.152 62.6992 562.589 L56.6518 562.589 Q58.3387 559.343 59.198 556.192 Q60.0256 553.041 60.0256 549.953 Q60.0256 545.816 58.6251 543.588 Q57.1929 541.36 54.6147 541.36 Q52.2276 541.36 50.9545 542.983 Q49.6813 544.574 48.5037 550.017 L48.0262 552.054 Q46.8804 557.497 44.5251 559.916 Q42.138 562.335 38.0002 562.335 Q32.9713 562.335 30.2341 558.77 Q27.4968 555.205 27.4968 548.648 Q27.4968 545.402 27.9743 542.537 Q28.4517 539.673 29.4065 537.254 Z" fill="#ffffff" fill-rule="evenodd" fill-opacity="1" /><path clip-path="url(#clip440)" d="M14.479 512.332 L72.5979 512.332 L72.5979 525.827 L68.0464 525.827 L68.0464 518.22 L19.0304 518.22 L19.0304 525.827 L14.479 525.827 L14.479 512.332 Z" fill="#ffffff" fill-rule="evenodd" fill-opacity="1" /><path clip-path="url(#clip440)" d="M758.227 12.096 L766.409 12.096 L766.409 65.6895 L795.859 65.6895 L795.859 72.576 L758.227 72.576 L758.227 12.096 Z" fill="#ffffff" fill-rule="evenodd" fill-opacity="1" /><path clip-path="url(#clip440)" d="M840.703 14.0809 L840.703 22.0612 Q836.044 19.8332 831.912 18.7395 Q827.781 17.6457 823.932 17.6457 Q817.248 17.6457 813.602 20.2383 Q809.997 22.8309 809.997 27.611 Q809.997 31.6214 812.387 33.6873 Q814.818 35.7128 821.542 36.9686 L826.484 37.9813 Q835.639 39.7232 839.974 44.1387 Q844.349 48.5136 844.349 55.8863 Q844.349 64.6767 838.434 69.2137 Q832.561 73.7508 821.178 73.7508 Q816.884 73.7508 812.023 72.7785 Q807.202 71.8063 802.017 69.9024 L802.017 61.4765 Q806.999 64.2716 811.779 65.6895 Q816.56 67.1073 821.178 67.1073 Q828.186 67.1073 831.993 64.3527 Q835.801 61.598 835.801 56.4939 Q835.801 52.0379 833.047 49.5264 Q830.333 47.0148 824.094 45.759 L819.112 44.7868 Q809.957 42.9639 805.865 39.075 Q801.774 35.1862 801.774 28.2591 Q801.774 20.2383 807.405 15.6203 Q813.076 11.0023 823 11.0023 Q827.254 11.0023 831.669 11.7719 Q836.085 12.5416 840.703 14.0809 Z" fill="#ffffff" fill-rule="evenodd" fill-opacity="1" /><path clip-path="url(#clip440)" d="M857.109 12.096 L895.35 12.096 L895.35 18.9825 L865.292 18.9825 L865.292 36.8875 L894.094 36.8875 L894.094 43.7741 L865.292 43.7741 L865.292 65.6895 L896.079 65.6895 L896.079 72.576 L857.109 72.576 L857.109 12.096 Z" fill="#ffffff" fill-rule="evenodd" fill-opacity="1" /><path clip-path="url(#clip440)" d="M927.514 12.096 L978.677 12.096 L978.677 18.9825 L957.207 18.9825 L957.207 72.576 L948.984 72.576 L948.984 18.9825 L927.514 18.9825 L927.514 12.096 Z" fill="#ffffff" fill-rule="evenodd" fill-opacity="1" /><path clip-path="url(#clip440)" d="M983.7 27.2059 L991.154 27.2059 L991.154 72.576 L983.7 72.576 L983.7 27.2059 M983.7 9.54393 L991.154 9.54393 L991.154 18.9825 L983.7 18.9825 L983.7 9.54393 Z" fill="#ffffff" fill-rule="evenodd" fill-opacity="1" /><path clip-path="url(#clip440)" d="M1042.07 35.9153 Q1044.87 30.8922 1048.76 28.5022 Q1052.65 26.1121 1057.91 26.1121 Q1065 26.1121 1068.85 31.0947 Q1072.7 36.0368 1072.7 45.1919 L1072.7 72.576 L1065.2 72.576 L1065.2 45.4349 Q1065.2 38.913 1062.9 35.7533 Q1060.59 32.5936 1055.85 32.5936 Q1050.05 32.5936 1046.69 36.4419 Q1043.33 40.2903 1043.33 46.9338 L1043.33 72.576 L1035.83 72.576 L1035.83 45.4349 Q1035.83 38.8725 1033.53 35.7533 Q1031.22 32.5936 1026.4 32.5936 Q1020.68 32.5936 1017.32 36.4824 Q1013.96 40.3308 1013.96 46.9338 L1013.96 72.576 L1006.47 72.576 L1006.47 27.2059 L1013.96 27.2059 L1013.96 34.2544 Q1016.51 30.082 1020.08 28.0971 Q1023.64 26.1121 1028.54 26.1121 Q1033.49 26.1121 1036.93 28.6237 Q1040.41 31.1352 1042.07 35.9153 Z" fill="#ffffff" fill-rule="evenodd" fill-opacity="1" /><path clip-path="url(#clip440)" d="M1126.37 48.0275 L1126.37 51.6733 L1092.1 51.6733 Q1092.59 59.3701 1096.72 63.421 Q1100.89 67.4314 1108.31 67.4314 Q1112.6 67.4314 1116.61 66.3781 Q1120.66 65.3249 1124.63 63.2184 L1124.63 70.267 Q1120.62 71.9684 1116.41 72.8596 Q1112.19 73.7508 1107.86 73.7508 Q1097 73.7508 1090.64 67.4314 Q1084.32 61.1119 1084.32 50.3365 Q1084.32 39.1965 1090.32 32.6746 Q1096.36 26.1121 1106.56 26.1121 Q1115.72 26.1121 1121.03 32.0264 Q1126.37 37.9003 1126.37 48.0275 M1118.92 45.84 Q1118.84 39.7232 1115.48 36.0774 Q1112.15 32.4315 1106.64 32.4315 Q1100.41 32.4315 1096.64 35.9558 Q1092.91 39.4801 1092.35 45.8805 L1118.92 45.84 Z" fill="#ffffff" fill-rule="evenodd" fill-opacity="1" /><path clip-path="url(#clip440)" d="M1194.83 34.0924 L1194.83 9.54393 L1202.29 9.54393 L1202.29 72.576 L1194.83 72.576 L1194.83 65.7705 Q1192.48 69.8214 1188.88 71.8063 Q1185.31 73.7508 1180.29 73.7508 Q1172.07 73.7508 1166.88 67.1883 Q1161.74 60.6258 1161.74 49.9314 Q1161.74 39.2371 1166.88 32.6746 Q1172.07 26.1121 1180.29 26.1121 Q1185.31 26.1121 1188.88 28.0971 Q1192.48 30.0415 1194.83 34.0924 M1169.43 49.9314 Q1169.43 58.1548 1172.8 62.8538 Q1176.2 67.5124 1182.11 67.5124 Q1188.03 67.5124 1191.43 62.8538 Q1194.83 58.1548 1194.83 49.9314 Q1194.83 41.7081 1191.43 37.0496 Q1188.03 32.3505 1182.11 32.3505 Q1176.2 32.3505 1172.8 37.0496 Q1169.43 41.7081 1169.43 49.9314 Z" fill="#ffffff" fill-rule="evenodd" fill-opacity="1" /><path clip-path="url(#clip440)" d="M1256.45 48.0275 L1256.45 51.6733 L1222.18 51.6733 Q1222.66 59.3701 1226.79 63.421 Q1230.97 67.4314 1238.38 67.4314 Q1242.67 67.4314 1246.68 66.3781 Q1250.74 65.3249 1254.71 63.2184 L1254.71 70.267 Q1250.69 71.9684 1246.48 72.8596 Q1242.27 73.7508 1237.93 73.7508 Q1227.08 73.7508 1220.72 67.4314 Q1214.4 61.1119 1214.4 50.3365 Q1214.4 39.1965 1220.39 32.6746 Q1226.43 26.1121 1236.64 26.1121 Q1245.79 26.1121 1251.1 32.0264 Q1256.45 37.9003 1256.45 48.0275 M1248.99 45.84 Q1248.91 39.7232 1245.55 36.0774 Q1242.23 32.4315 1236.72 32.4315 Q1230.48 32.4315 1226.71 35.9558 Q1222.99 39.4801 1222.42 45.8805 L1248.99 45.84 Z" fill="#ffffff" fill-rule="evenodd" fill-opacity="1" /><path clip-path="url(#clip440)" d="M1268.68 9.54393 L1276.13 9.54393 L1276.13 72.576 L1268.68 72.576 L1268.68 9.54393 Z" fill="#ffffff" fill-rule="evenodd" fill-opacity="1" /><path clip-path="url(#clip440)" d="M1312.35 49.7694 Q1303.32 49.7694 1299.83 51.8354 Q1296.35 53.9013 1296.35 58.8839 Q1296.35 62.8538 1298.94 65.2034 Q1301.57 67.5124 1306.07 67.5124 Q1312.27 67.5124 1316 63.1374 Q1319.76 58.7219 1319.76 51.4303 L1319.76 49.7694 L1312.35 49.7694 M1327.22 46.6907 L1327.22 72.576 L1319.76 72.576 L1319.76 65.6895 Q1317.21 69.8214 1313.4 71.8063 Q1309.6 73.7508 1304.09 73.7508 Q1297.12 73.7508 1292.99 69.8619 Q1288.89 65.9325 1288.89 59.3701 Q1288.89 51.7138 1294 47.825 Q1299.14 43.9361 1309.31 43.9361 L1319.76 43.9361 L1319.76 43.2069 Q1319.76 38.0623 1316.36 35.2672 Q1313 32.4315 1306.88 32.4315 Q1302.99 32.4315 1299.31 33.3632 Q1295.62 34.295 1292.22 36.1584 L1292.22 29.2718 Q1296.31 27.692 1300.16 26.9223 Q1304 26.1121 1307.65 26.1121 Q1317.49 26.1121 1322.36 31.2163 Q1327.22 36.3204 1327.22 46.6907 Z" fill="#ffffff" fill-rule="evenodd" fill-opacity="1" /><path clip-path="url(#clip440)" d="M1361.45 76.7889 Q1358.29 84.8907 1355.29 87.3618 Q1352.29 89.8329 1347.27 89.8329 L1341.31 89.8329 L1341.31 83.5945 L1345.69 83.5945 Q1348.77 83.5945 1350.47 82.1361 Q1352.17 80.6778 1354.24 75.2496 L1355.57 71.8468 L1337.22 27.2059 L1345.12 27.2059 L1359.3 62.6918 L1373.48 27.2059 L1381.38 27.2059 L1361.45 76.7889 Z" fill="#ffffff" fill-rule="evenodd" fill-opacity="1" /><path clip-path="url(#clip440)" d="M1456.85 48.0275 L1456.85 51.6733 L1422.57 51.6733 Q1423.06 59.3701 1427.19 63.421 Q1431.37 67.4314 1438.78 67.4314 Q1443.07 67.4314 1447.08 66.3781 Q1451.13 65.3249 1455.1 63.2184 L1455.1 70.267 Q1451.09 71.9684 1446.88 72.8596 Q1442.67 73.7508 1438.33 73.7508 Q1427.48 73.7508 1421.12 67.4314 Q1414.8 61.1119 1414.8 50.3365 Q1414.8 39.1965 1420.79 32.6746 Q1426.83 26.1121 1437.04 26.1121 Q1446.19 26.1121 1451.5 32.0264 Q1456.85 37.9003 1456.85 48.0275 M1449.39 45.84 Q1449.31 39.7232 1445.95 36.0774 Q1442.63 32.4315 1437.12 32.4315 Q1430.88 32.4315 1427.11 35.9558 Q1423.39 39.4801 1422.82 45.8805 L1449.39 45.84 Z" fill="#ffffff" fill-rule="evenodd" fill-opacity="1" /><path clip-path="url(#clip440)" d="M1498 28.5427 L1498 35.5912 Q1494.84 33.9709 1491.44 33.1607 Q1488.04 32.3505 1484.39 32.3505 Q1478.84 32.3505 1476.05 34.0519 Q1473.29 35.7533 1473.29 39.156 Q1473.29 41.7486 1475.28 43.2475 Q1477.26 44.7058 1483.26 46.0426 L1485.81 46.6097 Q1493.75 48.3111 1497.07 51.4303 Q1500.43 54.509 1500.43 60.0587 Q1500.43 66.3781 1495.41 70.0644 Q1490.43 73.7508 1481.68 73.7508 Q1478.03 73.7508 1474.06 73.0216 Q1470.13 72.3329 1465.76 70.9151 L1465.76 63.2184 Q1469.89 65.3654 1473.9 66.4591 Q1477.91 67.5124 1481.84 67.5124 Q1487.11 67.5124 1489.94 65.73 Q1492.78 63.9071 1492.78 60.6258 Q1492.78 57.5877 1490.71 55.9673 Q1488.69 54.3469 1481.76 52.8481 L1479.17 52.2405 Q1472.24 50.7821 1469.16 47.7845 Q1466.08 44.7463 1466.08 39.4801 Q1466.08 33.0797 1470.62 29.5959 Q1475.16 26.1121 1483.5 26.1121 Q1487.63 26.1121 1491.28 26.7198 Q1494.92 27.3274 1498 28.5427 Z" fill="#ffffff" fill-rule="evenodd" fill-opacity="1" /><path clip-path="url(#clip440)" d="M1519.67 14.324 L1519.67 27.2059 L1535.03 27.2059 L1535.03 32.9987 L1519.67 32.9987 L1519.67 57.6282 Q1519.67 63.1779 1521.17 64.7578 Q1522.71 66.3376 1527.37 66.3376 L1535.03 66.3376 L1535.03 72.576 L1527.37 72.576 Q1518.74 72.576 1515.46 69.3758 Q1512.18 66.1351 1512.18 57.6282 L1512.18 32.9987 L1506.71 32.9987 L1506.71 27.2059 L1512.18 27.2059 L1512.18 14.324 L1519.67 14.324 Z" fill="#ffffff" fill-rule="evenodd" fill-opacity="1" /><path clip-path="url(#clip440)" d="M1544.83 27.2059 L1552.28 27.2059 L1552.28 72.576 L1544.83 72.576 L1544.83 27.2059 M1544.83 9.54393 L1552.28 9.54393 L1552.28 18.9825 L1544.83 18.9825 L1544.83 9.54393 Z" fill="#ffffff" fill-rule="evenodd" fill-opacity="1" /><path clip-path="url(#clip440)" d="M1603.2 35.9153 Q1606 30.8922 1609.89 28.5022 Q1613.78 26.1121 1619.04 26.1121 Q1626.13 26.1121 1629.98 31.0947 Q1633.83 36.0368 1633.83 45.1919 L1633.83 72.576 L1626.34 72.576 L1626.34 45.4349 Q1626.34 38.913 1624.03 35.7533 Q1621.72 32.5936 1616.98 32.5936 Q1611.18 32.5936 1607.82 36.4419 Q1604.46 40.2903 1604.46 46.9338 L1604.46 72.576 L1596.97 72.576 L1596.97 45.4349 Q1596.97 38.8725 1594.66 35.7533 Q1592.35 32.5936 1587.53 32.5936 Q1581.82 32.5936 1578.45 36.4824 Q1575.09 40.3308 1575.09 46.9338 L1575.09 72.576 L1567.6 72.576 L1567.6 27.2059 L1575.09 27.2059 L1575.09 34.2544 Q1577.64 30.082 1581.21 28.0971 Q1584.77 26.1121 1589.67 26.1121 Q1594.62 26.1121 1598.06 28.6237 Q1601.54 31.1352 1603.2 35.9153 Z" fill="#ffffff" fill-rule="evenodd" fill-opacity="1" /><path clip-path="url(#clip440)" d="M1669.32 49.7694 Q1660.28 49.7694 1656.8 51.8354 Q1653.31 53.9013 1653.31 58.8839 Q1653.31 62.8538 1655.91 65.2034 Q1658.54 67.5124 1663.04 67.5124 Q1669.23 67.5124 1672.96 63.1374 Q1676.73 58.7219 1676.73 51.4303 L1676.73 49.7694 L1669.32 49.7694 M1684.18 46.6907 L1684.18 72.576 L1676.73 72.576 L1676.73 65.6895 Q1674.18 69.8214 1670.37 71.8063 Q1666.56 73.7508 1661.05 73.7508 Q1654.08 73.7508 1649.95 69.8619 Q1645.86 65.9325 1645.86 59.3701 Q1645.86 51.7138 1650.96 47.825 Q1656.11 43.9361 1666.28 43.9361 L1676.73 43.9361 L1676.73 43.2069 Q1676.73 38.0623 1673.33 35.2672 Q1669.96 32.4315 1663.85 32.4315 Q1659.96 32.4315 1656.27 33.3632 Q1652.59 34.295 1649.18 36.1584 L1649.18 29.2718 Q1653.27 27.692 1657.12 26.9223 Q1660.97 26.1121 1664.62 26.1121 Q1674.46 26.1121 1679.32 31.2163 Q1684.18 36.3204 1684.18 46.6907 Z" fill="#ffffff" fill-rule="evenodd" fill-opacity="1" /><path clip-path="url(#clip440)" d="M1706.91 14.324 L1706.91 27.2059 L1722.26 27.2059 L1722.26 32.9987 L1706.91 32.9987 L1706.91 57.6282 Q1706.91 63.1779 1708.41 64.7578 Q1709.95 66.3376 1714.6 66.3376 L1722.26 66.3376 L1722.26 72.576 L1714.6 72.576 Q1705.98 72.576 1702.69 69.3758 Q1699.41 66.1351 1699.41 57.6282 L1699.41 32.9987 L1693.94 32.9987 L1693.94 27.2059 L1699.41 27.2059 L1699.41 14.324 L1706.91 14.324 Z" fill="#ffffff" fill-rule="evenodd" fill-opacity="1" /><path clip-path="url(#clip440)" d="M1732.06 27.2059 L1739.52 27.2059 L1739.52 72.576 L1732.06 72.576 L1732.06 27.2059 M1732.06 9.54393 L1739.52 9.54393 L1739.52 18.9825 L1732.06 18.9825 L1732.06 9.54393 Z" fill="#ffffff" fill-rule="evenodd" fill-opacity="1" /><path clip-path="url(#clip440)" d="M1772.69 32.4315 Q1766.7 32.4315 1763.22 37.1306 Q1759.73 41.7891 1759.73 49.9314 Q1759.73 58.0738 1763.17 62.7728 Q1766.66 67.4314 1772.69 67.4314 Q1778.65 67.4314 1782.13 62.7323 Q1785.62 58.0333 1785.62 49.9314 Q1785.62 41.8701 1782.13 37.1711 Q1778.65 32.4315 1772.69 32.4315 M1772.69 26.1121 Q1782.42 26.1121 1787.97 32.4315 Q1793.52 38.7509 1793.52 49.9314 Q1793.52 61.0714 1787.97 67.4314 Q1782.42 73.7508 1772.69 73.7508 Q1762.93 73.7508 1757.38 67.4314 Q1751.87 61.0714 1751.87 49.9314 Q1751.87 38.7509 1757.38 32.4315 Q1762.93 26.1121 1772.69 26.1121 Z" fill="#ffffff" fill-rule="evenodd" fill-opacity="1" /><path clip-path="url(#clip440)" d="M1843.59 45.1919 L1843.59 72.576 L1836.13 72.576 L1836.13 45.4349 Q1836.13 38.994 1833.62 35.7938 Q1831.11 32.5936 1826.09 32.5936 Q1820.05 32.5936 1816.57 36.4419 Q1813.08 40.2903 1813.08 46.9338 L1813.08 72.576 L1805.59 72.576 L1805.59 27.2059 L1813.08 27.2059 L1813.08 34.2544 Q1815.76 30.163 1819.36 28.1376 Q1823.01 26.1121 1827.75 26.1121 Q1835.56 26.1121 1839.57 30.9732 Q1843.59 35.7938 1843.59 45.1919 Z" fill="#ffffff" fill-rule="evenodd" fill-opacity="1" /><polyline clip-path="url(#clip442)" style="stroke:#009af9; stroke-linecap:round; stroke-linejoin:round; stroke-width:4; stroke-opacity:1; fill:none" points="308.595,1386.4 372.615,1371.82 436.635,1350.51 500.655,1343.39 564.675,1326.86 628.695,1311.53 692.715,1289.99 756.735,1247.6 820.755,1221.19 884.775,1197.12 948.795,1163.23 1012.82,1147.73 1076.84,1118.32 1140.86,1083.31 1204.88,1026.17 1268.9,976.939 1332.92,954.04 1396.94,964.182 1460.96,906.231 1524.98,816.777 1589,760.057 1653.02,736.974 1717.04,721.014 1781.06,656.088 1845.08,566.876 1909.1,512.717 1973.12,492.424 2037.14,426.815 2101.16,350.064 2165.18,306.704 2229.2,239.865 2293.22,160.256 "/>
<path clip-path="url(#clip440)" d="M319.179 270.476 L608.322 270.476 L608.322 166.796 L319.179 166.796  Z" fill="#000000" fill-rule="evenodd" fill-opacity="0"/>
<polyline clip-path="url(#clip440)" style="stroke:#ffffff; stroke-linecap:round; stroke-linejoin:round; stroke-width:4; stroke-opacity:1; fill:none" points="319.179,270.476 608.322,270.476 608.322,166.796 319.179,166.796 319.179,270.476 "/>
<polyline clip-path="url(#clip440)" style="stroke:#009af9; stroke-linecap:round; stroke-linejoin:round; stroke-width:4; stroke-opacity:1; fill:none" points="342.554,218.636 482.8,218.636 "/>
<path clip-path="url(#clip440)" d="M506.175 201.356 L510.851 201.356 L510.851 231.981 L527.679 231.981 L527.679 235.916 L506.175 235.916 L506.175 201.356 Z" fill="#ffffff" fill-rule="evenodd" fill-opacity="1" /><path clip-path="url(#clip440)" d="M553.304 202.49 L553.304 207.05 Q550.642 205.777 548.281 205.152 Q545.92 204.527 543.721 204.527 Q539.901 204.527 537.818 206.008 Q535.758 207.49 535.758 210.221 Q535.758 212.513 537.124 213.694 Q538.513 214.851 542.355 215.569 L545.179 216.147 Q550.411 217.143 552.888 219.666 Q555.388 222.166 555.388 226.379 Q555.388 231.402 552.008 233.994 Q548.651 236.587 542.147 236.587 Q539.693 236.587 536.915 236.031 Q534.161 235.476 531.198 234.388 L531.198 229.573 Q534.045 231.17 536.776 231.981 Q539.508 232.791 542.147 232.791 Q546.151 232.791 548.327 231.217 Q550.503 229.643 550.503 226.726 Q550.503 224.18 548.929 222.744 Q547.378 221.309 543.813 220.592 L540.966 220.036 Q535.735 218.995 533.397 216.772 Q531.059 214.55 531.059 210.592 Q531.059 206.008 534.277 203.37 Q537.517 200.731 543.189 200.731 Q545.619 200.731 548.142 201.171 Q550.665 201.61 553.304 202.49 Z" fill="#ffffff" fill-rule="evenodd" fill-opacity="1" /><path clip-path="url(#clip440)" d="M562.679 201.356 L584.531 201.356 L584.531 205.291 L567.355 205.291 L567.355 215.522 L583.813 215.522 L583.813 219.457 L567.355 219.457 L567.355 231.981 L584.948 231.981 L584.948 235.916 L562.679 235.916 L562.679 201.356 Z" fill="#ffffff" fill-rule="evenodd" fill-opacity="1" /></svg>
