<?xml version="1.0" encoding="utf-8"?>
<svg xmlns="http://www.w3.org/2000/svg" xmlns:xlink="http://www.w3.org/1999/xlink" width="600" height="400" viewBox="0 0 2400 1600">
<defs>
  <clipPath id="clip480">
    <rect x="0" y="0" width="2400" height="1600"/>
  </clipPath>
</defs>
<path clip-path="url(#clip480)" d="M0 1600 L2400 1600 L2400 0 L0 0  Z" fill="#000000" fill-rule="evenodd" fill-opacity="0"/>
<defs>
  <clipPath id="clip481">
    <rect x="480" y="0" width="1681" height="1600"/>
  </clipPath>
</defs>
<path clip-path="url(#clip480)" d="M279.218 1423.18 L2352.76 1423.18 L2352.76 123.472 L279.218 123.472  Z" fill="#000000" fill-rule="evenodd" fill-opacity="0"/>
<defs>
  <clipPath id="clip482">
    <rect x="279" y="123" width="2075" height="1301"/>
  </clipPath>
</defs>
<polyline clip-path="url(#clip482)" style="stroke:#ffffff; stroke-linecap:round; stroke-linejoin:round; stroke-width:2; stroke-opacity:0.1; fill:none" points="337.903,1423.18 337.903,123.472 "/>
<polyline clip-path="url(#clip482)" style="stroke:#ffffff; stroke-linecap:round; stroke-linejoin:round; stroke-width:2; stroke-opacity:0.1; fill:none" points="533.52,1423.18 533.52,123.472 "/>
<polyline clip-path="url(#clip482)" style="stroke:#ffffff; stroke-linecap:round; stroke-linejoin:round; stroke-width:2; stroke-opacity:0.1; fill:none" points="729.136,1423.18 729.136,123.472 "/>
<polyline clip-path="url(#clip482)" style="stroke:#ffffff; stroke-linecap:round; stroke-linejoin:round; stroke-width:2; stroke-opacity:0.1; fill:none" points="924.753,1423.18 924.753,123.472 "/>
<polyline clip-path="url(#clip482)" style="stroke:#ffffff; stroke-linecap:round; stroke-linejoin:round; stroke-width:2; stroke-opacity:0.1; fill:none" points="1120.37,1423.18 1120.37,123.472 "/>
<polyline clip-path="url(#clip482)" style="stroke:#ffffff; stroke-linecap:round; stroke-linejoin:round; stroke-width:2; stroke-opacity:0.1; fill:none" points="1315.99,1423.18 1315.99,123.472 "/>
<polyline clip-path="url(#clip482)" style="stroke:#ffffff; stroke-linecap:round; stroke-linejoin:round; stroke-width:2; stroke-opacity:0.1; fill:none" points="1511.6,1423.18 1511.6,123.472 "/>
<polyline clip-path="url(#clip482)" style="stroke:#ffffff; stroke-linecap:round; stroke-linejoin:round; stroke-width:2; stroke-opacity:0.1; fill:none" points="1707.22,1423.18 1707.22,123.472 "/>
<polyline clip-path="url(#clip482)" style="stroke:#ffffff; stroke-linecap:round; stroke-linejoin:round; stroke-width:2; stroke-opacity:0.1; fill:none" points="1902.84,1423.18 1902.84,123.472 "/>
<polyline clip-path="url(#clip482)" style="stroke:#ffffff; stroke-linecap:round; stroke-linejoin:round; stroke-width:2; stroke-opacity:0.1; fill:none" points="2098.45,1423.18 2098.45,123.472 "/>
<polyline clip-path="url(#clip482)" style="stroke:#ffffff; stroke-linecap:round; stroke-linejoin:round; stroke-width:2; stroke-opacity:0.1; fill:none" points="2294.07,1423.18 2294.07,123.472 "/>
<polyline clip-path="url(#clip480)" style="stroke:#ffffff; stroke-linecap:round; stroke-linejoin:round; stroke-width:4; stroke-opacity:1; fill:none" points="279.218,1423.18 2352.76,1423.18 "/>
<polyline clip-path="url(#clip480)" style="stroke:#ffffff; stroke-linecap:round; stroke-linejoin:round; stroke-width:4; stroke-opacity:1; fill:none" points="337.903,1423.18 337.903,1404.28 "/>
<polyline clip-path="url(#clip480)" style="stroke:#ffffff; stroke-linecap:round; stroke-linejoin:round; stroke-width:4; stroke-opacity:1; fill:none" points="533.52,1423.18 533.52,1404.28 "/>
<polyline clip-path="url(#clip480)" style="stroke:#ffffff; stroke-linecap:round; stroke-linejoin:round; stroke-width:4; stroke-opacity:1; fill:none" points="729.136,1423.18 729.136,1404.28 "/>
<polyline clip-path="url(#clip480)" style="stroke:#ffffff; stroke-linecap:round; stroke-linejoin:round; stroke-width:4; stroke-opacity:1; fill:none" points="924.753,1423.18 924.753,1404.28 "/>
<polyline clip-path="url(#clip480)" style="stroke:#ffffff; stroke-linecap:round; stroke-linejoin:round; stroke-width:4; stroke-opacity:1; fill:none" points="1120.37,1423.18 1120.37,1404.28 "/>
<polyline clip-path="url(#clip480)" style="stroke:#ffffff; stroke-linecap:round; stroke-linejoin:round; stroke-width:4; stroke-opacity:1; fill:none" points="1315.99,1423.18 1315.99,1404.28 "/>
<polyline clip-path="url(#clip480)" style="stroke:#ffffff; stroke-linecap:round; stroke-linejoin:round; stroke-width:4; stroke-opacity:1; fill:none" points="1511.6,1423.18 1511.6,1404.28 "/>
<polyline clip-path="url(#clip480)" style="stroke:#ffffff; stroke-linecap:round; stroke-linejoin:round; stroke-width:4; stroke-opacity:1; fill:none" points="1707.22,1423.18 1707.22,1404.28 "/>
<polyline clip-path="url(#clip480)" style="stroke:#ffffff; stroke-linecap:round; stroke-linejoin:round; stroke-width:4; stroke-opacity:1; fill:none" points="1902.84,1423.18 1902.84,1404.28 "/>
<polyline clip-path="url(#clip480)" style="stroke:#ffffff; stroke-linecap:round; stroke-linejoin:round; stroke-width:4; stroke-opacity:1; fill:none" points="2098.45,1423.18 2098.45,1404.28 "/>
<polyline clip-path="url(#clip480)" style="stroke:#ffffff; stroke-linecap:round; stroke-linejoin:round; stroke-width:4; stroke-opacity:1; fill:none" points="2294.07,1423.18 2294.07,1404.28 "/>
<path clip-path="url(#clip480)" d="M312.59 1481.64 L320.229 1481.64 L320.229 1455.28 L311.919 1456.95 L311.919 1452.69 L320.183 1451.02 L324.859 1451.02 L324.859 1481.64 L332.498 1481.64 L332.498 1485.58 L312.59 1485.58 L312.59 1481.64 Z" fill="#ffffff" fill-rule="evenodd" fill-opacity="1" /><path clip-path="url(#clip480)" d="M351.942 1454.1 Q348.331 1454.1 346.502 1457.66 Q344.697 1461.2 344.697 1468.33 Q344.697 1475.44 346.502 1479.01 Q348.331 1482.55 351.942 1482.55 Q355.576 1482.55 357.382 1479.01 Q359.211 1475.44 359.211 1468.33 Q359.211 1461.2 357.382 1457.66 Q355.576 1454.1 351.942 1454.1 M351.942 1450.39 Q357.752 1450.39 360.808 1455 Q363.886 1459.58 363.886 1468.33 Q363.886 1477.06 360.808 1481.67 Q357.752 1486.25 351.942 1486.25 Q346.132 1486.25 343.053 1481.67 Q339.998 1477.06 339.998 1468.33 Q339.998 1459.58 343.053 1455 Q346.132 1450.39 351.942 1450.39 Z" fill="#ffffff" fill-rule="evenodd" fill-opacity="1" /><path clip-path="url(#clip480)" d="M508.821 1481.64 L516.46 1481.64 L516.46 1455.28 L508.149 1456.95 L508.149 1452.69 L516.413 1451.02 L521.089 1451.02 L521.089 1481.64 L528.728 1481.64 L528.728 1485.58 L508.821 1485.58 L508.821 1481.64 Z" fill="#ffffff" fill-rule="evenodd" fill-opacity="1" /><path clip-path="url(#clip480)" d="M538.983 1481.64 L546.621 1481.64 L546.621 1455.28 L538.311 1456.95 L538.311 1452.69 L546.575 1451.02 L551.251 1451.02 L551.251 1481.64 L558.89 1481.64 L558.89 1485.58 L538.983 1485.58 L538.983 1481.64 Z" fill="#ffffff" fill-rule="evenodd" fill-opacity="1" /><path clip-path="url(#clip480)" d="M704.623 1481.64 L712.262 1481.64 L712.262 1455.28 L703.951 1456.95 L703.951 1452.69 L712.215 1451.02 L716.891 1451.02 L716.891 1481.64 L724.53 1481.64 L724.53 1485.58 L704.623 1485.58 L704.623 1481.64 Z" fill="#ffffff" fill-rule="evenodd" fill-opacity="1" /><path clip-path="url(#clip480)" d="M738.002 1481.64 L754.321 1481.64 L754.321 1485.58 L732.377 1485.58 L732.377 1481.64 Q735.039 1478.89 739.623 1474.26 Q744.229 1469.61 745.41 1468.27 Q747.655 1465.74 748.534 1464.01 Q749.437 1462.25 749.437 1460.56 Q749.437 1457.8 747.493 1456.07 Q745.572 1454.33 742.47 1454.33 Q740.271 1454.33 737.817 1455.09 Q735.386 1455.86 732.609 1457.41 L732.609 1452.69 Q735.433 1451.55 737.886 1450.97 Q740.34 1450.39 742.377 1450.39 Q747.747 1450.39 750.942 1453.08 Q754.136 1455.77 754.136 1460.26 Q754.136 1462.39 753.326 1464.31 Q752.539 1466.2 750.433 1468.8 Q749.854 1469.47 746.752 1472.69 Q743.65 1475.88 738.002 1481.64 Z" fill="#ffffff" fill-rule="evenodd" fill-opacity="1" /><path clip-path="url(#clip480)" d="M899.765 1481.64 L907.404 1481.64 L907.404 1455.28 L899.094 1456.95 L899.094 1452.69 L907.358 1451.02 L912.033 1451.02 L912.033 1481.64 L919.672 1481.64 L919.672 1485.58 L899.765 1485.58 L899.765 1481.64 Z" fill="#ffffff" fill-rule="evenodd" fill-opacity="1" /><path clip-path="url(#clip480)" d="M943.283 1466.95 Q946.64 1467.66 948.515 1469.93 Q950.413 1472.2 950.413 1475.53 Q950.413 1480.65 946.894 1483.45 Q943.376 1486.25 936.894 1486.25 Q934.718 1486.25 932.404 1485.81 Q930.112 1485.39 927.658 1484.54 L927.658 1480.02 Q929.603 1481.16 931.918 1481.74 Q934.232 1482.32 936.755 1482.32 Q941.154 1482.32 943.445 1480.58 Q945.76 1478.84 945.76 1475.53 Q945.76 1472.48 943.607 1470.77 Q941.478 1469.03 937.658 1469.03 L933.631 1469.03 L933.631 1465.19 L937.843 1465.19 Q941.293 1465.19 943.121 1463.82 Q944.95 1462.43 944.95 1459.84 Q944.95 1457.18 943.052 1455.77 Q941.177 1454.33 937.658 1454.33 Q935.737 1454.33 933.538 1454.75 Q931.339 1455.16 928.7 1456.04 L928.7 1451.88 Q931.362 1451.14 933.677 1450.77 Q936.015 1450.39 938.075 1450.39 Q943.399 1450.39 946.501 1452.83 Q949.603 1455.23 949.603 1459.35 Q949.603 1462.22 947.959 1464.21 Q946.316 1466.18 943.283 1466.95 Z" fill="#ffffff" fill-rule="evenodd" fill-opacity="1" /><path clip-path="url(#clip480)" d="M1094.81 1481.64 L1102.45 1481.64 L1102.45 1455.28 L1094.14 1456.95 L1094.14 1452.69 L1102.41 1451.02 L1107.08 1451.02 L1107.08 1481.64 L1114.72 1481.64 L1114.72 1485.58 L1094.81 1485.58 L1094.81 1481.64 Z" fill="#ffffff" fill-rule="evenodd" fill-opacity="1" /><path clip-path="url(#clip480)" d="M1137.01 1455.09 L1125.21 1473.54 L1137.01 1473.54 L1137.01 1455.09 M1135.79 1451.02 L1141.67 1451.02 L1141.67 1473.54 L1146.6 1473.54 L1146.6 1477.43 L1141.67 1477.43 L1141.67 1485.58 L1137.01 1485.58 L1137.01 1477.43 L1121.41 1477.43 L1121.41 1472.92 L1135.79 1451.02 Z" fill="#ffffff" fill-rule="evenodd" fill-opacity="1" /><path clip-path="url(#clip480)" d="M1291.17 1481.64 L1298.81 1481.64 L1298.81 1455.28 L1290.5 1456.95 L1290.5 1452.69 L1298.76 1451.02 L1303.44 1451.02 L1303.44 1481.64 L1311.08 1481.64 L1311.08 1485.58 L1291.17 1485.58 L1291.17 1481.64 Z" fill="#ffffff" fill-rule="evenodd" fill-opacity="1" /><path clip-path="url(#clip480)" d="M1320.57 1451.02 L1338.93 1451.02 L1338.93 1454.96 L1324.85 1454.96 L1324.85 1463.43 Q1325.87 1463.08 1326.89 1462.92 Q1327.91 1462.73 1328.93 1462.73 Q1334.71 1462.73 1338.09 1465.9 Q1341.47 1469.08 1341.47 1474.49 Q1341.47 1480.07 1338 1483.17 Q1334.53 1486.25 1328.21 1486.25 Q1326.03 1486.25 1323.76 1485.88 Q1321.52 1485.51 1319.11 1484.77 L1319.11 1480.07 Q1321.2 1481.2 1323.42 1481.76 Q1325.64 1482.32 1328.12 1482.32 Q1332.12 1482.32 1334.46 1480.21 Q1336.8 1478.1 1336.8 1474.49 Q1336.8 1470.88 1334.46 1468.77 Q1332.12 1466.67 1328.12 1466.67 Q1326.24 1466.67 1324.37 1467.08 Q1322.51 1467.5 1320.57 1468.38 L1320.57 1451.02 Z" fill="#ffffff" fill-rule="evenodd" fill-opacity="1" /><path clip-path="url(#clip480)" d="M1486.21 1481.64 L1493.85 1481.64 L1493.85 1455.28 L1485.54 1456.95 L1485.54 1452.69 L1493.8 1451.02 L1498.48 1451.02 L1498.48 1481.64 L1506.12 1481.64 L1506.12 1485.58 L1486.21 1485.58 L1486.21 1481.64 Z" fill="#ffffff" fill-rule="evenodd" fill-opacity="1" /><path clip-path="url(#clip480)" d="M1526.14 1466.44 Q1522.99 1466.44 1521.14 1468.59 Q1519.31 1470.74 1519.31 1474.49 Q1519.31 1478.22 1521.14 1480.39 Q1522.99 1482.55 1526.14 1482.55 Q1529.29 1482.55 1531.12 1480.39 Q1532.97 1478.22 1532.97 1474.49 Q1532.97 1470.74 1531.12 1468.59 Q1529.29 1466.44 1526.14 1466.44 M1535.42 1451.78 L1535.42 1456.04 Q1533.66 1455.21 1531.86 1454.77 Q1530.08 1454.33 1528.32 1454.33 Q1523.69 1454.33 1521.23 1457.45 Q1518.8 1460.58 1518.46 1466.9 Q1519.82 1464.89 1521.88 1463.82 Q1523.94 1462.73 1526.42 1462.73 Q1531.63 1462.73 1534.64 1465.9 Q1537.67 1469.05 1537.67 1474.49 Q1537.67 1479.82 1534.52 1483.03 Q1531.37 1486.25 1526.14 1486.25 Q1520.15 1486.25 1516.97 1481.67 Q1513.8 1477.06 1513.8 1468.33 Q1513.8 1460.14 1517.69 1455.28 Q1521.58 1450.39 1528.13 1450.39 Q1529.89 1450.39 1531.67 1450.74 Q1533.48 1451.09 1535.42 1451.78 Z" fill="#ffffff" fill-rule="evenodd" fill-opacity="1" /><path clip-path="url(#clip480)" d="M1682.36 1481.64 L1690 1481.64 L1690 1455.28 L1681.69 1456.95 L1681.69 1452.69 L1689.95 1451.02 L1694.63 1451.02 L1694.63 1481.64 L1702.27 1481.64 L1702.27 1485.58 L1682.36 1485.58 L1682.36 1481.64 Z" fill="#ffffff" fill-rule="evenodd" fill-opacity="1" /><path clip-path="url(#clip480)" d="M1710.53 1451.02 L1732.75 1451.02 L1732.75 1453.01 L1720.21 1485.58 L1715.32 1485.58 L1727.13 1454.96 L1710.53 1454.96 L1710.53 1451.02 Z" fill="#ffffff" fill-rule="evenodd" fill-opacity="1" /><path clip-path="url(#clip480)" d="M1877.57 1481.64 L1885.21 1481.64 L1885.21 1455.28 L1876.9 1456.95 L1876.9 1452.69 L1885.16 1451.02 L1889.84 1451.02 L1889.84 1481.64 L1897.48 1481.64 L1897.48 1485.58 L1877.57 1485.58 L1877.57 1481.64 Z" fill="#ffffff" fill-rule="evenodd" fill-opacity="1" /><path clip-path="url(#clip480)" d="M1916.92 1469.17 Q1913.59 1469.17 1911.67 1470.95 Q1909.77 1472.73 1909.77 1475.86 Q1909.77 1478.98 1911.67 1480.77 Q1913.59 1482.55 1916.92 1482.55 Q1920.26 1482.55 1922.18 1480.77 Q1924.1 1478.96 1924.1 1475.86 Q1924.1 1472.73 1922.18 1470.95 Q1920.28 1469.17 1916.92 1469.17 M1912.25 1467.18 Q1909.24 1466.44 1907.55 1464.38 Q1905.88 1462.32 1905.88 1459.35 Q1905.88 1455.21 1908.82 1452.8 Q1911.78 1450.39 1916.92 1450.39 Q1922.08 1450.39 1925.02 1452.8 Q1927.96 1455.21 1927.96 1459.35 Q1927.96 1462.32 1926.27 1464.38 Q1924.61 1466.44 1921.62 1467.18 Q1925 1467.96 1926.88 1470.26 Q1928.77 1472.55 1928.77 1475.86 Q1928.77 1480.88 1925.7 1483.57 Q1922.64 1486.25 1916.92 1486.25 Q1911.21 1486.25 1908.13 1483.57 Q1905.07 1480.88 1905.07 1475.86 Q1905.07 1472.55 1906.97 1470.26 Q1908.87 1467.96 1912.25 1467.18 M1910.53 1459.79 Q1910.53 1462.48 1912.2 1463.98 Q1913.89 1465.49 1916.92 1465.49 Q1919.93 1465.49 1921.62 1463.98 Q1923.33 1462.48 1923.33 1459.79 Q1923.33 1457.11 1921.62 1455.6 Q1919.93 1454.1 1916.92 1454.1 Q1913.89 1454.1 1912.2 1455.6 Q1910.53 1457.11 1910.53 1459.79 Z" fill="#ffffff" fill-rule="evenodd" fill-opacity="1" /><path clip-path="url(#clip480)" d="M2073.23 1481.64 L2080.87 1481.64 L2080.87 1455.28 L2072.56 1456.95 L2072.56 1452.69 L2080.83 1451.02 L2085.5 1451.02 L2085.5 1481.64 L2093.14 1481.64 L2093.14 1485.58 L2073.23 1485.58 L2073.23 1481.64 Z" fill="#ffffff" fill-rule="evenodd" fill-opacity="1" /><path clip-path="url(#clip480)" d="M2102.72 1484.86 L2102.72 1480.6 Q2104.48 1481.44 2106.29 1481.88 Q2108.1 1482.32 2109.83 1482.32 Q2114.46 1482.32 2116.89 1479.21 Q2119.35 1476.09 2119.69 1469.75 Q2118.35 1471.74 2116.29 1472.8 Q2114.23 1473.87 2111.73 1473.87 Q2106.54 1473.87 2103.51 1470.74 Q2100.5 1467.59 2100.5 1462.15 Q2100.5 1456.83 2103.65 1453.61 Q2106.8 1450.39 2112.03 1450.39 Q2118.03 1450.39 2121.17 1455 Q2124.35 1459.58 2124.35 1468.33 Q2124.35 1476.51 2120.46 1481.39 Q2116.59 1486.25 2110.04 1486.25 Q2108.28 1486.25 2106.47 1485.9 Q2104.67 1485.56 2102.72 1484.86 M2112.03 1470.21 Q2115.18 1470.21 2117.01 1468.06 Q2118.86 1465.9 2118.86 1462.15 Q2118.86 1458.43 2117.01 1456.27 Q2115.18 1454.1 2112.03 1454.1 Q2108.88 1454.1 2107.03 1456.27 Q2105.2 1458.43 2105.2 1462.15 Q2105.2 1465.9 2107.03 1468.06 Q2108.88 1470.21 2112.03 1470.21 Z" fill="#ffffff" fill-rule="evenodd" fill-opacity="1" /><path clip-path="url(#clip480)" d="M2272.84 1481.64 L2289.16 1481.64 L2289.16 1485.58 L2267.22 1485.58 L2267.22 1481.64 Q2269.88 1478.89 2274.46 1474.26 Q2279.07 1469.61 2280.25 1468.27 Q2282.5 1465.74 2283.38 1464.01 Q2284.28 1462.25 2284.28 1460.56 Q2284.28 1457.8 2282.33 1456.07 Q2280.41 1454.33 2277.31 1454.33 Q2275.11 1454.33 2272.66 1455.09 Q2270.23 1455.86 2267.45 1457.41 L2267.45 1452.69 Q2270.27 1451.55 2272.73 1450.97 Q2275.18 1450.39 2277.22 1450.39 Q2282.59 1450.39 2285.78 1453.08 Q2288.98 1455.77 2288.98 1460.26 Q2288.98 1462.39 2288.17 1464.31 Q2287.38 1466.2 2285.27 1468.8 Q2284.7 1469.47 2281.59 1472.69 Q2278.49 1475.88 2272.84 1481.64 Z" fill="#ffffff" fill-rule="evenodd" fill-opacity="1" /><path clip-path="url(#clip480)" d="M2308.98 1454.1 Q2305.37 1454.1 2303.54 1457.66 Q2301.73 1461.2 2301.73 1468.33 Q2301.73 1475.44 2303.54 1479.01 Q2305.37 1482.55 2308.98 1482.55 Q2312.61 1482.55 2314.42 1479.01 Q2316.25 1475.44 2316.25 1468.33 Q2316.25 1461.2 2314.42 1457.66 Q2312.61 1454.1 2308.98 1454.1 M2308.98 1450.39 Q2314.79 1450.39 2317.84 1455 Q2320.92 1459.58 2320.92 1468.33 Q2320.92 1477.06 2317.84 1481.67 Q2314.79 1486.25 2308.98 1486.25 Q2303.17 1486.25 2300.09 1481.67 Q2297.03 1477.06 2297.03 1468.33 Q2297.03 1459.58 2300.09 1455 Q2303.17 1450.39 2308.98 1450.39 Z" fill="#ffffff" fill-rule="evenodd" fill-opacity="1" /><path clip-path="url(#clip480)" d="M1225.39 1524.18 L1225.39 1530.96 Q1222.14 1527.94 1218.45 1526.44 Q1214.79 1524.95 1210.65 1524.95 Q1202.5 1524.95 1198.17 1529.95 Q1193.84 1534.91 1193.84 1544.33 Q1193.84 1553.72 1198.17 1558.72 Q1202.5 1563.68 1210.65 1563.68 Q1214.79 1563.68 1218.45 1562.19 Q1222.14 1560.69 1225.39 1557.67 L1225.39 1564.38 Q1222.01 1566.68 1218.23 1567.82 Q1214.47 1568.97 1210.27 1568.97 Q1199.48 1568.97 1193.27 1562.38 Q1187.07 1555.76 1187.07 1544.33 Q1187.07 1532.87 1193.27 1526.28 Q1199.48 1519.66 1210.27 1519.66 Q1214.53 1519.66 1218.29 1520.81 Q1222.08 1521.92 1225.39 1524.18 Z" fill="#ffffff" fill-rule="evenodd" fill-opacity="1" /><path clip-path="url(#clip480)" d="M1264.7 1546.53 L1264.7 1568.04 L1258.84 1568.04 L1258.84 1546.72 Q1258.84 1541.66 1256.87 1539.14 Q1254.89 1536.63 1250.95 1536.63 Q1246.2 1536.63 1243.47 1539.65 Q1240.73 1542.68 1240.73 1547.9 L1240.73 1568.04 L1234.84 1568.04 L1234.84 1518.52 L1240.73 1518.52 L1240.73 1537.93 Q1242.83 1534.72 1245.66 1533.13 Q1248.53 1531.54 1252.25 1531.54 Q1258.39 1531.54 1261.54 1535.36 Q1264.7 1539.14 1264.7 1546.53 Z" fill="#ffffff" fill-rule="evenodd" fill-opacity="1" /><path clip-path="url(#clip480)" d="M1292.58 1550.12 Q1285.48 1550.12 1282.74 1551.75 Q1280 1553.37 1280 1557.29 Q1280 1560.4 1282.04 1562.25 Q1284.11 1564.07 1287.64 1564.07 Q1292.51 1564.07 1295.44 1560.63 Q1298.4 1557.16 1298.4 1551.43 L1298.4 1550.12 L1292.58 1550.12 M1304.26 1547.71 L1304.26 1568.04 L1298.4 1568.04 L1298.4 1562.63 Q1296.4 1565.88 1293.4 1567.44 Q1290.41 1568.97 1286.08 1568.97 Q1280.61 1568.97 1277.36 1565.91 Q1274.15 1562.82 1274.15 1557.67 Q1274.15 1551.65 1278.16 1548.6 Q1282.2 1545.54 1290.19 1545.54 L1298.4 1545.54 L1298.4 1544.97 Q1298.4 1540.93 1295.73 1538.73 Q1293.09 1536.5 1288.28 1536.5 Q1285.22 1536.5 1282.33 1537.23 Q1279.43 1537.97 1276.76 1539.43 L1276.76 1534.02 Q1279.97 1532.78 1283 1532.17 Q1286.02 1531.54 1288.88 1531.54 Q1296.62 1531.54 1300.44 1535.55 Q1304.26 1539.56 1304.26 1547.71 Z" fill="#ffffff" fill-rule="evenodd" fill-opacity="1" /><path clip-path="url(#clip480)" d="M1345.95 1546.53 L1345.95 1568.04 L1340.1 1568.04 L1340.1 1546.72 Q1340.1 1541.66 1338.12 1539.14 Q1336.15 1536.63 1332.2 1536.63 Q1327.46 1536.63 1324.72 1539.65 Q1321.99 1542.68 1321.99 1547.9 L1321.99 1568.04 L1316.1 1568.04 L1316.1 1532.4 L1321.99 1532.4 L1321.99 1537.93 Q1324.09 1534.72 1326.92 1533.13 Q1329.78 1531.54 1333.51 1531.54 Q1339.65 1531.54 1342.8 1535.36 Q1345.95 1539.14 1345.95 1546.53 Z" fill="#ffffff" fill-rule="evenodd" fill-opacity="1" /><path clip-path="url(#clip480)" d="M1387.27 1546.53 L1387.27 1568.04 L1381.41 1568.04 L1381.41 1546.72 Q1381.41 1541.66 1379.44 1539.14 Q1377.46 1536.63 1373.52 1536.63 Q1368.77 1536.63 1366.04 1539.65 Q1363.3 1542.68 1363.3 1547.9 L1363.3 1568.04 L1357.41 1568.04 L1357.41 1532.4 L1363.3 1532.4 L1363.3 1537.93 Q1365.4 1534.72 1368.23 1533.13 Q1371.1 1531.54 1374.82 1531.54 Q1380.96 1531.54 1384.12 1535.36 Q1387.27 1539.14 1387.27 1546.53 Z" fill="#ffffff" fill-rule="evenodd" fill-opacity="1" /><path clip-path="url(#clip480)" d="M1429.44 1548.76 L1429.44 1551.62 L1402.51 1551.62 Q1402.89 1557.67 1406.14 1560.85 Q1409.42 1564 1415.24 1564 Q1418.62 1564 1421.77 1563.17 Q1424.95 1562.35 1428.07 1560.69 L1428.07 1566.23 Q1424.92 1567.57 1421.61 1568.27 Q1418.3 1568.97 1414.89 1568.97 Q1406.36 1568.97 1401.37 1564 Q1396.4 1559.04 1396.4 1550.57 Q1396.4 1541.82 1401.11 1536.69 Q1405.85 1531.54 1413.88 1531.54 Q1421.07 1531.54 1425.24 1536.18 Q1429.44 1540.8 1429.44 1548.76 M1423.58 1547.04 Q1423.52 1542.23 1420.88 1539.37 Q1418.27 1536.5 1413.94 1536.5 Q1409.04 1536.5 1406.08 1539.27 Q1403.15 1542.04 1402.7 1547.07 L1423.58 1547.04 Z" fill="#ffffff" fill-rule="evenodd" fill-opacity="1" /><path clip-path="url(#clip480)" d="M1439.05 1518.52 L1444.91 1518.52 L1444.91 1568.04 L1439.05 1568.04 L1439.05 1518.52 Z" fill="#ffffff" fill-rule="evenodd" fill-opacity="1" /><polyline clip-path="url(#clip482)" style="stroke:#ffffff; stroke-linecap:round; stroke-linejoin:round; stroke-width:2; stroke-opacity:0.1; fill:none" points="279.218,1222.91 2352.76,1222.91 "/>
<polyline clip-path="url(#clip482)" style="stroke:#ffffff; stroke-linecap:round; stroke-linejoin:round; stroke-width:2; stroke-opacity:0.1; fill:none" points="279.218,895.94 2352.76,895.94 "/>
<polyline clip-path="url(#clip482)" style="stroke:#ffffff; stroke-linecap:round; stroke-linejoin:round; stroke-width:2; stroke-opacity:0.1; fill:none" points="279.218,568.969 2352.76,568.969 "/>
<polyline clip-path="url(#clip482)" style="stroke:#ffffff; stroke-linecap:round; stroke-linejoin:round; stroke-width:2; stroke-opacity:0.1; fill:none" points="279.218,241.999 2352.76,241.999 "/>
<polyline clip-path="url(#clip480)" style="stroke:#ffffff; stroke-linecap:round; stroke-linejoin:round; stroke-width:4; stroke-opacity:1; fill:none" points="279.218,1423.18 279.218,123.472 "/>
<polyline clip-path="url(#clip480)" style="stroke:#ffffff; stroke-linecap:round; stroke-linejoin:round; stroke-width:4; stroke-opacity:1; fill:none" points="279.218,1222.91 298.115,1222.91 "/>
<polyline clip-path="url(#clip480)" style="stroke:#ffffff; stroke-linecap:round; stroke-linejoin:round; stroke-width:4; stroke-opacity:1; fill:none" points="279.218,895.94 298.115,895.94 "/>
<polyline clip-path="url(#clip480)" style="stroke:#ffffff; stroke-linecap:round; stroke-linejoin:round; stroke-width:4; stroke-opacity:1; fill:none" points="279.218,568.969 298.115,568.969 "/>
<polyline clip-path="url(#clip480)" style="stroke:#ffffff; stroke-linecap:round; stroke-linejoin:round; stroke-width:4; stroke-opacity:1; fill:none" points="279.218,241.999 298.115,241.999 "/>
<path clip-path="url(#clip480)" d="M129.885 1221.56 Q133.242 1222.27 135.117 1224.54 Q137.015 1226.81 137.015 1230.14 Q137.015 1235.26 133.496 1238.06 Q129.978 1240.86 123.496 1240.86 Q121.32 1240.86 119.006 1240.42 Q116.714 1240.01 114.26 1239.15 L114.26 1234.63 Q116.205 1235.77 118.519 1236.35 Q120.834 1236.93 123.357 1236.93 Q127.755 1236.93 130.047 1235.19 Q132.362 1233.45 132.362 1230.14 Q132.362 1227.09 130.209 1225.38 Q128.08 1223.64 124.26 1223.64 L120.232 1223.64 L120.232 1219.8 L124.445 1219.8 Q127.894 1219.8 129.723 1218.43 Q131.552 1217.04 131.552 1214.45 Q131.552 1211.79 129.654 1210.38 Q127.779 1208.94 124.26 1208.94 Q122.339 1208.94 120.14 1209.36 Q117.941 1209.77 115.302 1210.65 L115.302 1206.49 Q117.964 1205.75 120.279 1205.38 Q122.617 1205.01 124.677 1205.01 Q130.001 1205.01 133.103 1207.44 Q136.204 1209.84 136.204 1213.96 Q136.204 1216.83 134.561 1218.82 Q132.917 1220.79 129.885 1221.56 Z" fill="#ffffff" fill-rule="evenodd" fill-opacity="1" /><path clip-path="url(#clip480)" d="M145.88 1234.31 L150.765 1234.31 L150.765 1240.19 L145.88 1240.19 L145.88 1234.31 Z" fill="#ffffff" fill-rule="evenodd" fill-opacity="1" /><path clip-path="url(#clip480)" d="M160.996 1205.63 L179.352 1205.63 L179.352 1209.57 L165.278 1209.57 L165.278 1218.04 Q166.297 1217.69 167.315 1217.53 Q168.334 1217.34 169.352 1217.34 Q175.139 1217.34 178.519 1220.51 Q181.899 1223.69 181.899 1229.1 Q181.899 1234.68 178.426 1237.78 Q174.954 1240.86 168.635 1240.86 Q166.459 1240.86 164.19 1240.49 Q161.945 1240.12 159.538 1239.38 L159.538 1234.68 Q161.621 1235.82 163.843 1236.37 Q166.065 1236.93 168.542 1236.93 Q172.547 1236.93 174.885 1234.82 Q177.223 1232.71 177.223 1229.1 Q177.223 1225.49 174.885 1223.38 Q172.547 1221.28 168.542 1221.28 Q166.667 1221.28 164.792 1221.7 Q162.94 1222.11 160.996 1222.99 L160.996 1205.63 Z" fill="#ffffff" fill-rule="evenodd" fill-opacity="1" /><path clip-path="url(#clip480)" d="M191.25 1239.47 L191.25 1235.21 Q193.01 1236.05 194.815 1236.49 Q196.621 1236.93 198.357 1236.93 Q202.987 1236.93 205.417 1233.82 Q207.871 1230.7 208.218 1224.36 Q206.875 1226.35 204.815 1227.41 Q202.755 1228.48 200.255 1228.48 Q195.07 1228.48 192.038 1225.35 Q189.028 1222.2 189.028 1216.76 Q189.028 1211.44 192.176 1208.22 Q195.325 1205.01 200.556 1205.01 Q206.551 1205.01 209.699 1209.61 Q212.871 1214.2 212.871 1222.95 Q212.871 1231.12 208.982 1236 Q205.116 1240.86 198.565 1240.86 Q196.806 1240.86 195 1240.51 Q193.195 1240.17 191.25 1239.47 M200.556 1224.82 Q203.704 1224.82 205.533 1222.67 Q207.385 1220.51 207.385 1216.76 Q207.385 1213.04 205.533 1210.89 Q203.704 1208.71 200.556 1208.71 Q197.408 1208.71 195.556 1210.89 Q193.727 1213.04 193.727 1216.76 Q193.727 1220.51 195.556 1222.67 Q197.408 1224.82 200.556 1224.82 Z" fill="#ffffff" fill-rule="evenodd" fill-opacity="1" /><path clip-path="url(#clip480)" d="M231.273 1208.71 Q227.662 1208.71 225.834 1212.27 Q224.028 1215.82 224.028 1222.95 Q224.028 1230.05 225.834 1233.62 Q227.662 1237.16 231.273 1237.16 Q234.908 1237.16 236.713 1233.62 Q238.542 1230.05 238.542 1222.95 Q238.542 1215.82 236.713 1212.27 Q234.908 1208.71 231.273 1208.71 M231.273 1205.01 Q237.084 1205.01 240.139 1209.61 Q243.218 1214.2 243.218 1222.95 Q243.218 1231.67 240.139 1236.28 Q237.084 1240.86 231.273 1240.86 Q225.463 1240.86 222.385 1236.28 Q219.329 1231.67 219.329 1222.95 Q219.329 1214.2 222.385 1209.61 Q225.463 1205.01 231.273 1205.01 Z" fill="#ffffff" fill-rule="evenodd" fill-opacity="1" /><path clip-path="url(#clip480)" d="M130.88 894.586 Q134.237 895.303 136.112 897.572 Q138.01 899.84 138.01 903.174 Q138.01 908.289 134.492 911.09 Q130.973 913.891 124.492 913.891 Q122.316 913.891 120.001 913.451 Q117.709 913.035 115.256 912.178 L115.256 907.664 Q117.2 908.799 119.515 909.377 Q121.83 909.956 124.353 909.956 Q128.751 909.956 131.042 908.22 Q133.357 906.484 133.357 903.174 Q133.357 900.118 131.205 898.405 Q129.075 896.669 125.255 896.669 L121.228 896.669 L121.228 892.827 L125.441 892.827 Q128.89 892.827 130.718 891.461 Q132.547 890.072 132.547 887.479 Q132.547 884.817 130.649 883.405 Q128.774 881.97 125.255 881.97 Q123.334 881.97 121.135 882.387 Q118.936 882.803 116.297 883.683 L116.297 879.516 Q118.959 878.776 121.274 878.405 Q123.612 878.035 125.672 878.035 Q130.996 878.035 134.098 880.465 Q137.2 882.873 137.2 886.993 Q137.2 889.864 135.556 891.854 Q133.913 893.822 130.88 894.586 Z" fill="#ffffff" fill-rule="evenodd" fill-opacity="1" /><path clip-path="url(#clip480)" d="M146.876 907.34 L151.76 907.34 L151.76 913.22 L146.876 913.22 L146.876 907.34 Z" fill="#ffffff" fill-rule="evenodd" fill-opacity="1" /><path clip-path="url(#clip480)" d="M161.991 878.66 L180.348 878.66 L180.348 882.595 L166.274 882.595 L166.274 891.067 Q167.292 890.72 168.311 890.558 Q169.329 890.373 170.348 890.373 Q176.135 890.373 179.514 893.544 Q182.894 896.715 182.894 902.132 Q182.894 907.711 179.422 910.813 Q175.95 913.891 169.63 913.891 Q167.454 913.891 165.186 913.521 Q162.94 913.15 160.533 912.41 L160.533 907.711 Q162.616 908.845 164.839 909.4 Q167.061 909.956 169.538 909.956 Q173.542 909.956 175.88 907.85 Q178.218 905.743 178.218 902.132 Q178.218 898.521 175.88 896.414 Q173.542 894.308 169.538 894.308 Q167.663 894.308 165.788 894.725 Q163.936 895.141 161.991 896.021 L161.991 878.66 Z" fill="#ffffff" fill-rule="evenodd" fill-opacity="1" /><path clip-path="url(#clip480)" d="M192.246 912.502 L192.246 908.243 Q194.005 909.076 195.811 909.516 Q197.616 909.956 199.352 909.956 Q203.982 909.956 206.412 906.854 Q208.866 903.729 209.213 897.387 Q207.871 899.377 205.811 900.442 Q203.75 901.507 201.25 901.507 Q196.065 901.507 193.033 898.382 Q190.024 895.234 190.024 889.794 Q190.024 884.47 193.172 881.252 Q196.32 878.035 201.551 878.035 Q207.547 878.035 210.695 882.641 Q213.866 887.225 213.866 895.975 Q213.866 904.146 209.977 909.03 Q206.112 913.891 199.561 913.891 Q197.801 913.891 195.996 913.544 Q194.19 913.197 192.246 912.502 M201.551 897.85 Q204.699 897.85 206.528 895.697 Q208.38 893.544 208.38 889.794 Q208.38 886.067 206.528 883.915 Q204.699 881.739 201.551 881.739 Q198.403 881.739 196.551 883.915 Q194.723 886.067 194.723 889.794 Q194.723 893.544 196.551 895.697 Q198.403 897.85 201.551 897.85 Z" fill="#ffffff" fill-rule="evenodd" fill-opacity="1" /><path clip-path="url(#clip480)" d="M222.315 878.66 L240.672 878.66 L240.672 882.595 L226.598 882.595 L226.598 891.067 Q227.616 890.72 228.635 890.558 Q229.653 890.373 230.672 890.373 Q236.459 890.373 239.838 893.544 Q243.218 896.715 243.218 902.132 Q243.218 907.711 239.746 910.813 Q236.273 913.891 229.954 913.891 Q227.778 913.891 225.51 913.521 Q223.264 913.15 220.857 912.41 L220.857 907.711 Q222.94 908.845 225.162 909.4 Q227.385 909.956 229.861 909.956 Q233.866 909.956 236.204 907.85 Q238.542 905.743 238.542 902.132 Q238.542 898.521 236.204 896.414 Q233.866 894.308 229.861 894.308 Q227.986 894.308 226.111 894.725 Q224.26 895.141 222.315 896.021 L222.315 878.66 Z" fill="#ffffff" fill-rule="evenodd" fill-opacity="1" /><path clip-path="url(#clip480)" d="M129.885 567.615 Q133.242 568.333 135.117 570.601 Q137.015 572.87 137.015 576.203 Q137.015 581.319 133.496 584.12 Q129.978 586.921 123.496 586.921 Q121.32 586.921 119.006 586.481 Q116.714 586.064 114.26 585.208 L114.26 580.694 Q116.205 581.828 118.519 582.407 Q120.834 582.986 123.357 582.986 Q127.755 582.986 130.047 581.249 Q132.362 579.513 132.362 576.203 Q132.362 573.148 130.209 571.435 Q128.08 569.699 124.26 569.699 L120.232 569.699 L120.232 565.856 L124.445 565.856 Q127.894 565.856 129.723 564.49 Q131.552 563.101 131.552 560.509 Q131.552 557.847 129.654 556.435 Q127.779 555 124.26 555 Q122.339 555 120.14 555.416 Q117.941 555.833 115.302 556.713 L115.302 552.546 Q117.964 551.805 120.279 551.435 Q122.617 551.064 124.677 551.064 Q130.001 551.064 133.103 553.495 Q136.204 555.902 136.204 560.023 Q136.204 562.893 134.561 564.884 Q132.917 566.851 129.885 567.615 Z" fill="#ffffff" fill-rule="evenodd" fill-opacity="1" /><path clip-path="url(#clip480)" d="M145.88 580.37 L150.765 580.37 L150.765 586.249 L145.88 586.249 L145.88 580.37 Z" fill="#ffffff" fill-rule="evenodd" fill-opacity="1" /><path clip-path="url(#clip480)" d="M171.528 567.106 Q168.38 567.106 166.528 569.259 Q164.7 571.412 164.7 575.162 Q164.7 578.888 166.528 581.064 Q168.38 583.217 171.528 583.217 Q174.677 583.217 176.505 581.064 Q178.357 578.888 178.357 575.162 Q178.357 571.412 176.505 569.259 Q174.677 567.106 171.528 567.106 M180.811 552.453 L180.811 556.713 Q179.051 555.879 177.246 555.439 Q175.464 555 173.704 555 Q169.075 555 166.621 558.125 Q164.19 561.25 163.843 567.569 Q165.209 565.555 167.269 564.49 Q169.329 563.402 171.806 563.402 Q177.014 563.402 180.024 566.574 Q183.056 569.722 183.056 575.162 Q183.056 580.486 179.908 583.703 Q176.76 586.921 171.528 586.921 Q165.533 586.921 162.362 582.337 Q159.19 577.731 159.19 569.004 Q159.19 560.81 163.079 555.949 Q166.968 551.064 173.519 551.064 Q175.278 551.064 177.061 551.412 Q178.866 551.759 180.811 552.453 Z" fill="#ffffff" fill-rule="evenodd" fill-opacity="1" /><path clip-path="url(#clip480)" d="M201.112 554.768 Q197.5 554.768 195.672 558.333 Q193.866 561.875 193.866 569.004 Q193.866 576.111 195.672 579.675 Q197.5 583.217 201.112 583.217 Q204.746 583.217 206.551 579.675 Q208.38 576.111 208.38 569.004 Q208.38 561.875 206.551 558.333 Q204.746 554.768 201.112 554.768 M201.112 551.064 Q206.922 551.064 209.977 555.671 Q213.056 560.254 213.056 569.004 Q213.056 577.731 209.977 582.337 Q206.922 586.921 201.112 586.921 Q195.301 586.921 192.223 582.337 Q189.167 577.731 189.167 569.004 Q189.167 560.254 192.223 555.671 Q195.301 551.064 201.112 551.064 Z" fill="#ffffff" fill-rule="evenodd" fill-opacity="1" /><path clip-path="url(#clip480)" d="M231.273 554.768 Q227.662 554.768 225.834 558.333 Q224.028 561.875 224.028 569.004 Q224.028 576.111 225.834 579.675 Q227.662 583.217 231.273 583.217 Q234.908 583.217 236.713 579.675 Q238.542 576.111 238.542 569.004 Q238.542 561.875 236.713 558.333 Q234.908 554.768 231.273 554.768 M231.273 551.064 Q237.084 551.064 240.139 555.671 Q243.218 560.254 243.218 569.004 Q243.218 577.731 240.139 582.337 Q237.084 586.921 231.273 586.921 Q225.463 586.921 222.385 582.337 Q219.329 577.731 219.329 569.004 Q219.329 560.254 222.385 555.671 Q225.463 551.064 231.273 551.064 Z" fill="#ffffff" fill-rule="evenodd" fill-opacity="1" /><path clip-path="url(#clip480)" d="M130.88 240.645 Q134.237 241.362 136.112 243.631 Q138.01 245.899 138.01 249.233 Q138.01 254.348 134.492 257.149 Q130.973 259.95 124.492 259.95 Q122.316 259.95 120.001 259.51 Q117.709 259.094 115.256 258.237 L115.256 253.723 Q117.2 254.858 119.515 255.436 Q121.83 256.015 124.353 256.015 Q128.751 256.015 131.042 254.279 Q133.357 252.543 133.357 249.233 Q133.357 246.177 131.205 244.464 Q129.075 242.728 125.255 242.728 L121.228 242.728 L121.228 238.886 L125.441 238.886 Q128.89 238.886 130.718 237.52 Q132.547 236.131 132.547 233.538 Q132.547 230.876 130.649 229.464 Q128.774 228.029 125.255 228.029 Q123.334 228.029 121.135 228.446 Q118.936 228.862 116.297 229.742 L116.297 225.575 Q118.959 224.835 121.274 224.464 Q123.612 224.094 125.672 224.094 Q130.996 224.094 134.098 226.524 Q137.2 228.932 137.2 233.052 Q137.2 235.923 135.556 237.913 Q133.913 239.881 130.88 240.645 Z" fill="#ffffff" fill-rule="evenodd" fill-opacity="1" /><path clip-path="url(#clip480)" d="M146.876 253.399 L151.76 253.399 L151.76 259.279 L146.876 259.279 L146.876 253.399 Z" fill="#ffffff" fill-rule="evenodd" fill-opacity="1" /><path clip-path="url(#clip480)" d="M172.524 240.136 Q169.376 240.136 167.524 242.288 Q165.695 244.441 165.695 248.191 Q165.695 251.918 167.524 254.094 Q169.376 256.247 172.524 256.247 Q175.672 256.247 177.501 254.094 Q179.352 251.918 179.352 248.191 Q179.352 244.441 177.501 242.288 Q175.672 240.136 172.524 240.136 M181.806 225.483 L181.806 229.742 Q180.047 228.909 178.241 228.469 Q176.459 228.029 174.7 228.029 Q170.07 228.029 167.616 231.154 Q165.186 234.279 164.839 240.598 Q166.204 238.585 168.264 237.52 Q170.325 236.432 172.802 236.432 Q178.01 236.432 181.019 239.603 Q184.051 242.751 184.051 248.191 Q184.051 253.515 180.903 256.733 Q177.755 259.95 172.524 259.95 Q166.528 259.95 163.357 255.367 Q160.186 250.76 160.186 242.034 Q160.186 233.839 164.075 228.978 Q167.964 224.094 174.514 224.094 Q176.274 224.094 178.056 224.441 Q179.862 224.788 181.806 225.483 Z" fill="#ffffff" fill-rule="evenodd" fill-opacity="1" /><path clip-path="url(#clip480)" d="M202.107 227.798 Q198.496 227.798 196.667 231.362 Q194.862 234.904 194.862 242.034 Q194.862 249.14 196.667 252.705 Q198.496 256.247 202.107 256.247 Q205.741 256.247 207.547 252.705 Q209.375 249.14 209.375 242.034 Q209.375 234.904 207.547 231.362 Q205.741 227.798 202.107 227.798 M202.107 224.094 Q207.917 224.094 210.973 228.7 Q214.051 233.284 214.051 242.034 Q214.051 250.76 210.973 255.367 Q207.917 259.95 202.107 259.95 Q196.297 259.95 193.218 255.367 Q190.163 250.76 190.163 242.034 Q190.163 233.284 193.218 228.7 Q196.297 224.094 202.107 224.094 Z" fill="#ffffff" fill-rule="evenodd" fill-opacity="1" /><path clip-path="url(#clip480)" d="M222.315 224.719 L240.672 224.719 L240.672 228.654 L226.598 228.654 L226.598 237.126 Q227.616 236.779 228.635 236.617 Q229.653 236.432 230.672 236.432 Q236.459 236.432 239.838 239.603 Q243.218 242.774 243.218 248.191 Q243.218 253.77 239.746 256.872 Q236.273 259.95 229.954 259.95 Q227.778 259.95 225.51 259.58 Q223.264 259.209 220.857 258.469 L220.857 253.77 Q222.94 254.904 225.162 255.46 Q227.385 256.015 229.861 256.015 Q233.866 256.015 236.204 253.909 Q238.542 251.802 238.542 248.191 Q238.542 244.58 236.204 242.473 Q233.866 240.367 229.861 240.367 Q227.986 240.367 226.111 240.784 Q224.26 241.2 222.315 242.08 L222.315 224.719 Z" fill="#ffffff" fill-rule="evenodd" fill-opacity="1" /><path clip-path="url(#clip480)" d="M16.4842 1034.32 L16.4842 994.121 L21.895 994.121 L21.895 1010.99 L64.0042 1010.99 L64.0042 1017.45 L21.895 1017.45 L21.895 1034.32 L16.4842 1034.32 Z" fill="#ffffff" fill-rule="evenodd" fill-opacity="1" /><path clip-path="url(#clip480)" d="M28.3562 990.174 L28.3562 984.317 L64.0042 984.317 L64.0042 990.174 L28.3562 990.174 M14.479 990.174 L14.479 984.317 L21.895 984.317 L21.895 990.174 L14.479 990.174 Z" fill="#ffffff" fill-rule="evenodd" fill-opacity="1" /><path clip-path="url(#clip480)" d="M35.1993 944.309 Q31.2526 942.113 29.3747 939.057 Q27.4968 936.002 27.4968 931.864 Q27.4968 926.294 31.4117 923.27 Q35.2948 920.246 42.4881 920.246 L64.0042 920.246 L64.0042 926.135 L42.679 926.135 Q37.5546 926.135 35.072 927.949 Q32.5894 929.763 32.5894 933.487 Q32.5894 938.039 35.6131 940.68 Q38.6368 943.322 43.8567 943.322 L64.0042 943.322 L64.0042 949.21 L42.679 949.21 Q37.5228 949.21 35.072 951.025 Q32.5894 952.839 32.5894 956.627 Q32.5894 961.114 35.6449 963.756 Q38.6686 966.398 43.8567 966.398 L64.0042 966.398 L64.0042 972.286 L28.3562 972.286 L28.3562 966.398 L33.8944 966.398 Q30.616 964.393 29.0564 961.592 Q27.4968 958.791 27.4968 954.94 Q27.4968 951.057 29.4702 948.351 Q31.4436 945.614 35.1993 944.309 Z" fill="#ffffff" fill-rule="evenodd" fill-opacity="1" /><path clip-path="url(#clip480)" d="M44.7161 878.074 L47.5806 878.074 L47.5806 905.001 Q53.6281 904.619 56.8109 901.372 Q59.9619 898.094 59.9619 892.269 Q59.9619 888.895 59.1344 885.744 Q58.3069 882.562 56.6518 879.442 L62.1899 879.442 Q63.5267 882.593 64.227 885.904 Q64.9272 889.214 64.9272 892.619 Q64.9272 901.149 59.9619 906.146 Q54.9967 911.112 46.5303 911.112 Q37.7774 911.112 32.6531 906.401 Q27.4968 901.659 27.4968 893.638 Q27.4968 886.445 32.1438 882.275 Q36.7589 878.074 44.7161 878.074 M42.9973 883.93 Q38.1912 883.994 35.3266 886.636 Q32.4621 889.246 32.4621 893.574 Q32.4621 898.476 35.2312 901.436 Q38.0002 904.364 43.0292 904.81 L42.9973 883.93 Z" fill="#ffffff" fill-rule="evenodd" fill-opacity="1" /><path clip-path="url(#clip480)" d="M33.7671 824.283 L14.479 824.283 L14.479 818.427 L64.0042 818.427 L64.0042 824.283 L58.657 824.283 Q61.8398 826.13 63.3994 828.962 Q64.9272 831.763 64.9272 835.71 Q64.9272 842.171 59.771 846.245 Q54.6147 850.287 46.212 850.287 Q37.8093 850.287 32.6531 846.245 Q27.4968 842.171 27.4968 835.71 Q27.4968 831.763 29.0564 828.962 Q30.5842 826.13 33.7671 824.283 M46.212 844.24 Q52.6732 844.24 56.3653 841.598 Q60.0256 838.925 60.0256 834.278 Q60.0256 829.631 56.3653 826.957 Q52.6732 824.283 46.212 824.283 Q39.7508 824.283 36.0905 826.957 Q32.3984 829.631 32.3984 834.278 Q32.3984 838.925 36.0905 841.598 Q39.7508 844.24 46.212 844.24 Z" fill="#ffffff" fill-rule="evenodd" fill-opacity="1" /><path clip-path="url(#clip480)" d="M44.7161 775.872 L47.5806 775.872 L47.5806 802.799 Q53.6281 802.417 56.8109 799.171 Q59.9619 795.892 59.9619 790.068 Q59.9619 786.694 59.1344 783.543 Q58.3069 780.36 56.6518 777.241 L62.1899 777.241 Q63.5267 780.392 64.227 783.702 Q64.9272 787.012 64.9272 790.418 Q64.9272 798.948 59.9619 803.945 Q54.9967 808.91 46.5303 808.91 Q37.7774 808.91 32.6531 804.2 Q27.4968 799.457 27.4968 791.436 Q27.4968 784.243 32.1438 780.074 Q36.7589 775.872 44.7161 775.872 M42.9973 781.729 Q38.1912 781.792 35.3266 784.434 Q32.4621 787.044 32.4621 791.373 Q32.4621 796.274 35.2312 799.234 Q38.0002 802.163 43.0292 802.608 L42.9973 781.729 Z" fill="#ffffff" fill-rule="evenodd" fill-opacity="1" /><path clip-path="url(#clip480)" d="M14.479 766.26 L14.479 760.404 L64.0042 760.404 L64.0042 766.26 L14.479 766.26 Z" fill="#ffffff" fill-rule="evenodd" fill-opacity="1" /><path clip-path="url(#clip480)" d="M46.0847 731.949 Q46.0847 739.047 47.7079 741.784 Q49.3312 744.521 53.2461 744.521 Q56.3653 744.521 58.2114 742.484 Q60.0256 740.415 60.0256 736.882 Q60.0256 732.013 56.5881 729.084 Q53.1188 726.124 47.3897 726.124 L46.0847 726.124 L46.0847 731.949 M43.6657 720.268 L64.0042 720.268 L64.0042 726.124 L58.5933 726.124 Q61.8398 728.129 63.3994 731.121 Q64.9272 734.113 64.9272 738.442 Q64.9272 743.916 61.8716 747.163 Q58.7843 750.378 53.6281 750.378 Q47.6125 750.378 44.5569 746.367 Q41.5014 742.325 41.5014 734.336 L41.5014 726.124 L40.9285 726.124 Q36.8862 726.124 34.6901 728.798 Q32.4621 731.44 32.4621 736.246 Q32.4621 739.301 33.1941 742.198 Q33.9262 745.094 35.3903 747.768 L29.9795 747.768 Q28.7381 744.553 28.1334 741.529 Q27.4968 738.506 27.4968 735.641 Q27.4968 727.907 31.5072 724.087 Q35.5176 720.268 43.6657 720.268 Z" fill="#ffffff" fill-rule="evenodd" fill-opacity="1" /><path clip-path="url(#clip480)" d="M67.3143 693.373 Q73.68 695.855 75.6216 698.211 Q77.5631 700.566 77.5631 704.513 L77.5631 709.191 L72.6615 709.191 L72.6615 705.754 Q72.6615 703.335 71.5157 701.998 Q70.3699 700.661 66.1048 699.038 L63.4312 697.988 L28.3562 712.406 L28.3562 706.2 L56.238 695.06 L28.3562 683.92 L28.3562 677.713 L67.3143 693.373 Z" fill="#ffffff" fill-rule="evenodd" fill-opacity="1" /><path clip-path="url(#clip480)" d="M14.479 649.449 L14.479 635.954 L19.0304 635.954 L19.0304 643.593 L68.0464 643.593 L68.0464 635.954 L72.5979 635.954 L72.5979 649.449 L14.479 649.449 Z" fill="#ffffff" fill-rule="evenodd" fill-opacity="1" /><path clip-path="url(#clip480)" d="M35.1993 595.723 Q31.2526 593.527 29.3747 590.471 Q27.4968 587.416 27.4968 583.278 Q27.4968 577.708 31.4117 574.684 Q35.2948 571.66 42.4881 571.66 L64.0042 571.66 L64.0042 577.549 L42.679 577.549 Q37.5546 577.549 35.072 579.363 Q32.5894 581.177 32.5894 584.901 Q32.5894 589.453 35.6131 592.094 Q38.6368 594.736 43.8567 594.736 L64.0042 594.736 L64.0042 600.624 L42.679 600.624 Q37.5228 600.624 35.072 602.439 Q32.5894 604.253 32.5894 608.04 Q32.5894 612.528 35.6449 615.17 Q38.6686 617.812 43.8567 617.812 L64.0042 617.812 L64.0042 623.7 L28.3562 623.7 L28.3562 617.812 L33.8944 617.812 Q30.616 615.807 29.0564 613.006 Q27.4968 610.205 27.4968 606.353 Q27.4968 602.47 29.4702 599.765 Q31.4436 597.028 35.1993 595.723 Z" fill="#ffffff" fill-rule="evenodd" fill-opacity="1" /><path clip-path="url(#clip480)" d="M29.4065 537.254 L34.9447 537.254 Q33.6716 539.736 33.035 542.41 Q32.3984 545.084 32.3984 547.948 Q32.3984 552.309 33.7352 554.505 Q35.072 556.669 37.7456 556.669 Q39.7826 556.669 40.9603 555.11 Q42.1061 553.55 43.1565 548.839 L43.6021 546.834 Q44.9389 540.596 47.3897 537.986 Q49.8086 535.344 54.1691 535.344 Q59.1344 535.344 62.0308 539.291 Q64.9272 543.206 64.9272 550.081 Q64.9272 552.945 64.3543 556.064 Q63.8132 559.152 62.6992 562.589 L56.6518 562.589 Q58.3387 559.343 59.198 556.192 Q60.0256 553.041 60.0256 549.953 Q60.0256 545.816 58.6251 543.588 Q57.1929 541.36 54.6147 541.36 Q52.2276 541.36 50.9545 542.983 Q49.6813 544.574 48.5037 550.017 L48.0262 552.054 Q46.8804 557.497 44.5251 559.916 Q42.138 562.335 38.0002 562.335 Q32.9713 562.335 30.2341 558.77 Q27.4968 555.205 27.4968 548.648 Q27.4968 545.402 27.9743 542.537 Q28.4517 539.673 29.4065 537.254 Z" fill="#ffffff" fill-rule="evenodd" fill-opacity="1" /><path clip-path="url(#clip480)" d="M14.479 512.332 L72.5979 512.332 L72.5979 525.827 L68.0464 525.827 L68.0464 518.22 L19.0304 518.22 L19.0304 525.827 L14.479 525.827 L14.479 512.332 Z" fill="#ffffff" fill-rule="evenodd" fill-opacity="1" /><path clip-path="url(#clip480)" d="M640.235 12.096 L691.398 12.096 L691.398 18.9825 L669.928 18.9825 L669.928 72.576 L661.705 72.576 L661.705 18.9825 L640.235 18.9825 L640.235 12.096 Z" fill="#ffffff" fill-rule="evenodd" fill-opacity="1" /><path clip-path="url(#clip480)" d="M696.421 27.2059 L703.875 27.2059 L703.875 72.576 L696.421 72.576 L696.421 27.2059 M696.421 9.54393 L703.875 9.54393 L703.875 18.9825 L696.421 18.9825 L696.421 9.54393 Z" fill="#ffffff" fill-rule="evenodd" fill-opacity="1" /><path clip-path="url(#clip480)" d="M754.795 35.9153 Q757.59 30.8922 761.479 28.5022 Q765.368 26.1121 770.634 26.1121 Q777.723 26.1121 781.571 31.0947 Q785.42 36.0368 785.42 45.1919 L785.42 72.576 L777.925 72.576 L777.925 45.4349 Q777.925 38.913 775.616 35.7533 Q773.307 32.5936 768.568 32.5936 Q762.775 32.5936 759.413 36.4419 Q756.051 40.2903 756.051 46.9338 L756.051 72.576 L748.556 72.576 L748.556 45.4349 Q748.556 38.8725 746.247 35.7533 Q743.938 32.5936 739.118 32.5936 Q733.406 32.5936 730.044 36.4824 Q726.682 40.3308 726.682 46.9338 L726.682 72.576 L719.187 72.576 L719.187 27.2059 L726.682 27.2059 L726.682 34.2544 Q729.234 30.082 732.798 28.0971 Q736.363 26.1121 741.265 26.1121 Q746.207 26.1121 749.65 28.6237 Q753.134 31.1352 754.795 35.9153 Z" fill="#ffffff" fill-rule="evenodd" fill-opacity="1" /><path clip-path="url(#clip480)" d="M839.094 48.0275 L839.094 51.6733 L804.824 51.6733 Q805.31 59.3701 809.442 63.421 Q813.614 67.4314 821.027 67.4314 Q825.321 67.4314 829.331 66.3781 Q833.382 65.3249 837.352 63.2184 L837.352 70.267 Q833.342 71.9684 829.129 72.8596 Q824.916 73.7508 820.582 73.7508 Q809.725 73.7508 803.365 67.4314 Q797.046 61.1119 797.046 50.3365 Q797.046 39.1965 803.041 32.6746 Q809.077 26.1121 819.285 26.1121 Q828.44 26.1121 833.747 32.0264 Q839.094 37.9003 839.094 48.0275 M831.64 45.84 Q831.559 39.7232 828.197 36.0774 Q824.875 32.4315 819.366 32.4315 Q813.128 32.4315 809.361 35.9558 Q805.634 39.4801 805.067 45.8805 L831.64 45.84 Z" fill="#ffffff" fill-rule="evenodd" fill-opacity="1" /><path clip-path="url(#clip480)" d="M907.554 34.0924 L907.554 9.54393 L915.008 9.54393 L915.008 72.576 L907.554 72.576 L907.554 65.7705 Q905.205 69.8214 901.6 71.8063 Q898.035 73.7508 893.012 73.7508 Q884.788 73.7508 879.603 67.1883 Q874.459 60.6258 874.459 49.9314 Q874.459 39.2371 879.603 32.6746 Q884.788 26.1121 893.012 26.1121 Q898.035 26.1121 901.6 28.0971 Q905.205 30.0415 907.554 34.0924 M882.155 49.9314 Q882.155 58.1548 885.518 62.8538 Q888.92 67.5124 894.835 67.5124 Q900.749 67.5124 904.152 62.8538 Q907.554 58.1548 907.554 49.9314 Q907.554 41.7081 904.152 37.0496 Q900.749 32.3505 894.835 32.3505 Q888.92 32.3505 885.518 37.0496 Q882.155 41.7081 882.155 49.9314 Z" fill="#ffffff" fill-rule="evenodd" fill-opacity="1" /><path clip-path="url(#clip480)" d="M969.169 48.0275 L969.169 51.6733 L934.898 51.6733 Q935.384 59.3701 939.516 63.421 Q943.689 67.4314 951.102 67.4314 Q955.396 67.4314 959.406 66.3781 Q963.457 65.3249 967.427 63.2184 L967.427 70.267 Q963.416 71.9684 959.203 72.8596 Q954.991 73.7508 950.656 73.7508 Q939.8 73.7508 933.44 67.4314 Q927.12 61.1119 927.12 50.3365 Q927.12 39.1965 933.116 32.6746 Q939.151 26.1121 949.36 26.1121 Q958.515 26.1121 963.821 32.0264 Q969.169 37.9003 969.169 48.0275 M961.715 45.84 Q961.634 39.7232 958.272 36.0774 Q954.95 32.4315 949.441 32.4315 Q943.202 32.4315 939.435 35.9558 Q935.708 39.4801 935.141 45.8805 L961.715 45.84 Z" fill="#ffffff" fill-rule="evenodd" fill-opacity="1" /><path clip-path="url(#clip480)" d="M981.402 9.54393 L988.856 9.54393 L988.856 72.576 L981.402 72.576 L981.402 9.54393 Z" fill="#ffffff" fill-rule="evenodd" fill-opacity="1" /><path clip-path="url(#clip480)" d="M1025.07 49.7694 Q1016.04 49.7694 1012.55 51.8354 Q1009.07 53.9013 1009.07 58.8839 Q1009.07 62.8538 1011.66 65.2034 Q1014.3 67.5124 1018.79 67.5124 Q1024.99 67.5124 1028.72 63.1374 Q1032.48 58.7219 1032.48 51.4303 L1032.48 49.7694 L1025.07 49.7694 M1039.94 46.6907 L1039.94 72.576 L1032.48 72.576 L1032.48 65.6895 Q1029.93 69.8214 1026.12 71.8063 Q1022.32 73.7508 1016.81 73.7508 Q1009.84 73.7508 1005.71 69.8619 Q1001.62 65.9325 1001.62 59.3701 Q1001.62 51.7138 1006.72 47.825 Q1011.87 43.9361 1022.03 43.9361 L1032.48 43.9361 L1032.48 43.2069 Q1032.48 38.0623 1029.08 35.2672 Q1025.72 32.4315 1019.6 32.4315 Q1015.71 32.4315 1012.03 33.3632 Q1008.34 34.295 1004.94 36.1584 L1004.94 29.2718 Q1009.03 27.692 1012.88 26.9223 Q1016.73 26.1121 1020.37 26.1121 Q1030.22 26.1121 1035.08 31.2163 Q1039.94 36.3204 1039.94 46.6907 Z" fill="#ffffff" fill-rule="evenodd" fill-opacity="1" /><path clip-path="url(#clip480)" d="M1074.17 76.7889 Q1071.01 84.8907 1068.01 87.3618 Q1065.01 89.8329 1059.99 89.8329 L1054.04 89.8329 L1054.04 83.5945 L1058.41 83.5945 Q1061.49 83.5945 1063.19 82.1361 Q1064.89 80.6778 1066.96 75.2496 L1068.29 71.8468 L1049.94 27.2059 L1057.84 27.2059 L1072.02 62.6918 L1086.2 27.2059 L1094.1 27.2059 L1074.17 76.7889 Z" fill="#ffffff" fill-rule="evenodd" fill-opacity="1" /><path clip-path="url(#clip480)" d="M1169.57 48.0275 L1169.57 51.6733 L1135.3 51.6733 Q1135.78 59.3701 1139.91 63.421 Q1144.09 67.4314 1151.5 67.4314 Q1155.79 67.4314 1159.8 66.3781 Q1163.86 65.3249 1167.83 63.2184 L1167.83 70.267 Q1163.81 71.9684 1159.6 72.8596 Q1155.39 73.7508 1151.05 73.7508 Q1140.2 73.7508 1133.84 67.4314 Q1127.52 61.1119 1127.52 50.3365 Q1127.52 39.1965 1133.51 32.6746 Q1139.55 26.1121 1149.76 26.1121 Q1158.91 26.1121 1164.22 32.0264 Q1169.57 37.9003 1169.57 48.0275 M1162.11 45.84 Q1162.03 39.7232 1158.67 36.0774 Q1155.35 32.4315 1149.84 32.4315 Q1143.6 32.4315 1139.83 35.9558 Q1136.11 39.4801 1135.54 45.8805 L1162.11 45.84 Z" fill="#ffffff" fill-rule="evenodd" fill-opacity="1" /><path clip-path="url(#clip480)" d="M1210.72 28.5427 L1210.72 35.5912 Q1207.56 33.9709 1204.16 33.1607 Q1200.76 32.3505 1197.11 32.3505 Q1191.56 32.3505 1188.77 34.0519 Q1186.01 35.7533 1186.01 39.156 Q1186.01 41.7486 1188 43.2475 Q1189.98 44.7058 1195.98 46.0426 L1198.53 46.6097 Q1206.47 48.3111 1209.79 51.4303 Q1213.15 54.509 1213.15 60.0587 Q1213.15 66.3781 1208.13 70.0644 Q1203.15 73.7508 1194.4 73.7508 Q1190.75 73.7508 1186.78 73.0216 Q1182.85 72.3329 1178.48 70.9151 L1178.48 63.2184 Q1182.61 65.3654 1186.62 66.4591 Q1190.63 67.5124 1194.56 67.5124 Q1199.83 67.5124 1202.66 65.73 Q1205.5 63.9071 1205.5 60.6258 Q1205.5 57.5877 1203.43 55.9673 Q1201.41 54.3469 1194.48 52.8481 L1191.89 52.2405 Q1184.96 50.7821 1181.88 47.7845 Q1178.8 44.7463 1178.8 39.4801 Q1178.8 33.0797 1183.34 29.5959 Q1187.88 26.1121 1196.22 26.1121 Q1200.35 26.1121 1204 26.7198 Q1207.65 27.3274 1210.72 28.5427 Z" fill="#ffffff" fill-rule="evenodd" fill-opacity="1" /><path clip-path="url(#clip480)" d="M1232.4 14.324 L1232.4 27.2059 L1247.75 27.2059 L1247.75 32.9987 L1232.4 32.9987 L1232.4 57.6282 Q1232.4 63.1779 1233.9 64.7578 Q1235.43 66.3376 1240.09 66.3376 L1247.75 66.3376 L1247.75 72.576 L1240.09 72.576 Q1231.46 72.576 1228.18 69.3758 Q1224.9 66.1351 1224.9 57.6282 L1224.9 32.9987 L1219.43 32.9987 L1219.43 27.2059 L1224.9 27.2059 L1224.9 14.324 L1232.4 14.324 Z" fill="#ffffff" fill-rule="evenodd" fill-opacity="1" /><path clip-path="url(#clip480)" d="M1257.55 27.2059 L1265.01 27.2059 L1265.01 72.576 L1257.55 72.576 L1257.55 27.2059 M1257.55 9.54393 L1265.01 9.54393 L1265.01 18.9825 L1257.55 18.9825 L1257.55 9.54393 Z" fill="#ffffff" fill-rule="evenodd" fill-opacity="1" /><path clip-path="url(#clip480)" d="M1315.93 35.9153 Q1318.72 30.8922 1322.61 28.5022 Q1326.5 26.1121 1331.77 26.1121 Q1338.85 26.1121 1342.7 31.0947 Q1346.55 36.0368 1346.55 45.1919 L1346.55 72.576 L1339.06 72.576 L1339.06 45.4349 Q1339.06 38.913 1336.75 35.7533 Q1334.44 32.5936 1329.7 32.5936 Q1323.91 32.5936 1320.54 36.4419 Q1317.18 40.2903 1317.18 46.9338 L1317.18 72.576 L1309.69 72.576 L1309.69 45.4349 Q1309.69 38.8725 1307.38 35.7533 Q1305.07 32.5936 1300.25 32.5936 Q1294.54 32.5936 1291.18 36.4824 Q1287.81 40.3308 1287.81 46.9338 L1287.81 72.576 L1280.32 72.576 L1280.32 27.2059 L1287.81 27.2059 L1287.81 34.2544 Q1290.36 30.082 1293.93 28.0971 Q1297.49 26.1121 1302.4 26.1121 Q1307.34 26.1121 1310.78 28.6237 Q1314.27 31.1352 1315.93 35.9153 Z" fill="#ffffff" fill-rule="evenodd" fill-opacity="1" /><path clip-path="url(#clip480)" d="M1382.04 49.7694 Q1373 49.7694 1369.52 51.8354 Q1366.04 53.9013 1366.04 58.8839 Q1366.04 62.8538 1368.63 65.2034 Q1371.26 67.5124 1375.76 67.5124 Q1381.96 67.5124 1385.68 63.1374 Q1389.45 58.7219 1389.45 51.4303 L1389.45 49.7694 L1382.04 49.7694 M1396.9 46.6907 L1396.9 72.576 L1389.45 72.576 L1389.45 65.6895 Q1386.9 69.8214 1383.09 71.8063 Q1379.28 73.7508 1373.77 73.7508 Q1366.81 73.7508 1362.67 69.8619 Q1358.58 65.9325 1358.58 59.3701 Q1358.58 51.7138 1363.69 47.825 Q1368.83 43.9361 1379 43.9361 L1389.45 43.9361 L1389.45 43.2069 Q1389.45 38.0623 1386.05 35.2672 Q1382.68 32.4315 1376.57 32.4315 Q1372.68 32.4315 1368.99 33.3632 Q1365.31 34.295 1361.9 36.1584 L1361.9 29.2718 Q1366 27.692 1369.84 26.9223 Q1373.69 26.1121 1377.34 26.1121 Q1387.18 26.1121 1392.04 31.2163 Q1396.9 36.3204 1396.9 46.6907 Z" fill="#ffffff" fill-rule="evenodd" fill-opacity="1" /><path clip-path="url(#clip480)" d="M1419.63 14.324 L1419.63 27.2059 L1434.98 27.2059 L1434.98 32.9987 L1419.63 32.9987 L1419.63 57.6282 Q1419.63 63.1779 1421.13 64.7578 Q1422.67 66.3376 1427.33 66.3376 L1434.98 66.3376 L1434.98 72.576 L1427.33 72.576 Q1418.7 72.576 1415.42 69.3758 Q1412.14 66.1351 1412.14 57.6282 L1412.14 32.9987 L1406.67 32.9987 L1406.67 27.2059 L1412.14 27.2059 L1412.14 14.324 L1419.63 14.324 Z" fill="#ffffff" fill-rule="evenodd" fill-opacity="1" /><path clip-path="url(#clip480)" d="M1483.59 48.0275 L1483.59 51.6733 L1449.32 51.6733 Q1449.81 59.3701 1453.94 63.421 Q1458.11 67.4314 1465.53 67.4314 Q1469.82 67.4314 1473.83 66.3781 Q1477.88 65.3249 1481.85 63.2184 L1481.85 70.267 Q1477.84 71.9684 1473.63 72.8596 Q1469.41 73.7508 1465.08 73.7508 Q1454.22 73.7508 1447.86 67.4314 Q1441.54 61.1119 1441.54 50.3365 Q1441.54 39.1965 1447.54 32.6746 Q1453.58 26.1121 1463.78 26.1121 Q1472.94 26.1121 1478.25 32.0264 Q1483.59 37.9003 1483.59 48.0275 M1476.14 45.84 Q1476.06 39.7232 1472.7 36.0774 Q1469.37 32.4315 1463.87 32.4315 Q1457.63 32.4315 1453.86 35.9558 Q1450.13 39.4801 1449.57 45.8805 L1476.14 45.84 Z" fill="#ffffff" fill-rule="evenodd" fill-opacity="1" /><path clip-path="url(#clip480)" d="M1554.85 28.9478 L1554.85 35.9153 Q1551.69 34.1734 1548.49 33.3227 Q1545.33 32.4315 1542.09 32.4315 Q1534.84 32.4315 1530.83 37.0496 Q1526.82 41.6271 1526.82 49.9314 Q1526.82 58.2358 1530.83 62.8538 Q1534.84 67.4314 1542.09 67.4314 Q1545.33 67.4314 1548.49 66.5807 Q1551.69 65.6895 1554.85 63.9476 L1554.85 70.8341 Q1551.73 72.2924 1548.37 73.0216 Q1545.05 73.7508 1541.28 73.7508 Q1531.03 73.7508 1524.99 67.3098 Q1518.96 60.8689 1518.96 49.9314 Q1518.96 38.832 1525.03 32.472 Q1531.15 26.1121 1541.76 26.1121 Q1545.21 26.1121 1548.49 26.8413 Q1551.77 27.5299 1554.85 28.9478 Z" fill="#ffffff" fill-rule="evenodd" fill-opacity="1" /><path clip-path="url(#clip480)" d="M1585.39 32.4315 Q1579.4 32.4315 1575.91 37.1306 Q1572.43 41.7891 1572.43 49.9314 Q1572.43 58.0738 1575.87 62.7728 Q1579.36 67.4314 1585.39 67.4314 Q1591.35 67.4314 1594.83 62.7323 Q1598.31 58.0333 1598.31 49.9314 Q1598.31 41.8701 1594.83 37.1711 Q1591.35 32.4315 1585.39 32.4315 M1585.39 26.1121 Q1595.11 26.1121 1600.66 32.4315 Q1606.21 38.7509 1606.21 49.9314 Q1606.21 61.0714 1600.66 67.4314 Q1595.11 73.7508 1585.39 73.7508 Q1575.63 73.7508 1570.08 67.4314 Q1564.57 61.0714 1564.57 49.9314 Q1564.57 38.7509 1570.08 32.4315 Q1575.63 26.1121 1585.39 26.1121 Z" fill="#ffffff" fill-rule="evenodd" fill-opacity="1" /><path clip-path="url(#clip480)" d="M1653.89 35.9153 Q1656.69 30.8922 1660.58 28.5022 Q1664.47 26.1121 1669.73 26.1121 Q1676.82 26.1121 1680.67 31.0947 Q1684.52 36.0368 1684.52 45.1919 L1684.52 72.576 L1677.02 72.576 L1677.02 45.4349 Q1677.02 38.913 1674.71 35.7533 Q1672.41 32.5936 1667.67 32.5936 Q1661.87 32.5936 1658.51 36.4419 Q1655.15 40.2903 1655.15 46.9338 L1655.15 72.576 L1647.65 72.576 L1647.65 45.4349 Q1647.65 38.8725 1645.35 35.7533 Q1643.04 32.5936 1638.22 32.5936 Q1632.5 32.5936 1629.14 36.4824 Q1625.78 40.3308 1625.78 46.9338 L1625.78 72.576 L1618.29 72.576 L1618.29 27.2059 L1625.78 27.2059 L1625.78 34.2544 Q1628.33 30.082 1631.9 28.0971 Q1635.46 26.1121 1640.36 26.1121 Q1645.31 26.1121 1648.75 28.6237 Q1652.23 31.1352 1653.89 35.9153 Z" fill="#ffffff" fill-rule="evenodd" fill-opacity="1" /><path clip-path="url(#clip480)" d="M1706.6 65.7705 L1706.6 89.8329 L1699.1 89.8329 L1699.1 27.2059 L1706.6 27.2059 L1706.6 34.0924 Q1708.94 30.0415 1712.51 28.0971 Q1716.11 26.1121 1721.1 26.1121 Q1729.36 26.1121 1734.51 32.6746 Q1739.69 39.2371 1739.69 49.9314 Q1739.69 60.6258 1734.51 67.1883 Q1729.36 73.7508 1721.1 73.7508 Q1716.11 73.7508 1712.51 71.8063 Q1708.94 69.8214 1706.6 65.7705 M1731.95 49.9314 Q1731.95 41.7081 1728.55 37.0496 Q1725.19 32.3505 1719.27 32.3505 Q1713.36 32.3505 1709.96 37.0496 Q1706.6 41.7081 1706.6 49.9314 Q1706.6 58.1548 1709.96 62.8538 Q1713.36 67.5124 1719.27 67.5124 Q1725.19 67.5124 1728.55 62.8538 Q1731.95 58.1548 1731.95 49.9314 Z" fill="#ffffff" fill-rule="evenodd" fill-opacity="1" /><path clip-path="url(#clip480)" d="M1772.67 49.7694 Q1763.63 49.7694 1760.15 51.8354 Q1756.66 53.9013 1756.66 58.8839 Q1756.66 62.8538 1759.26 65.2034 Q1761.89 67.5124 1766.39 67.5124 Q1772.58 67.5124 1776.31 63.1374 Q1780.08 58.7219 1780.08 51.4303 L1780.08 49.7694 L1772.67 49.7694 M1787.53 46.6907 L1787.53 72.576 L1780.08 72.576 L1780.08 65.6895 Q1777.53 69.8214 1773.72 71.8063 Q1769.91 73.7508 1764.4 73.7508 Q1757.43 73.7508 1753.3 69.8619 Q1749.21 65.9325 1749.21 59.3701 Q1749.21 51.7138 1754.31 47.825 Q1759.46 43.9361 1769.63 43.9361 L1780.08 43.9361 L1780.08 43.2069 Q1780.08 38.0623 1776.68 35.2672 Q1773.31 32.4315 1767.2 32.4315 Q1763.31 32.4315 1759.62 33.3632 Q1755.94 34.295 1752.53 36.1584 L1752.53 29.2718 Q1756.62 27.692 1760.47 26.9223 Q1764.32 26.1121 1767.97 26.1121 Q1777.81 26.1121 1782.67 31.2163 Q1787.53 36.3204 1787.53 46.6907 Z" fill="#ffffff" fill-rule="evenodd" fill-opacity="1" /><path clip-path="url(#clip480)" d="M1829.18 34.1734 Q1827.92 33.4443 1826.42 33.1202 Q1824.96 32.7556 1823.18 32.7556 Q1816.86 32.7556 1813.46 36.8875 Q1810.1 40.9789 1810.1 48.6757 L1810.1 72.576 L1802.6 72.576 L1802.6 27.2059 L1810.1 27.2059 L1810.1 34.2544 Q1812.45 30.1225 1816.21 28.1376 Q1819.98 26.1121 1825.37 26.1121 Q1826.14 26.1121 1827.07 26.2337 Q1828 26.3147 1829.14 26.5172 L1829.18 34.1734 Z" fill="#ffffff" fill-rule="evenodd" fill-opacity="1" /><path clip-path="url(#clip480)" d="M1836.99 27.2059 L1844.45 27.2059 L1844.45 72.576 L1836.99 72.576 L1836.99 27.2059 M1836.99 9.54393 L1844.45 9.54393 L1844.45 18.9825 L1836.99 18.9825 L1836.99 9.54393 Z" fill="#ffffff" fill-rule="evenodd" fill-opacity="1" /><path clip-path="url(#clip480)" d="M1888.97 28.5427 L1888.97 35.5912 Q1885.81 33.9709 1882.4 33.1607 Q1879 32.3505 1875.36 32.3505 Q1869.81 32.3505 1867.01 34.0519 Q1864.26 35.7533 1864.26 39.156 Q1864.26 41.7486 1866.24 43.2475 Q1868.23 44.7058 1874.22 46.0426 L1876.77 46.6097 Q1884.71 48.3111 1888.04 51.4303 Q1891.4 54.509 1891.4 60.0587 Q1891.4 66.3781 1886.37 70.0644 Q1881.39 73.7508 1872.64 73.7508 Q1869 73.7508 1865.03 73.0216 Q1861.1 72.3329 1856.72 70.9151 L1856.72 63.2184 Q1860.85 65.3654 1864.86 66.4591 Q1868.87 67.5124 1872.8 67.5124 Q1878.07 67.5124 1880.91 65.73 Q1883.74 63.9071 1883.74 60.6258 Q1883.74 57.5877 1881.68 55.9673 Q1879.65 54.3469 1872.72 52.8481 L1870.13 52.2405 Q1863.2 50.7821 1860.12 47.7845 Q1857.05 44.7463 1857.05 39.4801 Q1857.05 33.0797 1861.58 29.5959 Q1866.12 26.1121 1874.46 26.1121 Q1878.6 26.1121 1882.24 26.7198 Q1885.89 27.3274 1888.97 28.5427 Z" fill="#ffffff" fill-rule="evenodd" fill-opacity="1" /><path clip-path="url(#clip480)" d="M1920.85 32.4315 Q1914.85 32.4315 1911.37 37.1306 Q1907.88 41.7891 1907.88 49.9314 Q1907.88 58.0738 1911.33 62.7728 Q1914.81 67.4314 1920.85 67.4314 Q1926.8 67.4314 1930.29 62.7323 Q1933.77 58.0333 1933.77 49.9314 Q1933.77 41.8701 1930.29 37.1711 Q1926.8 32.4315 1920.85 32.4315 M1920.85 26.1121 Q1930.57 26.1121 1936.12 32.4315 Q1941.67 38.7509 1941.67 49.9314 Q1941.67 61.0714 1936.12 67.4314 Q1930.57 73.7508 1920.85 73.7508 Q1911.08 73.7508 1905.54 67.4314 Q1900.03 61.0714 1900.03 49.9314 Q1900.03 38.7509 1905.54 32.4315 Q1911.08 26.1121 1920.85 26.1121 Z" fill="#ffffff" fill-rule="evenodd" fill-opacity="1" /><path clip-path="url(#clip480)" d="M1991.74 45.1919 L1991.74 72.576 L1984.28 72.576 L1984.28 45.4349 Q1984.28 38.994 1981.77 35.7938 Q1979.26 32.5936 1974.24 32.5936 Q1968.2 32.5936 1964.72 36.4419 Q1961.24 40.2903 1961.24 46.9338 L1961.24 72.576 L1953.74 72.576 L1953.74 27.2059 L1961.24 27.2059 L1961.24 34.2544 Q1963.91 30.163 1967.51 28.1376 Q1971.16 26.1121 1975.9 26.1121 Q1983.72 26.1121 1987.73 30.9732 Q1991.74 35.7938 1991.74 45.1919 Z" fill="#ffffff" fill-rule="evenodd" fill-opacity="1" /><polyline clip-path="url(#clip482)" style="stroke:#009af9; stroke-linecap:round; stroke-linejoin:round; stroke-width:4; stroke-opacity:1; fill:none" points="337.903,1344.41 533.52,1241.96 729.136,1195.08 924.753,1106.14 1120.37,1000.28 1315.99,827.508 1511.6,678.647 1707.22,609.404 1902.84,640.074 2098.45,464.842 2294.07,194.353 "/>
<polyline clip-path="url(#clip482)" style="stroke:#e26f46; stroke-linecap:round; stroke-linejoin:round; stroke-width:4; stroke-opacity:1; fill:none" points="337.903,1386.4 533.52,1182.04 729.136,1182.04 924.753,1182.04 1120.37,977.683 1315.99,773.326 1511.6,773.326 1707.22,568.969 1902.84,568.969 2098.45,364.613 2294.07,160.256 "/>
<path clip-path="url(#clip480)" d="M348.336 322.316 L645.272 322.316 L645.272 166.796 L348.336 166.796  Z" fill="#000000" fill-rule="evenodd" fill-opacity="0"/>
<polyline clip-path="url(#clip480)" style="stroke:#ffffff; stroke-linecap:round; stroke-linejoin:round; stroke-width:4; stroke-opacity:1; fill:none" points="348.336,322.316 645.272,322.316 645.272,166.796 348.336,166.796 348.336,322.316 "/>
<polyline clip-path="url(#clip480)" style="stroke:#009af9; stroke-linecap:round; stroke-linejoin:round; stroke-width:4; stroke-opacity:1; fill:none" points="371.375,218.636 509.611,218.636 "/>
<path clip-path="url(#clip480)" d="M532.65 201.356 L537.326 201.356 L537.326 231.981 L554.155 231.981 L554.155 235.916 L532.65 235.916 L532.65 201.356 Z" fill="#ffffff" fill-rule="evenodd" fill-opacity="1" /><path clip-path="url(#clip480)" d="M579.78 202.49 L579.78 207.05 Q577.118 205.777 574.756 205.152 Q572.395 204.527 570.196 204.527 Q566.377 204.527 564.294 206.008 Q562.233 207.49 562.233 210.221 Q562.233 212.513 563.599 213.694 Q564.988 214.851 568.831 215.569 L571.655 216.147 Q576.886 217.143 579.363 219.666 Q581.863 222.166 581.863 226.379 Q581.863 231.402 578.483 233.994 Q575.127 236.587 568.622 236.587 Q566.169 236.587 563.391 236.031 Q560.636 235.476 557.673 234.388 L557.673 229.573 Q560.52 231.17 563.252 231.981 Q565.983 232.791 568.622 232.791 Q572.627 232.791 574.803 231.217 Q576.979 229.643 576.979 226.726 Q576.979 224.18 575.405 222.744 Q573.854 221.309 570.289 220.592 L567.442 220.036 Q562.21 218.995 559.872 216.772 Q557.534 214.55 557.534 210.592 Q557.534 206.008 560.752 203.37 Q563.993 200.731 569.664 200.731 Q572.094 200.731 574.618 201.171 Q577.141 201.61 579.78 202.49 Z" fill="#ffffff" fill-rule="evenodd" fill-opacity="1" /><path clip-path="url(#clip480)" d="M589.155 201.356 L611.006 201.356 L611.006 205.291 L593.83 205.291 L593.83 215.522 L610.289 215.522 L610.289 219.457 L593.83 219.457 L593.83 231.981 L611.423 231.981 L611.423 235.916 L589.155 235.916 L589.155 201.356 Z" fill="#ffffff" fill-rule="evenodd" fill-opacity="1" /><polyline clip-path="url(#clip480)" style="stroke:#e26f46; stroke-linecap:round; stroke-linejoin:round; stroke-width:4; stroke-opacity:1; fill:none" points="371.375,270.476 509.611,270.476 "/>
<path clip-path="url(#clip480)" d="M532.65 253.196 L539.618 253.196 L548.437 276.714 L557.303 253.196 L564.27 253.196 L564.27 287.756 L559.71 287.756 L559.71 257.409 L550.798 281.112 L546.099 281.112 L537.187 257.409 L537.187 287.756 L532.65 287.756 L532.65 253.196 Z" fill="#ffffff" fill-rule="evenodd" fill-opacity="1" /><path clip-path="url(#clip480)" d="M573.553 253.196 L578.229 253.196 L578.229 283.821 L595.057 283.821 L595.057 287.756 L573.553 287.756 L573.553 253.196 Z" fill="#ffffff" fill-rule="evenodd" fill-opacity="1" /><path clip-path="url(#clip480)" d="M599.965 253.196 L621.816 253.196 L621.816 257.131 L604.641 257.131 L604.641 267.362 L621.099 267.362 L621.099 271.297 L604.641 271.297 L604.641 283.821 L622.233 283.821 L622.233 287.756 L599.965 287.756 L599.965 253.196 Z" fill="#ffffff" fill-rule="evenodd" fill-opacity="1" /></svg>
